{
  "accessors": [
    {
      "bufferView": 0,
      "componentType": 5126,
      "count": 1014,
      "max": [
        151.2322998046875,
        156.46339416503906,
        149.60400390625
      ],
      "min": [
        -68.19940948486328,
        -68.16761016845703,
        -68.16761016845703
      ],
      "type": "VEC3"
    },
    {
      "bufferView": 1,
      "componentType": 5126,
      "count": 1014,
      "type": "VEC3"
    },
    {
      "bufferView": 2,
      "componentType": 5126,
      "count": 1014,
      "type": "VEC2"
    },
    {
      "bufferView": 3,
      "componentType": 5123,
      "count": 4230,
      "type": "SCALAR"
    },
    {
      "bufferView": 4,
      "componentType": 5126,
      "count": 143,
      "max": [
        158.720703125,
        158.52040100097656,
        154.23089599609375
      ],
      "min": [
        -68.19940948486328,
        -68.16761016845703,
        -68.16761016845703
      ],
      "type": "VEC3"
    },
    {
      "bufferView": 5,
      "componentType": 5126,
      "count": 143,
      "type": "VEC3"
    },
    {
      "bufferView": 6,
      "componentType": 5126,
      "count": 143,
      "type": "VEC2"
    },
    {
      "bufferView": 7,
      "componentType": 5123,
      "count": 762,
      "type": "SCALAR"
    },
    {
      "bufferView": 8,
      "componentType": 5126,
      "count": 78,
      "type": "MAT4"
    }
  ],
  "asset": {
    "generator": "gr2togltf (ANKA2 Project)",
    "version": "2.0"
  },
  "bufferViews": [
    {
      "buffer": 0,
      "byteLength": 12168,
      "target": 34962
    },
    {
      "buffer": 0,
      "byteLength": 12168,
      "byteOffset": 12168,
      "target": 34962
    },
    {
      "buffer": 0,
      "byteLength": 8112,
      "byteOffset": 24336,
      "target": 34962
    },
    {
      "buffer": 0,
      "byteLength": 8460,
      "byteOffset": 32448,
      "target": 34963
    },
    {
      "buffer": 0,
      "byteLength": 1716,
      "byteOffset": 40908,
      "target": 34962
    },
    {
      "buffer": 0,
      "byteLength": 1716,
      "byteOffset": 42624,
      "target": 34962
    },
    {
      "buffer": 0,
      "byteLength": 1144,
      "byteOffset": 44340,
      "target": 34962
    },
    {
      "buffer": 0,
      "byteLength": 1524,
      "byteOffset": 45484,
      "target": 34963
    },
    {
      "buffer": 0,
      "byteLength": 4992,
      "byteOffset": 47008
    }
  ],
  "buffers": [
    {
      "byteLength": 52000,
      "uri": "data:application/octet-stream;base64,"
    }
  ],
  "materials": [
    {
      "name": "default",
      "pbrMetallicRoughness": {
        "baseColorFactor": [
          0.8,
          0.8,
          0.8,
          1.0
        ],
        "metallicFactor": 0.0,
        "roughnessFactor": 0.8
      }
    }
  ],
  "meshes": [
    {
      "name": "assassin_body02",
      "primitives": [
        {
          "attributes": {
            "NORMAL": 1,
            "POSITION": 0,
            "TEXCOORD_0": 2
          },
          "indices": 3,
          "material": 0,
          "mode": 4
        }
      ]
    },
    {
      "name": "assassin_face01",
      "primitives": [
        {
          "attributes": {
            "NORMAL": 5,
            "POSITION": 4,
            "TEXCOORD_0": 6
          },
          "indices": 7,
          "material": 0,
          "mode": 4
        }
      ]
    }
  ],
  "nodes": [
    {
      "children": [
        1,
        2,
        3
      ]
    },
    {
      "mesh": 0,
      "name": "assassin_body02",
      "skin": 0
    },
    {
      "mesh": 1,
      "name": "assassin_face01",
      "skin": 0
    },
    {
      "children": [
        4
      ],
      "name": "Bip01",
      "rotation": [
        0.0,
        0.0,
        0.0,
        0.9999999403953552
      ],
      "scale": [
        0.9999997615814209,
        -3.107376958825722e-14,
        0.0
      ],
      "translation": [
        0.0,
        1.862645149230957e-09,
        0.0
      ]
    },
    {
      "children": [
        5
      ],
      "name": "Bip01 Pelvis",
      "rotation": [
        -0.4999993145465851,
        -0.5,
        -0.5,
        0.5000006556510925
      ],
      "scale": [
        1.0,
        -1.4929007394145328e-19,
        -2.667114431411373e-18
      ],
      "translation": [
        -0.4305543005466461,
        -0.013546029105782509,
        0.0
      ]
    },
    {
      "children": [
        6,
        19,
        22,
        25,
        28,
        31,
        36
      ],
      "name": "Bip01 Spine",
      "rotation": [
        2.199636583100073e-06,
        0.0004584032576531172,
        -0.008512723259627819,
        0.999963641166687
      ],
      "scale": [
        1.0000001192092896,
        1.6059277241353698e-09,
        1.7528062334903893e-11
      ],
      "translation": [
        9.231704711914063,
        -0.006681759841740131,
        1.2809410691261292e-05
      ]
    },
    {
      "children": [
        7
      ],
      "name": "Bip01 Spine1",
      "rotation": [
        2.579001736561365e-13,
        -5.80622616652704e-09,
        0.002097885590046644,
        0.9999977946281433
      ],
      "scale": [
        0.9999998807907104,
        4.3114056769155695e-10,
        2.9106102944487233e-11
      ],
      "translation": [
        8.398162841796875,
        -0.010102152824401855,
        -2.9802322387695313e-08
      ]
    },
    {
      "children": [
        8,
        41,
        43
      ],
      "name": "Bip01 Spine2",
      "rotation": [
        -1.3632834010984807e-12,
        9.607116879806199e-08,
        -0.034630514681339264,
        0.9994001984596252
      ],
      "scale": [
        1.0000001192092896,
        6.613815717315674e-09,
        -7.318447334692807e-14
      ],
      "translation": [
        12.686180114746094,
        -0.010077714920043945,
        -2.2351741790771484e-08
      ]
    },
    {
      "children": [
        9,
        14,
        73
      ],
      "name": "Bip01 Neck",
      "rotation": [
        -3.4904394851764664e-05,
        -0.00045816993224434555,
        0.13992170989513397,
        0.9901624321937561
      ],
      "scale": [
        1.0000001192092896,
        -2.075612748342337e-08,
        -3.069706641656289e-11
      ],
      "translation": [
        14.334159851074219,
        -3.440770149230957,
        -3.427267074584961e-06
      ]
    },
    {
      "children": [
        10,
        45
      ],
      "name": "Bip01 R Clavicle",
      "rotation": [
        -0.579227089881897,
        0.08922635763883591,
        0.8029547929763794,
        0.1086195781826973
      ],
      "scale": [
        1.0000001192092896,
        -1.4279180060583485e-09,
        -2.7025103932487582e-08
      ],
      "translation": [
        -1.0674591064453125,
        1.0830726623535156,
        -2.8085198402404785
      ]
    },
    {
      "children": [
        11
      ],
      "name": "Bip01 R UpperArm",
      "rotation": [
        -0.041233502328395844,
        -0.11716581135988235,
        0.009602153673768044,
        0.9922095537185669
      ],
      "scale": [
        1.0000001192092896,
        -1.6711134698255137e-09,
        1.7803552410100565e-08
      ],
      "translation": [
        11.362133026123047,
        4.76837158203125e-07,
        0.0
      ]
    },
    {
      "children": [
        12
      ],
      "name": "Bip01 R ForeArm",
      "rotation": [
        -6.408947261782316e-10,
        -1.4887363342097615e-08,
        -0.04301733896136284,
        0.9990743398666382
      ],
      "scale": [
        0.9999999403953552,
        0.0,
        2.9802343703977385e-08
      ],
      "translation": [
        24.08300018310547,
        0.0,
        0.0
      ]
    },
    {
      "children": [
        13,
        47,
        51,
        55
      ],
      "name": "Bip01 R Hand",
      "rotation": [
        0.7058848142623901,
        0.03647807985544205,
        -0.03644904866814613,
        0.7064470648765564
      ],
      "scale": [
        1.0,
        -4.9556984293985806e-08,
        -4.942262599172409e-09
      ],
      "translation": [
        24.082996368408203,
        -4.76837158203125e-07,
        -7.62939453125e-06
      ]
    },
    {
      "name": "equip_right",
      "rotation": [
        7.729977369308472e-08,
        6.705522537231445e-07,
        -2.0861622829215776e-07,
        1.0
      ],
      "scale": [
        1.000000238418579,
        -2.980236146754578e-08,
        3.725515451691308e-09
      ],
      "translation": [
        2.4170150756835938,
        -2.9430618286132813,
        -0.0777273178100586
      ]
    },
    {
      "children": [
        15,
        59
      ],
      "name": "Bip01 L Clavicle",
      "rotation": [
        0.5799686908721924,
        -0.08928948640823364,
        0.8024171590805054,
        0.10858369618654251
      ],
      "scale": [
        1.0000001192092896,
        -7.113648337053746e-09,
        6.172155764261333e-08
      ],
      "translation": [
        -1.06243896484375,
        1.081949234008789,
        2.8108510971069336
      ]
    },
    {
      "children": [
        16
      ],
      "name": "Bip01 L UpperArm",
      "rotation": [
        0.04123158007860184,
        0.11807733029127121,
        0.009625189937651157,
        0.9921013116836548
      ],
      "scale": [
        1.0,
        -3.138137305569444e-09,
        -4.5857156294459855e-08
      ],
      "translation": [
        11.362140655517578,
        9.5367431640625e-07,
        0.0
      ]
    },
    {
      "children": [
        17
      ],
      "name": "Bip01 L ForeArm",
      "rotation": [
        1.571468843941659e-09,
        1.48473047190123e-08,
        -0.04301733896136284,
        0.9990743398666382
      ],
      "scale": [
        1.0,
        1.2546325756090937e-08,
        -2.9802322387695313e-08
      ],
      "translation": [
        24.082996368408203,
        -4.76837158203125e-07,
        -7.62939453125e-06
      ]
    },
    {
      "children": [
        18,
        61,
        65,
        69
      ],
      "name": "Bip01 L Hand",
      "rotation": [
        -0.7058848142623901,
        -0.03647806867957115,
        -0.036449041217565536,
        0.7064470648765564
      ],
      "scale": [
        1.0,
        -2.5443147588788406e-09,
        8.253338457109294e-09
      ],
      "translation": [
        24.083003997802734,
        0.0,
        0.0
      ]
    },
    {
      "name": "equip_left",
      "rotation": [
        -5.224721917329589e-07,
        -1.1106027386631467e-06,
        -1.9371509552001953e-07,
        1.0
      ],
      "scale": [
        0.9999998211860657,
        -2.9803501888636674e-08,
        -3.073465748570925e-08
      ],
      "translation": [
        -0.5002899169921875,
        -1.1329803466796875,
        0.2617049217224121
      ]
    },
    {
      "children": [
        20
      ],
      "name": "F_01",
      "rotation": [
        -0.00045783823588863015,
        -3.1469044188270345e-05,
        0.9976655840873718,
        0.06828778982162476
      ],
      "scale": [
        0.9999998807907104,
        6.16875261982841e-09,
        -1.1197764720680126e-12
      ],
      "translation": [
        2.9761505126953125,
        9.141226768493652,
        -0.0031200647354125977
      ]
    },
    {
      "children": [
        21
      ],
      "name": "F_02",
      "rotation": [
        2.0255605393394542e-14,
        -7.207758254991741e-15,
        0.023484066128730774,
        0.9997242093086243
      ],
      "scale": [
        1.0,
        6.5199277088368035e-09,
        -1.5362907614894367e-14
      ],
      "translation": [
        19.174598693847656,
        1.9073486328125e-06,
        3.499590093269944e-07
      ]
    },
    {
      "name": "F_03",
      "rotation": [
        4.4408925220171e-15,
        1.4210858103333793e-14,
        -8.195638656616211e-08,
        1.0
      ],
      "scale": [
        0.9999999403953552,
        9.769962616701378e-15,
        2.541098841762901e-21
      ],
      "translation": [
        15.030853271484375,
        -5.7220458984375e-06,
        2.441738615743816e-07
      ]
    },
    {
      "children": [
        23
      ],
      "name": "L_01",
      "rotation": [
        0.12969960272312164,
        0.6951155662536621,
        0.6927961111068726,
        -0.14151303470134735
      ],
      "scale": [
        0.9999997615814209,
        7.937455848150421e-08,
        1.2116505576642567e-09
      ],
      "translation": [
        3.6826705932617188,
        0.0695488452911377,
        10.39195442199707
      ]
    },
    {
      "children": [
        24
      ],
      "name": "L_02",
      "rotation": [
        7.19134918281128e-10,
        1.9149103636095788e-08,
        -0.037528518587350845,
        0.9992955327033997
      ],
      "scale": [
        1.0000001192092896,
        1.6306586303471704e-08,
        2.9674166227532106e-14
      ],
      "translation": [
        19.44884490966797,
        0.0,
        -7.873022696003318e-07
      ]
    },
    {
      "name": "L_03",
      "rotation": [
        -1.7763568394002505e-15,
        -7.105426934084528e-15,
        -7.450580596923828e-09,
        1.0
      ],
      "scale": [
        1.0,
        1.4901161193847656e-08,
        1.4210856409267898e-14
      ],
      "translation": [
        16.961402893066406,
        0.0,
        0.0
      ]
    },
    {
      "children": [
        26
      ],
      "name": "B_01",
      "rotation": [
        -0.00044975493801757693,
        9.231099102180451e-05,
        0.9794315099716187,
        -0.20177631080150604
      ],
      "scale": [
        0.9999999403953552,
        -5.485782139658113e-08,
        -4.752839441457546e-11
      ],
      "translation": [
        5.919456481933594,
        -6.957294464111328,
        -0.00042892247438430786
      ]
    },
    {
      "children": [
        27
      ],
      "name": "B_02",
      "rotation": [
        3.294424534062458e-16,
        5.687763242737175e-16,
        -0.0811627134680748,
        0.9967008829116821
      ],
      "scale": [
        1.0000001192092896,
        4.79396078389982e-10,
        -2.3654371257548048e-15
      ],
      "translation": [
        16.875205993652344,
        -0.000308990478515625,
        1.77351466845721e-11
      ]
    },
    {
      "name": "B_03",
      "rotation": [
        4.3332015493141585e-13,
        -1.6662226069372177e-12,
        2.9802322387695313e-08,
        1.0
      ],
      "scale": [
        1.0000001192092896,
        1.4901161193847656e-08,
        5.5138116294983774e-12
      ],
      "translation": [
        23.144187927246094,
        1.1444091796875e-05,
        1.6366982436011313e-07
      ]
    },
    {
      "children": [
        29
      ],
      "name": "R_01",
      "rotation": [
        0.1303357183933258,
        0.6949857473373413,
        -0.6926763653755188,
        0.14215092360973358
      ],
      "scale": [
        0.9999998211860657,
        7.110774902230332e-08,
        -1.2046085240413618e-09
      ],
      "translation": [
        3.701690673828125,
        0.06956279277801514,
        -10.318809509277344
      ]
    },
    {
      "children": [
        30
      ],
      "name": "R_02",
      "rotation": [
        7.191478523793648e-10,
        1.914910008338211e-08,
        -0.03752852603793144,
        0.9992955327033997
      ],
      "scale": [
        1.0000001192092896,
        5.917993206594474e-09,
        4.03873906635265e-15
      ],
      "translation": [
        19.448837280273438,
        3.814697265625e-06,
        -7.873040885897353e-07
      ]
    },
    {
      "name": "R_03",
      "rotation": [
        1.887379353621003e-15,
        0.0,
        0.0,
        1.0
      ],
      "scale": [
        0.9999999403953552,
        0.0,
        0.0
      ],
      "translation": [
        16.961395263671875,
        -3.814697265625e-06,
        4.547473508864641e-13
      ]
    },
    {
      "children": [
        32
      ],
      "name": "Bip01 R Thigh",
      "rotation": [
        -0.0017398606287315488,
        0.9993849396705627,
        -0.01285516656935215,
        0.03257985785603523
      ],
      "scale": [
        1.0,
        1.3304483070797346e-09,
        3.610782783880495e-09
      ],
      "translation": [
        -9.223106384277344,
        -0.1504669189453125,
        -8.036138534545898
      ]
    },
    {
      "children": [
        33
      ],
      "name": "Bip01 R Calf",
      "rotation": [
        1.0882174050763638e-09,
        -5.571640926405053e-09,
        -0.09983308613300323,
        0.9950041770935059
      ],
      "scale": [
        1.0,
        3.0371358940538e-17,
        4.0308285598200655e-09
      ],
      "translation": [
        40.13832092285156,
        -1.1920928955078125e-07,
        0.0
      ]
    },
    {
      "children": [
        34
      ],
      "name": "Bip01 R Foot",
      "rotation": [
        0.06932540237903595,
        0.038423728197813034,
        0.09007377922534943,
        0.9927760362625122
      ],
      "scale": [
        1.0,
        5.023241378410148e-09,
        -5.827506477373845e-09
      ],
      "translation": [
        40.138328552246094,
        9.5367431640625e-07,
        0.0
      ]
    },
    {
      "children": [
        35
      ],
      "name": "Bip01 R Toe0",
      "rotation": [
        1.5454309831852697e-08,
        1.5454311608209537e-08,
        0.7071067690849304,
        0.7071067690849304
      ],
      "scale": [
        1.0,
        -1.2329859345458412e-22,
        1.2985046845143946e-15
      ],
      "translation": [
        13.162713050842285,
        12.053354263305664,
        -1.9073486328125e-06
      ]
    },
    {
      "name": "Bip01 R Toe0Nub",
      "rotation": [
        -4.440892098500626e-16,
        1.768570912549089e-16,
        -8.15580738171135e-31,
        1.0
      ],
      "scale": [
        1.0,
        -2.6340003453903567e-30,
        3.31933492600826e-15
      ],
      "translation": [
        10.604899406433105,
        0.0,
        0.0
      ]
    },
    {
      "children": [
        37
      ],
      "name": "Bip01 L Thigh",
      "rotation": [
        -0.0017517311498522758,
        0.9994144439697266,
        0.012855607084929943,
        -0.03166209161281586
      ],
      "scale": [
        1.0,
        1.7936133134277554e-10,
        1.2746544930664072e-09
      ],
      "translation": [
        -9.237846374511719,
        -0.15049970149993896,
        8.019186973571777
      ]
    },
    {
      "children": [
        38
      ],
      "name": "Bip01 L Calf",
      "rotation": [
        7.338876173434983e-10,
        3.7894869464594194e-09,
        -0.09983309358358383,
        0.9950041770935059
      ],
      "scale": [
        1.0,
        -2.9208264251678884e-08,
        -7.213517783100087e-09
      ],
      "translation": [
        40.13832092285156,
        0.0,
        0.0
      ]
    },
    {
      "children": [
        39
      ],
      "name": "Bip01 L Foot",
      "rotation": [
        -0.06932540237903595,
        -0.03842363879084587,
        0.09007378667593002,
        0.9927760362625122
      ],
      "scale": [
        1.0,
        1.1571471780769116e-08,
        1.5674053166492286e-09
      ],
      "translation": [
        40.138328552246094,
        0.0,
        -9.5367431640625e-07
      ]
    },
    {
      "children": [
        40
      ],
      "name": "Bip01 L Toe0",
      "rotation": [
        -1.5454309831852697e-08,
        -1.5454309831852697e-08,
        0.7071067094802856,
        0.7071067690849304
      ],
      "scale": [
        1.0,
        -1.395519869340575e-23,
        -4.3766266500012583e-16
      ],
      "translation": [
        13.162713050842285,
        12.053354263305664,
        -1.9073486328125e-06
      ]
    },
    {
      "name": "Bip01 L Toe0Nub",
      "rotation": [
        8.881784197001252e-16,
        -6.747493574585318e-17,
        8.881784197001252e-16,
        1.0
      ],
      "scale": [
        1.0,
        1.7763568394002505e-15,
        1.3788909699450247e-15
      ],
      "translation": [
        10.604897499084473,
        -4.656612873077393e-10,
        9.5367431640625e-07
      ]
    },
    {
      "children": [
        42
      ],
      "name": "Bone07",
      "rotation": [
        -0.13934281468391418,
        0.09060375392436981,
        0.7841300368309021,
        0.5979253649711609
      ],
      "scale": [
        0.9999996423721313,
        -1.7122861351026586e-08,
        -7.652200650909435e-08
      ],
      "translation": [
        4.191436767578125,
        3.2420263290405273,
        -4.37860107421875
      ]
    },
    {
      "name": "Bone08",
      "rotation": [
        -2.210819749492998e-09,
        7.185164463408e-09,
        2.932634858547526e-17,
        1.0
      ],
      "scale": [
        0.4212566018104553,
        1.1324426013470457e-17,
        -5.122273716295922e-09
      ],
      "translation": [
        9.775654792785645,
        -7.62939453125e-06,
        -9.5367431640625e-07
      ]
    },
    {
      "children": [
        44
      ],
      "name": "Bone05",
      "rotation": [
        0.11136461049318314,
        -0.07542803883552551,
        0.7880299687385559,
        0.6007639169692993
      ],
      "scale": [
        1.0000001192092896,
        3.2520212300823914e-08,
        3.26870619460351e-09
      ],
      "translation": [
        4.191436767578125,
        3.2420167922973633,
        4.7433013916015625
      ]
    },
    {
      "name": "Bone06",
      "rotation": [
        1.1717344250428141e-07,
        9.036727988132043e-08,
        4.4216390548967865e-09,
        1.0
      ],
      "scale": [
        0.4212566018104553,
        -3.725299180246111e-09,
        -1.6298051797036806e-09
      ],
      "translation": [
        9.77564811706543,
        0.0,
        0.0
      ]
    },
    {
      "children": [
        46
      ],
      "name": "Bone09",
      "rotation": [
        -0.7176151275634766,
        0.1645326316356659,
        0.15742914378643036,
        0.6581592559814453
      ],
      "scale": [
        0.9999999403953552,
        -2.9088925046494296e-08,
        2.3357005218827e-10
      ],
      "translation": [
        5.556011199951172,
        -0.32675695419311523,
        -0.8303375244140625
      ]
    },
    {
      "name": "Bone10",
      "rotation": [
        1.4210854715202004e-14,
        -3.375077994860476e-14,
        7.598308239088786e-27,
        1.0
      ],
      "scale": [
        1.0,
        -2.655621351336014e-26,
        8.668621376273222e-13
      ],
      "translation": [
        25.683958053588867,
        -1.52587890625e-05,
        2.384185791015625e-07
      ]
    },
    {
      "children": [
        48
      ],
      "name": "Bip01 R Finger2",
      "rotation": [
        0.08983657509088516,
        0.00497463159263134,
        0.0555575005710125,
        0.9943932890892029
      ],
      "scale": [
        1.0000001192092896,
        -9.771327746932457e-09,
        4.016817101160086e-09
      ],
      "translation": [
        8.273906707763672,
        -0.6917953491210938,
        -1.2059063911437988
      ]
    },
    {
      "children": [
        49
      ],
      "name": "Bip01 R Finger21",
      "rotation": [
        7.386533162900832e-09,
        1.1198496864195997e-16,
        0.13083870708942413,
        0.9914036393165588
      ],
      "scale": [
        0.9999999403953552,
        -2.1442581044084363e-09,
        -1.9328889599989907e-09
      ],
      "translation": [
        3.0855941772460938,
        0.0,
        -1.9073486328125e-06
      ]
    },
    {
      "children": [
        50
      ],
      "name": "Bip01 R Finger22",
      "rotation": [
        -7.386533606990042e-09,
        -9.74824221344761e-10,
        0.13083867728710175,
        0.9914036989212036
      ],
      "scale": [
        1.0,
        -2.1442509989810787e-09,
        0.0
      ],
      "translation": [
        3.0856094360351563,
        -7.62939453125e-06,
        -1.9073486328125e-06
      ]
    },
    {
      "name": "Bip01 R Finger2Nub",
      "rotation": [
        -1.862645149230957e-09,
        3.725290298461914e-09,
        7.450580596923828e-09,
        1.0
      ],
      "scale": [
        1.0,
        -1.4901161193847656e-08,
        -7.450580596923828e-09
      ],
      "translation": [
        3.0856056213378906,
        0.0,
        -1.9073486328125e-06
      ]
    },
    {
      "children": [
        52
      ],
      "name": "Bip01 R Finger1",
      "rotation": [
        0.0031985819805413485,
        -0.06788016110658646,
        0.041126497089862823,
        0.9968403577804565
      ],
      "scale": [
        1.0,
        -1.101537527858909e-08,
        -5.171630235167868e-09
      ],
      "translation": [
        8.236907958984375,
        -0.8613967895507813,
        2.45908260345459
      ]
    },
    {
      "children": [
        53
      ],
      "name": "Bip01 R Finger11",
      "rotation": [
        3.916782009838471e-09,
        -1.8499830556351071e-09,
        0.11640217155218124,
        0.9932021498680115
      ],
      "scale": [
        1.0000001192092896,
        2.8279249164597786e-08,
        2.863921544360437e-09
      ],
      "translation": [
        3.0103721618652344,
        7.62939453125e-06,
        1.9073486328125e-06
      ]
    },
    {
      "children": [
        54
      ],
      "name": "Bip01 R Finger12",
      "rotation": [
        7.081755737381457e-10,
        2.3920230241003537e-09,
        0.11640217155218124,
        0.9932021498680115
      ],
      "scale": [
        1.0,
        -4.206114212479406e-08,
        -2.863921988449647e-09
      ],
      "translation": [
        3.0103797912597656,
        1.52587890625e-05,
        0.0
      ]
    },
    {
      "name": "Bip01 R Finger1Nub",
      "rotation": [
        0.0,
        1.862645149230957e-09,
        -3.469446951953614e-18,
        1.0
      ],
      "scale": [
        1.0,
        0.0,
        -3.725290298461914e-09
      ],
      "translation": [
        3.0103759765625,
        0.0,
        0.0
      ]
    },
    {
      "children": [
        56
      ],
      "name": "Bip01 R Finger0",
      "rotation": [
        -0.6828780770301819,
        -0.2569224238395691,
        -0.13452890515327454,
        0.6705000996589661
      ],
      "scale": [
        1.0,
        -1.705422292275216e-08,
        4.6960263233586375e-08
      ],
      "translation": [
        0.5431480407714844,
        0.00774383544921875,
        2.551161050796509
      ]
    },
    {
      "children": [
        57
      ],
      "name": "Bip01 R Finger01",
      "rotation": [
        -5.434494187994687e-09,
        1.523349801857421e-08,
        0.11640219390392303,
        0.9932021498680115
      ],
      "scale": [
        0.9999999403953552,
        -7.154605796699798e-10,
        -2.807958487949236e-08
      ],
      "translation": [
        3.7950172424316406,
        0.0,
        -7.62939453125e-06
      ]
    },
    {
      "children": [
        58
      ],
      "name": "Bip01 R Finger02",
      "rotation": [
        4.451774504588002e-09,
        -8.050379918245198e-09,
        0.11640217155218124,
        0.9932021498680115
      ],
      "scale": [
        1.0,
        -1.3066427939634195e-08,
        4.257694286025071e-08
      ],
      "translation": [
        3.7950172424316406,
        0.0,
        1.52587890625e-05
      ]
    },
    {
      "name": "Bip01 R Finger0Nub",
      "rotation": [
        9.313225746154785e-10,
        0.0,
        -4.190951585769653e-09,
        1.0
      ],
      "scale": [
        1.0,
        -6.519258910486769e-09,
        2.9802322387695313e-08
      ],
      "translation": [
        3.795013427734375,
        -4.76837158203125e-07,
        0.0
      ]
    },
    {
      "children": [
        60
      ],
      "name": "Bone01",
      "rotation": [
        0.7176151871681213,
        -0.1645348221063614,
        0.15742738544940948,
        0.658159077167511
      ],
      "scale": [
        1.0,
        -1.625189582910025e-08,
        -1.3601848536382022e-09
      ],
      "translation": [
        5.556034088134766,
        -0.32680320739746094,
        0.830352783203125
      ]
    },
    {
      "name": "Bone02",
      "rotation": [
        0.0,
        -1.7763568394002505e-15,
        0.0,
        1.0
      ],
      "scale": [
        1.0,
        0.0,
        1.7763568394002505e-15
      ],
      "translation": [
        25.6839599609375,
        -1.52587890625e-05,
        2.384185791015625e-07
      ]
    },
    {
      "children": [
        62
      ],
      "name": "Bip01 L Finger2",
      "rotation": [
        -0.08983657509088516,
        -0.004974632989615202,
        0.055557478219270706,
        0.9943932890892029
      ],
      "scale": [
        1.0000001192092896,
        -4.613249515728057e-08,
        -1.4647437041048761e-08
      ],
      "translation": [
        8.273906707763672,
        -0.691802978515625,
        1.2059054374694824
      ]
    },
    {
      "children": [
        63
      ],
      "name": "Bip01 L Finger21",
      "rotation": [
        -3.4495601930473185e-09,
        1.3592208469859202e-09,
        0.13083875179290771,
        0.9914036393165588
      ],
      "scale": [
        1.0000001192092896,
        -7.302703863842908e-08,
        3.5977461010361367e-09
      ],
      "translation": [
        3.0855941772460938,
        0.0,
        1.9073486328125e-06
      ]
    },
    {
      "children": [
        64
      ],
      "name": "Bip01 L Finger22",
      "rotation": [
        5.539899650131019e-09,
        -6.655414441780749e-09,
        0.13083870708942413,
        0.9914036393165588
      ],
      "scale": [
        0.9999998807907104,
        7.088278408673432e-08,
        2.5509017120839417e-10
      ],
      "translation": [
        3.0855979919433594,
        -7.62939453125e-06,
        0.0
      ]
    },
    {
      "name": "Bip01 L Finger2Nub",
      "rotation": [
        3.725290298461914e-09,
        -3.725290298461914e-09,
        -1.4901161193847656e-08,
        1.0
      ],
      "scale": [
        0.9999999403953552,
        5.551115123125783e-17,
        7.450580596923828e-09
      ],
      "translation": [
        3.085590362548828,
        0.0,
        0.0
      ]
    },
    {
      "children": [
        66
      ],
      "name": "Bip01 L Finger1",
      "rotation": [
        -0.0031985805835574865,
        0.06788017600774765,
        0.041126493364572525,
        0.9968403577804565
      ],
      "scale": [
        1.0,
        -2.7129264168479494e-08,
        -1.0946441975079324e-08
      ],
      "translation": [
        8.236907958984375,
        -0.8613967895507813,
        -2.459082841873169
      ]
    },
    {
      "children": [
        67
      ],
      "name": "Bip01 L Finger11",
      "rotation": [
        -1.5247593188050246e-09,
        -4.841773648678327e-09,
        0.11640217900276184,
        0.9932021498680115
      ],
      "scale": [
        1.0000001192092896,
        2.8994712408803025e-08,
        5.638410627284429e-09
      ],
      "translation": [
        3.0103759765625,
        0.0,
        0.0
      ]
    },
    {
      "children": [
        68
      ],
      "name": "Bip01 L Finger12",
      "rotation": [
        -9.19218923201015e-09,
        -2.5074780030109878e-09,
        0.11640220880508423,
        0.9932021498680115
      ],
      "scale": [
        0.9999999403953552,
        -4.27766053689993e-08,
        -1.0291464569434083e-08
      ],
      "translation": [
        3.0103797912597656,
        1.52587890625e-05,
        0.0
      ]
    },
    {
      "name": "Bip01 L Finger1Nub",
      "rotation": [
        9.313225746154785e-10,
        1.6653345369377348e-16,
        -1.4901161193847656e-08,
        1.0
      ],
      "scale": [
        1.0,
        -2.9802318834981634e-08,
        7.450580596923828e-09
      ],
      "translation": [
        3.0103683471679688,
        0.0,
        -9.5367431640625e-07
      ]
    },
    {
      "children": [
        70
      ],
      "name": "Bip01 L Finger0",
      "rotation": [
        0.6828780770301819,
        0.2569224238395691,
        -0.13452890515327454,
        0.6705000996589661
      ],
      "scale": [
        0.9999999403953552,
        1.5204868475393596e-08,
        3.305551743437718e-08
      ],
      "translation": [
        0.54315185546875,
        0.00774383544921875,
        -2.551161289215088
      ]
    },
    {
      "children": [
        71
      ],
      "name": "Bip01 L Finger01",
      "rotation": [
        9.134460299264902e-09,
        -1.393260173898625e-08,
        0.11640217900276184,
        0.9932021498680115
      ],
      "scale": [
        0.9999999403953552,
        -1.4497355316223093e-08,
        2.9802322387695313e-08
      ],
      "translation": [
        3.7950096130371094,
        -3.814697265625e-06,
        -7.62939453125e-06
      ]
    },
    {
      "children": [
        72
      ],
      "name": "Bip01 L Finger02",
      "rotation": [
        -6.417212983222953e-09,
        2.1549348971916515e-08,
        0.11640219390392303,
        0.9932021498680115
      ],
      "scale": [
        1.0,
        2.7563791249463065e-08,
        -1.530496440693696e-08
      ],
      "translation": [
        3.7950210571289063,
        0.0,
        0.0
      ]
    },
    {
      "name": "Bip01 L Finger0Nub",
      "rotation": [
        4.6566128730773926e-09,
        2.2351741790771484e-08,
        -4.190951585769653e-09,
        1.0
      ],
      "scale": [
        1.0,
        6.51925802230835e-09,
        4.470348358154297e-08
      ],
      "translation": [
        3.7950210571289063,
        4.76837158203125e-07,
        0.0
      ]
    },
    {
      "children": [
        74,
        80
      ],
      "name": "Bip01 Head",
      "rotation": [
        -2.3500461993064548e-11,
        -2.717983349498354e-08,
        0.009768405929207802,
        0.9999522566795349
      ],
      "scale": [
        1.0000001192092896,
        3.07297725044009e-08,
        8.647118394586317e-13
      ],
      "translation": [
        8.94873046875,
        0.0,
        0.0
      ]
    },
    {
      "children": [
        75
      ],
      "name": "Bip01 Ponytail1",
      "rotation": [
        1.9119768702308138e-12,
        -2.7727053293347126e-06,
        0.999677300453186,
        -0.025401528924703598
      ],
      "scale": [
        1.0000001192092896,
        -4.413064136343792e-09,
        3.078239364253353e-14
      ],
      "translation": [
        16.320892333984375,
        -17.090187072753906,
        0.03138931468129158
      ]
    },
    {
      "children": [
        76
      ],
      "name": "Bip01 Ponytail11",
      "rotation": [
        1.0757796156711866e-13,
        3.766506608826603e-07,
        -0.13579846918582916,
        0.9907364845275879
      ],
      "scale": [
        1.0000001192092896,
        -3.373738621803568e-09,
        1.3388918507141901e-14
      ],
      "translation": [
        12.657028198242188,
        -0.009716033935546875,
        -2.60770320892334e-08
      ]
    },
    {
      "children": [
        77
      ],
      "name": "Bip01 Ponytail12",
      "rotation": [
        -4.443874183870553e-16,
        1.0159108398966055e-07,
        -0.0366278812289238,
        0.9993289709091187
      ],
      "scale": [
        0.9999999403953552,
        1.29631927414664e-09,
        4.1749969367094186e-14
      ],
      "translation": [
        12.658981323242188,
        -0.010049819946289063,
        -2.8405338525772095e-08
      ]
    },
    {
      "children": [
        78
      ],
      "name": "Bip01 Ponytail13",
      "rotation": [
        7.217362338064184e-16,
        -4.41036256404459e-08,
        0.015901219099760056,
        0.9998735785484314
      ],
      "scale": [
        1.0000001192092896,
        6.726029455617066e-11,
        6.173716526609689e-15
      ],
      "translation": [
        12.660079956054688,
        -0.010077476501464844,
        -2.7474015951156616e-08
      ]
    },
    {
      "children": [
        79
      ],
      "name": "Bip01 Ponytail14",
      "rotation": [
        6.663427672152697e-16,
        -6.94538258017019e-08,
        0.02504103258252144,
        0.9996864199638367
      ],
      "scale": [
        0.9999999403953552,
        1.4728613884074093e-09,
        1.1587518715139604e-15
      ],
      "translation": [
        12.660255432128906,
        -0.010066986083984375,
        -2.8405338525772095e-08
      ]
    },
    {
      "name": "Bip01 Ponytail1Nub",
      "rotation": [
        0.7073882222175598,
        0.7068251967430115,
        9.802253089219448e-07,
        -9.810059964365792e-07
      ],
      "scale": [
        0.9999999403953552,
        -6.125629619161115e-15,
        -8.242193684287677e-14
      ],
      "translation": [
        12.659744262695313,
        0.0,
        0.0
      ]
    },
    {
      "name": "Bip01 HeadNub",
      "rotation": [
        3.197442310920451e-14,
        0.0,
        0.0,
        1.0
      ],
      "scale": [
        1.0,
        0.0,
        0.0
      ],
      "translation": [
        20.872726440429688,
        0.0,
        0.0
      ]
    }
  ],
  "scene": 0,
  "scenes": [
    {
      "nodes": [
        0
      ]
    }
  ],
  "skins": [
    {
      "inverseBindMatrices": 8,
      "joints": [
        3,
        4,
        5,
        6,
        7,
        8,
        9,
        10,
        11,
        12,
        13,
        14,
        15,
        16,
        17,
        18,
        19,
        20,
        21,
        22,
        23,
        24,
        25,
        26,
        27,
        28,
        29,
        30,
        31,
        32,
        33,
        34,
        35,
        36,
        37,
        38,
        39,
        40,
        41,
        42,
        43,
        44,
        45,
        46,
        47,
        48,
        49,
        50,
        51,
        52,
        53,
        54,
        55,
        56,
        57,
        58,
        59,
        60,
        61,
        62,
        63,
        64,
        65,
        66,
        67,
        68,
        69,
        70,
        71,
        72,
        73,
        74,
        75,
        76,
        77,
        78,
        79,
        80
      ],
      "skeleton": 3
    }
  ]
}
