{
  "accessors": [
    {
      "bufferView": 0,
      "componentType": 5126,
      "count": 143,
      "max": [
        161.26902770996094,
        161.06869506835938,
        158.52035522460938
      ],
      "min": [
        -9.068866729736328,
        -10.332436561584473,
        -10.109053611755371
      ],
      "type": "VEC3"
    },
    {
      "bufferView": 1,
      "componentType": 5126,
      "count": 143,
      "type": "VEC3"
    },
    {
      "bufferView": 2,
      "componentType": 5126,
      "count": 143,
      "type": "VEC2"
    },
    {
      "bufferView": 3,
      "componentType": 5123,
      "count": 762,
      "type": "SCALAR"
    },
    {
      "bufferView": 4,
      "componentType": 5126,
      "count": 1545,
      "max": [
        161.26902770996094,
        161.06869506835938,
        158.52035522460938
      ],
      "min": [
        -68.16756439208984,
        -68.16756439208984,
        -65.51458740234375
      ],
      "type": "VEC3"
    },
    {
      "bufferView": 5,
      "componentType": 5126,
      "count": 1545,
      "type": "VEC3"
    },
    {
      "bufferView": 6,
      "componentType": 5126,
      "count": 1545,
      "type": "VEC2"
    },
    {
      "bufferView": 7,
      "componentType": 5123,
      "count": 7062,
      "type": "SCALAR"
    },
    {
      "bufferView": 8,
      "componentType": 5126,
      "count": 504,
      "max": [
        161.26902770996094,
        161.06869506835938,
        158.52035522460938
      ],
      "min": [
        -68.16756439208984,
        -68.16756439208984,
        -65.51458740234375
      ],
      "type": "VEC3"
    },
    {
      "bufferView": 9,
      "componentType": 5126,
      "count": 504,
      "type": "VEC3"
    },
    {
      "bufferView": 10,
      "componentType": 5126,
      "count": 504,
      "type": "VEC2"
    },
    {
      "bufferView": 11,
      "componentType": 5123,
      "count": 1908,
      "type": "SCALAR"
    },
    {
      "bufferView": 12,
      "componentType": 5126,
      "count": 78,
      "type": "MAT4"
    }
  ],
  "asset": {
    "generator": "gr2togltf (ANKA2 Project)",
    "version": "2.0"
  },
  "bufferViews": [
    {
      "buffer": 0,
      "byteLength": 1716,
      "target": 34962
    },
    {
      "buffer": 0,
      "byteLength": 1716,
      "byteOffset": 1716,
      "target": 34962
    },
    {
      "buffer": 0,
      "byteLength": 1144,
      "byteOffset": 3432,
      "target": 34962
    },
    {
      "buffer": 0,
      "byteLength": 1524,
      "byteOffset": 4576,
      "target": 34963
    },
    {
      "buffer": 0,
      "byteLength": 18540,
      "byteOffset": 6100,
      "target": 34962
    },
    {
      "buffer": 0,
      "byteLength": 18540,
      "byteOffset": 24640,
      "target": 34962
    },
    {
      "buffer": 0,
      "byteLength": 12360,
      "byteOffset": 43180,
      "target": 34962
    },
    {
      "buffer": 0,
      "byteLength": 14124,
      "byteOffset": 55540,
      "target": 34963
    },
    {
      "buffer": 0,
      "byteLength": 6048,
      "byteOffset": 69664,
      "target": 34962
    },
    {
      "buffer": 0,
      "byteLength": 6048,
      "byteOffset": 75712,
      "target": 34962
    },
    {
      "buffer": 0,
      "byteLength": 4032,
      "byteOffset": 81760,
      "target": 34962
    },
    {
      "buffer": 0,
      "byteLength": 3816,
      "byteOffset": 85792,
      "target": 34963
    },
    {
      "buffer": 0,
      "byteLength": 4992,
      "byteOffset": 89608
    }
  ],
  "buffers": [
    {
      "byteLength": 94600,
      "uri": "data:application/octet-stream;base64,"
    }
  ],
  "materials": [
    {
      "name": "default",
      "pbrMetallicRoughness": {
        "baseColorFactor": [
          0.8,
          0.8,
          0.8,
          1.0
        ],
        "metallicFactor": 0.0,
        "roughnessFactor": 0.8
      }
    }
  ],
  "meshes": [
    {
      "name": "assassin_face",
      "primitives": [
        {
          "attributes": {
            "NORMAL": 1,
            "POSITION": 0,
            "TEXCOORD_0": 2
          },
          "indices": 3,
          "material": 0,
          "mode": 4
        }
      ]
    },
    {
      "name": "assassin_summer_2019_model",
      "primitives": [
        {
          "attributes": {
            "NORMAL": 5,
            "POSITION": 4,
            "TEXCOORD_0": 6
          },
          "indices": 7,
          "material": 0,
          "mode": 4
        }
      ]
    },
    {
      "name": "armor_spine",
      "primitives": [
        {
          "attributes": {
            "NORMAL": 9,
            "POSITION": 8,
            "TEXCOORD_0": 10
          },
          "indices": 11,
          "material": 0,
          "mode": 4
        }
      ]
    }
  ],
  "nodes": [
    {
      "children": [
        1,
        2,
        3,
        4
      ]
    },
    {
      "mesh": 0,
      "name": "assassin_face",
      "skin": 0
    },
    {
      "mesh": 1,
      "name": "assassin_summer_2019_model",
      "skin": 0
    },
    {
      "mesh": 2,
      "name": "armor_spine",
      "skin": 0
    },
    {
      "children": [
        5
      ],
      "name": "Bip01",
      "rotation": [
        0.0,
        0.0,
        0.0,
        0.9999999403953552
      ],
      "scale": [
        0.9999997019767761,
        -1.3359980981751673e-13,
        0.0
      ],
      "translation": [
        0.0,
        0.0,
        0.0
      ]
    },
    {
      "children": [
        6
      ],
      "name": "Bip01 Pelvis",
      "rotation": [
        -0.4999993145465851,
        -0.5,
        -0.5,
        0.5000006556510925
      ],
      "scale": [
        1.0,
        5.1399245505243465e-20,
        8.265705963650741e-14
      ],
      "translation": [
        0.8611640930175781,
        0.027094783261418343,
        0.0
      ]
    },
    {
      "children": [
        7,
        20,
        23,
        26,
        29,
        32,
        37
      ],
      "name": "Bip01 Spine",
      "rotation": [
        2.199636128352722e-06,
        0.00045840319944545627,
        -0.008512724190950394,
        0.999963641166687
      ],
      "scale": [
        1.0000001192092896,
        2.6206861125643854e-09,
        7.218286385279882e-11
      ],
      "translation": [
        9.231704711914063,
        -0.006681768223643303,
        1.2808945029973984e-05
      ]
    },
    {
      "children": [
        8
      ],
      "name": "Bip01 Spine1",
      "rotation": [
        -3.0525996769399655e-14,
        -5.80622572243783e-09,
        0.002097894437611103,
        0.9999977946281433
      ],
      "scale": [
        1.0,
        -9.313143589650963e-10,
        -2.910163256208964e-11
      ],
      "translation": [
        8.398162841796875,
        -0.010102033615112305,
        -2.9802322387695313e-08
      ]
    },
    {
      "children": [
        9,
        42,
        44
      ],
      "name": "Bip01 Spine2",
      "rotation": [
        9.88247136034237e-13,
        9.602741357639388e-08,
        -0.03463052213191986,
        0.9994001984596252
      ],
      "scale": [
        1.0000001192092896,
        6.613813940958835e-09,
        8.727295275345881e-11
      ],
      "translation": [
        12.686180114746094,
        -0.010077834129333496,
        -2.2351741790771484e-08
      ]
    },
    {
      "children": [
        10,
        15,
        74
      ],
      "name": "Bip01 Neck",
      "rotation": [
        -3.4904456697404385e-05,
        -0.00045816993224434555,
        0.1399218589067459,
        0.9901624321937561
      ],
      "scale": [
        1.0,
        -2.0756235841190573e-08,
        4.571118223523074e-12
      ],
      "translation": [
        14.334159851074219,
        -3.440770149230957,
        -3.4421682357788086e-06
      ]
    },
    {
      "children": [
        11,
        46
      ],
      "name": "Bip01 R Clavicle",
      "rotation": [
        -0.579227089881897,
        0.08922643214464188,
        0.8029547929763794,
        0.10861968249082565
      ],
      "scale": [
        1.000000238418579,
        1.3151737476846392e-09,
        -6.08215486863628e-08
      ],
      "translation": [
        -1.067474365234375,
        1.0830726623535156,
        -2.8085200786590576
      ]
    },
    {
      "children": [
        12
      ],
      "name": "Bip01 R UpperArm",
      "rotation": [
        -0.041233502328395844,
        -0.11716581135988235,
        0.009602153673768044,
        0.9922095537185669
      ],
      "scale": [
        1.0000001192092896,
        -5.123923951799725e-09,
        4.6568178646566594e-08
      ],
      "translation": [
        11.362136840820313,
        0.0,
        0.0
      ]
    },
    {
      "children": [
        13
      ],
      "name": "Bip01 R ForeArm",
      "rotation": [
        2.8950894459534027e-10,
        -2.981479951813526e-08,
        -0.04301733896136284,
        0.9990743398666382
      ],
      "scale": [
        0.9999998807907104,
        2.8236331051090247e-09,
        2.985748182027237e-08
      ],
      "translation": [
        24.082996368408203,
        -2.384185791015625e-07,
        0.0
      ]
    },
    {
      "children": [
        14,
        48,
        52,
        56
      ],
      "name": "Bip01 R Hand",
      "rotation": [
        0.7058848142623901,
        0.03647807613015175,
        -0.03644903749227524,
        0.7064470648765564
      ],
      "scale": [
        1.0,
        -3.473360976613549e-08,
        6.37664365754631e-10
      ],
      "translation": [
        24.082996368408203,
        0.0,
        -7.62939453125e-06
      ]
    },
    {
      "name": "equip_right",
      "rotation": [
        -2.8405318630575493e-07,
        -6.100152916133084e-08,
        -1.7881380642847944e-07,
        1.0
      ],
      "scale": [
        1.000001311302185,
        -1.4901172562531428e-07,
        2.7474033004182274e-07
      ],
      "translation": [
        2.417041778564453,
        -2.94305419921875,
        -0.07773542404174805
      ]
    },
    {
      "children": [
        16,
        60
      ],
      "name": "Bip01 L Clavicle",
      "rotation": [
        0.5799686312675476,
        -0.0892895832657814,
        0.8024171590805054,
        0.10858380049467087
      ],
      "scale": [
        1.000000238418579,
        -7.356630860044788e-10,
        4.165273992384755e-08
      ],
      "translation": [
        -1.06243896484375,
        1.0819511413574219,
        2.8108513355255127
      ]
    },
    {
      "children": [
        17
      ],
      "name": "Bip01 L UpperArm",
      "rotation": [
        0.04123157635331154,
        0.11807733029127121,
        0.009625189006328583,
        0.9921013116836548
      ],
      "scale": [
        1.0,
        3.206904741759331e-10,
        -1.63802322816764e-08
      ],
      "translation": [
        11.362140655517578,
        0.0,
        0.0
      ]
    },
    {
      "children": [
        18
      ],
      "name": "Bip01 L ForeArm",
      "rotation": [
        6.410084130159532e-10,
        2.9774735565979427e-08,
        -0.04301733896136284,
        0.9990743398666382
      ],
      "scale": [
        1.0,
        5.123319546385119e-09,
        -2.9857467609417654e-08
      ],
      "translation": [
        24.082992553710938,
        -2.384185791015625e-07,
        -7.62939453125e-06
      ]
    },
    {
      "children": [
        19,
        62,
        66,
        70
      ],
      "name": "Bip01 L Hand",
      "rotation": [
        -0.7058848142623901,
        -0.03647807240486145,
        -0.03644903376698494,
        0.7064470648765564
      ],
      "scale": [
        1.0,
        -3.812783422318944e-09,
        -1.5644369133482883e-09
      ],
      "translation": [
        24.08300018310547,
        0.0,
        7.62939453125e-06
      ]
    },
    {
      "name": "equip_left",
      "rotation": [
        2.849849636277213e-07,
        -8.819630465950468e-07,
        6.70552680048786e-08,
        1.0
      ],
      "scale": [
        0.9999999403953552,
        1.4901587519489112e-08,
        2.0488153396058806e-08
      ],
      "translation": [
        -0.50030517578125,
        -1.1329879760742188,
        0.26171112060546875
      ]
    },
    {
      "children": [
        21
      ],
      "name": "F_01",
      "rotation": [
        -0.00045808419235982,
        -3.157170067424886e-05,
        0.9976655840873718,
        0.06828777492046356
      ],
      "scale": [
        1.000000238418579,
        9.407151502216493e-09,
        5.574717076850533e-11
      ],
      "translation": [
        2.976165771484375,
        9.141219139099121,
        -0.00311279296875
      ]
    },
    {
      "children": [
        22
      ],
      "name": "F_02",
      "rotation": [
        4.925350475100355e-15,
        -1.8488709064982175e-15,
        0.023484302684664726,
        0.9997242093086243
      ],
      "scale": [
        0.9999999403953552,
        -7.442362282006343e-09,
        3.1773686041584133e-15
      ],
      "translation": [
        19.174591064453125,
        3.814697265625e-06,
        -9.094947017729282e-13
      ]
    },
    {
      "name": "F_03",
      "rotation": [
        -2.664534835583902e-15,
        -3.5527141023169746e-15,
        1.5459954738616943e-07,
        1.0
      ],
      "scale": [
        1.0,
        -3.725290298461914e-09,
        7.105427357601002e-15
      ],
      "translation": [
        15.030860900878906,
        -5.7220458984375e-06,
        0.0
      ]
    },
    {
      "children": [
        24
      ],
      "name": "L_01",
      "rotation": [
        0.1296996772289276,
        0.6951155066490173,
        0.6927959322929382,
        -0.1415131390094757
      ],
      "scale": [
        1.0,
        2.2239639463350613e-08,
        5.434356853406541e-10
      ],
      "translation": [
        3.6826629638671875,
        0.0695490837097168,
        10.391956329345703
      ]
    },
    {
      "children": [
        25
      ],
      "name": "L_02",
      "rotation": [
        -3.2835524426679755e-15,
        -5.9004628507925046e-15,
        -0.037528689950704575,
        0.9992955327033997
      ],
      "scale": [
        1.0000001192092896,
        5.917954126744007e-09,
        -1.2039071555804397e-14
      ],
      "translation": [
        19.448837280273438,
        3.814697265625e-06,
        0.0
      ]
    },
    {
      "name": "L_03",
      "rotation": [
        -3.552713678800501e-15,
        -7.105427357601002e-15,
        1.4901161193847656e-08,
        1.0
      ],
      "scale": [
        1.0,
        -1.0097419586828951e-28,
        1.4210853868169056e-14
      ],
      "translation": [
        16.961395263671875,
        0.0,
        0.0
      ]
    },
    {
      "children": [
        27
      ],
      "name": "B_01",
      "rotation": [
        0.02749258652329445,
        0.005585493985563517,
        0.9825382828712463,
        -0.18393345177173615
      ],
      "scale": [
        1.0000001192092896,
        -7.389389988787798e-09,
        -4.2472052541597805e-09
      ],
      "translation": [
        5.919464111328125,
        -6.957301616668701,
        -0.0004425123333930969
      ]
    },
    {
      "children": [
        28
      ],
      "name": "B_02",
      "rotation": [
        4.652948026873105e-10,
        1.847142230837484e-11,
        -0.039667077362537384,
        0.9992129802703857
      ],
      "scale": [
        1.0,
        0.0,
        7.382753436369072e-11
      ],
      "translation": [
        16.875205993652344,
        -0.000308990478515625,
        0.0
      ]
    },
    {
      "name": "B_03",
      "rotation": [
        -1.3969838619232178e-09,
        -2.7939677238464355e-09,
        2.6020852139652106e-18,
        1.0
      ],
      "scale": [
        1.0,
        -6.938893903907228e-18,
        -1.862645149230957e-09
      ],
      "translation": [
        23.144187927246094,
        1.52587890625e-05,
        4.76837158203125e-07
      ]
    },
    {
      "children": [
        30
      ],
      "name": "R_01",
      "rotation": [
        0.13033577799797058,
        0.6949856281280518,
        -0.6926763653755188,
        0.14215119183063507
      ],
      "scale": [
        1.0,
        5.608596254091935e-09,
        -1.0230113423048692e-09
      ],
      "translation": [
        3.7016830444335938,
        0.06956303119659424,
        -10.318811416625977
      ]
    },
    {
      "children": [
        31
      ],
      "name": "R_02",
      "rotation": [
        2.66265823408926e-15,
        -9.999653414511053e-17,
        -0.03752869740128517,
        0.9992955327033997
      ],
      "scale": [
        1.0,
        0.0,
        0.0
      ],
      "translation": [
        19.448837280273438,
        7.62939453125e-06,
        -9.094947017729282e-13
      ]
    },
    {
      "name": "R_03",
      "rotation": [
        2.6645352591003757e-15,
        0.0,
        0.0,
        1.0
      ],
      "scale": [
        1.0,
        0.0,
        0.0
      ],
      "translation": [
        16.961395263671875,
        0.0,
        0.0
      ]
    },
    {
      "children": [
        33
      ],
      "name": "Bip01 R Thigh",
      "rotation": [
        -0.0017406422412022948,
        0.9993849396705627,
        -0.012854011729359627,
        0.032579731196165085
      ],
      "scale": [
        1.0000001192092896,
        9.05034935883009e-10,
        5.961324767156384e-09
      ],
      "translation": [
        -9.223114013671875,
        -0.1504669189453125,
        -8.036138534545898
      ]
    },
    {
      "children": [
        34
      ],
      "name": "Bip01 R Calf",
      "rotation": [
        1.476880062689645e-09,
        -3.883916299685097e-09,
        -0.09983320534229279,
        0.9950041770935059
      ],
      "scale": [
        1.0000001192092896,
        2.762541306822186e-09,
        1.6436933411578813e-11
      ],
      "translation": [
        40.138328552246094,
        0.0,
        9.5367431640625e-07
      ]
    },
    {
      "children": [
        35
      ],
      "name": "Bip01 R Foot",
      "rotation": [
        0.06932652741670609,
        0.038423802703619,
        0.09007467329502106,
        0.9927759170532227
      ],
      "scale": [
        0.9999999403953552,
        1.2885747580071438e-08,
        1.5653611740162887e-10
      ],
      "translation": [
        40.13832473754883,
        9.5367431640625e-07,
        -9.5367431640625e-07
      ]
    },
    {
      "children": [
        36
      ],
      "name": "Bip01 R Toe0",
      "rotation": [
        1.8088487152567723e-08,
        1.2820132511137672e-08,
        0.7071067690849304,
        0.7071067690849304
      ],
      "scale": [
        0.9999999403953552,
        -3.227037769152458e-15,
        -7.450578820566989e-09
      ],
      "translation": [
        13.162713050842285,
        12.053354263305664,
        9.5367431640625e-07
      ]
    },
    {
      "name": "Bip01 R Toe0Nub",
      "rotation": [
        -8.88178366760566e-16,
        -3.7252894102834944e-09,
        1.776356733521132e-15,
        1.0
      ],
      "scale": [
        1.0000001192092896,
        3.552713678800501e-15,
        -7.450577932388569e-09
      ],
      "translation": [
        10.604899406433105,
        0.0,
        -9.5367431640625e-07
      ]
    },
    {
      "children": [
        38
      ],
      "name": "Bip01 L Thigh",
      "rotation": [
        -0.0017525114817544818,
        0.9994144439697266,
        0.012854451313614845,
        -0.03166196867823601
      ],
      "scale": [
        1.0000001192092896,
        9.431764258494013e-10,
        3.040020901678986e-09
      ],
      "translation": [
        -9.23785400390625,
        -0.15049970149993896,
        8.019186973571777
      ]
    },
    {
      "children": [
        39
      ],
      "name": "Bip01 L Calf",
      "rotation": [
        -1.0447794851486947e-09,
        1.9622969915644717e-09,
        -0.09983319789171219,
        0.9950041770935059
      ],
      "scale": [
        1.0,
        -9.07904684765981e-09,
        -3.754200950112363e-09
      ],
      "translation": [
        40.13832473754883,
        -1.1920928955078125e-07,
        -9.5367431640625e-07
      ]
    },
    {
      "children": [
        40
      ],
      "name": "Bip01 L Foot",
      "rotation": [
        -0.06932654231786728,
        -0.03842370957136154,
        0.09007466584444046,
        0.9927759170532227
      ],
      "scale": [
        1.0,
        -6.275744368622327e-09,
        -7.355255071672673e-09
      ],
      "translation": [
        40.13832473754883,
        0.0,
        0.0
      ]
    },
    {
      "children": [
        41
      ],
      "name": "Bip01 L Toe0",
      "rotation": [
        -1.5454309831852697e-08,
        -1.5454309831852697e-08,
        0.7071067094802856,
        0.7071067690849304
      ],
      "scale": [
        1.0000001192092896,
        1.7763570511584873e-15,
        -5.933408091396842e-16
      ],
      "translation": [
        13.162713050842285,
        12.05335521697998,
        0.0
      ]
    },
    {
      "name": "Bip01 L Toe0Nub",
      "rotation": [
        1.3322676295501878e-15,
        -1.453142063389794e-16,
        1.776356733521132e-15,
        1.0
      ],
      "scale": [
        1.0000001192092896,
        -2.117582368135751e-22,
        1.5345693787823791e-15
      ],
      "translation": [
        10.604900360107422,
        0.0,
        0.0
      ]
    },
    {
      "children": [
        43
      ],
      "name": "Bone07",
      "rotation": [
        -0.14311321079730988,
        0.08452114462852478,
        0.757662832736969,
        0.6311274170875549
      ],
      "scale": [
        1.0000001192092896,
        -1.5201168324097125e-08,
        -3.5526138475461266e-08
      ],
      "translation": [
        4.469352722167969,
        3.702397346496582,
        -4.577438831329346
      ]
    },
    {
      "name": "Bone08",
      "rotation": [
        -1.4663149477319254e-17,
        2.7635210786414177e-10,
        -4.421635502183108e-09,
        1.0
      ],
      "scale": [
        0.42125698924064636,
        5.801234952724913e-16,
        2.7939679458910405e-09
      ],
      "translation": [
        9.775653839111328,
        -7.62939453125e-06,
        9.5367431640625e-07
      ]
    },
    {
      "children": [
        45
      ],
      "name": "Bone05",
      "rotation": [
        0.11500479280948639,
        -0.06975074857473373,
        0.7569304704666138,
        0.6395037174224854
      ],
      "scale": [
        1.0000001192092896,
        2.3180872332773106e-08,
        -4.9133507928900144e-08
      ],
      "translation": [
        4.4693603515625,
        3.7023792266845703,
        4.544463634490967
      ]
    },
    {
      "name": "Bone06",
      "rotation": [
        -2.210820415626813e-09,
        4.283465138144038e-09,
        1.2219310531980338e-18,
        1.0
      ],
      "scale": [
        0.421256959438324,
        -6.949089732137557e-18,
        3.1432179081747336e-09
      ],
      "translation": [
        9.77564811706543,
        -7.62939453125e-06,
        0.0
      ]
    },
    {
      "children": [
        47
      ],
      "name": "Bone09",
      "rotation": [
        -0.7294803857803345,
        0.15290319919586182,
        0.12787984311580658,
        0.6543132662773132
      ],
      "scale": [
        1.0000004768371582,
        1.8526979062016835e-08,
        -8.625018921293304e-09
      ],
      "translation": [
        5.556018829345703,
        -0.3267636299133301,
        -0.830322265625
      ]
    },
    {
      "name": "Bone10",
      "rotation": [
        5.5294294253148475e-18,
        5.529727231667891e-10,
        3.7252898543727042e-09,
        1.0
      ],
      "scale": [
        1.0000001192092896,
        -1.0587911840678754e-22,
        2.9685909286314427e-09
      ],
      "translation": [
        25.683961868286133,
        -1.52587890625e-05,
        0.0
      ]
    },
    {
      "children": [
        49
      ],
      "name": "Bip01 R Finger2",
      "rotation": [
        0.08983657509088516,
        0.004974632523953915,
        0.0555575005710125,
        0.9943932890892029
      ],
      "scale": [
        1.0000001192092896,
        -3.988501617868678e-08,
        1.609799582524829e-08
      ],
      "translation": [
        8.273906707763672,
        -0.6917953491210938,
        -1.2059063911437988
      ]
    },
    {
      "children": [
        50
      ],
      "name": "Bip01 R Finger21",
      "rotation": [
        -3.2058542487334307e-09,
        4.180678470078192e-09,
        0.13083870708942413,
        0.9914036393165588
      ],
      "scale": [
        0.9999999403953552,
        -2.1442581044084363e-09,
        9.128379829803634e-09
      ],
      "translation": [
        3.0855941772460938,
        1.52587890625e-05,
        -1.9073486328125e-06
      ]
    },
    {
      "children": [
        51
      ],
      "name": "Bip01 R Finger22",
      "rotation": [
        -7.3865327188116225e-09,
        1.1198496864195997e-16,
        0.13083870708942413,
        0.9914036393165588
      ],
      "scale": [
        0.9999999403953552,
        -1.5463111679991925e-08,
        1.9328887379543858e-09
      ],
      "translation": [
        3.0856094360351563,
        -1.52587890625e-05,
        1.9073486328125e-06
      ]
    },
    {
      "name": "Bip01 R Finger2Nub",
      "rotation": [
        -5.551115123125783e-17,
        -3.725290076417309e-09,
        -7.450580596923828e-09,
        1.0
      ],
      "scale": [
        1.0,
        1.4901161193847656e-08,
        -7.450581485102248e-09
      ],
      "translation": [
        3.0855941772460938,
        0.0,
        0.0
      ]
    },
    {
      "children": [
        53
      ],
      "name": "Bip01 R Finger1",
      "rotation": [
        0.0031985866371542215,
        -0.06788016110658646,
        0.04112652689218521,
        0.9968403577804565
      ],
      "scale": [
        1.0,
        -9.962183966649718e-09,
        1.5695651001124133e-08
      ],
      "translation": [
        8.23690414428711,
        -0.8613967895507813,
        2.459083080291748
      ]
    },
    {
      "children": [
        54
      ],
      "name": "Bip01 R Finger11",
      "rotation": [
        -1.0840803255085518e-10,
        -4.913596196587378e-10,
        0.11640219390392303,
        0.9932021498680115
      ],
      "scale": [
        1.0000001192092896,
        1.3781894736553113e-08,
        -9.50800993493317e-10
      ],
      "translation": [
        3.0103607177734375,
        0.0,
        2.86102294921875e-06
      ]
    },
    {
      "children": [
        55
      ],
      "name": "Bip01 R Finger12",
      "rotation": [
        5.9835816301756495e-09,
        -3.049518859654654e-09,
        0.11640219390392303,
        0.9932021498680115
      ],
      "scale": [
        0.9999998807907104,
        -2.8994710632446186e-08,
        7.450580596923828e-09
      ],
      "translation": [
        3.0103836059570313,
        7.62939453125e-06,
        -2.86102294921875e-06
      ]
    },
    {
      "name": "Bip01 R Finger1Nub",
      "rotation": [
        8.381903171539307e-09,
        5.587935447692871e-09,
        7.450580596923828e-09,
        1.0
      ],
      "scale": [
        1.0,
        1.4901161193847656e-08,
        -3.725290298461914e-09
      ],
      "translation": [
        3.0103759765625,
        0.0,
        9.5367431640625e-07
      ]
    },
    {
      "children": [
        57
      ],
      "name": "Bip01 R Finger0",
      "rotation": [
        -0.6828780770301819,
        -0.2569224238395691,
        -0.13452890515327454,
        0.6705000996589661
      ],
      "scale": [
        1.0000001192092896,
        3.5064566361597826e-08,
        2.8926475437174304e-08
      ],
      "translation": [
        0.5431480407714844,
        0.00774383544921875,
        2.551161289215088
      ]
    },
    {
      "children": [
        58
      ],
      "name": "Bip01 R Finger01",
      "rotation": [
        9.134461187443321e-09,
        -1.3065337256534804e-08,
        0.11640222370624542,
        0.9932021498680115
      ],
      "scale": [
        1.0,
        -5.798942126489237e-08,
        3.152505811954143e-08
      ],
      "translation": [
        3.795013427734375,
        -3.814697265625e-06,
        -7.62939453125e-06
      ]
    },
    {
      "children": [
        59
      ],
      "name": "Bip01 R Finger02",
      "rotation": [
        -1.1157627710645102e-08,
        -2.3609102228761003e-08,
        0.11640220135450363,
        0.9932021498680115
      ],
      "scale": [
        0.9999999403953552,
        -2.6848333334328345e-08,
        1.530496795965064e-08
      ],
      "translation": [
        3.795013427734375,
        3.814697265625e-06,
        0.0
      ]
    },
    {
      "name": "Bip01 R Finger0Nub",
      "rotation": [
        -9.313225746154785e-10,
        7.450580596923828e-09,
        0.0,
        1.0
      ],
      "scale": [
        1.0,
        1.862645149230957e-09,
        1.4901161193847656e-08
      ],
      "translation": [
        3.7950172424316406,
        0.0,
        7.62939453125e-06
      ]
    },
    {
      "children": [
        61
      ],
      "name": "Bone01",
      "rotation": [
        0.7443283200263977,
        -0.16826698184013367,
        0.09885229915380478,
        0.6386625170707703
      ],
      "scale": [
        1.0,
        1.9580680188369115e-08,
        1.2030413110153404e-08
      ],
      "translation": [
        5.556037902832031,
        -0.3268089294433594,
        0.830352783203125
      ]
    },
    {
      "name": "Bone02",
      "rotation": [
        9.313225191043273e-10,
        -2.561137080192566e-09,
        1.862645149230957e-09,
        1.0
      ],
      "scale": [
        1.0,
        -3.725290298461914e-09,
        5.967448757360216e-16
      ],
      "translation": [
        25.6839542388916,
        0.0,
        -9.5367431640625e-07
      ]
    },
    {
      "children": [
        63
      ],
      "name": "Bip01 L Finger2",
      "rotation": [
        -0.08983656764030457,
        -0.004974633455276489,
        0.0555574856698513,
        0.9943932890892029
      ],
      "scale": [
        0.9999999403953552,
        -2.3961368000868788e-08,
        -5.01583130585459e-09
      ],
      "translation": [
        8.273910522460938,
        -0.691802978515625,
        1.2059059143066406
      ]
    },
    {
      "children": [
        64
      ],
      "name": "Bip01 L Finger21",
      "rotation": [
        -3.936972525764304e-09,
        -2.334044957308379e-09,
        0.13083870708942413,
        0.9914036393165588
      ],
      "scale": [
        1.0,
        -4.424507693556734e-08,
        -3.5977458789915318e-09
      ],
      "translation": [
        3.085601806640625,
        0.0,
        0.0
      ]
    },
    {
      "children": [
        65
      ],
      "name": "Bip01 L Finger22",
      "rotation": [
        9.74824443389366e-10,
        9.74824443389366e-10,
        0.13083870708942413,
        0.9914036393165588
      ],
      "scale": [
        0.9999999403953552,
        -3.092622335998385e-08,
        1.6578960426727463e-08
      ],
      "translation": [
        3.0856056213378906,
        0.0,
        -1.9073486328125e-06
      ]
    },
    {
      "name": "Bip01 L Finger2Nub",
      "rotation": [
        -1.862645149230957e-09,
        7.450580596923828e-09,
        -1.3877787807814457e-17,
        1.0
      ],
      "scale": [
        1.0,
        5.551115123125783e-17,
        0.0
      ],
      "translation": [
        3.085601806640625,
        -7.62939453125e-06,
        -1.9073486328125e-06
      ]
    },
    {
      "children": [
        67
      ],
      "name": "Bip01 L Finger1",
      "rotation": [
        -0.003198582911863923,
        0.06788016110658646,
        0.04112650081515312,
        0.9968403577804565
      ],
      "scale": [
        1.0,
        -4.172933287804881e-08,
        1.2735140053621308e-08
      ],
      "translation": [
        8.236907958984375,
        -0.8613967895507813,
        -2.4590823650360107
      ]
    },
    {
      "children": [
        68
      ],
      "name": "Bip01 L Finger11",
      "rotation": [
        -2.0667989542033638e-09,
        -5.33313304629246e-09,
        0.11640219390392303,
        0.9932021498680115
      ],
      "scale": [
        1.0,
        4.27766053689993e-08,
        -2.6620186055481554e-09
      ],
      "translation": [
        3.010364532470703,
        -7.62939453125e-06,
        -9.5367431640625e-07
      ]
    },
    {
      "children": [
        69
      ],
      "name": "Bip01 L Finger12",
      "rotation": [
        -4.567230149632451e-09,
        7.833564019676942e-09,
        0.11640222370624542,
        0.9932021498680115
      ],
      "scale": [
        1.0,
        -1.5212812343179394e-08,
        -1.3178426350179961e-08
      ],
      "translation": [
        3.0103912353515625,
        0.0,
        2.86102294921875e-06
      ]
    },
    {
      "name": "Bip01 L Finger1Nub",
      "rotation": [
        -2.7939679458910405e-09,
        5.587935447692871e-09,
        0.0,
        1.0
      ],
      "scale": [
        0.9999999403953552,
        -2.9802320611338473e-08,
        3.7252894102834944e-09
      ],
      "translation": [
        3.0103721618652344,
        0.0,
        -9.5367431640625e-07
      ]
    },
    {
      "children": [
        71
      ],
      "name": "Bip01 L Finger0",
      "rotation": [
        0.6828780770301819,
        0.2569223940372467,
        -0.13452893495559692,
        0.6705000996589661
      ],
      "scale": [
        0.9999999403953552,
        2.1433455899000364e-08,
        -3.670124115728868e-08
      ],
      "translation": [
        0.5431480407714844,
        0.00774383544921875,
        -2.551161050796509
      ]
    },
    {
      "children": [
        72
      ],
      "name": "Bip01 L Finger01",
      "rotation": [
        -4.567230149632451e-09,
        6.966300425403915e-09,
        0.11640220135450363,
        0.9932021498680115
      ],
      "scale": [
        1.0,
        -2.9710170323937746e-08,
        -1.4901161193847656e-08
      ],
      "translation": [
        3.795013427734375,
        -3.814697265625e-06,
        -7.62939453125e-06
      ]
    },
    {
      "children": [
        73
      ],
      "name": "Bip01 L Finger02",
      "rotation": [
        1.0117179982671587e-08,
        7.616748121108685e-09,
        0.11640220135450363,
        0.9932021498680115
      ],
      "scale": [
        1.0,
        7.154594139358039e-10,
        1.2774618696198559e-08
      ],
      "translation": [
        3.7950210571289063,
        3.814697265625e-06,
        0.0
      ]
    },
    {
      "name": "Bip01 L Finger0Nub",
      "rotation": [
        9.313225191043273e-10,
        7.450580596923828e-09,
        -4.6566128730773926e-09,
        1.0
      ],
      "scale": [
        1.0,
        7.450580596923828e-09,
        1.4901161193847656e-08
      ],
      "translation": [
        3.7950172424316406,
        4.76837158203125e-07,
        0.0
      ]
    },
    {
      "children": [
        75,
        81
      ],
      "name": "Bip01 Head",
      "rotation": [
        -1.3276902147141278e-11,
        -2.7122093015918836e-08,
        0.009768249467015266,
        0.9999522566795349
      ],
      "scale": [
        1.0000001192092896,
        1.5831380650865867e-08,
        1.611374553754652e-12
      ],
      "translation": [
        8.948715209960938,
        0.0,
        1.862645149230957e-09
      ]
    },
    {
      "children": [
        76
      ],
      "name": "Bip01 Ponytail1",
      "rotation": [
        1.9261924954355747e-12,
        -2.7727053293347126e-06,
        0.999677300453186,
        -0.025401543825864792
      ],
      "scale": [
        1.0000001192092896,
        -4.413062359986952e-09,
        -2.2762621323425825e-14
      ],
      "translation": [
        16.320892333984375,
        -17.09018325805664,
        0.03138930723071098
      ]
    },
    {
      "children": [
        77
      ],
      "name": "Bip01 Ponytail11",
      "rotation": [
        -7.171864386818893e-15,
        3.766506608826603e-07,
        -0.13579846918582916,
        0.9907364845275879
      ],
      "scale": [
        1.0000001192092896,
        -1.603840082964325e-08,
        4.901162686961856e-14
      ],
      "translation": [
        12.65704345703125,
        -0.00971221923828125,
        -2.6542693376541138e-08
      ]
    },
    {
      "children": [
        78
      ],
      "name": "Bip01 Ponytail12",
      "rotation": [
        -8.887748367741107e-16,
        1.0159112662222469e-07,
        -0.03662789240479469,
        0.9993289709091187
      ],
      "scale": [
        1.0000001192092896,
        -7.430588144785588e-09,
        -1.9980932937390707e-14
      ],
      "translation": [
        12.658981323242188,
        -0.010051727294921875,
        -2.7939677238464355e-08
      ]
    },
    {
      "children": [
        79
      ],
      "name": "Bip01 Ponytail13",
      "rotation": [
        1.1475606435159408e-13,
        -4.410378906527512e-08,
        0.01590127684175968,
        0.9998735785484314
      ],
      "scale": [
        1.0000001192092896,
        9.342152829105999e-09,
        4.276618867523306e-14
      ],
      "translation": [
        12.660064697265625,
        -0.010074615478515625,
        -2.7939677238464355e-08
      ]
    },
    {
      "children": [
        80
      ],
      "name": "Bip01 Ponytail14",
      "rotation": [
        2.2800029008882006e-13,
        -6.94536410605906e-08,
        0.025040969252586365,
        0.9996864199638367
      ],
      "scale": [
        1.0,
        -7.441237404037793e-09,
        -3.2635129136853597e-14
      ],
      "translation": [
        12.660255432128906,
        -0.010067939758300781,
        -2.7939677238464355e-08
      ]
    },
    {
      "name": "Bip01 Ponytail1Nub",
      "rotation": [
        0.7073882222175598,
        0.7068251967430115,
        9.80225195235107e-07,
        -9.810059964365792e-07
      ],
      "scale": [
        1.0,
        2.6954005694079797e-10,
        -8.242128632157328e-14
      ],
      "translation": [
        12.659744262695313,
        3.814697265625e-06,
        0.0
      ]
    },
    {
      "name": "Bip01 HeadNub",
      "rotation": [
        5.684341886080802e-14,
        0.0,
        -1.6155873264856266e-27,
        1.0
      ],
      "scale": [
        1.0,
        -2.827277291719112e-27,
        -5.6843415472676226e-14
      ],
      "translation": [
        20.872726440429688,
        3.814697265625e-06,
        0.0
      ]
    }
  ],
  "scene": 0,
  "scenes": [
    {
      "nodes": [
        0
      ]
    }
  ],
  "skins": [
    {
      "inverseBindMatrices": 12,
      "joints": [
        4,
        5,
        6,
        7,
        8,
        9,
        10,
        11,
        12,
        13,
        14,
        15,
        16,
        17,
        18,
        19,
        20,
        21,
        22,
        23,
        24,
        25,
        26,
        27,
        28,
        29,
        30,
        31,
        32,
        33,
        34,
        35,
        36,
        37,
        38,
        39,
        40,
        41,
        42,
        43,
        44,
        45,
        46,
        47,
        48,
        49,
        50,
        51,
        52,
        53,
        54,
        55,
        56,
        57,
        58,
        59,
        60,
        61,
        62,
        63,
        64,
        65,
        66,
        67,
        68,
        69,
        70,
        71,
        72,
        73,
        74,
        75,
        76,
        77,
        78,
        79,
        80,
        81
      ],
      "skeleton": 4
    }
  ]
}
