{
  "accessors": [
    {
      "bufferView": 0,
      "componentType": 5126,
      "count": 143,
      "max": [
        8.979997634887695,
        2.497407913208008,
        161.26901245117188
      ],
      "min": [
        -9.022232055664063,
        -10.332453727722168,
        143.18035888671875
      ],
      "type": "VEC3"
    },
    {
      "bufferView": 1,
      "componentType": 5126,
      "count": 143,
      "type": "VEC3"
    },
    {
      "bufferView": 2,
      "componentType": 5126,
      "count": 143,
      "type": "VEC2"
    },
    {
      "bufferView": 3,
      "componentType": 5123,
      "count": 762,
      "type": "SCALAR"
    },
    {
      "bufferView": 4,
      "componentType": 5126,
      "count": 1701,
      "max": [
        153.385986328125,
        153.385986328125,
        161.26901245117188
      ],
      "min": [
        -67.7812271118164,
        -68.9309310913086,
        -68.34293365478516
      ],
      "type": "VEC3"
    },
    {
      "bufferView": 5,
      "componentType": 5126,
      "count": 1701,
      "type": "VEC3"
    },
    {
      "bufferView": 6,
      "componentType": 5126,
      "count": 1701,
      "type": "VEC2"
    },
    {
      "bufferView": 7,
      "componentType": 5123,
      "count": 6030,
      "type": "SCALAR"
    },
    {
      "bufferView": 8,
      "componentType": 5126,
      "count": 78,
      "type": "MAT4"
    }
  ],
  "asset": {
    "generator": "gr2togltf (ANKA2 Project)",
    "version": "2.0"
  },
  "bufferViews": [
    {
      "buffer": 0,
      "byteLength": 1716,
      "target": 34962
    },
    {
      "buffer": 0,
      "byteLength": 1716,
      "byteOffset": 1716,
      "target": 34962
    },
    {
      "buffer": 0,
      "byteLength": 1144,
      "byteOffset": 3432,
      "target": 34962
    },
    {
      "buffer": 0,
      "byteLength": 1524,
      "byteOffset": 4576,
      "target": 34963
    },
    {
      "buffer": 0,
      "byteLength": 20412,
      "byteOffset": 6100,
      "target": 34962
    },
    {
      "buffer": 0,
      "byteLength": 20412,
      "byteOffset": 26512,
      "target": 34962
    },
    {
      "buffer": 0,
      "byteLength": 13608,
      "byteOffset": 46924,
      "target": 34962
    },
    {
      "buffer": 0,
      "byteLength": 12060,
      "byteOffset": 60532,
      "target": 34963
    },
    {
      "buffer": 0,
      "byteLength": 4992,
      "byteOffset": 72592
    }
  ],
  "buffers": [
    {
      "byteLength": 77584,
      "uri": "data:application/octet-stream;base64,"
    }
  ],
  "materials": [
    {
      "name": "default",
      "pbrMetallicRoughness": {
        "baseColorFactor": [
          0.8,
          0.8,
          0.8,
          1.0
        ],
        "metallicFactor": 0.0,
        "roughnessFactor": 0.8
      }
    }
  ],
  "meshes": [
    {
      "name": "assassin_face",
      "primitives": [
        {
          "attributes": {
            "NORMAL": 1,
            "POSITION": 0,
            "TEXCOORD_0": 2
          },
          "indices": 3,
          "material": 0,
          "mode": 4
        }
      ]
    },
    {
      "name": "lod",
      "primitives": [
        {
          "attributes": {
            "NORMAL": 5,
            "POSITION": 4,
            "TEXCOORD_0": 6
          },
          "indices": 7,
          "material": 0,
          "mode": 4
        }
      ]
    }
  ],
  "nodes": [
    {
      "children": [
        1,
        2,
        3
      ]
    },
    {
      "mesh": 0,
      "name": "assassin_face",
      "skin": 0
    },
    {
      "mesh": 1,
      "name": "lod",
      "skin": 0
    },
    {
      "children": [
        4
      ],
      "name": "Bip01",
      "rotation": [
        0.0,
        0.0,
        0.0,
        1.0000001192092896
      ],
      "scale": [
        1.0,
        0.0,
        0.0
      ],
      "translation": [
        -8.940696716308594e-08,
        -3.725290298461914e-09,
        0.0
      ]
    },
    {
      "children": [
        5
      ],
      "name": "Bip01 Pelvis",
      "rotation": [
        -0.499999463558197,
        -0.5000001788139343,
        -0.5000001788139343,
        0.500000536441803
      ],
      "scale": [
        1.0,
        0.0,
        0.0
      ],
      "translation": [
        -0.43055400252342224,
        -0.013545999303460121,
        0.0
      ]
    },
    {
      "children": [
        6,
        7,
        10,
        22,
        24,
        25,
        26
      ],
      "name": "Bip01 Spine",
      "rotation": [
        2.1985913463140605e-06,
        0.0004582926630973816,
        -0.008512726053595543,
        0.9999637603759766
      ],
      "scale": [
        1.0,
        1.258908532975056e-09,
        1.1641532182693481e-10
      ],
      "translation": [
        9.231704711914063,
        -0.006681759841740131,
        1.2808945029973984e-05
      ]
    },
    {
      "children": [
        9
      ],
      "name": "Bip01 L Thigh",
      "rotation": [
        -0.0017526167212054133,
        0.9994144439697266,
        0.012854245491325855,
        -0.03166180104017258
      ],
      "scale": [
        0.9999998807907104,
        1.6298145055770874e-09,
        0.0
      ],
      "translation": [
        -9.237846374511719,
        -0.15049970149993896,
        8.019189834594727
      ]
    },
    {
      "children": [
        8
      ],
      "name": "Bip01 R Thigh",
      "rotation": [
        -0.0017407506238669157,
        0.9993849992752075,
        -0.012853806838393211,
        0.032579340040683746
      ],
      "scale": [
        0.9999999403953552,
        2.3283064365386963e-09,
        -1.4901161193847656e-08
      ],
      "translation": [
        -9.223106384277344,
        -0.1504669189453125,
        -8.036136627197266
      ]
    },
    {
      "children": [
        27
      ],
      "name": "Bip01 R Calf",
      "rotation": [
        2.02709002361523e-10,
        6.682723818762781e-11,
        -0.09983331710100174,
        0.9950041770935059
      ],
      "scale": [
        1.0,
        2.9802322387695313e-08,
        1.734609816894661e-10
      ],
      "translation": [
        40.13832473754883,
        1.1920928955078125e-07,
        0.0
      ]
    },
    {
      "children": [
        28
      ],
      "name": "Bip01 L Calf",
      "rotation": [
        8.588251776409095e-10,
        -6.246891892658368e-11,
        -0.09983331710100174,
        0.9950041770935059
      ],
      "scale": [
        1.0000001192092896,
        1.4901161193847656e-08,
        7.497746423723584e-09
      ],
      "translation": [
        40.138336181640625,
        0.0,
        0.0
      ]
    },
    {
      "children": [
        11
      ],
      "name": "Bip01 Spine1",
      "rotation": [
        2.8843745968065715e-13,
        -5.820780746290666e-09,
        0.002098001539707184,
        0.9999977946281433
      ],
      "scale": [
        1.0,
        -1.3969838619232178e-09,
        5.820499637820831e-11
      ],
      "translation": [
        8.398162841796875,
        -0.010102152824401855,
        -2.2351741790771484e-08
      ]
    },
    {
      "children": [
        12,
        43,
        44
      ],
      "name": "Bip01 Spine2",
      "rotation": [
        1.9960461235257743e-12,
        9.605653872313269e-08,
        -0.034630581736564636,
        0.9994001984596252
      ],
      "scale": [
        0.9999999403953552,
        7.450581485102248e-09,
        2.9061197892588098e-11
      ],
      "translation": [
        12.686180114746094,
        -0.010077953338623047,
        -1.4901161193847656e-08
      ]
    },
    {
      "children": [
        13,
        14,
        21
      ],
      "name": "Bip01 Neck",
      "rotation": [
        -3.473227843642235e-05,
        -0.0004580979875754565,
        0.13992175459861755,
        0.9901624321937561
      ],
      "scale": [
        0.9999998807907104,
        1.8085739839079906e-07,
        9.231735020875931e-08
      ],
      "translation": [
        14.33416748046875,
        -3.440769672393799,
        -3.129243850708008e-06
      ]
    },
    {
      "children": [
        16,
        17
      ],
      "name": "Bip01 L Clavicle",
      "rotation": [
        0.5799687504768372,
        -0.08928921073675156,
        0.8024172782897949,
        0.10858398675918579
      ],
      "scale": [
        1.0000007152557373,
        2.421438694000244e-08,
        2.9802322387695313e-08
      ],
      "translation": [
        -1.0624542236328125,
        1.0819473266601563,
        2.8108510971069336
      ]
    },
    {
      "children": [
        15,
        19
      ],
      "name": "Bip01 R Clavicle",
      "rotation": [
        -0.5792272090911865,
        0.08922634273767471,
        0.8029548525810242,
        0.10861966758966446
      ],
      "scale": [
        1.0000003576278687,
        -4.470348358154297e-08,
        -1.7881393432617188e-07
      ],
      "translation": [
        -1.067474365234375,
        1.0830707550048828,
        -2.8085217475891113
      ]
    },
    {
      "children": [
        32
      ],
      "name": "Bone09",
      "rotation": [
        -0.7176156044006348,
        0.16453227400779724,
        0.15742895007133484,
        0.6581589579582214
      ],
      "scale": [
        1.0000001192092896,
        -5.960464477539063e-08,
        0.0
      ],
      "translation": [
        5.556026458740234,
        -0.3267550468444824,
        -0.830322265625
      ]
    },
    {
      "children": [
        33
      ],
      "name": "Bone01",
      "rotation": [
        0.7176151871681213,
        -0.1645350307226181,
        0.1574275940656662,
        0.6581590175628662
      ],
      "scale": [
        1.0000001192092896,
        -2.9802322387695313e-08,
        -3.725290298461914e-09
      ],
      "translation": [
        5.556037902832031,
        -0.3268003463745117,
        0.830352783203125
      ]
    },
    {
      "children": [
        18
      ],
      "name": "Bip01 L UpperArm",
      "rotation": [
        0.041231438517570496,
        0.11807679384946823,
        0.009625351056456566,
        0.9921014308929443
      ],
      "scale": [
        1.000000238418579,
        0.0,
        4.470348358154297e-08
      ],
      "translation": [
        11.362140655517578,
        9.5367431640625e-07,
        0.0
      ]
    },
    {
      "children": [
        45
      ],
      "name": "Bip01 L ForeArm",
      "rotation": [
        6.099012961335859e-10,
        -7.48374873182911e-09,
        -0.043017104268074036,
        0.9990743398666382
      ],
      "scale": [
        0.9999998807907104,
        -1.4901161193847656e-08,
        1.490115053570662e-08
      ],
      "translation": [
        24.082992553710938,
        0.0,
        -7.62939453125e-06
      ]
    },
    {
      "children": [
        20
      ],
      "name": "Bip01 R UpperArm",
      "rotation": [
        -0.041233353316783905,
        -0.11716550588607788,
        0.009602319449186325,
        0.9922095537185669
      ],
      "scale": [
        1.000000238418579,
        -1.862645149230957e-09,
        1.4901161193847656e-08
      ],
      "translation": [
        11.362144470214844,
        -4.76837158203125e-07,
        -1.52587890625e-05
      ]
    },
    {
      "children": [
        46
      ],
      "name": "Bip01 R ForeArm",
      "rotation": [
        3.2044566999900326e-10,
        7.4436812269595976e-09,
        -0.043017107993364334,
        0.9990743398666382
      ],
      "scale": [
        0.9999999403953552,
        -7.450580596923828e-09,
        -1.4901170075631853e-08
      ],
      "translation": [
        24.082996368408203,
        -2.384185791015625e-07,
        0.0
      ]
    },
    {
      "children": [
        34,
        39
      ],
      "name": "Bip01 Head",
      "rotation": [
        -1.5619244209119643e-07,
        3.534498915769291e-08,
        0.009768317453563213,
        0.9999522566795349
      ],
      "scale": [
        1.000000238418579,
        -1.6018745441215287e-07,
        -9.256386590550392e-08
      ],
      "translation": [
        8.948715209960938,
        0.0,
        0.0
      ]
    },
    {
      "children": [
        23
      ],
      "name": "B_01",
      "rotation": [
        -0.0004498175694607198,
        9.222275548381731e-05,
        0.9794315099716187,
        -0.2017764002084732
      ],
      "scale": [
        1.000000238418579,
        -3.7425451182571123e-08,
        5.820766091346741e-11
      ],
      "translation": [
        5.9194488525390625,
        -6.957294940948486,
        -0.0004122108221054077
      ]
    },
    {
      "children": [
        40
      ],
      "name": "B_02",
      "rotation": [
        -7.1223951216004e-15,
        7.226160892803788e-15,
        -0.0811627060174942,
        0.9967008829116821
      ],
      "scale": [
        1.0,
        -1.4901161193847656e-08,
        -4.359492909895846e-14
      ],
      "translation": [
        16.87519073486328,
        -0.00030517578125,
        1.6370904631912708e-11
      ]
    },
    {
      "children": [
        30
      ],
      "name": "L_01",
      "rotation": [
        0.12969960272312164,
        0.6951155662536621,
        0.6927961111068726,
        -0.14151301980018616
      ],
      "scale": [
        0.9999995827674866,
        0.0,
        1.1496013030409813e-09
      ],
      "translation": [
        3.6826705932617188,
        0.0695486068725586,
        10.391966819763184
      ]
    },
    {
      "children": [
        29
      ],
      "name": "R_01",
      "rotation": [
        0.130335733294487,
        0.6949857473373413,
        -0.6926763653755188,
        0.14215093851089478
      ],
      "scale": [
        1.000000238418579,
        0.0,
        -1.9299477571621537e-09
      ],
      "translation": [
        3.7016983032226563,
        0.06956255435943604,
        -10.318799018859863
      ]
    },
    {
      "children": [
        31
      ],
      "name": "F_01",
      "rotation": [
        -0.0004578383232001215,
        -3.1469058740185574e-05,
        0.9976656436920166,
        0.06828781217336655
      ],
      "scale": [
        0.9999998211860657,
        9.63854063229519e-09,
        5.820766091346741e-11
      ],
      "translation": [
        2.97613525390625,
        9.141223907470703,
        -0.0031128600239753723
      ]
    },
    {
      "children": [
        41
      ],
      "name": "Bip01 R Foot",
      "rotation": [
        0.06932739913463593,
        0.03842361271381378,
        0.09007489681243896,
        0.9927758574485779
      ],
      "scale": [
        1.0,
        -2.9802322387695313e-08,
        1.4901161193847656e-08
      ],
      "translation": [
        40.13832473754883,
        0.0,
        0.0
      ]
    },
    {
      "children": [
        42
      ],
      "name": "Bip01 L Foot",
      "rotation": [
        -0.06932740658521652,
        -0.038423530757427216,
        0.09007490426301956,
        0.9927758574485779
      ],
      "scale": [
        1.0000001192092896,
        -3.4458935260772705e-08,
        -7.450580596923828e-09
      ],
      "translation": [
        40.13832473754883,
        0.0,
        0.0
      ]
    },
    {
      "children": [
        47
      ],
      "name": "R_02",
      "rotation": [
        7.191376938386895e-10,
        1.9149103636095788e-08,
        -0.03752852976322174,
        0.9992955327033997
      ],
      "scale": [
        1.0000001192092896,
        1.4901161193847656e-08,
        0.0
      ],
      "translation": [
        19.448829650878906,
        3.814697265625e-06,
        -7.873036338423844e-07
      ]
    },
    {
      "children": [
        48
      ],
      "name": "L_02",
      "rotation": [
        7.191456874444668e-10,
        1.9149107188809467e-08,
        -0.037528540939092636,
        0.9992955327033997
      ],
      "scale": [
        1.0000001192092896,
        -7.450580596923828e-09,
        2.4868995751603507e-14
      ],
      "translation": [
        19.448837280273438,
        0.0,
        -7.873040885897353e-07
      ]
    },
    {
      "children": [
        49
      ],
      "name": "F_02",
      "rotation": [
        -8.87933542475074e-15,
        -1.2514824445409602e-16,
        0.023484062403440475,
        0.9997242093086243
      ],
      "scale": [
        1.0,
        3.725290298461914e-09,
        1.6681829499206734e-16
      ],
      "translation": [
        19.174598693847656,
        1.9073486328125e-06,
        3.499590093269944e-07
      ]
    },
    {
      "name": "Bone10",
      "rotation": [
        8.52651350674756e-14,
        -5.684342563707159e-14,
        3.725290298461914e-09,
        1.0
      ],
      "scale": [
        1.0,
        7.450580596923828e-09,
        7.105426815499916e-13
      ],
      "translation": [
        25.6839599609375,
        0.0,
        2.384185791015625e-07
      ]
    },
    {
      "name": "Bone02",
      "rotation": [
        -1.7867106279855191e-22,
        9.769962616701378e-15,
        7.450580596923828e-09,
        1.0
      ],
      "scale": [
        0.9999999403953552,
        -8.881784197001252e-16,
        -4.7961631275674974e-14
      ],
      "translation": [
        25.683958053588867,
        1.52587890625e-05,
        2.384185791015625e-07
      ]
    },
    {
      "children": [
        35
      ],
      "name": "Bip01 Ponytail1",
      "rotation": [
        1.9119766533903793e-12,
        -2.772705101961037e-06,
        0.9996773600578308,
        -0.02540152333676815
      ],
      "scale": [
        1.0,
        7.808638718270755e-13,
        -5.684341886080802e-14
      ],
      "translation": [
        16.320892333984375,
        -17.09018325805664,
        0.031389594078063965
      ]
    },
    {
      "children": [
        36
      ],
      "name": "Bip01 Ponytail11",
      "rotation": [
        2.2591372945534455e-13,
        3.766511156300112e-07,
        -0.1357986330986023,
        0.9907364845275879
      ],
      "scale": [
        1.0,
        7.634667095572645e-14,
        0.0
      ],
      "translation": [
        12.657058715820313,
        -0.00971221923828125,
        -2.6542693376541138e-08
      ]
    },
    {
      "children": [
        37
      ],
      "name": "Bip01 Ponytail12",
      "rotation": [
        -4.443874183870553e-16,
        1.0159089214312189e-07,
        -0.03662780299782753,
        0.9993289709091187
      ],
      "scale": [
        0.9999999403953552,
        1.5110835903747407e-15,
        0.0
      ],
      "translation": [
        12.65899658203125,
        -0.010051727294921875,
        -2.8405338525772095e-08
      ]
    },
    {
      "children": [
        38
      ],
      "name": "Bip01 Ponytail13",
      "rotation": [
        3.3310904727667286e-16,
        -4.4103988017241136e-08,
        0.0159013569355011,
        0.9998735785484314
      ],
      "scale": [
        1.0,
        -1.2372966279079208e-16,
        -2.1316282072803006e-14
      ],
      "translation": [
        12.660064697265625,
        -0.010076522827148438,
        -2.7474015951156616e-08
      ]
    },
    {
      "children": [
        50
      ],
      "name": "Bip01 Ponytail14",
      "rotation": [
        8.884569876606535e-16,
        -6.945332842178686e-08,
        0.025040850043296814,
        0.9996864199638367
      ],
      "scale": [
        0.9999998807907104,
        -4.829960800954128e-16,
        2.842170943040401e-14
      ],
      "translation": [
        12.660255432128906,
        -0.010067939758300781,
        -2.8405338525772095e-08
      ]
    },
    {
      "name": "Bip01 HeadNub",
      "rotation": [
        -2.842170943040401e-14,
        1.4210854715202004e-14,
        7.068194673745238e-28,
        1.0
      ],
      "scale": [
        0.9999999403953552,
        4.0389678347315804e-28,
        -2.842170943040401e-14
      ],
      "translation": [
        20.872726440429688,
        3.814697265625e-06,
        0.0
      ]
    },
    {
      "name": "B_03",
      "rotation": [
        7.105427357601002e-15,
        1.0587911840678754e-22,
        2.9802322387695313e-08,
        1.0
      ],
      "scale": [
        1.0000001192092896,
        4.513898307157584e-36,
        -2.117582368135751e-22
      ],
      "translation": [
        23.144195556640625,
        7.62939453125e-06,
        1.6366720956284553e-07
      ]
    },
    {
      "children": [
        51
      ],
      "name": "Bip01 R Toe0",
      "rotation": [
        1.5700926965105832e-16,
        1.5700926965105832e-16,
        0.70710688829422,
        0.7071067094802856
      ],
      "scale": [
        1.0,
        1.7763568394002505e-15,
        -3.223900041478473e-16
      ],
      "translation": [
        13.162713050842285,
        12.05335521697998,
        0.0
      ]
    },
    {
      "children": [
        52
      ],
      "name": "Bip01 L Toe0",
      "rotation": [
        2.02476010213036e-31,
        0.0,
        0.70710688829422,
        0.7071067094802856
      ],
      "scale": [
        1.0,
        1.7763568394002505e-15,
        3.223949804664124e-16
      ],
      "translation": [
        13.162713050842285,
        12.05335521697998,
        9.5367431640625e-07
      ]
    },
    {
      "children": [
        53
      ],
      "name": "Bone07",
      "rotation": [
        -0.1393432319164276,
        0.09060367941856384,
        0.7841299772262573,
        0.5979254245758057
      ],
      "scale": [
        0.9999995231628418,
        7.450580596923828e-09,
        -5.960464477539063e-08
      ],
      "translation": [
        4.191436767578125,
        3.242025375366211,
        -4.378584861755371
      ]
    },
    {
      "children": [
        54
      ],
      "name": "Bone05",
      "rotation": [
        0.11136461794376373,
        -0.07542763650417328,
        0.7880299091339111,
        0.6007642149925232
      ],
      "scale": [
        0.9999997615814209,
        3.864988684654236e-08,
        0.0
      ],
      "translation": [
        4.191436767578125,
        3.2420167922973633,
        4.743309497833252
      ]
    },
    {
      "children": [
        55,
        57,
        63,
        69
      ],
      "name": "Bip01 L Hand",
      "rotation": [
        -0.7058848142623901,
        -0.03647787123918533,
        -0.03644883260130882,
        0.7064470648765564
      ],
      "scale": [
        1.0,
        -1.4901161193847656e-08,
        -8.658389560878277e-10
      ],
      "translation": [
        24.082996368408203,
        9.5367431640625e-07,
        0.0
      ]
    },
    {
      "children": [
        56,
        60,
        65,
        71
      ],
      "name": "Bip01 R Hand",
      "rotation": [
        0.7058848142623901,
        0.03647787496447563,
        -0.03644884005188942,
        0.7064470648765564
      ],
      "scale": [
        1.0000001192092896,
        7.450580596923828e-09,
        -3.776222001761198e-09
      ],
      "translation": [
        24.082996368408203,
        4.76837158203125e-07,
        0.0
      ]
    },
    {
      "name": "R_03",
      "rotation": [
        3.3306690738754696e-16,
        3.143286327701505e-23,
        -1.4901161193847656e-08,
        1.0
      ],
      "scale": [
        1.0,
        2.5860875718090325e-37,
        7.279189390466644e-23
      ],
      "translation": [
        16.96139907836914,
        -3.814697265625e-06,
        -6.821210263296962e-13
      ]
    },
    {
      "name": "L_03",
      "rotation": [
        3.552713678800501e-15,
        -7.105427357601002e-15,
        5.048710395267583e-29,
        1.0
      ],
      "scale": [
        1.0,
        0.0,
        -1.4210854715202004e-14
      ],
      "translation": [
        16.96139144897461,
        0.0,
        0.0
      ]
    },
    {
      "name": "F_03",
      "rotation": [
        -3.99680246513409e-15,
        -2.117582368135751e-22,
        -8.568167686462402e-08,
        1.0
      ],
      "scale": [
        0.9999999403953552,
        1.4210854715202004e-14,
        -1.4210854715202004e-14
      ],
      "translation": [
        15.030853271484375,
        -5.7220458984375e-06,
        2.441738615743816e-07
      ]
    },
    {
      "name": "Bip01 Ponytail1Nub",
      "rotation": [
        0.7073883414268494,
        0.7068251967430115,
        9.802253089219448e-07,
        -9.810062238102546e-07
      ],
      "scale": [
        1.0,
        -6.125627925095221e-15,
        0.0
      ],
      "translation": [
        12.659751892089844,
        0.0,
        4.656612873077393e-10
      ]
    },
    {
      "name": "Bip01 R Toe0Nub",
      "rotation": [
        2.220446049250313e-16,
        0.0,
        8.881784197001252e-16,
        1.0
      ],
      "scale": [
        1.0,
        1.7763568394002505e-15,
        -3.223900041478473e-16
      ],
      "translation": [
        10.604896545410156,
        0.0,
        -9.5367431640625e-07
      ]
    },
    {
      "name": "Bip01 L Toe0Nub",
      "rotation": [
        1.4317213213495546e-31,
        0.0,
        8.881784197001252e-16,
        1.0
      ],
      "scale": [
        1.0,
        1.7763568394002505e-15,
        -3.223949804664124e-16
      ],
      "translation": [
        10.604896545410156,
        0.0,
        0.0
      ]
    },
    {
      "name": "Bone08",
      "rotation": [
        2.932635520292016e-17,
        1.9344676971400077e-09,
        4.421639943075206e-09,
        1.0
      ],
      "scale": [
        0.42125657200813293,
        3.725290076417309e-09,
        3.958120942115784e-09
      ],
      "translation": [
        9.775654792785645,
        -7.62939453125e-06,
        0.0
      ]
    },
    {
      "name": "Bone06",
      "rotation": [
        1.1827887647086754e-07,
        9.257811939278326e-08,
        -7.148271978139019e-16,
        1.0
      ],
      "scale": [
        0.42125654220581055,
        -1.0000239534840773e-14,
        -5.820766091346741e-09
      ],
      "translation": [
        9.775646209716797,
        -7.62939453125e-06,
        0.0
      ]
    },
    {
      "name": "equip_left",
      "rotation": [
        -5.168844836589415e-07,
        -1.1194507578693447e-06,
        -2.0861634197899548e-07,
        1.0
      ],
      "scale": [
        0.999999463558197,
        -8.940813955859994e-08,
        -1.6764715837780386e-08
      ],
      "translation": [
        -0.5002784729003906,
        -1.1329727172851563,
        0.26171875
      ]
    },
    {
      "name": "equip_right",
      "rotation": [
        7.916242594774303e-08,
        6.719492944284866e-07,
        -2.905726432800293e-07,
        1.0
      ],
      "scale": [
        1.0,
        1.4901018197122085e-08,
        -9.312088877777569e-10
      ],
      "translation": [
        2.417022705078125,
        -2.94305419921875,
        -0.07772064208984375
      ]
    },
    {
      "children": [
        58
      ],
      "name": "Bip01 L Finger0",
      "rotation": [
        0.6828780174255371,
        0.25692248344421387,
        -0.1345290094614029,
        0.6705000996589661
      ],
      "scale": [
        1.0000004768371582,
        1.7881393432617188e-07,
        -3.3527612686157227e-07
      ],
      "translation": [
        0.5431480407714844,
        0.00774383544921875,
        -2.5511608123779297
      ]
    },
    {
      "children": [
        59
      ],
      "name": "Bip01 L Finger01",
      "rotation": [
        -4.5672310378108705e-09,
        6.966303089939174e-09,
        0.11640208959579468,
        0.9932021498680115
      ],
      "scale": [
        0.9999999403953552,
        1.4901161193847656e-08,
        -1.4901161193847656e-08
      ],
      "translation": [
        3.795013427734375,
        0.0,
        7.62939453125e-06
      ]
    },
    {
      "children": [
        75
      ],
      "name": "Bip01 L Finger02",
      "rotation": [
        5.4344937439054775e-09,
        -4.3363165835863526e-10,
        0.11640210449695587,
        0.9932021498680115
      ],
      "scale": [
        1.0,
        0.0,
        2.7675783442759894e-08
      ],
      "translation": [
        3.795013427734375,
        1.9073486328125e-06,
        -7.62939453125e-06
      ]
    },
    {
      "children": [
        61
      ],
      "name": "Bip01 R Finger0",
      "rotation": [
        -0.6828780174255371,
        -0.25692248344421387,
        -0.1345290094614029,
        0.6705000996589661
      ],
      "scale": [
        1.0000004768371582,
        1.7881393432617188e-07,
        4.1350722312927246e-07
      ],
      "translation": [
        0.5431480407714844,
        0.00774383544921875,
        2.5511605739593506
      ]
    },
    {
      "children": [
        62
      ],
      "name": "Bip01 R Finger01",
      "rotation": [
        -7.3999353311648974e-09,
        -1.653439696269743e-08,
        0.11640210449695587,
        0.9932021498680115
      ],
      "scale": [
        0.9999998211860657,
        1.4901159417490817e-08,
        -1.3189307423999708e-09
      ],
      "translation": [
        3.7950172424316406,
        -1.9073486328125e-06,
        0.0
      ]
    },
    {
      "children": [
        76
      ],
      "name": "Bip01 R Finger02",
      "rotation": [
        -3.6999678876270536e-09,
        4.336317138697865e-10,
        0.11640210449695587,
        0.9932021498680115
      ],
      "scale": [
        0.9999999403953552,
        0.0,
        1.7227346216230899e-09
      ],
      "translation": [
        3.7950172424316406,
        1.9073486328125e-06,
        0.0
      ]
    },
    {
      "children": [
        64
      ],
      "name": "Bip01 L Finger2",
      "rotation": [
        -0.08983667194843292,
        -0.004974723793566227,
        0.0555574856698513,
        0.9943932890892029
      ],
      "scale": [
        0.9999997615814209,
        1.6928788681980222e-07,
        -1.2648524716496468e-07
      ],
      "translation": [
        8.273906707763672,
        -0.6917953491210938,
        1.2059063911437988
      ]
    },
    {
      "children": [
        66
      ],
      "name": "Bip01 L Finger21",
      "rotation": [
        -2.4370638840309766e-10,
        4.565075428786258e-09,
        0.1308387815952301,
        0.9914036393165588
      ],
      "scale": [
        1.0000001192092896,
        -2.9802322387695313e-08,
        -5.785724788154312e-09
      ],
      "translation": [
        3.0855941772460938,
        7.62939453125e-06,
        -1.9073486328125e-06
      ]
    },
    {
      "children": [
        67
      ],
      "name": "Bip01 R Finger2",
      "rotation": [
        0.08983668684959412,
        0.004974720533937216,
        0.055557504296302795,
        0.9943932890892029
      ],
      "scale": [
        0.9999997615814209,
        2.007582224905491e-07,
        1.0398071026429534e-07
      ],
      "translation": [
        8.273910522460938,
        -0.6917953491210938,
        -1.2059063911437988
      ]
    },
    {
      "children": [
        77
      ],
      "name": "Bip01 L Finger22",
      "rotation": [
        2.3340458454867985e-09,
        -9.86126913460339e-09,
        0.1308388113975525,
        0.9914036393165588
      ],
      "scale": [
        1.0,
        2.9802322387695313e-08,
        9.638560172220423e-09
      ],
      "translation": [
        3.0856056213378906,
        -1.52587890625e-05,
        0.0
      ]
    },
    {
      "children": [
        68
      ],
      "name": "Bip01 R Finger21",
      "rotation": [
        -3.936972969853514e-09,
        -2.3340458454867985e-09,
        0.1308388113975525,
        0.9914036393165588
      ],
      "scale": [
        1.0000001192092896,
        -2.9802322387695313e-08,
        -3.597745656946927e-09
      ],
      "translation": [
        3.085590362548828,
        0.0,
        0.0
      ]
    },
    {
      "children": [
        78
      ],
      "name": "Bip01 R Finger22",
      "rotation": [
        4.874125547615904e-10,
        3.693267025539626e-09,
        0.1308387815952301,
        0.9914036393165588
      ],
      "scale": [
        0.9999999403953552,
        2.9802322387695313e-08,
        7.195490425715434e-09
      ],
      "translation": [
        3.085590362548828,
        -1.52587890625e-05,
        0.0
      ]
    },
    {
      "children": [
        70
      ],
      "name": "Bip01 L Finger1",
      "rotation": [
        -0.0031984648667275906,
        0.06787998974323273,
        0.041126422584056854,
        0.9968403577804565
      ],
      "scale": [
        1.0000001192092896,
        2.4682231014594436e-07,
        1.043081283569336e-07
      ],
      "translation": [
        8.236907958984375,
        -0.8613967895507813,
        -2.459083080291748
      ]
    },
    {
      "children": [
        74
      ],
      "name": "Bip01 L Finger11",
      "rotation": [
        -6.207448333128696e-09,
        -9.19218923201015e-09,
        0.11640209704637527,
        0.9932021498680115
      ],
      "scale": [
        1.0,
        1.4901160305669237e-08,
        2.043861968559213e-08
      ],
      "translation": [
        3.0103721618652344,
        0.0,
        0.0
      ]
    },
    {
      "children": [
        72
      ],
      "name": "Bip01 R Finger1",
      "rotation": [
        0.0031984674278646708,
        -0.06787998974323273,
        0.04112643748521805,
        0.9968403577804565
      ],
      "scale": [
        1.0000001192092896,
        2.7662463253363967e-07,
        -1.1920928955078125e-07
      ],
      "translation": [
        8.236907958984375,
        -0.8613967895507813,
        2.459083080291748
      ]
    },
    {
      "children": [
        73
      ],
      "name": "Bip01 R Finger11",
      "rotation": [
        3.157928585295622e-09,
        2.7749760267425927e-09,
        0.11640209704637527,
        0.9932021498680115
      ],
      "scale": [
        1.0,
        2.9802322387695313e-08,
        -1.0124117544307865e-08
      ],
      "translation": [
        3.0103759765625,
        -7.62939453125e-06,
        9.5367431640625e-07
      ]
    },
    {
      "children": [
        79
      ],
      "name": "Bip01 R Finger12",
      "rotation": [
        2.124527886948613e-09,
        5.4415427719334275e-09,
        0.11640210449695587,
        0.993202269077301
      ],
      "scale": [
        1.0,
        -1.4901161193847656e-08,
        -1.203723787313038e-08
      ],
      "translation": [
        3.0103912353515625,
        0.0,
        -2.86102294921875e-06
      ]
    },
    {
      "children": [
        80
      ],
      "name": "Bip01 L Finger12",
      "rotation": [
        -2.3413437855168695e-09,
        -3.157927919161807e-09,
        0.11640210449695587,
        0.993202269077301
      ],
      "scale": [
        1.0,
        -1.4901161193847656e-08,
        9.173315440591523e-09
      ],
      "translation": [
        3.010395050048828,
        7.62939453125e-06,
        1.9073486328125e-06
      ]
    },
    {
      "name": "Bip01 L Finger0Nub",
      "rotation": [
        2.7939677238464355e-09,
        -7.450580596923828e-09,
        -2.7939677238464355e-09,
        1.0
      ],
      "scale": [
        1.0,
        -2.0489098417897367e-08,
        -1.4901161193847656e-08
      ],
      "translation": [
        3.7950172424316406,
        0.0,
        0.0
      ]
    },
    {
      "name": "Bip01 R Finger0Nub",
      "rotation": [
        3.725290076417309e-09,
        -2.2351741790771484e-08,
        -1.8626450382086546e-09,
        1.0
      ],
      "scale": [
        1.0000001192092896,
        1.1175871783564162e-08,
        1.4901164746561335e-08
      ],
      "translation": [
        3.795013427734375,
        4.76837158203125e-07,
        -7.62939453125e-06
      ]
    },
    {
      "name": "Bip01 L Finger2Nub",
      "rotation": [
        1.8626450382086546e-09,
        7.450580596923828e-09,
        -7.450580152834618e-09,
        1.0
      ],
      "scale": [
        1.0,
        1.4901161193847656e-08,
        0.0
      ],
      "translation": [
        3.085601806640625,
        7.62939453125e-06,
        0.0
      ]
    },
    {
      "name": "Bip01 R Finger2Nub",
      "rotation": [
        -5.5511137996368026e-17,
        -3.7252898543727042e-09,
        0.0,
        1.0
      ],
      "scale": [
        1.0000001192092896,
        2.9802322387695313e-08,
        -7.450581485102248e-09
      ],
      "translation": [
        3.085601806640625,
        0.0,
        -1.9073486328125e-06
      ]
    },
    {
      "name": "Bip01 R Finger1Nub",
      "rotation": [
        1.8626449271863521e-09,
        1.8626450382086546e-09,
        -1.4901160305669237e-08,
        1.0
      ],
      "scale": [
        1.0,
        -2.7755568998184013e-17,
        -1.1175870895385742e-08
      ],
      "translation": [
        3.0103721618652344,
        -7.62939453125e-06,
        9.5367431640625e-07
      ]
    },
    {
      "name": "Bip01 L Finger1Nub",
      "rotation": [
        1.862645149230957e-09,
        1.862645149230957e-09,
        -1.4901161193847656e-08,
        1.0
      ],
      "scale": [
        1.0,
        0.0,
        3.725290298461914e-09
      ],
      "translation": [
        3.0103683471679688,
        7.62939453125e-06,
        -1.9073486328125e-06
      ]
    }
  ],
  "scene": 0,
  "scenes": [
    {
      "nodes": [
        0
      ]
    }
  ],
  "skins": [
    {
      "inverseBindMatrices": 8,
      "joints": [
        3,
        4,
        5,
        6,
        7,
        8,
        9,
        10,
        11,
        12,
        13,
        14,
        15,
        16,
        17,
        18,
        19,
        20,
        21,
        22,
        23,
        24,
        25,
        26,
        27,
        28,
        29,
        30,
        31,
        32,
        33,
        34,
        35,
        36,
        37,
        38,
        39,
        40,
        41,
        42,
        43,
        44,
        45,
        46,
        47,
        48,
        49,
        50,
        51,
        52,
        53,
        54,
        55,
        56,
        57,
        58,
        59,
        60,
        61,
        62,
        63,
        64,
        65,
        66,
        67,
        68,
        69,
        70,
        71,
        72,
        73,
        74,
        75,
        76,
        77,
        78,
        79,
        80
      ],
      "skeleton": 3
    }
  ]
}
