{
  "accessors": [
    {
      "bufferView": 0,
      "componentType": 5126,
      "count": 143,
      "max": [
        161.26902770996094,
        161.06869506835938,
        158.52035522460938
      ],
      "min": [
        -9.068872451782227,
        -10.332440376281738,
        -10.109058380126953
      ],
      "type": "VEC3"
    },
    {
      "bufferView": 1,
      "componentType": 5126,
      "count": 143,
      "type": "VEC3"
    },
    {
      "bufferView": 2,
      "componentType": 5126,
      "count": 143,
      "type": "VEC2"
    },
    {
      "bufferView": 3,
      "componentType": 5123,
      "count": 762,
      "type": "SCALAR"
    },
    {
      "bufferView": 4,
      "componentType": 5126,
      "count": 1492,
      "max": [
        161.26902770996094,
        161.06869506835938,
        158.52035522460938
      ],
      "min": [
        -68.1676025390625,
        -65.55890655517578,
        -67.19320678710938
      ],
      "type": "VEC3"
    },
    {
      "bufferView": 5,
      "componentType": 5126,
      "count": 1492,
      "type": "VEC3"
    },
    {
      "bufferView": 6,
      "componentType": 5126,
      "count": 1492,
      "type": "VEC2"
    },
    {
      "bufferView": 7,
      "componentType": 5123,
      "count": 5880,
      "type": "SCALAR"
    },
    {
      "bufferView": 8,
      "componentType": 5126,
      "count": 516,
      "max": [
        161.26902770996094,
        161.06869506835938,
        158.52035522460938
      ],
      "min": [
        -68.1676025390625,
        -65.55890655517578,
        -67.19320678710938
      ],
      "type": "VEC3"
    },
    {
      "bufferView": 9,
      "componentType": 5126,
      "count": 516,
      "type": "VEC3"
    },
    {
      "bufferView": 10,
      "componentType": 5126,
      "count": 516,
      "type": "VEC2"
    },
    {
      "bufferView": 11,
      "componentType": 5123,
      "count": 1530,
      "type": "SCALAR"
    },
    {
      "bufferView": 12,
      "componentType": 5126,
      "count": 78,
      "type": "MAT4"
    }
  ],
  "asset": {
    "generator": "gr2togltf (ANKA2 Project)",
    "version": "2.0"
  },
  "bufferViews": [
    {
      "buffer": 0,
      "byteLength": 1716,
      "target": 34962
    },
    {
      "buffer": 0,
      "byteLength": 1716,
      "byteOffset": 1716,
      "target": 34962
    },
    {
      "buffer": 0,
      "byteLength": 1144,
      "byteOffset": 3432,
      "target": 34962
    },
    {
      "buffer": 0,
      "byteLength": 1524,
      "byteOffset": 4576,
      "target": 34963
    },
    {
      "buffer": 0,
      "byteLength": 17904,
      "byteOffset": 6100,
      "target": 34962
    },
    {
      "buffer": 0,
      "byteLength": 17904,
      "byteOffset": 24004,
      "target": 34962
    },
    {
      "buffer": 0,
      "byteLength": 11936,
      "byteOffset": 41908,
      "target": 34962
    },
    {
      "buffer": 0,
      "byteLength": 11760,
      "byteOffset": 53844,
      "target": 34963
    },
    {
      "buffer": 0,
      "byteLength": 6192,
      "byteOffset": 65604,
      "target": 34962
    },
    {
      "buffer": 0,
      "byteLength": 6192,
      "byteOffset": 71796,
      "target": 34962
    },
    {
      "buffer": 0,
      "byteLength": 4128,
      "byteOffset": 77988,
      "target": 34962
    },
    {
      "buffer": 0,
      "byteLength": 3060,
      "byteOffset": 82116,
      "target": 34963
    },
    {
      "buffer": 0,
      "byteLength": 4992,
      "byteOffset": 85176
    }
  ],
  "buffers": [
    {
      "byteLength": 90168,
      "uri": "data:application/octet-stream;base64,"
    }
  ],
  "materials": [
    {
      "name": "default",
      "pbrMetallicRoughness": {
        "baseColorFactor": [
          0.8,
          0.8,
          0.8,
          1.0
        ],
        "metallicFactor": 0.0,
        "roughnessFactor": 0.8
      }
    }
  ],
  "meshes": [
    {
      "name": "assassin_face",
      "primitives": [
        {
          "attributes": {
            "NORMAL": 1,
            "POSITION": 0,
            "TEXCOORD_0": 2
          },
          "indices": 3,
          "material": 0,
          "mode": 4
        }
      ]
    },
    {
      "name": "assassin_halloween_2019",
      "primitives": [
        {
          "attributes": {
            "NORMAL": 5,
            "POSITION": 4,
            "TEXCOORD_0": 6
          },
          "indices": 7,
          "material": 0,
          "mode": 4
        }
      ]
    },
    {
      "name": "body2",
      "primitives": [
        {
          "attributes": {
            "NORMAL": 9,
            "POSITION": 8,
            "TEXCOORD_0": 10
          },
          "indices": 11,
          "material": 0,
          "mode": 4
        }
      ]
    }
  ],
  "nodes": [
    {
      "children": [
        1,
        2,
        3,
        4
      ]
    },
    {
      "mesh": 0,
      "name": "assassin_face",
      "skin": 0
    },
    {
      "mesh": 1,
      "name": "assassin_halloween_2019",
      "skin": 0
    },
    {
      "mesh": 2,
      "name": "body2",
      "skin": 0
    },
    {
      "children": [
        5
      ],
      "name": "Bip01",
      "rotation": [
        0.0,
        0.0,
        0.0,
        0.9999999403953552
      ],
      "scale": [
        0.9999997615814209,
        -5.117093408073606e-14,
        0.0
      ],
      "translation": [
        -3.637978807091713e-12,
        0.0,
        0.0
      ]
    },
    {
      "children": [
        6
      ],
      "name": "Bip01 Pelvis",
      "rotation": [
        -0.4999993145465851,
        -0.5,
        -0.5,
        0.5000006556510925
      ],
      "scale": [
        1.0,
        6.755036055564761e-20,
        -2.6671148450016795e-18
      ],
      "translation": [
        3.60000049113296e-05,
        1.000240445137024e-06,
        0.0
      ]
    },
    {
      "children": [
        7,
        20,
        23,
        26,
        29,
        32,
        37
      ],
      "name": "Bip01 Spine",
      "rotation": [
        2.1985995317663765e-06,
        0.0004582926048897207,
        -0.008512736298143864,
        0.999963641166687
      ],
      "scale": [
        1.0000001192092896,
        1.6053471885157933e-09,
        4.092005206901561e-11
      ],
      "translation": [
        9.231704711914063,
        -0.0066817449405789375,
        1.2809410691261292e-05
      ]
    },
    {
      "children": [
        8
      ],
      "name": "Bip01 Spine1",
      "rotation": [
        2.884339631286509e-13,
        -5.820777637666197e-09,
        0.0020979978144168854,
        0.9999977946281433
      ],
      "scale": [
        0.9999999403953552,
        -2.501002738242164e-10,
        5.820904175335428e-11
      ],
      "translation": [
        8.398162841796875,
        -0.010102272033691406,
        -2.2351741790771484e-08
      ]
    },
    {
      "children": [
        9,
        42,
        44
      ],
      "name": "Bip01 Spine2",
      "rotation": [
        1.7687579916339513e-12,
        9.605651030142326e-08,
        -0.03463057428598404,
        0.9994001984596252
      ],
      "scale": [
        0.9999999403953552,
        1.1558521251231468e-08,
        2.903735238368732e-11
      ],
      "translation": [
        12.686180114746094,
        -0.010077834129333496,
        -1.4901161193847656e-08
      ]
    },
    {
      "children": [
        10,
        15,
        74
      ],
      "name": "Bip01 Neck",
      "rotation": [
        -3.473228935035877e-05,
        -0.0004580979875754565,
        0.13992181420326233,
        0.9901624321937561
      ],
      "scale": [
        0.9999998807907104,
        1.5687393783991865e-07,
        9.236774900500677e-08
      ],
      "translation": [
        14.33416748046875,
        -3.440770149230957,
        -3.1366944313049316e-06
      ]
    },
    {
      "children": [
        11,
        46
      ],
      "name": "Bip01 R Clavicle",
      "rotation": [
        -0.5792272090911865,
        0.08922635018825531,
        0.8029547333717346,
        0.10861969739198685
      ],
      "scale": [
        1.0000004768371582,
        -4.67132892367772e-08,
        -1.9477724322314316e-07
      ],
      "translation": [
        -1.0674591064453125,
        1.0830726623535156,
        -2.8085217475891113
      ]
    },
    {
      "children": [
        12
      ],
      "name": "Bip01 R UpperArm",
      "rotation": [
        -0.041233357042074203,
        -0.1171654760837555,
        0.009602323174476624,
        0.9922095537185669
      ],
      "scale": [
        1.0,
        5.306262096382852e-10,
        -8.623966429865959e-09
      ],
      "translation": [
        11.362140655517578,
        -9.5367431640625e-07,
        -1.52587890625e-05
      ]
    },
    {
      "children": [
        13
      ],
      "name": "Bip01 R ForeArm",
      "rotation": [
        6.410615371876816e-10,
        2.444753714452171e-15,
        -0.043017107993364334,
        0.9990743398666382
      ],
      "scale": [
        1.0000001192092896,
        0.0,
        -2.9747166507831935e-08
      ],
      "translation": [
        24.08300018310547,
        -2.384185791015625e-07,
        0.0
      ]
    },
    {
      "children": [
        14,
        48,
        52,
        56
      ],
      "name": "Bip01 R Hand",
      "rotation": [
        0.7058847546577454,
        0.036477863788604736,
        -0.036448825150728226,
        0.7064471244812012
      ],
      "scale": [
        1.0,
        7.194338458305083e-09,
        -4.697594313540776e-09
      ],
      "translation": [
        24.082996368408203,
        4.76837158203125e-07,
        0.0
      ]
    },
    {
      "name": "equip_right",
      "rotation": [
        -2.8870982760054176e-07,
        -1.8114205602159927e-07,
        3.725285324662764e-08,
        1.0
      ],
      "scale": [
        1.0000009536743164,
        -1.3411074917257793e-07,
        2.430753625048965e-07
      ],
      "translation": [
        2.4170455932617188,
        -2.9429931640625,
        -0.077728271484375
      ]
    },
    {
      "children": [
        16,
        60
      ],
      "name": "Bip01 L Clavicle",
      "rotation": [
        0.5799686312675476,
        -0.08928921818733215,
        0.8024171590805054,
        0.10858400911092758
      ],
      "scale": [
        1.0000005960464478,
        2.5709322670763868e-08,
        4.274343012866666e-08
      ],
      "translation": [
        -1.06243896484375,
        1.081949234008789,
        2.8108510971069336
      ]
    },
    {
      "children": [
        17
      ],
      "name": "Bip01 L UpperArm",
      "rotation": [
        0.04123144596815109,
        0.11807678639888763,
        0.009625355713069439,
        0.9921014308929443
      ],
      "scale": [
        1.0,
        -3.733310105502596e-09,
        6.992777912273596e-08
      ],
      "translation": [
        11.362140655517578,
        4.76837158203125e-07,
        0.0
      ]
    },
    {
      "children": [
        18
      ],
      "name": "Bip01 L ForeArm",
      "rotation": [
        -6.409479058611112e-10,
        2.444753714452171e-15,
        -0.043017104268074036,
        0.9990743398666382
      ],
      "scale": [
        1.0000001192092896,
        2.2997146409409197e-09,
        2.9747187824114008e-08
      ],
      "translation": [
        24.08300018310547,
        0.0,
        0.0
      ]
    },
    {
      "children": [
        19,
        62,
        66,
        70
      ],
      "name": "Bip01 L Hand",
      "rotation": [
        -0.7058847546577454,
        -0.036477863788604736,
        -0.03644883632659912,
        0.7064471244812012
      ],
      "scale": [
        1.0,
        -7.634824328306422e-09,
        -1.0802878591675835e-09
      ],
      "translation": [
        24.082996368408203,
        -4.76837158203125e-07,
        0.0
      ]
    },
    {
      "name": "equip_left",
      "rotation": [
        1.5459968949471659e-07,
        -6.374907002282271e-07,
        1.5646227780052868e-07,
        1.0
      ],
      "scale": [
        0.9999997615814209,
        1.490124112990543e-08,
        1.0244060710817848e-08
      ],
      "translation": [
        -0.5003204345703125,
        -1.1329269409179688,
        0.2617034912109375
      ]
    },
    {
      "children": [
        21
      ],
      "name": "F_01",
      "rotation": [
        0.023692535236477852,
        0.01932264305651188,
        0.9832009077072144,
        0.17994807660579681
      ],
      "scale": [
        1.0,
        -2.231538953623158e-09,
        -5.8024507421095e-10
      ],
      "translation": [
        2.9761581420898438,
        9.141225814819336,
        -0.0031189918518066406
      ]
    },
    {
      "children": [
        22
      ],
      "name": "F_02",
      "rotation": [
        1.3747272209485573e-09,
        9.420014768224405e-10,
        0.02348429150879383,
        0.9997242093086243
      ],
      "scale": [
        0.9999998807907104,
        -1.4884724564012686e-08,
        -1.9063759459925222e-09
      ],
      "translation": [
        19.174591064453125,
        0.0,
        0.0
      ]
    },
    {
      "name": "F_03",
      "rotation": [
        1.8626449271863521e-09,
        -9.313227966600834e-10,
        1.564621925354004e-07,
        1.0
      ],
      "scale": [
        1.0,
        -1.4901161193847656e-08,
        -1.8626460374093767e-09
      ],
      "translation": [
        15.030853271484375,
        -7.62939453125e-06,
        4.76837158203125e-07
      ]
    },
    {
      "children": [
        24
      ],
      "name": "L_01",
      "rotation": [
        0.3482173681259155,
        0.6526391506195068,
        0.6563131213188171,
        -0.14852584898471832
      ],
      "scale": [
        1.0,
        -5.288526239155544e-08,
        -3.1090241492393034e-08
      ],
      "translation": [
        3.6826629638671875,
        0.06954789161682129,
        10.391955375671387
      ]
    },
    {
      "children": [
        25
      ],
      "name": "L_02",
      "rotation": [
        6.234342209143762e-11,
        3.7247682715957353e-09,
        0.016735192388296127,
        0.9998599886894226
      ],
      "scale": [
        1.0,
        -1.4892814093059314e-08,
        7.446407490618867e-09
      ],
      "translation": [
        19.448837280273438,
        0.0,
        0.0
      ]
    },
    {
      "name": "L_03",
      "rotation": [
        3.725290742551124e-09,
        7.450581485102248e-09,
        7.450581485102248e-09,
        1.0
      ],
      "scale": [
        0.9999998807907104,
        4.470348002882929e-08,
        1.4901158529312397e-08
      ],
      "translation": [
        16.96139144897461,
        -7.62939453125e-06,
        0.0
      ]
    },
    {
      "children": [
        27
      ],
      "name": "B_01",
      "rotation": [
        0.0274924635887146,
        0.005585575010627508,
        0.9825382828712463,
        -0.1839333325624466
      ],
      "scale": [
        0.9999999403953552,
        2.2155465018158793e-08,
        1.5486088855709568e-08
      ],
      "translation": [
        5.919464111328125,
        -6.957294940948486,
        -0.00042998790740966797
      ]
    },
    {
      "children": [
        28
      ],
      "name": "B_02",
      "rotation": [
        -7.718278793866773e-10,
        -1.8334720408574867e-09,
        -0.039667099714279175,
        0.9992129802703857
      ],
      "scale": [
        1.0,
        1.0129303618100494e-08,
        3.725290298461914e-09
      ],
      "translation": [
        16.875205993652344,
        -0.00030517578125,
        -4.76837158203125e-07
      ]
    },
    {
      "name": "B_03",
      "rotation": [
        -4.6566123179658803e-10,
        -1.862645149230957e-09,
        0.0,
        1.0
      ],
      "scale": [
        1.0,
        -2.980232594040899e-08,
        0.0
      ],
      "translation": [
        23.14419174194336,
        1.52587890625e-05,
        4.76837158203125e-07
      ]
    },
    {
      "children": [
        30
      ],
      "name": "R_01",
      "rotation": [
        -0.19359999895095825,
        -0.6574222445487976,
        0.721314013004303,
        -0.10010579973459244
      ],
      "scale": [
        1.0,
        -2.302823531863396e-08,
        -7.930312406756457e-09
      ],
      "translation": [
        3.7016830444335938,
        0.06956279277801514,
        -10.318808555603027
      ]
    },
    {
      "children": [
        31
      ],
      "name": "R_02",
      "rotation": [
        0.0,
        -4.239105594328052e-11,
        0.011379263363778591,
        0.9999352693557739
      ],
      "scale": [
        1.0,
        1.3564260825660313e-09,
        -8.477663709927086e-11
      ],
      "translation": [
        19.448837280273438,
        7.62939453125e-06,
        0.0
      ]
    },
    {
      "name": "R_03",
      "rotation": [
        -1.8626449271863521e-09,
        -3.7252898543727042e-09,
        7.450580152834618e-09,
        1.0
      ],
      "scale": [
        1.0000001192092896,
        -1.4901162970204496e-08,
        7.450581485102248e-09
      ],
      "translation": [
        16.961402893066406,
        -7.62939453125e-06,
        0.0
      ]
    },
    {
      "children": [
        33
      ],
      "name": "Bip01 R Thigh",
      "rotation": [
        -0.0017407602863386273,
        0.9993849992752075,
        -0.012853805907070637,
        0.032579343765974045
      ],
      "scale": [
        1.0,
        1.1932843602124876e-09,
        2.0759878260889764e-09
      ],
      "translation": [
        -9.223106384277344,
        -0.15046727657318115,
        -8.036136627197266
      ]
    },
    {
      "children": [
        34
      ],
      "name": "Bip01 R Calf",
      "rotation": [
        -8.915102683859644e-11,
        1.8722257077996574e-09,
        -0.09983333200216293,
        0.9950041770935059
      ],
      "scale": [
        0.9999999403953552,
        1.1841605029871971e-08,
        -3.7426364229986575e-09
      ],
      "translation": [
        40.1383171081543,
        1.1920928955078125e-07,
        -1.9073486328125e-06
      ]
    },
    {
      "children": [
        35
      ],
      "name": "Bip01 R Foot",
      "rotation": [
        0.06932741403579712,
        0.03842362016439438,
        0.09007490426301956,
        0.9927758574485779
      ],
      "scale": [
        1.0,
        -2.0930452038214753e-08,
        6.653824158320276e-10
      ],
      "translation": [
        40.13832092285156,
        0.0,
        0.0
      ]
    },
    {
      "children": [
        36
      ],
      "name": "Bip01 R Toe0",
      "rotation": [
        1.5700922994638892e-16,
        1.5700922994638892e-16,
        0.7071067094802856,
        0.7071067690849304
      ],
      "scale": [
        1.0,
        1.7763568394002505e-15,
        -3.223900041478473e-16
      ],
      "translation": [
        13.162713050842285,
        12.053354263305664,
        0.0
      ]
    },
    {
      "name": "Bip01 R Toe0Nub",
      "rotation": [
        2.220446049250313e-16,
        0.0,
        8.881784197001252e-16,
        1.0
      ],
      "scale": [
        1.0,
        1.7763568394002505e-15,
        -3.223900041478473e-16
      ],
      "translation": [
        10.604896545410156,
        0.0,
        -9.5367431640625e-07
      ]
    },
    {
      "children": [
        38
      ],
      "name": "Bip01 L Thigh",
      "rotation": [
        -0.0017526261508464813,
        0.9994144439697266,
        0.01285424642264843,
        -0.03166180104017258
      ],
      "scale": [
        1.0,
        1.347003508733735e-09,
        -4.329827607563175e-09
      ],
      "translation": [
        -9.237846374511719,
        -0.15050005912780762,
        8.019189834594727
      ]
    },
    {
      "children": [
        39
      ],
      "name": "Bip01 L Calf",
      "rotation": [
        1.4934366243668507e-10,
        -8.716592031499104e-11,
        -0.09983333200216293,
        0.9950041770935059
      ],
      "scale": [
        0.9999999403953552,
        4.013304556227123e-19,
        7.306938165640986e-09
      ],
      "translation": [
        40.13832473754883,
        1.1920928955078125e-07,
        9.5367431640625e-07
      ]
    },
    {
      "children": [
        40
      ],
      "name": "Bip01 L Foot",
      "rotation": [
        -0.06932742148637772,
        -0.038423530757427216,
        0.09007491171360016,
        0.9927758574485779
      ],
      "scale": [
        1.0,
        -1.0743733902529584e-08,
        -2.4792043973320688e-09
      ],
      "translation": [
        40.13832092285156,
        0.0,
        -9.5367431640625e-07
      ]
    },
    {
      "children": [
        41
      ],
      "name": "Bip01 L Toe0",
      "rotation": [
        2.0247593968337495e-31,
        0.0,
        0.7071067094802856,
        0.7071067690849304
      ],
      "scale": [
        1.0,
        1.7763568394002505e-15,
        3.223949804664124e-16
      ],
      "translation": [
        13.162713050842285,
        12.05335521697998,
        0.0
      ]
    },
    {
      "name": "Bip01 L Toe0Nub",
      "rotation": [
        1.4317213213495546e-31,
        0.0,
        8.881784197001252e-16,
        1.0
      ],
      "scale": [
        1.0,
        1.7763568394002505e-15,
        -3.223949804664124e-16
      ],
      "translation": [
        10.604897499084473,
        0.0,
        0.0
      ]
    },
    {
      "children": [
        43
      ],
      "name": "Bone07",
      "rotation": [
        -0.1431131809949875,
        0.08452116698026657,
        0.7576627135276794,
        0.6311275959014893
      ],
      "scale": [
        1.0,
        2.7877296027156717e-09,
        -7.706737648049966e-08
      ],
      "translation": [
        4.4693450927734375,
        3.7023849487304688,
        -4.577446460723877
      ]
    },
    {
      "name": "Bone08",
      "rotation": [
        -2.210817973136159e-09,
        -8.152391650639856e-09,
        0.0,
        1.0
      ],
      "scale": [
        0.42125698924064636,
        -3.725290298461914e-09,
        4.074535819853509e-09
      ],
      "translation": [
        9.775653839111328,
        -1.52587890625e-05,
        9.5367431640625e-07
      ]
    },
    {
      "children": [
        45
      ],
      "name": "Bone05",
      "rotation": [
        0.11500497162342072,
        -0.06975090503692627,
        0.7569304704666138,
        0.6395036578178406
      ],
      "scale": [
        1.0000001192092896,
        1.7380665795485584e-08,
        -8.105582338657769e-08
      ],
      "translation": [
        4.4693450927734375,
        3.7023773193359375,
        4.5444560050964355
      ]
    },
    {
      "name": "Bone06",
      "rotation": [
        4.200558478828498e-08,
        -9.25782650540441e-09,
        -3.3162276480425135e-08,
        1.0
      ],
      "scale": [
        0.421256959438324,
        -1.0617075929530984e-07,
        2.1292360941060906e-07
      ],
      "translation": [
        9.775651931762695,
        -7.62939453125e-06,
        -9.5367431640625e-07
      ]
    },
    {
      "children": [
        47
      ],
      "name": "Bone09",
      "rotation": [
        -0.7294803857803345,
        0.15290319919586182,
        0.12787993252277374,
        0.6543132066726685
      ],
      "scale": [
        1.0000001192092896,
        3.437106954606861e-08,
        -4.0067340556504405e-09
      ],
      "translation": [
        5.5560150146484375,
        -0.32675743103027344,
        -0.830352783203125
      ]
    },
    {
      "name": "Bone10",
      "rotation": [
        0.0,
        -2.0372679931934812e-10,
        -1.862645149230957e-09,
        1.0
      ],
      "scale": [
        1.0,
        -1.1175870895385742e-08,
        -7.566995918750763e-10
      ],
      "translation": [
        25.683958053588867,
        0.0,
        -4.76837158203125e-07
      ]
    },
    {
      "children": [
        49
      ],
      "name": "Bip01 R Finger2",
      "rotation": [
        0.08983667939901352,
        0.004974718671292067,
        0.055557481944561005,
        0.9943932890892029
      ],
      "scale": [
        0.9999998211860657,
        1.6825504189910134e-07,
        1.1205313654727433e-07
      ],
      "translation": [
        8.273906707763672,
        -0.6917953491210938,
        -1.205906867980957
      ]
    },
    {
      "children": [
        50
      ],
      "name": "Bip01 R Finger21",
      "rotation": [
        -7.3865327188116225e-09,
        2.2396993728391993e-16,
        0.1308388113975525,
        0.9914036393165588
      ],
      "scale": [
        1.0,
        -2.6637678729457548e-08,
        1.9328902922666202e-09
      ],
      "translation": [
        3.085590362548828,
        7.62939453125e-06,
        0.0
      ]
    },
    {
      "children": [
        51
      ],
      "name": "Bip01 R Finger22",
      "rotation": [
        -2.7184416939718403e-09,
        4.874123327169855e-10,
        0.1308387815952301,
        0.9914036393165588
      ],
      "scale": [
        1.0000001192092896,
        -1.3318844693799292e-08,
        1.6578962203084302e-08
      ],
      "translation": [
        3.0855979919433594,
        0.0,
        0.0
      ]
    },
    {
      "name": "Bip01 R Finger2Nub",
      "rotation": [
        -1.1102231569740545e-16,
        -7.450580596923828e-09,
        0.0,
        1.0
      ],
      "scale": [
        1.0,
        2.9802320611338473e-08,
        0.0
      ],
      "translation": [
        3.085601806640625,
        0.0,
        0.0
      ]
    },
    {
      "children": [
        53
      ],
      "name": "Bip01 R Finger1",
      "rotation": [
        0.00319846672937274,
        -0.06787998974323273,
        0.041126448661088943,
        0.9968403577804565
      ],
      "scale": [
        1.0000001192092896,
        2.6887548187914945e-07,
        -1.1320297943484547e-07
      ],
      "translation": [
        8.23690414428711,
        -0.86138916015625,
        2.45908260345459
      ]
    },
    {
      "children": [
        54
      ],
      "name": "Bip01 R Finger11",
      "rotation": [
        -1.7415754394178862e-09,
        4.4081422956310234e-09,
        0.1164020225405693,
        0.9932022094726563
      ],
      "scale": [
        0.9999999403953552,
        5.798942481760605e-08,
        1.7112178340994433e-09
      ],
      "translation": [
        3.0103683471679688,
        0.0,
        1.9073486328125e-06
      ]
    },
    {
      "children": [
        55
      ],
      "name": "Bip01 R Finger12",
      "rotation": [
        -2.774974694474963e-09,
        -1.1425122181663028e-08,
        0.1164020299911499,
        0.9932021498680115
      ],
      "scale": [
        0.9999999403953552,
        1.378187519662788e-08,
        3.028554906858716e-10
      ],
      "translation": [
        3.010387420654297,
        0.0,
        -3.814697265625e-06
      ]
    },
    {
      "name": "Bip01 R Finger1Nub",
      "rotation": [
        9.313225746154785e-10,
        0.0,
        3.4694473655439205e-18,
        1.0
      ],
      "scale": [
        1.0,
        -1.3877787807814457e-17,
        -7.450580596923828e-09
      ],
      "translation": [
        3.0103721618652344,
        7.62939453125e-06,
        9.5367431640625e-07
      ]
    },
    {
      "children": [
        57
      ],
      "name": "Bip01 R Finger0",
      "rotation": [
        -0.6828780770301819,
        -0.25692251324653625,
        -0.1345289945602417,
        0.6705000996589661
      ],
      "scale": [
        1.0000003576278687,
        1.7935022356141417e-07,
        4.017627759367315e-07
      ],
      "translation": [
        0.5431480407714844,
        0.00775146484375,
        2.5511600971221924
      ]
    },
    {
      "children": [
        58
      ],
      "name": "Bip01 R Finger01",
      "rotation": [
        -9.134459411086482e-09,
        0.0,
        0.1164020448923111,
        0.9932021498680115
      ],
      "scale": [
        0.9999998211860657,
        1.5212835435818306e-08,
        -2.7675779890046215e-08
      ],
      "translation": [
        3.7950172424316406,
        1.9073486328125e-06,
        -7.62939453125e-06
      ]
    },
    {
      "children": [
        59
      ],
      "name": "Bip01 R Finger02",
      "rotation": [
        5.3767617025357595e-09,
        -7.94197063669344e-09,
        0.1164020225405693,
        0.9932022094726563
      ],
      "scale": [
        1.0,
        -1.664380455679293e-08,
        4.257694641296439e-08
      ],
      "translation": [
        3.795013427734375,
        0.0,
        0.0
      ]
    },
    {
      "name": "Bip01 R Finger0Nub",
      "rotation": [
        -9.313225746154785e-10,
        -2.2351741790771484e-08,
        -1.3969838619232178e-09,
        1.0
      ],
      "scale": [
        1.0,
        9.313224635931761e-10,
        1.4901161193847656e-08
      ],
      "translation": [
        3.795013427734375,
        0.0,
        7.62939453125e-06
      ]
    },
    {
      "children": [
        61
      ],
      "name": "Bone01",
      "rotation": [
        0.7443282008171082,
        -0.16826705634593964,
        0.09885243326425552,
        0.6386625170707703
      ],
      "scale": [
        0.9999998807907104,
        -1.2728679443796409e-08,
        -1.9573302978415086e-08
      ],
      "translation": [
        5.5560302734375,
        -0.32680177688598633,
        0.830352783203125
      ]
    },
    {
      "name": "Bone02",
      "rotation": [
        -9.313225191043273e-10,
        -1.2805684290739805e-09,
        -3.725290076417309e-09,
        1.0
      ],
      "scale": [
        1.0000001192092896,
        4.345482307321902e-16,
        5.355105692217421e-09
      ],
      "translation": [
        25.683963775634766,
        0.0,
        0.0
      ]
    },
    {
      "children": [
        63
      ],
      "name": "Bip01 L Finger2",
      "rotation": [
        -0.08983667939901352,
        -0.004974718671292067,
        0.0555574931204319,
        0.9943932890892029
      ],
      "scale": [
        0.9999998807907104,
        1.3771941098639218e-07,
        -1.2401669380324165e-07
      ],
      "translation": [
        8.273902893066406,
        -0.691802978515625,
        1.2059063911437988
      ]
    },
    {
      "children": [
        64
      ],
      "name": "Bip01 L Finger21",
      "rotation": [
        1.1810917577292912e-08,
        -2.3340454013975886e-09,
        0.1308387964963913,
        0.9914036393165588
      ],
      "scale": [
        1.0000001192092896,
        1.3318842917442453e-08,
        7.182544781159095e-09
      ],
      "translation": [
        3.0855979919433594,
        -7.62939453125e-06,
        -1.9073486328125e-06
      ]
    },
    {
      "children": [
        65
      ],
      "name": "Bip01 L Finger22",
      "rotation": [
        4.874123327169855e-10,
        -2.7184416939718403e-09,
        0.1308387815952301,
        0.9914036393165588
      ],
      "scale": [
        1.0000001192092896,
        1.5463118785419283e-08,
        9.383470889190448e-09
      ],
      "translation": [
        3.0855979919433594,
        0.0,
        0.0
      ]
    },
    {
      "name": "Bip01 L Finger2Nub",
      "rotation": [
        -1.862645149230957e-09,
        7.450580152834618e-09,
        -7.450580152834618e-09,
        1.0
      ],
      "scale": [
        1.0000001192092896,
        1.4901162970204496e-08,
        1.4901162970204496e-08
      ],
      "translation": [
        3.085601806640625,
        7.62939453125e-06,
        0.0
      ]
    },
    {
      "children": [
        67
      ],
      "name": "Bip01 L Finger1",
      "rotation": [
        -0.003198464633896947,
        0.06787997484207153,
        0.04112643003463745,
        0.9968403577804565
      ],
      "scale": [
        1.0000001192092896,
        2.685777928945754e-07,
        1.1088844331652581e-07
      ],
      "translation": [
        8.236907958984375,
        -0.8613967895507813,
        -2.459083080291748
      ]
    },
    {
      "children": [
        68
      ],
      "name": "Bip01 L Finger11",
      "rotation": [
        -7.616748121108685e-09,
        -5.98358118608644e-09,
        0.1164020374417305,
        0.9932021498680115
      ],
      "scale": [
        1.0,
        4.206110659765727e-08,
        -2.6620203819049948e-09
      ],
      "translation": [
        3.0103721618652344,
        0.0,
        0.0
      ]
    },
    {
      "children": [
        69
      ],
      "name": "Bip01 L Finger12",
      "rotation": [
        5.607678765784385e-09,
        7.588548678327811e-10,
        0.1164020299911499,
        0.9932021498680115
      ],
      "scale": [
        0.9999998211860657,
        2.8994712408803025e-08,
        -1.4699256034589325e-08
      ],
      "translation": [
        3.0103797912597656,
        7.62939453125e-06,
        1.9073486328125e-06
      ]
    },
    {
      "name": "Bip01 L Finger1Nub",
      "rotation": [
        -9.313225746154785e-10,
        -1.862645149230957e-09,
        -7.450580596923828e-09,
        1.0
      ],
      "scale": [
        1.0,
        1.4901161193847656e-08,
        3.725290076417309e-09
      ],
      "translation": [
        3.0103759765625,
        0.0,
        0.0
      ]
    },
    {
      "children": [
        71
      ],
      "name": "Bip01 L Finger0",
      "rotation": [
        0.6828780174255371,
        0.25692248344421387,
        -0.1345289945602417,
        0.6705000996589661
      ],
      "scale": [
        1.0000004768371582,
        1.4185344809902745e-07,
        -3.4762231848617375e-07
      ],
      "translation": [
        0.5431480407714844,
        0.00775146484375,
        -2.551161050796509
      ]
    },
    {
      "children": [
        72
      ],
      "name": "Bip01 L Finger01",
      "rotation": [
        1.1178218366043137e-16,
        -1.5667129815710723e-08,
        0.1164020448923111,
        0.9932021498680115
      ],
      "scale": [
        0.9999999403953552,
        -7.154796755060033e-10,
        -1.3189285219539215e-09
      ],
      "translation": [
        3.7950096130371094,
        0.0,
        1.52587890625e-05
      ]
    },
    {
      "children": [
        73
      ],
      "name": "Bip01 L Finger02",
      "rotation": [
        4.682687571033739e-09,
        2.2850244363326055e-08,
        0.1164020225405693,
        0.9932022094726563
      ],
      "scale": [
        1.0,
        -1.378187430844946e-08,
        -1.53049661832938e-08
      ],
      "translation": [
        3.7950172424316406,
        -1.9073486328125e-06,
        -7.62939453125e-06
      ]
    },
    {
      "name": "Bip01 L Finger0Nub",
      "rotation": [
        3.725290742551124e-09,
        -7.450581485102248e-09,
        2.7939679458910405e-09,
        1.0
      ],
      "scale": [
        0.9999998807907104,
        -5.587934559514451e-09,
        1.4901159417490817e-08
      ],
      "translation": [
        3.7950172424316406,
        0.0,
        0.0
      ]
    },
    {
      "children": [
        75,
        81
      ],
      "name": "Bip01 Head",
      "rotation": [
        -1.5619733062521846e-07,
        3.53460798407923e-08,
        0.009768293239176273,
        0.9999522566795349
      ],
      "scale": [
        1.0000001192092896,
        -1.6155651394456072e-07,
        -9.256282140768235e-08
      ],
      "translation": [
        8.94873046875,
        0.0,
        0.0
      ]
    },
    {
      "children": [
        76
      ],
      "name": "Bip01 Ponytail1",
      "rotation": [
        1.9190846828331942e-12,
        -2.7727053293347126e-06,
        0.999677300453186,
        -0.0254015251994133
      ],
      "scale": [
        1.0,
        -3.026339845391135e-09,
        -6.196426157551935e-14
      ],
      "translation": [
        16.320892333984375,
        -17.09018325805664,
        0.031389594078063965
      ]
    },
    {
      "children": [
        77
      ],
      "name": "Bip01 Ponytail11",
      "rotation": [
        2.259137159028174e-13,
        3.766511156300112e-07,
        -0.1357986032962799,
        0.9907364845275879
      ],
      "scale": [
        1.0,
        7.634667095572645e-14,
        1.8100413068334806e-14
      ],
      "translation": [
        12.657058715820313,
        -0.00971221923828125,
        -2.6542693376541138e-08
      ]
    },
    {
      "children": [
        78
      ],
      "name": "Bip01 Ponytail12",
      "rotation": [
        -1.1420756647253366e-13,
        1.0159087793226718e-07,
        -0.03662780299782753,
        0.9993289709091187
      ],
      "scale": [
        0.9999999403953552,
        1.2963006223998264e-09,
        5.415502183655054e-15
      ],
      "translation": [
        12.65899658203125,
        -0.010051727294921875,
        -2.8405338525772095e-08
      ]
    },
    {
      "children": [
        79
      ],
      "name": "Bip01 Ponytail13",
      "rotation": [
        1.1420087152411856e-13,
        -4.410394183196331e-08,
        0.015901338309049606,
        0.9998735785484314
      ],
      "scale": [
        1.0,
        -1.2368874051152786e-16,
        -2.3944061184190228e-14
      ],
      "translation": [
        12.660064697265625,
        -0.010076522827148438,
        -2.7474015951156616e-08
      ]
    },
    {
      "children": [
        80
      ],
      "name": "Bip01 Ponytail14",
      "rotation": [
        1.1461095744333405e-13,
        -6.945341368691516e-08,
        0.0250408835709095,
        0.9996864199638367
      ],
      "scale": [
        0.9999999403953552,
        7.364481802163425e-10,
        2.4696443281786544e-14
      ],
      "translation": [
        12.660255432128906,
        -0.010068893432617188,
        -2.8405338525772095e-08
      ]
    },
    {
      "name": "Bip01 Ponytail1Nub",
      "rotation": [
        0.7073882222175598,
        0.7068251967430115,
        9.80225195235107e-07,
        -9.810059964365792e-07
      ],
      "scale": [
        0.9999999403953552,
        -6.1256266545458e-15,
        -8.242163868727934e-14
      ],
      "translation": [
        12.659751892089844,
        1.9073486328125e-06,
        4.656612873077393e-10
      ]
    },
    {
      "name": "Bip01 HeadNub",
      "rotation": [
        -2.842170943040401e-14,
        1.4210854715202004e-14,
        7.068194673745238e-28,
        1.0
      ],
      "scale": [
        0.9999999403953552,
        4.0389678347315804e-28,
        -2.842170943040401e-14
      ],
      "translation": [
        20.872726440429688,
        0.0,
        0.0
      ]
    }
  ],
  "scene": 0,
  "scenes": [
    {
      "nodes": [
        0
      ]
    }
  ],
  "skins": [
    {
      "inverseBindMatrices": 12,
      "joints": [
        4,
        5,
        6,
        7,
        8,
        9,
        10,
        11,
        12,
        13,
        14,
        15,
        16,
        17,
        18,
        19,
        20,
        21,
        22,
        23,
        24,
        25,
        26,
        27,
        28,
        29,
        30,
        31,
        32,
        33,
        34,
        35,
        36,
        37,
        38,
        39,
        40,
        41,
        42,
        43,
        44,
        45,
        46,
        47,
        48,
        49,
        50,
        51,
        52,
        53,
        54,
        55,
        56,
        57,
        58,
        59,
        60,
        61,
        62,
        63,
        64,
        65,
        66,
        67,
        68,
        69,
        70,
        71,
        72,
        73,
        74,
        75,
        76,
        77,
        78,
        79,
        80,
        81
      ],
      "skeleton": 4
    }
  ]
}
