{
  "accessors": [
    {
      "bufferView": 0,
      "componentType": 5126,
      "count": 143,
      "max": [
        161.26902770996094,
        161.06869506835938,
        158.52035522460938
      ],
      "min": [
        -9.075821876525879,
        -10.332450866699219,
        -10.109068870544434
      ],
      "type": "VEC3"
    },
    {
      "bufferView": 1,
      "componentType": 5126,
      "count": 143,
      "type": "VEC3"
    },
    {
      "bufferView": 2,
      "componentType": 5126,
      "count": 143,
      "type": "VEC2"
    },
    {
      "bufferView": 3,
      "componentType": 5123,
      "count": 762,
      "type": "SCALAR"
    },
    {
      "bufferView": 4,
      "componentType": 5126,
      "count": 1737,
      "max": [
        170.00997924804688,
        173.9229736328125,
        173.9229736328125
      ],
      "min": [
        -70.85509490966797,
        -69.27965545654297,
        -75.02410125732422
      ],
      "type": "VEC3"
    },
    {
      "bufferView": 5,
      "componentType": 5126,
      "count": 1737,
      "type": "VEC3"
    },
    {
      "bufferView": 6,
      "componentType": 5126,
      "count": 1737,
      "type": "VEC2"
    },
    {
      "bufferView": 7,
      "componentType": 5123,
      "count": 5994,
      "type": "SCALAR"
    },
    {
      "bufferView": 8,
      "componentType": 5126,
      "count": 68,
      "type": "MAT4"
    }
  ],
  "asset": {
    "generator": "gr2togltf (ANKA2 Project)",
    "version": "2.0"
  },
  "bufferViews": [
    {
      "buffer": 0,
      "byteLength": 1716,
      "target": 34962
    },
    {
      "buffer": 0,
      "byteLength": 1716,
      "byteOffset": 1716,
      "target": 34962
    },
    {
      "buffer": 0,
      "byteLength": 1144,
      "byteOffset": 3432,
      "target": 34962
    },
    {
      "buffer": 0,
      "byteLength": 1524,
      "byteOffset": 4576,
      "target": 34963
    },
    {
      "buffer": 0,
      "byteLength": 20844,
      "byteOffset": 6100,
      "target": 34962
    },
    {
      "buffer": 0,
      "byteLength": 20844,
      "byteOffset": 26944,
      "target": 34962
    },
    {
      "buffer": 0,
      "byteLength": 13896,
      "byteOffset": 47788,
      "target": 34962
    },
    {
      "buffer": 0,
      "byteLength": 11988,
      "byteOffset": 61684,
      "target": 34963
    },
    {
      "buffer": 0,
      "byteLength": 4352,
      "byteOffset": 73672
    }
  ],
  "buffers": [
    {
      "byteLength": 78024,
      "uri": "data:application/octet-stream;base64,"
    }
  ],
  "materials": [
    {
      "name": "default",
      "pbrMetallicRoughness": {
        "baseColorFactor": [
          0.8,
          0.8,
          0.8,
          1.0
        ],
        "metallicFactor": 0.0,
        "roughnessFactor": 0.8
      }
    }
  ],
  "meshes": [
    {
      "name": "assassin_face_skin",
      "primitives": [
        {
          "attributes": {
            "NORMAL": 1,
            "POSITION": 0,
            "TEXCOORD_0": 2
          },
          "indices": 3,
          "material": 0,
          "mode": 4
        }
      ]
    },
    {
      "name": "assassin_carnival",
      "primitives": [
        {
          "attributes": {
            "NORMAL": 5,
            "POSITION": 4,
            "TEXCOORD_0": 6
          },
          "indices": 7,
          "material": 0,
          "mode": 4
        }
      ]
    }
  ],
  "nodes": [
    {
      "children": [
        1,
        2,
        3
      ]
    },
    {
      "mesh": 0,
      "name": "assassin_face_skin",
      "skin": 0
    },
    {
      "mesh": 1,
      "name": "assassin_carnival",
      "skin": 0
    },
    {
      "children": [
        4
      ],
      "name": "Bip01",
      "rotation": [
        0.0,
        0.0,
        0.0,
        0.9999999403953552
      ],
      "scale": [
        0.9999997615814209,
        -5.117093408073606e-14,
        0.0
      ],
      "translation": [
        -9.094947017729282e-13,
        -4.656612873077393e-10,
        0.0
      ]
    },
    {
      "children": [
        5
      ],
      "name": "Bip01 Pelvis",
      "rotation": [
        -0.4999993145465851,
        -0.5,
        -0.5,
        0.5000006556510925
      ],
      "scale": [
        1.0,
        6.755036055564761e-20,
        -2.6671148450016795e-18
      ],
      "translation": [
        9.417530236532912e-06,
        -2.5779008865356445e-06,
        0.0
      ]
    },
    {
      "children": [
        6,
        9,
        12,
        15,
        28,
        50,
        66
      ],
      "name": "Bip01 Spine",
      "rotation": [
        2.1985922558087623e-06,
        0.0004582926048897207,
        -0.008512725122272968,
        0.999963641166687
      ],
      "scale": [
        1.0000001192092896,
        1.6053616214151134e-09,
        4.026750807795132e-11
      ],
      "translation": [
        9.231704711914063,
        -0.006681759841740131,
        1.2809410691261292e-05
      ]
    },
    {
      "children": [
        7
      ],
      "name": "R_01",
      "rotation": [
        0.130335733294487,
        0.6949856877326965,
        -0.6926764249801636,
        0.1421509087085724
      ],
      "scale": [
        0.9999997615814209,
        2.3349024047547573e-08,
        2.7892816945040977e-09
      ],
      "translation": [
        3.7016830444335938,
        0.06956100463867188,
        -10.318808555603027
      ]
    },
    {
      "children": [
        8
      ],
      "name": "R_02",
      "rotation": [
        7.191449657995008e-10,
        1.9149103636095788e-08,
        -0.03752855584025383,
        0.9992955327033997
      ],
      "scale": [
        1.000000238418579,
        -3.023215455755235e-09,
        4.279979555444832e-15
      ],
      "translation": [
        19.448837280273438,
        0.0,
        -7.873040885897353e-07
      ]
    },
    {
      "name": "R_03",
      "rotation": [
        2.220446049250313e-15,
        -1.7763568394002505e-15,
        1.5777218104420236e-30,
        1.0
      ],
      "scale": [
        1.0,
        2.524354896707238e-29,
        3.552713678800501e-15
      ],
      "translation": [
        16.961395263671875,
        -3.814697265625e-06,
        -9.094947017729282e-13
      ]
    },
    {
      "children": [
        10
      ],
      "name": "L_01",
      "rotation": [
        0.12969952821731567,
        0.6951155066490173,
        0.692795991897583,
        -0.14151306450366974
      ],
      "scale": [
        0.9999997019767761,
        6.382544714966798e-09,
        -1.4784740187678835e-07
      ],
      "translation": [
        3.6826858520507813,
        0.06954574584960938,
        10.391956329345703
      ]
    },
    {
      "children": [
        11
      ],
      "name": "L_02",
      "rotation": [
        7.191569006970155e-10,
        1.9149112517879985e-08,
        -0.03752853348851204,
        0.9992955327033997
      ],
      "scale": [
        1.0000001192092896,
        -8.941196227851833e-09,
        -2.3628656607818828e-14
      ],
      "translation": [
        19.448837280273438,
        7.62939453125e-06,
        -7.873059075791389e-07
      ]
    },
    {
      "name": "L_03",
      "rotation": [
        -8.881784197001252e-15,
        -7.105427357601002e-15,
        -1.5146131787655857e-28,
        1.0
      ],
      "scale": [
        1.0,
        -8.077935669463161e-28,
        4.263256075747422e-14
      ],
      "translation": [
        16.961402893066406,
        0.0,
        -7.275957614183426e-12
      ]
    },
    {
      "children": [
        13
      ],
      "name": "F_01",
      "rotation": [
        -0.00045783762470819056,
        -3.146984818158671e-05,
        0.9976655840873718,
        0.06828781217336655
      ],
      "scale": [
        0.9999997019767761,
        1.1099810137693567e-07,
        -6.880740421877363e-09
      ],
      "translation": [
        2.9761428833007813,
        9.141229629516602,
        -0.00312042236328125
      ]
    },
    {
      "children": [
        14
      ],
      "name": "F_02",
      "rotation": [
        -1.9340864020468522e-14,
        3.729027398419746e-15,
        0.023484067991375923,
        0.9997242093086243
      ],
      "scale": [
        1.0,
        8.396241035768526e-09,
        -2.0057308204178732e-14
      ],
      "translation": [
        19.174591064453125,
        1.9073486328125e-06,
        3.4996082831639796e-07
      ]
    },
    {
      "name": "F_03",
      "rotation": [
        -3.108623621917491e-15,
        1.065814188343445e-14,
        -8.381903171539307e-08,
        1.0
      ],
      "scale": [
        1.0,
        -3.725290298461914e-09,
        -2.1316282072803006e-14
      ],
      "translation": [
        15.030860900878906,
        -5.7220458984375e-06,
        2.441738615743816e-07
      ]
    },
    {
      "children": [
        16
      ],
      "name": "Bip01 Spine1",
      "rotation": [
        2.884339631286509e-13,
        -5.820777637666197e-09,
        0.0020980006083846092,
        0.9999977946281433
      ],
      "scale": [
        0.9999999403953552,
        -2.501006068911238e-10,
        5.820904175335428e-11
      ],
      "translation": [
        8.398162841796875,
        -0.010102033615112305,
        -2.2351741790771484e-08
      ]
    },
    {
      "children": [
        17,
        21,
        23
      ],
      "name": "Bip01 Spine2",
      "rotation": [
        1.7687579916339513e-12,
        9.605651030142326e-08,
        -0.03463057801127434,
        0.9994001984596252
      ],
      "scale": [
        0.9999999403953552,
        4.1258116922904264e-09,
        2.9037402690668124e-11
      ],
      "translation": [
        12.686180114746094,
        -0.010077714920043945,
        -1.4901161193847656e-08
      ]
    },
    {
      "children": [
        18,
        25,
        44
      ],
      "name": "Bip01 Neck",
      "rotation": [
        -3.473228571237996e-05,
        -0.0004580979875754565,
        0.13992176949977875,
        0.9901624321937561
      ],
      "scale": [
        0.9999998807907104,
        1.4035805406820145e-07,
        9.231966657807789e-08
      ],
      "translation": [
        14.33416748046875,
        -3.440770149230957,
        -3.1366944313049316e-06
      ]
    },
    {
      "children": [
        19,
        32
      ],
      "name": "Bip01 R Clavicle",
      "rotation": [
        -0.5792272090911865,
        0.08922632783651352,
        0.8029547333717346,
        0.10861966758966446
      ],
      "scale": [
        1.0000004768371582,
        -3.9898306880559176e-08,
        -1.6850971462645248e-07
      ],
      "translation": [
        -1.067474365234375,
        1.0830707550048828,
        -2.8085217475891113
      ]
    },
    {
      "children": [
        20
      ],
      "name": "Bone09",
      "rotation": [
        -0.7176151275634766,
        0.16453243792057037,
        0.15742896497249603,
        0.6581593155860901
      ],
      "scale": [
        0.9999998807907104,
        -1.0691970686593777e-07,
        4.801330177883756e-08
      ],
      "translation": [
        5.556018829345703,
        -0.32675695419311523,
        -0.8303680419921875
      ]
    },
    {
      "name": "Bone10",
      "rotation": [
        1.0658141036401503e-13,
        -1.376676550535194e-13,
        7.4505797087454084e-09,
        1.0
      ],
      "scale": [
        1.0000001192092896,
        -2.117347603130357e-22,
        7.158718062783009e-13
      ],
      "translation": [
        25.6839599609375,
        0.0,
        0.0
      ]
    },
    {
      "children": [
        22
      ],
      "name": "Bone07",
      "rotation": [
        -0.13934281468391418,
        0.09060375392436981,
        0.7841299176216125,
        0.5979254245758057
      ],
      "scale": [
        0.9999998211860657,
        -6.846562428108882e-08,
        -6.694578047472532e-08
      ],
      "translation": [
        4.191444396972656,
        3.242025375366211,
        -4.378601551055908
      ]
    },
    {
      "name": "Bone08",
      "rotation": [
        9.286677989538527e-17,
        -8.014221286600787e-09,
        4.421639498985996e-09,
        1.0
      ],
      "scale": [
        0.4212566018104553,
        -3.725290742551124e-09,
        1.0943038475375033e-08
      ],
      "translation": [
        9.775654792785645,
        -7.62939453125e-06,
        1.9073486328125e-06
      ]
    },
    {
      "children": [
        24
      ],
      "name": "Bone05",
      "rotation": [
        0.11136461794376373,
        -0.07542804628610611,
        0.7880299687385559,
        0.6007639169692993
      ],
      "scale": [
        1.0000001192092896,
        -4.1712162612839165e-09,
        -1.7016896336485843e-08
      ],
      "translation": [
        4.191459655761719,
        3.2420148849487305,
        4.743301868438721
      ]
    },
    {
      "name": "Bone06",
      "rotation": [
        1.1606803695940471e-07,
        8.207669566218101e-08,
        -1.4168290462569528e-15,
        1.0
      ],
      "scale": [
        0.42125657200813293,
        -9.372761762679524e-15,
        -1.09430189354498e-08
      ],
      "translation": [
        9.775649070739746,
        -7.62939453125e-06,
        9.5367431640625e-07
      ]
    },
    {
      "children": [
        26,
        54
      ],
      "name": "Bip01 L Clavicle",
      "rotation": [
        0.5799686312675476,
        -0.08928920328617096,
        0.8024171590805054,
        0.1085839793086052
      ],
      "scale": [
        1.0000005960464478,
        2.2543934719010394e-08,
        1.2659322479180446e-08
      ],
      "translation": [
        -1.0624542236328125,
        1.0819473266601563,
        2.8108510971069336
      ]
    },
    {
      "children": [
        27
      ],
      "name": "Bone01",
      "rotation": [
        0.7176151871681213,
        -0.16453485190868378,
        0.15742740035057068,
        0.658159077167511
      ],
      "scale": [
        1.0,
        1.0548128592802186e-08,
        1.6197551744312477e-08
      ],
      "translation": [
        5.556034088134766,
        -0.32680273056030273,
        0.830352783203125
      ]
    },
    {
      "name": "Bone02",
      "rotation": [
        -7.105427357601002e-15,
        -4.440892098500626e-15,
        -3.725290298461914e-09,
        1.0
      ],
      "scale": [
        0.9999999403953552,
        -7.450580152834618e-09,
        -5.329069671167804e-15
      ],
      "translation": [
        25.683963775634766,
        0.0,
        2.384185791015625e-07
      ]
    },
    {
      "children": [
        29
      ],
      "name": "Bip01 R Thigh",
      "rotation": [
        -0.0017407500417903066,
        0.9993849992752075,
        -0.012853805907070637,
        0.032579343765974045
      ],
      "scale": [
        1.0,
        1.230008428443341e-09,
        1.5599509461949879e-09
      ],
      "translation": [
        -9.223106384277344,
        -0.1504669189453125,
        -8.036136627197266
      ]
    },
    {
      "children": [
        30
      ],
      "name": "Bip01 R Calf",
      "rotation": [
        -8.915102683859644e-11,
        1.8722257077996574e-09,
        -0.09983333200216293,
        0.9950041770935059
      ],
      "scale": [
        0.9999999403953552,
        1.1841605029871971e-08,
        -3.7426364229986575e-09
      ],
      "translation": [
        40.1383171081543,
        1.1920928955078125e-07,
        -1.9073486328125e-06
      ]
    },
    {
      "children": [
        31
      ],
      "name": "Bip01 R Foot",
      "rotation": [
        0.06932741403579712,
        0.03842362016439438,
        0.09007490426301956,
        0.9927758574485779
      ],
      "scale": [
        1.0,
        -2.0930452038214753e-08,
        6.653824158320276e-10
      ],
      "translation": [
        40.13832092285156,
        0.0,
        0.0
      ]
    },
    {
      "name": "Bip01 R Toe0",
      "rotation": [
        1.5700922994638892e-16,
        1.5700922994638892e-16,
        0.7071067094802856,
        0.7071067690849304
      ],
      "scale": [
        1.0,
        1.7763568394002505e-15,
        -3.223900041478473e-16
      ],
      "translation": [
        13.162713050842285,
        12.053354263305664,
        0.0
      ]
    },
    {
      "children": [
        33
      ],
      "name": "Bip01 R UpperArm",
      "rotation": [
        -0.04123334586620331,
        -0.11716548353433609,
        0.00960231851786375,
        0.9922095537185669
      ],
      "scale": [
        1.0000001192092896,
        -6.730946910948887e-10,
        1.7866723212023317e-08
      ],
      "translation": [
        11.362142562866211,
        -4.76837158203125e-07,
        -1.52587890625e-05
      ]
    },
    {
      "children": [
        34
      ],
      "name": "Bip01 R ForeArm",
      "rotation": [
        6.410615371876816e-10,
        2.444753714452171e-15,
        -0.043017107993364334,
        0.9990743398666382
      ],
      "scale": [
        1.0000001192092896,
        0.0,
        -2.9747166507831935e-08
      ],
      "translation": [
        24.08300018310547,
        -2.384185791015625e-07,
        0.0
      ]
    },
    {
      "children": [
        35,
        38,
        41,
        69
      ],
      "name": "Bip01 R Hand",
      "rotation": [
        0.7058847546577454,
        0.036477863788604736,
        -0.036448825150728226,
        0.7064471244812012
      ],
      "scale": [
        1.0,
        7.194338458305083e-09,
        -4.697594313540776e-09
      ],
      "translation": [
        24.082996368408203,
        4.76837158203125e-07,
        0.0
      ]
    },
    {
      "children": [
        36
      ],
      "name": "Bip01 R Finger2",
      "rotation": [
        0.08983667939901352,
        0.004974718671292067,
        0.055557481944561005,
        0.9943932890892029
      ],
      "scale": [
        0.9999998211860657,
        1.6825504189910134e-07,
        1.1205313654727433e-07
      ],
      "translation": [
        8.273906707763672,
        -0.6917953491210938,
        -1.2059063911437988
      ]
    },
    {
      "children": [
        37
      ],
      "name": "Bip01 R Finger21",
      "rotation": [
        -7.3865327188116225e-09,
        2.2396993728391993e-16,
        0.1308388113975525,
        0.9914036393165588
      ],
      "scale": [
        1.0,
        -2.6637678729457548e-08,
        1.9328902922666202e-09
      ],
      "translation": [
        3.085590362548828,
        7.62939453125e-06,
        0.0
      ]
    },
    {
      "name": "Bip01 R Finger22",
      "rotation": [
        -2.7184416939718403e-09,
        4.874123327169855e-10,
        0.1308387815952301,
        0.9914036393165588
      ],
      "scale": [
        1.0000001192092896,
        -1.3318844693799292e-08,
        1.6578962203084302e-08
      ],
      "translation": [
        3.0855979919433594,
        0.0,
        0.0
      ]
    },
    {
      "children": [
        39
      ],
      "name": "Bip01 R Finger1",
      "rotation": [
        0.00319846672937274,
        -0.06787998974323273,
        0.041126448661088943,
        0.9968403577804565
      ],
      "scale": [
        1.0000001192092896,
        2.6887548187914945e-07,
        -1.1320297943484547e-07
      ],
      "translation": [
        8.23690414428711,
        -0.86138916015625,
        2.45908260345459
      ]
    },
    {
      "children": [
        40
      ],
      "name": "Bip01 R Finger11",
      "rotation": [
        -1.7415754394178862e-09,
        4.4081422956310234e-09,
        0.1164020225405693,
        0.9932022094726563
      ],
      "scale": [
        0.9999999403953552,
        5.798942481760605e-08,
        1.7112178340994433e-09
      ],
      "translation": [
        3.0103683471679688,
        0.0,
        2.86102294921875e-06
      ]
    },
    {
      "name": "Bip01 R Finger12",
      "rotation": [
        -2.774974694474963e-09,
        -1.1425122181663028e-08,
        0.1164020299911499,
        0.9932021498680115
      ],
      "scale": [
        0.9999999403953552,
        1.378187519662788e-08,
        3.028554906858716e-10
      ],
      "translation": [
        3.010387420654297,
        0.0,
        -4.76837158203125e-06
      ]
    },
    {
      "children": [
        42
      ],
      "name": "Bip01 R Finger0",
      "rotation": [
        -0.6828780770301819,
        -0.25692251324653625,
        -0.1345289945602417,
        0.6705000996589661
      ],
      "scale": [
        1.0000003576278687,
        1.7935022356141417e-07,
        4.017627759367315e-07
      ],
      "translation": [
        0.5431480407714844,
        0.00775146484375,
        2.5511600971221924
      ]
    },
    {
      "children": [
        43
      ],
      "name": "Bip01 R Finger01",
      "rotation": [
        -9.134459411086482e-09,
        0.0,
        0.1164020448923111,
        0.9932021498680115
      ],
      "scale": [
        0.9999998211860657,
        1.5212835435818306e-08,
        -2.7675779890046215e-08
      ],
      "translation": [
        3.7950172424316406,
        1.9073486328125e-06,
        -7.62939453125e-06
      ]
    },
    {
      "name": "Bip01 R Finger02",
      "rotation": [
        5.3767617025357595e-09,
        -7.94197063669344e-09,
        0.1164020225405693,
        0.9932022094726563
      ],
      "scale": [
        1.0,
        -1.664380455679293e-08,
        4.257694641296439e-08
      ],
      "translation": [
        3.795013427734375,
        0.0,
        0.0
      ]
    },
    {
      "children": [
        45
      ],
      "name": "Bip01 Head",
      "rotation": [
        -1.5619374948983022e-07,
        3.534527692750089e-08,
        0.00976831465959549,
        0.9999522566795349
      ],
      "scale": [
        1.000000238418579,
        -1.6108998579511535e-07,
        -9.256437749627366e-08
      ],
      "translation": [
        8.948715209960938,
        -1.9073486328125e-06,
        0.0
      ]
    },
    {
      "children": [
        46
      ],
      "name": "Bip01 Ponytail1",
      "rotation": [
        1.9190846828331942e-12,
        -2.7727053293347126e-06,
        0.999677300453186,
        -0.0254015251994133
      ],
      "scale": [
        1.0,
        -3.026339845391135e-09,
        -6.196426157551935e-14
      ],
      "translation": [
        16.320892333984375,
        -17.09018325805664,
        0.031389594078063965
      ]
    },
    {
      "children": [
        47
      ],
      "name": "Bip01 Ponytail11",
      "rotation": [
        2.259137159028174e-13,
        3.766511156300112e-07,
        -0.1357986032962799,
        0.9907364845275879
      ],
      "scale": [
        1.0,
        7.634667095572645e-14,
        1.8100413068334806e-14
      ],
      "translation": [
        12.657058715820313,
        -0.00971221923828125,
        -2.6542693376541138e-08
      ]
    },
    {
      "children": [
        48
      ],
      "name": "Bip01 Ponytail12",
      "rotation": [
        -1.1420756647253366e-13,
        1.0159087793226718e-07,
        -0.03662780299782753,
        0.9993289709091187
      ],
      "scale": [
        0.9999999403953552,
        1.2963006223998264e-09,
        5.415502183655054e-15
      ],
      "translation": [
        12.65899658203125,
        -0.010051727294921875,
        -2.8405338525772095e-08
      ]
    },
    {
      "children": [
        49
      ],
      "name": "Bip01 Ponytail13",
      "rotation": [
        1.1447846793785632e-13,
        -4.4103988017241136e-08,
        0.0159013532102108,
        0.9998735785484314
      ],
      "scale": [
        1.0,
        -1.236894022560179e-16,
        -2.4168696015867963e-14
      ],
      "translation": [
        12.660064697265625,
        -0.010076522827148438,
        -2.7474015951156616e-08
      ]
    },
    {
      "name": "Bip01 Ponytail14",
      "rotation": [
        8.884569876606535e-16,
        -6.945332842178686e-08,
        0.025040853768587112,
        0.9996864199638367
      ],
      "scale": [
        0.9999998807907104,
        1.472904020971555e-09,
        3.34754976288789e-14
      ],
      "translation": [
        12.660255432128906,
        -0.010067939758300781,
        -2.8405338525772095e-08
      ]
    },
    {
      "children": [
        51
      ],
      "name": "Bip01 L Thigh",
      "rotation": [
        -0.0017526159062981606,
        0.9994144439697266,
        0.01285424642264843,
        -0.03166180104017258
      ],
      "scale": [
        1.0,
        1.381310732462282e-09,
        -3.813707571964642e-09
      ],
      "translation": [
        -9.237846374511719,
        -0.15049970149993896,
        8.019189834594727
      ]
    },
    {
      "children": [
        52
      ],
      "name": "Bip01 L Calf",
      "rotation": [
        1.4934366243668507e-10,
        -8.716592031499104e-11,
        -0.09983333200216293,
        0.9950041770935059
      ],
      "scale": [
        0.9999999403953552,
        4.013304556227123e-19,
        7.306938165640986e-09
      ],
      "translation": [
        40.13832473754883,
        1.1920928955078125e-07,
        9.5367431640625e-07
      ]
    },
    {
      "children": [
        53
      ],
      "name": "Bip01 L Foot",
      "rotation": [
        -0.06932742148637772,
        -0.038423530757427216,
        0.09007491171360016,
        0.9927758574485779
      ],
      "scale": [
        1.0,
        -1.0743733902529584e-08,
        -2.4792043973320688e-09
      ],
      "translation": [
        40.13832092285156,
        0.0,
        -9.5367431640625e-07
      ]
    },
    {
      "name": "Bip01 L Toe0",
      "rotation": [
        2.0247593968337495e-31,
        0.0,
        0.7071067094802856,
        0.7071067690849304
      ],
      "scale": [
        1.0,
        1.7763568394002505e-15,
        3.223949804664124e-16
      ],
      "translation": [
        13.162713050842285,
        12.05335521697998,
        0.0
      ]
    },
    {
      "children": [
        55
      ],
      "name": "Bip01 L UpperArm",
      "rotation": [
        0.0412314273416996,
        0.11807678639888763,
        0.009625349193811417,
        0.9921014308929443
      ],
      "scale": [
        1.0,
        -2.570555546199671e-09,
        7.175751903787386e-08
      ],
      "translation": [
        11.362140655517578,
        1.430511474609375e-06,
        0.0
      ]
    },
    {
      "children": [
        56
      ],
      "name": "Bip01 L ForeArm",
      "rotation": [
        -6.409479058611112e-10,
        2.444753714452171e-15,
        -0.043017104268074036,
        0.9990743398666382
      ],
      "scale": [
        1.0000001192092896,
        2.2997146409409197e-09,
        2.9747187824114008e-08
      ],
      "translation": [
        24.08300018310547,
        0.0,
        0.0
      ]
    },
    {
      "children": [
        57,
        60,
        63,
        70
      ],
      "name": "Bip01 L Hand",
      "rotation": [
        -0.7058847546577454,
        -0.036477863788604736,
        -0.03644883632659912,
        0.7064471244812012
      ],
      "scale": [
        1.0,
        -7.634824328306422e-09,
        -1.0802878591675835e-09
      ],
      "translation": [
        24.082996368408203,
        0.0,
        0.0
      ]
    },
    {
      "children": [
        58
      ],
      "name": "Bip01 L Finger2",
      "rotation": [
        -0.08983667939901352,
        -0.004974718671292067,
        0.0555574931204319,
        0.9943932890892029
      ],
      "scale": [
        0.9999998807907104,
        1.3771941098639218e-07,
        -1.2401669380324165e-07
      ],
      "translation": [
        8.273902893066406,
        -0.691802978515625,
        1.2059063911437988
      ]
    },
    {
      "children": [
        59
      ],
      "name": "Bip01 L Finger21",
      "rotation": [
        1.1810917577292912e-08,
        -2.3340454013975886e-09,
        0.1308387964963913,
        0.9914036393165588
      ],
      "scale": [
        1.0000001192092896,
        1.3318842917442453e-08,
        7.182544781159095e-09
      ],
      "translation": [
        3.0855979919433594,
        -7.62939453125e-06,
        0.0
      ]
    },
    {
      "name": "Bip01 L Finger22",
      "rotation": [
        4.874123327169855e-10,
        -2.7184416939718403e-09,
        0.1308387815952301,
        0.9914036393165588
      ],
      "scale": [
        1.0000001192092896,
        1.5463118785419283e-08,
        9.383470889190448e-09
      ],
      "translation": [
        3.0855979919433594,
        0.0,
        0.0
      ]
    },
    {
      "children": [
        61
      ],
      "name": "Bip01 L Finger1",
      "rotation": [
        -0.003198464633896947,
        0.06787997484207153,
        0.04112643003463745,
        0.9968403577804565
      ],
      "scale": [
        1.0000001192092896,
        2.685777928945754e-07,
        1.1088844331652581e-07
      ],
      "translation": [
        8.236907958984375,
        -0.8613967895507813,
        -2.459083080291748
      ]
    },
    {
      "children": [
        62
      ],
      "name": "Bip01 L Finger11",
      "rotation": [
        -7.616748121108685e-09,
        -5.98358118608644e-09,
        0.1164020374417305,
        0.9932021498680115
      ],
      "scale": [
        1.0,
        4.206110659765727e-08,
        -2.6620203819049948e-09
      ],
      "translation": [
        3.0103721618652344,
        0.0,
        0.0
      ]
    },
    {
      "name": "Bip01 L Finger12",
      "rotation": [
        5.607678765784385e-09,
        7.588548678327811e-10,
        0.1164020299911499,
        0.9932021498680115
      ],
      "scale": [
        0.9999998211860657,
        2.8994712408803025e-08,
        -1.4699256034589325e-08
      ],
      "translation": [
        3.0103797912597656,
        7.62939453125e-06,
        1.9073486328125e-06
      ]
    },
    {
      "children": [
        64
      ],
      "name": "Bip01 L Finger0",
      "rotation": [
        0.6828780174255371,
        0.25692248344421387,
        -0.1345289945602417,
        0.6705000996589661
      ],
      "scale": [
        1.0000004768371582,
        1.4185344809902745e-07,
        -3.4762231848617375e-07
      ],
      "translation": [
        0.5431480407714844,
        0.00775146484375,
        -2.551161050796509
      ]
    },
    {
      "children": [
        65
      ],
      "name": "Bip01 L Finger01",
      "rotation": [
        1.1178218366043137e-16,
        -1.5667129815710723e-08,
        0.1164020448923111,
        0.9932021498680115
      ],
      "scale": [
        0.9999999403953552,
        -7.154796755060033e-10,
        -1.3189285219539215e-09
      ],
      "translation": [
        3.7950096130371094,
        0.0,
        1.52587890625e-05
      ]
    },
    {
      "name": "Bip01 L Finger02",
      "rotation": [
        4.682687571033739e-09,
        2.2850244363326055e-08,
        0.1164020225405693,
        0.9932022094726563
      ],
      "scale": [
        1.0,
        -1.378187430844946e-08,
        -1.53049661832938e-08
      ],
      "translation": [
        3.7950172424316406,
        -1.9073486328125e-06,
        -7.62939453125e-06
      ]
    },
    {
      "children": [
        67
      ],
      "name": "B_01",
      "rotation": [
        -0.0004497610207181424,
        9.234496246790513e-05,
        0.9794315099716187,
        -0.2017764002084732
      ],
      "scale": [
        1.000000238418579,
        4.31459952210389e-08,
        1.9697314890265716e-09
      ],
      "translation": [
        5.919456481933594,
        -6.957294464111328,
        -0.00042866915464401245
      ]
    },
    {
      "children": [
        68
      ],
      "name": "B_02",
      "rotation": [
        -6.19673761156664e-15,
        -7.208691764708954e-17,
        -0.0811627060174942,
        0.9967008829116821
      ],
      "scale": [
        1.0000001192092896,
        -4.582014767606779e-09,
        -1.1495864456290768e-15
      ],
      "translation": [
        16.875198364257813,
        -0.000308990478515625,
        1.6370904631912708e-11
      ]
    },
    {
      "name": "B_03",
      "rotation": [
        -1.891819356334909e-13,
        -1.229238824444756e-12,
        3.3527612686157227e-08,
        1.0
      ],
      "scale": [
        1.0000001192092896,
        7.4505766001209395e-09,
        4.618527782440651e-12
      ],
      "translation": [
        23.14419174194336,
        1.1444091796875e-05,
        1.6367084754165262e-07
      ]
    },
    {
      "name": "equip_right",
      "rotation": [
        0.054207224398851395,
        -0.05080500990152359,
        -0.0375845804810524,
        0.996527910232544
      ],
      "scale": [
        0.9999999403953552,
        1.1223397677895264e-07,
        1.2214929512310846e-08
      ],
      "translation": [
        2.4170150756835938,
        -2.9430770874023438,
        -0.077728271484375
      ]
    },
    {
      "name": "equip_left",
      "rotation": [
        -0.07769598811864853,
        0.01335032470524311,
        0.026783457025885582,
        0.9965278506278992
      ],
      "scale": [
        0.9999999403953552,
        9.090599206729166e-08,
        -9.574146986324195e-08
      ],
      "translation": [
        -0.5002784729003906,
        -1.132965087890625,
        0.2617073059082031
      ]
    }
  ],
  "scene": 0,
  "scenes": [
    {
      "nodes": [
        0
      ]
    }
  ],
  "skins": [
    {
      "inverseBindMatrices": 8,
      "joints": [
        3,
        4,
        5,
        6,
        7,
        8,
        9,
        10,
        11,
        12,
        13,
        14,
        15,
        16,
        17,
        18,
        19,
        20,
        21,
        22,
        23,
        24,
        25,
        26,
        27,
        28,
        29,
        30,
        31,
        32,
        33,
        34,
        35,
        36,
        37,
        38,
        39,
        40,
        41,
        42,
        43,
        44,
        45,
        46,
        47,
        48,
        49,
        50,
        51,
        52,
        53,
        54,
        55,
        56,
        57,
        58,
        59,
        60,
        61,
        62,
        63,
        64,
        65,
        66,
        67,
        68,
        69,
        70
      ],
      "skeleton": 3
    }
  ]
}
