{
  "accessors": [
    {
      "bufferView": 0,
      "componentType": 5126,
      "count": 143,
      "max": [
        161.26600646972656,
        161.065673828125,
        158.517333984375
      ],
      "min": [
        -9.075821876525879,
        -10.332450866699219,
        -10.10906982421875
      ],
      "type": "VEC3"
    },
    {
      "bufferView": 1,
      "componentType": 5126,
      "count": 143,
      "type": "VEC3"
    },
    {
      "bufferView": 2,
      "componentType": 5126,
      "count": 143,
      "type": "VEC2"
    },
    {
      "bufferView": 3,
      "componentType": 5123,
      "count": 762,
      "type": "SCALAR"
    },
    {
      "bufferView": 4,
      "componentType": 5126,
      "count": 1868,
      "max": [
        161.26600646972656,
        161.065673828125,
        158.517333984375
      ],
      "min": [
        -65.5675048828125,
        -67.06634521484375,
        -64.44094848632813
      ],
      "type": "VEC3"
    },
    {
      "bufferView": 5,
      "componentType": 5126,
      "count": 1868,
      "type": "VEC3"
    },
    {
      "bufferView": 6,
      "componentType": 5126,
      "count": 1868,
      "type": "VEC2"
    },
    {
      "bufferView": 7,
      "componentType": 5123,
      "count": 7893,
      "type": "SCALAR"
    },
    {
      "bufferView": 8,
      "componentType": 5126,
      "count": 68,
      "type": "MAT4"
    }
  ],
  "asset": {
    "generator": "gr2togltf (ANKA2 Project)",
    "version": "2.0"
  },
  "bufferViews": [
    {
      "buffer": 0,
      "byteLength": 1716,
      "target": 34962
    },
    {
      "buffer": 0,
      "byteLength": 1716,
      "byteOffset": 1716,
      "target": 34962
    },
    {
      "buffer": 0,
      "byteLength": 1144,
      "byteOffset": 3432,
      "target": 34962
    },
    {
      "buffer": 0,
      "byteLength": 1524,
      "byteOffset": 4576,
      "target": 34963
    },
    {
      "buffer": 0,
      "byteLength": 22416,
      "byteOffset": 6100,
      "target": 34962
    },
    {
      "buffer": 0,
      "byteLength": 22416,
      "byteOffset": 28516,
      "target": 34962
    },
    {
      "buffer": 0,
      "byteLength": 14944,
      "byteOffset": 50932,
      "target": 34962
    },
    {
      "buffer": 0,
      "byteLength": 15786,
      "byteOffset": 65876,
      "target": 34963
    },
    {
      "buffer": 0,
      "byteLength": 4352,
      "byteOffset": 81662
    }
  ],
  "buffers": [
    {
      "byteLength": 86014,
      "uri": "data:application/octet-stream;base64,"
    }
  ],
  "materials": [
    {
      "name": "default",
      "pbrMetallicRoughness": {
        "baseColorFactor": [
          0.8,
          0.8,
          0.8,
          1.0
        ],
        "metallicFactor": 0.0,
        "roughnessFactor": 0.8
      }
    }
  ],
  "meshes": [
    {
      "name": "assassin_face_skin",
      "primitives": [
        {
          "attributes": {
            "NORMAL": 1,
            "POSITION": 0,
            "TEXCOORD_0": 2
          },
          "indices": 3,
          "material": 0,
          "mode": 4
        }
      ]
    },
    {
      "name": "assassin_christmas_2016",
      "primitives": [
        {
          "attributes": {
            "NORMAL": 5,
            "POSITION": 4,
            "TEXCOORD_0": 6
          },
          "indices": 7,
          "material": 0,
          "mode": 4
        }
      ]
    }
  ],
  "nodes": [
    {
      "children": [
        1,
        2,
        3
      ]
    },
    {
      "mesh": 0,
      "name": "assassin_face_skin",
      "skin": 0
    },
    {
      "mesh": 1,
      "name": "assassin_christmas_2016",
      "skin": 0
    },
    {
      "children": [
        4
      ],
      "name": "Bip01",
      "rotation": [
        0.0,
        0.0,
        0.0,
        0.9999999403953552
      ],
      "scale": [
        0.9999997615814209,
        -5.117093408073606e-14,
        0.0
      ],
      "translation": [
        0.0,
        1.862645149230957e-09,
        0.0
      ]
    },
    {
      "children": [
        5
      ],
      "name": "Bip01 Pelvis",
      "rotation": [
        -0.4999993145465851,
        -0.5,
        -0.5,
        0.5000006556510925
      ],
      "scale": [
        1.0,
        6.755036055564761e-20,
        -2.6671148450016795e-18
      ],
      "translation": [
        -0.43055400252342224,
        -0.013546000234782696,
        0.0
      ]
    },
    {
      "children": [
        6,
        9,
        12,
        15,
        28,
        50,
        66
      ],
      "name": "Bip01 Spine",
      "rotation": [
        2.198588617829955e-06,
        0.0004582926048897207,
        -0.008512725122272968,
        0.999963641166687
      ],
      "scale": [
        1.0000001192092896,
        1.6053682827532612e-09,
        4.014363841342572e-11
      ],
      "translation": [
        9.231704711914063,
        -0.006681759841740131,
        1.2808945029973984e-05
      ]
    },
    {
      "children": [
        7
      ],
      "name": "R_01",
      "rotation": [
        0.20674894750118256,
        0.6929649114608765,
        -0.6817431449890137,
        0.11081858724355698
      ],
      "scale": [
        0.9999995827674866,
        1.896333579054499e-08,
        1.5088970073406927e-08
      ],
      "translation": [
        3.7016830444335938,
        0.06956100463867188,
        -10.318808555603027
      ]
    },
    {
      "children": [
        8
      ],
      "name": "R_02",
      "rotation": [
        1.398045984535301e-10,
        2.605866100680032e-08,
        -0.03752851113677025,
        0.9992955327033997
      ],
      "scale": [
        1.0000001192092896,
        1.4474013099174954e-09,
        -7.513540012382691e-09
      ],
      "translation": [
        19.448837280273438,
        3.814697265625e-06,
        0.0
      ]
    },
    {
      "name": "R_03",
      "rotation": [
        9.313225746154785e-10,
        -1.3877787807814457e-17,
        -7.450580596923828e-09,
        1.0
      ],
      "scale": [
        1.0,
        1.4901161193847656e-08,
        0.0
      ],
      "translation": [
        16.96139144897461,
        -3.814697265625e-06,
        0.0
      ]
    },
    {
      "children": [
        10
      ],
      "name": "L_01",
      "rotation": [
        0.15459129214286804,
        0.6731683611869812,
        0.7197554707527161,
        -0.06998542696237564
      ],
      "scale": [
        0.9999997019767761,
        -8.392371242393892e-09,
        -1.5473298731194518e-07
      ],
      "translation": [
        3.6826858520507813,
        0.06954574584960938,
        10.391956329345703
      ]
    },
    {
      "children": [
        11
      ],
      "name": "L_02",
      "rotation": [
        -2.6521944640478523e-09,
        1.87181825594962e-08,
        -0.03752851113677025,
        0.9992955327033997
      ],
      "scale": [
        1.0000001192092896,
        1.6306589856185383e-08,
        -7.492556797217276e-09
      ],
      "translation": [
        19.448829650878906,
        3.814697265625e-06,
        0.0
      ]
    },
    {
      "name": "L_03",
      "rotation": [
        1.862645149230957e-09,
        3.725290298461914e-09,
        -3.725290298461914e-09,
        1.0
      ],
      "scale": [
        1.0,
        -7.450580152834618e-09,
        7.450580152834618e-09
      ],
      "translation": [
        16.961395263671875,
        -3.814697265625e-06,
        9.5367431640625e-07
      ]
    },
    {
      "children": [
        13
      ],
      "name": "F_01",
      "rotation": [
        -0.03180382400751114,
        -0.023337258026003838,
        0.9891654253005981,
        0.14140601456165314
      ],
      "scale": [
        0.999999463558197,
        8.835642262283727e-08,
        -5.768269861761155e-09
      ],
      "translation": [
        2.9761428833007813,
        9.141229629516602,
        -0.00312042236328125
      ]
    },
    {
      "children": [
        14
      ],
      "name": "F_02",
      "rotation": [
        -1.3965986145336728e-09,
        -1.0935631740427443e-11,
        0.023484067991375923,
        0.9997242093086243
      ],
      "scale": [
        1.0,
        1.4884724564012686e-08,
        4.373043593908221e-11
      ],
      "translation": [
        19.174598693847656,
        7.62939453125e-06,
        4.76837158203125e-07
      ]
    },
    {
      "name": "F_03",
      "rotation": [
        -1.396983417834008e-09,
        1.6653345369377348e-16,
        -9.685754776000977e-08,
        1.0
      ],
      "scale": [
        0.9999999403953552,
        1.2407709188295415e-24,
        -7.450580596923828e-09
      ],
      "translation": [
        15.030853271484375,
        -7.62939453125e-06,
        0.0
      ]
    },
    {
      "children": [
        16
      ],
      "name": "Bip01 Spine1",
      "rotation": [
        6.106153451791718e-14,
        -5.820778081755407e-09,
        0.002098001539707184,
        0.9999977946281433
      ],
      "scale": [
        0.9999999403953552,
        -2.5010071791342625e-10,
        5.820904175335428e-11
      ],
      "translation": [
        8.398162841796875,
        -0.010102152824401855,
        -3.725290298461914e-08
      ]
    },
    {
      "children": [
        17,
        21,
        23
      ],
      "name": "Bip01 Spine2",
      "rotation": [
        1.768535838608809e-12,
        9.605651030142326e-08,
        -0.034630581736564636,
        0.9994001984596252
      ],
      "scale": [
        0.9999999403953552,
        4.125812136379636e-09,
        2.903745126292545e-11
      ],
      "translation": [
        12.686164855957031,
        -0.010077834129333496,
        -2.9802322387695313e-08
      ]
    },
    {
      "children": [
        18,
        25,
        44
      ],
      "name": "Bip01 Neck",
      "rotation": [
        -3.473228571237996e-05,
        -0.0004580979875754565,
        0.13992176949977875,
        0.9901624321937561
      ],
      "scale": [
        0.9999998807907104,
        1.4035805406820145e-07,
        9.231764863670833e-08
      ],
      "translation": [
        14.334159851074219,
        -3.4407691955566406,
        -3.1515955924987793e-06
      ]
    },
    {
      "children": [
        19,
        32
      ],
      "name": "Bip01 R Clavicle",
      "rotation": [
        -0.5792272090911865,
        0.08922632783651352,
        0.8029547333717346,
        0.10861966758966446
      ],
      "scale": [
        1.0000004768371582,
        -4.281842080899878e-08,
        -1.6650460565870162e-07
      ],
      "translation": [
        -1.0674591064453125,
        1.0830707550048828,
        -2.8085217475891113
      ]
    },
    {
      "children": [
        20
      ],
      "name": "Bone09",
      "rotation": [
        -0.6614199280738831,
        0.20630472898483276,
        0.15911227464675903,
        0.7033102512359619
      ],
      "scale": [
        0.9999998807907104,
        -8.335677392778962e-08,
        4.759416327715371e-08
      ],
      "translation": [
        5.5560150146484375,
        -0.32675695419311523,
        -0.83038330078125
      ]
    },
    {
      "name": "Bone10",
      "rotation": [
        0.0,
        -1.3969838619232178e-09,
        0.0,
        1.0
      ],
      "scale": [
        1.0,
        0.0,
        9.313222415485711e-10
      ],
      "translation": [
        25.6839599609375,
        0.0,
        0.0
      ]
    },
    {
      "children": [
        22
      ],
      "name": "Bone07",
      "rotation": [
        -0.1429418921470642,
        0.06352420896291733,
        0.7351759076118469,
        0.6595821976661682
      ],
      "scale": [
        0.999999463558197,
        -3.4933118620017467e-09,
        1.5905557759765543e-08
      ],
      "translation": [
        4.191444396972656,
        3.242025375366211,
        -4.378602027893066
      ]
    },
    {
      "name": "Bone08",
      "rotation": [
        2.210819971537603e-09,
        8.342391666360527e-09,
        -1.1054099857688016e-09,
        1.0
      ],
      "scale": [
        0.4212566018104553,
        4.656613428188905e-10,
        5.77711034566164e-09
      ],
      "translation": [
        9.775653839111328,
        -7.62939453125e-06,
        1.9073486328125e-06
      ]
    },
    {
      "children": [
        24
      ],
      "name": "Bone05",
      "rotation": [
        0.09463177621364594,
        -0.12054207921028137,
        0.7428731322288513,
        0.6516547799110413
      ],
      "scale": [
        1.000000238418579,
        3.927875802389735e-09,
        -4.059521074850636e-08
      ],
      "translation": [
        4.191459655761719,
        3.2420148849487305,
        4.7433013916015625
      ]
    },
    {
      "name": "Bone06",
      "rotation": [
        1.1938428201574425e-07,
        8.936549988902698e-08,
        1.1054102078134065e-09,
        1.0
      ],
      "scale": [
        0.42125657200813293,
        -9.313311233327681e-10,
        2.3574271423854043e-09
      ],
      "translation": [
        9.77564811706543,
        0.0,
        2.384185791015625e-07
      ]
    },
    {
      "children": [
        26,
        54
      ],
      "name": "Bip01 L Clavicle",
      "rotation": [
        0.5799686312675476,
        -0.08928919583559036,
        0.8024171590805054,
        0.1085839793086052
      ],
      "scale": [
        1.0000005960464478,
        1.349321454569008e-08,
        1.2659322479180446e-08
      ],
      "translation": [
        -1.06243896484375,
        1.0819473266601563,
        2.8108510971069336
      ]
    },
    {
      "children": [
        27
      ],
      "name": "Bone01",
      "rotation": [
        0.669756293296814,
        -0.1308906525373459,
        0.14558130502700806,
        0.7163101434707642
      ],
      "scale": [
        0.9999998807907104,
        1.598736920627175e-09,
        2.0889983076699536e-08
      ],
      "translation": [
        5.556034088134766,
        -0.32680368423461914,
        0.830352783203125
      ]
    },
    {
      "name": "Bone02",
      "rotation": [
        -3.725290298461914e-09,
        -6.984919309616089e-10,
        3.469446951953614e-18,
        1.0
      ],
      "scale": [
        1.0,
        0.0,
        -3.259629011154175e-09
      ],
      "translation": [
        25.683958053588867,
        0.0,
        0.0
      ]
    },
    {
      "children": [
        29
      ],
      "name": "Bip01 R Thigh",
      "rotation": [
        -0.0017400559736415744,
        0.9993849992752075,
        -0.01285378634929657,
        0.03257935866713524
      ],
      "scale": [
        0.9999998807907104,
        2.261805187586674e-10,
        -4.2177821235611646e-09
      ],
      "translation": [
        -9.223106384277344,
        -0.15046703815460205,
        -8.036136627197266
      ]
    },
    {
      "children": [
        30
      ],
      "name": "Bip01 R Calf",
      "rotation": [
        1.2230828572157293e-09,
        -5.613770781565108e-09,
        -0.09983307868242264,
        0.9950041770935059
      ],
      "scale": [
        1.0000001192092896,
        2.9208264251678884e-08,
        1.1424497792233979e-08
      ],
      "translation": [
        40.138328552246094,
        -1.1920928955078125e-07,
        -9.5367431640625e-07
      ]
    },
    {
      "children": [
        31
      ],
      "name": "Bip01 R Foot",
      "rotation": [
        0.06932743638753891,
        0.0384235605597496,
        0.09007395803928375,
        0.9927759170532227
      ],
      "scale": [
        1.0,
        -1.6995354457094436e-08,
        6.336069446888359e-09
      ],
      "translation": [
        40.13832092285156,
        0.0,
        0.0
      ]
    },
    {
      "name": "Bip01 R Toe0",
      "rotation": [
        1.5700922994638892e-16,
        1.5700922994638892e-16,
        0.7071067094802856,
        0.7071067690849304
      ],
      "scale": [
        1.0,
        1.7763568394002505e-15,
        -3.223900041478473e-16
      ],
      "translation": [
        13.162713050842285,
        12.05335521697998,
        0.0
      ]
    },
    {
      "children": [
        33
      ],
      "name": "Bip01 R UpperArm",
      "rotation": [
        -0.041233353316783905,
        -0.1171654611825943,
        0.009602311998605728,
        0.9922095537185669
      ],
      "scale": [
        1.0000001192092896,
        1.8450418970417104e-10,
        3.068220877366912e-08
      ],
      "translation": [
        11.362138748168945,
        -4.76837158203125e-07,
        -1.52587890625e-05
      ]
    },
    {
      "children": [
        34
      ],
      "name": "Bip01 R ForeArm",
      "rotation": [
        -9.304604864368571e-10,
        4.0062807238339104e-11,
        -0.043017107993364334,
        0.9990743398666382
      ],
      "scale": [
        0.9999999403953552,
        -7.423006209705818e-09,
        0.0
      ],
      "translation": [
        24.082996368408203,
        -2.384185791015625e-07,
        -7.62939453125e-06
      ]
    },
    {
      "children": [
        35,
        38,
        41,
        69
      ],
      "name": "Bip01 R Hand",
      "rotation": [
        0.7058847546577454,
        0.03647787496447563,
        -0.03644883260130882,
        0.7064471244812012
      ],
      "scale": [
        1.0000001192092896,
        1.053040765697233e-09,
        -5.6332591924501685e-09
      ],
      "translation": [
        24.082996368408203,
        4.76837158203125e-07,
        0.0
      ]
    },
    {
      "children": [
        36
      ],
      "name": "Bip01 R Finger2",
      "rotation": [
        0.08983668684959412,
        0.004974719602614641,
        0.0555574968457222,
        0.9943932890892029
      ],
      "scale": [
        0.9999998807907104,
        1.6810149361390359e-07,
        1.1592965876161543e-07
      ],
      "translation": [
        8.273906707763672,
        -0.691802978515625,
        -1.2059063911437988
      ]
    },
    {
      "children": [
        37
      ],
      "name": "Bip01 R Finger21",
      "rotation": [
        -7.3865327188116225e-09,
        -9.74824665433971e-10,
        0.1308388113975525,
        0.9914036393165588
      ],
      "scale": [
        1.0,
        -8.420160213518102e-08,
        0.0
      ],
      "translation": [
        3.085590362548828,
        7.62939453125e-06,
        -1.9073486328125e-06
      ]
    },
    {
      "name": "Bip01 R Finger22",
      "rotation": [
        5.539900094220229e-09,
        -7.63023955130393e-09,
        0.1308387815952301,
        0.9914036393165588
      ],
      "scale": [
        1.0000001192092896,
        -1.5463118785419283e-08,
        -1.6778002320805285e-09
      ],
      "translation": [
        3.0856056213378906,
        -1.52587890625e-05,
        0.0
      ]
    },
    {
      "children": [
        39
      ],
      "name": "Bip01 R Finger1",
      "rotation": [
        0.003198465099558234,
        -0.06787998229265213,
        0.04112643748521805,
        0.9968403577804565
      ],
      "scale": [
        1.0000001192092896,
        2.5888630261761136e-07,
        -1.0433506503204626e-07
      ],
      "translation": [
        8.23690414428711,
        -0.8613967895507813,
        2.459083080291748
      ]
    },
    {
      "children": [
        40
      ],
      "name": "Bip01 R Finger11",
      "rotation": [
        -1.3079441973928851e-09,
        7.081759623162043e-10,
        0.11640200018882751,
        0.9932022094726563
      ],
      "scale": [
        1.0000001192092896,
        2.8279227848315713e-08,
        9.161799319201691e-09
      ],
      "translation": [
        3.0103759765625,
        -7.62939453125e-06,
        -9.5367431640625e-07
      ]
    },
    {
      "name": "Bip01 R Finger12",
      "rotation": [
        -1.1995361370864543e-09,
        5.333134378560089e-09,
        0.1164020299911499,
        0.9932021498680115
      ],
      "scale": [
        0.9999998211860657,
        8.101030386729519e-17,
        1.0873015376944295e-08
      ],
      "translation": [
        3.010387420654297,
        0.0,
        -1.9073486328125e-06
      ]
    },
    {
      "children": [
        42
      ],
      "name": "Bip01 R Finger0",
      "rotation": [
        -0.6828780174255371,
        -0.2569224536418915,
        -0.1345290243625641,
        0.6705000996589661
      ],
      "scale": [
        1.0000003576278687,
        1.960484183882727e-07,
        4.276380707324279e-07
      ],
      "translation": [
        0.54315185546875,
        0.00774383544921875,
        2.5511605739593506
      ]
    },
    {
      "children": [
        43
      ],
      "name": "Bip01 R Finger01",
      "rotation": [
        3.699966555359424e-09,
        -2.1681567652365175e-09,
        0.1164020448923111,
        0.9932021498680115
      ],
      "scale": [
        0.9999999403953552,
        4.2776587605430905e-08,
        -5.168204975092294e-09
      ],
      "translation": [
        3.7950172424316406,
        0.0,
        0.0
      ]
    },
    {
      "name": "Bip01 R Finger02",
      "rotation": [
        8.267194928635035e-09,
        7.399932666629638e-09,
        0.1164020299911499,
        0.9932021498680115
      ],
      "scale": [
        0.9999999403953552,
        -7.154811743070866e-10,
        1.2774621360733818e-08
      ],
      "translation": [
        3.795013427734375,
        -3.814697265625e-06,
        0.0
      ]
    },
    {
      "children": [
        45
      ],
      "name": "Bip01 Head",
      "rotation": [
        -1.5618837778674788e-07,
        3.534408676841849e-08,
        0.009768333286046982,
        0.9999522566795349
      ],
      "scale": [
        1.000000238418579,
        -1.697035685310766e-07,
        -9.256362432097376e-08
      ],
      "translation": [
        8.94873046875,
        -3.814697265625e-06,
        0.0
      ]
    },
    {
      "children": [
        46
      ],
      "name": "Bip01 Ponytail1",
      "rotation": [
        1.7982533864757677e-12,
        -2.7727053293347126e-06,
        0.999677300453186,
        -0.025401536375284195
      ],
      "scale": [
        1.000000238418579,
        -1.3859410286087837e-09,
        -8.563652174539693e-14
      ],
      "translation": [
        16.320877075195313,
        -17.090187072753906,
        0.031389594078063965
      ]
    },
    {
      "children": [
        47
      ],
      "name": "Bip01 Ponytail11",
      "rotation": [
        3.5859321934094465e-15,
        3.7665108720830176e-07,
        -0.1357986181974411,
        0.9907364845275879
      ],
      "scale": [
        1.0000001192092896,
        1.2664719051258544e-08,
        5.337546776903925e-15
      ],
      "translation": [
        12.65704345703125,
        -0.00970458984375,
        -2.7008354663848877e-08
      ]
    },
    {
      "children": [
        48
      ],
      "name": "Bip01 Ponytail12",
      "rotation": [
        1.153185348861524e-13,
        1.0159092056483132e-07,
        -0.036627814173698425,
        0.9993289709091187
      ],
      "scale": [
        0.9999999403953552,
        1.2963032869350855e-09,
        -4.015940751060827e-15
      ],
      "translation": [
        12.65899658203125,
        -0.010051727294921875,
        -2.8405338525772095e-08
      ]
    },
    {
      "children": [
        49
      ],
      "name": "Bip01 Ponytail13",
      "rotation": [
        -1.6655451040344663e-16,
        -4.410403775523264e-08,
        0.015901366248726845,
        0.9998735785484314
      ],
      "scale": [
        1.0,
        -1.2368907138377288e-16,
        4.8197462188849516e-15
      ],
      "translation": [
        12.660079956054688,
        -0.010073661804199219,
        -2.7474015951156616e-08
      ]
    },
    {
      "name": "Bip01 Ponytail14",
      "rotation": [
        -1.120566381113304e-13,
        -6.945343500319723e-08,
        0.02504085749387741,
        0.9996864199638367
      ],
      "scale": [
        0.9999998807907104,
        1.4729031327931352e-09,
        2.7813599066581728e-14
      ],
      "translation": [
        12.660255432128906,
        -0.010067939758300781,
        -2.8405338525772095e-08
      ]
    },
    {
      "children": [
        51
      ],
      "name": "Bip01 L Thigh",
      "rotation": [
        -0.0017519218381494284,
        0.9994144439697266,
        0.012854225002229214,
        -0.03166181594133377
      ],
      "scale": [
        0.9999998807907104,
        -9.474127038444635e-11,
        1.9623003222335456e-09
      ],
      "translation": [
        -9.237846374511719,
        -0.15049982070922852,
        8.019189834594727
      ]
    },
    {
      "children": [
        52
      ],
      "name": "Bip01 L Calf",
      "rotation": [
        -4.552397087770332e-12,
        7.561539838718545e-09,
        -0.09983307868242264,
        0.9950041770935059
      ],
      "scale": [
        1.0000001192092896,
        2.9208264251678884e-08,
        -7.30512050850507e-09
      ],
      "translation": [
        40.13832473754883,
        0.0,
        0.0
      ]
    },
    {
      "children": [
        53
      ],
      "name": "Bip01 L Foot",
      "rotation": [
        -0.06932743638753891,
        -0.03842347860336304,
        0.09007395803928375,
        0.9927759170532227
      ],
      "scale": [
        1.0,
        2.11388906379284e-09,
        -1.633186030858269e-09
      ],
      "translation": [
        40.138328552246094,
        0.0,
        -9.5367431640625e-07
      ]
    },
    {
      "name": "Bip01 L Toe0",
      "rotation": [
        2.0247593968337495e-31,
        0.0,
        0.7071067094802856,
        0.7071067690849304
      ],
      "scale": [
        1.0,
        1.7763568394002505e-15,
        3.223949804664124e-16
      ],
      "translation": [
        13.162713050842285,
        12.053356170654297,
        0.0
      ]
    },
    {
      "children": [
        55
      ],
      "name": "Bip01 L UpperArm",
      "rotation": [
        0.0412314347922802,
        0.11807677149772644,
        0.009625347331166267,
        0.9921014308929443
      ],
      "scale": [
        1.0000001192092896,
        -1.5232525241160033e-09,
        7.198594431656602e-08
      ],
      "translation": [
        11.362140655517578,
        4.76837158203125e-07,
        0.0
      ]
    },
    {
      "children": [
        56
      ],
      "name": "Bip01 L ForeArm",
      "rotation": [
        5.679080117412458e-14,
        2.4452392760891846e-15,
        -0.043017104268074036,
        0.9990743398666382
      ],
      "scale": [
        1.0000001192092896,
        2.2997146409409197e-09,
        9.771903169183537e-15
      ],
      "translation": [
        24.08300018310547,
        0.0,
        7.62939453125e-06
      ]
    },
    {
      "children": [
        57,
        60,
        63,
        70
      ],
      "name": "Bip01 L Hand",
      "rotation": [
        -0.7058847546577454,
        -0.03647787496447563,
        -0.03644883260130882,
        0.7064471244812012
      ],
      "scale": [
        1.0000001192092896,
        -2.8590621425905738e-08,
        5.4532152127251265e-09
      ],
      "translation": [
        24.083003997802734,
        4.76837158203125e-07,
        -7.62939453125e-06
      ]
    },
    {
      "children": [
        58
      ],
      "name": "Bip01 L Finger2",
      "rotation": [
        -0.08983667939901352,
        -0.0049747200682759285,
        0.0555575005710125,
        0.9943932890892029
      ],
      "scale": [
        0.9999998807907104,
        1.521237891211058e-07,
        -1.2045163089169364e-07
      ],
      "translation": [
        8.273910522460938,
        -0.691802978515625,
        1.205906867980957
      ]
    },
    {
      "children": [
        59
      ],
      "name": "Bip01 L Finger21",
      "rotation": [
        3.936972525764304e-09,
        1.3592207359636177e-09,
        0.1308387964963913,
        0.9914036393165588
      ],
      "scale": [
        1.0000001192092896,
        1.5463120561776122e-08,
        1.6648553646803066e-09
      ],
      "translation": [
        3.085590362548828,
        1.52587890625e-05,
        0.0
      ]
    },
    {
      "name": "Bip01 L Finger22",
      "rotation": [
        -6.899120830183847e-09,
        -1.0104974634828068e-08,
        0.1308388113975525,
        0.9914036393165588
      ],
      "scale": [
        0.9999999403953552,
        2.8781961702861736e-08,
        1.1571450464487043e-08
      ],
      "translation": [
        3.085601806640625,
        -1.52587890625e-05,
        -1.9073486328125e-06
      ]
    },
    {
      "children": [
        61
      ],
      "name": "Bip01 L Finger1",
      "rotation": [
        -0.0031984676606953144,
        0.06787997484207153,
        0.041126422584056854,
        0.9968403577804565
      ],
      "scale": [
        1.0000001192092896,
        2.5910557610586693e-07,
        9.510370801990575e-08
      ],
      "translation": [
        8.23691177368164,
        -0.8613967895507813,
        -2.459083080291748
      ]
    },
    {
      "children": [
        62
      ],
      "name": "Bip01 L Finger11",
      "rotation": [
        -4.682687126944529e-09,
        -8.050379918245198e-09,
        0.1164020225405693,
        0.9932022094726563
      ],
      "scale": [
        0.9999999403953552,
        7.034033444597299e-08,
        1.4901160305669237e-08
      ],
      "translation": [
        3.010364532470703,
        7.62939453125e-06,
        -2.86102294921875e-06
      ]
    },
    {
      "name": "Bip01 L Finger12",
      "rotation": [
        -2.066798732158759e-09,
        1.6331676011560603e-09,
        0.1164020299911499,
        0.9932021498680115
      ],
      "scale": [
        0.9999999403953552,
        2.8994712408803025e-08,
        -3.725290076417309e-09
      ],
      "translation": [
        3.0103836059570313,
        7.62939453125e-06,
        2.86102294921875e-06
      ]
    },
    {
      "children": [
        64
      ],
      "name": "Bip01 L Finger0",
      "rotation": [
        0.6828780770301819,
        0.2569224536418915,
        -0.13452903926372528,
        0.6705000996589661
      ],
      "scale": [
        1.0000004768371582,
        1.9257930716776173e-07,
        -3.7349761328187014e-07
      ],
      "translation": [
        0.54315185546875,
        0.00775146484375,
        -2.5511605739593506
      ]
    },
    {
      "children": [
        65
      ],
      "name": "Bip01 L Finger01",
      "rotation": [
        -8.267195816813455e-09,
        7.399933110718848e-09,
        0.11640206724405289,
        0.9932021498680115
      ],
      "scale": [
        1.0,
        1.3066403070638444e-08,
        -1.3178427238358381e-08
      ],
      "translation": [
        3.795013427734375,
        1.9073486328125e-06,
        0.0
      ]
    },
    {
      "name": "Bip01 L Finger02",
      "rotation": [
        -1.1178217042554157e-16,
        1.4799864445080857e-08,
        0.1164020225405693,
        0.9932022094726563
      ],
      "scale": [
        0.9999999403953552,
        -1.378187430844946e-08,
        -4.0380498944614374e-10
      ],
      "translation": [
        3.795013427734375,
        -1.9073486328125e-06,
        0.0
      ]
    },
    {
      "children": [
        67
      ],
      "name": "B_01",
      "rotation": [
        -0.03689800947904587,
        -0.013953437097370625,
        0.9908522367477417,
        -0.1290571242570877
      ],
      "scale": [
        1.0000001192092896,
        7.58167004732968e-08,
        1.0204686873294122e-08
      ],
      "translation": [
        5.919464111328125,
        -6.957294464111328,
        -0.0004286766052246094
      ]
    },
    {
      "children": [
        68
      ],
      "name": "B_02",
      "rotation": [
        -7.313336047864993e-10,
        -1.8092569664673874e-09,
        -0.08116272836923599,
        0.9967008829116821
      ],
      "scale": [
        1.0000001192092896,
        -4.582020096677297e-09,
        3.725290298461914e-09
      ],
      "translation": [
        16.875198364257813,
        -0.00030517578125,
        4.76837158203125e-07
      ]
    },
    {
      "name": "B_03",
      "rotation": [
        -5.820764981123716e-10,
        1.8626450382086546e-09,
        3.166496753692627e-08,
        1.0
      ],
      "scale": [
        1.0000001192092896,
        2.60770320892334e-08,
        3.725290742551124e-09
      ],
      "translation": [
        23.144195556640625,
        1.33514404296875e-05,
        0.0
      ]
    },
    {
      "name": "equip_right",
      "rotation": [
        0.05420722812414169,
        -0.05080500617623329,
        -0.037584561854600906,
        0.996527910232544
      ],
      "scale": [
        1.0,
        1.1355146511959902e-07,
        7.533153656424929e-09
      ],
      "translation": [
        2.4170188903808594,
        -2.943084716796875,
        -0.077728271484375
      ]
    },
    {
      "name": "equip_left",
      "rotation": [
        -0.07769598066806793,
        0.013350320048630238,
        0.026783442124724388,
        0.9965278506278992
      ],
      "scale": [
        0.9999999403953552,
        9.230356567968556e-08,
        -9.753708951620865e-08
      ],
      "translation": [
        -0.500274658203125,
        -1.132965087890625,
        0.26170778274536133
      ]
    }
  ],
  "scene": 0,
  "scenes": [
    {
      "nodes": [
        0
      ]
    }
  ],
  "skins": [
    {
      "inverseBindMatrices": 8,
      "joints": [
        3,
        4,
        5,
        6,
        7,
        8,
        9,
        10,
        11,
        12,
        13,
        14,
        15,
        16,
        17,
        18,
        19,
        20,
        21,
        22,
        23,
        24,
        25,
        26,
        27,
        28,
        29,
        30,
        31,
        32,
        33,
        34,
        35,
        36,
        37,
        38,
        39,
        40,
        41,
        42,
        43,
        44,
        45,
        46,
        47,
        48,
        49,
        50,
        51,
        52,
        53,
        54,
        55,
        56,
        57,
        58,
        59,
        60,
        61,
        62,
        63,
        64,
        65,
        66,
        67,
        68,
        69,
        70
      ],
      "skeleton": 3
    }
  ]
}
