{
  "accessors": [
    {
      "bufferView": 0,
      "componentType": 5126,
      "count": 43,
      "max": [
        159.94178771972656,
        155.4806365966797,
        153.9893798828125
      ],
      "min": [
        -10.332444190979004,
        -8.901737213134766,
        -7.884702682495117
      ],
      "type": "VEC3"
    },
    {
      "bufferView": 1,
      "componentType": 5126,
      "count": 43,
      "type": "VEC3"
    },
    {
      "bufferView": 2,
      "componentType": 5126,
      "count": 43,
      "type": "VEC2"
    },
    {
      "bufferView": 3,
      "componentType": 5123,
      "count": 204,
      "type": "SCALAR"
    },
    {
      "bufferView": 4,
      "componentType": 5126,
      "count": 493,
      "max": [
        159.94178771972656,
        155.4806365966797,
        153.9893798828125
      ],
      "min": [
        -63.42349624633789,
        -66.59242248535156,
        -67.18576049804688
      ],
      "type": "VEC3"
    },
    {
      "bufferView": 5,
      "componentType": 5126,
      "count": 493,
      "type": "VEC3"
    },
    {
      "bufferView": 6,
      "componentType": 5126,
      "count": 493,
      "type": "VEC2"
    },
    {
      "bufferView": 7,
      "componentType": 5123,
      "count": 1719,
      "type": "SCALAR"
    },
    {
      "bufferView": 8,
      "componentType": 5126,
      "count": 22,
      "max": [
        159.94178771972656,
        155.4806365966797,
        153.9893798828125
      ],
      "min": [
        -63.42349624633789,
        -66.59242248535156,
        -67.18576049804688
      ],
      "type": "VEC3"
    },
    {
      "bufferView": 9,
      "componentType": 5126,
      "count": 22,
      "type": "VEC3"
    },
    {
      "bufferView": 10,
      "componentType": 5126,
      "count": 22,
      "type": "VEC2"
    },
    {
      "bufferView": 11,
      "componentType": 5123,
      "count": 30,
      "type": "SCALAR"
    },
    {
      "bufferView": 12,
      "componentType": 5126,
      "count": 89,
      "max": [
        159.94178771972656,
        155.4806365966797,
        153.9893798828125
      ],
      "min": [
        -63.42349624633789,
        -66.59242248535156,
        -67.18576049804688
      ],
      "type": "VEC3"
    },
    {
      "bufferView": 13,
      "componentType": 5126,
      "count": 89,
      "type": "VEC3"
    },
    {
      "bufferView": 14,
      "componentType": 5126,
      "count": 89,
      "type": "VEC2"
    },
    {
      "bufferView": 15,
      "componentType": 5123,
      "count": 123,
      "type": "SCALAR"
    },
    {
      "bufferView": 16,
      "componentType": 5126,
      "count": 78,
      "type": "MAT4"
    }
  ],
  "asset": {
    "generator": "gr2togltf (ANKA2 Project)",
    "version": "2.0"
  },
  "bufferViews": [
    {
      "buffer": 0,
      "byteLength": 516,
      "target": 34962
    },
    {
      "buffer": 0,
      "byteLength": 516,
      "byteOffset": 516,
      "target": 34962
    },
    {
      "buffer": 0,
      "byteLength": 344,
      "byteOffset": 1032,
      "target": 34962
    },
    {
      "buffer": 0,
      "byteLength": 408,
      "byteOffset": 1376,
      "target": 34963
    },
    {
      "buffer": 0,
      "byteLength": 5916,
      "byteOffset": 1784,
      "target": 34962
    },
    {
      "buffer": 0,
      "byteLength": 5916,
      "byteOffset": 7700,
      "target": 34962
    },
    {
      "buffer": 0,
      "byteLength": 3944,
      "byteOffset": 13616,
      "target": 34962
    },
    {
      "buffer": 0,
      "byteLength": 3438,
      "byteOffset": 17560,
      "target": 34963
    },
    {
      "buffer": 0,
      "byteLength": 264,
      "byteOffset": 20998,
      "target": 34962
    },
    {
      "buffer": 0,
      "byteLength": 264,
      "byteOffset": 21262,
      "target": 34962
    },
    {
      "buffer": 0,
      "byteLength": 176,
      "byteOffset": 21526,
      "target": 34962
    },
    {
      "buffer": 0,
      "byteLength": 60,
      "byteOffset": 21702,
      "target": 34963
    },
    {
      "buffer": 0,
      "byteLength": 1068,
      "byteOffset": 21762,
      "target": 34962
    },
    {
      "buffer": 0,
      "byteLength": 1068,
      "byteOffset": 22830,
      "target": 34962
    },
    {
      "buffer": 0,
      "byteLength": 712,
      "byteOffset": 23898,
      "target": 34962
    },
    {
      "buffer": 0,
      "byteLength": 246,
      "byteOffset": 24610,
      "target": 34963
    },
    {
      "buffer": 0,
      "byteLength": 4992,
      "byteOffset": 24856
    }
  ],
  "buffers": [
    {
      "byteLength": 29848,
      "uri": "data:application/octet-stream;base64,"
    }
  ],
  "materials": [
    {
      "name": "default",
      "pbrMetallicRoughness": {
        "baseColorFactor": [
          0.8,
          0.8,
          0.8,
          1.0
        ],
        "metallicFactor": 0.0,
        "roughnessFactor": 0.8
      }
    }
  ],
  "meshes": [
    {
      "name": "assassin_face",
      "primitives": [
        {
          "attributes": {
            "NORMAL": 1,
            "POSITION": 0,
            "TEXCOORD_0": 2
          },
          "indices": 3,
          "material": 0,
          "mode": 4
        }
      ]
    },
    {
      "name": "assassin_4-1",
      "primitives": [
        {
          "attributes": {
            "NORMAL": 5,
            "POSITION": 4,
            "TEXCOORD_0": 6
          },
          "indices": 7,
          "material": 0,
          "mode": 4
        }
      ]
    },
    {
      "name": "assassin_4-1",
      "primitives": [
        {
          "attributes": {
            "NORMAL": 9,
            "POSITION": 8,
            "TEXCOORD_0": 10
          },
          "indices": 11,
          "material": 0,
          "mode": 4
        }
      ]
    },
    {
      "name": "assassin_4-1",
      "primitives": [
        {
          "attributes": {
            "NORMAL": 13,
            "POSITION": 12,
            "TEXCOORD_0": 14
          },
          "indices": 15,
          "material": 0,
          "mode": 4
        }
      ]
    }
  ],
  "nodes": [
    {
      "children": [
        1,
        2,
        3,
        4,
        5
      ]
    },
    {
      "mesh": 0,
      "name": "assassin_face",
      "skin": 0
    },
    {
      "mesh": 1,
      "name": "assassin_4-1",
      "skin": 0
    },
    {
      "mesh": 2,
      "name": "assassin_4-1",
      "skin": 0
    },
    {
      "mesh": 3,
      "name": "assassin_4-1",
      "skin": 0
    },
    {
      "children": [
        6
      ],
      "name": "Bip01",
      "rotation": [
        0.0,
        0.0,
        0.0,
        0.9999999403953552
      ],
      "scale": [
        0.9999997019767761,
        -1.3359980981751673e-13,
        0.0
      ],
      "translation": [
        0.0,
        0.0,
        0.0
      ]
    },
    {
      "children": [
        7
      ],
      "name": "Bip01 Pelvis",
      "rotation": [
        -0.4999993145465851,
        -0.5,
        -0.5,
        0.5000006556510925
      ],
      "scale": [
        1.0,
        5.1399245505243465e-20,
        8.265705963650741e-14
      ],
      "translation": [
        -0.4305066168308258,
        -0.013543065637350082,
        0.0
      ]
    },
    {
      "children": [
        8,
        21,
        24,
        27,
        30,
        33,
        38
      ],
      "name": "Bip01 Spine",
      "rotation": [
        2.1996318082528887e-06,
        0.0004584029084071517,
        -0.008512724190950394,
        0.999963641166687
      ],
      "scale": [
        1.0000001192092896,
        2.620687000742805e-09,
        7.201942514578619e-11
      ],
      "translation": [
        9.231704711914063,
        -0.006681768223643303,
        1.28098763525486e-05
      ]
    },
    {
      "children": [
        9
      ],
      "name": "Bip01 Spine1",
      "rotation": [
        -2.578975715709225e-13,
        -5.80622616652704e-09,
        0.002097893273457885,
        0.9999977946281433
      ],
      "scale": [
        1.0,
        -1.3969715384476444e-09,
        -2.910163256208964e-11
      ],
      "translation": [
        8.398162841796875,
        -0.010102152824401855,
        -2.9802322387695313e-08
      ]
    },
    {
      "children": [
        10,
        43,
        45
      ],
      "name": "Bip01 Spine2",
      "rotation": [
        7.607370137475977e-13,
        9.602740647096653e-08,
        -0.03463052213191986,
        0.9994001984596252
      ],
      "scale": [
        1.0000001192092896,
        6.613813940958835e-09,
        8.723841787849906e-11
      ],
      "translation": [
        12.686180114746094,
        -0.010077595710754395,
        -1.4901161193847656e-08
      ]
    },
    {
      "children": [
        11,
        16,
        75
      ],
      "name": "Bip01 Neck",
      "rotation": [
        -3.490439121378586e-05,
        -0.00045816987403668463,
        0.13992169499397278,
        0.9901624917984009
      ],
      "scale": [
        1.0000001192092896,
        -3.287555117026386e-08,
        -8.438249404774112e-11
      ],
      "translation": [
        14.334159851074219,
        -3.440770149230957,
        -3.427267074584961e-06
      ]
    },
    {
      "children": [
        12,
        47
      ],
      "name": "Bip01 R Clavicle",
      "rotation": [
        -0.579227089881897,
        0.08922633528709412,
        0.8029547929763794,
        0.1086195707321167
      ],
      "scale": [
        1.000000238418579,
        2.1691448637284338e-10,
        -7.680083768946133e-08
      ],
      "translation": [
        -1.067474365234375,
        1.0830707550048828,
        -2.8085203170776367
      ]
    },
    {
      "children": [
        13
      ],
      "name": "Bip01 R UpperArm",
      "rotation": [
        -0.04123350605368614,
        -0.11716581135988235,
        0.009602152742445469,
        0.9922095537185669
      ],
      "scale": [
        1.0000001192092896,
        -3.2679559058834684e-09,
        4.7144315118430313e-08
      ],
      "translation": [
        11.362136840820313,
        0.0,
        0.0
      ]
    },
    {
      "children": [
        14
      ],
      "name": "Bip01 R ForeArm",
      "rotation": [
        2.8950894459534027e-10,
        -2.981479951813526e-08,
        -0.04301733896136284,
        0.9990743398666382
      ],
      "scale": [
        0.9999998807907104,
        2.8236331051090247e-09,
        2.985748182027237e-08
      ],
      "translation": [
        24.082996368408203,
        -2.384185791015625e-07,
        0.0
      ]
    },
    {
      "children": [
        15,
        49,
        53,
        57
      ],
      "name": "Bip01 R Hand",
      "rotation": [
        0.7058848142623901,
        0.03647807613015175,
        -0.03644903749227524,
        0.7064470648765564
      ],
      "scale": [
        1.0,
        -3.473360976613549e-08,
        6.37664365754631e-10
      ],
      "translation": [
        24.082996368408203,
        0.0,
        -7.62939453125e-06
      ]
    },
    {
      "name": "equip_right",
      "rotation": [
        8.84756872210346e-08,
        5.555339157581329e-07,
        -1.7136332530753862e-07,
        1.0
      ],
      "scale": [
        1.0000001192092896,
        1.0430805019723266e-07,
        -1.9557523600610693e-08
      ],
      "translation": [
        2.4170188903808594,
        -2.9430618286132813,
        -0.07772064208984375
      ]
    },
    {
      "children": [
        17,
        61
      ],
      "name": "Bip01 L Clavicle",
      "rotation": [
        0.5799686908721924,
        -0.08928948640823364,
        0.8024171590805054,
        0.10858369618654251
      ],
      "scale": [
        1.000000238418579,
        -1.6739278407840175e-08,
        8.267929274552444e-08
      ],
      "translation": [
        -1.06243896484375,
        1.081949234008789,
        2.8108510971069336
      ]
    },
    {
      "children": [
        18
      ],
      "name": "Bip01 L UpperArm",
      "rotation": [
        0.04123158007860184,
        0.11807733029127121,
        0.009625189006328583,
        0.9921013116836548
      ],
      "scale": [
        1.0,
        4.032624012495489e-09,
        -1.7106218663798245e-08
      ],
      "translation": [
        11.362140655517578,
        0.0,
        0.0
      ]
    },
    {
      "children": [
        19
      ],
      "name": "Bip01 L ForeArm",
      "rotation": [
        6.410084130159532e-10,
        2.9774735565979427e-08,
        -0.04301733896136284,
        0.9990743398666382
      ],
      "scale": [
        1.0,
        5.123319546385119e-09,
        -2.9857467609417654e-08
      ],
      "translation": [
        24.082992553710938,
        -2.384185791015625e-07,
        -7.62939453125e-06
      ]
    },
    {
      "children": [
        20,
        63,
        67,
        71
      ],
      "name": "Bip01 L Hand",
      "rotation": [
        -0.7058848142623901,
        -0.03647807240486145,
        -0.03644903376698494,
        0.7064470648765564
      ],
      "scale": [
        1.0,
        -3.812783422318944e-09,
        -1.5644369133482883e-09
      ],
      "translation": [
        24.08300018310547,
        0.0,
        7.62939453125e-06
      ]
    },
    {
      "name": "equip_left",
      "rotation": [
        -5.215408691583434e-07,
        -1.116656108024472e-06,
        1.7881399116959074e-07,
        1.0
      ],
      "scale": [
        1.0000001192092896,
        -2.086175783233557e-07,
        2.421332645496932e-08
      ],
      "translation": [
        -0.5002899169921875,
        -1.1329803466796875,
        0.26169681549072266
      ]
    },
    {
      "children": [
        22
      ],
      "name": "F_01",
      "rotation": [
        0.0018694165628403425,
        0.0023936647921800613,
        0.9894720911979675,
        0.1446920931339264
      ],
      "scale": [
        1.0,
        3.577706186863594e-11,
        1.3267215770440544e-08
      ],
      "translation": [
        2.9761505126953125,
        9.14123249053955,
        -0.0031204894185066223
      ]
    },
    {
      "children": [
        23
      ],
      "name": "F_02",
      "rotation": [
        1.1638320862594753e-10,
        -1.3669528833512579e-12,
        0.02348407171666622,
        0.9997242093086243
      ],
      "scale": [
        1.0000001192092896,
        -1.8448673699822393e-09,
        -8.199455871216177e-12
      ],
      "translation": [
        19.174598693847656,
        3.814697265625e-06,
        3.5762786865234375e-07
      ]
    },
    {
      "name": "F_03",
      "rotation": [
        -2.9103816578945896e-11,
        1.1641530794914701e-10,
        -8.568167686462402e-08,
        1.0
      ],
      "scale": [
        0.9999999403953552,
        -7.4505703828720016e-09,
        -2.3283067140944524e-10
      ],
      "translation": [
        15.030853271484375,
        -7.62939453125e-06,
        2.384185791015625e-07
      ]
    },
    {
      "children": [
        25
      ],
      "name": "L_01",
      "rotation": [
        0.15857547521591187,
        0.6876791715621948,
        0.687770664691925,
        -0.17006662487983704
      ],
      "scale": [
        0.9999998807907104,
        -6.835174559682855e-08,
        4.8144105591063635e-08
      ],
      "translation": [
        3.6826705932617188,
        0.0695488452911377,
        10.391952514648438
      ]
    },
    {
      "children": [
        26
      ],
      "name": "L_02",
      "rotation": [
        1.1641530794914701e-10,
        1.9208412638249683e-08,
        -0.00038762384792789817,
        0.9999999403953552
      ],
      "scale": [
        1.000000238418579,
        3.5997819308741796e-11,
        -1.3780290927453698e-13
      ],
      "translation": [
        19.448837280273438,
        7.62939453125e-06,
        -7.748603820800781e-07
      ]
    },
    {
      "name": "L_03",
      "rotation": [
        -8.731149137020111e-11,
        -2.9103830456733704e-11,
        5.929230630780102e-21,
        1.0
      ],
      "scale": [
        1.0,
        2.019482954400818e-28,
        -5.820766091346741e-11
      ],
      "translation": [
        16.961395263671875,
        0.0,
        0.0
      ]
    },
    {
      "children": [
        28
      ],
      "name": "B_01",
      "rotation": [
        -0.0001911932195071131,
        -0.0009108032681979239,
        0.9792234897613525,
        -0.2027818262577057
      ],
      "scale": [
        0.9999998211860657,
        1.2300847629376221e-07,
        4.9317854688979423e-08
      ],
      "translation": [
        5.919464111328125,
        -6.9572954177856445,
        -0.00042735785245895386
      ]
    },
    {
      "children": [
        29
      ],
      "name": "B_02",
      "rotation": [
        -8.699438332248136e-14,
        4.3496649560154435e-14,
        -0.0029891037847846746,
        0.9999955296516418
      ],
      "scale": [
        1.000000238418579,
        -1.5038571277159463e-08,
        5.829414728708571e-11
      ],
      "translation": [
        16.875205993652344,
        -0.00030517578125,
        0.0
      ]
    },
    {
      "name": "B_03",
      "rotation": [
        2.9103828722010228e-11,
        2.9103830456733704e-11,
        1.4901158529312397e-08,
        1.0
      ],
      "scale": [
        1.000000238418579,
        -1.7763727212680115e-15,
        1.1275701766668634e-17
      ],
      "translation": [
        23.144195556640625,
        1.1444091796875e-05,
        1.7136335372924805e-07
      ]
    },
    {
      "children": [
        31
      ],
      "name": "R_01",
      "rotation": [
        0.15164627134799957,
        0.6913433074951172,
        -0.6890617609024048,
        0.15569765865802765
      ],
      "scale": [
        0.9999995827674866,
        6.735833579796235e-08,
        6.147138975620692e-08
      ],
      "translation": [
        3.7016830444335938,
        0.0695641040802002,
        -10.318811416625977
      ]
    },
    {
      "children": [
        32
      ],
      "name": "R_02",
      "rotation": [
        5.819228987569147e-10,
        1.9100450998621454e-08,
        -0.022987885400652885,
        0.9997357130050659
      ],
      "scale": [
        1.0000001192092896,
        1.4109181378785252e-08,
        3.33308450284342e-11
      ],
      "translation": [
        19.448837280273438,
        3.814697265625e-06,
        -7.152557373046875e-07
      ]
    },
    {
      "name": "R_03",
      "rotation": [
        0.0,
        0.0,
        0.0,
        1.0
      ],
      "scale": [
        1.0,
        0.0,
        -9.313225746154785e-10
      ],
      "translation": [
        16.961395263671875,
        -7.62939453125e-06,
        0.0
      ]
    },
    {
      "children": [
        34
      ],
      "name": "Bip01 R Thigh",
      "rotation": [
        -0.0017406423576176167,
        0.9993849396705627,
        -0.012854010798037052,
        0.032579731196165085
      ],
      "scale": [
        1.0000001192092896,
        7.838239501900546e-10,
        -1.4814341975366574e-09
      ],
      "translation": [
        -9.223114013671875,
        -0.1504669189453125,
        -8.036139488220215
      ]
    },
    {
      "children": [
        35
      ],
      "name": "Bip01 R Calf",
      "rotation": [
        1.880022137967785e-09,
        -2.055273951029335e-09,
        -0.09983320534229279,
        0.9950041770935059
      ],
      "scale": [
        1.0000001192092896,
        2.762541306822186e-09,
        -3.7146354880945864e-09
      ],
      "translation": [
        40.138328552246094,
        1.1920928955078125e-07,
        0.0
      ]
    },
    {
      "children": [
        36
      ],
      "name": "Bip01 R Foot",
      "rotation": [
        0.06932652741670609,
        0.0384238101541996,
        0.09007467329502106,
        0.9927759170532227
      ],
      "scale": [
        0.9999999403953552,
        1.0731435295951997e-08,
        5.7972293632246874e-11
      ],
      "translation": [
        40.13832473754883,
        9.5367431640625e-07,
        -9.5367431640625e-07
      ]
    },
    {
      "children": [
        37
      ],
      "name": "Bip01 R Toe0",
      "rotation": [
        1.8088487152567723e-08,
        1.2820132511137672e-08,
        0.7071067690849304,
        0.7071067690849304
      ],
      "scale": [
        0.9999999403953552,
        -3.227037769152458e-15,
        -7.450578820566989e-09
      ],
      "translation": [
        13.162713050842285,
        12.053354263305664,
        9.5367431640625e-07
      ]
    },
    {
      "name": "Bip01 R Toe0Nub",
      "rotation": [
        -8.88178366760566e-16,
        -3.7252894102834944e-09,
        1.776356733521132e-15,
        1.0
      ],
      "scale": [
        1.0000001192092896,
        3.552713678800501e-15,
        -7.450577932388569e-09
      ],
      "translation": [
        10.604899406433105,
        0.0,
        -9.5367431640625e-07
      ]
    },
    {
      "children": [
        39
      ],
      "name": "Bip01 L Thigh",
      "rotation": [
        -0.0017525114817544818,
        0.9994144439697266,
        0.01285445038229227,
        -0.031661972403526306
      ],
      "scale": [
        1.0000001192092896,
        1.0176403053563376e-09,
        3.0585192156706853e-09
      ],
      "translation": [
        -9.23785400390625,
        -0.15049970149993896,
        8.019186973571777
      ]
    },
    {
      "children": [
        40
      ],
      "name": "Bip01 L Calf",
      "rotation": [
        -8.298672860007628e-10,
        3.81854192710307e-09,
        -0.09983319789171219,
        0.9950041770935059
      ],
      "scale": [
        1.0,
        -9.07904684765981e-09,
        -7.467927609638991e-09
      ],
      "translation": [
        40.13832473754883,
        -1.1920928955078125e-07,
        -9.5367431640625e-07
      ]
    },
    {
      "children": [
        41
      ],
      "name": "Bip01 L Foot",
      "rotation": [
        -0.06932654231786728,
        -0.03842371329665184,
        0.09007466584444046,
        0.9927759170532227
      ],
      "scale": [
        1.0,
        -7.352900510682048e-09,
        -7.305972715698772e-09
      ],
      "translation": [
        40.13832473754883,
        0.0,
        0.0
      ]
    },
    {
      "children": [
        42
      ],
      "name": "Bip01 L Toe0",
      "rotation": [
        -1.5454309831852697e-08,
        -1.5454309831852697e-08,
        0.7071067094802856,
        0.7071067690849304
      ],
      "scale": [
        1.0000001192092896,
        1.7763570511584873e-15,
        -5.933408091396842e-16
      ],
      "translation": [
        13.162713050842285,
        12.05335521697998,
        0.0
      ]
    },
    {
      "name": "Bip01 L Toe0Nub",
      "rotation": [
        1.3322676295501878e-15,
        -1.453142063389794e-16,
        1.776356733521132e-15,
        1.0
      ],
      "scale": [
        1.0000001192092896,
        -2.117582368135751e-22,
        1.5345693787823791e-15
      ],
      "translation": [
        10.604900360107422,
        0.0,
        0.0
      ]
    },
    {
      "children": [
        44
      ],
      "name": "Bone07",
      "rotation": [
        -0.13678458333015442,
        0.09442249685525894,
        0.8003618121147156,
        0.5760167837142944
      ],
      "scale": [
        0.999998927116394,
        6.507866601168644e-08,
        5.28900621077355e-08
      ],
      "translation": [
        6.411918640136719,
        0.6133747100830078,
        -7.427073001861572
      ]
    },
    {
      "name": "Bone08",
      "rotation": [
        -8.153030930501542e-17,
        1.5475738024406382e-08,
        -4.421639498985996e-09,
        1.0
      ],
      "scale": [
        0.4212566316127777,
        -3.725290076417309e-09,
        1.0244550097127103e-08
      ],
      "translation": [
        9.775653839111328,
        -7.62939453125e-06,
        1.9073486328125e-06
      ]
    },
    {
      "children": [
        46
      ],
      "name": "Bone05",
      "rotation": [
        0.11136478185653687,
        -0.07542745769023895,
        0.7880305051803589,
        0.6007633805274963
      ],
      "scale": [
        0.9999999403953552,
        -6.940255303788945e-08,
        4.180988710800193e-08
      ],
      "translation": [
        6.411918640136719,
        0.6133604049682617,
        1.694830060005188
      ]
    },
    {
      "name": "Bone06",
      "rotation": [
        1.7907640881276166e-07,
        8.843282728321356e-08,
        -2.6529816565812325e-08,
        1.0
      ],
      "scale": [
        0.42125654220581055,
        3.7252885221050747e-08,
        3.539024717724715e-08
      ],
      "translation": [
        9.77564811706543,
        0.0,
        0.0
      ]
    },
    {
      "children": [
        48
      ],
      "name": "Bone09",
      "rotation": [
        -0.7098598480224609,
        0.1863296627998352,
        0.17373278737068176,
        0.6566561460494995
      ],
      "scale": [
        0.9999997019767761,
        2.7617584663630623e-08,
        -1.7366749816005722e-08
      ],
      "translation": [
        5.556018829345703,
        -0.32675886154174805,
        -0.8303375244140625
      ]
    },
    {
      "name": "Bone10",
      "rotation": [
        6.505212517925144e-19,
        5.8207657444020455e-11,
        3.725290076417309e-09,
        1.0
      ],
      "scale": [
        1.0000001192092896,
        7.450580596923828e-09,
        2.3283064365386963e-10
      ],
      "translation": [
        25.6839599609375,
        0.0,
        0.0
      ]
    },
    {
      "children": [
        50
      ],
      "name": "Bip01 R Finger2",
      "rotation": [
        0.08983657509088516,
        0.004974632523953915,
        0.0555575005710125,
        0.9943932890892029
      ],
      "scale": [
        1.0000001192092896,
        -3.988501617868678e-08,
        1.609799582524829e-08
      ],
      "translation": [
        8.273906707763672,
        -0.6917953491210938,
        -1.2059063911437988
      ]
    },
    {
      "children": [
        51
      ],
      "name": "Bip01 R Finger21",
      "rotation": [
        -3.2058542487334307e-09,
        4.180678470078192e-09,
        0.13083870708942413,
        0.9914036393165588
      ],
      "scale": [
        0.9999999403953552,
        -2.1442581044084363e-09,
        9.128379829803634e-09
      ],
      "translation": [
        3.0855941772460938,
        1.52587890625e-05,
        -1.9073486328125e-06
      ]
    },
    {
      "children": [
        52
      ],
      "name": "Bip01 R Finger22",
      "rotation": [
        -7.3865327188116225e-09,
        1.1198496864195997e-16,
        0.13083870708942413,
        0.9914036393165588
      ],
      "scale": [
        0.9999999403953552,
        -1.5463111679991925e-08,
        1.9328887379543858e-09
      ],
      "translation": [
        3.0856094360351563,
        -1.52587890625e-05,
        1.9073486328125e-06
      ]
    },
    {
      "name": "Bip01 R Finger2Nub",
      "rotation": [
        -5.551115123125783e-17,
        -3.725290076417309e-09,
        -7.450580596923828e-09,
        1.0
      ],
      "scale": [
        1.0,
        1.4901161193847656e-08,
        -7.450581485102248e-09
      ],
      "translation": [
        3.0855941772460938,
        0.0,
        0.0
      ]
    },
    {
      "children": [
        54
      ],
      "name": "Bip01 R Finger1",
      "rotation": [
        0.0031985866371542215,
        -0.06788016110658646,
        0.04112652689218521,
        0.9968403577804565
      ],
      "scale": [
        1.0,
        -9.962183966649718e-09,
        1.5695651001124133e-08
      ],
      "translation": [
        8.23690414428711,
        -0.8613967895507813,
        2.459083080291748
      ]
    },
    {
      "children": [
        55
      ],
      "name": "Bip01 R Finger11",
      "rotation": [
        -1.0840803255085518e-10,
        -4.913596196587378e-10,
        0.11640219390392303,
        0.9932021498680115
      ],
      "scale": [
        1.0000001192092896,
        1.3781894736553113e-08,
        -9.50800993493317e-10
      ],
      "translation": [
        3.0103607177734375,
        0.0,
        2.86102294921875e-06
      ]
    },
    {
      "children": [
        56
      ],
      "name": "Bip01 R Finger12",
      "rotation": [
        5.9835816301756495e-09,
        -3.049518859654654e-09,
        0.11640219390392303,
        0.9932021498680115
      ],
      "scale": [
        0.9999998807907104,
        -2.8994710632446186e-08,
        7.450580596923828e-09
      ],
      "translation": [
        3.0103836059570313,
        7.62939453125e-06,
        -2.86102294921875e-06
      ]
    },
    {
      "name": "Bip01 R Finger1Nub",
      "rotation": [
        8.381903171539307e-09,
        5.587935447692871e-09,
        7.450580596923828e-09,
        1.0
      ],
      "scale": [
        1.0,
        1.4901161193847656e-08,
        -3.725290298461914e-09
      ],
      "translation": [
        3.0103759765625,
        0.0,
        9.5367431640625e-07
      ]
    },
    {
      "children": [
        58
      ],
      "name": "Bip01 R Finger0",
      "rotation": [
        -0.6828780770301819,
        -0.2569224238395691,
        -0.13452890515327454,
        0.6705000996589661
      ],
      "scale": [
        1.0000001192092896,
        3.5064566361597826e-08,
        2.8926475437174304e-08
      ],
      "translation": [
        0.5431480407714844,
        0.00774383544921875,
        2.551161289215088
      ]
    },
    {
      "children": [
        59
      ],
      "name": "Bip01 R Finger01",
      "rotation": [
        9.134461187443321e-09,
        -1.3065337256534804e-08,
        0.11640222370624542,
        0.9932021498680115
      ],
      "scale": [
        1.0,
        -5.798942126489237e-08,
        3.152505811954143e-08
      ],
      "translation": [
        3.795013427734375,
        -3.814697265625e-06,
        -7.62939453125e-06
      ]
    },
    {
      "children": [
        60
      ],
      "name": "Bip01 R Finger02",
      "rotation": [
        -1.1157627710645102e-08,
        -2.3609102228761003e-08,
        0.11640220135450363,
        0.9932021498680115
      ],
      "scale": [
        0.9999999403953552,
        -2.6848333334328345e-08,
        1.530496795965064e-08
      ],
      "translation": [
        3.795013427734375,
        3.814697265625e-06,
        0.0
      ]
    },
    {
      "name": "Bip01 R Finger0Nub",
      "rotation": [
        -9.313225746154785e-10,
        7.450580596923828e-09,
        0.0,
        1.0
      ],
      "scale": [
        1.0,
        1.862645149230957e-09,
        1.4901161193847656e-08
      ],
      "translation": [
        3.7950172424316406,
        0.0,
        7.62939453125e-06
      ]
    },
    {
      "children": [
        62
      ],
      "name": "Bone01",
      "rotation": [
        0.7034852504730225,
        -0.2139868587255478,
        0.20264047384262085,
        0.6467262506484985
      ],
      "scale": [
        0.9999995827674866,
        5.082514320520204e-08,
        -6.91518380335765e-08
      ],
      "translation": [
        5.556034088134766,
        -0.3268098831176758,
        0.830352783203125
      ]
    },
    {
      "name": "Bone02",
      "rotation": [
        -1.1641532182693481e-10,
        0.0,
        0.0,
        1.0
      ],
      "scale": [
        1.0,
        0.0,
        0.0
      ],
      "translation": [
        25.68395233154297,
        -1.52587890625e-05,
        2.384185791015625e-07
      ]
    },
    {
      "children": [
        64
      ],
      "name": "Bip01 L Finger2",
      "rotation": [
        -0.08983656764030457,
        -0.004974633455276489,
        0.0555574856698513,
        0.9943932890892029
      ],
      "scale": [
        0.9999999403953552,
        -2.3961368000868788e-08,
        -5.01583130585459e-09
      ],
      "translation": [
        8.273910522460938,
        -0.691802978515625,
        1.2059059143066406
      ]
    },
    {
      "children": [
        65
      ],
      "name": "Bip01 L Finger21",
      "rotation": [
        -3.936972525764304e-09,
        -2.334044957308379e-09,
        0.13083870708942413,
        0.9914036393165588
      ],
      "scale": [
        1.0,
        -4.424507693556734e-08,
        -3.5977458789915318e-09
      ],
      "translation": [
        3.085601806640625,
        0.0,
        0.0
      ]
    },
    {
      "children": [
        66
      ],
      "name": "Bip01 L Finger22",
      "rotation": [
        9.74824443389366e-10,
        9.74824443389366e-10,
        0.13083870708942413,
        0.9914036393165588
      ],
      "scale": [
        0.9999999403953552,
        -3.092622335998385e-08,
        1.6578960426727463e-08
      ],
      "translation": [
        3.0856056213378906,
        0.0,
        -1.9073486328125e-06
      ]
    },
    {
      "name": "Bip01 L Finger2Nub",
      "rotation": [
        -1.862645149230957e-09,
        7.450580596923828e-09,
        -1.3877787807814457e-17,
        1.0
      ],
      "scale": [
        1.0,
        5.551115123125783e-17,
        0.0
      ],
      "translation": [
        3.085601806640625,
        -7.62939453125e-06,
        -1.9073486328125e-06
      ]
    },
    {
      "children": [
        68
      ],
      "name": "Bip01 L Finger1",
      "rotation": [
        -0.003198582911863923,
        0.06788016110658646,
        0.04112650081515312,
        0.9968403577804565
      ],
      "scale": [
        1.0,
        -4.172933287804881e-08,
        1.2735140053621308e-08
      ],
      "translation": [
        8.236907958984375,
        -0.8613967895507813,
        -2.4590823650360107
      ]
    },
    {
      "children": [
        69
      ],
      "name": "Bip01 L Finger11",
      "rotation": [
        -2.0667989542033638e-09,
        -5.33313304629246e-09,
        0.11640219390392303,
        0.9932021498680115
      ],
      "scale": [
        1.0,
        4.27766053689993e-08,
        -2.6620186055481554e-09
      ],
      "translation": [
        3.010364532470703,
        -7.62939453125e-06,
        -9.5367431640625e-07
      ]
    },
    {
      "children": [
        70
      ],
      "name": "Bip01 L Finger12",
      "rotation": [
        -4.567230149632451e-09,
        7.833564019676942e-09,
        0.11640222370624542,
        0.9932021498680115
      ],
      "scale": [
        1.0,
        -1.5212812343179394e-08,
        -1.3178426350179961e-08
      ],
      "translation": [
        3.0103912353515625,
        0.0,
        2.86102294921875e-06
      ]
    },
    {
      "name": "Bip01 L Finger1Nub",
      "rotation": [
        -2.7939679458910405e-09,
        5.587935447692871e-09,
        0.0,
        1.0
      ],
      "scale": [
        0.9999999403953552,
        -2.9802320611338473e-08,
        3.7252894102834944e-09
      ],
      "translation": [
        3.0103721618652344,
        0.0,
        -9.5367431640625e-07
      ]
    },
    {
      "children": [
        72
      ],
      "name": "Bip01 L Finger0",
      "rotation": [
        0.6828780770301819,
        0.2569223940372467,
        -0.13452893495559692,
        0.6705000996589661
      ],
      "scale": [
        0.9999999403953552,
        2.1433455899000364e-08,
        -3.670124115728868e-08
      ],
      "translation": [
        0.5431480407714844,
        0.00774383544921875,
        -2.551161050796509
      ]
    },
    {
      "children": [
        73
      ],
      "name": "Bip01 L Finger01",
      "rotation": [
        -4.567230149632451e-09,
        6.966300425403915e-09,
        0.11640220135450363,
        0.9932021498680115
      ],
      "scale": [
        1.0,
        -2.9710170323937746e-08,
        -1.4901161193847656e-08
      ],
      "translation": [
        3.795013427734375,
        -3.814697265625e-06,
        -7.62939453125e-06
      ]
    },
    {
      "children": [
        74
      ],
      "name": "Bip01 L Finger02",
      "rotation": [
        1.0117179982671587e-08,
        7.616748121108685e-09,
        0.11640220135450363,
        0.9932021498680115
      ],
      "scale": [
        1.0,
        7.154594139358039e-10,
        1.2774618696198559e-08
      ],
      "translation": [
        3.7950210571289063,
        3.814697265625e-06,
        0.0
      ]
    },
    {
      "name": "Bip01 L Finger0Nub",
      "rotation": [
        9.313225191043273e-10,
        7.450580596923828e-09,
        -4.6566128730773926e-09,
        1.0
      ],
      "scale": [
        1.0,
        7.450580596923828e-09,
        1.4901161193847656e-08
      ],
      "translation": [
        3.7950172424316406,
        4.76837158203125e-07,
        0.0
      ]
    },
    {
      "children": [
        76,
        82
      ],
      "name": "Bip01 Head",
      "rotation": [
        4.8689267895252186e-11,
        -2.6882776893444316e-08,
        0.00976839940994978,
        0.9999522566795349
      ],
      "scale": [
        1.0,
        1.6529313029423065e-08,
        2.8467441945401184e-11
      ],
      "translation": [
        8.948715209960938,
        0.0,
        1.862645149230957e-09
      ]
    },
    {
      "children": [
        77
      ],
      "name": "Bip01 Ponytail1",
      "rotation": [
        1.9261924954355747e-12,
        -2.7727053293347126e-06,
        0.999677300453186,
        -0.025401543825864792
      ],
      "scale": [
        1.0000001192092896,
        -4.413062359986952e-09,
        -2.2762621323425825e-14
      ],
      "translation": [
        16.320892333984375,
        -17.090187072753906,
        0.03138930723071098
      ]
    },
    {
      "children": [
        78
      ],
      "name": "Bip01 Ponytail11",
      "rotation": [
        -7.171864386818893e-15,
        3.766506608826603e-07,
        -0.13579846918582916,
        0.9907364845275879
      ],
      "scale": [
        1.0000001192092896,
        -1.603840082964325e-08,
        4.901162686961856e-14
      ],
      "translation": [
        12.657028198242188,
        -0.00971221923828125,
        -2.6542693376541138e-08
      ]
    },
    {
      "children": [
        79
      ],
      "name": "Bip01 Ponytail12",
      "rotation": [
        -8.887748367741107e-16,
        1.0159112662222469e-07,
        -0.03662789240479469,
        0.9993289709091187
      ],
      "scale": [
        1.0000001192092896,
        -7.430588144785588e-09,
        -1.9980932937390707e-14
      ],
      "translation": [
        12.658981323242188,
        -0.010051727294921875,
        -2.7939677238464355e-08
      ]
    },
    {
      "children": [
        80
      ],
      "name": "Bip01 Ponytail13",
      "rotation": [
        1.1475606435159408e-13,
        -4.410371090557419e-08,
        0.015901247039437294,
        0.9998735785484314
      ],
      "scale": [
        1.0000001192092896,
        9.34214927639232e-09,
        4.316613730413581e-14
      ],
      "translation": [
        12.660079956054688,
        -0.010073661804199219,
        -2.7939677238464355e-08
      ]
    },
    {
      "children": [
        81
      ],
      "name": "Bip01 Ponytail14",
      "rotation": [
        2.281113394963369e-13,
        -6.945372632571889e-08,
        0.0250410009175539,
        0.9996864199638367
      ],
      "scale": [
        1.0000001192092896,
        -8.177671872999781e-09,
        -3.268604598137895e-14
      ],
      "translation": [
        12.660247802734375,
        -0.010067939758300781,
        -2.7939677238464355e-08
      ]
    },
    {
      "name": "Bip01 Ponytail1Nub",
      "rotation": [
        0.7073882222175598,
        0.7068251967430115,
        9.80225195235107e-07,
        -9.810059964365792e-07
      ],
      "scale": [
        1.0,
        3.6709461859185666e-11,
        -8.242093395586722e-14
      ],
      "translation": [
        12.659751892089844,
        1.9073486328125e-06,
        0.0
      ]
    },
    {
      "name": "Bip01 HeadNub",
      "rotation": [
        5.684341886080802e-14,
        0.0,
        -1.6155873264856266e-27,
        1.0
      ],
      "scale": [
        1.0,
        -2.827277291719112e-27,
        -5.6843415472676226e-14
      ],
      "translation": [
        20.872726440429688,
        0.0,
        0.0
      ]
    }
  ],
  "scene": 0,
  "scenes": [
    {
      "nodes": [
        0
      ]
    }
  ],
  "skins": [
    {
      "inverseBindMatrices": 16,
      "joints": [
        5,
        6,
        7,
        8,
        9,
        10,
        11,
        12,
        13,
        14,
        15,
        16,
        17,
        18,
        19,
        20,
        21,
        22,
        23,
        24,
        25,
        26,
        27,
        28,
        29,
        30,
        31,
        32,
        33,
        34,
        35,
        36,
        37,
        38,
        39,
        40,
        41,
        42,
        43,
        44,
        45,
        46,
        47,
        48,
        49,
        50,
        51,
        52,
        53,
        54,
        55,
        56,
        57,
        58,
        59,
        60,
        61,
        62,
        63,
        64,
        65,
        66,
        67,
        68,
        69,
        70,
        71,
        72,
        73,
        74,
        75,
        76,
        77,
        78,
        79,
        80,
        81,
        82
      ],
      "skeleton": 5
    }
  ]
}
