{
  "accessors": [
    {
      "bufferView": 0,
      "componentType": 5126,
      "count": 143,
      "max": [
        8.979996681213379,
        2.497407913208008,
        161.26902770996094
      ],
      "min": [
        -9.022232055664063,
        -10.332448959350586,
        143.18035888671875
      ],
      "type": "VEC3"
    },
    {
      "bufferView": 1,
      "componentType": 5126,
      "count": 143,
      "type": "VEC3"
    },
    {
      "bufferView": 2,
      "componentType": 5126,
      "count": 143,
      "type": "VEC2"
    },
    {
      "bufferView": 3,
      "componentType": 5123,
      "count": 762,
      "type": "SCALAR"
    },
    {
      "bufferView": 4,
      "componentType": 5126,
      "count": 1891,
      "max": [
        146.31398010253906,
        147.01828002929688,
        161.26902770996094
      ],
      "min": [
        -67.78119659423828,
        -68.16759490966797,
        -68.14539337158203
      ],
      "type": "VEC3"
    },
    {
      "bufferView": 5,
      "componentType": 5126,
      "count": 1891,
      "type": "VEC3"
    },
    {
      "bufferView": 6,
      "componentType": 5126,
      "count": 1891,
      "type": "VEC2"
    },
    {
      "bufferView": 7,
      "componentType": 5123,
      "count": 7833,
      "type": "SCALAR"
    },
    {
      "bufferView": 8,
      "componentType": 5126,
      "count": 60,
      "type": "MAT4"
    }
  ],
  "asset": {
    "generator": "gr2togltf (ANKA2 Project)",
    "version": "2.0"
  },
  "bufferViews": [
    {
      "buffer": 0,
      "byteLength": 1716,
      "target": 34962
    },
    {
      "buffer": 0,
      "byteLength": 1716,
      "byteOffset": 1716,
      "target": 34962
    },
    {
      "buffer": 0,
      "byteLength": 1144,
      "byteOffset": 3432,
      "target": 34962
    },
    {
      "buffer": 0,
      "byteLength": 1524,
      "byteOffset": 4576,
      "target": 34963
    },
    {
      "buffer": 0,
      "byteLength": 22692,
      "byteOffset": 6100,
      "target": 34962
    },
    {
      "buffer": 0,
      "byteLength": 22692,
      "byteOffset": 28792,
      "target": 34962
    },
    {
      "buffer": 0,
      "byteLength": 15128,
      "byteOffset": 51484,
      "target": 34962
    },
    {
      "buffer": 0,
      "byteLength": 15666,
      "byteOffset": 66612,
      "target": 34963
    },
    {
      "buffer": 0,
      "byteLength": 3840,
      "byteOffset": 82278
    }
  ],
  "buffers": [
    {
      "byteLength": 86118,
      "uri": "data:application/octet-stream;base64,"
    }
  ],
  "materials": [
    {
      "name": "default",
      "pbrMetallicRoughness": {
        "baseColorFactor": [
          0.8,
          0.8,
          0.8,
          1.0
        ],
        "metallicFactor": 0.0,
        "roughnessFactor": 0.8
      }
    }
  ],
  "meshes": [
    {
      "name": "assassin_face",
      "primitives": [
        {
          "attributes": {
            "NORMAL": 1,
            "POSITION": 0,
            "TEXCOORD_0": 2
          },
          "indices": 3,
          "material": 0,
          "mode": 4
        }
      ]
    },
    {
      "name": "assassin_summer_2017",
      "primitives": [
        {
          "attributes": {
            "NORMAL": 5,
            "POSITION": 4,
            "TEXCOORD_0": 6
          },
          "indices": 7,
          "material": 0,
          "mode": 4
        }
      ]
    }
  ],
  "nodes": [
    {
      "children": [
        1,
        2,
        3
      ]
    },
    {
      "mesh": 0,
      "name": "assassin_face",
      "skin": 0
    },
    {
      "mesh": 1,
      "name": "assassin_summer_2017",
      "skin": 0
    },
    {
      "children": [
        4
      ],
      "name": "Bip01",
      "rotation": [
        0.0,
        0.0,
        0.0,
        0.9999999403953552
      ],
      "scale": [
        0.9999997615814209,
        -5.117093408073606e-14,
        0.0
      ],
      "translation": [
        -9.094947017729282e-13,
        -4.656612873077393e-10,
        0.0
      ]
    },
    {
      "children": [
        5
      ],
      "name": "Bip01 Pelvis",
      "rotation": [
        -0.4999993145465851,
        -0.5,
        -0.5,
        0.5000006556510925
      ],
      "scale": [
        1.0,
        6.755036055564761e-20,
        -2.6671148450016795e-18
      ],
      "translation": [
        9.23871630220674e-06,
        -2.5779008865356445e-06,
        0.0
      ]
    },
    {
      "children": [
        6,
        8,
        10,
        12,
        27,
        43,
        59
      ],
      "name": "Bip01 Spine",
      "rotation": [
        2.1985831608617445e-06,
        0.0004582926048897207,
        -0.008512725122272968,
        0.999963641166687
      ],
      "scale": [
        1.0000001192092896,
        1.6053782747604828e-09,
        3.995782871246689e-11
      ],
      "translation": [
        9.231704711914063,
        -0.006681759841740131,
        1.2809410691261292e-05
      ]
    },
    {
      "children": [
        7
      ],
      "name": "R_01",
      "rotation": [
        0.13033579289913177,
        0.6949856281280518,
        -0.6926763653755188,
        0.14215119183063507
      ],
      "scale": [
        0.9999998807907104,
        1.0681285189662049e-08,
        2.0943743961332473e-10
      ],
      "translation": [
        3.7016983032226563,
        0.06956303119659424,
        -10.318815231323242
      ]
    },
    {
      "name": "R_02",
      "rotation": [
        -1.2875386783418852e-15,
        -3.650206747512997e-15,
        -0.037528689950704575,
        0.9992955327033997
      ],
      "scale": [
        1.0000001192092896,
        5.917954126744007e-09,
        2.1029798589382656e-14
      ],
      "translation": [
        19.448829650878906,
        0.0,
        0.0
      ]
    },
    {
      "children": [
        9
      ],
      "name": "L_01",
      "rotation": [
        0.12969961762428284,
        0.6951159834861755,
        0.6927956342697144,
        -0.14151319861412048
      ],
      "scale": [
        0.9999999403953552,
        3.811231508166202e-08,
        -7.934424228750458e-10
      ],
      "translation": [
        3.68267822265625,
        0.06954896450042725,
        10.391953468322754
      ]
    },
    {
      "name": "L_02",
      "rotation": [
        -6.390379084187867e-14,
        1.33328692782309e-15,
        -0.03752869740128517,
        0.9992955327033997
      ],
      "scale": [
        1.0000001192092896,
        -4.47061765385115e-09,
        -2.131756829233341e-15
      ],
      "translation": [
        19.448837280273438,
        7.62939453125e-06,
        0.0
      ]
    },
    {
      "children": [
        11
      ],
      "name": "F_01",
      "rotation": [
        -0.00045760851935483515,
        -3.160426422255114e-05,
        0.9976655840873718,
        0.06828777492046356
      ],
      "scale": [
        1.0,
        6.325696411124682e-09,
        1.3432592711748459e-11
      ],
      "translation": [
        2.9761581420898438,
        9.141226768493652,
        -0.0031199976801872253
      ]
    },
    {
      "name": "F_02",
      "rotation": [
        5.327600916037265e-15,
        4.17164983837274e-17,
        0.023484300822019577,
        0.9997242093086243
      ],
      "scale": [
        0.9999998807907104,
        9.224063735047139e-10,
        -1.6681996258818225e-16
      ],
      "translation": [
        19.174598693847656,
        3.814697265625e-06,
        0.0
      ]
    },
    {
      "children": [
        13
      ],
      "name": "Bip01 Spine1",
      "rotation": [
        6.106153451791718e-14,
        -5.820778081755407e-09,
        0.002098003402352333,
        0.9999977946281433
      ],
      "scale": [
        0.9999999403953552,
        -2.501009399580312e-10,
        5.820904175335428e-11
      ],
      "translation": [
        8.398162841796875,
        -0.010102152824401855,
        -2.2351741790771484e-08
      ]
    },
    {
      "children": [
        14,
        15,
        16
      ],
      "name": "Bip01 Spine2",
      "rotation": [
        1.7687579916339513e-12,
        9.605651030142326e-08,
        -0.03463057428598404,
        0.9994001984596252
      ],
      "scale": [
        0.9999999403953552,
        1.1558521251231468e-08,
        2.903735238368732e-11
      ],
      "translation": [
        12.686180114746094,
        -0.010077476501464844,
        -1.4901161193847656e-08
      ]
    },
    {
      "name": "Bone07",
      "rotation": [
        -0.13934247195720673,
        0.09060347080230713,
        0.7841301560401917,
        0.5979253053665161
      ],
      "scale": [
        1.0,
        1.8171286697565847e-09,
        -7.250287836768621e-08
      ],
      "translation": [
        4.1914520263671875,
        3.24202823638916,
        -4.378602027893066
      ]
    },
    {
      "name": "Bone05",
      "rotation": [
        0.11136452853679657,
        -0.07542772591114044,
        0.7880298495292664,
        0.6007641553878784
      ],
      "scale": [
        1.0,
        -3.0074446044636716e-08,
        -4.292904520752927e-08
      ],
      "translation": [
        4.1914215087890625,
        3.2420167922973633,
        4.743309020996094
      ]
    },
    {
      "children": [
        17,
        19,
        21
      ],
      "name": "Bip01 Neck",
      "rotation": [
        -3.473227843642235e-05,
        -0.0004580979875754565,
        0.13992176949977875,
        0.9901624321937561
      ],
      "scale": [
        0.9999998807907104,
        1.4035805406820145e-07,
        9.231966657807789e-08
      ],
      "translation": [
        14.33416748046875,
        -3.440770149230957,
        -3.1366944313049316e-06
      ]
    },
    {
      "children": [
        18,
        31
      ],
      "name": "Bip01 R Clavicle",
      "rotation": [
        -0.5792272090911865,
        0.08922632783651352,
        0.8029547333717346,
        0.10861966758966446
      ],
      "scale": [
        1.0000004768371582,
        -3.9898306880559176e-08,
        -1.6850971462645248e-07
      ],
      "translation": [
        -1.067474365234375,
        1.0830707550048828,
        -2.8085217475891113
      ]
    },
    {
      "name": "Bone09",
      "rotation": [
        -0.7176153659820557,
        0.16453257203102112,
        0.15742911398410797,
        0.658159077167511
      ],
      "scale": [
        1.000000238418579,
        -6.289734955089443e-08,
        1.4969483430604669e-09
      ],
      "translation": [
        5.5560150146484375,
        -0.32675647735595703,
        -0.8303985595703125
      ]
    },
    {
      "children": [
        20,
        47
      ],
      "name": "Bip01 L Clavicle",
      "rotation": [
        0.5799686312675476,
        -0.08928920328617096,
        0.8024171590805054,
        0.1085839793086052
      ],
      "scale": [
        1.0000005960464478,
        2.2543934719010394e-08,
        1.2659322479180446e-08
      ],
      "translation": [
        -1.0624542236328125,
        1.0819473266601563,
        2.8108510971069336
      ]
    },
    {
      "name": "Bone01",
      "rotation": [
        0.7176153063774109,
        -0.16453470289707184,
        0.15742740035057068,
        0.6581589579582214
      ],
      "scale": [
        1.0000001192092896,
        -1.1859457416107944e-08,
        -3.4049789654488904e-09
      ],
      "translation": [
        5.556026458740234,
        -0.32680606842041016,
        0.8303680419921875
      ]
    },
    {
      "children": [
        22
      ],
      "name": "Bip01 Head",
      "rotation": [
        -1.5618842041931202e-07,
        3.534412940098264e-08,
        0.00976831465959549,
        0.9999522566795349
      ],
      "scale": [
        1.000000238418579,
        -1.6108998579511535e-07,
        -9.256359589926433e-08
      ],
      "translation": [
        8.948715209960938,
        -1.9073486328125e-06,
        0.0
      ]
    },
    {
      "children": [
        23
      ],
      "name": "Bip01 Ponytail1",
      "rotation": [
        1.9190846828331942e-12,
        -2.7727053293347126e-06,
        0.999677300453186,
        -0.0254015251994133
      ],
      "scale": [
        1.0,
        -3.026339845391135e-09,
        -6.196426157551935e-14
      ],
      "translation": [
        16.320892333984375,
        -17.09018325805664,
        0.031389594078063965
      ]
    },
    {
      "children": [
        24
      ],
      "name": "Bip01 Ponytail11",
      "rotation": [
        2.259137159028174e-13,
        3.766511156300112e-07,
        -0.1357986032962799,
        0.9907364845275879
      ],
      "scale": [
        1.0,
        7.634667095572645e-14,
        1.8100413068334806e-14
      ],
      "translation": [
        12.657058715820313,
        -0.00971221923828125,
        -2.6542693376541138e-08
      ]
    },
    {
      "children": [
        25
      ],
      "name": "Bip01 Ponytail12",
      "rotation": [
        -1.1420756647253366e-13,
        1.0159087793226718e-07,
        -0.03662780299782753,
        0.9993289709091187
      ],
      "scale": [
        0.9999999403953552,
        1.2963006223998264e-09,
        5.415502183655054e-15
      ],
      "translation": [
        12.65899658203125,
        -0.010051727294921875,
        -2.8405338525772095e-08
      ]
    },
    {
      "children": [
        26
      ],
      "name": "Bip01 Ponytail13",
      "rotation": [
        1.1420087152411856e-13,
        -4.4104023544377924e-08,
        0.015901368111371994,
        0.9998735785484314
      ],
      "scale": [
        1.0,
        -1.2369005076561814e-16,
        -2.4344031835949603e-14
      ],
      "translation": [
        12.660064697265625,
        -0.01007843017578125,
        -2.7474015951156616e-08
      ]
    },
    {
      "name": "Bip01 Ponytail14",
      "rotation": [
        9.99514124353125e-16,
        -6.945328578922272e-08,
        0.02504083886742592,
        0.9996864199638367
      ],
      "scale": [
        0.9999998807907104,
        1.4729075736852337e-09,
        3.349446100250203e-14
      ],
      "translation": [
        12.660240173339844,
        -0.010068893432617188,
        -2.8405338525772095e-08
      ]
    },
    {
      "children": [
        28
      ],
      "name": "Bip01 R Thigh",
      "rotation": [
        -0.0017407500417903066,
        0.9993849992752075,
        -0.012853805907070637,
        0.032579343765974045
      ],
      "scale": [
        1.0,
        1.230008428443341e-09,
        1.5599509461949879e-09
      ],
      "translation": [
        -9.223106384277344,
        -0.1504669189453125,
        -8.036136627197266
      ]
    },
    {
      "children": [
        29
      ],
      "name": "Bip01 R Calf",
      "rotation": [
        -8.915102683859644e-11,
        1.8722257077996574e-09,
        -0.09983333200216293,
        0.9950041770935059
      ],
      "scale": [
        0.9999999403953552,
        1.1841605029871971e-08,
        -3.7426364229986575e-09
      ],
      "translation": [
        40.1383171081543,
        1.1920928955078125e-07,
        -1.9073486328125e-06
      ]
    },
    {
      "children": [
        30
      ],
      "name": "Bip01 R Foot",
      "rotation": [
        0.06932741403579712,
        0.03842362016439438,
        0.09007490426301956,
        0.9927758574485779
      ],
      "scale": [
        1.0,
        -2.0930452038214753e-08,
        6.653824158320276e-10
      ],
      "translation": [
        40.13832092285156,
        0.0,
        0.0
      ]
    },
    {
      "name": "Bip01 R Toe0",
      "rotation": [
        1.5700922994638892e-16,
        1.5700922994638892e-16,
        0.7071067094802856,
        0.7071067690849304
      ],
      "scale": [
        1.0,
        1.7763568394002505e-15,
        -3.223900041478473e-16
      ],
      "translation": [
        13.162713050842285,
        12.053354263305664,
        0.0
      ]
    },
    {
      "children": [
        32
      ],
      "name": "Bip01 R UpperArm",
      "rotation": [
        -0.04123334586620331,
        -0.11716548353433609,
        0.009602317586541176,
        0.9922095537185669
      ],
      "scale": [
        1.0000001192092896,
        -6.730946910948887e-10,
        1.7652762807074396e-08
      ],
      "translation": [
        11.362142562866211,
        -9.5367431640625e-07,
        -1.52587890625e-05
      ]
    },
    {
      "children": [
        33
      ],
      "name": "Bip01 R ForeArm",
      "rotation": [
        6.410615371876816e-10,
        2.444753714452171e-15,
        -0.043017107993364334,
        0.9990743398666382
      ],
      "scale": [
        1.0000001192092896,
        0.0,
        -2.9747166507831935e-08
      ],
      "translation": [
        24.08300018310547,
        -2.384185791015625e-07,
        0.0
      ]
    },
    {
      "children": [
        34,
        37,
        40,
        61
      ],
      "name": "Bip01 R Hand",
      "rotation": [
        0.7058847546577454,
        0.036477863788604736,
        -0.036448825150728226,
        0.7064471244812012
      ],
      "scale": [
        1.0,
        7.194338458305083e-09,
        -4.697594313540776e-09
      ],
      "translation": [
        24.082996368408203,
        4.76837158203125e-07,
        0.0
      ]
    },
    {
      "children": [
        35
      ],
      "name": "Bip01 R Finger2",
      "rotation": [
        0.08983667939901352,
        0.004974718671292067,
        0.055557481944561005,
        0.9943932890892029
      ],
      "scale": [
        0.9999998211860657,
        1.6825504189910134e-07,
        1.1205313654727433e-07
      ],
      "translation": [
        8.273906707763672,
        -0.6917953491210938,
        -1.205906867980957
      ]
    },
    {
      "children": [
        36
      ],
      "name": "Bip01 R Finger21",
      "rotation": [
        -7.3865327188116225e-09,
        2.2396993728391993e-16,
        0.1308388113975525,
        0.9914036393165588
      ],
      "scale": [
        1.0,
        -2.6637678729457548e-08,
        1.9328902922666202e-09
      ],
      "translation": [
        3.085590362548828,
        7.62939453125e-06,
        1.9073486328125e-06
      ]
    },
    {
      "name": "Bip01 R Finger22",
      "rotation": [
        -2.7184416939718403e-09,
        4.874123327169855e-10,
        0.1308387815952301,
        0.9914036393165588
      ],
      "scale": [
        1.0000001192092896,
        -1.3318844693799292e-08,
        1.6578962203084302e-08
      ],
      "translation": [
        3.0855979919433594,
        0.0,
        0.0
      ]
    },
    {
      "children": [
        38
      ],
      "name": "Bip01 R Finger1",
      "rotation": [
        0.00319846672937274,
        -0.06787998974323273,
        0.041126448661088943,
        0.9968403577804565
      ],
      "scale": [
        1.0000001192092896,
        2.6887548187914945e-07,
        -1.1320297943484547e-07
      ],
      "translation": [
        8.23690414428711,
        -0.86138916015625,
        2.45908260345459
      ]
    },
    {
      "children": [
        39
      ],
      "name": "Bip01 R Finger11",
      "rotation": [
        -1.7415754394178862e-09,
        4.4081422956310234e-09,
        0.1164020225405693,
        0.9932022094726563
      ],
      "scale": [
        0.9999999403953552,
        5.798942481760605e-08,
        1.7112178340994433e-09
      ],
      "translation": [
        3.0103683471679688,
        0.0,
        1.9073486328125e-06
      ]
    },
    {
      "name": "Bip01 R Finger12",
      "rotation": [
        -2.774974694474963e-09,
        -1.1425122181663028e-08,
        0.1164020299911499,
        0.9932021498680115
      ],
      "scale": [
        0.9999999403953552,
        1.378187519662788e-08,
        3.028554906858716e-10
      ],
      "translation": [
        3.010387420654297,
        0.0,
        -3.814697265625e-06
      ]
    },
    {
      "children": [
        41
      ],
      "name": "Bip01 R Finger0",
      "rotation": [
        -0.6828780770301819,
        -0.25692251324653625,
        -0.1345289945602417,
        0.6705000996589661
      ],
      "scale": [
        1.0000003576278687,
        1.7935022356141417e-07,
        4.017627759367315e-07
      ],
      "translation": [
        0.5431480407714844,
        0.00775146484375,
        2.5511600971221924
      ]
    },
    {
      "children": [
        42
      ],
      "name": "Bip01 R Finger01",
      "rotation": [
        -9.134459411086482e-09,
        0.0,
        0.1164020448923111,
        0.9932021498680115
      ],
      "scale": [
        0.9999998211860657,
        1.5212835435818306e-08,
        -2.7675779890046215e-08
      ],
      "translation": [
        3.7950172424316406,
        1.9073486328125e-06,
        -7.62939453125e-06
      ]
    },
    {
      "name": "Bip01 R Finger02",
      "rotation": [
        5.3767617025357595e-09,
        -7.94197063669344e-09,
        0.1164020225405693,
        0.9932022094726563
      ],
      "scale": [
        1.0,
        -1.664380455679293e-08,
        4.257694641296439e-08
      ],
      "translation": [
        3.795013427734375,
        0.0,
        0.0
      ]
    },
    {
      "children": [
        44
      ],
      "name": "Bip01 L Thigh",
      "rotation": [
        -0.0017526159062981606,
        0.9994144439697266,
        0.01285424642264843,
        -0.03166180104017258
      ],
      "scale": [
        1.0,
        1.381310732462282e-09,
        -3.813707571964642e-09
      ],
      "translation": [
        -9.237846374511719,
        -0.15049970149993896,
        8.019189834594727
      ]
    },
    {
      "children": [
        45
      ],
      "name": "Bip01 L Calf",
      "rotation": [
        1.4934366243668507e-10,
        -8.716592031499104e-11,
        -0.09983333200216293,
        0.9950041770935059
      ],
      "scale": [
        0.9999999403953552,
        4.013304556227123e-19,
        7.306938165640986e-09
      ],
      "translation": [
        40.13832473754883,
        1.1920928955078125e-07,
        9.5367431640625e-07
      ]
    },
    {
      "children": [
        46
      ],
      "name": "Bip01 L Foot",
      "rotation": [
        -0.06932742148637772,
        -0.038423530757427216,
        0.09007491171360016,
        0.9927758574485779
      ],
      "scale": [
        1.0,
        -1.0743733902529584e-08,
        -2.4792043973320688e-09
      ],
      "translation": [
        40.13832092285156,
        0.0,
        -9.5367431640625e-07
      ]
    },
    {
      "name": "Bip01 L Toe0",
      "rotation": [
        2.0247593968337495e-31,
        0.0,
        0.7071067094802856,
        0.7071067690849304
      ],
      "scale": [
        1.0,
        1.7763568394002505e-15,
        3.223949804664124e-16
      ],
      "translation": [
        13.162713050842285,
        12.05335521697998,
        0.0
      ]
    },
    {
      "children": [
        48
      ],
      "name": "Bip01 L UpperArm",
      "rotation": [
        0.0412314236164093,
        0.11807678639888763,
        0.009625350125133991,
        0.9921014308929443
      ],
      "scale": [
        1.0,
        -2.570555546199671e-09,
        7.218720554647007e-08
      ],
      "translation": [
        11.362140655517578,
        4.76837158203125e-07,
        0.0
      ]
    },
    {
      "children": [
        49
      ],
      "name": "Bip01 L ForeArm",
      "rotation": [
        -6.409479058611112e-10,
        2.444753714452171e-15,
        -0.043017104268074036,
        0.9990743398666382
      ],
      "scale": [
        1.0000001192092896,
        2.2997146409409197e-09,
        2.9747187824114008e-08
      ],
      "translation": [
        24.08300018310547,
        0.0,
        0.0
      ]
    },
    {
      "children": [
        50,
        53,
        56,
        62
      ],
      "name": "Bip01 L Hand",
      "rotation": [
        -0.7058847546577454,
        -0.036477863788604736,
        -0.03644883632659912,
        0.7064471244812012
      ],
      "scale": [
        1.0,
        -7.634824328306422e-09,
        -1.0802878591675835e-09
      ],
      "translation": [
        24.082996368408203,
        -4.76837158203125e-07,
        0.0
      ]
    },
    {
      "children": [
        51
      ],
      "name": "Bip01 L Finger2",
      "rotation": [
        -0.08983667939901352,
        -0.004974718671292067,
        0.0555574931204319,
        0.9943932890892029
      ],
      "scale": [
        0.9999998807907104,
        1.3771941098639218e-07,
        -1.2401669380324165e-07
      ],
      "translation": [
        8.273902893066406,
        -0.691802978515625,
        1.2059063911437988
      ]
    },
    {
      "children": [
        52
      ],
      "name": "Bip01 L Finger21",
      "rotation": [
        1.1810917577292912e-08,
        -2.3340454013975886e-09,
        0.1308387964963913,
        0.9914036393165588
      ],
      "scale": [
        1.0000001192092896,
        1.3318842917442453e-08,
        7.182544781159095e-09
      ],
      "translation": [
        3.0855979919433594,
        -7.62939453125e-06,
        0.0
      ]
    },
    {
      "name": "Bip01 L Finger22",
      "rotation": [
        4.874123327169855e-10,
        -2.7184416939718403e-09,
        0.1308387815952301,
        0.9914036393165588
      ],
      "scale": [
        1.0000001192092896,
        1.5463118785419283e-08,
        9.383470889190448e-09
      ],
      "translation": [
        3.0855979919433594,
        0.0,
        0.0
      ]
    },
    {
      "children": [
        54
      ],
      "name": "Bip01 L Finger1",
      "rotation": [
        -0.003198464633896947,
        0.06787997484207153,
        0.04112643003463745,
        0.9968403577804565
      ],
      "scale": [
        1.0000001192092896,
        2.685777928945754e-07,
        1.1088844331652581e-07
      ],
      "translation": [
        8.236907958984375,
        -0.8613967895507813,
        -2.459083080291748
      ]
    },
    {
      "children": [
        55
      ],
      "name": "Bip01 L Finger11",
      "rotation": [
        -7.616748121108685e-09,
        -5.98358118608644e-09,
        0.1164020374417305,
        0.9932021498680115
      ],
      "scale": [
        1.0,
        4.206110659765727e-08,
        -2.6620203819049948e-09
      ],
      "translation": [
        3.0103721618652344,
        0.0,
        0.0
      ]
    },
    {
      "name": "Bip01 L Finger12",
      "rotation": [
        5.607678765784385e-09,
        7.588548678327811e-10,
        0.1164020299911499,
        0.9932021498680115
      ],
      "scale": [
        0.9999998211860657,
        2.8994712408803025e-08,
        -1.4699256034589325e-08
      ],
      "translation": [
        3.0103759765625,
        1.52587890625e-05,
        9.5367431640625e-07
      ]
    },
    {
      "children": [
        57
      ],
      "name": "Bip01 L Finger0",
      "rotation": [
        0.6828780174255371,
        0.25692248344421387,
        -0.1345289945602417,
        0.6705000996589661
      ],
      "scale": [
        1.0000004768371582,
        1.4185344809902745e-07,
        -3.4762231848617375e-07
      ],
      "translation": [
        0.5431480407714844,
        0.00775146484375,
        -2.551161050796509
      ]
    },
    {
      "children": [
        58
      ],
      "name": "Bip01 L Finger01",
      "rotation": [
        1.1178218366043137e-16,
        -1.5667129815710723e-08,
        0.1164020448923111,
        0.9932021498680115
      ],
      "scale": [
        0.9999999403953552,
        -7.154796755060033e-10,
        -1.3189285219539215e-09
      ],
      "translation": [
        3.7950096130371094,
        0.0,
        1.52587890625e-05
      ]
    },
    {
      "name": "Bip01 L Finger02",
      "rotation": [
        4.682687571033739e-09,
        2.2850244363326055e-08,
        0.1164020225405693,
        0.9932022094726563
      ],
      "scale": [
        1.0,
        -1.378187430844946e-08,
        -1.53049661832938e-08
      ],
      "translation": [
        3.7950172424316406,
        -1.9073486328125e-06,
        -7.62939453125e-06
      ]
    },
    {
      "children": [
        60
      ],
      "name": "B_01",
      "rotation": [
        -0.00044984149280935526,
        9.21272294363007e-05,
        0.9794314503669739,
        -0.20177669823169708
      ],
      "scale": [
        0.9999992847442627,
        -4.895234724244801e-07,
        -4.63378807546988e-10
      ],
      "translation": [
        5.919471740722656,
        -6.957295894622803,
        -0.0004349946975708008
      ]
    },
    {
      "name": "B_02",
      "rotation": [
        0.0,
        1.30105810768554e-14,
        -0.08116263896226883,
        0.9967008829116821
      ],
      "scale": [
        0.9999999403953552,
        5.0614215041377975e-09,
        -2.486396606996271e-15
      ],
      "translation": [
        16.875205993652344,
        -0.000308990478515625,
        0.0
      ]
    },
    {
      "name": "equip_right",
      "rotation": [
        7.906932069090544e-07,
        8.828939144223114e-07,
        -3.2037499408943404e-07,
        1.0
      ],
      "scale": [
        1.000000238418579,
        -1.4902324707577463e-08,
        -2.049026903705453e-08
      ],
      "translation": [
        4.544063568115234,
        -0.03719329833984375,
        0.029287338256835938
      ]
    },
    {
      "name": "equip_left",
      "rotation": [
        -5.206095465837279e-07,
        -1.1199158507224638e-06,
        2.2351748896198842e-08,
        1.0
      ],
      "scale": [
        0.9999998807907104,
        7.450457673030542e-08,
        3.0733303901797626e-08
      ],
      "translation": [
        4.716060638427734,
        -0.0486907958984375,
        -0.28772401809692383
      ]
    }
  ],
  "scene": 0,
  "scenes": [
    {
      "nodes": [
        0
      ]
    }
  ],
  "skins": [
    {
      "inverseBindMatrices": 8,
      "joints": [
        3,
        4,
        5,
        6,
        7,
        8,
        9,
        10,
        11,
        12,
        13,
        14,
        15,
        16,
        17,
        18,
        19,
        20,
        21,
        22,
        23,
        24,
        25,
        26,
        27,
        28,
        29,
        30,
        31,
        32,
        33,
        34,
        35,
        36,
        37,
        38,
        39,
        40,
        41,
        42,
        43,
        44,
        45,
        46,
        47,
        48,
        49,
        50,
        51,
        52,
        53,
        54,
        55,
        56,
        57,
        58,
        59,
        60,
        61,
        62
      ],
      "skeleton": 3
    }
  ]
}
