{
  "accessors": [
    {
      "bufferView": 0,
      "componentType": 5126,
      "count": 143,
      "max": [
        161.26902770996094,
        161.0686798095703,
        158.52035522460938
      ],
      "min": [
        -9.068881034851074,
        -10.332452774047852,
        -10.10906982421875
      ],
      "type": "VEC3"
    },
    {
      "bufferView": 1,
      "componentType": 5126,
      "count": 143,
      "type": "VEC3"
    },
    {
      "bufferView": 2,
      "componentType": 5126,
      "count": 143,
      "type": "VEC2"
    },
    {
      "bufferView": 3,
      "componentType": 5123,
      "count": 762,
      "type": "SCALAR"
    },
    {
      "bufferView": 4,
      "componentType": 5126,
      "count": 3109,
      "max": [
        163.28623962402344,
        165.16598510742188,
        165.1659393310547
      ],
      "min": [
        -69.3892822265625,
        -68.49246978759766,
        -67.72454833984375
      ],
      "type": "VEC3"
    },
    {
      "bufferView": 5,
      "componentType": 5126,
      "count": 3109,
      "type": "VEC3"
    },
    {
      "bufferView": 6,
      "componentType": 5126,
      "count": 3109,
      "type": "VEC2"
    },
    {
      "bufferView": 7,
      "componentType": 5123,
      "count": 11934,
      "type": "SCALAR"
    },
    {
      "bufferView": 8,
      "componentType": 5126,
      "count": 78,
      "type": "MAT4"
    }
  ],
  "asset": {
    "generator": "gr2togltf (ANKA2 Project)",
    "version": "2.0"
  },
  "bufferViews": [
    {
      "buffer": 0,
      "byteLength": 1716,
      "target": 34962
    },
    {
      "buffer": 0,
      "byteLength": 1716,
      "byteOffset": 1716,
      "target": 34962
    },
    {
      "buffer": 0,
      "byteLength": 1144,
      "byteOffset": 3432,
      "target": 34962
    },
    {
      "buffer": 0,
      "byteLength": 1524,
      "byteOffset": 4576,
      "target": 34963
    },
    {
      "buffer": 0,
      "byteLength": 37308,
      "byteOffset": 6100,
      "target": 34962
    },
    {
      "buffer": 0,
      "byteLength": 37308,
      "byteOffset": 43408,
      "target": 34962
    },
    {
      "buffer": 0,
      "byteLength": 24872,
      "byteOffset": 80716,
      "target": 34962
    },
    {
      "buffer": 0,
      "byteLength": 23868,
      "byteOffset": 105588,
      "target": 34963
    },
    {
      "buffer": 0,
      "byteLength": 4992,
      "byteOffset": 129456
    }
  ],
  "buffers": [
    {
      "byteLength": 134448,
      "uri": "data:application/octet-stream;base64,"
    }
  ],
  "materials": [
    {
      "name": "default",
      "pbrMetallicRoughness": {
        "baseColorFactor": [
          0.8,
          0.8,
          0.8,
          1.0
        ],
        "metallicFactor": 0.0,
        "roughnessFactor": 0.8
      }
    }
  ],
  "meshes": [
    {
      "name": "assassin_face",
      "primitives": [
        {
          "attributes": {
            "NORMAL": 1,
            "POSITION": 0,
            "TEXCOORD_0": 2
          },
          "indices": 3,
          "material": 0,
          "mode": 4
        }
      ]
    },
    {
      "name": "assassin_halloween_2017_model01",
      "primitives": [
        {
          "attributes": {
            "NORMAL": 5,
            "POSITION": 4,
            "TEXCOORD_0": 6
          },
          "indices": 7,
          "material": 0,
          "mode": 4
        }
      ]
    }
  ],
  "nodes": [
    {
      "children": [
        1,
        2,
        3
      ]
    },
    {
      "mesh": 0,
      "name": "assassin_face",
      "skin": 0
    },
    {
      "mesh": 1,
      "name": "assassin_halloween_2017_model01",
      "skin": 0
    },
    {
      "children": [
        4
      ],
      "name": "Bip01",
      "rotation": [
        0.0,
        0.0,
        0.0,
        0.9999999403953552
      ],
      "scale": [
        0.9999997615814209,
        -5.117093408073606e-14,
        0.0
      ],
      "translation": [
        0.0,
        1.862645149230957e-09,
        0.0
      ]
    },
    {
      "children": [
        5
      ],
      "name": "Bip01 Pelvis",
      "rotation": [
        -0.4999993145465851,
        -0.5,
        -0.5,
        0.5000006556510925
      ],
      "scale": [
        1.0,
        6.755036055564761e-20,
        -2.6671148450016795e-18
      ],
      "translation": [
        -0.43055400252342224,
        -0.013545999303460121,
        0.0
      ]
    },
    {
      "children": [
        6,
        19,
        22,
        25,
        28,
        31,
        36
      ],
      "name": "Bip01 Spine",
      "rotation": [
        2.198588617829955e-06,
        0.0004582926048897207,
        -0.008512725122272968,
        0.999963641166687
      ],
      "scale": [
        1.0000001192092896,
        1.6053682827532612e-09,
        4.014363841342572e-11
      ],
      "translation": [
        9.231704711914063,
        -0.006681759841740131,
        1.2809410691261292e-05
      ]
    },
    {
      "children": [
        7
      ],
      "name": "Bip01 Spine1",
      "rotation": [
        2.8843483049038887e-13,
        -5.820777637666197e-09,
        0.002098001539707184,
        0.9999977946281433
      ],
      "scale": [
        0.9999999403953552,
        -2.5010071791342625e-10,
        5.820904175335428e-11
      ],
      "translation": [
        8.398162841796875,
        -0.010102033615112305,
        -2.2351741790771484e-08
      ]
    },
    {
      "children": [
        8,
        41,
        43
      ],
      "name": "Bip01 Spine2",
      "rotation": [
        1.7687579916339513e-12,
        9.605651030142326e-08,
        -0.03463057801127434,
        0.9994001984596252
      ],
      "scale": [
        0.9999999403953552,
        4.1258116922904264e-09,
        2.9037402690668124e-11
      ],
      "translation": [
        12.686180114746094,
        -0.010077834129333496,
        -1.4901161193847656e-08
      ]
    },
    {
      "children": [
        9,
        14,
        73
      ],
      "name": "Bip01 Neck",
      "rotation": [
        -3.473228571237996e-05,
        -0.0004580979875754565,
        0.13992176949977875,
        0.9901624321937561
      ],
      "scale": [
        0.9999998807907104,
        1.4035805406820145e-07,
        9.231764863670833e-08
      ],
      "translation": [
        14.33416748046875,
        -3.440770149230957,
        -3.1366944313049316e-06
      ]
    },
    {
      "children": [
        10,
        45
      ],
      "name": "Bip01 R Clavicle",
      "rotation": [
        -0.5792272090911865,
        0.08922632783651352,
        0.8029547333717346,
        0.10861966758966446
      ],
      "scale": [
        1.0000004768371582,
        -3.9898306880559176e-08,
        -1.6850971462645248e-07
      ],
      "translation": [
        -1.067474365234375,
        1.0830707550048828,
        -2.8085217475891113
      ]
    },
    {
      "children": [
        11
      ],
      "name": "Bip01 R UpperArm",
      "rotation": [
        -0.04123334586620331,
        -0.11716548353433609,
        0.00960231851786375,
        0.9922095537185669
      ],
      "scale": [
        1.0000001192092896,
        -6.730946910948887e-10,
        1.7866723212023317e-08
      ],
      "translation": [
        11.362142562866211,
        -9.5367431640625e-07,
        -1.52587890625e-05
      ]
    },
    {
      "children": [
        12
      ],
      "name": "Bip01 R ForeArm",
      "rotation": [
        6.410615371876816e-10,
        2.444753714452171e-15,
        -0.043017107993364334,
        0.9990743398666382
      ],
      "scale": [
        1.0000001192092896,
        0.0,
        -2.9747166507831935e-08
      ],
      "translation": [
        24.08300018310547,
        -2.384185791015625e-07,
        0.0
      ]
    },
    {
      "children": [
        13,
        47,
        51,
        55
      ],
      "name": "Bip01 R Hand",
      "rotation": [
        0.7058847546577454,
        0.036477863788604736,
        -0.036448825150728226,
        0.7064471244812012
      ],
      "scale": [
        1.0,
        7.194338458305083e-09,
        -4.697594313540776e-09
      ],
      "translation": [
        24.082996368408203,
        4.76837158203125e-07,
        0.0
      ]
    },
    {
      "name": "equip_right",
      "rotation": [
        -4.190951585769653e-08,
        7.90692979535379e-07,
        -5.21540641784668e-07,
        1.0
      ],
      "scale": [
        0.9999998807907104,
        2.882418560562136e-14,
        -7.45069339558313e-09
      ],
      "translation": [
        2.417011260986328,
        -2.9430618286132813,
        -0.0777125358581543
      ]
    },
    {
      "children": [
        15,
        59
      ],
      "name": "Bip01 L Clavicle",
      "rotation": [
        0.5799686312675476,
        -0.08928920328617096,
        0.8024171590805054,
        0.1085839793086052
      ],
      "scale": [
        1.0000005960464478,
        2.2543934719010394e-08,
        1.2659322479180446e-08
      ],
      "translation": [
        -1.0624542236328125,
        1.0819473266601563,
        2.8108510971069336
      ]
    },
    {
      "children": [
        16
      ],
      "name": "Bip01 L UpperArm",
      "rotation": [
        0.0412314273416996,
        0.11807678639888763,
        0.009625349193811417,
        0.9921014308929443
      ],
      "scale": [
        1.0,
        -2.570555546199671e-09,
        7.175751903787386e-08
      ],
      "translation": [
        11.362140655517578,
        4.76837158203125e-07,
        0.0
      ]
    },
    {
      "children": [
        17
      ],
      "name": "Bip01 L ForeArm",
      "rotation": [
        -6.409479058611112e-10,
        2.444753714452171e-15,
        -0.043017104268074036,
        0.9990743398666382
      ],
      "scale": [
        1.0000001192092896,
        2.2997146409409197e-09,
        2.9747187824114008e-08
      ],
      "translation": [
        24.08300018310547,
        0.0,
        0.0
      ]
    },
    {
      "children": [
        18,
        61,
        65,
        69
      ],
      "name": "Bip01 L Hand",
      "rotation": [
        -0.7058847546577454,
        -0.036477863788604736,
        -0.03644883632659912,
        0.7064471244812012
      ],
      "scale": [
        1.0,
        -7.634824328306422e-09,
        -1.0802878591675835e-09
      ],
      "translation": [
        24.082996368408203,
        -4.76837158203125e-07,
        0.0
      ]
    },
    {
      "name": "equip_left",
      "rotation": [
        -7.534404744546919e-07,
        -1.1213129482712247e-06,
        -2.3841855067985307e-07,
        1.0
      ],
      "scale": [
        1.0000001192092896,
        -5.960627191825552e-08,
        -1.4903156042578303e-08
      ],
      "translation": [
        -0.500274658203125,
        -1.1329574584960938,
        0.2617034912109375
      ]
    },
    {
      "children": [
        20
      ],
      "name": "F_01",
      "rotation": [
        -0.00045767048140987754,
        -3.076362190768123e-05,
        0.9976655840873718,
        0.06828779727220535
      ],
      "scale": [
        0.9999997019767761,
        3.068377196768779e-08,
        -3.808205834010536e-11
      ],
      "translation": [
        2.9761123657226563,
        9.141225814819336,
        -0.0031052008271217346
      ]
    },
    {
      "children": [
        21
      ],
      "name": "F_02",
      "rotation": [
        1.4206936340788005e-14,
        -4.1716078837720713e-16,
        0.023484066128730774,
        0.9997242093086243
      ],
      "scale": [
        1.0,
        6.5199277088368035e-09,
        -1.5013649460961817e-15
      ],
      "translation": [
        19.174598693847656,
        0.0,
        3.499590093269944e-07
      ]
    },
    {
      "name": "F_03",
      "rotation": [
        -1.0658142730467397e-14,
        -1.4210854715202004e-14,
        -8.940696716308594e-08,
        1.0
      ],
      "scale": [
        0.9999999403953552,
        1.0658141036401503e-14,
        2.8421706042272218e-14
      ],
      "translation": [
        15.030860900878906,
        -5.7220458984375e-06,
        2.441738615743816e-07
      ]
    },
    {
      "children": [
        23
      ],
      "name": "L_01",
      "rotation": [
        0.12969958782196045,
        0.6951156854629517,
        0.6927959322929382,
        -0.14151306450366974
      ],
      "scale": [
        0.9999991655349731,
        6.508034289254283e-08,
        6.813409281214433e-10
      ],
      "translation": [
        3.6826553344726563,
        0.06954836845397949,
        10.391983032226563
      ]
    },
    {
      "children": [
        24
      ],
      "name": "L_02",
      "rotation": [
        7.191318651678102e-10,
        1.9149078767100036e-08,
        -0.037528544664382935,
        0.9992955327033997
      ],
      "scale": [
        1.0000001192092896,
        -1.5116050633423583e-09,
        -1.0106699717849377e-14
      ],
      "translation": [
        19.448829650878906,
        3.814697265625e-06,
        -7.873022696003318e-07
      ]
    },
    {
      "name": "L_03",
      "rotation": [
        4.235164736271502e-22,
        7.105426934084528e-15,
        1.4901161193847656e-08,
        1.0
      ],
      "scale": [
        1.0,
        4.0389678347315804e-28,
        4.263256414560601e-14
      ],
      "translation": [
        16.961395263671875,
        -3.814697265625e-06,
        3.637978807091713e-12
      ]
    },
    {
      "children": [
        26
      ],
      "name": "B_01",
      "rotation": [
        -0.0004498311027418822,
        9.228700218955055e-05,
        0.9794314503669739,
        -0.2017766386270523
      ],
      "scale": [
        1.0000001192092896,
        -3.5818235488704886e-08,
        -5.083718515597191e-11
      ],
      "translation": [
        5.919456481933594,
        -6.957296371459961,
        -0.0004041939973831177
      ]
    },
    {
      "children": [
        27
      ],
      "name": "B_02",
      "rotation": [
        4.6943849191748415e-15,
        2.883481205746114e-16,
        -0.08116272836923599,
        0.9967008829116821
      ],
      "scale": [
        1.0000001192092896,
        2.482766348066434e-08,
        -2.7084898316124748e-14
      ],
      "translation": [
        16.875205993652344,
        -0.000308990478515625,
        1.8189894035458565e-11
      ]
    },
    {
      "name": "B_03",
      "rotation": [
        -1.7763570511584873e-15,
        -2.1316278684671217e-14,
        2.9802317058624794e-08,
        1.0
      ],
      "scale": [
        1.000000238418579,
        1.4901161193847656e-08,
        -1.4210861491465582e-14
      ],
      "translation": [
        23.14419174194336,
        1.52587890625e-05,
        1.636717570363544e-07
      ]
    },
    {
      "children": [
        29
      ],
      "name": "R_01",
      "rotation": [
        0.130335733294487,
        0.6949856877326965,
        -0.6926763653755188,
        0.14215093851089478
      ],
      "scale": [
        1.0,
        6.27290503985023e-08,
        -1.706495722508805e-09
      ],
      "translation": [
        3.701690673828125,
        0.06956255435943604,
        -10.318780899047852
      ]
    },
    {
      "children": [
        30
      ],
      "name": "R_02",
      "rotation": [
        7.191444106879885e-10,
        1.914910185973895e-08,
        -0.037528540939092636,
        0.9992955327033997
      ],
      "scale": [
        1.0000001192092896,
        -3.0232083503278773e-09,
        4.05150999385664e-16
      ],
      "translation": [
        19.448837280273438,
        0.0,
        -7.873040885897353e-07
      ]
    },
    {
      "name": "R_03",
      "rotation": [
        -2.220446049250313e-16,
        2.220446049250313e-16,
        0.0,
        1.0
      ],
      "scale": [
        1.0,
        3.944304526105059e-31,
        -4.440892098500626e-16
      ],
      "translation": [
        16.961402893066406,
        -3.814697265625e-06,
        0.0
      ]
    },
    {
      "children": [
        32
      ],
      "name": "Bip01 R Thigh",
      "rotation": [
        -0.0017407500417903066,
        0.9993849992752075,
        -0.012853805907070637,
        0.032579343765974045
      ],
      "scale": [
        1.0,
        1.230008428443341e-09,
        1.5599509461949879e-09
      ],
      "translation": [
        -9.223106384277344,
        -0.1504669189453125,
        -8.036136627197266
      ]
    },
    {
      "children": [
        33
      ],
      "name": "Bip01 R Calf",
      "rotation": [
        -8.915102683859644e-11,
        1.8722257077996574e-09,
        -0.09983333200216293,
        0.9950041770935059
      ],
      "scale": [
        0.9999999403953552,
        1.1841605029871971e-08,
        -3.7426364229986575e-09
      ],
      "translation": [
        40.1383171081543,
        1.1920928955078125e-07,
        -1.9073486328125e-06
      ]
    },
    {
      "children": [
        34
      ],
      "name": "Bip01 R Foot",
      "rotation": [
        0.06932741403579712,
        0.03842362016439438,
        0.09007490426301956,
        0.9927758574485779
      ],
      "scale": [
        1.0,
        -2.0930452038214753e-08,
        6.653824158320276e-10
      ],
      "translation": [
        40.13832092285156,
        0.0,
        0.0
      ]
    },
    {
      "children": [
        35
      ],
      "name": "Bip01 R Toe0",
      "rotation": [
        1.5700922994638892e-16,
        1.5700922994638892e-16,
        0.7071067094802856,
        0.7071067690849304
      ],
      "scale": [
        1.0,
        1.7763568394002505e-15,
        -3.223900041478473e-16
      ],
      "translation": [
        13.162713050842285,
        12.053354263305664,
        0.0
      ]
    },
    {
      "name": "Bip01 R Toe0Nub",
      "rotation": [
        2.220446049250313e-16,
        0.0,
        8.881784197001252e-16,
        1.0
      ],
      "scale": [
        1.0,
        1.7763568394002505e-15,
        -3.223900041478473e-16
      ],
      "translation": [
        10.604896545410156,
        0.0,
        -9.5367431640625e-07
      ]
    },
    {
      "children": [
        37
      ],
      "name": "Bip01 L Thigh",
      "rotation": [
        -0.0017526159062981606,
        0.9994144439697266,
        0.01285424642264843,
        -0.03166180104017258
      ],
      "scale": [
        1.0,
        1.381310732462282e-09,
        -3.813707571964642e-09
      ],
      "translation": [
        -9.237846374511719,
        -0.15049970149993896,
        8.019189834594727
      ]
    },
    {
      "children": [
        38
      ],
      "name": "Bip01 L Calf",
      "rotation": [
        1.4934366243668507e-10,
        -8.716592031499104e-11,
        -0.09983333200216293,
        0.9950041770935059
      ],
      "scale": [
        0.9999999403953552,
        4.013304556227123e-19,
        7.306938165640986e-09
      ],
      "translation": [
        40.13832473754883,
        1.1920928955078125e-07,
        9.5367431640625e-07
      ]
    },
    {
      "children": [
        39
      ],
      "name": "Bip01 L Foot",
      "rotation": [
        -0.06932742148637772,
        -0.038423530757427216,
        0.09007491171360016,
        0.9927758574485779
      ],
      "scale": [
        1.0,
        -1.0743733902529584e-08,
        -2.4792043973320688e-09
      ],
      "translation": [
        40.13832092285156,
        0.0,
        -9.5367431640625e-07
      ]
    },
    {
      "children": [
        40
      ],
      "name": "Bip01 L Toe0",
      "rotation": [
        2.0247593968337495e-31,
        0.0,
        0.7071067094802856,
        0.7071067690849304
      ],
      "scale": [
        1.0,
        1.7763568394002505e-15,
        3.223949804664124e-16
      ],
      "translation": [
        13.162713050842285,
        12.05335521697998,
        0.0
      ]
    },
    {
      "name": "Bip01 L Toe0Nub",
      "rotation": [
        1.4317213213495546e-31,
        0.0,
        8.881784197001252e-16,
        1.0
      ],
      "scale": [
        1.0,
        1.7763568394002505e-15,
        -3.223949804664124e-16
      ],
      "translation": [
        10.604897499084473,
        0.0,
        0.0
      ]
    },
    {
      "children": [
        42
      ],
      "name": "Bone07",
      "rotation": [
        -0.13934326171875,
        0.09060321003198624,
        0.7841296195983887,
        0.5979257822036743
      ],
      "scale": [
        0.9999988079071045,
        1.2072235655580243e-08,
        -3.0980263687752085e-08
      ],
      "translation": [
        4.19146728515625,
        3.2420272827148438,
        -4.378586769104004
      ]
    },
    {
      "name": "Bone08",
      "rotation": [
        -2.210819971537603e-09,
        -6.632459914612809e-09,
        -4.421639943075206e-09,
        1.0
      ],
      "scale": [
        0.42125657200813293,
        3.725290298461914e-09,
        1.210719347000122e-08
      ],
      "translation": [
        9.775653839111328,
        -7.62939453125e-06,
        9.5367431640625e-07
      ]
    },
    {
      "children": [
        44
      ],
      "name": "Bone05",
      "rotation": [
        0.11136467754840851,
        -0.0754275768995285,
        0.7880297303199768,
        0.600764274597168
      ],
      "scale": [
        0.9999997019767761,
        2.2866927906761703e-08,
        6.097871541044242e-09
      ],
      "translation": [
        4.1914520263671875,
        3.242020606994629,
        4.743316173553467
      ]
    },
    {
      "name": "Bone06",
      "rotation": [
        1.14962631414528e-07,
        9.285444946272037e-08,
        -1.3264919829225619e-08,
        1.0
      ],
      "scale": [
        0.42125657200813293,
        -3.72530228887058e-09,
        -6.519242479186005e-09
      ],
      "translation": [
        9.775647163391113,
        -7.62939453125e-06,
        9.5367431640625e-07
      ]
    },
    {
      "children": [
        46
      ],
      "name": "Bone09",
      "rotation": [
        -0.7176153659820557,
        0.16453222930431366,
        0.15742887556552887,
        0.6581589579582214
      ],
      "scale": [
        1.0000003576278687,
        -2.271067067738386e-08,
        -1.3302849932728122e-09
      ],
      "translation": [
        5.556026458740234,
        -0.32675647735595703,
        -0.8303375244140625
      ]
    },
    {
      "name": "Bone10",
      "rotation": [
        5.684341886080802e-14,
        -7.105427357601002e-14,
        7.270142872888823e-27,
        1.0
      ],
      "scale": [
        1.0,
        6.139231108792002e-26,
        3.979039049206018e-13
      ],
      "translation": [
        25.683958053588867,
        0.0,
        4.76837158203125e-07
      ]
    },
    {
      "children": [
        48
      ],
      "name": "Bip01 R Finger2",
      "rotation": [
        0.08983667939901352,
        0.004974718671292067,
        0.055557481944561005,
        0.9943932890892029
      ],
      "scale": [
        0.9999998211860657,
        1.6825504189910134e-07,
        1.1205313654727433e-07
      ],
      "translation": [
        8.273906707763672,
        -0.6917953491210938,
        -1.205906867980957
      ]
    },
    {
      "children": [
        49
      ],
      "name": "Bip01 R Finger21",
      "rotation": [
        -7.3865327188116225e-09,
        2.2396993728391993e-16,
        0.1308388113975525,
        0.9914036393165588
      ],
      "scale": [
        1.0,
        -2.6637678729457548e-08,
        1.9328902922666202e-09
      ],
      "translation": [
        3.085590362548828,
        7.62939453125e-06,
        1.9073486328125e-06
      ]
    },
    {
      "children": [
        50
      ],
      "name": "Bip01 R Finger22",
      "rotation": [
        -2.7184416939718403e-09,
        4.874123327169855e-10,
        0.1308387815952301,
        0.9914036393165588
      ],
      "scale": [
        1.0000001192092896,
        -1.3318844693799292e-08,
        1.6578962203084302e-08
      ],
      "translation": [
        3.0855979919433594,
        0.0,
        0.0
      ]
    },
    {
      "name": "Bip01 R Finger2Nub",
      "rotation": [
        -1.1102231569740545e-16,
        -7.450580596923828e-09,
        0.0,
        1.0
      ],
      "scale": [
        1.0,
        2.9802320611338473e-08,
        0.0
      ],
      "translation": [
        3.085601806640625,
        0.0,
        1.9073486328125e-06
      ]
    },
    {
      "children": [
        52
      ],
      "name": "Bip01 R Finger1",
      "rotation": [
        0.00319846672937274,
        -0.06787998974323273,
        0.041126448661088943,
        0.9968403577804565
      ],
      "scale": [
        1.0000001192092896,
        2.6887548187914945e-07,
        -1.1320297943484547e-07
      ],
      "translation": [
        8.23690414428711,
        -0.86138916015625,
        2.45908260345459
      ]
    },
    {
      "children": [
        53
      ],
      "name": "Bip01 R Finger11",
      "rotation": [
        -1.7415754394178862e-09,
        4.4081422956310234e-09,
        0.1164020225405693,
        0.9932022094726563
      ],
      "scale": [
        0.9999999403953552,
        5.798942481760605e-08,
        1.7112178340994433e-09
      ],
      "translation": [
        3.0103683471679688,
        0.0,
        1.9073486328125e-06
      ]
    },
    {
      "children": [
        54
      ],
      "name": "Bip01 R Finger12",
      "rotation": [
        -2.774974694474963e-09,
        -1.1425122181663028e-08,
        0.1164020299911499,
        0.9932021498680115
      ],
      "scale": [
        0.9999999403953552,
        1.378187519662788e-08,
        3.028554906858716e-10
      ],
      "translation": [
        3.010387420654297,
        0.0,
        -3.814697265625e-06
      ]
    },
    {
      "name": "Bip01 R Finger1Nub",
      "rotation": [
        9.313225746154785e-10,
        0.0,
        3.4694473655439205e-18,
        1.0
      ],
      "scale": [
        1.0,
        -1.3877787807814457e-17,
        -7.450580596923828e-09
      ],
      "translation": [
        3.0103721618652344,
        7.62939453125e-06,
        1.9073486328125e-06
      ]
    },
    {
      "children": [
        56
      ],
      "name": "Bip01 R Finger0",
      "rotation": [
        -0.6828780770301819,
        -0.25692251324653625,
        -0.1345289945602417,
        0.6705000996589661
      ],
      "scale": [
        1.0000003576278687,
        1.7935022356141417e-07,
        4.017627759367315e-07
      ],
      "translation": [
        0.5431480407714844,
        0.00775146484375,
        2.5511600971221924
      ]
    },
    {
      "children": [
        57
      ],
      "name": "Bip01 R Finger01",
      "rotation": [
        -9.134459411086482e-09,
        0.0,
        0.1164020448923111,
        0.9932021498680115
      ],
      "scale": [
        0.9999998211860657,
        1.5212835435818306e-08,
        -2.7675779890046215e-08
      ],
      "translation": [
        3.7950172424316406,
        1.9073486328125e-06,
        -7.62939453125e-06
      ]
    },
    {
      "children": [
        58
      ],
      "name": "Bip01 R Finger02",
      "rotation": [
        5.3767617025357595e-09,
        -7.94197063669344e-09,
        0.1164020225405693,
        0.9932022094726563
      ],
      "scale": [
        1.0,
        -1.664380455679293e-08,
        4.257694641296439e-08
      ],
      "translation": [
        3.795013427734375,
        0.0,
        0.0
      ]
    },
    {
      "name": "Bip01 R Finger0Nub",
      "rotation": [
        -9.313225746154785e-10,
        -2.2351741790771484e-08,
        -1.3969838619232178e-09,
        1.0
      ],
      "scale": [
        1.0,
        9.313224635931761e-10,
        1.4901161193847656e-08
      ],
      "translation": [
        3.795013427734375,
        0.0,
        7.62939453125e-06
      ]
    },
    {
      "children": [
        60
      ],
      "name": "Bone01",
      "rotation": [
        0.7176151275634766,
        -0.16453497111797333,
        0.1574275642633438,
        0.6581589579582214
      ],
      "scale": [
        1.000000238418579,
        -1.466822254769795e-07,
        1.3227946737970342e-08
      ],
      "translation": [
        5.5560302734375,
        -0.3267979621887207,
        0.830352783203125
      ]
    },
    {
      "name": "Bone02",
      "rotation": [
        -7.105427357601002e-15,
        1.4210854715202004e-14,
        7.450580596923828e-09,
        1.0
      ],
      "scale": [
        1.0,
        0.0,
        -2.1316282072803006e-14
      ],
      "translation": [
        25.683956146240234,
        -1.52587890625e-05,
        4.76837158203125e-07
      ]
    },
    {
      "children": [
        62
      ],
      "name": "Bip01 L Finger2",
      "rotation": [
        -0.08983667939901352,
        -0.004974718671292067,
        0.0555574931204319,
        0.9943932890892029
      ],
      "scale": [
        0.9999998807907104,
        1.3771941098639218e-07,
        -1.2401669380324165e-07
      ],
      "translation": [
        8.273902893066406,
        -0.691802978515625,
        1.2059063911437988
      ]
    },
    {
      "children": [
        63
      ],
      "name": "Bip01 L Finger21",
      "rotation": [
        1.1810917577292912e-08,
        -2.3340454013975886e-09,
        0.1308387964963913,
        0.9914036393165588
      ],
      "scale": [
        1.0000001192092896,
        1.3318842917442453e-08,
        7.182544781159095e-09
      ],
      "translation": [
        3.0855979919433594,
        -7.62939453125e-06,
        0.0
      ]
    },
    {
      "children": [
        64
      ],
      "name": "Bip01 L Finger22",
      "rotation": [
        4.874123327169855e-10,
        -2.7184416939718403e-09,
        0.1308387815952301,
        0.9914036393165588
      ],
      "scale": [
        1.0000001192092896,
        1.5463118785419283e-08,
        9.383470889190448e-09
      ],
      "translation": [
        3.0855979919433594,
        0.0,
        0.0
      ]
    },
    {
      "name": "Bip01 L Finger2Nub",
      "rotation": [
        -1.862645149230957e-09,
        7.450580152834618e-09,
        -7.450580152834618e-09,
        1.0
      ],
      "scale": [
        1.0000001192092896,
        1.4901162970204496e-08,
        1.4901162970204496e-08
      ],
      "translation": [
        3.085601806640625,
        7.62939453125e-06,
        0.0
      ]
    },
    {
      "children": [
        66
      ],
      "name": "Bip01 L Finger1",
      "rotation": [
        -0.003198464633896947,
        0.06787997484207153,
        0.04112643003463745,
        0.9968403577804565
      ],
      "scale": [
        1.0000001192092896,
        2.685777928945754e-07,
        1.1088844331652581e-07
      ],
      "translation": [
        8.236907958984375,
        -0.8613967895507813,
        -2.459083080291748
      ]
    },
    {
      "children": [
        67
      ],
      "name": "Bip01 L Finger11",
      "rotation": [
        -7.616748121108685e-09,
        -5.98358118608644e-09,
        0.1164020374417305,
        0.9932021498680115
      ],
      "scale": [
        1.0,
        4.206110659765727e-08,
        -2.6620203819049948e-09
      ],
      "translation": [
        3.0103721618652344,
        0.0,
        0.0
      ]
    },
    {
      "children": [
        68
      ],
      "name": "Bip01 L Finger12",
      "rotation": [
        5.607678765784385e-09,
        7.588548678327811e-10,
        0.1164020299911499,
        0.9932021498680115
      ],
      "scale": [
        0.9999998211860657,
        2.8994712408803025e-08,
        -1.4699256034589325e-08
      ],
      "translation": [
        3.0103759765625,
        1.52587890625e-05,
        9.5367431640625e-07
      ]
    },
    {
      "name": "Bip01 L Finger1Nub",
      "rotation": [
        -9.313225746154785e-10,
        -1.862645149230957e-09,
        -7.450580596923828e-09,
        1.0
      ],
      "scale": [
        1.0,
        1.4901161193847656e-08,
        3.725290076417309e-09
      ],
      "translation": [
        3.0103797912597656,
        0.0,
        0.0
      ]
    },
    {
      "children": [
        70
      ],
      "name": "Bip01 L Finger0",
      "rotation": [
        0.6828780174255371,
        0.25692248344421387,
        -0.1345289945602417,
        0.6705000996589661
      ],
      "scale": [
        1.0000004768371582,
        1.4185344809902745e-07,
        -3.4762231848617375e-07
      ],
      "translation": [
        0.5431480407714844,
        0.00775146484375,
        -2.551161050796509
      ]
    },
    {
      "children": [
        71
      ],
      "name": "Bip01 L Finger01",
      "rotation": [
        1.1178218366043137e-16,
        -1.5667129815710723e-08,
        0.1164020448923111,
        0.9932021498680115
      ],
      "scale": [
        0.9999999403953552,
        -7.154796755060033e-10,
        -1.3189285219539215e-09
      ],
      "translation": [
        3.7950096130371094,
        0.0,
        1.52587890625e-05
      ]
    },
    {
      "children": [
        72
      ],
      "name": "Bip01 L Finger02",
      "rotation": [
        4.682687571033739e-09,
        2.2850244363326055e-08,
        0.1164020225405693,
        0.9932022094726563
      ],
      "scale": [
        1.0,
        -1.378187430844946e-08,
        -1.53049661832938e-08
      ],
      "translation": [
        3.7950172424316406,
        -1.9073486328125e-06,
        -7.62939453125e-06
      ]
    },
    {
      "name": "Bip01 L Finger0Nub",
      "rotation": [
        3.725290742551124e-09,
        -7.450581485102248e-09,
        2.7939679458910405e-09,
        1.0
      ],
      "scale": [
        0.9999998807907104,
        -5.587934559514451e-09,
        1.4901159417490817e-08
      ],
      "translation": [
        3.7950172424316406,
        0.0,
        0.0
      ]
    },
    {
      "children": [
        74,
        80
      ],
      "name": "Bip01 Head",
      "rotation": [
        -1.5619198734384554e-07,
        3.5344910997991974e-08,
        0.00976831465959549,
        0.9999522566795349
      ],
      "scale": [
        1.000000238418579,
        -1.6108998579511535e-07,
        -9.256361011011904e-08
      ],
      "translation": [
        8.948715209960938,
        -1.9073486328125e-06,
        0.0
      ]
    },
    {
      "children": [
        75
      ],
      "name": "Bip01 Ponytail1",
      "rotation": [
        1.9190846828331942e-12,
        -2.7727053293347126e-06,
        0.999677300453186,
        -0.0254015251994133
      ],
      "scale": [
        1.0,
        -3.026339845391135e-09,
        -6.196426157551935e-14
      ],
      "translation": [
        16.320892333984375,
        -17.09018325805664,
        0.031389594078063965
      ]
    },
    {
      "children": [
        76
      ],
      "name": "Bip01 Ponytail11",
      "rotation": [
        2.259137159028174e-13,
        3.766511156300112e-07,
        -0.1357986032962799,
        0.9907364845275879
      ],
      "scale": [
        1.0,
        7.634667095572645e-14,
        1.8100413068334806e-14
      ],
      "translation": [
        12.657058715820313,
        -0.00971221923828125,
        -2.6542693376541138e-08
      ]
    },
    {
      "children": [
        77
      ],
      "name": "Bip01 Ponytail12",
      "rotation": [
        -1.1420756647253366e-13,
        1.0159087793226718e-07,
        -0.03662780299782753,
        0.9993289709091187
      ],
      "scale": [
        0.9999999403953552,
        1.2963006223998264e-09,
        5.415502183655054e-15
      ],
      "translation": [
        12.65899658203125,
        -0.010051727294921875,
        -2.8405338525772095e-08
      ]
    },
    {
      "children": [
        78
      ],
      "name": "Bip01 Ponytail13",
      "rotation": [
        1.1420087152411856e-13,
        -4.4104023544377924e-08,
        0.015901368111371994,
        0.9998735785484314
      ],
      "scale": [
        1.0,
        -1.2369005076561814e-16,
        -2.4344031835949603e-14
      ],
      "translation": [
        12.660064697265625,
        -0.01007843017578125,
        -2.7474015951156616e-08
      ]
    },
    {
      "children": [
        79
      ],
      "name": "Bip01 Ponytail14",
      "rotation": [
        9.99514124353125e-16,
        -6.945331421093215e-08,
        0.025040846318006516,
        0.9996864199638367
      ],
      "scale": [
        0.9999998807907104,
        1.4729057973283943e-09,
        4.7618017114028216e-14
      ],
      "translation": [
        12.660240173339844,
        -0.010068893432617188,
        -2.8405338525772095e-08
      ]
    },
    {
      "name": "Bip01 Ponytail1Nub",
      "rotation": [
        0.7073882222175598,
        0.7068251967430115,
        9.802253089219448e-07,
        -9.810062238102546e-07
      ],
      "scale": [
        0.9999999403953552,
        -6.125627925095221e-15,
        -8.242215368331127e-14
      ],
      "translation": [
        12.659751892089844,
        0.0,
        4.656612873077393e-10
      ]
    },
    {
      "name": "Bip01 HeadNub",
      "rotation": [
        -2.842170943040401e-14,
        1.4210854715202004e-14,
        7.068194673745238e-28,
        1.0
      ],
      "scale": [
        0.9999999403953552,
        4.0389678347315804e-28,
        -2.842170943040401e-14
      ],
      "translation": [
        20.872726440429688,
        0.0,
        0.0
      ]
    }
  ],
  "scene": 0,
  "scenes": [
    {
      "nodes": [
        0
      ]
    }
  ],
  "skins": [
    {
      "inverseBindMatrices": 8,
      "joints": [
        3,
        4,
        5,
        6,
        7,
        8,
        9,
        10,
        11,
        12,
        13,
        14,
        15,
        16,
        17,
        18,
        19,
        20,
        21,
        22,
        23,
        24,
        25,
        26,
        27,
        28,
        29,
        30,
        31,
        32,
        33,
        34,
        35,
        36,
        37,
        38,
        39,
        40,
        41,
        42,
        43,
        44,
        45,
        46,
        47,
        48,
        49,
        50,
        51,
        52,
        53,
        54,
        55,
        56,
        57,
        58,
        59,
        60,
        61,
        62,
        63,
        64,
        65,
        66,
        67,
        68,
        69,
        70,
        71,
        72,
        73,
        74,
        75,
        76,
        77,
        78,
        79,
        80
      ],
      "skeleton": 3
    }
  ]
}
