{
  "accessors": [
    {
      "bufferView": 0,
      "componentType": 5126,
      "count": 143,
      "max": [
        161.26904296875,
        161.06871032714844,
        158.52037048339844
      ],
      "min": [
        -9.075820922851563,
        -10.332450866699219,
        -10.10906982421875
      ],
      "type": "VEC3"
    },
    {
      "bufferView": 1,
      "componentType": 5126,
      "count": 143,
      "type": "VEC3"
    },
    {
      "bufferView": 2,
      "componentType": 5126,
      "count": 143,
      "type": "VEC2"
    },
    {
      "bufferView": 3,
      "componentType": 5123,
      "count": 762,
      "type": "SCALAR"
    },
    {
      "bufferView": 4,
      "componentType": 5126,
      "count": 1436,
      "max": [
        161.26904296875,
        161.06871032714844,
        158.52037048339844
      ],
      "min": [
        -67.84130096435547,
        -68.74108123779297,
        -66.92500305175781
      ],
      "type": "VEC3"
    },
    {
      "bufferView": 5,
      "componentType": 5126,
      "count": 1436,
      "type": "VEC3"
    },
    {
      "bufferView": 6,
      "componentType": 5126,
      "count": 1436,
      "type": "VEC2"
    },
    {
      "bufferView": 7,
      "componentType": 5123,
      "count": 6474,
      "type": "SCALAR"
    },
    {
      "bufferView": 8,
      "componentType": 5126,
      "count": 47,
      "type": "MAT4"
    }
  ],
  "asset": {
    "generator": "gr2togltf (ANKA2 Project)",
    "version": "2.0"
  },
  "bufferViews": [
    {
      "buffer": 0,
      "byteLength": 1716,
      "target": 34962
    },
    {
      "buffer": 0,
      "byteLength": 1716,
      "byteOffset": 1716,
      "target": 34962
    },
    {
      "buffer": 0,
      "byteLength": 1144,
      "byteOffset": 3432,
      "target": 34962
    },
    {
      "buffer": 0,
      "byteLength": 1524,
      "byteOffset": 4576,
      "target": 34963
    },
    {
      "buffer": 0,
      "byteLength": 17232,
      "byteOffset": 6100,
      "target": 34962
    },
    {
      "buffer": 0,
      "byteLength": 17232,
      "byteOffset": 23332,
      "target": 34962
    },
    {
      "buffer": 0,
      "byteLength": 11488,
      "byteOffset": 40564,
      "target": 34962
    },
    {
      "buffer": 0,
      "byteLength": 12948,
      "byteOffset": 52052,
      "target": 34963
    },
    {
      "buffer": 0,
      "byteLength": 3008,
      "byteOffset": 65000
    }
  ],
  "buffers": [
    {
      "byteLength": 68008,
      "uri": "data:application/octet-stream;base64,"
    }
  ],
  "materials": [
    {
      "name": "default",
      "pbrMetallicRoughness": {
        "baseColorFactor": [
          0.8,
          0.8,
          0.8,
          1.0
        ],
        "metallicFactor": 0.0,
        "roughnessFactor": 0.8
      }
    }
  ],
  "meshes": [
    {
      "name": "assassin_face",
      "primitives": [
        {
          "attributes": {
            "NORMAL": 1,
            "POSITION": 0,
            "TEXCOORD_0": 2
          },
          "indices": 3,
          "material": 0,
          "mode": 4
        }
      ]
    },
    {
      "name": "body01",
      "primitives": [
        {
          "attributes": {
            "NORMAL": 5,
            "POSITION": 4,
            "TEXCOORD_0": 6
          },
          "indices": 7,
          "material": 0,
          "mode": 4
        }
      ]
    }
  ],
  "nodes": [
    {
      "children": [
        1,
        2,
        3
      ]
    },
    {
      "mesh": 0,
      "name": "assassin_face",
      "skin": 0
    },
    {
      "mesh": 1,
      "name": "body01",
      "skin": 0
    },
    {
      "children": [
        4
      ],
      "name": "Bip01",
      "rotation": [
        0.0,
        0.0,
        0.0,
        0.9999999403953552
      ],
      "scale": [
        0.9999997019767761,
        -1.3359980981751673e-13,
        0.0
      ],
      "translation": [
        1.7763568394002505e-15,
        0.0,
        0.0
      ]
    },
    {
      "children": [
        5
      ],
      "name": "Bip01 Pelvis",
      "rotation": [
        -0.4999993145465851,
        -0.5,
        -0.5,
        0.5000006556510925
      ],
      "scale": [
        1.0,
        5.1399245505243465e-20,
        8.265705963650741e-14
      ],
      "translation": [
        -0.43055224418640137,
        -0.013545965775847435,
        0.0
      ]
    },
    {
      "children": [
        6,
        14,
        31
      ],
      "name": "Bip01 Spine",
      "rotation": [
        2.199636128352722e-06,
        0.00045840319944545627,
        -0.008512724190950394,
        0.999963641166687
      ],
      "scale": [
        1.0000001192092896,
        2.6206861125643854e-09,
        7.218286385279882e-11
      ],
      "translation": [
        9.231704711914063,
        -0.006681770086288452,
        1.2808479368686676e-05
      ]
    },
    {
      "children": [
        7
      ],
      "name": "Bip01 Spine1",
      "rotation": [
        -3.0525996769399655e-14,
        -5.80622572243783e-09,
        0.002097886987030506,
        0.9999977946281433
      ],
      "scale": [
        1.0,
        -9.313143589650963e-10,
        -2.910163256208964e-11
      ],
      "translation": [
        8.398155212402344,
        -0.010102152824401855,
        -2.9802322387695313e-08
      ]
    },
    {
      "children": [
        8
      ],
      "name": "Bip01 Spine2",
      "rotation": [
        9.88247136034237e-13,
        9.602741357639388e-08,
        -0.03463052213191986,
        0.9994001984596252
      ],
      "scale": [
        1.0000001192092896,
        6.613813940958835e-09,
        8.727295275345881e-11
      ],
      "translation": [
        12.686180114746094,
        -0.010077834129333496,
        -1.4901161193847656e-08
      ]
    },
    {
      "children": [
        9,
        18,
        35
      ],
      "name": "Bip01 Neck",
      "rotation": [
        -3.490446033538319e-05,
        -0.00045816993224434555,
        0.1399218589067459,
        0.9901624321937561
      ],
      "scale": [
        1.0,
        -2.0756235841190573e-08,
        6.587219051473747e-12
      ],
      "translation": [
        14.334159851074219,
        -3.4407691955566406,
        -3.4421682357788086e-06
      ]
    },
    {
      "children": [
        10
      ],
      "name": "Bip01 Head",
      "rotation": [
        -6.110875694353979e-12,
        -2.7123627788228077e-08,
        0.009768256917595863,
        0.9999522566795349
      ],
      "scale": [
        1.0000001192092896,
        1.5831384203579546e-08,
        1.5840585136997487e-12
      ],
      "translation": [
        8.948715209960938,
        0.0,
        0.0
      ]
    },
    {
      "children": [
        11
      ],
      "name": "Bip01 Ponytail1",
      "rotation": [
        1.9261924954355747e-12,
        -2.7727053293347126e-06,
        0.999677300453186,
        -0.025401543825864792
      ],
      "scale": [
        1.0000001192092896,
        -4.413062359986952e-09,
        -2.2762621323425825e-14
      ],
      "translation": [
        16.320892333984375,
        -17.09018325805664,
        0.03138930723071098
      ]
    },
    {
      "children": [
        12
      ],
      "name": "Bip01 Ponytail11",
      "rotation": [
        -7.171864386818893e-15,
        3.766506608826603e-07,
        -0.13579846918582916,
        0.9907364845275879
      ],
      "scale": [
        1.0000001192092896,
        -1.603840082964325e-08,
        4.901162686961856e-14
      ],
      "translation": [
        12.657028198242188,
        -0.00971221923828125,
        -2.60770320892334e-08
      ]
    },
    {
      "children": [
        13
      ],
      "name": "Bip01 Ponytail12",
      "rotation": [
        -8.887748367741107e-16,
        1.0159112662222469e-07,
        -0.03662789240479469,
        0.9993289709091187
      ],
      "scale": [
        1.0000001192092896,
        -7.430588144785588e-09,
        -1.9980932937390707e-14
      ],
      "translation": [
        12.658981323242188,
        -0.010053634643554688,
        -2.7939677238464355e-08
      ]
    },
    {
      "name": "Bip01 Ponytail13",
      "rotation": [
        1.1475606435159408e-13,
        -4.41036256404459e-08,
        0.015901217237114906,
        0.9998735785484314
      ],
      "scale": [
        1.0000001192092896,
        9.342145723678641e-09,
        4.355889970551405e-14
      ],
      "translation": [
        12.660079956054688,
        -0.010073661804199219,
        -2.7939677238464355e-08
      ]
    },
    {
      "children": [
        15
      ],
      "name": "Bip01 R Thigh",
      "rotation": [
        -0.0017406422412022948,
        0.9993849396705627,
        -0.012854011729359627,
        0.032579731196165085
      ],
      "scale": [
        1.0000001192092896,
        9.05034935883009e-10,
        5.961324767156384e-09
      ],
      "translation": [
        -9.223114013671875,
        -0.1504669189453125,
        -8.036138534545898
      ]
    },
    {
      "children": [
        16
      ],
      "name": "Bip01 R Calf",
      "rotation": [
        1.476880062689645e-09,
        -3.883916299685097e-09,
        -0.09983320534229279,
        0.9950041770935059
      ],
      "scale": [
        1.0000001192092896,
        2.762541306822186e-09,
        1.6436933411578813e-11
      ],
      "translation": [
        40.138328552246094,
        0.0,
        9.5367431640625e-07
      ]
    },
    {
      "children": [
        17
      ],
      "name": "Bip01 R Foot",
      "rotation": [
        0.06932652741670609,
        0.038423802703619,
        0.09007467329502106,
        0.9927759170532227
      ],
      "scale": [
        0.9999999403953552,
        1.2885747580071438e-08,
        1.5653611740162887e-10
      ],
      "translation": [
        40.13832092285156,
        9.5367431640625e-07,
        -9.5367431640625e-07
      ]
    },
    {
      "name": "Bip01 R Toe0",
      "rotation": [
        1.8088487152567723e-08,
        1.2820132511137672e-08,
        0.7071067690849304,
        0.7071067690849304
      ],
      "scale": [
        0.9999999403953552,
        -3.227037769152458e-15,
        -7.450578820566989e-09
      ],
      "translation": [
        13.162713050842285,
        12.053354263305664,
        0.0
      ]
    },
    {
      "children": [
        19
      ],
      "name": "Bip01 R Clavicle",
      "rotation": [
        -0.579227089881897,
        0.08922643214464188,
        0.8029547929763794,
        0.10861968249082565
      ],
      "scale": [
        1.000000238418579,
        1.3151737476846392e-09,
        -6.08215486863628e-08
      ],
      "translation": [
        -1.067474365234375,
        1.0830726623535156,
        -2.8085200786590576
      ]
    },
    {
      "children": [
        20
      ],
      "name": "Bip01 R UpperArm",
      "rotation": [
        -0.04123351350426674,
        -0.11716581135988235,
        0.009602156467735767,
        0.9922095537185669
      ],
      "scale": [
        1.0000001192092896,
        -4.730378755368747e-09,
        4.773719197714854e-08
      ],
      "translation": [
        11.362136840820313,
        4.76837158203125e-07,
        0.0
      ]
    },
    {
      "children": [
        21
      ],
      "name": "Bip01 R ForeArm",
      "rotation": [
        2.8950894459534027e-10,
        -2.981479951813526e-08,
        -0.04301733896136284,
        0.9990743398666382
      ],
      "scale": [
        0.9999998807907104,
        2.8236331051090247e-09,
        2.985748182027237e-08
      ],
      "translation": [
        24.08300018310547,
        -4.76837158203125e-07,
        0.0
      ]
    },
    {
      "children": [
        22,
        25,
        28,
        48
      ],
      "name": "Bip01 R Hand",
      "rotation": [
        0.7058848142623901,
        0.03647807613015175,
        -0.03644903749227524,
        0.7064470648765564
      ],
      "scale": [
        1.0,
        -3.473360976613549e-08,
        6.37664365754631e-10
      ],
      "translation": [
        24.082996368408203,
        0.0,
        -7.62939453125e-06
      ]
    },
    {
      "children": [
        23
      ],
      "name": "Bip01 R Finger0",
      "rotation": [
        -0.6828780770301819,
        -0.2569224238395691,
        -0.13452890515327454,
        0.6705000996589661
      ],
      "scale": [
        1.0000001192092896,
        3.5064566361597826e-08,
        2.8926475437174304e-08
      ],
      "translation": [
        0.54315185546875,
        0.00774383544921875,
        2.551161766052246
      ]
    },
    {
      "children": [
        24
      ],
      "name": "Bip01 R Finger01",
      "rotation": [
        9.134461187443321e-09,
        -1.3065337256534804e-08,
        0.11640222370624542,
        0.9932021498680115
      ],
      "scale": [
        1.0,
        -5.798942126489237e-08,
        3.152505811954143e-08
      ],
      "translation": [
        3.795013427734375,
        -1.9073486328125e-06,
        -7.62939453125e-06
      ]
    },
    {
      "name": "Bip01 R Finger02",
      "rotation": [
        -1.1157627710645102e-08,
        -2.3609102228761003e-08,
        0.11640220135450363,
        0.9932021498680115
      ],
      "scale": [
        0.9999999403953552,
        -2.6848333334328345e-08,
        1.530496795965064e-08
      ],
      "translation": [
        3.7950172424316406,
        3.814697265625e-06,
        0.0
      ]
    },
    {
      "children": [
        26
      ],
      "name": "Bip01 R Finger1",
      "rotation": [
        0.0031985866371542215,
        -0.06788016110658646,
        0.04112652689218521,
        0.9968403577804565
      ],
      "scale": [
        1.0,
        -9.962183966649718e-09,
        1.5695651001124133e-08
      ],
      "translation": [
        8.23690414428711,
        -0.8613967895507813,
        2.4590837955474854
      ]
    },
    {
      "children": [
        27
      ],
      "name": "Bip01 R Finger11",
      "rotation": [
        -1.0840803255085518e-10,
        -4.913596196587378e-10,
        0.11640219390392303,
        0.9932021498680115
      ],
      "scale": [
        1.0000001192092896,
        1.3781894736553113e-08,
        -9.50800993493317e-10
      ],
      "translation": [
        3.0103607177734375,
        -7.62939453125e-06,
        1.9073486328125e-06
      ]
    },
    {
      "name": "Bip01 R Finger12",
      "rotation": [
        5.9835816301756495e-09,
        -3.049518859654654e-09,
        0.11640219390392303,
        0.9932021498680115
      ],
      "scale": [
        0.9999998807907104,
        -2.8994710632446186e-08,
        7.450580596923828e-09
      ],
      "translation": [
        3.0103836059570313,
        7.62939453125e-06,
        -1.9073486328125e-06
      ]
    },
    {
      "children": [
        29
      ],
      "name": "Bip01 R Finger2",
      "rotation": [
        0.08983657509088516,
        0.004974632523953915,
        0.0555575005710125,
        0.9943932890892029
      ],
      "scale": [
        1.0000001192092896,
        -3.988501617868678e-08,
        1.609799582524829e-08
      ],
      "translation": [
        8.273910522460938,
        -0.6917953491210938,
        -1.2059059143066406
      ]
    },
    {
      "children": [
        30
      ],
      "name": "Bip01 R Finger21",
      "rotation": [
        -3.2058542487334307e-09,
        4.180678470078192e-09,
        0.13083870708942413,
        0.9914036393165588
      ],
      "scale": [
        0.9999999403953552,
        -2.1442581044084363e-09,
        9.128379829803634e-09
      ],
      "translation": [
        3.085590362548828,
        7.62939453125e-06,
        0.0
      ]
    },
    {
      "name": "Bip01 R Finger22",
      "rotation": [
        -7.3865327188116225e-09,
        1.1198496864195997e-16,
        0.13083870708942413,
        0.9914036393165588
      ],
      "scale": [
        0.9999999403953552,
        -1.5463111679991925e-08,
        1.9328887379543858e-09
      ],
      "translation": [
        3.0856094360351563,
        -1.52587890625e-05,
        0.0
      ]
    },
    {
      "children": [
        32
      ],
      "name": "Bip01 L Thigh",
      "rotation": [
        -0.0017525114817544818,
        0.9994144439697266,
        0.012854451313614845,
        -0.03166196867823601
      ],
      "scale": [
        1.0000001192092896,
        9.431764258494013e-10,
        3.040020901678986e-09
      ],
      "translation": [
        -9.23785400390625,
        -0.15049970149993896,
        8.019186973571777
      ]
    },
    {
      "children": [
        33
      ],
      "name": "Bip01 L Calf",
      "rotation": [
        -1.0447794851486947e-09,
        1.9622969915644717e-09,
        -0.09983319789171219,
        0.9950041770935059
      ],
      "scale": [
        1.0,
        -9.07904684765981e-09,
        -3.754200950112363e-09
      ],
      "translation": [
        40.138328552246094,
        0.0,
        -9.5367431640625e-07
      ]
    },
    {
      "children": [
        34
      ],
      "name": "Bip01 L Foot",
      "rotation": [
        -0.06932654231786728,
        -0.03842370957136154,
        0.09007466584444046,
        0.9927759170532227
      ],
      "scale": [
        1.0,
        -6.275744368622327e-09,
        -7.355255071672673e-09
      ],
      "translation": [
        40.138328552246094,
        0.0,
        9.5367431640625e-07
      ]
    },
    {
      "name": "Bip01 L Toe0",
      "rotation": [
        -1.5454309831852697e-08,
        -1.5454309831852697e-08,
        0.7071067094802856,
        0.7071067690849304
      ],
      "scale": [
        1.0000001192092896,
        1.7763570511584873e-15,
        -5.933408091396842e-16
      ],
      "translation": [
        13.162713050842285,
        12.05335521697998,
        0.0
      ]
    },
    {
      "children": [
        36
      ],
      "name": "Bip01 L Clavicle",
      "rotation": [
        0.5799686312675476,
        -0.0892895832657814,
        0.8024171590805054,
        0.10858380049467087
      ],
      "scale": [
        1.000000238418579,
        -7.356630860044788e-10,
        4.165273992384755e-08
      ],
      "translation": [
        -1.0624237060546875,
        1.0819511413574219,
        2.8108513355255127
      ]
    },
    {
      "children": [
        37
      ],
      "name": "Bip01 L UpperArm",
      "rotation": [
        0.041231583803892136,
        0.11807733029127121,
        0.009625191800296307,
        0.9921013116836548
      ],
      "scale": [
        1.0,
        6.444792477466876e-10,
        -1.7402523866394404e-08
      ],
      "translation": [
        11.362140655517578,
        9.5367431640625e-07,
        0.0
      ]
    },
    {
      "children": [
        38
      ],
      "name": "Bip01 L ForeArm",
      "rotation": [
        6.410084130159532e-10,
        2.9774735565979427e-08,
        -0.04301733896136284,
        0.9990743398666382
      ],
      "scale": [
        1.0,
        5.123319546385119e-09,
        -2.9857467609417654e-08
      ],
      "translation": [
        24.082992553710938,
        -4.76837158203125e-07,
        -7.62939453125e-06
      ]
    },
    {
      "children": [
        39,
        42,
        45,
        49
      ],
      "name": "Bip01 L Hand",
      "rotation": [
        -0.7058848142623901,
        -0.03647807240486145,
        -0.03644903376698494,
        0.7064470648765564
      ],
      "scale": [
        1.0,
        -3.812783422318944e-09,
        -1.5644369133482883e-09
      ],
      "translation": [
        24.08300018310547,
        9.5367431640625e-07,
        7.62939453125e-06
      ]
    },
    {
      "children": [
        40
      ],
      "name": "Bip01 L Finger0",
      "rotation": [
        0.6828780770301819,
        0.2569223940372467,
        -0.13452893495559692,
        0.6705000996589661
      ],
      "scale": [
        0.9999999403953552,
        2.1433455899000364e-08,
        -3.670124115728868e-08
      ],
      "translation": [
        0.54315185546875,
        0.00775146484375,
        -2.5511608123779297
      ]
    },
    {
      "children": [
        41
      ],
      "name": "Bip01 L Finger01",
      "rotation": [
        -4.567230149632451e-09,
        6.966300425403915e-09,
        0.11640220135450363,
        0.9932021498680115
      ],
      "scale": [
        1.0,
        -2.9710170323937746e-08,
        -1.4901161193847656e-08
      ],
      "translation": [
        3.795013427734375,
        -3.814697265625e-06,
        -1.52587890625e-05
      ]
    },
    {
      "name": "Bip01 L Finger02",
      "rotation": [
        1.0117179982671587e-08,
        7.616748121108685e-09,
        0.11640220135450363,
        0.9932021498680115
      ],
      "scale": [
        1.0,
        7.154594139358039e-10,
        1.2774618696198559e-08
      ],
      "translation": [
        3.7950210571289063,
        3.814697265625e-06,
        0.0
      ]
    },
    {
      "children": [
        43
      ],
      "name": "Bip01 L Finger1",
      "rotation": [
        -0.003198582911863923,
        0.06788016110658646,
        0.04112650081515312,
        0.9968403577804565
      ],
      "scale": [
        1.0,
        -4.172933287804881e-08,
        1.2735140053621308e-08
      ],
      "translation": [
        8.23691177368164,
        -0.86138916015625,
        -2.4590821266174316
      ]
    },
    {
      "children": [
        44
      ],
      "name": "Bip01 L Finger11",
      "rotation": [
        -2.0667989542033638e-09,
        -5.33313304629246e-09,
        0.11640219390392303,
        0.9932021498680115
      ],
      "scale": [
        1.0,
        4.27766053689993e-08,
        -2.6620186055481554e-09
      ],
      "translation": [
        3.010364532470703,
        -7.62939453125e-06,
        -9.5367431640625e-07
      ]
    },
    {
      "name": "Bip01 L Finger12",
      "rotation": [
        -4.567230149632451e-09,
        7.833564019676942e-09,
        0.11640222370624542,
        0.9932021498680115
      ],
      "scale": [
        1.0,
        -1.5212812343179394e-08,
        -1.3178426350179961e-08
      ],
      "translation": [
        3.010387420654297,
        0.0,
        2.86102294921875e-06
      ]
    },
    {
      "children": [
        46
      ],
      "name": "Bip01 L Finger2",
      "rotation": [
        -0.08983656764030457,
        -0.004974633455276489,
        0.0555574856698513,
        0.9943932890892029
      ],
      "scale": [
        0.9999999403953552,
        -2.3961368000868788e-08,
        -5.01583130585459e-09
      ],
      "translation": [
        8.273914337158203,
        -0.6917877197265625,
        1.2059063911437988
      ]
    },
    {
      "children": [
        47
      ],
      "name": "Bip01 L Finger21",
      "rotation": [
        -3.936972525764304e-09,
        -2.334044957308379e-09,
        0.13083870708942413,
        0.9914036393165588
      ],
      "scale": [
        1.0,
        -4.424507693556734e-08,
        -3.5977458789915318e-09
      ],
      "translation": [
        3.0856056213378906,
        0.0,
        0.0
      ]
    },
    {
      "name": "Bip01 L Finger22",
      "rotation": [
        9.74824443389366e-10,
        9.74824443389366e-10,
        0.13083870708942413,
        0.9914036393165588
      ],
      "scale": [
        0.9999999403953552,
        -3.092622335998385e-08,
        1.6578960426727463e-08
      ],
      "translation": [
        3.0856056213378906,
        0.0,
        -1.9073486328125e-06
      ]
    },
    {
      "name": "equip_right",
      "rotation": [
        7.729975948223e-08,
        5.490145440489869e-07,
        -1.7881390590446244e-07,
        1.0
      ],
      "scale": [
        1.0000003576278687,
        -2.9802340151263707e-08,
        3.818450977632892e-08
      ],
      "translation": [
        2.417022705078125,
        -2.9430618286132813,
        -0.077728271484375
      ]
    },
    {
      "name": "equip_left",
      "rotation": [
        -2.8219091063874657e-07,
        -8.768405450609862e-07,
        -2.0116569032779807e-07,
        1.0
      ],
      "scale": [
        1.0000001192092896,
        -1.4901582190418594e-08,
        -4.6576054124614075e-09
      ],
      "translation": [
        -0.7461585998535156,
        -0.9920120239257813,
        -0.19039201736450195
      ]
    }
  ],
  "scene": 0,
  "scenes": [
    {
      "nodes": [
        0
      ]
    }
  ],
  "skins": [
    {
      "inverseBindMatrices": 8,
      "joints": [
        3,
        4,
        5,
        6,
        7,
        8,
        9,
        10,
        11,
        12,
        13,
        14,
        15,
        16,
        17,
        18,
        19,
        20,
        21,
        22,
        23,
        24,
        25,
        26,
        27,
        28,
        29,
        30,
        31,
        32,
        33,
        34,
        35,
        36,
        37,
        38,
        39,
        40,
        41,
        42,
        43,
        44,
        45,
        46,
        47,
        48,
        49
      ],
      "skeleton": 3
    }
  ]
}
