{
  "accessors": [
    {
      "bufferView": 0,
      "componentType": 5126,
      "count": 143,
      "max": [
        8.979996681213379,
        2.4974145889282227,
        161.26902770996094
      ],
      "min": [
        -9.022232055664063,
        -10.332442283630371,
        143.18035888671875
      ],
      "type": "VEC3"
    },
    {
      "bufferView": 1,
      "componentType": 5126,
      "count": 143,
      "type": "VEC3"
    },
    {
      "bufferView": 2,
      "componentType": 5126,
      "count": 143,
      "type": "VEC2"
    },
    {
      "bufferView": 3,
      "componentType": 5123,
      "count": 762,
      "type": "SCALAR"
    },
    {
      "bufferView": 4,
      "componentType": 5126,
      "count": 2341,
      "max": [
        149.97439575195313,
        147.0182647705078,
        161.26902770996094
      ],
      "min": [
        -68.9308853149414,
        -64.82976531982422,
        -68.14534759521484
      ],
      "type": "VEC3"
    },
    {
      "bufferView": 5,
      "componentType": 5126,
      "count": 2341,
      "type": "VEC3"
    },
    {
      "bufferView": 6,
      "componentType": 5126,
      "count": 2341,
      "type": "VEC2"
    },
    {
      "bufferView": 7,
      "componentType": 5123,
      "count": 8679,
      "type": "SCALAR"
    },
    {
      "bufferView": 8,
      "componentType": 5126,
      "count": 806,
      "max": [
        149.97439575195313,
        147.0182647705078,
        161.26902770996094
      ],
      "min": [
        -68.9308853149414,
        -64.82976531982422,
        -68.14534759521484
      ],
      "type": "VEC3"
    },
    {
      "bufferView": 9,
      "componentType": 5126,
      "count": 806,
      "type": "VEC3"
    },
    {
      "bufferView": 10,
      "componentType": 5126,
      "count": 806,
      "type": "VEC2"
    },
    {
      "bufferView": 11,
      "componentType": 5123,
      "count": 2742,
      "type": "SCALAR"
    },
    {
      "bufferView": 12,
      "componentType": 5126,
      "count": 54,
      "type": "MAT4"
    }
  ],
  "asset": {
    "generator": "gr2togltf (ANKA2 Project)",
    "version": "2.0"
  },
  "bufferViews": [
    {
      "buffer": 0,
      "byteLength": 1716,
      "target": 34962
    },
    {
      "buffer": 0,
      "byteLength": 1716,
      "byteOffset": 1716,
      "target": 34962
    },
    {
      "buffer": 0,
      "byteLength": 1144,
      "byteOffset": 3432,
      "target": 34962
    },
    {
      "buffer": 0,
      "byteLength": 1524,
      "byteOffset": 4576,
      "target": 34963
    },
    {
      "buffer": 0,
      "byteLength": 28092,
      "byteOffset": 6100,
      "target": 34962
    },
    {
      "buffer": 0,
      "byteLength": 28092,
      "byteOffset": 34192,
      "target": 34962
    },
    {
      "buffer": 0,
      "byteLength": 18728,
      "byteOffset": 62284,
      "target": 34962
    },
    {
      "buffer": 0,
      "byteLength": 17358,
      "byteOffset": 81012,
      "target": 34963
    },
    {
      "buffer": 0,
      "byteLength": 9672,
      "byteOffset": 98370,
      "target": 34962
    },
    {
      "buffer": 0,
      "byteLength": 9672,
      "byteOffset": 108042,
      "target": 34962
    },
    {
      "buffer": 0,
      "byteLength": 6448,
      "byteOffset": 117714,
      "target": 34962
    },
    {
      "buffer": 0,
      "byteLength": 5484,
      "byteOffset": 124162,
      "target": 34963
    },
    {
      "buffer": 0,
      "byteLength": 3456,
      "byteOffset": 129646
    }
  ],
  "buffers": [
    {
      "byteLength": 133102,
      "uri": "data:application/octet-stream;base64,"
    }
  ],
  "materials": [
    {
      "name": "default",
      "pbrMetallicRoughness": {
        "baseColorFactor": [
          0.8,
          0.8,
          0.8,
          1.0
        ],
        "metallicFactor": 0.0,
        "roughnessFactor": 0.8
      }
    }
  ],
  "meshes": [
    {
      "name": "assassin_face",
      "primitives": [
        {
          "attributes": {
            "NORMAL": 1,
            "POSITION": 0,
            "TEXCOORD_0": 2
          },
          "indices": 3,
          "material": 0,
          "mode": 4
        }
      ]
    },
    {
      "name": "christ_2023_body_lod",
      "primitives": [
        {
          "attributes": {
            "NORMAL": 5,
            "POSITION": 4,
            "TEXCOORD_0": 6
          },
          "indices": 7,
          "material": 0,
          "mode": 4
        }
      ]
    },
    {
      "name": "christ_2023_etc001",
      "primitives": [
        {
          "attributes": {
            "NORMAL": 9,
            "POSITION": 8,
            "TEXCOORD_0": 10
          },
          "indices": 11,
          "material": 0,
          "mode": 4
        }
      ]
    }
  ],
  "nodes": [
    {
      "children": [
        1,
        2,
        3,
        4
      ]
    },
    {
      "mesh": 0,
      "name": "assassin_face",
      "skin": 0
    },
    {
      "mesh": 1,
      "name": "christ_2023_body_lod",
      "skin": 0
    },
    {
      "mesh": 2,
      "name": "christ_2023_etc001",
      "skin": 0
    },
    {
      "children": [
        5
      ],
      "name": "Bip01",
      "rotation": [
        0.0,
        0.0,
        0.0,
        1.0000001192092896
      ],
      "scale": [
        1.0,
        0.0,
        0.0
      ],
      "translation": [
        3.5762786865234375e-07,
        1.1175870895385742e-08,
        0.0
      ]
    },
    {
      "children": [
        6
      ],
      "name": "Bip01 Pelvis",
      "rotation": [
        -0.499999463558197,
        -0.5000001788139343,
        -0.5000001788139343,
        0.500000536441803
      ],
      "scale": [
        1.0,
        0.0,
        0.0
      ],
      "translation": [
        1.722288966178894,
        0.05417468771338463,
        0.0
      ]
    },
    {
      "children": [
        7,
        8,
        11,
        21,
        24
      ],
      "name": "Bip01 Spine",
      "rotation": [
        2.19852950067434e-06,
        0.0004582926630973816,
        -0.008512726053595543,
        0.9999637603759766
      ],
      "scale": [
        1.0,
        1.2590219977681727e-09,
        1.1641532182693481e-10
      ],
      "translation": [
        9.231704711914063,
        -0.006681759841740131,
        1.2808945029973984e-05
      ]
    },
    {
      "children": [
        10
      ],
      "name": "Bip01 L Thigh",
      "rotation": [
        -0.0017526167212054133,
        0.9994144439697266,
        0.012854245491325855,
        -0.03166180104017258
      ],
      "scale": [
        0.9999998807907104,
        1.6298145055770874e-09,
        0.0
      ],
      "translation": [
        -9.237846374511719,
        -0.15049970149993896,
        8.019189834594727
      ]
    },
    {
      "children": [
        9
      ],
      "name": "Bip01 R Thigh",
      "rotation": [
        -0.0017407506238669157,
        0.9993849992752075,
        -0.012853806838393211,
        0.032579340040683746
      ],
      "scale": [
        0.9999999403953552,
        2.3283064365386963e-09,
        -1.4901161193847656e-08
      ],
      "translation": [
        -9.223106384277344,
        -0.1504669189453125,
        -8.036136627197266
      ]
    },
    {
      "children": [
        22
      ],
      "name": "Bip01 R Calf",
      "rotation": [
        2.02709002361523e-10,
        6.682723818762781e-11,
        -0.09983331710100174,
        0.9950041770935059
      ],
      "scale": [
        1.0,
        2.9802322387695313e-08,
        1.734609816894661e-10
      ],
      "translation": [
        40.13832473754883,
        1.1920928955078125e-07,
        0.0
      ]
    },
    {
      "children": [
        23
      ],
      "name": "Bip01 L Calf",
      "rotation": [
        8.588251776409095e-10,
        -6.246891892658368e-11,
        -0.09983331710100174,
        0.9950041770935059
      ],
      "scale": [
        1.0000001192092896,
        1.4901161193847656e-08,
        7.497746423723584e-09
      ],
      "translation": [
        40.138336181640625,
        0.0,
        0.0
      ]
    },
    {
      "children": [
        12
      ],
      "name": "Bip01 Spine1",
      "rotation": [
        2.8843745968065715e-13,
        -5.820780746290666e-09,
        0.0020980173721909523,
        0.9999977946281433
      ],
      "scale": [
        1.0,
        -1.3969838619232178e-09,
        5.820499637820831e-11
      ],
      "translation": [
        8.398162841796875,
        -0.010102152824401855,
        -2.2351741790771484e-08
      ]
    },
    {
      "children": [
        13
      ],
      "name": "Bip01 Spine2",
      "rotation": [
        1.4919244225447548e-12,
        9.604199391333168e-08,
        -0.034630581736564636,
        0.9994001984596252
      ],
      "scale": [
        1.0,
        7.450581485102248e-09,
        5.81650283493218e-11
      ],
      "translation": [
        12.686180114746094,
        -0.010077714920043945,
        -1.4901161193847656e-08
      ]
    },
    {
      "children": [
        14,
        15,
        20
      ],
      "name": "Bip01 Neck",
      "rotation": [
        -3.473227843642235e-05,
        -0.0004580979875754565,
        0.13992175459861755,
        0.9901624321937561
      ],
      "scale": [
        0.9999999403953552,
        1.2125275361540844e-07,
        9.225914254784584e-08
      ],
      "translation": [
        14.334159851074219,
        -3.440770149230957,
        -3.1441450119018555e-06
      ]
    },
    {
      "children": [
        18,
        29
      ],
      "name": "Bip01 R Clavicle",
      "rotation": [
        -0.5792272090911865,
        0.08922634273767471,
        0.8029548525810242,
        0.10861968249082565
      ],
      "scale": [
        1.0000003576278687,
        -4.470348358154297e-08,
        -2.086162567138672e-07
      ],
      "translation": [
        -1.0674591064453125,
        1.0830707550048828,
        -2.8085217475891113
      ]
    },
    {
      "children": [
        16,
        30
      ],
      "name": "Bip01 L Clavicle",
      "rotation": [
        0.5799686908721924,
        -0.08928920328617096,
        0.8024172782897949,
        0.10858398675918579
      ],
      "scale": [
        1.0000007152557373,
        1.6763806343078613e-08,
        5.960464477539063e-08
      ],
      "translation": [
        -1.06243896484375,
        1.0819473266601563,
        2.8108510971069336
      ]
    },
    {
      "children": [
        17
      ],
      "name": "Bip01 L UpperArm",
      "rotation": [
        0.041231416165828705,
        0.11807680875062943,
        0.009625342674553394,
        0.9921014308929443
      ],
      "scale": [
        1.0000001192092896,
        -3.725290298461914e-09,
        4.470348358154297e-08
      ],
      "translation": [
        11.362140655517578,
        0.0,
        0.0
      ]
    },
    {
      "children": [
        34
      ],
      "name": "Bip01 L ForeArm",
      "rotation": [
        6.099012961335859e-10,
        -7.48374873182911e-09,
        -0.043017104268074036,
        0.9990743398666382
      ],
      "scale": [
        0.9999998807907104,
        -1.4901161193847656e-08,
        1.490115053570662e-08
      ],
      "translation": [
        24.082992553710938,
        0.0,
        -7.62939453125e-06
      ]
    },
    {
      "children": [
        19
      ],
      "name": "Bip01 R UpperArm",
      "rotation": [
        -0.04123333841562271,
        -0.11716549098491669,
        0.009602313861250877,
        0.9922095537185669
      ],
      "scale": [
        1.0000001192092896,
        3.725290298461914e-09,
        -2.9802322387695313e-08
      ],
      "translation": [
        11.362142562866211,
        -4.76837158203125e-07,
        -1.52587890625e-05
      ]
    },
    {
      "children": [
        35
      ],
      "name": "Bip01 R ForeArm",
      "rotation": [
        3.2044566999900326e-10,
        7.4436812269595976e-09,
        -0.043017107993364334,
        0.9990743398666382
      ],
      "scale": [
        0.9999999403953552,
        -7.450580596923828e-09,
        -1.4901170075631853e-08
      ],
      "translation": [
        24.082996368408203,
        -2.384185791015625e-07,
        0.0
      ]
    },
    {
      "children": [
        25
      ],
      "name": "Bip01 Head",
      "rotation": [
        -1.5614494941473822e-07,
        3.534984571729183e-08,
        0.009768295101821423,
        0.9999522566795349
      ],
      "scale": [
        1.0000001192092896,
        -1.4714893836753618e-07,
        -9.2535294982099e-08
      ],
      "translation": [
        8.94873046875,
        0.0,
        0.0
      ]
    },
    {
      "children": [
        31
      ],
      "name": "F_01",
      "rotation": [
        -0.00045808416325598955,
        -3.1571707950206473e-05,
        0.9976655840873718,
        0.06828777492046356
      ],
      "scale": [
        1.0,
        -4.985935220247484e-09,
        0.0
      ],
      "translation": [
        2.9761505126953125,
        9.141227722167969,
        -0.0031199976801872253
      ]
    },
    {
      "children": [
        32
      ],
      "name": "Bip01 R Foot",
      "rotation": [
        0.06932739913463593,
        0.03842361271381378,
        0.09007489681243896,
        0.9927758574485779
      ],
      "scale": [
        1.0,
        -2.9802322387695313e-08,
        1.4901161193847656e-08
      ],
      "translation": [
        40.13832473754883,
        0.0,
        0.0
      ]
    },
    {
      "children": [
        33
      ],
      "name": "Bip01 L Foot",
      "rotation": [
        -0.06932740658521652,
        -0.038423530757427216,
        0.09007490426301956,
        0.9927758574485779
      ],
      "scale": [
        1.0000001192092896,
        -3.4458935260772705e-08,
        -7.450580596923828e-09
      ],
      "translation": [
        40.13832473754883,
        0.0,
        0.0
      ]
    },
    {
      "children": [
        36
      ],
      "name": "B_01",
      "rotation": [
        -0.00044984163832850754,
        9.212750592269003e-05,
        0.9794315695762634,
        -0.20177620649337769
      ],
      "scale": [
        1.0000001192092896,
        -7.504638688260457e-09,
        0.0
      ],
      "translation": [
        5.919456481933594,
        -6.957293510437012,
        -0.0004289969801902771
      ]
    },
    {
      "children": [
        26
      ],
      "name": "Bip01 Ponytail1",
      "rotation": [
        1.9119766533903793e-12,
        -2.772705101961037e-06,
        0.9996773600578308,
        -0.02540152333676815
      ],
      "scale": [
        1.0,
        7.808638718270755e-13,
        -5.684341886080802e-14
      ],
      "translation": [
        16.320892333984375,
        -17.09018325805664,
        0.031389594078063965
      ]
    },
    {
      "children": [
        27
      ],
      "name": "Bip01 Ponytail11",
      "rotation": [
        2.2591372945534455e-13,
        3.766511156300112e-07,
        -0.1357986330986023,
        0.9907364845275879
      ],
      "scale": [
        1.0,
        7.634667095572645e-14,
        0.0
      ],
      "translation": [
        12.657058715820313,
        -0.00971221923828125,
        -2.6542693376541138e-08
      ]
    },
    {
      "children": [
        28
      ],
      "name": "Bip01 Ponytail12",
      "rotation": [
        -4.443874183870553e-16,
        1.0159089214312189e-07,
        -0.03662780299782753,
        0.9993289709091187
      ],
      "scale": [
        0.9999999403953552,
        1.5110835903747407e-15,
        0.0
      ],
      "translation": [
        12.65899658203125,
        -0.010051727294921875,
        -2.8405338525772095e-08
      ]
    },
    {
      "children": [
        37
      ],
      "name": "Bip01 Ponytail13",
      "rotation": [
        2.277355550233534e-13,
        -4.41043290777543e-08,
        0.015901481732726097,
        0.9998735785484314
      ],
      "scale": [
        1.0,
        3.725290076417309e-09,
        -2.1316282072803006e-14
      ],
      "translation": [
        12.660064697265625,
        -0.010076522827148438,
        -2.7474015951156616e-08
      ]
    },
    {
      "name": "Bone09",
      "rotation": [
        -0.7176153063774109,
        0.16453255712985992,
        0.15742911398410797,
        0.6581591367721558
      ],
      "scale": [
        1.0,
        -5.960464477539063e-08,
        -3.725290298461914e-09
      ],
      "translation": [
        5.556018829345703,
        -0.32675695419311523,
        -0.830352783203125
      ]
    },
    {
      "name": "Bone01",
      "rotation": [
        0.7176153063774109,
        -0.16453470289707184,
        0.15742738544940948,
        0.6581589579582214
      ],
      "scale": [
        1.0000001192092896,
        0.0,
        -3.725290298461914e-09
      ],
      "translation": [
        5.556034088134766,
        -0.32680416107177734,
        0.830352783203125
      ]
    },
    {
      "name": "F_02",
      "rotation": [
        4.272801374733326e-15,
        7.207759949057636e-15,
        0.023484302684664726,
        0.9997242093086243
      ],
      "scale": [
        0.9999999403953552,
        3.725290298461914e-09,
        -1.4210854715202004e-14
      ],
      "translation": [
        19.174598693847656,
        3.814697265625e-06,
        -1.8189894035458565e-12
      ]
    },
    {
      "name": "Bip01 R Toe0",
      "rotation": [
        1.5700926965105832e-16,
        1.5700926965105832e-16,
        0.70710688829422,
        0.7071067094802856
      ],
      "scale": [
        1.0,
        1.7763568394002505e-15,
        -3.223900041478473e-16
      ],
      "translation": [
        13.162713050842285,
        12.05335521697998,
        0.0
      ]
    },
    {
      "name": "Bip01 L Toe0",
      "rotation": [
        2.02476010213036e-31,
        0.0,
        0.70710688829422,
        0.7071067094802856
      ],
      "scale": [
        1.0,
        1.7763568394002505e-15,
        3.223949804664124e-16
      ],
      "translation": [
        13.162713050842285,
        12.05335521697998,
        9.5367431640625e-07
      ]
    },
    {
      "children": [
        38,
        42,
        44,
        48
      ],
      "name": "Bip01 L Hand",
      "rotation": [
        -0.7058848142623901,
        -0.03647787123918533,
        -0.03644883260130882,
        0.7064470648765564
      ],
      "scale": [
        1.0,
        -1.4901161193847656e-08,
        -8.658389560878277e-10
      ],
      "translation": [
        24.082996368408203,
        4.76837158203125e-07,
        0.0
      ]
    },
    {
      "children": [
        39,
        40,
        46,
        49
      ],
      "name": "Bip01 R Hand",
      "rotation": [
        0.7058848142623901,
        0.03647787496447563,
        -0.03644884005188942,
        0.7064470648765564
      ],
      "scale": [
        1.0000001192092896,
        7.450580596923828e-09,
        -3.776222001761198e-09
      ],
      "translation": [
        24.082996368408203,
        4.76837158203125e-07,
        0.0
      ]
    },
    {
      "name": "B_02",
      "rotation": [
        -1.062297985172803e-14,
        1.56057129973566e-14,
        -0.08116262406110764,
        0.9967008829116821
      ],
      "scale": [
        0.9999999403953552,
        1.6702912480330072e-27,
        9.623581770888678e-16
      ],
      "translation": [
        16.87519073486328,
        -0.00030517578125,
        0.0
      ]
    },
    {
      "name": "Bip01 Ponytail14",
      "rotation": [
        6.663427142757105e-16,
        -6.945297315041898e-08,
        0.025040725246071815,
        0.9996864199638367
      ],
      "scale": [
        1.0,
        -4.829299585859678e-16,
        0.0
      ],
      "translation": [
        12.660255432128906,
        -0.010067939758300781,
        -2.7939677238464355e-08
      ]
    },
    {
      "name": "equip_left",
      "rotation": [
        1.648436409595888e-07,
        -6.374890517690801e-07,
        2.5331982556053845e-07,
        1.0
      ],
      "scale": [
        1.0000005960464478,
        1.0728828101491672e-06,
        -6.053483048162889e-08
      ],
      "translation": [
        -0.500213623046875,
        -1.1329193115234375,
        0.26155900955200195
      ]
    },
    {
      "name": "equip_right",
      "rotation": [
        -7.58096803110675e-07,
        -1.5692778276843455e-07,
        2.9802137646584015e-08,
        1.0
      ],
      "scale": [
        1.0000022649765015,
        3.576274707484117e-07,
        4.2375233988423133e-07
      ],
      "translation": [
        2.4170570373535156,
        -2.9429779052734375,
        -0.07746124267578125
      ]
    },
    {
      "children": [
        41
      ],
      "name": "Bip01 R Finger0",
      "rotation": [
        -0.6828780174255371,
        -0.25692248344421387,
        -0.1345290094614029,
        0.6705000996589661
      ],
      "scale": [
        1.0000004768371582,
        1.7881393432617188e-07,
        4.1350722312927246e-07
      ],
      "translation": [
        0.5431480407714844,
        0.00774383544921875,
        2.5511603355407715
      ]
    },
    {
      "children": [
        52
      ],
      "name": "Bip01 R Finger01",
      "rotation": [
        -7.3999353311648974e-09,
        -1.653439696269743e-08,
        0.11640210449695587,
        0.9932021498680115
      ],
      "scale": [
        0.9999998211860657,
        1.4901159417490817e-08,
        -1.3189307423999708e-09
      ],
      "translation": [
        3.7950172424316406,
        -1.9073486328125e-06,
        0.0
      ]
    },
    {
      "children": [
        43
      ],
      "name": "Bip01 L Finger0",
      "rotation": [
        0.6828780174255371,
        0.25692248344421387,
        -0.1345290094614029,
        0.6705000996589661
      ],
      "scale": [
        1.0000004768371582,
        1.7881393432617188e-07,
        -3.3527612686157227e-07
      ],
      "translation": [
        0.5431480407714844,
        0.00774383544921875,
        -2.5511605739593506
      ]
    },
    {
      "children": [
        53
      ],
      "name": "Bip01 L Finger01",
      "rotation": [
        -4.5672310378108705e-09,
        6.966303089939174e-09,
        0.11640208959579468,
        0.9932021498680115
      ],
      "scale": [
        0.9999999403953552,
        1.4901161193847656e-08,
        -1.4901161193847656e-08
      ],
      "translation": [
        3.795013427734375,
        0.0,
        7.62939453125e-06
      ]
    },
    {
      "children": [
        45
      ],
      "name": "Bip01 L Finger2",
      "rotation": [
        -0.08983667194843292,
        -0.004974723793566227,
        0.0555574856698513,
        0.9943932890892029
      ],
      "scale": [
        0.9999997615814209,
        1.6928788681980222e-07,
        -1.2648524716496468e-07
      ],
      "translation": [
        8.273906707763672,
        -0.6917953491210938,
        1.205906867980957
      ]
    },
    {
      "children": [
        54
      ],
      "name": "Bip01 L Finger21",
      "rotation": [
        -2.4370638840309766e-10,
        4.565075428786258e-09,
        0.1308387815952301,
        0.9914036393165588
      ],
      "scale": [
        1.0000001192092896,
        -2.9802322387695313e-08,
        -5.785724788154312e-09
      ],
      "translation": [
        3.0855941772460938,
        7.62939453125e-06,
        0.0
      ]
    },
    {
      "children": [
        47
      ],
      "name": "Bip01 R Finger2",
      "rotation": [
        0.08983668684959412,
        0.004974720533937216,
        0.055557504296302795,
        0.9943932890892029
      ],
      "scale": [
        0.9999997615814209,
        2.007582224905491e-07,
        1.0398071026429534e-07
      ],
      "translation": [
        8.273910522460938,
        -0.6917953491210938,
        -1.2059063911437988
      ]
    },
    {
      "children": [
        55
      ],
      "name": "Bip01 R Finger21",
      "rotation": [
        -3.936972969853514e-09,
        -2.3340458454867985e-09,
        0.1308388113975525,
        0.9914036393165588
      ],
      "scale": [
        1.0000001192092896,
        -2.9802322387695313e-08,
        -3.597745656946927e-09
      ],
      "translation": [
        3.085590362548828,
        0.0,
        0.0
      ]
    },
    {
      "children": [
        50
      ],
      "name": "Bip01 L Finger1",
      "rotation": [
        -0.0031984648667275906,
        0.06787998974323273,
        0.041126422584056854,
        0.9968403577804565
      ],
      "scale": [
        1.0000001192092896,
        2.4682231014594436e-07,
        1.043081283569336e-07
      ],
      "translation": [
        8.236907958984375,
        -0.8613967895507813,
        -2.459082841873169
      ]
    },
    {
      "children": [
        51
      ],
      "name": "Bip01 R Finger1",
      "rotation": [
        0.0031984674278646708,
        -0.06787998974323273,
        0.04112643748521805,
        0.9968403577804565
      ],
      "scale": [
        1.0000001192092896,
        2.7662463253363967e-07,
        -1.1920928955078125e-07
      ],
      "translation": [
        8.236907958984375,
        -0.8613967895507813,
        2.45908260345459
      ]
    },
    {
      "children": [
        56
      ],
      "name": "Bip01 L Finger11",
      "rotation": [
        -6.207448333128696e-09,
        -9.19218923201015e-09,
        0.11640209704637527,
        0.9932021498680115
      ],
      "scale": [
        1.0,
        1.4901160305669237e-08,
        2.043861968559213e-08
      ],
      "translation": [
        3.0103721618652344,
        0.0,
        -9.5367431640625e-07
      ]
    },
    {
      "children": [
        57
      ],
      "name": "Bip01 R Finger11",
      "rotation": [
        3.157928585295622e-09,
        2.7749760267425927e-09,
        0.11640209704637527,
        0.9932021498680115
      ],
      "scale": [
        1.0,
        2.9802322387695313e-08,
        -1.0124117544307865e-08
      ],
      "translation": [
        3.0103759765625,
        -7.62939453125e-06,
        0.0
      ]
    },
    {
      "name": "Bip01 R Finger02",
      "rotation": [
        -3.6999678876270536e-09,
        4.336317138697865e-10,
        0.11640210449695587,
        0.9932021498680115
      ],
      "scale": [
        0.9999999403953552,
        0.0,
        1.7227346216230899e-09
      ],
      "translation": [
        3.7950172424316406,
        1.9073486328125e-06,
        0.0
      ]
    },
    {
      "name": "Bip01 L Finger02",
      "rotation": [
        5.4344937439054775e-09,
        -4.3363165835863526e-10,
        0.11640210449695587,
        0.9932021498680115
      ],
      "scale": [
        1.0,
        0.0,
        2.7675783442759894e-08
      ],
      "translation": [
        3.795013427734375,
        1.9073486328125e-06,
        -7.62939453125e-06
      ]
    },
    {
      "name": "Bip01 L Finger22",
      "rotation": [
        2.3340458454867985e-09,
        -9.86126913460339e-09,
        0.1308388113975525,
        0.9914036393165588
      ],
      "scale": [
        1.0,
        2.9802322387695313e-08,
        9.638560172220423e-09
      ],
      "translation": [
        3.0856056213378906,
        -1.52587890625e-05,
        0.0
      ]
    },
    {
      "name": "Bip01 R Finger22",
      "rotation": [
        4.874125547615904e-10,
        3.693267025539626e-09,
        0.1308387815952301,
        0.9914036393165588
      ],
      "scale": [
        0.9999999403953552,
        2.9802322387695313e-08,
        7.195490425715434e-09
      ],
      "translation": [
        3.085590362548828,
        -1.52587890625e-05,
        0.0
      ]
    },
    {
      "name": "Bip01 L Finger12",
      "rotation": [
        -2.3413437855168695e-09,
        -3.157927919161807e-09,
        0.11640210449695587,
        0.993202269077301
      ],
      "scale": [
        1.0,
        -1.4901161193847656e-08,
        9.173315440591523e-09
      ],
      "translation": [
        3.0103912353515625,
        7.62939453125e-06,
        2.86102294921875e-06
      ]
    },
    {
      "name": "Bip01 R Finger12",
      "rotation": [
        2.124527886948613e-09,
        5.4415427719334275e-09,
        0.11640210449695587,
        0.993202269077301
      ],
      "scale": [
        1.0,
        -1.4901161193847656e-08,
        -1.203723787313038e-08
      ],
      "translation": [
        3.0103912353515625,
        0.0,
        -1.9073486328125e-06
      ]
    }
  ],
  "scene": 0,
  "scenes": [
    {
      "nodes": [
        0
      ]
    }
  ],
  "skins": [
    {
      "inverseBindMatrices": 12,
      "joints": [
        4,
        5,
        6,
        7,
        8,
        9,
        10,
        11,
        12,
        13,
        14,
        15,
        16,
        17,
        18,
        19,
        20,
        21,
        22,
        23,
        24,
        25,
        26,
        27,
        28,
        29,
        30,
        31,
        32,
        33,
        34,
        35,
        36,
        37,
        38,
        39,
        40,
        41,
        42,
        43,
        44,
        45,
        46,
        47,
        48,
        49,
        50,
        51,
        52,
        53,
        54,
        55,
        56,
        57
      ],
      "skeleton": 4
    }
  ]
}
