{
  "accessors": [
    {
      "bufferView": 0,
      "componentType": 5126,
      "count": 98,
      "max": [
        8.979989051818848,
        2.4974098205566406,
        161.26902770996094
      ],
      "min": [
        -9.022242546081543,
        -9.1135835647583,
        149.37014770507813
      ],
      "type": "VEC3"
    },
    {
      "bufferView": 1,
      "componentType": 5126,
      "count": 98,
      "type": "VEC3"
    },
    {
      "bufferView": 2,
      "componentType": 5126,
      "count": 98,
      "type": "VEC2"
    },
    {
      "bufferView": 3,
      "componentType": 5123,
      "count": 429,
      "type": "SCALAR"
    },
    {
      "bufferView": 4,
      "componentType": 5126,
      "count": 2252,
      "max": [
        151.54534912109375,
        152.1809539794922,
        161.26902770996094
      ],
      "min": [
        -67.33092498779297,
        -66.27556610107422,
        -69.24970245361328
      ],
      "type": "VEC3"
    },
    {
      "bufferView": 5,
      "componentType": 5126,
      "count": 2252,
      "type": "VEC3"
    },
    {
      "bufferView": 6,
      "componentType": 5126,
      "count": 2252,
      "type": "VEC2"
    },
    {
      "bufferView": 7,
      "componentType": 5123,
      "count": 9558,
      "type": "SCALAR"
    },
    {
      "bufferView": 8,
      "componentType": 5126,
      "count": 78,
      "type": "MAT4"
    }
  ],
  "asset": {
    "generator": "gr2togltf (ANKA2 Project)",
    "version": "2.0"
  },
  "bufferViews": [
    {
      "buffer": 0,
      "byteLength": 1176,
      "target": 34962
    },
    {
      "buffer": 0,
      "byteLength": 1176,
      "byteOffset": 1176,
      "target": 34962
    },
    {
      "buffer": 0,
      "byteLength": 784,
      "byteOffset": 2352,
      "target": 34962
    },
    {
      "buffer": 0,
      "byteLength": 858,
      "byteOffset": 3136,
      "target": 34963
    },
    {
      "buffer": 0,
      "byteLength": 27024,
      "byteOffset": 3994,
      "target": 34962
    },
    {
      "buffer": 0,
      "byteLength": 27024,
      "byteOffset": 31018,
      "target": 34962
    },
    {
      "buffer": 0,
      "byteLength": 18016,
      "byteOffset": 58042,
      "target": 34962
    },
    {
      "buffer": 0,
      "byteLength": 19116,
      "byteOffset": 76058,
      "target": 34963
    },
    {
      "buffer": 0,
      "byteLength": 4992,
      "byteOffset": 95174
    }
  ],
  "buffers": [
    {
      "byteLength": 100166,
      "uri": "data:application/octet-stream;base64,"
    }
  ],
  "materials": [
    {
      "name": "default",
      "pbrMetallicRoughness": {
        "baseColorFactor": [
          0.8,
          0.8,
          0.8,
          1.0
        ],
        "metallicFactor": 0.0,
        "roughnessFactor": 0.8
      }
    }
  ],
  "meshes": [
    {
      "name": "assassin_face",
      "primitives": [
        {
          "attributes": {
            "NORMAL": 1,
            "POSITION": 0,
            "TEXCOORD_0": 2
          },
          "indices": 3,
          "material": 0,
          "mode": 4
        }
      ]
    },
    {
      "name": "lod",
      "primitives": [
        {
          "attributes": {
            "NORMAL": 5,
            "POSITION": 4,
            "TEXCOORD_0": 6
          },
          "indices": 7,
          "material": 0,
          "mode": 4
        }
      ]
    }
  ],
  "nodes": [
    {
      "children": [
        1,
        2,
        3
      ]
    },
    {
      "mesh": 0,
      "name": "assassin_face",
      "skin": 0
    },
    {
      "mesh": 1,
      "name": "lod",
      "skin": 0
    },
    {
      "children": [
        4
      ],
      "name": "Bip01",
      "rotation": [
        0.0,
        0.0,
        0.0,
        1.0000001192092896
      ],
      "scale": [
        1.0,
        0.0,
        0.0
      ],
      "translation": [
        -8.940696716308594e-08,
        -3.725290298461914e-09,
        0.0
      ]
    },
    {
      "children": [
        5
      ],
      "name": "Bip01 Pelvis",
      "rotation": [
        -0.499999463558197,
        -0.5000001788139343,
        -0.5000001788139343,
        0.500000536441803
      ],
      "scale": [
        1.0,
        0.0,
        2.2737367544323206e-13
      ],
      "translation": [
        -0.43053948879241943,
        -0.0135455671697855,
        0.0
      ]
    },
    {
      "children": [
        6,
        7,
        10,
        22,
        24,
        25,
        26
      ],
      "name": "Bip01 Spine",
      "rotation": [
        2.199632945121266e-06,
        0.00045840282109566033,
        -0.008512725122272968,
        0.999963641166687
      ],
      "scale": [
        1.0000001192092896,
        3.1221123464320044e-09,
        5.820766091346741e-11
      ],
      "translation": [
        9.231704711914063,
        -0.006681753322482109,
        1.2808945029973984e-05
      ]
    },
    {
      "children": [
        9
      ],
      "name": "Bip01 R Thigh",
      "rotation": [
        -0.0017406431725248694,
        0.9993850588798523,
        -0.0128540163859725,
        0.032579731196165085
      ],
      "scale": [
        1.0000001192092896,
        1.7462298274040222e-09,
        0.0
      ],
      "translation": [
        -9.223114013671875,
        -0.1504669189453125,
        -8.036139488220215
      ]
    },
    {
      "children": [
        8
      ],
      "name": "Bip01 L Thigh",
      "rotation": [
        -0.0017525117145851254,
        0.9994144439697266,
        0.012854451313614845,
        -0.031661972403526306
      ],
      "scale": [
        1.0,
        1.979060471057892e-09,
        -7.450580596923828e-09
      ],
      "translation": [
        -9.23785400390625,
        -0.15049970149993896,
        8.019186973571777
      ]
    },
    {
      "children": [
        27
      ],
      "name": "Bip01 L Calf",
      "rotation": [
        -7.963568138258381e-10,
        5.956333343215547e-11,
        -0.09983319044113159,
        0.9950041770935059
      ],
      "scale": [
        1.0,
        -1.130835513493947e-19,
        -4.0474183032879196e-11
      ],
      "translation": [
        40.13832473754883,
        -1.1920928955078125e-07,
        0.0
      ]
    },
    {
      "children": [
        28
      ],
      "name": "Bip01 R Calf",
      "rotation": [
        1.334363952665285e-09,
        -5.732897268018178e-09,
        -0.099833182990551,
        0.9950041770935059
      ],
      "scale": [
        1.0000001192092896,
        2.9802322387695313e-08,
        3.759073052833628e-09
      ],
      "translation": [
        40.138328552246094,
        0.0,
        -9.5367431640625e-07
      ]
    },
    {
      "children": [
        11
      ],
      "name": "Bip01 Spine1",
      "rotation": [
        -2.5789499659076287e-13,
        -5.8062270547054595e-09,
        0.0020978909451514482,
        0.9999977946281433
      ],
      "scale": [
        1.0,
        -2.3283064365386963e-09,
        -2.9101165921474603e-11
      ],
      "translation": [
        8.398162841796875,
        -0.010102033615112305,
        -2.9802322387695313e-08
      ]
    },
    {
      "children": [
        12,
        43,
        44
      ],
      "name": "Bip01 Spine2",
      "rotation": [
        7.607370679577063e-13,
        9.602742068182124e-08,
        -0.03463052213191986,
        0.9994001984596252
      ],
      "scale": [
        1.0000001192092896,
        1.2750455776445947e-15,
        8.72262262419099e-11
      ],
      "translation": [
        12.686180114746094,
        -0.010077714920043945,
        -1.4901161193847656e-08
      ]
    },
    {
      "children": [
        13,
        15,
        21
      ],
      "name": "Bip01 Neck",
      "rotation": [
        -3.4904456697404385e-05,
        -0.00045816987403668463,
        0.13992182910442352,
        0.9901624321937561
      ],
      "scale": [
        1.0000001192092896,
        -2.8110719085816527e-08,
        -5.820766091346741e-11
      ],
      "translation": [
        14.334159851074219,
        -3.4407691955566406,
        -3.427267074584961e-06
      ]
    },
    {
      "children": [
        14,
        19
      ],
      "name": "Bip01 L Clavicle",
      "rotation": [
        0.5799686908721924,
        -0.0892895832657814,
        0.8024172782897949,
        0.10858380049467087
      ],
      "scale": [
        1.000000238418579,
        -5.587935447692871e-09,
        5.960464477539063e-08
      ],
      "translation": [
        -1.06243896484375,
        1.0819511413574219,
        2.8108513355255127
      ]
    },
    {
      "children": [
        32
      ],
      "name": "Bone01",
      "rotation": [
        0.7176153063774109,
        -0.16453470289707184,
        0.15742738544940948,
        0.6581589579582214
      ],
      "scale": [
        1.0000001192092896,
        -2.9802322387695313e-08,
        3.725290298461914e-09
      ],
      "translation": [
        5.556034088134766,
        -0.32680368423461914,
        0.830352783203125
      ]
    },
    {
      "children": [
        16,
        17
      ],
      "name": "Bip01 R Clavicle",
      "rotation": [
        -0.579227089881897,
        0.08922641724348068,
        0.8029547929763794,
        0.10861968249082565
      ],
      "scale": [
        1.000000238418579,
        -7.450580596923828e-09,
        -8.940696716308594e-08
      ],
      "translation": [
        -1.067474365234375,
        1.0830726623535156,
        -2.8085200786590576
      ]
    },
    {
      "children": [
        33
      ],
      "name": "Bone09",
      "rotation": [
        -0.7176153063774109,
        0.16453255712985992,
        0.15742911398410797,
        0.6581591367721558
      ],
      "scale": [
        1.0,
        -2.9802322387695313e-08,
        -3.725290298461914e-09
      ],
      "translation": [
        5.5560150146484375,
        -0.32675647735595703,
        -0.8303375244140625
      ]
    },
    {
      "children": [
        18
      ],
      "name": "Bip01 R UpperArm",
      "rotation": [
        -0.04123350605368614,
        -0.11716581135988235,
        0.009602152742445469,
        0.9922095537185669
      ],
      "scale": [
        1.0,
        -3.725290298461914e-09,
        1.4901161193847656e-08
      ],
      "translation": [
        11.362140655517578,
        4.76837158203125e-07,
        0.0
      ]
    },
    {
      "children": [
        45
      ],
      "name": "Bip01 R ForeArm",
      "rotation": [
        1.2199690146985631e-09,
        -2.9854856364863736e-08,
        -0.043017346411943436,
        0.9990743398666382
      ],
      "scale": [
        0.9999999403953552,
        4.4367826652174627e-16,
        2.985748182027237e-08
      ],
      "translation": [
        24.082996368408203,
        -2.384185791015625e-07,
        0.0
      ]
    },
    {
      "children": [
        20
      ],
      "name": "Bip01 L UpperArm",
      "rotation": [
        0.04123158007860184,
        0.1180773377418518,
        0.009625189937651157,
        0.9921013712882996
      ],
      "scale": [
        1.0000001192092896,
        1.862645149230957e-09,
        -1.4901161193847656e-08
      ],
      "translation": [
        11.362136840820313,
        -4.76837158203125e-07,
        1.52587890625e-05
      ]
    },
    {
      "children": [
        46
      ],
      "name": "Bip01 L ForeArm",
      "rotation": [
        -2.8945193464302577e-10,
        2.981479951813526e-08,
        -0.043017346411943436,
        0.9990743398666382
      ],
      "scale": [
        1.0,
        2.2183915973065274e-16,
        -2.9857467609417654e-08
      ],
      "translation": [
        24.082992553710938,
        -2.384185791015625e-07,
        0.0
      ]
    },
    {
      "children": [
        34,
        39
      ],
      "name": "Bip01 Head",
      "rotation": [
        9.161043451610951e-11,
        -2.666832621400772e-08,
        0.00976825226098299,
        0.9999522566795349
      ],
      "scale": [
        1.0000001192092896,
        1.6763806343078613e-08,
        1.0444978215673473e-12
      ],
      "translation": [
        8.948715209960938,
        0.0,
        1.862645149230957e-09
      ]
    },
    {
      "children": [
        23
      ],
      "name": "B_01",
      "rotation": [
        -0.00044984163832850754,
        9.212752775056288e-05,
        0.9794315695762634,
        -0.2017761915922165
      ],
      "scale": [
        1.0000001192092896,
        -7.504667109969887e-09,
        0.0
      ],
      "translation": [
        5.919456481933594,
        -6.957294464111328,
        -0.000429004430770874
      ]
    },
    {
      "children": [
        40
      ],
      "name": "B_02",
      "rotation": [
        -1.0777255891642086e-14,
        3.4328629636869905e-15,
        -0.08116262406110764,
        0.9967008829116821
      ],
      "scale": [
        1.0,
        1.4901161193847656e-08,
        -9.117201758097535e-15
      ],
      "translation": [
        16.875198364257813,
        -0.00030517578125,
        0.0
      ]
    },
    {
      "children": [
        29
      ],
      "name": "R_01",
      "rotation": [
        0.13033582270145416,
        0.6949856877326965,
        -0.6926764249801636,
        0.14215120673179626
      ],
      "scale": [
        1.0000001192092896,
        -5.960464477539063e-08,
        -1.5252226148732007e-09
      ],
      "translation": [
        3.7016830444335938,
        0.06956303119659424,
        -10.318811416625977
      ]
    },
    {
      "children": [
        30
      ],
      "name": "L_01",
      "rotation": [
        0.1296997219324112,
        0.6951156258583069,
        0.6927960515022278,
        -0.14151310920715332
      ],
      "scale": [
        1.0000001192092896,
        0.0,
        5.461515684146434e-10
      ],
      "translation": [
        3.6826629638671875,
        0.0695490837097168,
        10.391956329345703
      ]
    },
    {
      "children": [
        31
      ],
      "name": "F_01",
      "rotation": [
        -0.0004580841341521591,
        -3.1571704312227666e-05,
        0.9976655840873718,
        0.06828777492046356
      ],
      "scale": [
        1.0000001192092896,
        -4.985928114820126e-09,
        1.1641532182693481e-10
      ],
      "translation": [
        2.9761505126953125,
        9.141229629516602,
        -0.0031199976801872253
      ]
    },
    {
      "children": [
        42
      ],
      "name": "Bip01 L Foot",
      "rotation": [
        -0.06932654231786728,
        -0.03842370957136154,
        0.09007466584444046,
        0.9927759170532227
      ],
      "scale": [
        1.0000001192092896,
        1.1175870895385742e-08,
        -7.450580596923828e-09
      ],
      "translation": [
        40.13832473754883,
        0.0,
        0.0
      ]
    },
    {
      "children": [
        41
      ],
      "name": "Bip01 R Foot",
      "rotation": [
        0.06932652741670609,
        0.038423795253038406,
        0.09007465839385986,
        0.9927759170532227
      ],
      "scale": [
        0.9999999403953552,
        1.6763806343078613e-08,
        7.450580596923828e-09
      ],
      "translation": [
        40.13832473754883,
        9.5367431640625e-07,
        9.5367431640625e-07
      ]
    },
    {
      "children": [
        47
      ],
      "name": "R_02",
      "rotation": [
        1.7751057717371559e-15,
        -6.666436492000022e-17,
        -0.03752870112657547,
        0.9992956519126892
      ],
      "scale": [
        1.0,
        0.0,
        0.0
      ],
      "translation": [
        19.448837280273438,
        0.0,
        9.094947017729282e-13
      ]
    },
    {
      "children": [
        48
      ],
      "name": "L_02",
      "rotation": [
        1.570929326834454e-14,
        -6.633772731031969e-15,
        -0.03752869740128517,
        0.9992956519126892
      ],
      "scale": [
        1.0000001192092896,
        -7.450580596923828e-09,
        1.6342611332677108e-14
      ],
      "translation": [
        19.448837280273438,
        3.814697265625e-06,
        1.8189894035458565e-12
      ]
    },
    {
      "children": [
        49
      ],
      "name": "F_02",
      "rotation": [
        3.1494836442600913e-15,
        -1.6402880903247804e-15,
        0.02348429709672928,
        0.9997242093086243
      ],
      "scale": [
        1.0,
        3.725290298461914e-09,
        3.67782849192296e-15
      ],
      "translation": [
        19.174591064453125,
        1.9073486328125e-06,
        0.0
      ]
    },
    {
      "name": "Bone02",
      "rotation": [
        1.4210854715202004e-14,
        -3.552713678800501e-15,
        1.0097420790535166e-28,
        1.0
      ],
      "scale": [
        1.0,
        0.0,
        -7.105427357601002e-15
      ],
      "translation": [
        25.6839599609375,
        0.0,
        2.384185791015625e-07
      ]
    },
    {
      "name": "Bone10",
      "rotation": [
        5.684342563707159e-14,
        2.824407374646398e-13,
        7.450580596923828e-09,
        1.0
      ],
      "scale": [
        1.0,
        9.632939518429984e-26,
        6.146194664324867e-13
      ],
      "translation": [
        25.6839599609375,
        0.0,
        2.384185791015625e-07
      ]
    },
    {
      "children": [
        35
      ],
      "name": "Bip01 Ponytail1",
      "rotation": [
        1.933299874357086e-12,
        -2.772705101961037e-06,
        0.9996773600578308,
        -0.025401540100574493
      ],
      "scale": [
        1.0000001192092896,
        -3.7245093675863927e-09,
        0.0
      ],
      "translation": [
        16.320892333984375,
        -17.09018325805664,
        0.03138930723071098
      ]
    },
    {
      "children": [
        36
      ],
      "name": "Bip01 Ponytail11",
      "rotation": [
        -1.0757796156711866e-14,
        3.7665071772607917e-07,
        -0.13579846918582916,
        0.9907364845275879
      ],
      "scale": [
        1.0000001192092896,
        -5.960457016840337e-08,
        0.0
      ],
      "translation": [
        12.65704345703125,
        -0.00971221923828125,
        -2.6542693376541138e-08
      ]
    },
    {
      "children": [
        37
      ],
      "name": "Bip01 Ponytail12",
      "rotation": [
        -8.887748367741107e-16,
        1.0159114083307941e-07,
        -0.03662789240479469,
        0.9993289709091187
      ],
      "scale": [
        1.0,
        -7.4505792646561986e-09,
        -2.842170943040401e-14
      ],
      "translation": [
        12.658981323242188,
        -0.010051727294921875,
        -2.7939677238464355e-08
      ]
    },
    {
      "children": [
        38
      ],
      "name": "Bip01 Ponytail13",
      "rotation": [
        2.2840177015329144e-13,
        -4.410370735286051e-08,
        0.015901250764727592,
        0.9998735785484314
      ],
      "scale": [
        1.0000001192092896,
        7.450580596923828e-09,
        4.263256414560601e-14
      ],
      "translation": [
        12.660079956054688,
        -0.010073661804199219,
        -2.7939677238464355e-08
      ]
    },
    {
      "children": [
        50
      ],
      "name": "Bip01 Ponytail14",
      "rotation": [
        1.1427778211572925e-13,
        -6.94537405365736e-08,
        0.0250410046428442,
        0.9996864199638367
      ],
      "scale": [
        1.0000001192092896,
        -1.1175871783564162e-08,
        -5.684341886080802e-14
      ],
      "translation": [
        12.660247802734375,
        -0.010069847106933594,
        -2.7939677238464355e-08
      ]
    },
    {
      "name": "Bip01 HeadNub",
      "rotation": [
        5.684341886080802e-14,
        0.0,
        -1.6155873264856266e-27,
        1.0
      ],
      "scale": [
        1.0,
        -2.8272774843121063e-27,
        -5.6843415472676226e-14
      ],
      "translation": [
        20.872726440429688,
        3.814697265625e-06,
        0.0
      ]
    },
    {
      "name": "B_03",
      "rotation": [
        -3.552713678800501e-15,
        1.7763568394002505e-15,
        -2.0510383535746307e-29,
        1.0
      ],
      "scale": [
        1.0,
        0.0,
        3.552713678800501e-15
      ],
      "translation": [
        23.144195556640625,
        1.52587890625e-05,
        9.094947017729282e-13
      ]
    },
    {
      "children": [
        51
      ],
      "name": "Bip01 R Toe0",
      "rotation": [
        1.80884907052814e-08,
        1.2820135175672931e-08,
        0.70710688829422,
        0.7071067094802856
      ],
      "scale": [
        0.9999999403953552,
        3.256750890848751e-16,
        -7.450578820566989e-09
      ],
      "translation": [
        13.162713050842285,
        12.053354263305664,
        0.0
      ]
    },
    {
      "children": [
        52
      ],
      "name": "Bip01 L Toe0",
      "rotation": [
        -1.5454313384566376e-08,
        -1.5454313384566376e-08,
        0.70710688829422,
        0.7071067094802856
      ],
      "scale": [
        1.0000001192092896,
        1.7763570511584873e-15,
        -5.93340756200125e-16
      ],
      "translation": [
        13.162713050842285,
        12.05335521697998,
        9.5367431640625e-07
      ]
    },
    {
      "children": [
        53
      ],
      "name": "Bone07",
      "rotation": [
        -0.13934284448623657,
        0.09060375392436981,
        0.7841301560401917,
        0.5979252457618713
      ],
      "scale": [
        1.0,
        -1.955777406692505e-08,
        -5.960464477539063e-08
      ],
      "translation": [
        4.191436767578125,
        3.2420263290405273,
        -4.37860107421875
      ]
    },
    {
      "children": [
        54
      ],
      "name": "Bone05",
      "rotation": [
        0.11136427521705627,
        -0.07542812824249268,
        0.7880298495292664,
        0.6007641553878784
      ],
      "scale": [
        1.0,
        -3.073364496231079e-08,
        2.9802322387695313e-08
      ],
      "translation": [
        4.191436767578125,
        3.2420167922973633,
        4.743300914764404
      ]
    },
    {
      "children": [
        55,
        57,
        66,
        69
      ],
      "name": "Bip01 R Hand",
      "rotation": [
        0.7058849930763245,
        0.03647806867957115,
        -0.03644903376698494,
        0.7064470052719116
      ],
      "scale": [
        1.0,
        -2.2351741790771484e-08,
        -4.925823304802179e-09
      ],
      "translation": [
        24.08300018310547,
        -4.76837158203125e-07,
        0.0
      ]
    },
    {
      "children": [
        56,
        59,
        63,
        71
      ],
      "name": "Bip01 L Hand",
      "rotation": [
        -0.7058849930763245,
        -0.03647807613015175,
        -0.036449041217565536,
        0.7064470052719116
      ],
      "scale": [
        1.0000001192092896,
        -7.450580596923828e-09,
        6.599293556064367e-09
      ],
      "translation": [
        24.082996368408203,
        0.0,
        7.62939453125e-06
      ]
    },
    {
      "name": "R_03",
      "rotation": [
        8.881784197001252e-16,
        7.105427357601002e-15,
        -7.450580596923828e-09,
        1.0
      ],
      "scale": [
        0.9999999403953552,
        -1.4901160305669237e-08,
        -1.4210854715202004e-14
      ],
      "translation": [
        16.961395263671875,
        0.0,
        -9.094947017729282e-13
      ]
    },
    {
      "name": "L_03",
      "rotation": [
        1.7763568394002505e-15,
        -3.4410718530915745e-22,
        1.4901161193847656e-08,
        1.0
      ],
      "scale": [
        1.0,
        -3.15972938898216e-35,
        -7.411537783604149e-22
      ],
      "translation": [
        16.961395263671875,
        0.0,
        0.0
      ]
    },
    {
      "name": "F_03",
      "rotation": [
        -3.996801618101143e-15,
        1.776357474674961e-15,
        1.4901159772762185e-07,
        1.0
      ],
      "scale": [
        1.0000001192092896,
        -1.2621780502067265e-29,
        1.0658144424533292e-14
      ],
      "translation": [
        15.030860900878906,
        -5.7220458984375e-06,
        4.547473508864641e-13
      ]
    },
    {
      "name": "Bip01 Ponytail1Nub",
      "rotation": [
        0.7073883414268494,
        0.7068251967430115,
        9.802253089219448e-07,
        -9.810061101234169e-07
      ],
      "scale": [
        1.0000001192092896,
        -6.1256224193810636e-15,
        -2.2737367544323206e-13
      ],
      "translation": [
        12.659744262695313,
        1.9073486328125e-06,
        0.0
      ]
    },
    {
      "name": "Bip01 R Toe0Nub",
      "rotation": [
        -8.88178366760566e-16,
        -3.7252894102834944e-09,
        1.776356733521132e-15,
        1.0
      ],
      "scale": [
        1.0000001192092896,
        3.552713678800501e-15,
        -7.450577932388569e-09
      ],
      "translation": [
        10.604899406433105,
        0.0,
        -9.5367431640625e-07
      ]
    },
    {
      "name": "Bip01 L Toe0Nub",
      "rotation": [
        1.3322676295501878e-15,
        -1.453142063389794e-16,
        1.776356733521132e-15,
        1.0
      ],
      "scale": [
        1.0000001192092896,
        -2.117582368135751e-22,
        1.5345693787823791e-15
      ],
      "translation": [
        10.604898452758789,
        0.0,
        0.0
      ]
    },
    {
      "name": "Bone08",
      "rotation": [
        0.0,
        0.0,
        0.0,
        1.0
      ],
      "scale": [
        0.42125698924064636,
        0.0,
        -2.7939677238464355e-09
      ],
      "translation": [
        9.775653839111328,
        -7.62939453125e-06,
        9.5367431640625e-07
      ]
    },
    {
      "name": "Bone06",
      "rotation": [
        1.105410318835709e-09,
        -2.210820415626813e-09,
        4.421635502183108e-09,
        1.0
      ],
      "scale": [
        0.42125701904296875,
        3.7252896323280993e-09,
        -7.450583261459087e-09
      ],
      "translation": [
        9.775649070739746,
        0.0,
        0.0
      ]
    },
    {
      "name": "equip_right",
      "rotation": [
        -2.8125947437729337e-07,
        4.3259939275230863e-07,
        -2.160668230999363e-07,
        1.0
      ],
      "scale": [
        1.0000001192092896,
        -1.4900842337794984e-08,
        -1.0896468438659213e-07
      ],
      "translation": [
        2.417003631591797,
        -2.94305419921875,
        -0.07772016525268555
      ]
    },
    {
      "name": "equip_left",
      "rotation": [
        -5.280601271806518e-07,
        -1.114327915274771e-06,
        8.195648604214512e-08,
        1.0
      ],
      "scale": [
        0.9999998211860657,
        -4.47048194018862e-08,
        -6.519940143334679e-09
      ],
      "translation": [
        -0.5002975463867188,
        -1.1329803466796875,
        0.26169538497924805
      ]
    },
    {
      "children": [
        58
      ],
      "name": "Bip01 R Finger0",
      "rotation": [
        -0.6828779578208923,
        -0.2569223940372467,
        -0.13452889025211334,
        0.6705001592636108
      ],
      "scale": [
        1.0,
        -2.9802322387695313e-08,
        4.0978193283081055e-08
      ],
      "translation": [
        0.5431480407714844,
        0.00775146484375,
        2.551161289215088
      ]
    },
    {
      "children": [
        61
      ],
      "name": "Bip01 R Finger01",
      "rotation": [
        1.7632570958880933e-08,
        2.176617108773371e-08,
        0.11640223860740662,
        0.993202269077301
      ],
      "scale": [
        0.9999998807907104,
        1.4901160305669237e-08,
        -2.0473176931545822e-08
      ],
      "translation": [
        3.7950172424316406,
        -1.9073486328125e-06,
        7.62939453125e-06
      ]
    },
    {
      "children": [
        60
      ],
      "name": "Bip01 L Finger0",
      "rotation": [
        0.6828781366348267,
        0.2569224536418915,
        -0.13452890515327454,
        0.6705000996589661
      ],
      "scale": [
        0.9999998807907104,
        2.9802322387695313e-08,
        -1.862645149230957e-08
      ],
      "translation": [
        0.5431442260742188,
        0.00774383544921875,
        -2.5511603355407715
      ]
    },
    {
      "children": [
        62
      ],
      "name": "Bip01 L Finger01",
      "rotation": [
        -1.2834429519159585e-08,
        1.4366236200658022e-08,
        0.11640223860740662,
        0.993202269077301
      ],
      "scale": [
        1.0,
        1.4901162970204496e-08,
        -2.807958310313552e-08
      ],
      "translation": [
        3.7950172424316406,
        -1.9073486328125e-06,
        1.52587890625e-05
      ]
    },
    {
      "children": [
        75
      ],
      "name": "Bip01 R Finger02",
      "rotation": [
        -1.659212323090742e-08,
        -2.317547043162449e-08,
        0.11640224605798721,
        0.9932021498680115
      ],
      "scale": [
        1.0000001192092896,
        -2.042393159232118e-15,
        -1.2370815483109254e-08
      ],
      "translation": [
        3.7950172424316406,
        -1.9073486328125e-06,
        0.0
      ]
    },
    {
      "children": [
        76
      ],
      "name": "Bip01 L Finger02",
      "rotation": [
        1.0117179094493167e-08,
        -7.183115879882962e-09,
        0.11640223860740662,
        0.9932021498680115
      ],
      "scale": [
        1.0000001192092896,
        -1.4901161193847656e-08,
        1.3178425462001542e-08
      ],
      "translation": [
        3.7950172424316406,
        3.814697265625e-06,
        0.0
      ]
    },
    {
      "children": [
        64
      ],
      "name": "Bip01 L Finger2",
      "rotation": [
        -0.08983656018972397,
        -0.004974637180566788,
        0.0555574893951416,
        0.9943932890892029
      ],
      "scale": [
        0.9999999403953552,
        -1.095759216696024e-08,
        -1.588341547176242e-08
      ],
      "translation": [
        8.273906707763672,
        -0.6917953491210938,
        1.205906867980957
      ]
    },
    {
      "children": [
        65
      ],
      "name": "Bip01 L Finger21",
      "rotation": [
        -7.386533162900832e-09,
        0.0,
        0.13083875179290771,
        0.9914036393165588
      ],
      "scale": [
        1.0000001192092896,
        -2.9802322387695313e-08,
        1.9328894040882005e-09
      ],
      "translation": [
        3.085601806640625,
        0.0,
        0.0
      ]
    },
    {
      "children": [
        77
      ],
      "name": "Bip01 L Finger22",
      "rotation": [
        1.4622364430394441e-09,
        -2.7184416939718403e-09,
        0.13083870708942413,
        0.9914036989212036
      ],
      "scale": [
        0.9999999403953552,
        2.9802322387695313e-08,
        2.402954280000813e-08
      ],
      "translation": [
        3.0855979919433594,
        0.0,
        0.0
      ]
    },
    {
      "children": [
        67
      ],
      "name": "Bip01 R Finger2",
      "rotation": [
        0.08983656764030457,
        0.0049746353179216385,
        0.0555575005710125,
        0.9943932890892029
      ],
      "scale": [
        0.9999998807907104,
        -3.230707079637796e-08,
        1.578155206516385e-08
      ],
      "translation": [
        8.273906707763672,
        -0.6917953491210938,
        -1.2059054374694824
      ]
    },
    {
      "children": [
        68
      ],
      "name": "Bip01 R Finger21",
      "rotation": [
        -4.874121661835318e-10,
        3.693267025539626e-09,
        0.1308387666940689,
        0.9914037585258484
      ],
      "scale": [
        1.0,
        5.960464477539063e-08,
        -7.450581485102248e-09
      ],
      "translation": [
        3.0856056213378906,
        7.62939453125e-06,
        0.0
      ]
    },
    {
      "children": [
        78
      ],
      "name": "Bip01 R Finger22",
      "rotation": [
        -3.205853804644221e-09,
        -4.180678025988982e-09,
        0.13083867728710175,
        0.9914036989212036
      ],
      "scale": [
        1.0,
        -1.1102230246251565e-16,
        7.450581485102248e-09
      ],
      "translation": [
        3.085590362548828,
        -1.52587890625e-05,
        1.9073486328125e-06
      ]
    },
    {
      "children": [
        70
      ],
      "name": "Bip01 R Finger1",
      "rotation": [
        0.0031985845416784286,
        -0.06788016110658646,
        0.041126515716314316,
        0.9968403577804565
      ],
      "scale": [
        1.0,
        -7.101334631443024e-09,
        2.9802322387695313e-08
      ],
      "translation": [
        8.23691177368164,
        -0.86138916015625,
        2.4590821266174316
      ]
    },
    {
      "children": [
        73
      ],
      "name": "Bip01 R Finger11",
      "rotation": [
        3.2522409765256555e-10,
        6.474942360057412e-09,
        0.11640222370624542,
        0.993202269077301
      ],
      "scale": [
        1.0,
        1.4901161193847656e-08,
        5.335555997021402e-09
      ],
      "translation": [
        3.010364532470703,
        0.0,
        1.9073486328125e-06
      ]
    },
    {
      "children": [
        72
      ],
      "name": "Bip01 L Finger1",
      "rotation": [
        -0.0031985880341380835,
        0.06788016855716705,
        0.04112650081515312,
        0.9968403577804565
      ],
      "scale": [
        1.0,
        -4.383764462545514e-08,
        0.0
      ],
      "translation": [
        8.23690414428711,
        -0.8613967895507813,
        -2.4590821266174316
      ]
    },
    {
      "children": [
        74
      ],
      "name": "Bip01 L Finger11",
      "rotation": [
        2.3920239122787734e-09,
        -2.5581592399959163e-09,
        0.11640220880508423,
        0.993202269077301
      ],
      "scale": [
        1.0,
        1.4901161193847656e-08,
        9.262750566563227e-09
      ],
      "translation": [
        3.0103721618652344,
        -7.62939453125e-06,
        0.0
      ]
    },
    {
      "children": [
        79
      ],
      "name": "Bip01 R Finger12",
      "rotation": [
        -2.3413431193830547e-09,
        -3.5915588281199007e-09,
        0.11640222370624542,
        0.993202269077301
      ],
      "scale": [
        1.0,
        -2.9802322387695313e-08,
        8.311948462846885e-09
      ],
      "translation": [
        3.010387420654297,
        0.0,
        -9.5367431640625e-07
      ]
    },
    {
      "children": [
        80
      ],
      "name": "Bip01 L Finger12",
      "rotation": [
        -6.634030658148049e-09,
        1.1995352489080346e-09,
        0.11640226095914841,
        0.9932021498680115
      ],
      "scale": [
        0.9999999403953552,
        -4.470348358154297e-08,
        -1.842454722122966e-08
      ],
      "translation": [
        3.0103797912597656,
        7.62939453125e-06,
        1.9073486328125e-06
      ]
    },
    {
      "name": "Bip01 R Finger0Nub",
      "rotation": [
        -9.313225191043273e-10,
        8.673615311932504e-19,
        9.313224635931761e-10,
        1.0
      ],
      "scale": [
        1.0000001192092896,
        -3.725290742551124e-09,
        0.0
      ],
      "translation": [
        3.7950172424316406,
        0.0,
        0.0
      ]
    },
    {
      "name": "Bip01 L Finger0Nub",
      "rotation": [
        -2.7939677238464355e-09,
        1.4901160305669237e-08,
        8.381901395182467e-09,
        1.0
      ],
      "scale": [
        1.0000001192092896,
        -3.725291630729544e-09,
        -2.9802322387695313e-08
      ],
      "translation": [
        3.795013427734375,
        -9.5367431640625e-07,
        0.0
      ]
    },
    {
      "name": "Bip01 L Finger2Nub",
      "rotation": [
        0.0,
        0.0,
        2.2351741790771484e-08,
        1.0
      ],
      "scale": [
        1.0,
        -1.4901161193847656e-08,
        0.0
      ],
      "translation": [
        3.0856094360351563,
        0.0,
        0.0
      ]
    },
    {
      "name": "Bip01 R Finger2Nub",
      "rotation": [
        1.862645149230957e-09,
        7.450580596923828e-09,
        7.450581485102248e-09,
        1.0
      ],
      "scale": [
        0.9999998807907104,
        -1.4901159417490817e-08,
        -1.4901159417490817e-08
      ],
      "translation": [
        3.085601806640625,
        0.0,
        0.0
      ]
    },
    {
      "name": "Bip01 R Finger1Nub",
      "rotation": [
        -9.31322685637781e-10,
        3.725290298461914e-09,
        0.0,
        1.0
      ],
      "scale": [
        0.9999999403953552,
        -2.9802320611338473e-08,
        -7.4505797087454084e-09
      ],
      "translation": [
        3.0103759765625,
        -1.52587890625e-05,
        0.0
      ]
    },
    {
      "name": "Bip01 L Finger1Nub",
      "rotation": [
        -2.7939677238464355e-09,
        -1.862645149230957e-09,
        -7.450580596923828e-09,
        1.0
      ],
      "scale": [
        1.0,
        1.4901161193847656e-08,
        3.725290298461914e-09
      ],
      "translation": [
        3.0103721618652344,
        0.0,
        -9.5367431640625e-07
      ]
    }
  ],
  "scene": 0,
  "scenes": [
    {
      "nodes": [
        0
      ]
    }
  ],
  "skins": [
    {
      "inverseBindMatrices": 8,
      "joints": [
        3,
        4,
        5,
        6,
        7,
        8,
        9,
        10,
        11,
        12,
        13,
        14,
        15,
        16,
        17,
        18,
        19,
        20,
        21,
        22,
        23,
        24,
        25,
        26,
        27,
        28,
        29,
        30,
        31,
        32,
        33,
        34,
        35,
        36,
        37,
        38,
        39,
        40,
        41,
        42,
        43,
        44,
        45,
        46,
        47,
        48,
        49,
        50,
        51,
        52,
        53,
        54,
        55,
        56,
        57,
        58,
        59,
        60,
        61,
        62,
        63,
        64,
        65,
        66,
        67,
        68,
        69,
        70,
        71,
        72,
        73,
        74,
        75,
        76,
        77,
        78,
        79,
        80
      ],
      "skeleton": 3
    }
  ]
}
