{
  "accessors": [
    {
      "bufferView": 0,
      "componentType": 5126,
      "count": 180,
      "max": [
        162.14735412597656,
        163.74398803710938,
        164.96441650390625
      ],
      "min": [
        -8.700907707214355,
        -9.16231632232666,
        -9.741835594177246
      ],
      "type": "VEC3"
    },
    {
      "bufferView": 1,
      "componentType": 5126,
      "count": 180,
      "type": "VEC3"
    },
    {
      "bufferView": 2,
      "componentType": 5126,
      "count": 180,
      "type": "VEC2"
    },
    {
      "bufferView": 3,
      "componentType": 5123,
      "count": 1020,
      "type": "SCALAR"
    },
    {
      "bufferView": 4,
      "componentType": 5126,
      "count": 2571,
      "max": [
        162.14735412597656,
        163.74398803710938,
        164.96441650390625
      ],
      "min": [
        -76.95738220214844,
        -77.74432373046875,
        -77.33047485351563
      ],
      "type": "VEC3"
    },
    {
      "bufferView": 5,
      "componentType": 5126,
      "count": 2571,
      "type": "VEC3"
    },
    {
      "bufferView": 6,
      "componentType": 5126,
      "count": 2571,
      "type": "VEC2"
    },
    {
      "bufferView": 7,
      "componentType": 5123,
      "count": 11460,
      "type": "SCALAR"
    },
    {
      "bufferView": 8,
      "componentType": 5126,
      "count": 93,
      "type": "MAT4"
    }
  ],
  "asset": {
    "generator": "gr2togltf (ANKA2 Project)",
    "version": "2.0"
  },
  "bufferViews": [
    {
      "buffer": 0,
      "byteLength": 2160,
      "target": 34962
    },
    {
      "buffer": 0,
      "byteLength": 2160,
      "byteOffset": 2160,
      "target": 34962
    },
    {
      "buffer": 0,
      "byteLength": 1440,
      "byteOffset": 4320,
      "target": 34962
    },
    {
      "buffer": 0,
      "byteLength": 2040,
      "byteOffset": 5760,
      "target": 34963
    },
    {
      "buffer": 0,
      "byteLength": 30852,
      "byteOffset": 7800,
      "target": 34962
    },
    {
      "buffer": 0,
      "byteLength": 30852,
      "byteOffset": 38652,
      "target": 34962
    },
    {
      "buffer": 0,
      "byteLength": 20568,
      "byteOffset": 69504,
      "target": 34962
    },
    {
      "buffer": 0,
      "byteLength": 22920,
      "byteOffset": 90072,
      "target": 34963
    },
    {
      "buffer": 0,
      "byteLength": 5952,
      "byteOffset": 112992
    }
  ],
  "buffers": [
    {
      "byteLength": 118944,
      "uri": "data:application/octet-stream;base64,"
    }
  ],
  "materials": [
    {
      "name": "default",
      "pbrMetallicRoughness": {
        "baseColorFactor": [
          0.8,
          0.8,
          0.8,
          1.0
        ],
        "metallicFactor": 0.0,
        "roughnessFactor": 0.8
      }
    }
  ],
  "meshes": [
    {
      "name": "shaman_face",
      "primitives": [
        {
          "attributes": {
            "NORMAL": 1,
            "POSITION": 0,
            "TEXCOORD_0": 2
          },
          "indices": 3,
          "material": 0,
          "mode": 4
        }
      ]
    },
    {
      "name": "shaman_halloween_2015",
      "primitives": [
        {
          "attributes": {
            "NORMAL": 5,
            "POSITION": 4,
            "TEXCOORD_0": 6
          },
          "indices": 7,
          "material": 0,
          "mode": 4
        }
      ]
    }
  ],
  "nodes": [
    {
      "children": [
        1,
        2,
        3
      ]
    },
    {
      "mesh": 0,
      "name": "shaman_face",
      "skin": 0
    },
    {
      "mesh": 1,
      "name": "shaman_halloween_2015",
      "skin": 0
    },
    {
      "children": [
        4
      ],
      "name": "Bip01",
      "rotation": [
        0.0,
        0.0,
        0.0,
        0.9999999403953552
      ],
      "scale": [
        0.9999997615814209,
        -5.117093408073606e-14,
        0.0
      ],
      "translation": [
        5.960464477539063e-08,
        -7.105427357601002e-14,
        0.0
      ]
    },
    {
      "children": [
        5
      ],
      "name": "Bip01 Pelvis",
      "rotation": [
        -0.4999993145465851,
        -0.5,
        -0.5,
        0.5000006556510925
      ],
      "scale": [
        1.0,
        6.755036055564761e-20,
        -2.6671148450016795e-18
      ],
      "translation": [
        0.9087960720062256,
        -7.105427357601002e-14,
        0.0
      ]
    },
    {
      "children": [
        6,
        19,
        25,
        31,
        37,
        40,
        45
      ],
      "name": "Bip01 Spine",
      "rotation": [
        -2.0994200440327404e-06,
        -7.13202211954922e-07,
        0.02897808514535427,
        0.9995800256729126
      ],
      "scale": [
        1.0000001192092896,
        -3.724561326023945e-09,
        -1.6604279800061517e-13
      ],
      "translation": [
        6.193992614746094,
        -0.009989559650421143,
        8.603674359619617e-06
      ]
    },
    {
      "children": [
        7
      ],
      "name": "Bip01 Spine1",
      "rotation": [
        3.2099401126505986e-14,
        2.445134725803655e-07,
        -0.08815741539001465,
        0.9961065649986267
      ],
      "scale": [
        1.0,
        -1.0468244937555937e-08,
        -3.4335168307706235e-14
      ],
      "translation": [
        12.570350646972656,
        -0.0077838897705078125,
        -2.1591404220089316e-08
      ]
    },
    {
      "children": [
        8,
        50,
        52
      ],
      "name": "Bip01 Spine2",
      "rotation": [
        4.449198103581402e-15,
        1.693988309625638e-07,
        -0.06107543781399727,
        0.9981331825256348
      ],
      "scale": [
        1.0,
        6.9974137161671335e-15,
        -1.540582169213406e-14
      ],
      "translation": [
        9.930061340332031,
        -0.012085914611816406,
        -3.352033672854304e-08
      ]
    },
    {
      "children": [
        9,
        14,
        88
      ],
      "name": "Bip01 Neck",
      "rotation": [
        -1.4723102972251725e-14,
        -7.252514251376851e-07,
        0.2614837884902954,
        0.9652078747749329
      ],
      "scale": [
        1.000000238418579,
        3.8805957558452064e-08,
        -3.272489430047182e-14
      ],
      "translation": [
        18.59966278076172,
        -1.1482963562011719,
        -1.1849188013002276e-06
      ]
    },
    {
      "children": [
        10,
        54
      ],
      "name": "Bip01 R Clavicle",
      "rotation": [
        -0.609510600566864,
        0.23812735080718994,
        0.7433037161827087,
        0.13889476656913757
      ],
      "scale": [
        1.0,
        1.1427184531953571e-08,
        -8.539746687574734e-10
      ],
      "translation": [
        -1.845062255859375,
        1.0423736572265625,
        -2.495269298553467
      ]
    },
    {
      "children": [
        11
      ],
      "name": "Bip01 R UpperArm",
      "rotation": [
        -0.1351195126771927,
        -0.021313443779945374,
        -0.05337775871157646,
        0.9891608953475952
      ],
      "scale": [
        1.0,
        -2.3296081508306088e-08,
        -1.7741440316854096e-08
      ],
      "translation": [
        11.936211585998535,
        0.0,
        -1.52587890625e-05
      ]
    },
    {
      "children": [
        12,
        56
      ],
      "name": "Bip01 R ForeArm",
      "rotation": [
        2.3273385996169793e-10,
        -6.7122561848986795e-12,
        -0.028828922659158707,
        0.9995843768119812
      ],
      "scale": [
        1.0,
        -6.586643230832578e-09,
        0.0
      ],
      "translation": [
        23.697328567504883,
        -4.76837158203125e-07,
        -1.52587890625e-05
      ]
    },
    {
      "children": [
        13,
        59,
        63,
        67
      ],
      "name": "Bip01 R Hand",
      "rotation": [
        0.7051334381103516,
        0.06748095154762268,
        -0.06658753007650375,
        0.7027085423469543
      ],
      "scale": [
        1.0000001192092896,
        -1.0898546065618575e-08,
        -9.223217745102374e-10
      ],
      "translation": [
        22.58063316345215,
        0.0,
        1.52587890625e-05
      ]
    },
    {
      "name": "equip_right",
      "rotation": [
        3.1408853828907013e-07,
        -4.023677036002482e-07,
        2.7939677238464355e-07,
        1.0
      ],
      "scale": [
        1.0000001192092896,
        -1.8624242148490566e-09,
        -3.0416358320906056e-09
      ],
      "translation": [
        5.946506500244141,
        0.677276611328125,
        -0.03370189666748047
      ]
    },
    {
      "children": [
        15,
        71
      ],
      "name": "Bip01 L Clavicle",
      "rotation": [
        0.6095109581947327,
        -0.2381293922662735,
        0.7433030605316162,
        0.13889306783676147
      ],
      "scale": [
        1.0,
        -7.017855629953829e-09,
        5.706258576765322e-09
      ],
      "translation": [
        -1.845062255859375,
        1.0423583984375,
        2.4952707290649414
      ]
    },
    {
      "children": [
        16
      ],
      "name": "Bip01 L UpperArm",
      "rotation": [
        0.1351195126771927,
        0.021313440054655075,
        -0.05337775871157646,
        0.9891608953475952
      ],
      "scale": [
        0.9999998807907104,
        -6.282715681038553e-09,
        -9.216409857515373e-10
      ],
      "translation": [
        11.936210632324219,
        0.0,
        1.52587890625e-05
      ]
    },
    {
      "children": [
        17,
        73
      ],
      "name": "Bip01 L ForeArm",
      "rotation": [
        -4.475260717562435e-10,
        -7.447483518774334e-09,
        -0.028828920796513557,
        0.9995843768119812
      ],
      "scale": [
        1.0,
        8.515534943853709e-10,
        1.4887741706104407e-08
      ],
      "translation": [
        23.697330474853516,
        0.0,
        3.0517578125e-05
      ]
    },
    {
      "children": [
        18,
        76,
        80,
        84
      ],
      "name": "Bip01 L Hand",
      "rotation": [
        -0.7049362063407898,
        -0.06950603425502777,
        -0.0645693764090538,
        0.702897310256958
      ],
      "scale": [
        0.9999999403953552,
        -8.183318911392234e-09,
        2.214899930130798e-10
      ],
      "translation": [
        22.580629348754883,
        -9.5367431640625e-07,
        -1.52587890625e-05
      ]
    },
    {
      "name": "equip_left",
      "rotation": [
        0.026893140748143196,
        0.9994118809700012,
        -0.0006183969089761376,
        0.02126600593328476
      ],
      "scale": [
        1.0000001192092896,
        1.042490449520983e-08,
        -1.162835516765881e-08
      ],
      "translation": [
        5.946643829345703,
        0.6773681640625,
        -0.000225067138671875
      ]
    },
    {
      "children": [
        20
      ],
      "name": "right_bone01",
      "rotation": [
        -0.1285742223262787,
        -0.695319652557373,
        0.7015994191169739,
        -0.08807696402072906
      ],
      "scale": [
        1.0000001192092896,
        -2.2563133583730632e-08,
        2.8487139314137266e-09
      ],
      "translation": [
        3.5177536010742188,
        -1.6281232833862305,
        -9.51598834991455
      ]
    },
    {
      "children": [
        21
      ],
      "name": "right_bone02",
      "rotation": [
        4.146369012025808e-11,
        2.0767929598264345e-08,
        -0.0019965211395174265,
        0.9999979734420776
      ],
      "scale": [
        1.0,
        0.0,
        3.6669449655836895e-15
      ],
      "translation": [
        17.058738708496094,
        -9.1552734375e-05,
        -5.960464477539063e-07
      ]
    },
    {
      "children": [
        22
      ],
      "name": "right_bone03",
      "rotation": [
        -1.7841552345763956e-13,
        7.385003025772718e-11,
        0.002410314278677106,
        0.999997079372406
      ],
      "scale": [
        1.0000001192092896,
        1.0900616520537199e-10,
        -1.807810137347118e-15
      ],
      "translation": [
        17.697650909423828,
        0.0,
        0.0
      ]
    },
    {
      "children": [
        23
      ],
      "name": "right_bone04",
      "rotation": [
        -2.4429031972709654e-18,
        4.428610385463235e-16,
        -0.005500921048223972,
        0.999984860420227
      ],
      "scale": [
        1.0,
        -3.802357317894689e-10,
        8.856817900880932e-16
      ],
      "translation": [
        17.533355712890625,
        -0.0001983642578125,
        0.0
      ]
    },
    {
      "children": [
        24
      ],
      "name": "right_bone05",
      "rotation": [
        1.5353827090827556e-17,
        3.8384666988742395e-18,
        -0.0172868762165308,
        0.9998505711555481
      ],
      "scale": [
        1.0,
        5.385679013869549e-09,
        -1.7681501489325404e-15
      ],
      "translation": [
        17.377683639526367,
        0.0,
        1.1920928955078125e-07
      ]
    },
    {
      "name": "right_bone06",
      "rotation": [
        -2.220446049250313e-16,
        0.0,
        -1.9721524981513997e-31,
        1.0
      ],
      "scale": [
        0.9999999403953552,
        0.0,
        1.776356733521132e-15
      ],
      "translation": [
        18.117719650268555,
        2.288818359375e-05,
        0.0
      ]
    },
    {
      "children": [
        26
      ],
      "name": "left_bone01",
      "rotation": [
        0.1285741776227951,
        0.6953186392784119,
        0.7016003727912903,
        -0.08807733654975891
      ],
      "scale": [
        1.0,
        -3.6554787641307485e-08,
        1.1774868857727938e-09
      ],
      "translation": [
        3.5177536010742188,
        -1.6281514167785645,
        9.515978813171387
      ]
    },
    {
      "children": [
        27
      ],
      "name": "left_bone02",
      "rotation": [
        4.146380114256054e-11,
        2.0767926045550666e-08,
        -0.0019965062383562326,
        0.9999979734420776
      ],
      "scale": [
        0.9999999403953552,
        0.0,
        3.66383211950253e-15
      ],
      "translation": [
        17.058738708496094,
        -9.1552734375e-05,
        -7.152557373046875e-07
      ]
    },
    {
      "children": [
        28
      ],
      "name": "left_bone03",
      "rotation": [
        -1.758545159534844e-13,
        7.385225070377643e-11,
        0.0024103291798382998,
        0.999997079372406
      ],
      "scale": [
        1.0000001192092896,
        1.0900971791905079e-10,
        4.414650594278214e-15
      ],
      "translation": [
        17.697647094726563,
        -3.814697265625e-06,
        0.0
      ]
    },
    {
      "children": [
        29
      ],
      "name": "left_bone04",
      "rotation": [
        -1.7861015299419376e-15,
        -1.7763299461041751e-15,
        -0.005500906612724066,
        0.999984860420227
      ],
      "scale": [
        1.0,
        -6.557492326919601e-10,
        3.533170511124976e-15
      ],
      "translation": [
        17.533344268798828,
        -0.0001983642578125,
        0.0
      ]
    },
    {
      "children": [
        30
      ],
      "name": "left_bone05",
      "rotation": [
        -9.494609357966186e-16,
        -1.535381220157653e-17,
        -0.0172868724912405,
        0.9998505711555481
      ],
      "scale": [
        1.0,
        -4.120895624737386e-09,
        7.041897768974561e-15
      ],
      "translation": [
        17.377689361572266,
        0.0,
        -1.1920928955078125e-07
      ]
    },
    {
      "name": "left_bone06",
      "rotation": [
        0.0,
        1.7763568394002505e-15,
        0.0,
        1.0
      ],
      "scale": [
        1.0,
        0.0,
        -3.552713678800501e-15
      ],
      "translation": [
        18.117721557617188,
        2.6702880859375e-05,
        1.1920928955078125e-07
      ]
    },
    {
      "children": [
        32
      ],
      "name": "back_bone01",
      "rotation": [
        -9.262237909979376e-08,
        -7.457610422534344e-07,
        0.9823359251022339,
        -0.187126025557518
      ],
      "scale": [
        1.0000001192092896,
        -5.801412239492265e-09,
        6.558189440049626e-15
      ],
      "translation": [
        3.0302810668945313,
        -8.421609878540039,
        -1.2413242075126618e-05
      ]
    },
    {
      "children": [
        33
      ],
      "name": "back_bone02",
      "rotation": [
        -1.358119286858626e-15,
        2.0840673919952663e-16,
        -0.08938860893249512,
        0.9959968328475952
      ],
      "scale": [
        0.9999998211860657,
        -1.5359145066895508e-09,
        -1.6040127396883125e-15
      ],
      "translation": [
        12.280601501464844,
        -3.814697265625e-06,
        5.229594535194337e-12
      ]
    },
    {
      "children": [
        34
      ],
      "name": "back_bone03",
      "rotation": [
        4.224761477613324e-15,
        3.907235599869754e-17,
        0.00676793372258544,
        0.9999771118164063
      ],
      "scale": [
        1.0000001192092896,
        -2.4891033678642316e-10,
        1.7973141285812164e-15
      ],
      "translation": [
        18.749588012695313,
        8.392333984375e-05,
        1.4592342267860658e-07
      ]
    },
    {
      "children": [
        35
      ],
      "name": "back_bone04",
      "rotation": [
        2.189139182124202e-16,
        -4.534537943566693e-16,
        -0.0070373364724218845,
        0.9999752044677734
      ],
      "scale": [
        1.0000001192092896,
        1.846705011132599e-10,
        8.725527794056515e-16
      ],
      "translation": [
        17.046077728271484,
        0.00026702880859375,
        1.2274426808289718e-07
      ]
    },
    {
      "children": [
        36
      ],
      "name": "back_bone05",
      "rotation": [
        -3.311237079274272e-16,
        4.3777992612376135e-16,
        0.004368518013507128,
        0.9999904632568359
      ],
      "scale": [
        1.0,
        3.1208618936365284e-30,
        8.78444634707634e-16
      ],
      "translation": [
        19.994054794311523,
        0.0,
        1.5606860870320816e-07
      ]
    },
    {
      "name": "back_bone06",
      "rotation": [
        -2.3314685634710655e-15,
        0.0,
        0.0,
        1.0
      ],
      "scale": [
        0.9999999403953552,
        0.0,
        0.0
      ],
      "translation": [
        18.225330352783203,
        0.0,
        1.3542194210458547e-07
      ]
    },
    {
      "children": [
        38
      ],
      "name": "front_bone01",
      "rotation": [
        1.228702899425116e-07,
        -6.800131586714997e-07,
        0.998245358467102,
        0.0592135451734066
      ],
      "scale": [
        1.0,
        -4.376338159049753e-13,
        -3.1031695767701206e-14
      ],
      "translation": [
        4.354286193847656,
        7.451943874359131,
        1.0479928278073203e-05
      ]
    },
    {
      "children": [
        39
      ],
      "name": "front_bone02",
      "rotation": [
        -2.2093681288496477e-15,
        3.616660854669938e-15,
        -0.06419984996318817,
        0.9979370832443237
      ],
      "scale": [
        1.000000238418579,
        1.4281795301940292e-08,
        -7.276137530757686e-15
      ],
      "translation": [
        16.666854858398438,
        9.5367431640625e-07,
        1.2019427231280133e-07
      ]
    },
    {
      "name": "front_bone03",
      "rotation": [
        -4.440892627896218e-16,
        1.7763568394002505e-15,
        7.450580596923828e-09,
        1.0
      ],
      "scale": [
        1.0,
        0.0,
        -3.552713467042264e-15
      ],
      "translation": [
        14.756553649902344,
        -3.814697265625e-06,
        1.877797330962494e-07
      ]
    },
    {
      "children": [
        41
      ],
      "name": "Bip01 R Thigh",
      "rotation": [
        -0.005618722178041935,
        0.9973922371864319,
        -0.005683479830622673,
        0.07172735035419464
      ],
      "scale": [
        1.0000001192092896,
        3.558844996476296e-09,
        -9.571228254401376e-10
      ],
      "translation": [
        -6.183006286621094,
        0.36882495880126953,
        -6.6108808517456055
      ]
    },
    {
      "children": [
        42
      ],
      "name": "Bip01 R Calf",
      "rotation": [
        7.061567441901673e-10,
        3.7248031325987085e-09,
        -0.0020579088013619184,
        0.9999978542327881
      ],
      "scale": [
        0.9999999403953552,
        3.7252587681280147e-09,
        -7.448664351983325e-09
      ],
      "translation": [
        43.94834518432617,
        4.76837158203125e-07,
        -1.9073486328125e-06
      ]
    },
    {
      "children": [
        43
      ],
      "name": "Bip01 R Foot",
      "rotation": [
        0.06650763750076294,
        0.07425316423177719,
        0.03141501545906067,
        0.9945231676101685
      ],
      "scale": [
        1.0,
        -1.234354929380288e-08,
        2.9496771247750075e-08
      ],
      "translation": [
        40.72791290283203,
        4.76837158203125e-07,
        1.9073486328125e-06
      ]
    },
    {
      "children": [
        44
      ],
      "name": "Bip01 R Toe0",
      "rotation": [
        2.6341777648042353e-09,
        -2.6341775427596303e-09,
        0.7071067094802856,
        0.7071067690849304
      ],
      "scale": [
        1.0000001192092896,
        -1.0587911840678754e-22,
        -7.450581485102248e-09
      ],
      "translation": [
        12.25244140625,
        10.997764587402344,
        0.0
      ]
    },
    {
      "name": "Bip01 R Toe0Nub",
      "rotation": [
        -1.1102230246251565e-16,
        -3.7252898543727042e-09,
        8.88178366760566e-16,
        1.0
      ],
      "scale": [
        1.0000001192092896,
        -1.0587911840678754e-22,
        -7.450581485102248e-09
      ],
      "translation": [
        8.298245429992676,
        0.0,
        0.0
      ]
    },
    {
      "children": [
        46
      ],
      "name": "Bip01 L Thigh",
      "rotation": [
        -0.005618920549750328,
        0.9973922371864319,
        0.005686240270733833,
        -0.07172724604606628
      ],
      "scale": [
        1.0000001192092896,
        2.5299913275489416e-09,
        4.934844755055678e-10
      ],
      "translation": [
        -6.183006286621094,
        0.3687882423400879,
        6.610882759094238
      ]
    },
    {
      "children": [
        47
      ],
      "name": "Bip01 L Calf",
      "rotation": [
        -1.5332636202347594e-11,
        -7.449607153375837e-09,
        -0.002057911129668355,
        0.9999978542327881
      ],
      "scale": [
        0.9999997615814209,
        -4.4067149929105653e-10,
        1.490307610652053e-08
      ],
      "translation": [
        43.94833755493164,
        4.76837158203125e-07,
        -1.9073486328125e-06
      ]
    },
    {
      "children": [
        48
      ],
      "name": "Bip01 L Foot",
      "rotation": [
        -0.06650764495134354,
        -0.07425308227539063,
        0.03141501918435097,
        0.9945231676101685
      ],
      "scale": [
        0.9999999403953552,
        -1.7187934631124335e-08,
        -2.8242801874966972e-08
      ],
      "translation": [
        40.72791290283203,
        0.0,
        -1.9073486328125e-06
      ]
    },
    {
      "children": [
        49
      ],
      "name": "Bip01 L Toe0",
      "rotation": [
        -2.6341777648042353e-09,
        2.6341777648042353e-09,
        0.7071067094802856,
        0.7071067690849304
      ],
      "scale": [
        1.0,
        0.0,
        7.450580596923828e-09
      ],
      "translation": [
        12.252439498901367,
        10.997764587402344,
        0.0
      ]
    },
    {
      "name": "Bip01 L Toe0Nub",
      "rotation": [
        0.0,
        3.725290298461914e-09,
        0.0,
        1.0
      ],
      "scale": [
        1.0,
        0.0,
        -7.450580596923828e-09
      ],
      "translation": [
        8.298245429992676,
        0.0,
        1.9073486328125e-06
      ]
    },
    {
      "children": [
        51
      ],
      "name": "ru_bone01",
      "rotation": [
        -0.13882553577423096,
        0.10431142896413803,
        0.7873219847679138,
        0.5915831923484802
      ],
      "scale": [
        1.0,
        -1.0702966513065348e-08,
        -6.317613809869727e-08
      ],
      "translation": [
        3.6871871948242188,
        4.92872428894043,
        -5.072079181671143
      ]
    },
    {
      "name": "ru_bone02",
      "rotation": [
        5.076525866343218e-10,
        4.917881657462431e-10,
        -8.731618805768449e-08,
        1.0
      ],
      "scale": [
        0.45864197611808777,
        3.341181176267369e-15,
        -3.2741807043379367e-09
      ],
      "translation": [
        8.651856422424316,
        0.0,
        9.5367431640625e-07
      ]
    },
    {
      "children": [
        53
      ],
      "name": "lu_bone01",
      "rotation": [
        0.1388261914253235,
        -0.1043127179145813,
        0.787321925163269,
        0.5915828943252563
      ],
      "scale": [
        1.0000001192092896,
        -6.946346609026932e-09,
        -6.082579062649529e-08
      ],
      "translation": [
        3.6871795654296875,
        4.928712844848633,
        5.072099208831787
      ]
    },
    {
      "name": "lu_bone02",
      "rotation": [
        -5.812666191743702e-16,
        8.677682572511003e-09,
        -8.630088643712952e-08,
        1.0
      ],
      "scale": [
        0.45864197611808777,
        9.313180782122288e-10,
        6.2718745752476934e-09
      ],
      "translation": [
        8.651856422424316,
        0.0,
        9.5367431640625e-07
      ]
    },
    {
      "children": [
        55
      ],
      "name": "right_sh_01",
      "rotation": [
        -0.7749796509742737,
        0.1756466031074524,
        0.04531026631593704,
        0.6053939461708069
      ],
      "scale": [
        1.0000001192092896,
        4.22072821137931e-09,
        5.089501264876617e-09
      ],
      "translation": [
        4.489248275756836,
        0.011577606201171875,
        -1.4733428955078125
      ]
    },
    {
      "name": "right_sh_02",
      "rotation": [
        3.552713678800501e-15,
        8.08242361927114e-14,
        1.6960509462251754e-27,
        1.0
      ],
      "scale": [
        1.0,
        -4.395532963891478e-27,
        -1.509903313490213e-14
      ],
      "translation": [
        24.970550537109375,
        0.0,
        4.76837158203125e-07
      ]
    },
    {
      "children": [
        57
      ],
      "name": "rh_w_01",
      "rotation": [
        0.8278537392616272,
        0.560829222202301,
        -0.010881808586418629,
        -0.003211113391444087
      ],
      "scale": [
        1.0000003576278687,
        1.705161523091192e-08,
        1.4625351596464498e-08
      ],
      "translation": [
        19.923721313476563,
        2.5698623657226563,
        -1.6744384765625
      ]
    },
    {
      "children": [
        58
      ],
      "name": "rh_w_02",
      "rotation": [
        -3.9935242612809674e-11,
        1.7024762710704522e-09,
        -0.021440064534544945,
        0.9997701644897461
      ],
      "scale": [
        0.9999998807907104,
        6.277132591492318e-09,
        3.402456760781547e-09
      ],
      "translation": [
        18.202255249023438,
        -1.9073486328125e-06,
        0.0
      ]
    },
    {
      "name": "rh_w_03",
      "rotation": [
        4.65616540168412e-05,
        -0.004037188366055489,
        0.004922046326100826,
        0.9999797344207764
      ],
      "scale": [
        0.5082592964172363,
        -5.723602036766806e-09,
        -1.5615356785403378e-09
      ],
      "translation": [
        13.761600494384766,
        -3.814697265625e-06,
        0.0
      ]
    },
    {
      "children": [
        60
      ],
      "name": "Bip01 R Finger2",
      "rotation": [
        -0.01070131454616785,
        0.022079061716794968,
        0.12060805410146713,
        0.9923969507217407
      ],
      "scale": [
        0.9999995231628418,
        -4.3382192416174803e-07,
        -8.806561169194538e-08
      ],
      "translation": [
        8.930442810058594,
        -0.663421630859375,
        -0.9564809799194336
      ]
    },
    {
      "children": [
        61
      ],
      "name": "Bip01 R Finger21",
      "rotation": [
        8.165837450668789e-10,
        0.0,
        0.1164020225405693,
        0.9932022094726563
      ],
      "scale": [
        1.0000001192092896,
        1.2350907852010096e-08,
        -2.0527493038713374e-09
      ],
      "translation": [
        3.7396926879882813,
        1.52587890625e-05,
        9.5367431640625e-07
      ]
    },
    {
      "children": [
        62
      ],
      "name": "Bip01 R Finger22",
      "rotation": [
        -1.0840783132293197e-10,
        4.62495819419928e-10,
        0.1164020299911499,
        0.9932021498680115
      ],
      "scale": [
        0.9999999403953552,
        5.798942481760605e-08,
        -1.850026243310765e-09
      ],
      "translation": [
        3.7396926879882813,
        0.0,
        -9.5367431640625e-07
      ]
    },
    {
      "name": "Bip01 R Finger2Nub",
      "rotation": [
        0.0,
        -4.656612873077393e-10,
        2.168404344971009e-19,
        1.0
      ],
      "scale": [
        1.0,
        0.0,
        9.313225746154785e-10
      ],
      "translation": [
        3.739696502685547,
        0.0,
        0.0
      ]
    },
    {
      "children": [
        64
      ],
      "name": "Bip01 R Finger1",
      "rotation": [
        -0.00017513516650069505,
        -0.07781513035297394,
        0.11223243176937103,
        0.9906304478645325
      ],
      "scale": [
        0.9999995827674866,
        -5.476859996633721e-07,
        4.210027952922246e-07
      ],
      "translation": [
        9.007843017578125,
        -0.8791351318359375,
        2.345937728881836
      ]
    },
    {
      "children": [
        65
      ],
      "name": "Bip01 R Finger11",
      "rotation": [
        -1.0640264225258989e-09,
        -6.13528605697411e-09,
        0.11640201508998871,
        0.9932022094726563
      ],
      "scale": [
        1.0,
        -1.5928323549019296e-08,
        1.4137583548290422e-08
      ],
      "translation": [
        3.5907211303710938,
        1.52587890625e-05,
        9.5367431640625e-07
      ]
    },
    {
      "children": [
        66
      ],
      "name": "Bip01 R Finger12",
      "rotation": [
        -3.5950837862230856e-09,
        1.8788475220077316e-09,
        0.1164020225405693,
        0.9932022094726563
      ],
      "scale": [
        0.9999999403953552,
        5.798942481760605e-08,
        1.760761669800104e-08
      ],
      "translation": [
        3.590709686279297,
        -1.52587890625e-05,
        -9.5367431640625e-07
      ]
    },
    {
      "name": "Bip01 R Finger1Nub",
      "rotation": [
        -2.3283064365386963e-09,
        4.6566128730773926e-09,
        7.450580596923828e-09,
        1.0
      ],
      "scale": [
        1.0,
        1.4901161193847656e-08,
        -7.450580596923828e-09
      ],
      "translation": [
        3.5907249450683594,
        0.0,
        -9.5367431640625e-07
      ]
    },
    {
      "children": [
        68
      ],
      "name": "Bip01 R Finger0",
      "rotation": [
        -0.6464375853538513,
        -0.23017531633377075,
        -0.09677518904209137,
        0.7209523916244507
      ],
      "scale": [
        1.0000001192092896,
        1.843139472157418e-07,
        -2.6138042130696704e-07
      ],
      "translation": [
        0.8650360107421875,
        0.074554443359375,
        1.5068016052246094
      ]
    },
    {
      "children": [
        69
      ],
      "name": "Bip01 R Finger01",
      "rotation": [
        3.7266425501059075e-09,
        -6.762368442991828e-13,
        -0.00018151244148612022,
        1.0
      ],
      "scale": [
        1.0,
        8.381902283360887e-09,
        -1.4901161193847656e-08
      ],
      "translation": [
        4.211383819580078,
        1.9073486328125e-06,
        0.0
      ]
    },
    {
      "children": [
        70
      ],
      "name": "Bip01 R Finger02",
      "rotation": [
        -2.870706727886585e-10,
        0.0,
        0.038529977202415466,
        0.9992574453353882
      ],
      "scale": [
        1.0000001192092896,
        1.944663807762481e-08,
        -1.4879040222126605e-08
      ],
      "translation": [
        4.211374282836914,
        -3.814697265625e-06,
        0.0
      ]
    },
    {
      "name": "Bip01 R Finger0Nub",
      "rotation": [
        -3.725290076417309e-09,
        0.0,
        4.656612873077393e-10,
        1.0
      ],
      "scale": [
        1.0,
        9.31322685637781e-10,
        1.4901161193847656e-08
      ],
      "translation": [
        4.83111572265625,
        1.9073486328125e-06,
        -1.52587890625e-05
      ]
    },
    {
      "children": [
        72
      ],
      "name": "left_sh_01",
      "rotation": [
        0.7749797105789185,
        -0.17564751207828522,
        0.045307502150535583,
        0.6053937673568726
      ],
      "scale": [
        0.9999998807907104,
        -1.0475704748102999e-09,
        1.5640519990256507e-08
      ],
      "translation": [
        4.48924446105957,
        0.01154327392578125,
        1.47332763671875
      ]
    },
    {
      "name": "left_sh_02",
      "rotation": [
        -3.5527132552840273e-15,
        8.881783138210068e-16,
        2.5243539939275763e-29,
        1.0
      ],
      "scale": [
        1.0000001192092896,
        0.0,
        -1.2434499569867648e-14
      ],
      "translation": [
        24.970550537109375,
        0.0,
        0.0
      ]
    },
    {
      "children": [
        74
      ],
      "name": "lh_w_01",
      "rotation": [
        0.8278523683547974,
        0.5608313083648682,
        0.01088186539709568,
        0.003211785340681672
      ],
      "scale": [
        0.9985765218734741,
        0.05288582295179367,
        -0.008059624582529068
      ],
      "translation": [
        19.923742294311523,
        2.5701637268066406,
        1.6744842529296875
      ]
    },
    {
      "children": [
        75
      ],
      "name": "lh_w_02",
      "rotation": [
        0.0,
        0.0,
        -0.021440044045448303,
        0.9997701644897461
      ],
      "scale": [
        1.0,
        -1.4887461929902202e-08,
        0.0
      ],
      "translation": [
        18.20225715637207,
        3.814697265625e-06,
        0.0
      ]
    },
    {
      "name": "lh_w_03",
      "rotation": [
        4.6557997848140076e-05,
        -0.004037191160023212,
        0.004922029096633196,
        0.9999797344207764
      ],
      "scale": [
        0.5082592368125916,
        -5.724236640247682e-09,
        7.995301642971242e-10
      ],
      "translation": [
        13.7615966796875,
        3.814697265625e-06,
        0.0
      ]
    },
    {
      "children": [
        77
      ],
      "name": "Bip01 L Finger2",
      "rotation": [
        0.010701313614845276,
        -0.022079065442085266,
        0.12060804665088654,
        0.9923969507217407
      ],
      "scale": [
        0.9999994039535522,
        -3.9043041510922194e-07,
        8.957307073842458e-08
      ],
      "translation": [
        8.930450439453125,
        -0.6634063720703125,
        0.9564828872680664
      ]
    },
    {
      "children": [
        78
      ],
      "name": "Bip01 L Finger21",
      "rotation": [
        1.2195877641119068e-10,
        -3.468718368093704e-10,
        0.1164020299911499,
        0.9932021498680115
      ],
      "scale": [
        1.0,
        7.105582255917398e-08,
        2.0765476005379924e-09
      ],
      "translation": [
        3.739696502685547,
        0.0,
        0.0
      ]
    },
    {
      "children": [
        79
      ],
      "name": "Bip01 L Finger22",
      "rotation": [
        5.4203915661465984e-11,
        0.0,
        0.1164020225405693,
        0.9932022094726563
      ],
      "scale": [
        0.9999999403953552,
        2.756374684054208e-08,
        9.187036686952865e-10
      ],
      "translation": [
        3.73968505859375,
        0.0,
        -9.5367431640625e-07
      ]
    },
    {
      "name": "Bip01 L Finger2Nub",
      "rotation": [
        2.3283062977608182e-10,
        6.984919309616089e-10,
        0.0,
        1.0
      ],
      "scale": [
        1.0,
        2.980232594040899e-08,
        1.3969838619232178e-09
      ],
      "translation": [
        3.739696502685547,
        1.52587890625e-05,
        -1.9073486328125e-06
      ]
    },
    {
      "children": [
        81
      ],
      "name": "Bip01 L Finger1",
      "rotation": [
        0.0001751342206262052,
        0.07781513035297394,
        0.11223243176937103,
        0.9906304478645325
      ],
      "scale": [
        0.9999995827674866,
        -5.471703161674668e-07,
        -4.345196202848456e-07
      ],
      "translation": [
        9.007843017578125,
        -0.8791351318359375,
        -2.3459367752075195
      ]
    },
    {
      "children": [
        82
      ],
      "name": "Bip01 L Finger11",
      "rotation": [
        -6.251075213015156e-10,
        5.604153585636595e-09,
        0.1164020225405693,
        0.9932022094726563
      ],
      "scale": [
        1.0,
        -1.5928321772662457e-08,
        -2.6921969098481213e-09
      ],
      "translation": [
        3.5907135009765625,
        0.0,
        1.9073486328125e-06
      ]
    },
    {
      "children": [
        83
      ],
      "name": "Bip01 L Finger12",
      "rotation": [
        8.978895404965215e-10,
        -2.7894071497058803e-09,
        0.11640200018882751,
        0.9932022094726563
      ],
      "scale": [
        1.0000001192092896,
        2.8279227848315713e-08,
        -1.6198727081917497e-10
      ],
      "translation": [
        3.5907135009765625,
        0.0,
        9.5367431640625e-07
      ]
    },
    {
      "name": "Bip01 L Finger1Nub",
      "rotation": [
        -2.7939675018018306e-09,
        -9.313225746154785e-09,
        0.0,
        1.0
      ],
      "scale": [
        1.0,
        2.9802322387695313e-08,
        -3.725288078015865e-09
      ],
      "translation": [
        3.5907211303710938,
        0.0,
        -9.5367431640625e-07
      ]
    },
    {
      "children": [
        85
      ],
      "name": "Bip01 L Finger0",
      "rotation": [
        0.6464375853538513,
        0.23017531633377075,
        -0.09677518904209137,
        0.7209523916244507
      ],
      "scale": [
        1.0000001192092896,
        1.33342965114025e-07,
        2.3699669782217825e-07
      ],
      "translation": [
        0.8650436401367188,
        0.074554443359375,
        -1.5068001747131348
      ]
    },
    {
      "children": [
        86
      ],
      "name": "Bip01 L Finger01",
      "rotation": [
        -6.760703108454891e-13,
        -1.1175870895385742e-08,
        -0.0001814994029700756,
        1.0
      ],
      "scale": [
        1.0,
        -1.2085556555518906e-08,
        7.450581485102248e-09
      ],
      "translation": [
        4.21137809753418,
        -1.9073486328125e-06,
        0.0
      ]
    },
    {
      "children": [
        87
      ],
      "name": "Bip01 L Finger02",
      "rotation": [
        -3.722523844729153e-09,
        1.4353528088317802e-10,
        0.03852996975183487,
        0.9992574453353882
      ],
      "scale": [
        1.0000001192092896,
        2.403635690484407e-08,
        5.737151864693146e-10
      ],
      "translation": [
        4.2113800048828125,
        0.0,
        -1.52587890625e-05
      ]
    },
    {
      "name": "Bip01 L Finger0Nub",
      "rotation": [
        -3.725290298461914e-09,
        3.725290298461914e-09,
        -7.450580596923828e-09,
        1.0
      ],
      "scale": [
        1.0,
        2.0489096641540527e-08,
        7.450580152834618e-09
      ],
      "translation": [
        4.83111572265625,
        0.0,
        0.0
      ]
    },
    {
      "children": [
        89,
        95
      ],
      "name": "Bip01 Head",
      "rotation": [
        7.929786926923199e-14,
        -7.363339449284467e-08,
        0.026547251269221306,
        0.9996475577354431
      ],
      "scale": [
        0.9999999403953552,
        -5.755562936208961e-16,
        7.975309865640434e-14
      ],
      "translation": [
        8.269393920898438,
        0.0,
        0.0
      ]
    },
    {
      "children": [
        90
      ],
      "name": "Bip01 Ponytail1",
      "rotation": [
        1.890486682129544e-12,
        -2.7729504381568404e-06,
        0.9997656941413879,
        -0.021647030487656593
      ],
      "scale": [
        0.9999998211860657,
        2.284418432196844e-09,
        3.171376057814826e-14
      ],
      "translation": [
        6.120635986328125,
        -6.112087249755859,
        -1.6952501027844846e-05
      ]
    },
    {
      "children": [
        91
      ],
      "name": "Bip01 Ponytail11",
      "rotation": [
        1.7045772345708476e-13,
        -5.8934318758474546e-08,
        0.021248292177915573,
        0.9997742176055908
      ],
      "scale": [
        1.0,
        1.3429174439139047e-09,
        -9.060791057876293e-15
      ],
      "translation": [
        11.2379150390625,
        -0.008941650390625,
        -2.4811015464365482e-08
      ]
    },
    {
      "children": [
        92
      ],
      "name": "Bip01 Ponytail12",
      "rotation": [
        -1.7891359238315224e-13,
        1.829703535349836e-07,
        -0.06596853584051132,
        0.9978216886520386
      ],
      "scale": [
        0.9999999403953552,
        7.846940874856045e-09,
        6.914697560735962e-15
      ],
      "translation": [
        11.236328125,
        -0.00885772705078125,
        -2.4578184820711613e-08
      ]
    },
    {
      "children": [
        93
      ],
      "name": "Bip01 Ponytail13",
      "rotation": [
        1.1482514158250856e-13,
        1.8297041037840245e-07,
        -0.06596855074167252,
        0.9978216886520386
      ],
      "scale": [
        1.0,
        8.814838100982061e-15,
        -9.374516814946235e-15
      ],
      "translation": [
        11.236343383789063,
        -0.00887298583984375,
        -2.4607288651168346e-08
      ]
    },
    {
      "children": [
        94
      ],
      "name": "Bip01 Ponytail14",
      "rotation": [
        1.1037455265082777e-13,
        1.8297041037840245e-07,
        -0.06596856564283371,
        0.9978216886520386
      ],
      "scale": [
        1.0,
        -7.84692666400133e-09,
        4.1257131717063744e-14
      ],
      "translation": [
        11.236351013183594,
        -0.00887298583984375,
        -2.459273673593998e-08
      ]
    },
    {
      "name": "Bip01 Ponytail1Nub",
      "rotation": [
        0.7073882222175598,
        0.7068251967430115,
        9.80225195235107e-07,
        -9.810059964365792e-07
      ],
      "scale": [
        1.0,
        3.670962839263936e-11,
        -5.371724115868504e-13
      ],
      "translation": [
        11.237533569335938,
        0.0,
        0.0
      ]
    },
    {
      "name": "Bip01 HeadNub",
      "rotation": [
        -6.394884621840902e-14,
        -2.842170943040401e-14,
        -2.0194839173657902e-27,
        1.0
      ],
      "scale": [
        0.9999999403953552,
        -6.462348535570529e-27,
        5.684341886080802e-14
      ],
      "translation": [
        20.161117553710938,
        -7.62939453125e-06,
        0.0
      ]
    }
  ],
  "scene": 0,
  "scenes": [
    {
      "nodes": [
        0
      ]
    }
  ],
  "skins": [
    {
      "inverseBindMatrices": 8,
      "joints": [
        3,
        4,
        5,
        6,
        7,
        8,
        9,
        10,
        11,
        12,
        13,
        14,
        15,
        16,
        17,
        18,
        19,
        20,
        21,
        22,
        23,
        24,
        25,
        26,
        27,
        28,
        29,
        30,
        31,
        32,
        33,
        34,
        35,
        36,
        37,
        38,
        39,
        40,
        41,
        42,
        43,
        44,
        45,
        46,
        47,
        48,
        49,
        50,
        51,
        52,
        53,
        54,
        55,
        56,
        57,
        58,
        59,
        60,
        61,
        62,
        63,
        64,
        65,
        66,
        67,
        68,
        69,
        70,
        71,
        72,
        73,
        74,
        75,
        76,
        77,
        78,
        79,
        80,
        81,
        82,
        83,
        84,
        85,
        86,
        87,
        88,
        89,
        90,
        91,
        92,
        93,
        94,
        95
      ],
      "skeleton": 3
    }
  ]
}
