{
  "accessors": [
    {
      "bufferView": 0,
      "componentType": 5126,
      "count": 2341,
      "max": [
        154.64581298828125,
        156.274169921875,
        154.59857177734375
      ],
      "min": [
        -78.8021011352539,
        -78.26148223876953,
        -78.3023910522461
      ],
      "type": "VEC3"
    },
    {
      "bufferView": 1,
      "componentType": 5126,
      "count": 2341,
      "type": "VEC3"
    },
    {
      "bufferView": 2,
      "componentType": 5126,
      "count": 2341,
      "type": "VEC2"
    },
    {
      "bufferView": 3,
      "componentType": 5123,
      "count": 9180,
      "type": "SCALAR"
    },
    {
      "bufferView": 4,
      "componentType": 5126,
      "count": 180,
      "max": [
        165.39859008789063,
        164.9644012451172,
        160.5121612548828
      ],
      "min": [
        -78.8021011352539,
        -78.26148223876953,
        -78.3023910522461
      ],
      "type": "VEC3"
    },
    {
      "bufferView": 5,
      "componentType": 5126,
      "count": 180,
      "type": "VEC3"
    },
    {
      "bufferView": 6,
      "componentType": 5126,
      "count": 180,
      "type": "VEC2"
    },
    {
      "bufferView": 7,
      "componentType": 5123,
      "count": 1020,
      "type": "SCALAR"
    },
    {
      "bufferView": 8,
      "componentType": 5126,
      "count": 73,
      "type": "MAT4"
    }
  ],
  "asset": {
    "generator": "gr2togltf (ANKA2 Project)",
    "version": "2.0"
  },
  "bufferViews": [
    {
      "buffer": 0,
      "byteLength": 28092,
      "target": 34962
    },
    {
      "buffer": 0,
      "byteLength": 28092,
      "byteOffset": 28092,
      "target": 34962
    },
    {
      "buffer": 0,
      "byteLength": 18728,
      "byteOffset": 56184,
      "target": 34962
    },
    {
      "buffer": 0,
      "byteLength": 18360,
      "byteOffset": 74912,
      "target": 34963
    },
    {
      "buffer": 0,
      "byteLength": 2160,
      "byteOffset": 93272,
      "target": 34962
    },
    {
      "buffer": 0,
      "byteLength": 2160,
      "byteOffset": 95432,
      "target": 34962
    },
    {
      "buffer": 0,
      "byteLength": 1440,
      "byteOffset": 97592,
      "target": 34962
    },
    {
      "buffer": 0,
      "byteLength": 2040,
      "byteOffset": 99032,
      "target": 34963
    },
    {
      "buffer": 0,
      "byteLength": 4672,
      "byteOffset": 101072
    }
  ],
  "buffers": [
    {
      "byteLength": 105744,
      "uri": "data:application/octet-stream;base64,"
    }
  ],
  "materials": [
    {
      "name": "default",
      "pbrMetallicRoughness": {
        "baseColorFactor": [
          0.8,
          0.8,
          0.8,
          1.0
        ],
        "metallicFactor": 0.0,
        "roughnessFactor": 0.8
      }
    }
  ],
  "meshes": [
    {
      "name": "shaman_SpringWear_f_body",
      "primitives": [
        {
          "attributes": {
            "NORMAL": 1,
            "POSITION": 0,
            "TEXCOORD_0": 2
          },
          "indices": 3,
          "material": 0,
          "mode": 4
        }
      ]
    },
    {
      "name": "shaman_SpringWear_f_face",
      "primitives": [
        {
          "attributes": {
            "NORMAL": 5,
            "POSITION": 4,
            "TEXCOORD_0": 6
          },
          "indices": 7,
          "material": 0,
          "mode": 4
        }
      ]
    }
  ],
  "nodes": [
    {
      "children": [
        1,
        2,
        3
      ]
    },
    {
      "mesh": 0,
      "name": "shaman_SpringWear_f_body",
      "skin": 0
    },
    {
      "mesh": 1,
      "name": "shaman_SpringWear_f_face",
      "skin": 0
    },
    {
      "children": [
        4
      ],
      "name": "Bip01",
      "rotation": [
        0.0,
        0.0,
        0.0,
        0.9999999403953552
      ],
      "scale": [
        0.9999997615814209,
        -5.117093408073606e-14,
        0.0
      ],
      "translation": [
        5.960464477539063e-08,
        -7.105427357601002e-14,
        0.0
      ]
    },
    {
      "children": [
        5
      ],
      "name": "Bip01 Pelvis",
      "rotation": [
        -0.4999993145465851,
        -0.5,
        -0.5,
        0.5000006556510925
      ],
      "scale": [
        1.0,
        6.755036055564761e-20,
        -2.6671148450016795e-18
      ],
      "translation": [
        0.9087960720062256,
        -7.105427357601002e-14,
        0.0
      ]
    },
    {
      "children": [
        6,
        10,
        18,
        24,
        27,
        51,
        68
      ],
      "name": "Bip01 Spine",
      "rotation": [
        -2.0994200440327404e-06,
        -7.13202211954922e-07,
        0.02897808514535427,
        0.9995800256729126
      ],
      "scale": [
        1.0000001192092896,
        -3.724561326023945e-09,
        -1.6604279800061517e-13
      ],
      "translation": [
        6.193992614746094,
        -0.009989559650421143,
        8.603674359619617e-06
      ]
    },
    {
      "children": [
        7
      ],
      "name": "Bip01 Spine1",
      "rotation": [
        3.2099401126505986e-14,
        2.445134725803655e-07,
        -0.08815741539001465,
        0.9961065649986267
      ],
      "scale": [
        1.0,
        -1.0468244937555937e-08,
        -3.4335168307706235e-14
      ],
      "translation": [
        12.570350646972656,
        -0.0077838897705078125,
        -2.1591404220089316e-08
      ]
    },
    {
      "children": [
        8,
        16,
        31
      ],
      "name": "Bip01 Spine2",
      "rotation": [
        3.559358652271711e-15,
        1.693989304385468e-07,
        -0.061075467616319656,
        0.9981331825256348
      ],
      "scale": [
        1.0,
        6.99740863396945e-15,
        -1.902568475486109e-14
      ],
      "translation": [
        9.930061340332031,
        -0.0120849609375,
        -3.352033672854304e-08
      ]
    },
    {
      "children": [
        9
      ],
      "name": "ru_bone01",
      "rotation": [
        -0.13882525265216827,
        0.10431162267923355,
        0.7873219847679138,
        0.591583251953125
      ],
      "scale": [
        1.000000238418579,
        -7.286441228160356e-09,
        2.059003278986893e-08
      ],
      "translation": [
        3.68719482421875,
        4.928730010986328,
        -5.072067737579346
      ]
    },
    {
      "name": "ru_bone02",
      "rotation": [
        -2.538259324946779e-10,
        1.6895299381758377e-08,
        -8.731618805768449e-08,
        1.0
      ],
      "scale": [
        0.4586419463157654,
        3.341181176267369e-15,
        -2.3428567974548287e-09
      ],
      "translation": [
        8.651857376098633,
        -1.52587890625e-05,
        9.5367431640625e-07
      ]
    },
    {
      "children": [
        11
      ],
      "name": "right_bone01",
      "rotation": [
        -0.12857405841350555,
        -0.695319652557373,
        0.7015994191169739,
        -0.08807679265737534
      ],
      "scale": [
        1.000000238418579,
        1.7178138911333463e-09,
        7.669443968794099e-10
      ],
      "translation": [
        3.5177536010742188,
        -1.6281237602233887,
        -9.515993118286133
      ]
    },
    {
      "children": [
        12
      ],
      "name": "right_bone02",
      "rotation": [
        4.146378032587883e-11,
        2.0767931374621185e-08,
        -0.0019965211395174265,
        0.9999979734420776
      ],
      "scale": [
        1.0,
        2.9802084355878833e-08,
        1.1068475983303482e-16
      ],
      "translation": [
        17.058731079101563,
        -9.1552734375e-05,
        -7.152557373046875e-07
      ]
    },
    {
      "children": [
        13
      ],
      "name": "right_bone03",
      "rotation": [
        -1.780803016984342e-13,
        7.384913514041358e-11,
        0.0024102991446852684,
        0.999997079372406
      ],
      "scale": [
        1.0000001192092896,
        -6.932410201443417e-11,
        -1.7597137603348916e-17
      ],
      "translation": [
        17.697643280029297,
        -7.62939453125e-06,
        0.0
      ]
    },
    {
      "children": [
        14
      ],
      "name": "right_bone04",
      "rotation": [
        2.232626647729626e-16,
        2.20819768813522e-16,
        -0.005500913131982088,
        0.999984860420227
      ],
      "scale": [
        1.0000001192092896,
        -1.5004976816612725e-08,
        -4.440892098500626e-16
      ],
      "translation": [
        17.53335189819336,
        -0.000194549560546875,
        1.1920928955078125e-07
      ]
    },
    {
      "children": [
        15
      ],
      "name": "right_bone05",
      "rotation": [
        -1.1868263020946713e-16,
        4.497804771622235e-16,
        -0.017286885529756546,
        0.9998505711555481
      ],
      "scale": [
        1.0000001192092896,
        -1.5290089194763823e-08,
        8.95323354368452e-16
      ],
      "translation": [
        17.377687454223633,
        -7.62939453125e-06,
        0.0
      ]
    },
    {
      "name": "right_bone06",
      "rotation": [
        2.220446313948109e-16,
        6.661339206542123e-16,
        -7.450580596923828e-09,
        1.0
      ],
      "scale": [
        0.9999999403953552,
        1.4901160305669237e-08,
        4.440891569105034e-16
      ],
      "translation": [
        18.117725372314453,
        3.0517578125e-05,
        0.0
      ]
    },
    {
      "children": [
        17
      ],
      "name": "lu_bone01",
      "rotation": [
        0.1388261467218399,
        -0.10431254655122757,
        0.7873218655586243,
        0.5915829539299011
      ],
      "scale": [
        1.000000238418579,
        6.739774516262287e-09,
        2.4565327549908034e-08
      ],
      "translation": [
        3.68719482421875,
        4.928718566894531,
        5.072090148925781
      ]
    },
    {
      "name": "lu_bone02",
      "rotation": [
        5.458388308807486e-16,
        8.772866877393426e-09,
        -8.833149678366681e-08,
        1.0
      ],
      "scale": [
        0.45864197611808777,
        2.7939672797572257e-09,
        -5.4278648242700456e-09
      ],
      "translation": [
        8.65185546875,
        0.0,
        0.0
      ]
    },
    {
      "children": [
        19
      ],
      "name": "left_bone01",
      "rotation": [
        0.12857414782047272,
        0.6953186988830566,
        0.7016003131866455,
        -0.08807733654975891
      ],
      "scale": [
        1.0000003576278687,
        -6.976274846692831e-08,
        -4.0017820168714024e-09
      ],
      "translation": [
        3.5177459716796875,
        -1.6281514167785645,
        9.515974044799805
      ]
    },
    {
      "children": [
        20
      ],
      "name": "left_bone02",
      "rotation": [
        4.146380114256054e-11,
        2.0767931374621185e-08,
        -0.0019965211395174265,
        0.9999979734420776
      ],
      "scale": [
        0.9999999403953552,
        2.3800339477020316e-10,
        1.3019065805888047e-16
      ],
      "translation": [
        17.058731079101563,
        -9.5367431640625e-05,
        -5.960464477539063e-07
      ]
    },
    {
      "children": [
        21
      ],
      "name": "left_bone03",
      "rotation": [
        -1.7054632987963114e-13,
        7.384692857215214e-11,
        0.0024103070609271526,
        0.999997079372406
      ],
      "scale": [
        1.0,
        1.5188318158720904e-08,
        -1.3351867591963103e-14
      ],
      "translation": [
        17.697643280029297,
        -7.62939453125e-06,
        0.0
      ]
    },
    {
      "children": [
        22
      ],
      "name": "left_bone04",
      "rotation": [
        -4.460367927056844e-15,
        -3.528230826734826e-15,
        -0.005500921048223972,
        0.999984860420227
      ],
      "scale": [
        1.0,
        -3.802357317894689e-10,
        7.105427357601002e-15
      ],
      "translation": [
        17.53335189819336,
        -0.0001983642578125,
        0.0
      ]
    },
    {
      "children": [
        23
      ],
      "name": "left_bone05",
      "rotation": [
        2.664137153615166e-15,
        1.5353810547215304e-17,
        -0.0172868724912405,
        0.9998505711555481
      ],
      "scale": [
        0.9999999403953552,
        -1.4892254540654903e-08,
        1.2281229963913607e-16
      ],
      "translation": [
        17.377689361572266,
        -3.814697265625e-06,
        1.1920928955078125e-07
      ]
    },
    {
      "name": "left_bone06",
      "rotation": [
        -2.6645352591003757e-15,
        -3.552713678800501e-15,
        -1.4901161193847656e-08,
        1.0
      ],
      "scale": [
        0.9999999403953552,
        1.7763568394002505e-15,
        -7.105426934084528e-15
      ],
      "translation": [
        18.117721557617188,
        2.6702880859375e-05,
        -1.1920928955078125e-07
      ]
    },
    {
      "children": [
        25
      ],
      "name": "front_bone01",
      "rotation": [
        1.228702899425116e-07,
        -6.800131586714997e-07,
        0.998245358467102,
        0.0592135451734066
      ],
      "scale": [
        1.000000238418579,
        1.4072203402548666e-09,
        -3.1031695767701206e-14
      ],
      "translation": [
        4.3542938232421875,
        7.451944351196289,
        7.753652425890323e-06
      ]
    },
    {
      "children": [
        26
      ],
      "name": "front_bone02",
      "rotation": [
        1.0036364219491748e-15,
        3.595277931432977e-15,
        -0.06419984996318817,
        0.9979370832443237
      ],
      "scale": [
        1.000000238418579,
        -4.965325928196762e-10,
        -6.9062653477460455e-15
      ],
      "translation": [
        16.666847229003906,
        9.5367431640625e-07,
        1.2019472706015222e-07
      ]
    },
    {
      "name": "front_bone03",
      "rotation": [
        0.0,
        -1.7763568394002505e-15,
        7.450580596923828e-09,
        1.0
      ],
      "scale": [
        1.0,
        6.310887241768095e-30,
        3.552713467042264e-15
      ],
      "translation": [
        14.756553649902344,
        -3.814697265625e-06,
        1.877797330962494e-07
      ]
    },
    {
      "children": [
        28
      ],
      "name": "Bip01 R Thigh",
      "rotation": [
        -0.005618724040687084,
        0.9973922371864319,
        -0.005683527328073978,
        0.07172740250825882
      ],
      "scale": [
        1.0000001192092896,
        -6.227897086930057e-10,
        2.7660693180386886e-10
      ],
      "translation": [
        -6.183006286621094,
        0.36882495880126953,
        -6.6108808517456055
      ]
    },
    {
      "children": [
        29
      ],
      "name": "Bip01 R Calf",
      "rotation": [
        -4.579940315885267e-10,
        3.7252823048561368e-09,
        -0.0020579069387167692,
        0.9999978542327881
      ],
      "scale": [
        0.9999998807907104,
        2.453210967701125e-10,
        -7.452497285953541e-09
      ],
      "translation": [
        43.9483528137207,
        0.0,
        0.0
      ]
    },
    {
      "children": [
        30
      ],
      "name": "Bip01 R Foot",
      "rotation": [
        0.06650760024785995,
        0.07425322383642197,
        0.03141501173377037,
        0.9945231676101685
      ],
      "scale": [
        1.0,
        -1.6720505868761393e-08,
        1.339680721912373e-08
      ],
      "translation": [
        40.7279167175293,
        4.76837158203125e-07,
        0.0
      ]
    },
    {
      "name": "Bip01 R Toe0",
      "rotation": [
        2.6341777648042353e-09,
        -2.6341775427596303e-09,
        0.7071067094802856,
        0.7071067690849304
      ],
      "scale": [
        1.0000001192092896,
        -1.0587911840678754e-22,
        -7.450581485102248e-09
      ],
      "translation": [
        12.25244140625,
        10.99776554107666,
        0.0
      ]
    },
    {
      "children": [
        32,
        45,
        55
      ],
      "name": "Bip01 Neck",
      "rotation": [
        1.472310127818583e-14,
        -7.252507430166588e-07,
        0.2614835202693939,
        0.9652079343795776
      ],
      "scale": [
        1.0000004768371582,
        2.615836258712534e-08,
        -8.895211363281127e-14
      ],
      "translation": [
        18.59967803955078,
        -1.148294448852539,
        -1.1849188013002276e-06
      ]
    },
    {
      "children": [
        33
      ],
      "name": "Bip01 R Clavicle",
      "rotation": [
        -0.6095106601715088,
        0.2381271868944168,
        0.7433037757873535,
        0.13889455795288086
      ],
      "scale": [
        1.0,
        -3.897893918747286e-08,
        -3.332702647185215e-08
      ],
      "translation": [
        -1.845062255859375,
        1.0423812866210938,
        -2.495269298553467
      ]
    },
    {
      "children": [
        34
      ],
      "name": "Bip01 R UpperArm",
      "rotation": [
        -0.13511957228183746,
        -0.021313395351171494,
        -0.05337771028280258,
        0.9891608953475952
      ],
      "scale": [
        1.0,
        -9.01797747587807e-09,
        -7.934673362797184e-09
      ],
      "translation": [
        11.936210632324219,
        0.0,
        -1.52587890625e-05
      ]
    },
    {
      "children": [
        35
      ],
      "name": "Bip01 R ForeArm",
      "rotation": [
        2.0582130444424251e-10,
        1.1167869296002664e-08,
        -0.02882891707122326,
        0.9995843768119812
      ],
      "scale": [
        0.9999999403953552,
        -3.151394700751098e-09,
        -2.2365163943049993e-08
      ],
      "translation": [
        23.69732666015625,
        0.0,
        0.0
      ]
    },
    {
      "children": [
        36,
        39,
        42,
        74
      ],
      "name": "Bip01 R Hand",
      "rotation": [
        0.7051334381103516,
        0.06748095154762268,
        -0.06658753752708435,
        0.7027085423469543
      ],
      "scale": [
        1.0000001192092896,
        3.7357503757107224e-09,
        -1.458518195107672e-09
      ],
      "translation": [
        22.580636978149414,
        9.5367431640625e-07,
        1.52587890625e-05
      ]
    },
    {
      "children": [
        37
      ],
      "name": "Bip01 R Finger2",
      "rotation": [
        -0.01070131454616785,
        0.022079061716794968,
        0.12060804665088654,
        0.9923969507217407
      ],
      "scale": [
        0.999999463558197,
        -4.1925332538994553e-07,
        -8.654299676891242e-08
      ],
      "translation": [
        8.93044662475586,
        -0.6634063720703125,
        -0.9564814567565918
      ]
    },
    {
      "children": [
        38
      ],
      "name": "Bip01 R Finger21",
      "rotation": [
        4.218428661939555e-10,
        -2.9266794543403307e-10,
        0.1164020299911499,
        0.9932021498680115
      ],
      "scale": [
        1.0,
        -1.4309620155472658e-09,
        -6.795636275924721e-10
      ],
      "translation": [
        3.7396926879882813,
        0.0,
        0.0
      ]
    },
    {
      "name": "Bip01 R Finger22",
      "rotation": [
        -8.978895960076727e-10,
        6.937436736187408e-10,
        0.1164020225405693,
        0.9932022094726563
      ],
      "scale": [
        1.0,
        4.349206861320454e-08,
        6.557653309258171e-10
      ],
      "translation": [
        3.739696502685547,
        0.0,
        -9.5367431640625e-07
      ]
    },
    {
      "children": [
        40
      ],
      "name": "Bip01 R Finger1",
      "rotation": [
        -0.00017513516650069505,
        -0.07781512290239334,
        0.11223243176937103,
        0.9906304478645325
      ],
      "scale": [
        0.9999995827674866,
        -5.739314019592712e-07,
        4.2104161934730655e-07
      ],
      "translation": [
        9.00784683227539,
        -0.879119873046875,
        2.3459362983703613
      ]
    },
    {
      "children": [
        41
      ],
      "name": "Bip01 R Finger11",
      "rotation": [
        9.30943794275052e-11,
        -5.026033811361685e-09,
        0.1164020225405693,
        0.9932022094726563
      ],
      "scale": [
        0.9999999403953552,
        -7.154818959520526e-10,
        9.552365121123785e-09
      ],
      "translation": [
        3.5907135009765625,
        0.0,
        9.5367431640625e-07
      ]
    },
    {
      "name": "Bip01 R Finger12",
      "rotation": [
        -1.062263610407399e-09,
        1.1154103418675732e-08,
        0.1164020299911499,
        0.9932021498680115
      ],
      "scale": [
        0.9999999403953552,
        5.798942481760605e-08,
        5.640050204647196e-09
      ],
      "translation": [
        3.590709686279297,
        -1.52587890625e-05,
        0.0
      ]
    },
    {
      "children": [
        43
      ],
      "name": "Bip01 R Finger0",
      "rotation": [
        -0.6464375853538513,
        -0.23017531633377075,
        -0.09677518159151077,
        0.7209523916244507
      ],
      "scale": [
        1.0,
        1.5804086217485747e-07,
        -2.560297502895992e-07
      ],
      "translation": [
        0.8650360107421875,
        0.074554443359375,
        1.5068011283874512
      ]
    },
    {
      "children": [
        44
      ],
      "name": "Bip01 R Finger01",
      "rotation": [
        2.0284780799517677e-12,
        -3.725290076417309e-09,
        -0.000181504525244236,
        1.0
      ],
      "scale": [
        1.0,
        -3.725290076417309e-09,
        -2.2351741790771484e-08
      ],
      "translation": [
        4.2113800048828125,
        1.9073486328125e-06,
        0.0
      ]
    },
    {
      "name": "Bip01 R Finger02",
      "rotation": [
        -7.732118945114053e-09,
        -1.1110480876553414e-16,
        0.038529977202415466,
        0.9992574453353882
      ],
      "scale": [
        1.0000001192092896,
        4.457075419850298e-08,
        -1.4305324924634988e-08
      ],
      "translation": [
        4.211374282836914,
        0.0,
        0.0
      ]
    },
    {
      "children": [
        46
      ],
      "name": "Bip01 Head",
      "rotation": [
        2.1768043707089298e-14,
        -7.363424003870023e-08,
        0.02654755860567093,
        0.9996475577354431
      ],
      "scale": [
        0.9999996423721313,
        -3.8140526847918466e-10,
        2.632100673484114e-14
      ],
      "translation": [
        8.269393920898438,
        3.814697265625e-06,
        0.0
      ]
    },
    {
      "children": [
        47
      ],
      "name": "Bip01 Ponytail1",
      "rotation": [
        1.847844143323951e-12,
        -2.772950665530516e-06,
        0.9997656941413879,
        -0.021647104993462563
      ],
      "scale": [
        0.9999997615814209,
        -2.955307665253315e-10,
        1.2464477421123693e-13
      ],
      "translation": [
        6.120635986328125,
        -6.112079620361328,
        -1.6952501027844846e-05
      ]
    },
    {
      "children": [
        48
      ],
      "name": "Bip01 Ponytail11",
      "rotation": [
        1.1360146357679637e-13,
        -5.893463494999196e-08,
        0.02124840021133423,
        0.9997742176055908
      ],
      "scale": [
        1.0,
        2.5324344843369317e-09,
        -1.0235591874400117e-14
      ],
      "translation": [
        11.2379150390625,
        -0.008941650390625,
        -2.4796463549137115e-08
      ]
    },
    {
      "children": [
        49
      ],
      "name": "Bip01 Ponytail12",
      "rotation": [
        -5.340704007511521e-14,
        1.8297042458925716e-07,
        -0.0659685805439949,
        0.9978216886520386
      ],
      "scale": [
        1.0,
        -7.84692844035817e-09,
        -1.1259200359157659e-13
      ],
      "translation": [
        11.236335754394531,
        -0.00887298583984375,
        -2.4578184820711613e-08
      ]
    },
    {
      "children": [
        50
      ],
      "name": "Bip01 Ponytail13",
      "rotation": [
        2.332107488893509e-13,
        1.8297032511327416e-07,
        -0.06596854329109192,
        0.9978216886520386
      ],
      "scale": [
        1.0,
        8.814553497911784e-15,
        -7.571228393581445e-14
      ],
      "translation": [
        11.236366271972656,
        -0.00887298583984375,
        -2.4621840566396713e-08
      ]
    },
    {
      "name": "Bip01 Ponytail14",
      "rotation": [
        1.130449019440781e-13,
        1.8297042458925716e-07,
        -0.06596856564283371,
        0.9978216886520386
      ],
      "scale": [
        1.0,
        8.814697493512817e-15,
        -3.754902137375997e-15
      ],
      "translation": [
        11.236335754394531,
        -0.00887298583984375,
        -2.4600012693554163e-08
      ]
    },
    {
      "children": [
        52
      ],
      "name": "Bip01 L Thigh",
      "rotation": [
        -0.005618922412395477,
        0.9973922371864319,
        0.005686287768185139,
        -0.07172729820013046
      ],
      "scale": [
        1.0000001192092896,
        -1.0316302256896392e-09,
        7.780489141850921e-09
      ],
      "translation": [
        -6.183006286621094,
        0.3687882423400879,
        6.610882759094238
      ]
    },
    {
      "children": [
        53
      ],
      "name": "Bip01 L Calf",
      "rotation": [
        -2.3283014405350855e-10,
        -7.451044226058912e-09,
        -0.002057907171547413,
        0.9999978542327881
      ],
      "scale": [
        0.9999998211860657,
        -2.2033622149031373e-10,
        -1.8525046947825974e-12
      ],
      "translation": [
        43.94834899902344,
        0.0,
        0.0
      ]
    },
    {
      "children": [
        54
      ],
      "name": "Bip01 L Foot",
      "rotation": [
        -0.06650760769844055,
        -0.0742531344294548,
        0.03141501918435097,
        0.9945231676101685
      ],
      "scale": [
        1.0,
        -1.4292726113751542e-08,
        -1.1089581697376616e-08
      ],
      "translation": [
        40.72792053222656,
        0.0,
        0.0
      ]
    },
    {
      "name": "Bip01 L Toe0",
      "rotation": [
        -2.6341777648042353e-09,
        2.6341777648042353e-09,
        0.7071067094802856,
        0.7071067690849304
      ],
      "scale": [
        1.0,
        0.0,
        7.450580596923828e-09
      ],
      "translation": [
        12.252439498901367,
        10.997763633728027,
        0.0
      ]
    },
    {
      "children": [
        56
      ],
      "name": "Bip01 L Clavicle",
      "rotation": [
        0.6095110177993774,
        -0.23812925815582275,
        0.743303120136261,
        0.13889287412166595
      ],
      "scale": [
        0.9999999403953552,
        -4.4596838222332735e-08,
        4.707010603510753e-08
      ],
      "translation": [
        -1.845062255859375,
        1.0423660278320313,
        2.4952707290649414
      ]
    },
    {
      "children": [
        57
      ],
      "name": "Bip01 L UpperArm",
      "rotation": [
        0.13511957228183746,
        0.021313389763236046,
        -0.05337771028280258,
        0.9891608953475952
      ],
      "scale": [
        0.9999999403953552,
        -1.0924727789074495e-09,
        -1.44989922290506e-08
      ],
      "translation": [
        11.936209678649902,
        -3.814697265625e-06,
        1.52587890625e-05
      ]
    },
    {
      "children": [
        58
      ],
      "name": "Bip01 L ForeArm",
      "rotation": [
        -4.116427199107875e-10,
        -1.4894968813905507e-08,
        -0.028828918933868408,
        0.9995843768119812
      ],
      "scale": [
        1.0,
        5.677027736794571e-10,
        4.47045174212235e-08
      ],
      "translation": [
        23.697330474853516,
        0.0,
        1.52587890625e-05
      ]
    },
    {
      "children": [
        59,
        62,
        65,
        75
      ],
      "name": "Bip01 L Hand",
      "rotation": [
        -0.7049362063407898,
        -0.06950603425502777,
        -0.0645693764090538,
        0.702897310256958
      ],
      "scale": [
        0.9999999403953552,
        -8.178926869106817e-09,
        -2.6706901135042926e-09
      ],
      "translation": [
        22.58063316345215,
        -9.5367431640625e-07,
        -1.52587890625e-05
      ]
    },
    {
      "children": [
        60
      ],
      "name": "Bip01 L Finger2",
      "rotation": [
        0.010701313614845276,
        -0.022079065442085266,
        0.12060804665088654,
        0.9923969507217407
      ],
      "scale": [
        0.999999463558197,
        -4.193959455278673e-07,
        8.991055011620119e-08
      ],
      "translation": [
        8.930450439453125,
        -0.66339111328125,
        0.95648193359375
      ]
    },
    {
      "children": [
        61
      ],
      "name": "Bip01 L Finger21",
      "rotation": [
        -1.0840782438403807e-10,
        3.540879256469509e-10,
        0.1164020299911499,
        0.9932021498680115
      ],
      "scale": [
        1.0000001192092896,
        1.3066394188854247e-08,
        -2.065368098769227e-09
      ],
      "translation": [
        3.739696502685547,
        0.0,
        -9.5367431640625e-07
      ]
    },
    {
      "name": "Bip01 L Finger22",
      "rotation": [
        6.251074657903644e-10,
        -5.166996275285385e-10,
        0.11640205979347229,
        0.9932021498680115
      ],
      "scale": [
        1.0000001192092896,
        5.655846990748614e-08,
        2.553388389614497e-09
      ],
      "translation": [
        3.7396888732910156,
        0.0,
        9.5367431640625e-07
      ]
    },
    {
      "children": [
        63
      ],
      "name": "Bip01 L Finger1",
      "rotation": [
        0.00017513516650069505,
        0.07781512290239334,
        0.11223243176937103,
        0.9906304478645325
      ],
      "scale": [
        0.9999996423721313,
        -5.474205977407109e-07,
        -4.1505487047288625e-07
      ],
      "translation": [
        9.007850646972656,
        -0.879119873046875,
        -2.345937728881836
      ]
    },
    {
      "children": [
        64
      ],
      "name": "Bip01 L Finger11",
      "rotation": [
        -1.7144733410745516e-09,
        -3.793942049412635e-09,
        0.11640201508998871,
        0.9932022094726563
      ],
      "scale": [
        1.0,
        -3.042568152977765e-08,
        2.1760591106811944e-09
      ],
      "translation": [
        3.5907135009765625,
        0.0,
        1.9073486328125e-06
      ]
    },
    {
      "name": "Bip01 L Finger12",
      "rotation": [
        1.4958954075439124e-09,
        -5.455642049234655e-10,
        0.1164020225405693,
        0.9932022094726563
      ],
      "scale": [
        0.9999999403953552,
        2.9710195192933497e-08,
        2.293328416058671e-09
      ],
      "translation": [
        3.5907135009765625,
        1.52587890625e-05,
        9.5367431640625e-07
      ]
    },
    {
      "children": [
        66
      ],
      "name": "Bip01 L Finger0",
      "rotation": [
        0.6464375853538513,
        0.23017531633377075,
        -0.09677518904209137,
        0.7209523916244507
      ],
      "scale": [
        1.0000001192092896,
        1.33342965114025e-07,
        2.3337395305134123e-07
      ],
      "translation": [
        0.8650398254394531,
        0.074554443359375,
        -1.5068011283874512
      ]
    },
    {
      "children": [
        67
      ],
      "name": "Bip01 L Finger01",
      "rotation": [
        3.7239380468179206e-09,
        6.761258219967203e-13,
        -0.00018151430413126945,
        1.0
      ],
      "scale": [
        1.0,
        -1.2107192581822801e-08,
        1.4903864808957223e-08
      ],
      "translation": [
        4.21137809753418,
        -1.9073486328125e-06,
        0.0
      ]
    },
    {
      "name": "Bip01 L Finger02",
      "rotation": [
        7.301512727764248e-09,
        3.722523844729153e-09,
        0.038529954850673676,
        0.9992574453353882
      ],
      "scale": [
        1.0,
        -3.5391316544064466e-08,
        -8.024295006237026e-09
      ],
      "translation": [
        4.211387634277344,
        1.9073486328125e-06,
        0.0
      ]
    },
    {
      "children": [
        69
      ],
      "name": "back_bone01",
      "rotation": [
        -4.333369929554465e-08,
        -7.363720442299382e-07,
        0.9823358654975891,
        -0.1871262788772583
      ],
      "scale": [
        1.0,
        5.160221750767635e-13,
        3.0443011257491256e-14
      ],
      "translation": [
        3.0302734375,
        -8.421613693237305,
        -2.278813008160796e-05
      ]
    },
    {
      "children": [
        70
      ],
      "name": "back_bone02",
      "rotation": [
        -7.258368791227541e-16,
        1.6898529643871946e-15,
        -0.08938858658075333,
        0.9959968328475952
      ],
      "scale": [
        0.9999999403953552,
        6.563553256455634e-09,
        -3.869014416030096e-15
      ],
      "translation": [
        12.280609130859375,
        0.0,
        3.637978807091713e-12
      ]
    },
    {
      "children": [
        71
      ],
      "name": "back_bone03",
      "rotation": [
        0.0,
        1.2022295135224295e-17,
        0.0067679500207304955,
        0.9999771118164063
      ],
      "scale": [
        0.9999999403953552,
        1.2445322550291849e-10,
        2.404403605943818e-17
      ],
      "translation": [
        18.749588012695313,
        8.392333984375e-05,
        1.4592387742595747e-07
      ]
    },
    {
      "children": [
        72
      ],
      "name": "back_bone04",
      "rotation": [
        1.3447355310172975e-15,
        -1.7731876656280985e-15,
        -0.0070373364724218845,
        0.9999752044677734
      ],
      "scale": [
        1.0000001192092896,
        -6.542245634122423e-10,
        -3.5273611356562325e-15
      ],
      "translation": [
        17.04608154296875,
        0.00026702880859375,
        1.227449502039235e-07
      ]
    },
    {
      "children": [
        73
      ],
      "name": "back_bone05",
      "rotation": [
        2.6567497557656878e-15,
        1.7840999910875757e-15,
        0.0043685175478458405,
        0.9999904632568359
      ],
      "scale": [
        1.0000001192092896,
        -4.105241147023264e-10,
        -3.560473771146771e-15
      ],
      "translation": [
        19.994049072265625,
        3.814697265625e-06,
        1.5606929082423449e-07
      ]
    },
    {
      "name": "back_bone06",
      "rotation": [
        0.0,
        -5.3290705182007514e-15,
        0.0,
        1.0
      ],
      "scale": [
        1.0,
        0.0,
        -3.552713467042264e-15
      ],
      "translation": [
        18.22532844543457,
        0.0,
        1.354221694782609e-07
      ]
    },
    {
      "name": "equip_right",
      "rotation": [
        3.1408848144565127e-07,
        -4.009598058019037e-07,
        2.8172496513434453e-07,
        1.0
      ],
      "scale": [
        1.000000238418579,
        -2.793649755972183e-09,
        -7.643111699096039e-10
      ],
      "translation": [
        5.946521759033203,
        0.677276611328125,
        -0.03371477127075195
      ]
    },
    {
      "name": "equip_left",
      "rotation": [
        0.02689313143491745,
        0.9994118809700012,
        -0.0006184004596434534,
        0.02126612514257431
      ],
      "scale": [
        1.0000004768371582,
        1.9719879063018197e-09,
        4.103162698498863e-09
      ],
      "translation": [
        5.9466400146484375,
        0.6773681640625,
        -0.00024318695068359375
      ]
    }
  ],
  "scene": 0,
  "scenes": [
    {
      "nodes": [
        0
      ]
    }
  ],
  "skins": [
    {
      "inverseBindMatrices": 8,
      "joints": [
        3,
        4,
        5,
        6,
        7,
        8,
        9,
        10,
        11,
        12,
        13,
        14,
        15,
        16,
        17,
        18,
        19,
        20,
        21,
        22,
        23,
        24,
        25,
        26,
        27,
        28,
        29,
        30,
        31,
        32,
        33,
        34,
        35,
        36,
        37,
        38,
        39,
        40,
        41,
        42,
        43,
        44,
        45,
        46,
        47,
        48,
        49,
        50,
        51,
        52,
        53,
        54,
        55,
        56,
        57,
        58,
        59,
        60,
        61,
        62,
        63,
        64,
        65,
        66,
        67,
        68,
        69,
        70,
        71,
        72,
        73,
        74,
        75
      ],
      "skeleton": 3
    }
  ]
}
