{
  "accessors": [
    {
      "bufferView": 0,
      "componentType": 5126,
      "count": 1107,
      "max": [
        154.64590454101563,
        144.68739318847656,
        160.51220703125
      ],
      "min": [
        -77.74427795410156,
        -74.5726318359375,
        -77.74427795410156
      ],
      "type": "VEC3"
    },
    {
      "bufferView": 1,
      "componentType": 5126,
      "count": 1107,
      "type": "VEC3"
    },
    {
      "bufferView": 2,
      "componentType": 5126,
      "count": 1107,
      "type": "VEC2"
    },
    {
      "bufferView": 3,
      "componentType": 5123,
      "count": 4665,
      "type": "SCALAR"
    },
    {
      "bufferView": 4,
      "componentType": 5126,
      "count": 180,
      "max": [
        162.1473388671875,
        163.74400329589844,
        164.96441650390625
      ],
      "min": [
        -77.74427795410156,
        -74.5726318359375,
        -77.74427795410156
      ],
      "type": "VEC3"
    },
    {
      "bufferView": 5,
      "componentType": 5126,
      "count": 180,
      "type": "VEC3"
    },
    {
      "bufferView": 6,
      "componentType": 5126,
      "count": 180,
      "type": "VEC2"
    },
    {
      "bufferView": 7,
      "componentType": 5123,
      "count": 1020,
      "type": "SCALAR"
    },
    {
      "bufferView": 8,
      "componentType": 5126,
      "count": 93,
      "type": "MAT4"
    }
  ],
  "asset": {
    "generator": "gr2togltf (ANKA2 Project)",
    "version": "2.0"
  },
  "bufferViews": [
    {
      "buffer": 0,
      "byteLength": 13284,
      "target": 34962
    },
    {
      "buffer": 0,
      "byteLength": 13284,
      "byteOffset": 13284,
      "target": 34962
    },
    {
      "buffer": 0,
      "byteLength": 8856,
      "byteOffset": 26568,
      "target": 34962
    },
    {
      "buffer": 0,
      "byteLength": 9330,
      "byteOffset": 35424,
      "target": 34963
    },
    {
      "buffer": 0,
      "byteLength": 2160,
      "byteOffset": 44754,
      "target": 34962
    },
    {
      "buffer": 0,
      "byteLength": 2160,
      "byteOffset": 46914,
      "target": 34962
    },
    {
      "buffer": 0,
      "byteLength": 1440,
      "byteOffset": 49074,
      "target": 34962
    },
    {
      "buffer": 0,
      "byteLength": 2040,
      "byteOffset": 50514,
      "target": 34963
    },
    {
      "buffer": 0,
      "byteLength": 5952,
      "byteOffset": 52554
    }
  ],
  "buffers": [
    {
      "byteLength": 58506,
      "uri": "data:application/octet-stream;base64,"
    }
  ],
  "materials": [
    {
      "name": "default",
      "pbrMetallicRoughness": {
        "baseColorFactor": [
          0.8,
          0.8,
          0.8,
          1.0
        ],
        "metallicFactor": 0.0,
        "roughnessFactor": 0.8
      }
    }
  ],
  "meshes": [
    {
      "name": "shaman_capoeira1",
      "primitives": [
        {
          "attributes": {
            "NORMAL": 1,
            "POSITION": 0,
            "TEXCOORD_0": 2
          },
          "indices": 3,
          "material": 0,
          "mode": 4
        }
      ]
    },
    {
      "name": "shaman_face",
      "primitives": [
        {
          "attributes": {
            "NORMAL": 5,
            "POSITION": 4,
            "TEXCOORD_0": 6
          },
          "indices": 7,
          "material": 0,
          "mode": 4
        }
      ]
    }
  ],
  "nodes": [
    {
      "children": [
        1,
        2,
        3
      ]
    },
    {
      "mesh": 0,
      "name": "shaman_capoeira1",
      "skin": 0
    },
    {
      "mesh": 1,
      "name": "shaman_face",
      "skin": 0
    },
    {
      "children": [
        4
      ],
      "name": "Bip01",
      "rotation": [
        0.0,
        0.0,
        0.0,
        0.9999999403953552
      ],
      "scale": [
        0.9999997615814209,
        -5.117093408073606e-14,
        0.0
      ],
      "translation": [
        5.960464477539063e-08,
        -7.105427357601002e-14,
        0.0
      ]
    },
    {
      "children": [
        5
      ],
      "name": "Bip01 Pelvis",
      "rotation": [
        -0.4999993145465851,
        -0.5,
        -0.5,
        0.5000006556510925
      ],
      "scale": [
        1.0,
        6.755036055564761e-20,
        -2.6671148450016795e-18
      ],
      "translation": [
        0.9087960124015808,
        -2.842170943040401e-14,
        0.0
      ]
    },
    {
      "children": [
        6,
        19,
        25,
        31,
        37,
        40,
        45
      ],
      "name": "Bip01 Spine",
      "rotation": [
        -2.0994200440327404e-06,
        -7.13202211954922e-07,
        0.02897808514535427,
        0.9995800256729126
      ],
      "scale": [
        1.0000001192092896,
        -3.724561326023945e-09,
        -1.6604279800061517e-13
      ],
      "translation": [
        6.193992614746094,
        -0.009989529848098755,
        8.603674359619617e-06
      ]
    },
    {
      "children": [
        7
      ],
      "name": "Bip01 Spine1",
      "rotation": [
        3.2099401126505986e-14,
        2.445134725803655e-07,
        -0.08815741539001465,
        0.9961065649986267
      ],
      "scale": [
        1.0,
        -1.0468244937555937e-08,
        -3.4335168307706235e-14
      ],
      "translation": [
        12.570350646972656,
        -0.0077838897705078125,
        -2.1591404220089316e-08
      ]
    },
    {
      "children": [
        8,
        50,
        52
      ],
      "name": "Bip01 Spine2",
      "rotation": [
        4.449198103581402e-15,
        1.693988309625638e-07,
        -0.06107543781399727,
        0.9981331825256348
      ],
      "scale": [
        1.0,
        6.9974137161671335e-15,
        -1.540582169213406e-14
      ],
      "translation": [
        9.930061340332031,
        -0.012085914611816406,
        -3.352033672854304e-08
      ]
    },
    {
      "children": [
        9,
        14,
        88
      ],
      "name": "Bip01 Neck",
      "rotation": [
        1.4723102972251725e-14,
        -7.252511977640097e-07,
        0.26148366928100586,
        0.9652078747749329
      ],
      "scale": [
        1.000000238418579,
        -8.154116670766598e-08,
        -2.2544490688343466e-13
      ],
      "translation": [
        18.59966278076172,
        -1.1482963562011719,
        -1.1849188013002276e-06
      ]
    },
    {
      "children": [
        10,
        54
      ],
      "name": "Bip01 R Clavicle",
      "rotation": [
        -0.609510600566864,
        0.23812729120254517,
        0.7433037757873535,
        0.1388946771621704
      ],
      "scale": [
        1.0000001192092896,
        9.684191226710936e-10,
        -4.8783682871089695e-08
      ],
      "translation": [
        -1.845062255859375,
        1.0423774719238281,
        -2.495269536972046
      ]
    },
    {
      "children": [
        11
      ],
      "name": "Bip01 R UpperArm",
      "rotation": [
        -0.1351195126771927,
        -0.021313436329364777,
        -0.05337775871157646,
        0.9891608953475952
      ],
      "scale": [
        1.0,
        -1.3168728330015256e-08,
        7.087646025638605e-10
      ],
      "translation": [
        11.936211585998535,
        0.0,
        -1.52587890625e-05
      ]
    },
    {
      "children": [
        12,
        56
      ],
      "name": "Bip01 R ForeArm",
      "rotation": [
        -1.794169500468623e-11,
        7.454196371270427e-09,
        -0.02882891707122326,
        0.9995843768119812
      ],
      "scale": [
        1.0,
        -2.8675430918667644e-09,
        -1.4901161193847656e-08
      ],
      "translation": [
        23.697328567504883,
        0.0,
        -3.0517578125e-05
      ]
    },
    {
      "children": [
        13,
        59,
        63,
        67
      ],
      "name": "Bip01 R Hand",
      "rotation": [
        0.7051334381103516,
        0.06748095154762268,
        -0.06658753007650375,
        0.7027085423469543
      ],
      "scale": [
        1.0000001192092896,
        -1.0899697144850506e-08,
        -2.2325534754230603e-09
      ],
      "translation": [
        22.58064079284668,
        9.5367431640625e-07,
        1.52587890625e-05
      ]
    },
    {
      "name": "equip_right",
      "rotation": [
        3.133900463581085e-07,
        -4.005159723874385e-07,
        2.942979335784912e-07,
        1.0
      ],
      "scale": [
        1.0000001192092896,
        -3.539002335628538e-08,
        -2.8015021413807517e-09
      ],
      "translation": [
        3.544147491455078,
        -1.842193603515625,
        -2.198516368865967
      ]
    },
    {
      "children": [
        15,
        71
      ],
      "name": "Bip01 L Clavicle",
      "rotation": [
        0.6095109581947327,
        -0.23812934756278992,
        0.743303120136261,
        0.1388929933309555
      ],
      "scale": [
        1.0000001192092896,
        -2.67065392023369e-09,
        3.3597668647189494e-08
      ],
      "translation": [
        -1.845062255859375,
        1.0423622131347656,
        2.4952709674835205
      ]
    },
    {
      "children": [
        16
      ],
      "name": "Bip01 L UpperArm",
      "rotation": [
        0.1351195126771927,
        0.021313432604074478,
        -0.05337776243686676,
        0.9891608953475952
      ],
      "scale": [
        0.9999998807907104,
        2.6594155766446193e-09,
        -1.7363280591098373e-08
      ],
      "translation": [
        11.936210632324219,
        0.0,
        1.52587890625e-05
      ]
    },
    {
      "children": [
        17,
        73
      ],
      "name": "Bip01 L ForeArm",
      "rotation": [
        -4.2958431256678864e-10,
        -1.490167989004476e-08,
        -0.02882891707122326,
        0.9995843768119812
      ],
      "scale": [
        1.0,
        -2.8675430918667644e-09,
        2.9788903788130483e-08
      ],
      "translation": [
        23.697330474853516,
        0.0,
        1.52587890625e-05
      ]
    },
    {
      "children": [
        18,
        76,
        80,
        84
      ],
      "name": "Bip01 L Hand",
      "rotation": [
        -0.7049362063407898,
        -0.06950603425502777,
        -0.0645693764090538,
        0.702897310256958
      ],
      "scale": [
        0.9999999403953552,
        -8.178926869106817e-09,
        5.914212453106416e-10
      ],
      "translation": [
        22.58063316345215,
        0.0,
        -3.0517578125e-05
      ]
    },
    {
      "name": "equip_left",
      "rotation": [
        0.002817779779434204,
        0.0005426203133538365,
        0.9999958872795105,
        -1.0374946214142255e-05
      ],
      "scale": [
        1.0,
        -2.4646425345054013e-08,
        2.509375596204677e-09
      ],
      "translation": [
        5.027885437011719,
        3.0594100952148438,
        -0.3573007583618164
      ]
    },
    {
      "children": [
        20
      ],
      "name": "right_bone01",
      "rotation": [
        -0.1285742223262787,
        -0.695319652557373,
        0.7015994191169739,
        -0.08807696402072906
      ],
      "scale": [
        1.0000001192092896,
        -2.2563133583730632e-08,
        2.8487139314137266e-09
      ],
      "translation": [
        3.5177536010742188,
        -1.6281232833862305,
        -9.51598834991455
      ]
    },
    {
      "children": [
        21
      ],
      "name": "right_bone02",
      "rotation": [
        4.146369012025808e-11,
        2.0767929598264345e-08,
        -0.0019965211395174265,
        0.9999979734420776
      ],
      "scale": [
        1.0,
        0.0,
        3.6669449655836895e-15
      ],
      "translation": [
        17.058738708496094,
        -9.1552734375e-05,
        -5.960464477539063e-07
      ]
    },
    {
      "children": [
        22
      ],
      "name": "right_bone03",
      "rotation": [
        -1.7841552345763956e-13,
        7.385003025772718e-11,
        0.002410314278677106,
        0.999997079372406
      ],
      "scale": [
        1.0000001192092896,
        1.0900616520537199e-10,
        -1.807810137347118e-15
      ],
      "translation": [
        17.697650909423828,
        0.0,
        0.0
      ]
    },
    {
      "children": [
        23
      ],
      "name": "right_bone04",
      "rotation": [
        -2.4429031972709654e-18,
        4.428610385463235e-16,
        -0.005500921048223972,
        0.999984860420227
      ],
      "scale": [
        1.0,
        -3.802357317894689e-10,
        8.856817900880932e-16
      ],
      "translation": [
        17.533355712890625,
        -0.0001983642578125,
        0.0
      ]
    },
    {
      "children": [
        24
      ],
      "name": "right_bone05",
      "rotation": [
        1.5353827090827556e-17,
        3.8384666988742395e-18,
        -0.0172868762165308,
        0.9998505711555481
      ],
      "scale": [
        1.0,
        5.385679013869549e-09,
        -1.7681501489325404e-15
      ],
      "translation": [
        17.377683639526367,
        0.0,
        1.1920928955078125e-07
      ]
    },
    {
      "name": "right_bone06",
      "rotation": [
        -2.220446049250313e-16,
        0.0,
        -1.9721524981513997e-31,
        1.0
      ],
      "scale": [
        0.9999999403953552,
        0.0,
        1.776356733521132e-15
      ],
      "translation": [
        18.117719650268555,
        2.288818359375e-05,
        0.0
      ]
    },
    {
      "children": [
        26
      ],
      "name": "left_bone01",
      "rotation": [
        0.1285741776227951,
        0.6953186392784119,
        0.7016003727912903,
        -0.08807733654975891
      ],
      "scale": [
        1.0,
        -3.6554787641307485e-08,
        1.1774868857727938e-09
      ],
      "translation": [
        3.5177536010742188,
        -1.6281514167785645,
        9.515978813171387
      ]
    },
    {
      "children": [
        27
      ],
      "name": "left_bone02",
      "rotation": [
        4.146380114256054e-11,
        2.0767926045550666e-08,
        -0.0019965062383562326,
        0.9999979734420776
      ],
      "scale": [
        0.9999999403953552,
        0.0,
        3.66383211950253e-15
      ],
      "translation": [
        17.058738708496094,
        -9.1552734375e-05,
        -7.152557373046875e-07
      ]
    },
    {
      "children": [
        28
      ],
      "name": "left_bone03",
      "rotation": [
        -1.758545159534844e-13,
        7.385225070377643e-11,
        0.0024103291798382998,
        0.999997079372406
      ],
      "scale": [
        1.0000001192092896,
        1.0900971791905079e-10,
        4.414650594278214e-15
      ],
      "translation": [
        17.697647094726563,
        -3.814697265625e-06,
        0.0
      ]
    },
    {
      "children": [
        29
      ],
      "name": "left_bone04",
      "rotation": [
        -1.7861015299419376e-15,
        -1.7763299461041751e-15,
        -0.005500906612724066,
        0.999984860420227
      ],
      "scale": [
        1.0,
        -6.557492326919601e-10,
        3.533170511124976e-15
      ],
      "translation": [
        17.533344268798828,
        -0.0001983642578125,
        0.0
      ]
    },
    {
      "children": [
        30
      ],
      "name": "left_bone05",
      "rotation": [
        -9.494609357966186e-16,
        -1.535381220157653e-17,
        -0.0172868724912405,
        0.9998505711555481
      ],
      "scale": [
        1.0,
        -4.120895624737386e-09,
        7.041897768974561e-15
      ],
      "translation": [
        17.377689361572266,
        0.0,
        -1.1920928955078125e-07
      ]
    },
    {
      "name": "left_bone06",
      "rotation": [
        0.0,
        1.7763568394002505e-15,
        0.0,
        1.0
      ],
      "scale": [
        1.0,
        0.0,
        -3.552713678800501e-15
      ],
      "translation": [
        18.117721557617188,
        2.6702880859375e-05,
        1.1920928955078125e-07
      ]
    },
    {
      "children": [
        32
      ],
      "name": "back_bone01",
      "rotation": [
        -9.262237909979376e-08,
        -7.457610422534344e-07,
        0.9823359251022339,
        -0.187126025557518
      ],
      "scale": [
        1.0000001192092896,
        -5.801412239492265e-09,
        6.558189440049626e-15
      ],
      "translation": [
        3.0302810668945313,
        -8.421609878540039,
        -1.2413242075126618e-05
      ]
    },
    {
      "children": [
        33
      ],
      "name": "back_bone02",
      "rotation": [
        -1.358119286858626e-15,
        2.0840673919952663e-16,
        -0.08938860893249512,
        0.9959968328475952
      ],
      "scale": [
        0.9999998211860657,
        -1.5359145066895508e-09,
        -1.6040127396883125e-15
      ],
      "translation": [
        12.280601501464844,
        -3.814697265625e-06,
        5.229594535194337e-12
      ]
    },
    {
      "children": [
        34
      ],
      "name": "back_bone03",
      "rotation": [
        4.224761477613324e-15,
        3.907235599869754e-17,
        0.00676793372258544,
        0.9999771118164063
      ],
      "scale": [
        1.0000001192092896,
        -2.4891033678642316e-10,
        1.7973141285812164e-15
      ],
      "translation": [
        18.749588012695313,
        8.392333984375e-05,
        1.4592342267860658e-07
      ]
    },
    {
      "children": [
        35
      ],
      "name": "back_bone04",
      "rotation": [
        2.189139182124202e-16,
        -4.534537943566693e-16,
        -0.0070373364724218845,
        0.9999752044677734
      ],
      "scale": [
        1.0000001192092896,
        1.846705011132599e-10,
        8.725527794056515e-16
      ],
      "translation": [
        17.046077728271484,
        0.00026702880859375,
        1.2274426808289718e-07
      ]
    },
    {
      "children": [
        36
      ],
      "name": "back_bone05",
      "rotation": [
        -3.311237079274272e-16,
        4.3777992612376135e-16,
        0.004368518013507128,
        0.9999904632568359
      ],
      "scale": [
        1.0,
        3.1208618936365284e-30,
        8.78444634707634e-16
      ],
      "translation": [
        19.994054794311523,
        0.0,
        1.5606860870320816e-07
      ]
    },
    {
      "name": "back_bone06",
      "rotation": [
        -2.3314685634710655e-15,
        0.0,
        0.0,
        1.0
      ],
      "scale": [
        0.9999999403953552,
        0.0,
        0.0
      ],
      "translation": [
        18.225330352783203,
        0.0,
        1.3542194210458547e-07
      ]
    },
    {
      "children": [
        38
      ],
      "name": "front_bone01",
      "rotation": [
        1.228702899425116e-07,
        -6.800131586714997e-07,
        0.998245358467102,
        0.0592135451734066
      ],
      "scale": [
        1.0,
        -4.376338159049753e-13,
        -3.1031695767701206e-14
      ],
      "translation": [
        4.354286193847656,
        7.451943874359131,
        1.0479928278073203e-05
      ]
    },
    {
      "children": [
        39
      ],
      "name": "front_bone02",
      "rotation": [
        -2.2093681288496477e-15,
        3.616660854669938e-15,
        -0.06419984996318817,
        0.9979370832443237
      ],
      "scale": [
        1.000000238418579,
        1.4281795301940292e-08,
        -7.276137530757686e-15
      ],
      "translation": [
        16.666854858398438,
        9.5367431640625e-07,
        1.2019427231280133e-07
      ]
    },
    {
      "name": "front_bone03",
      "rotation": [
        -4.440892627896218e-16,
        1.7763568394002505e-15,
        7.450580596923828e-09,
        1.0
      ],
      "scale": [
        1.0,
        0.0,
        -3.552713467042264e-15
      ],
      "translation": [
        14.756553649902344,
        -3.814697265625e-06,
        1.877797330962494e-07
      ]
    },
    {
      "children": [
        41
      ],
      "name": "Bip01 R Thigh",
      "rotation": [
        -0.005618721712380648,
        0.9973922371864319,
        -0.005683480761945248,
        0.07172736525535583
      ],
      "scale": [
        1.0000001192092896,
        2.148268896107197e-09,
        -7.16700965242012e-09
      ],
      "translation": [
        -6.183006286621094,
        0.36882495880126953,
        -6.6108808517456055
      ]
    },
    {
      "children": [
        42
      ],
      "name": "Bip01 R Calf",
      "rotation": [
        2.174975477498009e-10,
        1.4375198080507356e-12,
        -0.0020579074043780565,
        0.9999978542327881
      ],
      "scale": [
        0.9999998211860657,
        -4.4067238746947623e-10,
        1.4904928846704024e-08
      ],
      "translation": [
        43.948341369628906,
        9.5367431640625e-07,
        -1.9073486328125e-06
      ]
    },
    {
      "children": [
        43
      ],
      "name": "Bip01 R Foot",
      "rotation": [
        0.06650763750076294,
        0.07425319403409958,
        0.03141501173377037,
        0.9945231676101685
      ],
      "scale": [
        1.0,
        -1.3434794610134304e-08,
        1.7472364888249103e-08
      ],
      "translation": [
        40.7279167175293,
        0.0,
        0.0
      ]
    },
    {
      "children": [
        44
      ],
      "name": "Bip01 R Toe0",
      "rotation": [
        2.6341777648042353e-09,
        -2.6341775427596303e-09,
        0.7071067094802856,
        0.7071067690849304
      ],
      "scale": [
        1.0000001192092896,
        -1.0587911840678754e-22,
        -7.450581485102248e-09
      ],
      "translation": [
        12.25244140625,
        10.997764587402344,
        0.0
      ]
    },
    {
      "name": "Bip01 R Toe0Nub",
      "rotation": [
        -1.1102230246251565e-16,
        -3.7252898543727042e-09,
        8.88178366760566e-16,
        1.0
      ],
      "scale": [
        1.0000001192092896,
        -1.0587911840678754e-22,
        -7.450581485102248e-09
      ],
      "translation": [
        8.298245429992676,
        0.0,
        0.0
      ]
    },
    {
      "children": [
        46
      ],
      "name": "Bip01 L Thigh",
      "rotation": [
        -0.0056189196184277534,
        0.9973922371864319,
        0.005686241202056408,
        -0.07172726094722748
      ],
      "scale": [
        1.0000001192092896,
        2.2318629167017434e-09,
        -8.03366884127854e-09
      ],
      "translation": [
        -6.183006286621094,
        0.3687882423400879,
        6.610882759094238
      ]
    },
    {
      "children": [
        47
      ],
      "name": "Bip01 L Calf",
      "rotation": [
        2.2516385977944253e-10,
        -3.725761921202775e-09,
        -0.0020579055417329073,
        0.9999978542327881
      ],
      "scale": [
        0.9999997615814209,
        -4.411252696456813e-09,
        7.450580152834618e-09
      ],
      "translation": [
        43.94833755493164,
        0.0,
        -1.9073486328125e-06
      ]
    },
    {
      "children": [
        48
      ],
      "name": "Bip01 L Foot",
      "rotation": [
        -0.06650764495134354,
        -0.07425310462713242,
        0.03141501918435097,
        0.9945231676101685
      ],
      "scale": [
        0.9999999403953552,
        -7.950195168859864e-09,
        -6.738430258224071e-09
      ],
      "translation": [
        40.7279167175293,
        0.0,
        -1.9073486328125e-06
      ]
    },
    {
      "children": [
        49
      ],
      "name": "Bip01 L Toe0",
      "rotation": [
        -2.6341777648042353e-09,
        2.6341777648042353e-09,
        0.7071067094802856,
        0.7071067690849304
      ],
      "scale": [
        1.0,
        0.0,
        7.450580596923828e-09
      ],
      "translation": [
        12.252439498901367,
        10.997764587402344,
        0.0
      ]
    },
    {
      "name": "Bip01 L Toe0Nub",
      "rotation": [
        0.0,
        3.725290298461914e-09,
        0.0,
        1.0
      ],
      "scale": [
        1.0,
        0.0,
        -7.450580596923828e-09
      ],
      "translation": [
        8.298245429992676,
        0.0,
        1.9073486328125e-06
      ]
    },
    {
      "children": [
        51
      ],
      "name": "ru_bone01",
      "rotation": [
        -0.13882553577423096,
        0.10431142896413803,
        0.7873219847679138,
        0.5915831923484802
      ],
      "scale": [
        1.0,
        -1.0702966513065348e-08,
        -6.317613809869727e-08
      ],
      "translation": [
        3.6871871948242188,
        4.92872428894043,
        -5.072079181671143
      ]
    },
    {
      "name": "ru_bone02",
      "rotation": [
        5.076525866343218e-10,
        4.917881657462431e-10,
        -8.731618805768449e-08,
        1.0
      ],
      "scale": [
        0.45864197611808777,
        3.341181176267369e-15,
        -3.2741807043379367e-09
      ],
      "translation": [
        8.651856422424316,
        0.0,
        9.5367431640625e-07
      ]
    },
    {
      "children": [
        53
      ],
      "name": "lu_bone01",
      "rotation": [
        0.1388261914253235,
        -0.1043127179145813,
        0.787321925163269,
        0.5915828943252563
      ],
      "scale": [
        1.0000001192092896,
        -6.946346609026932e-09,
        -6.082579062649529e-08
      ],
      "translation": [
        3.6871795654296875,
        4.928712844848633,
        5.072099208831787
      ]
    },
    {
      "name": "lu_bone02",
      "rotation": [
        -5.812666191743702e-16,
        8.677682572511003e-09,
        -8.630088643712952e-08,
        1.0
      ],
      "scale": [
        0.45864197611808777,
        9.313180782122288e-10,
        6.2718745752476934e-09
      ],
      "translation": [
        8.651856422424316,
        0.0,
        9.5367431640625e-07
      ]
    },
    {
      "children": [
        55
      ],
      "name": "right_sh_01",
      "rotation": [
        -0.7749796509742737,
        0.1756466031074524,
        0.04531026631593704,
        0.6053939461708069
      ],
      "scale": [
        1.0000001192092896,
        4.22072821137931e-09,
        5.089501264876617e-09
      ],
      "translation": [
        4.489248275756836,
        0.011577606201171875,
        -1.4733428955078125
      ]
    },
    {
      "name": "right_sh_02",
      "rotation": [
        3.552713678800501e-15,
        8.08242361927114e-14,
        1.6960509462251754e-27,
        1.0
      ],
      "scale": [
        1.0,
        -4.395532963891478e-27,
        -1.509903313490213e-14
      ],
      "translation": [
        24.970550537109375,
        0.0,
        4.76837158203125e-07
      ]
    },
    {
      "children": [
        57
      ],
      "name": "rh_w_01",
      "rotation": [
        0.8278537392616272,
        0.560829222202301,
        -0.010881814174354076,
        -0.0032111138571053743
      ],
      "scale": [
        1.000000238418579,
        -4.8808947994416485e-09,
        2.1001202554771226e-08
      ],
      "translation": [
        19.923721313476563,
        2.5698633193969727,
        -1.6744232177734375
      ]
    },
    {
      "children": [
        58
      ],
      "name": "rh_w_02",
      "rotation": [
        7.468836216162344e-09,
        -2.953066680078109e-09,
        -0.02144007384777069,
        0.9997701644897461
      ],
      "scale": [
        0.9999999403953552,
        -9.776925047333407e-09,
        -1.8592203332445933e-09
      ],
      "translation": [
        18.202255249023438,
        -1.9073486328125e-06,
        1.52587890625e-05
      ]
    },
    {
      "name": "rh_w_03",
      "rotation": [
        4.656159217120148e-05,
        -0.004037192091345787,
        0.004922038409858942,
        0.9999797344207764
      ],
      "scale": [
        0.5082592368125916,
        1.4633018352583349e-08,
        -1.1754611173309115e-10
      ],
      "translation": [
        13.761600494384766,
        0.0,
        0.0
      ]
    },
    {
      "children": [
        60
      ],
      "name": "Bip01 R Finger2",
      "rotation": [
        -0.01070131454616785,
        0.022079061716794968,
        0.12060804665088654,
        0.9923969507217407
      ],
      "scale": [
        0.9999995231628418,
        -4.3373549374337017e-07,
        -8.806561169194538e-08
      ],
      "translation": [
        8.93044662475586,
        -0.6634063720703125,
        -0.9564805030822754
      ]
    },
    {
      "children": [
        61
      ],
      "name": "Bip01 R Finger21",
      "rotation": [
        4.760467575692928e-10,
        -8.635714920934845e-10,
        0.1164020225405693,
        0.9932022094726563
      ],
      "scale": [
        1.0000001192092896,
        2.6848264056411608e-08,
        3.6417143606248814e-11
      ],
      "translation": [
        3.7396926879882813,
        0.0,
        0.0
      ]
    },
    {
      "children": [
        62
      ],
      "name": "Bip01 R Finger22",
      "rotation": [
        6.124377671667958e-10,
        2.0414596402229535e-10,
        0.1164020299911499,
        0.9932021498680115
      ],
      "scale": [
        0.9999999403953552,
        2.8994712408803025e-08,
        -1.5997068114614876e-09
      ],
      "translation": [
        3.739696502685547,
        -1.52587890625e-05,
        0.0
      ]
    },
    {
      "name": "Bip01 R Finger2Nub",
      "rotation": [
        2.3283064365386963e-10,
        2.3283064365386963e-10,
        -1.4901161193847656e-08,
        1.0
      ],
      "scale": [
        1.0,
        0.0,
        4.6566125955216364e-10
      ],
      "translation": [
        3.739696502685547,
        0.0,
        0.0
      ]
    },
    {
      "children": [
        64
      ],
      "name": "Bip01 R Finger1",
      "rotation": [
        -0.00017513609782326967,
        -0.07781513035297394,
        0.11223243176937103,
        0.9906304478645325
      ],
      "scale": [
        0.9999996423721313,
        -5.474205977407109e-07,
        3.9193676570903335e-07
      ],
      "translation": [
        9.00784683227539,
        -0.879119873046875,
        2.3459386825561523
      ]
    },
    {
      "children": [
        65
      ],
      "name": "Bip01 R Finger11",
      "rotation": [
        6.368961469327417e-10,
        -3.2446869635549547e-09,
        0.1164020225405693,
        0.9932022094726563
      ],
      "scale": [
        0.9999999403953552,
        -2.8994712408803025e-08,
        1.110159697503832e-08
      ],
      "translation": [
        3.5907211303710938,
        1.52587890625e-05,
        0.0
      ]
    },
    {
      "children": [
        66
      ],
      "name": "Bip01 R Finger12",
      "rotation": [
        -2.2075963279633015e-09,
        4.216666571466021e-09,
        0.11640201508998871,
        0.9932022094726563
      ],
      "scale": [
        0.9999998807907104,
        1.4497356204401513e-08,
        1.8203165197405724e-08
      ],
      "translation": [
        3.5907135009765625,
        0.0,
        9.5367431640625e-07
      ]
    },
    {
      "name": "Bip01 R Finger1Nub",
      "rotation": [
        2.3283059924494864e-09,
        0.0,
        7.4505797087454084e-09,
        1.0
      ],
      "scale": [
        1.0000001192092896,
        1.4901162970204496e-08,
        -3.725290742551124e-09
      ],
      "translation": [
        3.5907249450683594,
        -1.52587890625e-05,
        0.0
      ]
    },
    {
      "children": [
        68
      ],
      "name": "Bip01 R Finger0",
      "rotation": [
        -0.6464375853538513,
        -0.23017531633377075,
        -0.09677518159151077,
        0.7209523916244507
      ],
      "scale": [
        1.000000238418579,
        1.602179509063717e-07,
        -2.6304866196369403e-07
      ],
      "translation": [
        0.8650360107421875,
        0.074554443359375,
        1.5068016052246094
      ]
    },
    {
      "children": [
        69
      ],
      "name": "Bip01 R Finger01",
      "rotation": [
        1.3522656302014657e-12,
        7.450580596923828e-09,
        -0.0001815115101635456,
        1.0
      ],
      "scale": [
        0.9999999403953552,
        -2.7008352887492038e-08,
        -1.4901161193847656e-08
      ],
      "translation": [
        4.2113800048828125,
        1.9073486328125e-06,
        1.52587890625e-05
      ]
    },
    {
      "children": [
        70
      ],
      "name": "Bip01 R Finger02",
      "rotation": [
        3.5789886609904897e-09,
        1.1024036794538006e-08,
        0.03852997347712517,
        0.9992574453353882
      ],
      "scale": [
        1.0000001192092896,
        4.348299498246888e-08,
        -8.046417754314916e-09
      ],
      "translation": [
        4.21137809753418,
        -3.814697265625e-06,
        0.0
      ]
    },
    {
      "name": "Bip01 R Finger0Nub",
      "rotation": [
        3.725290298461914e-09,
        7.450580596923828e-09,
        7.450580596923828e-09,
        1.0
      ],
      "scale": [
        0.9999999403953552,
        7.4505797087454084e-09,
        2.220446049250313e-16
      ],
      "translation": [
        4.83111572265625,
        3.814697265625e-06,
        0.0
      ]
    },
    {
      "children": [
        72
      ],
      "name": "left_sh_01",
      "rotation": [
        0.7749797105789185,
        -0.17564751207828522,
        0.045307502150535583,
        0.6053937673568726
      ],
      "scale": [
        0.9999998807907104,
        -1.0475704748102999e-09,
        1.5640519990256507e-08
      ],
      "translation": [
        4.48924446105957,
        0.01154327392578125,
        1.47332763671875
      ]
    },
    {
      "name": "left_sh_02",
      "rotation": [
        -3.5527132552840273e-15,
        8.881783138210068e-16,
        2.5243539939275763e-29,
        1.0
      ],
      "scale": [
        1.0000001192092896,
        0.0,
        -1.2434499569867648e-14
      ],
      "translation": [
        24.970550537109375,
        0.0,
        0.0
      ]
    },
    {
      "children": [
        74
      ],
      "name": "lh_w_01",
      "rotation": [
        0.8278523683547974,
        0.5608313083648682,
        0.010881872847676277,
        0.003211784875020385
      ],
      "scale": [
        0.9985764622688293,
        0.05288579687476158,
        -0.008059583604335785
      ],
      "translation": [
        19.923742294311523,
        2.570164680480957,
        1.6744842529296875
      ]
    },
    {
      "children": [
        75
      ],
      "name": "lh_w_02",
      "rotation": [
        3.724434316509928e-09,
        7.987042277557421e-11,
        -0.0214400552213192,
        0.9997701644897461
      ],
      "scale": [
        1.0,
        -1.1665992616372023e-09,
        3.1940830536036913e-10
      ],
      "translation": [
        18.202259063720703,
        3.814697265625e-06,
        0.0
      ]
    },
    {
      "name": "lh_w_03",
      "rotation": [
        4.655437805922702e-05,
        -0.004037187434732914,
        0.004922032821923494,
        0.9999797344207764
      ],
      "scale": [
        0.5082592368125916,
        -1.497525481397588e-08,
        8.106526006024239e-10
      ],
      "translation": [
        13.761600494384766,
        3.814697265625e-06,
        0.0
      ]
    },
    {
      "children": [
        77
      ],
      "name": "Bip01 L Finger2",
      "rotation": [
        0.010701313614845276,
        -0.022079065442085266,
        0.12060804665088654,
        0.9923969507217407
      ],
      "scale": [
        0.999999463558197,
        -4.1962005070672603e-07,
        8.624812153357198e-08
      ],
      "translation": [
        8.930450439453125,
        -0.6634063720703125,
        0.9564805030822754
      ]
    },
    {
      "children": [
        78
      ],
      "name": "Bip01 L Finger21",
      "rotation": [
        5.166996275285385e-10,
        -5.166996275285385e-10,
        0.1164020299911499,
        0.9932021498680115
      ],
      "scale": [
        0.9999999403953552,
        4.206110659765727e-08,
        7.159808301793191e-10
      ],
      "translation": [
        3.739704132080078,
        0.0,
        0.0
      ]
    },
    {
      "children": [
        79
      ],
      "name": "Bip01 L Finger22",
      "rotation": [
        2.312478819543884e-10,
        -8.130585787968769e-11,
        0.1164020299911499,
        0.9932021498680115
      ],
      "scale": [
        1.0000001192092896,
        2.756375039325576e-08,
        -2.1534184158067404e-10
      ],
      "translation": [
        3.73968505859375,
        1.52587890625e-05,
        -2.86102294921875e-06
      ]
    },
    {
      "name": "Bip01 L Finger2Nub",
      "rotation": [
        -3.469446538363308e-18,
        -2.3283062977608182e-10,
        -7.450580596923828e-09,
        1.0
      ],
      "scale": [
        1.0,
        -1.4901161193847656e-08,
        1.3969839729455202e-09
      ],
      "translation": [
        3.7396888732910156,
        0.0,
        9.5367431640625e-07
      ]
    },
    {
      "children": [
        81
      ],
      "name": "Bip01 L Finger1",
      "rotation": [
        0.0001751342206262052,
        0.07781513035297394,
        0.11223243176937103,
        0.9906304478645325
      ],
      "scale": [
        0.9999995827674866,
        -5.333407102625642e-07,
        -4.3534808469303243e-07
      ],
      "translation": [
        9.007843017578125,
        -0.8791351318359375,
        -2.345938205718994
      ]
    },
    {
      "children": [
        82
      ],
      "name": "Bip01 L Finger11",
      "rotation": [
        5.420390525312513e-11,
        1.849983499724317e-09,
        0.11640201508998871,
        0.9932022094726563
      ],
      "scale": [
        0.9999999403953552,
        -1.4497356204401513e-08,
        8.682279339922161e-10
      ],
      "translation": [
        3.5907249450683594,
        0.0,
        1.9073486328125e-06
      ]
    },
    {
      "children": [
        83
      ],
      "name": "Bip01 L Finger12",
      "rotation": [
        3.2934368565662453e-09,
        -2.218503381001824e-09,
        0.11640201508998871,
        0.9932022094726563
      ],
      "scale": [
        1.0,
        7.105581545374662e-08,
        -7.03621561015666e-09
      ],
      "translation": [
        3.5907211303710938,
        0.0,
        0.0
      ]
    },
    {
      "name": "Bip01 L Finger1Nub",
      "rotation": [
        0.0,
        -2.7939677238464355e-09,
        -2.6020852139652106e-18,
        1.0
      ],
      "scale": [
        1.0,
        8.673617379884035e-18,
        3.725290298461914e-09
      ],
      "translation": [
        3.5907249450683594,
        0.0,
        -9.5367431640625e-07
      ]
    },
    {
      "children": [
        85
      ],
      "name": "Bip01 L Finger0",
      "rotation": [
        0.6464375853538513,
        0.23017531633377075,
        -0.09677518904209137,
        0.7209523916244507
      ],
      "scale": [
        1.0000001192092896,
        1.3098787121634814e-07,
        2.3529420900558762e-07
      ],
      "translation": [
        0.8650398254394531,
        0.0745391845703125,
        -1.5068020820617676
      ]
    },
    {
      "children": [
        86
      ],
      "name": "Bip01 L Finger01",
      "rotation": [
        -3.725290076417309e-09,
        6.761743400439391e-13,
        -0.0001814994029700756,
        1.0
      ],
      "scale": [
        1.0,
        -1.9536136264264314e-08,
        0.0
      ],
      "translation": [
        4.211381912231445,
        -1.9073486328125e-06,
        0.0
      ]
    },
    {
      "children": [
        87
      ],
      "name": "Bip01 L Finger02",
      "rotation": [
        -1.4353529476096583e-10,
        -3.722523844729153e-09,
        0.03852996602654457,
        0.9992574453353882
      ],
      "scale": [
        1.0000001192092896,
        6.340699076901046e-09,
        -7.428459181113567e-09
      ],
      "translation": [
        4.211385726928711,
        1.9073486328125e-06,
        0.0
      ]
    },
    {
      "name": "Bip01 L Finger0Nub",
      "rotation": [
        -7.450580596923828e-09,
        7.450580596923828e-09,
        -6.984919309616089e-09,
        1.0
      ],
      "scale": [
        1.0,
        1.210719347000122e-08,
        -2.0816683035210665e-16
      ],
      "translation": [
        4.831111907958984,
        0.0,
        0.0
      ]
    },
    {
      "children": [
        89,
        95
      ],
      "name": "Bip01 Head",
      "rotation": [
        -2.1323796949111046e-14,
        -7.36336573936569e-08,
        0.026547370478510857,
        0.9996475577354431
      ],
      "scale": [
        0.9999998807907104,
        6.268420804644848e-08,
        1.8616773162123679e-13
      ],
      "translation": [
        8.269393920898438,
        0.0,
        -1.4551915228366852e-11
      ]
    },
    {
      "children": [
        90
      ],
      "name": "Bip01 Ponytail1",
      "rotation": [
        1.8901549162647635e-12,
        -2.7736000447475817e-06,
        0.9999999403953552,
        -0.0003987849922850728
      ],
      "scale": [
        0.9999998807907104,
        6.888865866638838e-11,
        -6.384706673946694e-14
      ],
      "translation": [
        6.1210174560546875,
        -6.112071990966797,
        -1.695247192401439e-05
      ]
    },
    {
      "children": [
        91
      ],
      "name": "Bip01 Ponytail11",
      "rotation": [
        1.2079226507921703e-13,
        -2.842170943040401e-14,
        1.6155871338926322e-27,
        1.0
      ],
      "scale": [
        1.0,
        2.1002632740604218e-26,
        5.684341886080802e-14
      ],
      "translation": [
        11.237548828125,
        -0.008953094482421875,
        -2.482556737959385e-08
      ]
    },
    {
      "children": [
        92
      ],
      "name": "Bip01 Ponytail12",
      "rotation": [
        1.2079226507921703e-13,
        -2.842170943040401e-14,
        1.6155871338926322e-27,
        1.0
      ],
      "scale": [
        1.0,
        2.1002632740604218e-26,
        5.684341886080802e-14
      ],
      "translation": [
        11.237503051757813,
        -0.008941650390625,
        -2.4811015464365482e-08
      ]
    },
    {
      "children": [
        93
      ],
      "name": "Bip01 Ponytail13",
      "rotation": [
        1.2079226507921703e-13,
        -2.842170943040401e-14,
        1.6155871338926322e-27,
        1.0
      ],
      "scale": [
        1.0,
        2.1002632740604218e-26,
        5.684341886080802e-14
      ],
      "translation": [
        11.237533569335938,
        -0.00894927978515625,
        -2.4811015464365482e-08
      ]
    },
    {
      "children": [
        94
      ],
      "name": "Bip01 Ponytail14",
      "rotation": [
        1.2079226507921703e-13,
        -2.842170943040401e-14,
        1.6155871338926322e-27,
        1.0
      ],
      "scale": [
        1.0,
        2.1002632740604218e-26,
        5.684341886080802e-14
      ],
      "translation": [
        11.237533569335938,
        -0.00894927978515625,
        -2.4811015464365482e-08
      ]
    },
    {
      "name": "Bip01 Ponytail1Nub",
      "rotation": [
        0.7073882818222046,
        0.7068251371383667,
        9.802255362956203e-07,
        -9.810062238102546e-07
      ],
      "scale": [
        0.9999999403953552,
        -6.125441577846825e-15,
        -5.371018842355302e-13
      ],
      "translation": [
        11.237518310546875,
        3.814697265625e-06,
        0.0
      ]
    },
    {
      "name": "Bip01 HeadNub",
      "rotation": [
        -6.394884621840902e-14,
        -2.842170943040401e-14,
        -2.0194839173657902e-27,
        1.0
      ],
      "scale": [
        0.9999999403953552,
        -6.462348535570529e-27,
        5.684341886080802e-14
      ],
      "translation": [
        20.161117553710938,
        -3.814697265625e-06,
        0.0
      ]
    }
  ],
  "scene": 0,
  "scenes": [
    {
      "nodes": [
        0
      ]
    }
  ],
  "skins": [
    {
      "inverseBindMatrices": 8,
      "joints": [
        3,
        4,
        5,
        6,
        7,
        8,
        9,
        10,
        11,
        12,
        13,
        14,
        15,
        16,
        17,
        18,
        19,
        20,
        21,
        22,
        23,
        24,
        25,
        26,
        27,
        28,
        29,
        30,
        31,
        32,
        33,
        34,
        35,
        36,
        37,
        38,
        39,
        40,
        41,
        42,
        43,
        44,
        45,
        46,
        47,
        48,
        49,
        50,
        51,
        52,
        53,
        54,
        55,
        56,
        57,
        58,
        59,
        60,
        61,
        62,
        63,
        64,
        65,
        66,
        67,
        68,
        69,
        70,
        71,
        72,
        73,
        74,
        75,
        76,
        77,
        78,
        79,
        80,
        81,
        82,
        83,
        84,
        85,
        86,
        87,
        88,
        89,
        90,
        91,
        92,
        93,
        94,
        95
      ],
      "skeleton": 3
    }
  ]
}
