{
  "accessors": [
    {
      "bufferView": 0,
      "componentType": 5126,
      "count": 180,
      "max": [
        8.649505615234375,
        2.8450727462768555,
        165.39862060546875
      ],
      "min": [
        -8.649520874023438,
        -9.872312545776367,
        147.49722290039063
      ],
      "type": "VEC3"
    },
    {
      "bufferView": 1,
      "componentType": 5126,
      "count": 180,
      "type": "VEC3"
    },
    {
      "bufferView": 2,
      "componentType": 5126,
      "count": 180,
      "type": "VEC2"
    },
    {
      "bufferView": 3,
      "componentType": 5123,
      "count": 1020,
      "type": "SCALAR"
    },
    {
      "bufferView": 4,
      "componentType": 5126,
      "count": 2157,
      "max": [
        152.41680908203125,
        152.68466186523438,
        165.39862060546875
      ],
      "min": [
        -23.61977195739746,
        -23.03691864013672,
        -23.61977195739746
      ],
      "type": "VEC3"
    },
    {
      "bufferView": 5,
      "componentType": 5126,
      "count": 2157,
      "type": "VEC3"
    },
    {
      "bufferView": 6,
      "componentType": 5126,
      "count": 2157,
      "type": "VEC2"
    },
    {
      "bufferView": 7,
      "componentType": 5123,
      "count": 7266,
      "type": "SCALAR"
    },
    {
      "bufferView": 8,
      "componentType": 5126,
      "count": 2022,
      "max": [
        153.9849853515625,
        160.51219177246094,
        165.39862060546875
      ],
      "min": [
        -77.87091064453125,
        -74.53963470458984,
        -73.67536163330078
      ],
      "type": "VEC3"
    },
    {
      "bufferView": 9,
      "componentType": 5126,
      "count": 2022,
      "type": "VEC3"
    },
    {
      "bufferView": 10,
      "componentType": 5126,
      "count": 2022,
      "type": "VEC2"
    },
    {
      "bufferView": 11,
      "componentType": 5123,
      "count": 9042,
      "type": "SCALAR"
    },
    {
      "bufferView": 12,
      "componentType": 5126,
      "count": 49,
      "type": "MAT4"
    }
  ],
  "asset": {
    "generator": "gr2togltf (ANKA2 Project)",
    "version": "2.0"
  },
  "bufferViews": [
    {
      "buffer": 0,
      "byteLength": 2160,
      "target": 34962
    },
    {
      "buffer": 0,
      "byteLength": 2160,
      "byteOffset": 2160,
      "target": 34962
    },
    {
      "buffer": 0,
      "byteLength": 1440,
      "byteOffset": 4320,
      "target": 34962
    },
    {
      "buffer": 0,
      "byteLength": 2040,
      "byteOffset": 5760,
      "target": 34963
    },
    {
      "buffer": 0,
      "byteLength": 25884,
      "byteOffset": 7800,
      "target": 34962
    },
    {
      "buffer": 0,
      "byteLength": 25884,
      "byteOffset": 33684,
      "target": 34962
    },
    {
      "buffer": 0,
      "byteLength": 17256,
      "byteOffset": 59568,
      "target": 34962
    },
    {
      "buffer": 0,
      "byteLength": 14532,
      "byteOffset": 76824,
      "target": 34963
    },
    {
      "buffer": 0,
      "byteLength": 24264,
      "byteOffset": 91356,
      "target": 34962
    },
    {
      "buffer": 0,
      "byteLength": 24264,
      "byteOffset": 115620,
      "target": 34962
    },
    {
      "buffer": 0,
      "byteLength": 16176,
      "byteOffset": 139884,
      "target": 34962
    },
    {
      "buffer": 0,
      "byteLength": 18084,
      "byteOffset": 156060,
      "target": 34963
    },
    {
      "buffer": 0,
      "byteLength": 3136,
      "byteOffset": 174144
    }
  ],
  "buffers": [
    {
      "byteLength": 177280,
      "uri": "data:application/octet-stream;base64,"
    }
  ],
  "materials": [
    {
      "name": "default",
      "pbrMetallicRoughness": {
        "baseColorFactor": [
          0.8,
          0.8,
          0.8,
          1.0
        ],
        "metallicFactor": 0.0,
        "roughnessFactor": 0.8
      }
    }
  ],
  "meshes": [
    {
      "name": "face",
      "primitives": [
        {
          "attributes": {
            "NORMAL": 1,
            "POSITION": 0,
            "TEXCOORD_0": 2
          },
          "indices": 3,
          "material": 0,
          "mode": 4
        }
      ]
    },
    {
      "name": "summer2025_etc001",
      "primitives": [
        {
          "attributes": {
            "NORMAL": 5,
            "POSITION": 4,
            "TEXCOORD_0": 6
          },
          "indices": 7,
          "material": 0,
          "mode": 4
        }
      ]
    },
    {
      "name": "summer2025_body001",
      "primitives": [
        {
          "attributes": {
            "NORMAL": 9,
            "POSITION": 8,
            "TEXCOORD_0": 10
          },
          "indices": 11,
          "material": 0,
          "mode": 4
        }
      ]
    }
  ],
  "nodes": [
    {
      "children": [
        1,
        2,
        3,
        4
      ]
    },
    {
      "mesh": 0,
      "name": "face",
      "skin": 0
    },
    {
      "mesh": 1,
      "name": "summer2025_etc001",
      "skin": 0
    },
    {
      "mesh": 2,
      "name": "summer2025_body001",
      "skin": 0
    },
    {
      "children": [
        5
      ],
      "name": "Bip01",
      "rotation": [
        0.0,
        0.0,
        0.0,
        1.0000001192092896
      ],
      "scale": [
        1.0,
        0.0,
        0.0
      ],
      "translation": [
        2.86102294921875e-06,
        -1.8189894035458565e-12,
        0.0
      ]
    },
    {
      "children": [
        6
      ],
      "name": "Bip01 Pelvis",
      "rotation": [
        -0.499999463558197,
        -0.5000001788139343,
        -0.5000001788139343,
        0.500000536441803
      ],
      "scale": [
        1.0,
        0.0,
        0.0
      ],
      "translation": [
        11.743138313293457,
        2.0000020413135644e-06,
        0.0
      ]
    },
    {
      "children": [
        7,
        8,
        11,
        20
      ],
      "name": "Bip01 Spine",
      "rotation": [
        -2.0994200440327404e-06,
        -7.132022687983408e-07,
        0.02897809073328972,
        0.9995800852775574
      ],
      "scale": [
        1.0,
        -5.52744438761521e-12,
        0.0
      ],
      "translation": [
        6.193992614746094,
        -0.009989559650421143,
        8.603674359619617e-06
      ]
    },
    {
      "children": [
        10
      ],
      "name": "Bip01 R Thigh",
      "rotation": [
        -0.005618724972009659,
        0.9973922371864319,
        -0.005683528259396553,
        0.07172741740942001
      ],
      "scale": [
        1.0,
        -1.0477378964424133e-09,
        0.0
      ],
      "translation": [
        -6.183006286621094,
        0.36882495880126953,
        -6.6108808517456055
      ]
    },
    {
      "children": [
        9
      ],
      "name": "Bip01 L Thigh",
      "rotation": [
        -0.005618922412395477,
        0.9973922371864319,
        0.005686287768185139,
        -0.07172729820013046
      ],
      "scale": [
        1.0,
        -1.0477378964424133e-09,
        -1.4901161193847656e-08
      ],
      "translation": [
        -6.183006286621094,
        0.3687882423400879,
        6.610882759094238
      ]
    },
    {
      "children": [
        22
      ],
      "name": "Bip01 L Calf",
      "rotation": [
        4.6566039912931956e-10,
        -7.450566386069113e-09,
        -0.0020579092670232058,
        0.9999979734420776
      ],
      "scale": [
        0.9999999403953552,
        3.725290298461914e-09,
        1.9806378759312793e-12
      ],
      "translation": [
        43.94834899902344,
        0.0,
        0.0
      ]
    },
    {
      "children": [
        21
      ],
      "name": "Bip01 R Calf",
      "rotation": [
        -6.908242866643377e-10,
        3.7248040207771282e-09,
        -0.002057909034192562,
        0.9999979734420776
      ],
      "scale": [
        1.0,
        4.190951585769653e-09,
        -7.454413974983254e-09
      ],
      "translation": [
        43.9483528137207,
        0.0,
        0.0
      ]
    },
    {
      "children": [
        12
      ],
      "name": "Bip01 Spine1",
      "rotation": [
        3.20993977383742e-14,
        2.4451341573694663e-07,
        -0.08815741539001465,
        0.9961065649986267
      ],
      "scale": [
        1.0,
        -1.4901139877565583e-08,
        -5.684341886080802e-14
      ],
      "translation": [
        12.570350646972656,
        -0.0077838897705078125,
        -2.1591404220089316e-08
      ]
    },
    {
      "children": [
        13
      ],
      "name": "Bip01 Spine2",
      "rotation": [
        4.449197680064928e-15,
        1.693989162276921e-07,
        -0.061075467616319656,
        0.9981331825256348
      ],
      "scale": [
        1.0,
        6.99740863396945e-15,
        -2.842170943040401e-14
      ],
      "translation": [
        9.930061340332031,
        -0.012085914611816406,
        -3.352033672854304e-08
      ]
    },
    {
      "children": [
        14,
        16,
        23
      ],
      "name": "Bip01 Neck",
      "rotation": [
        2.944620255637166e-14,
        -7.252509135469154e-07,
        0.2614835798740387,
        0.9652079343795776
      ],
      "scale": [
        1.0000003576278687,
        -5.310076380340978e-13,
        0.0
      ],
      "translation": [
        18.59967803955078,
        -1.1482963562011719,
        -1.1849115253426135e-06
      ]
    },
    {
      "children": [
        15
      ],
      "name": "Bip01 R Clavicle",
      "rotation": [
        -0.6095106601715088,
        0.23812727630138397,
        0.7433038353919983,
        0.13889464735984802
      ],
      "scale": [
        0.9999999403953552,
        -5.960464477539063e-08,
        -4.470348358154297e-08
      ],
      "translation": [
        -1.8450927734375,
        1.0423774719238281,
        -2.4952690601348877
      ]
    },
    {
      "children": [
        19
      ],
      "name": "Bip01 R UpperArm",
      "rotation": [
        -0.13511957228183746,
        -0.021313395351171494,
        -0.05337769538164139,
        0.9891608953475952
      ],
      "scale": [
        1.0,
        -6.51925802230835e-09,
        3.725290298461914e-09
      ],
      "translation": [
        11.936211585998535,
        3.814697265625e-06,
        0.0
      ]
    },
    {
      "children": [
        17
      ],
      "name": "Bip01 L Clavicle",
      "rotation": [
        0.6095110774040222,
        -0.23812930285930634,
        0.743303120136261,
        0.13889293372631073
      ],
      "scale": [
        1.0000001192092896,
        -8.940696716308594e-08,
        5.960464477539063e-08
      ],
      "translation": [
        -1.8450927734375,
        1.0423622131347656,
        2.4952709674835205
      ]
    },
    {
      "children": [
        18
      ],
      "name": "Bip01 L UpperArm",
      "rotation": [
        0.13511957228183746,
        0.021313389763236046,
        -0.053377699106931686,
        0.9891608953475952
      ],
      "scale": [
        0.9999999403953552,
        -3.725290298461914e-09,
        -1.862645149230957e-08
      ],
      "translation": [
        11.936212539672852,
        0.0,
        0.0
      ]
    },
    {
      "children": [
        28
      ],
      "name": "Bip01 L ForeArm",
      "rotation": [
        -4.116427754219387e-10,
        -1.490167989004476e-08,
        -0.028828920796513557,
        0.9995843768119812
      ],
      "scale": [
        1.0,
        2.776710982209035e-17,
        4.469109526894499e-08
      ],
      "translation": [
        23.697324752807617,
        4.76837158203125e-07,
        0.0
      ]
    },
    {
      "children": [
        29
      ],
      "name": "Bip01 R ForeArm",
      "rotation": [
        2.0582134607760594e-10,
        1.1174582148498757e-08,
        -0.028828920796513557,
        0.9995843768119812
      ],
      "scale": [
        0.9999999403953552,
        -3.725290298461914e-09,
        -2.2351745343485163e-08
      ],
      "translation": [
        23.697328567504883,
        0.0,
        -1.52587890625e-05
      ]
    },
    {
      "name": "back_bone01",
      "rotation": [
        4.7162611593876136e-08,
        -2.3564737716696982e-07,
        0.9823358654975891,
        -0.18712621927261353
      ],
      "scale": [
        0.9999999403953552,
        -2.980232594040899e-08,
        1.4790863644975616e-08
      ],
      "translation": [
        3.0302886962890625,
        -8.421609878540039,
        -1.5258790881489404e-05
      ]
    },
    {
      "children": [
        30
      ],
      "name": "Bip01 R Foot",
      "rotation": [
        0.06650760769844055,
        0.07425323128700256,
        0.03141501918435097,
        0.9945231080055237
      ],
      "scale": [
        1.0,
        -5.587935447692871e-09,
        2.9802322387695313e-08
      ],
      "translation": [
        40.7279167175293,
        4.76837158203125e-07,
        0.0
      ]
    },
    {
      "children": [
        31
      ],
      "name": "Bip01 L Foot",
      "rotation": [
        -0.06650760024785995,
        -0.0742531344294548,
        0.03141501918435097,
        0.9945231676101685
      ],
      "scale": [
        1.0000001192092896,
        -1.1175870895385742e-08,
        -1.4901161193847656e-08
      ],
      "translation": [
        40.7279167175293,
        4.76837158203125e-07,
        0.0
      ]
    },
    {
      "children": [
        24
      ],
      "name": "Bip01 Head",
      "rotation": [
        -6.219441059168371e-15,
        -7.363406950844364e-08,
        0.0265475045889616,
        0.9996475577354431
      ],
      "scale": [
        0.9999995827674866,
        -5.757036773537184e-16,
        5.684341886080802e-14
      ],
      "translation": [
        8.269378662109375,
        0.0,
        0.0
      ]
    },
    {
      "children": [
        25
      ],
      "name": "Bip01 Ponytail1",
      "rotation": [
        1.9189151136134175e-12,
        -2.7729508929041913e-06,
        0.9997656941413879,
        -0.021646926179528236
      ],
      "scale": [
        0.9999998807907104,
        6.65617571910665e-13,
        4.263256414560601e-14
      ],
      "translation": [
        6.120635986328125,
        -6.112079620361328,
        -1.6952486475929618e-05
      ]
    },
    {
      "children": [
        26
      ],
      "name": "Bip01 Ponytail11",
      "rotation": [
        1.5990821609023452e-14,
        -5.893388532740573e-08,
        0.02124815620481968,
        0.9997742772102356
      ],
      "scale": [
        1.000000238418579,
        -2.9503181933337866e-16,
        1.7053025658242404e-13
      ],
      "translation": [
        11.237899780273438,
        -0.008941650390625,
        -2.4796463549137115e-08
      ]
    },
    {
      "children": [
        27
      ],
      "name": "Bip01 Ponytail12",
      "rotation": [
        2.430020431837959e-13,
        1.829703677458383e-07,
        -0.06596856564283371,
        0.9978216886520386
      ],
      "scale": [
        0.9999999403953552,
        1.4901170075631853e-08,
        -2.2737367544323206e-13
      ],
      "translation": [
        11.236351013183594,
        -0.00887298583984375,
        -2.459273673593998e-08
      ]
    },
    {
      "children": [
        32
      ],
      "name": "Bip01 Ponytail13",
      "rotation": [
        -2.358811117351284e-13,
        1.8297039616754773e-07,
        -0.06596855074167252,
        0.9978216886520386
      ],
      "scale": [
        0.9999999403953552,
        8.815093904932132e-15,
        2.842170943040401e-14
      ],
      "translation": [
        11.236366271972656,
        -0.008869171142578125,
        -2.4621840566396713e-08
      ]
    },
    {
      "children": [
        33,
        35,
        39,
        44
      ],
      "name": "Bip01 L Hand",
      "rotation": [
        -0.704936146736145,
        -0.06950602680444717,
        -0.06456935405731201,
        0.7028973698616028
      ],
      "scale": [
        1.0,
        0.0,
        -1.0477378964424133e-09
      ],
      "translation": [
        22.580636978149414,
        0.0,
        0.0
      ]
    },
    {
      "children": [
        34,
        37,
        41,
        43
      ],
      "name": "Bip01 R Hand",
      "rotation": [
        0.7051333785057068,
        0.06748094409704208,
        -0.06658752262592316,
        0.7027085423469543
      ],
      "scale": [
        1.0000001192092896,
        -2.9802322387695313e-08,
        -1.5133991837501526e-09
      ],
      "translation": [
        22.58063316345215,
        0.0,
        0.0
      ]
    },
    {
      "name": "Bip01 R Toe0",
      "rotation": [
        2.63417843093805e-09,
        -2.63417798684884e-09,
        0.70710688829422,
        0.7071067094802856
      ],
      "scale": [
        1.0000001192092896,
        -1.0587911840678754e-22,
        -7.450581485102248e-09
      ],
      "translation": [
        12.25244140625,
        10.99776554107666,
        0.0
      ]
    },
    {
      "name": "Bip01 L Toe0",
      "rotation": [
        -2.63417843093805e-09,
        2.63417843093805e-09,
        0.70710688829422,
        0.7071067094802856
      ],
      "scale": [
        1.0,
        0.0,
        7.450580596923828e-09
      ],
      "translation": [
        12.252439498901367,
        10.997763633728027,
        0.0
      ]
    },
    {
      "name": "Bip01 Ponytail14",
      "rotation": [
        -1.7802347679910175e-15,
        1.8297039616754773e-07,
        -0.06596854329109192,
        0.9978216886520386
      ],
      "scale": [
        1.0,
        8.814843183179745e-15,
        -2.842170943040401e-14
      ],
      "translation": [
        11.236343383789063,
        -0.008869171142578125,
        -2.4600012693554163e-08
      ]
    },
    {
      "name": "equip_left",
      "rotation": [
        0.026893114671111107,
        0.9994120001792908,
        -0.0006174476002342999,
        0.02126614935696125
      ],
      "scale": [
        1.0000033378601074,
        2.316251084266696e-07,
        -2.2351741790771484e-08
      ],
      "translation": [
        5.946399688720703,
        0.6773834228515625,
        -0.0005488395690917969
      ]
    },
    {
      "name": "equip_right",
      "rotation": [
        3.1455454063689103e-07,
        -4.014957255549234e-07,
        2.8219005798746366e-07,
        1.0
      ],
      "scale": [
        1.0000007152557373,
        -2.9801183742961257e-08,
        -7.078341468513827e-08
      ],
      "translation": [
        5.946319580078125,
        0.677276611328125,
        -0.0334315299987793
      ]
    },
    {
      "children": [
        36
      ],
      "name": "Bip01 L Finger0",
      "rotation": [
        0.6464376449584961,
        0.23017531633377075,
        -0.09677521139383316,
        0.7209523916244507
      ],
      "scale": [
        1.0,
        1.7881393432617188e-07,
        2.4586915969848633e-07
      ],
      "translation": [
        0.8650398254394531,
        0.0745391845703125,
        -1.5068016052246094
      ]
    },
    {
      "children": [
        47
      ],
      "name": "Bip01 L Finger01",
      "rotation": [
        7.448553329680863e-09,
        -3.725290742551124e-09,
        -0.000181506882654503,
        1.0
      ],
      "scale": [
        1.0,
        6.51925802230835e-09,
        2.235444540588105e-08
      ],
      "translation": [
        4.21137809753418,
        0.0,
        0.0
      ]
    },
    {
      "children": [
        38
      ],
      "name": "Bip01 R Finger0",
      "rotation": [
        -0.6464376449584961,
        -0.23017531633377075,
        -0.09677521139383316,
        0.7209523916244507
      ],
      "scale": [
        1.0000001192092896,
        2.086162567138672e-07,
        -2.5890767574310303e-07
      ],
      "translation": [
        0.8650398254394531,
        0.074554443359375,
        1.5068011283874512
      ]
    },
    {
      "children": [
        48
      ],
      "name": "Bip01 R Finger01",
      "rotation": [
        1.3523210329324797e-12,
        -7.450580596923828e-09,
        -0.00018150405958294868,
        1.0
      ],
      "scale": [
        0.9999999403953552,
        -2.7939677238464355e-09,
        -1.4901159417490817e-08
      ],
      "translation": [
        4.211385726928711,
        0.0,
        1.52587890625e-05
      ]
    },
    {
      "children": [
        40
      ],
      "name": "Bip01 L Finger2",
      "rotation": [
        0.01070131454616785,
        -0.022079065442085266,
        0.12060806155204773,
        0.9923969507217407
      ],
      "scale": [
        0.999999463558197,
        -4.1653402149677277e-07,
        8.940696716308594e-08
      ],
      "translation": [
        8.93044662475586,
        -0.6634063720703125,
        0.9564805030822754
      ]
    },
    {
      "children": [
        49
      ],
      "name": "Bip01 L Finger21",
      "rotation": [
        4.2184292170510673e-10,
        6.142002878517516e-11,
        0.11640210449695587,
        0.993202269077301
      ],
      "scale": [
        0.9999998807907104,
        2.9802322387695313e-08,
        -9.075243334599747e-10
      ],
      "translation": [
        3.739696502685547,
        0.0,
        -9.5367431640625e-07
      ]
    },
    {
      "children": [
        42
      ],
      "name": "Bip01 R Finger2",
      "rotation": [
        -0.010701315477490425,
        0.022079065442085266,
        0.12060806155204773,
        0.9923969507217407
      ],
      "scale": [
        0.9999995827674866,
        -4.1641760617494583e-07,
        -8.568167686462402e-08
      ],
      "translation": [
        8.930450439453125,
        -0.6634063720703125,
        -0.9564814567565918
      ]
    },
    {
      "children": [
        50
      ],
      "name": "Bip01 R Finger21",
      "rotation": [
        -4.489449090261388e-10,
        -8.635718806715431e-10,
        0.11640208214521408,
        0.9932021498680115
      ],
      "scale": [
        1.0,
        -3.0005091637105647e-18,
        2.517589470230064e-10
      ],
      "translation": [
        3.7396926879882813,
        0.0,
        0.0
      ]
    },
    {
      "children": [
        45
      ],
      "name": "Bip01 R Finger1",
      "rotation": [
        -0.0001751342206262052,
        -0.07781512290239334,
        0.11223243921995163,
        0.9906304478645325
      ],
      "scale": [
        0.9999997019767761,
        -5.669426172971725e-07,
        4.023313522338867e-07
      ],
      "translation": [
        9.007843017578125,
        -0.879119873046875,
        2.3459372520446777
      ]
    },
    {
      "children": [
        46
      ],
      "name": "Bip01 L Finger1",
      "rotation": [
        0.00017513516650069505,
        0.07781512290239334,
        0.11223242431879044,
        0.9906304478645325
      ],
      "scale": [
        0.9999996423721313,
        -5.520414561033249e-07,
        -4.023313522338867e-07
      ],
      "translation": [
        9.00784683227539,
        -0.8791351318359375,
        -2.345937728881836
      ]
    },
    {
      "children": [
        51
      ],
      "name": "Bip01 R Finger11",
      "rotation": [
        -1.4028012085276487e-09,
        -1.223449430654e-08,
        0.11640208959579468,
        0.9932021498680115
      ],
      "scale": [
        0.9999999403953552,
        -1.4901161193847656e-08,
        7.688900183211445e-09
      ],
      "translation": [
        3.5907211303710938,
        0.0,
        -9.5367431640625e-07
      ]
    },
    {
      "children": [
        52
      ],
      "name": "Bip01 L Finger11",
      "rotation": [
        -1.7144740072083664e-09,
        3.714400342857971e-09,
        0.11640208959579468,
        0.9932021498680115
      ],
      "scale": [
        0.9999999403953552,
        1.4901161193847656e-08,
        2.189498360394282e-09
      ],
      "translation": [
        3.590717315673828,
        0.0,
        1.9073486328125e-06
      ]
    },
    {
      "name": "Bip01 L Finger02",
      "rotation": [
        3.866059916646236e-09,
        3.866059916646236e-09,
        0.038529977202415466,
        0.9992574453353882
      ],
      "scale": [
        1.0000001192092896,
        -1.1069264782735612e-16,
        7.428459625202777e-09
      ],
      "translation": [
        4.211385726928711,
        0.0,
        0.0
      ]
    },
    {
      "name": "Bip01 R Finger02",
      "rotation": [
        -4.306060785719268e-10,
        3.722524732907573e-09,
        0.038529977202415466,
        0.9992574453353882
      ],
      "scale": [
        0.9999998807907104,
        2.2351741790771484e-08,
        -2.2329619042693594e-08
      ],
      "translation": [
        4.211381912231445,
        0.0,
        0.0
      ]
    },
    {
      "name": "Bip01 L Finger22",
      "rotation": [
        -5.582340700804878e-10,
        -2.0414606116681e-10,
        0.11640208959579468,
        0.9932021498680115
      ],
      "scale": [
        1.0,
        1.4901161193847656e-08,
        2.5184103691344717e-09
      ],
      "translation": [
        3.7397003173828125,
        0.0,
        0.0
      ]
    },
    {
      "name": "Bip01 R Finger22",
      "rotation": [
        -5.4203953825382456e-11,
        0.0,
        0.11640209704637527,
        0.9932021498680115
      ],
      "scale": [
        1.0,
        0.0,
        -9.187036686952865e-10
      ],
      "translation": [
        3.7396888732910156,
        0.0,
        9.5367431640625e-07
      ]
    },
    {
      "name": "Bip01 R Finger12",
      "rotation": [
        3.835477269120702e-09,
        3.43985528949986e-09,
        0.11640209704637527,
        0.9932021498680115
      ],
      "scale": [
        1.0,
        -4.470348358154297e-08,
        2.214736394279271e-09
      ],
      "translation": [
        3.5907135009765625,
        0.0,
        -9.5367431640625e-07
      ]
    },
    {
      "name": "Bip01 L Finger12",
      "rotation": [
        -3.0459956779083086e-09,
        -3.4542879667753823e-09,
        0.11640207469463348,
        0.9932021498680115
      ],
      "scale": [
        0.9999999403953552,
        -5.729952895048727e-17,
        -4.289844035554324e-09
      ],
      "translation": [
        3.590709686279297,
        0.0,
        0.0
      ]
    }
  ],
  "scene": 0,
  "scenes": [
    {
      "nodes": [
        0
      ]
    }
  ],
  "skins": [
    {
      "inverseBindMatrices": 12,
      "joints": [
        4,
        5,
        6,
        7,
        8,
        9,
        10,
        11,
        12,
        13,
        14,
        15,
        16,
        17,
        18,
        19,
        20,
        21,
        22,
        23,
        24,
        25,
        26,
        27,
        28,
        29,
        30,
        31,
        32,
        33,
        34,
        35,
        36,
        37,
        38,
        39,
        40,
        41,
        42,
        43,
        44,
        45,
        46,
        47,
        48,
        49,
        50,
        51,
        52
      ],
      "skeleton": 4
    }
  ]
}
