{
  "accessors": [
    {
      "bufferView": 0,
      "componentType": 5126,
      "count": 883,
      "max": [
        146.3677215576172,
        145.8319091796875,
        146.3677215576172
      ],
      "min": [
        -77.32855224609375,
        -77.32855224609375,
        -73.96591186523438
      ],
      "type": "VEC3"
    },
    {
      "bufferView": 1,
      "componentType": 5126,
      "count": 883,
      "type": "VEC3"
    },
    {
      "bufferView": 2,
      "componentType": 5126,
      "count": 883,
      "type": "VEC2"
    },
    {
      "bufferView": 3,
      "componentType": 5123,
      "count": 3084,
      "type": "SCALAR"
    },
    {
      "bufferView": 4,
      "componentType": 5126,
      "count": 180,
      "max": [
        146.3677215576172,
        145.8319091796875,
        165.3986053466797
      ],
      "min": [
        -77.32855224609375,
        -77.32855224609375,
        -73.96591186523438
      ],
      "type": "VEC3"
    },
    {
      "bufferView": 5,
      "componentType": 5126,
      "count": 180,
      "type": "VEC3"
    },
    {
      "bufferView": 6,
      "componentType": 5126,
      "count": 180,
      "type": "VEC2"
    },
    {
      "bufferView": 7,
      "componentType": 5123,
      "count": 1020,
      "type": "SCALAR"
    },
    {
      "bufferView": 8,
      "componentType": 5126,
      "count": 50,
      "type": "MAT4"
    }
  ],
  "asset": {
    "generator": "gr2togltf (ANKA2 Project)",
    "version": "2.0"
  },
  "bufferViews": [
    {
      "buffer": 0,
      "byteLength": 10596,
      "target": 34962
    },
    {
      "buffer": 0,
      "byteLength": 10596,
      "byteOffset": 10596,
      "target": 34962
    },
    {
      "buffer": 0,
      "byteLength": 7064,
      "byteOffset": 21192,
      "target": 34962
    },
    {
      "buffer": 0,
      "byteLength": 6168,
      "byteOffset": 28256,
      "target": 34963
    },
    {
      "buffer": 0,
      "byteLength": 2160,
      "byteOffset": 34424,
      "target": 34962
    },
    {
      "buffer": 0,
      "byteLength": 2160,
      "byteOffset": 36584,
      "target": 34962
    },
    {
      "buffer": 0,
      "byteLength": 1440,
      "byteOffset": 38744,
      "target": 34962
    },
    {
      "buffer": 0,
      "byteLength": 2040,
      "byteOffset": 40184,
      "target": 34963
    },
    {
      "buffer": 0,
      "byteLength": 3200,
      "byteOffset": 42224
    }
  ],
  "buffers": [
    {
      "byteLength": 45424,
      "uri": "data:application/octet-stream;base64,"
    }
  ],
  "materials": [
    {
      "name": "default",
      "pbrMetallicRoughness": {
        "baseColorFactor": [
          0.8,
          0.8,
          0.8,
          1.0
        ],
        "metallicFactor": 0.0,
        "roughnessFactor": 0.8
      }
    }
  ],
  "meshes": [
    {
      "name": "shaman_fencing1",
      "primitives": [
        {
          "attributes": {
            "NORMAL": 1,
            "POSITION": 0,
            "TEXCOORD_0": 2
          },
          "indices": 3,
          "material": 0,
          "mode": 4
        }
      ]
    },
    {
      "name": "shaman_face",
      "primitives": [
        {
          "attributes": {
            "NORMAL": 5,
            "POSITION": 4,
            "TEXCOORD_0": 6
          },
          "indices": 7,
          "material": 0,
          "mode": 4
        }
      ]
    }
  ],
  "nodes": [
    {
      "children": [
        1,
        2,
        3
      ]
    },
    {
      "mesh": 0,
      "name": "shaman_fencing1",
      "skin": 0
    },
    {
      "mesh": 1,
      "name": "shaman_face",
      "skin": 0
    },
    {
      "children": [
        4
      ],
      "name": "Bip01",
      "rotation": [
        0.0,
        0.0,
        0.0,
        0.9999999403953552
      ],
      "scale": [
        0.9999997615814209,
        -5.117093408073606e-14,
        0.0
      ],
      "translation": [
        5.960464477539063e-08,
        -7.105427357601002e-14,
        0.0
      ]
    },
    {
      "children": [
        5
      ],
      "name": "Bip01 Pelvis",
      "rotation": [
        -0.4999993145465851,
        -0.5,
        -0.5,
        0.5000006556510925
      ],
      "scale": [
        1.0,
        6.755036055564761e-20,
        -2.6671148450016795e-18
      ],
      "translation": [
        0.9087960720062256,
        -7.105427357601002e-14,
        0.0
      ]
    },
    {
      "children": [
        6,
        25,
        38
      ],
      "name": "Bip01 Spine",
      "rotation": [
        -2.0994200440327404e-06,
        -7.13202211954922e-07,
        0.02897808514535427,
        0.9995800256729126
      ],
      "scale": [
        1.0000001192092896,
        -3.724561326023945e-09,
        -1.6604279800061517e-13
      ],
      "translation": [
        6.193992614746094,
        -0.009989559650421143,
        8.603674359619617e-06
      ]
    },
    {
      "children": [
        7
      ],
      "name": "Bip01 Spine1",
      "rotation": [
        3.2099401126505986e-14,
        2.445134725803655e-07,
        -0.08815741539001465,
        0.9961065649986267
      ],
      "scale": [
        1.0,
        -1.0468244937555937e-08,
        -3.4335168307706235e-14
      ],
      "translation": [
        12.570350646972656,
        -0.0077838897705078125,
        -2.1591404220089316e-08
      ]
    },
    {
      "children": [
        8,
        51,
        52
      ],
      "name": "Bip01 Spine2",
      "rotation": [
        4.449198103581402e-15,
        1.693988309625638e-07,
        -0.06107543781399727,
        0.9981331825256348
      ],
      "scale": [
        1.0,
        6.9974137161671335e-15,
        -1.540582169213406e-14
      ],
      "translation": [
        9.930061340332031,
        -0.012085914611816406,
        -3.352033672854304e-08
      ]
    },
    {
      "children": [
        9,
        14,
        19
      ],
      "name": "Bip01 Neck",
      "rotation": [
        0.0,
        -7.252514251376851e-07,
        0.26148372888565063,
        0.9652078747749329
      ],
      "scale": [
        1.0000001192092896,
        -4.273470111115785e-08,
        2.7180860372785082e-14
      ],
      "translation": [
        18.59966278076172,
        -1.1482963562011719,
        -1.1849188013002276e-06
      ]
    },
    {
      "children": [
        10
      ],
      "name": "Bip01 R Clavicle",
      "rotation": [
        -0.609510600566864,
        0.23812733590602875,
        0.7433037161827087,
        0.13889475166797638
      ],
      "scale": [
        1.0,
        1.1236199526365453e-08,
        2.4189272807007e-10
      ],
      "translation": [
        -1.845062255859375,
        1.0423774719238281,
        -2.495269298553467
      ]
    },
    {
      "children": [
        11
      ],
      "name": "Bip01 R UpperArm",
      "rotation": [
        -0.1351195126771927,
        -0.021313443779945374,
        -0.05337775871157646,
        0.9891608953475952
      ],
      "scale": [
        1.0,
        -2.3296081508306088e-08,
        -1.7741440316854096e-08
      ],
      "translation": [
        11.936211585998535,
        0.0,
        -1.52587890625e-05
      ]
    },
    {
      "children": [
        12
      ],
      "name": "Bip01 R ForeArm",
      "rotation": [
        2.3273385996169793e-10,
        -6.7122561848986795e-12,
        -0.028828922659158707,
        0.9995843768119812
      ],
      "scale": [
        1.0,
        -6.586643230832578e-09,
        0.0
      ],
      "translation": [
        23.697328567504883,
        -4.76837158203125e-07,
        -1.52587890625e-05
      ]
    },
    {
      "children": [
        13,
        42,
        45,
        48
      ],
      "name": "Bip01 R Hand",
      "rotation": [
        0.7051334381103516,
        0.06748095154762268,
        -0.06658753007650375,
        0.7027085423469543
      ],
      "scale": [
        1.0000001192092896,
        -1.0898546065618575e-08,
        -9.223217745102374e-10
      ],
      "translation": [
        22.58063316345215,
        0.0,
        1.52587890625e-05
      ]
    },
    {
      "name": "equip_right",
      "rotation": [
        3.1408853828907013e-07,
        -4.023677036002482e-07,
        2.7939677238464355e-07,
        1.0
      ],
      "scale": [
        1.0000001192092896,
        -1.8624242148490566e-09,
        -3.0416358320906056e-09
      ],
      "translation": [
        5.946506500244141,
        0.677276611328125,
        -0.03370189666748047
      ]
    },
    {
      "children": [
        15
      ],
      "name": "Bip01 L Clavicle",
      "rotation": [
        0.6095109581947327,
        -0.2381293922662735,
        0.743303120136261,
        0.13889305293560028
      ],
      "scale": [
        1.0,
        -7.208848629147724e-09,
        9.605283679547938e-09
      ],
      "translation": [
        -1.845062255859375,
        1.0423622131347656,
        2.4952707290649414
      ]
    },
    {
      "children": [
        16
      ],
      "name": "Bip01 L UpperArm",
      "rotation": [
        0.1351195126771927,
        0.021313440054655075,
        -0.05337775871157646,
        0.9891608953475952
      ],
      "scale": [
        0.9999998807907104,
        -6.282715681038553e-09,
        -9.216409857515373e-10
      ],
      "translation": [
        11.936210632324219,
        0.0,
        1.52587890625e-05
      ]
    },
    {
      "children": [
        17
      ],
      "name": "Bip01 L ForeArm",
      "rotation": [
        -4.475260717562435e-10,
        -7.447483518774334e-09,
        -0.028828920796513557,
        0.9995843768119812
      ],
      "scale": [
        1.0,
        8.515534943853709e-10,
        1.4887741706104407e-08
      ],
      "translation": [
        23.697330474853516,
        0.0,
        3.0517578125e-05
      ]
    },
    {
      "children": [
        18,
        29,
        32,
        35
      ],
      "name": "Bip01 L Hand",
      "rotation": [
        -0.7049362063407898,
        -0.06950603425502777,
        -0.0645693764090538,
        0.702897310256958
      ],
      "scale": [
        0.9999999403953552,
        -8.183318911392234e-09,
        2.214899930130798e-10
      ],
      "translation": [
        22.580629348754883,
        -9.5367431640625e-07,
        -1.52587890625e-05
      ]
    },
    {
      "name": "equip_left",
      "rotation": [
        0.026893140748143196,
        0.9994118809700012,
        -0.0006183969089761376,
        0.02126600593328476
      ],
      "scale": [
        1.0000001192092896,
        1.042490449520983e-08,
        -1.162835516765881e-08
      ],
      "translation": [
        5.946643829345703,
        0.6773681640625,
        -0.000225067138671875
      ]
    },
    {
      "children": [
        20
      ],
      "name": "Bip01 Head",
      "rotation": [
        8.551731371653215e-14,
        -7.36334229145541e-08,
        0.02654726803302765,
        0.9996475577354431
      ],
      "scale": [
        0.9999998807907104,
        5.56473200852281e-10,
        2.143032828288722e-14
      ],
      "translation": [
        8.269393920898438,
        0.0,
        0.0
      ]
    },
    {
      "children": [
        21
      ],
      "name": "Bip01 Ponytail1",
      "rotation": [
        1.8407369812428742e-12,
        -2.772950665530516e-06,
        0.9997656941413879,
        -0.021647075191140175
      ],
      "scale": [
        0.9999997615814209,
        -2.955201083842951e-10,
        6.406047838459356e-14
      ],
      "translation": [
        6.120635986328125,
        -6.112087249755859,
        -1.6952501027844846e-05
      ]
    },
    {
      "children": [
        22
      ],
      "name": "Bip01 Ponytail11",
      "rotation": [
        -6.396328643609381e-14,
        -5.893446441973538e-08,
        0.021248385310173035,
        0.9997742176055908
      ],
      "scale": [
        1.0,
        2.5324327079800923e-09,
        5.3692537612184954e-15
      ],
      "translation": [
        11.2379150390625,
        -0.00894927978515625,
        -2.482556737959385e-08
      ]
    },
    {
      "children": [
        23
      ],
      "name": "Bip01 Ponytail12",
      "rotation": [
        -5.073669078186488e-14,
        1.8297042458925716e-07,
        -0.0659685730934143,
        0.9978216886520386
      ],
      "scale": [
        1.0000001192092896,
        -9.223982133654829e-10,
        -1.7678381274057603e-13
      ],
      "translation": [
        11.236335754394531,
        -0.0088653564453125,
        -2.4578184820711613e-08
      ]
    },
    {
      "children": [
        24
      ],
      "name": "Bip01 Ponytail13",
      "rotation": [
        1.1927572373792578e-13,
        1.8297038195669302e-07,
        -0.06596855074167252,
        0.9978216886520386
      ],
      "scale": [
        0.9999999403953552,
        7.846942651212885e-09,
        -5.411482419397269e-14
      ],
      "translation": [
        11.236343383789063,
        -0.00887298583984375,
        -2.4621840566396713e-08
      ]
    },
    {
      "name": "Bip01 Ponytail14",
      "rotation": [
        -8.901173839955087e-16,
        1.8297039616754773e-07,
        -0.06596855074167252,
        0.9978216886520386
      ],
      "scale": [
        1.0000001192092896,
        6.002139230076864e-09,
        -2.9358487212485795e-14
      ],
      "translation": [
        11.236343383789063,
        -0.00887298583984375,
        -2.459273673593998e-08
      ]
    },
    {
      "children": [
        26
      ],
      "name": "Bip01 L Thigh",
      "rotation": [
        -0.005618920549750328,
        0.9973922371864319,
        0.005686240270733833,
        -0.07172724604606628
      ],
      "scale": [
        1.0000001192092896,
        2.5299913275489416e-09,
        4.934844755055678e-10
      ],
      "translation": [
        -6.183006286621094,
        0.3687882423400879,
        6.610882759094238
      ]
    },
    {
      "children": [
        27
      ],
      "name": "Bip01 L Calf",
      "rotation": [
        -1.5332636202347594e-11,
        -7.449607153375837e-09,
        -0.002057911129668355,
        0.9999978542327881
      ],
      "scale": [
        0.9999997615814209,
        -4.4067149929105653e-10,
        1.490307610652053e-08
      ],
      "translation": [
        43.94833755493164,
        4.76837158203125e-07,
        -1.9073486328125e-06
      ]
    },
    {
      "children": [
        28
      ],
      "name": "Bip01 L Foot",
      "rotation": [
        -0.06650764495134354,
        -0.07425308227539063,
        0.03141501918435097,
        0.9945231676101685
      ],
      "scale": [
        0.9999999403953552,
        -1.7187934631124335e-08,
        -2.8242801874966972e-08
      ],
      "translation": [
        40.72791290283203,
        0.0,
        -1.9073486328125e-06
      ]
    },
    {
      "name": "Bip01 L Toe0",
      "rotation": [
        -2.6341777648042353e-09,
        2.6341777648042353e-09,
        0.7071067094802856,
        0.7071067690849304
      ],
      "scale": [
        1.0,
        0.0,
        7.450580596923828e-09
      ],
      "translation": [
        12.252439498901367,
        10.997764587402344,
        0.0
      ]
    },
    {
      "children": [
        30
      ],
      "name": "Bip01 L Finger1",
      "rotation": [
        0.0001751342206262052,
        0.07781513035297394,
        0.11223243176937103,
        0.9906304478645325
      ],
      "scale": [
        0.9999995827674866,
        -5.471703161674668e-07,
        -4.345196202848456e-07
      ],
      "translation": [
        9.007843017578125,
        -0.8791351318359375,
        -2.3459367752075195
      ]
    },
    {
      "children": [
        31
      ],
      "name": "Bip01 L Finger11",
      "rotation": [
        -6.251075213015156e-10,
        5.604153585636595e-09,
        0.1164020225405693,
        0.9932022094726563
      ],
      "scale": [
        1.0,
        -1.5928321772662457e-08,
        -2.6921969098481213e-09
      ],
      "translation": [
        3.5907135009765625,
        0.0,
        1.9073486328125e-06
      ]
    },
    {
      "name": "Bip01 L Finger12",
      "rotation": [
        8.978895404965215e-10,
        -2.7894071497058803e-09,
        0.11640200018882751,
        0.9932022094726563
      ],
      "scale": [
        1.0000001192092896,
        2.8279227848315713e-08,
        -1.6198727081917497e-10
      ],
      "translation": [
        3.5907135009765625,
        0.0,
        9.5367431640625e-07
      ]
    },
    {
      "children": [
        33
      ],
      "name": "Bip01 L Finger2",
      "rotation": [
        0.010701313614845276,
        -0.022079065442085266,
        0.12060804665088654,
        0.9923969507217407
      ],
      "scale": [
        0.9999994039535522,
        -3.9043041510922194e-07,
        8.957307073842458e-08
      ],
      "translation": [
        8.930450439453125,
        -0.6634063720703125,
        0.9564828872680664
      ]
    },
    {
      "children": [
        34
      ],
      "name": "Bip01 L Finger21",
      "rotation": [
        1.2195877641119068e-10,
        -3.468718368093704e-10,
        0.1164020299911499,
        0.9932021498680115
      ],
      "scale": [
        1.0,
        7.105582255917398e-08,
        2.0765476005379924e-09
      ],
      "translation": [
        3.739696502685547,
        0.0,
        0.0
      ]
    },
    {
      "name": "Bip01 L Finger22",
      "rotation": [
        5.4203915661465984e-11,
        0.0,
        0.1164020225405693,
        0.9932022094726563
      ],
      "scale": [
        0.9999999403953552,
        2.756374684054208e-08,
        9.187036686952865e-10
      ],
      "translation": [
        3.73968505859375,
        0.0,
        -9.5367431640625e-07
      ]
    },
    {
      "children": [
        36
      ],
      "name": "Bip01 L Finger0",
      "rotation": [
        0.6464375853538513,
        0.23017531633377075,
        -0.09677518904209137,
        0.7209523916244507
      ],
      "scale": [
        1.0000001192092896,
        1.33342965114025e-07,
        2.3699669782217825e-07
      ],
      "translation": [
        0.8650436401367188,
        0.074554443359375,
        -1.5068001747131348
      ]
    },
    {
      "children": [
        37
      ],
      "name": "Bip01 L Finger01",
      "rotation": [
        -6.760703108454891e-13,
        -1.1175870895385742e-08,
        -0.0001814994029700756,
        1.0
      ],
      "scale": [
        1.0,
        -1.2085556555518906e-08,
        7.450581485102248e-09
      ],
      "translation": [
        4.21137809753418,
        -1.9073486328125e-06,
        0.0
      ]
    },
    {
      "name": "Bip01 L Finger02",
      "rotation": [
        -3.722523844729153e-09,
        1.4353528088317802e-10,
        0.03852996975183487,
        0.9992574453353882
      ],
      "scale": [
        1.0000001192092896,
        2.403635690484407e-08,
        5.737151864693146e-10
      ],
      "translation": [
        4.2113800048828125,
        0.0,
        -1.52587890625e-05
      ]
    },
    {
      "children": [
        39
      ],
      "name": "Bip01 R Thigh",
      "rotation": [
        -0.005618722178041935,
        0.9973922371864319,
        -0.005683479830622673,
        0.07172735035419464
      ],
      "scale": [
        1.0000001192092896,
        3.558844996476296e-09,
        -9.571228254401376e-10
      ],
      "translation": [
        -6.183006286621094,
        0.36882495880126953,
        -6.6108808517456055
      ]
    },
    {
      "children": [
        40
      ],
      "name": "Bip01 R Calf",
      "rotation": [
        7.061567441901673e-10,
        3.7248031325987085e-09,
        -0.0020579088013619184,
        0.9999978542327881
      ],
      "scale": [
        0.9999999403953552,
        3.7252587681280147e-09,
        -7.448664351983325e-09
      ],
      "translation": [
        43.94834518432617,
        4.76837158203125e-07,
        -1.9073486328125e-06
      ]
    },
    {
      "children": [
        41
      ],
      "name": "Bip01 R Foot",
      "rotation": [
        0.06650763750076294,
        0.07425316423177719,
        0.03141501545906067,
        0.9945231676101685
      ],
      "scale": [
        1.0,
        -1.234354929380288e-08,
        2.9496771247750075e-08
      ],
      "translation": [
        40.72791290283203,
        4.76837158203125e-07,
        1.9073486328125e-06
      ]
    },
    {
      "name": "Bip01 R Toe0",
      "rotation": [
        2.6341777648042353e-09,
        -2.6341775427596303e-09,
        0.7071067094802856,
        0.7071067690849304
      ],
      "scale": [
        1.0000001192092896,
        -1.0587911840678754e-22,
        -7.450581485102248e-09
      ],
      "translation": [
        12.25244140625,
        10.997764587402344,
        0.0
      ]
    },
    {
      "children": [
        43
      ],
      "name": "Bip01 R Finger1",
      "rotation": [
        -0.00017513516650069505,
        -0.07781513035297394,
        0.11223243176937103,
        0.9906304478645325
      ],
      "scale": [
        0.9999995827674866,
        -5.476859996633721e-07,
        4.210027952922246e-07
      ],
      "translation": [
        9.007843017578125,
        -0.8791351318359375,
        2.345937728881836
      ]
    },
    {
      "children": [
        44
      ],
      "name": "Bip01 R Finger11",
      "rotation": [
        -1.0640264225258989e-09,
        -6.13528605697411e-09,
        0.11640201508998871,
        0.9932022094726563
      ],
      "scale": [
        1.0,
        -1.5928323549019296e-08,
        1.4137583548290422e-08
      ],
      "translation": [
        3.5907211303710938,
        1.52587890625e-05,
        9.5367431640625e-07
      ]
    },
    {
      "name": "Bip01 R Finger12",
      "rotation": [
        -3.5950837862230856e-09,
        1.8788475220077316e-09,
        0.1164020225405693,
        0.9932022094726563
      ],
      "scale": [
        0.9999999403953552,
        5.798942481760605e-08,
        1.760761669800104e-08
      ],
      "translation": [
        3.590709686279297,
        -1.52587890625e-05,
        -9.5367431640625e-07
      ]
    },
    {
      "children": [
        46
      ],
      "name": "Bip01 R Finger2",
      "rotation": [
        -0.01070131454616785,
        0.022079061716794968,
        0.12060805410146713,
        0.9923969507217407
      ],
      "scale": [
        0.9999995231628418,
        -4.3382192416174803e-07,
        -8.806561169194538e-08
      ],
      "translation": [
        8.930442810058594,
        -0.663421630859375,
        -0.9564809799194336
      ]
    },
    {
      "children": [
        47
      ],
      "name": "Bip01 R Finger21",
      "rotation": [
        8.165837450668789e-10,
        0.0,
        0.1164020225405693,
        0.9932022094726563
      ],
      "scale": [
        1.0000001192092896,
        1.2350907852010096e-08,
        -2.0527493038713374e-09
      ],
      "translation": [
        3.7396926879882813,
        1.52587890625e-05,
        9.5367431640625e-07
      ]
    },
    {
      "name": "Bip01 R Finger22",
      "rotation": [
        -1.0840783132293197e-10,
        4.62495819419928e-10,
        0.1164020299911499,
        0.9932021498680115
      ],
      "scale": [
        0.9999999403953552,
        5.798942481760605e-08,
        -1.850026243310765e-09
      ],
      "translation": [
        3.7396926879882813,
        0.0,
        -9.5367431640625e-07
      ]
    },
    {
      "children": [
        49
      ],
      "name": "Bip01 R Finger0",
      "rotation": [
        -0.6464375853538513,
        -0.23017531633377075,
        -0.09677518904209137,
        0.7209523916244507
      ],
      "scale": [
        1.0000001192092896,
        1.843139472157418e-07,
        -2.6138042130696704e-07
      ],
      "translation": [
        0.8650360107421875,
        0.074554443359375,
        1.5068016052246094
      ]
    },
    {
      "children": [
        50
      ],
      "name": "Bip01 R Finger01",
      "rotation": [
        3.7266425501059075e-09,
        -6.762368442991828e-13,
        -0.00018151244148612022,
        1.0
      ],
      "scale": [
        1.0,
        8.381902283360887e-09,
        -1.4901161193847656e-08
      ],
      "translation": [
        4.211383819580078,
        1.9073486328125e-06,
        0.0
      ]
    },
    {
      "name": "Bip01 R Finger02",
      "rotation": [
        -2.870706727886585e-10,
        0.0,
        0.038529977202415466,
        0.9992574453353882
      ],
      "scale": [
        1.0000001192092896,
        1.944663807762481e-08,
        -1.4879040222126605e-08
      ],
      "translation": [
        4.211374282836914,
        -3.814697265625e-06,
        0.0
      ]
    },
    {
      "name": "lu_bone01",
      "rotation": [
        0.1388261914253235,
        -0.1043127179145813,
        0.787321925163269,
        0.5915828943252563
      ],
      "scale": [
        1.0000001192092896,
        -6.946346609026932e-09,
        -6.082579062649529e-08
      ],
      "translation": [
        3.6871795654296875,
        4.928712844848633,
        5.072099208831787
      ]
    },
    {
      "name": "ru_bone01",
      "rotation": [
        -0.13882553577423096,
        0.10431142896413803,
        0.7873219847679138,
        0.5915831923484802
      ],
      "scale": [
        1.0,
        -1.0702966513065348e-08,
        -6.317613809869727e-08
      ],
      "translation": [
        3.6871871948242188,
        4.92872428894043,
        -5.072079181671143
      ]
    }
  ],
  "scene": 0,
  "scenes": [
    {
      "nodes": [
        0
      ]
    }
  ],
  "skins": [
    {
      "inverseBindMatrices": 8,
      "joints": [
        3,
        4,
        5,
        6,
        7,
        8,
        9,
        10,
        11,
        12,
        13,
        14,
        15,
        16,
        17,
        18,
        19,
        20,
        21,
        22,
        23,
        24,
        25,
        26,
        27,
        28,
        29,
        30,
        31,
        32,
        33,
        34,
        35,
        36,
        37,
        38,
        39,
        40,
        41,
        42,
        43,
        44,
        45,
        46,
        47,
        48,
        49,
        50,
        51,
        52
      ],
      "skeleton": 3
    }
  ]
}
