{
  "accessors": [
    {
      "bufferView": 0,
      "componentType": 5126,
      "count": 1595,
      "max": [
        160.5121612548828,
        151.664794921875,
        152.86141967773438
      ],
      "min": [
        -74.25701904296875,
        -77.2249755859375,
        -77.64204406738281
      ],
      "type": "VEC3"
    },
    {
      "bufferView": 1,
      "componentType": 5126,
      "count": 1595,
      "type": "VEC3"
    },
    {
      "bufferView": 2,
      "componentType": 5126,
      "count": 1595,
      "type": "VEC2"
    },
    {
      "bufferView": 3,
      "componentType": 5123,
      "count": 7245,
      "type": "SCALAR"
    },
    {
      "bufferView": 4,
      "componentType": 5126,
      "count": 180,
      "max": [
        162.14735412597656,
        163.74398803710938,
        164.9644317626953
      ],
      "min": [
        -74.25701904296875,
        -77.2249755859375,
        -77.64204406738281
      ],
      "type": "VEC3"
    },
    {
      "bufferView": 5,
      "componentType": 5126,
      "count": 180,
      "type": "VEC3"
    },
    {
      "bufferView": 6,
      "componentType": 5126,
      "count": 180,
      "type": "VEC2"
    },
    {
      "bufferView": 7,
      "componentType": 5123,
      "count": 1020,
      "type": "SCALAR"
    },
    {
      "bufferView": 8,
      "componentType": 5126,
      "count": 73,
      "type": "MAT4"
    }
  ],
  "asset": {
    "generator": "gr2togltf (ANKA2 Project)",
    "version": "2.0"
  },
  "bufferViews": [
    {
      "buffer": 0,
      "byteLength": 19140,
      "target": 34962
    },
    {
      "buffer": 0,
      "byteLength": 19140,
      "byteOffset": 19140,
      "target": 34962
    },
    {
      "buffer": 0,
      "byteLength": 12760,
      "byteOffset": 38280,
      "target": 34962
    },
    {
      "buffer": 0,
      "byteLength": 14490,
      "byteOffset": 51040,
      "target": 34963
    },
    {
      "buffer": 0,
      "byteLength": 2160,
      "byteOffset": 65530,
      "target": 34962
    },
    {
      "buffer": 0,
      "byteLength": 2160,
      "byteOffset": 67690,
      "target": 34962
    },
    {
      "buffer": 0,
      "byteLength": 1440,
      "byteOffset": 69850,
      "target": 34962
    },
    {
      "buffer": 0,
      "byteLength": 2040,
      "byteOffset": 71290,
      "target": 34963
    },
    {
      "buffer": 0,
      "byteLength": 4672,
      "byteOffset": 73330
    }
  ],
  "buffers": [
    {
      "byteLength": 78002,
      "uri": "data:application/octet-stream;base64,"
    }
  ],
  "materials": [
    {
      "name": "default",
      "pbrMetallicRoughness": {
        "baseColorFactor": [
          0.8,
          0.8,
          0.8,
          1.0
        ],
        "metallicFactor": 0.0,
        "roughnessFactor": 0.8
      }
    }
  ],
  "meshes": [
    {
      "name": "body",
      "primitives": [
        {
          "attributes": {
            "NORMAL": 1,
            "POSITION": 0,
            "TEXCOORD_0": 2
          },
          "indices": 3,
          "material": 0,
          "mode": 4
        }
      ]
    },
    {
      "name": "face",
      "primitives": [
        {
          "attributes": {
            "NORMAL": 5,
            "POSITION": 4,
            "TEXCOORD_0": 6
          },
          "indices": 7,
          "material": 0,
          "mode": 4
        }
      ]
    }
  ],
  "nodes": [
    {
      "children": [
        1,
        2,
        3
      ]
    },
    {
      "mesh": 0,
      "name": "body",
      "skin": 0
    },
    {
      "mesh": 1,
      "name": "face",
      "skin": 0
    },
    {
      "children": [
        4
      ],
      "name": "Bip01",
      "rotation": [
        0.0,
        0.0,
        0.0,
        0.9999999403953552
      ],
      "scale": [
        0.9999997615814209,
        -5.117093408073606e-14,
        0.0
      ],
      "translation": [
        5.960464477539063e-08,
        -7.105427357601002e-14,
        0.0
      ]
    },
    {
      "children": [
        5
      ],
      "name": "Bip01 Pelvis",
      "rotation": [
        -0.4999993145465851,
        -0.5,
        -0.5,
        0.5000006556510925
      ],
      "scale": [
        1.0,
        6.755036055564761e-20,
        -2.6671148450016795e-18
      ],
      "translation": [
        0.9087960720062256,
        -7.105427357601002e-14,
        0.0
      ]
    },
    {
      "children": [
        6,
        11,
        16,
        18,
        41,
        46,
        60
      ],
      "name": "Bip01 Spine",
      "rotation": [
        -2.0994200440327404e-06,
        -7.13202211954922e-07,
        0.02897808514535427,
        0.9995800256729126
      ],
      "scale": [
        1.0000001192092896,
        -3.724561326023945e-09,
        -1.6604279800061517e-13
      ],
      "translation": [
        6.193992614746094,
        -0.009989559650421143,
        8.603674359619617e-06
      ]
    },
    {
      "children": [
        7
      ],
      "name": "right_bone01",
      "rotation": [
        -0.12857405841350555,
        -0.6953197121620178,
        0.7015994191169739,
        -0.08807681500911713
      ],
      "scale": [
        1.000000238418579,
        -4.88663687292501e-09,
        1.4533713121878122e-09
      ],
      "translation": [
        3.4734649658203125,
        -2.3911795616149902,
        -9.5159912109375
      ]
    },
    {
      "children": [
        8
      ],
      "name": "right_bone02",
      "rotation": [
        4.1462527855529174e-11,
        2.0767927821907506e-08,
        -0.0019965139217674732,
        0.9999979734420776
      ],
      "scale": [
        0.9999998807907104,
        1.4911389456528923e-08,
        -8.061589488680704e-15
      ],
      "translation": [
        17.058731079101563,
        -9.1552734375e-05,
        -4.76837158203125e-07
      ]
    },
    {
      "children": [
        9
      ],
      "name": "right_bone03",
      "rotation": [
        -1.779660674470357e-13,
        7.384780981167793e-11,
        0.0024102991446852684,
        0.999997079372406
      ],
      "scale": [
        1.0000001192092896,
        -6.932410201443417e-11,
        2.6587496005541552e-15
      ],
      "translation": [
        17.697643280029297,
        -3.814697265625e-06,
        2.384185791015625e-07
      ]
    },
    {
      "children": [
        10
      ],
      "name": "right_bone04",
      "rotation": [
        -2.215526693650897e-15,
        2.647018034303674e-23,
        -0.005500899162143469,
        0.999984860420227
      ],
      "scale": [
        1.0,
        -1.55560080372652e-08,
        -1.800731483006914e-15
      ],
      "translation": [
        17.533355712890625,
        -0.0001983642578125,
        0.0
      ]
    },
    {
      "name": "right_bone05",
      "rotation": [
        -3.892876604703671e-15,
        -4.075575523377115e-16,
        -0.0172868762165308,
        0.9998505711555481
      ],
      "scale": [
        0.9999999403953552,
        7.446127270327452e-09,
        8.267722367933327e-16
      ],
      "translation": [
        17.377685546875,
        -3.814697265625e-06,
        0.0
      ]
    },
    {
      "children": [
        12
      ],
      "name": "left_bone01",
      "rotation": [
        0.1285741776227951,
        0.6953186392784119,
        0.7016003727912903,
        -0.08807733654975891
      ],
      "scale": [
        1.0,
        -1.850060016295174e-08,
        9.33327526375649e-10
      ],
      "translation": [
        3.4734725952148438,
        -2.391207218170166,
        9.515968322753906
      ]
    },
    {
      "children": [
        13
      ],
      "name": "left_bone02",
      "rotation": [
        4.146379767311359e-11,
        2.0767926045550666e-08,
        -0.0019965062383562326,
        0.9999979734420776
      ],
      "scale": [
        0.9999999403953552,
        0.0,
        1.0769202302379592e-14
      ],
      "translation": [
        17.058731079101563,
        -8.7738037109375e-05,
        -7.152557373046875e-07
      ]
    },
    {
      "children": [
        14
      ],
      "name": "left_bone03",
      "rotation": [
        -1.7586362325173327e-13,
        7.384514527641883e-11,
        0.002410321729257703,
        0.999997079372406
      ],
      "scale": [
        1.0000001192092896,
        -1.4791980085249179e-08,
        -2.6905395940975563e-15
      ],
      "translation": [
        17.697643280029297,
        -3.814697265625e-06,
        0.0
      ]
    },
    {
      "children": [
        15
      ],
      "name": "left_bone04",
      "rotation": [
        1.9543144514467693e-17,
        0.0,
        -0.005500906612724066,
        0.999984860420227
      ],
      "scale": [
        1.0,
        -6.557492326919601e-10,
        -7.105212211232399e-15
      ],
      "translation": [
        17.533344268798828,
        -0.0001983642578125,
        0.0
      ]
    },
    {
      "name": "left_bone05",
      "rotation": [
        1.83750668896138e-15,
        -3.070762440315306e-17,
        -0.017286883667111397,
        0.9998505711555481
      ],
      "scale": [
        1.0,
        3.3252289810548064e-09,
        -7.103303846002235e-15
      ],
      "translation": [
        17.3776912689209,
        0.0,
        2.384185791015625e-07
      ]
    },
    {
      "children": [
        17
      ],
      "name": "front_bone01",
      "rotation": [
        1.228702899425116e-07,
        -6.800131586714997e-07,
        0.998245358467102,
        0.0592135451734066
      ],
      "scale": [
        1.000000238418579,
        1.4072203402548666e-09,
        -3.1031695767701206e-14
      ],
      "translation": [
        4.310005187988281,
        6.6888885498046875,
        7.629396350239404e-06
      ]
    },
    {
      "name": "front_bone02",
      "rotation": [
        1.0036364219491748e-15,
        3.595277931432977e-15,
        -0.06419984996318817,
        0.9979370832443237
      ],
      "scale": [
        1.000000238418579,
        -4.965325928196762e-10,
        -6.9062653477460455e-15
      ],
      "translation": [
        16.666847229003906,
        9.5367431640625e-07,
        1.2019427231280133e-07
      ]
    },
    {
      "children": [
        19
      ],
      "name": "Bip01 Spine1",
      "rotation": [
        3.2099401126505986e-14,
        2.445134725803655e-07,
        -0.08815741539001465,
        0.9961065649986267
      ],
      "scale": [
        1.0,
        -1.0468244937555937e-08,
        -3.4335168307706235e-14
      ],
      "translation": [
        12.570350646972656,
        -0.0077838897705078125,
        -2.1591404220089316e-08
      ]
    },
    {
      "children": [
        20,
        21,
        22
      ],
      "name": "Bip01 Spine2",
      "rotation": [
        3.559358652271711e-15,
        1.693989304385468e-07,
        -0.061075467616319656,
        0.9981331825256348
      ],
      "scale": [
        1.0,
        6.99740863396945e-15,
        -1.902568475486109e-14
      ],
      "translation": [
        9.930061340332031,
        -0.0120849609375,
        -3.352033672854304e-08
      ]
    },
    {
      "name": "ru_bone01",
      "rotation": [
        -0.13882532715797424,
        0.10431154817342758,
        0.7873219847679138,
        0.591583251953125
      ],
      "scale": [
        1.000000238418579,
        -2.521773900809876e-08,
        2.5032676376213203e-08
      ],
      "translation": [
        3.8694686889648438,
        4.186435699462891,
        -5.0720672607421875
      ]
    },
    {
      "name": "lu_bone01",
      "rotation": [
        0.13882602751255035,
        -0.10431277006864548,
        0.787321925163269,
        0.5915830135345459
      ],
      "scale": [
        1.0000001192092896,
        -7.758319320316787e-09,
        5.306819161887688e-08
      ],
      "translation": [
        3.869476318359375,
        4.186428070068359,
        5.072090148925781
      ]
    },
    {
      "children": [
        23,
        29,
        35
      ],
      "name": "Bip01 Neck",
      "rotation": [
        1.472310127818583e-14,
        -7.252505724864022e-07,
        0.26148346066474915,
        0.9652079343795776
      ],
      "scale": [
        1.0000003576278687,
        -2.5295554095805528e-08,
        6.63489377913766e-14
      ],
      "translation": [
        18.59967803955078,
        -1.148294448852539,
        -1.1849188013002276e-06
      ]
    },
    {
      "children": [
        24,
        25
      ],
      "name": "Bip01 R Clavicle",
      "rotation": [
        -0.6095106601715088,
        0.23812714219093323,
        0.7433037757873535,
        0.13889451324939728
      ],
      "scale": [
        1.0,
        -3.153953542778254e-08,
        -4.791913710278095e-08
      ],
      "translation": [
        -1.8450775146484375,
        1.0423774719238281,
        -2.495269298553467
      ]
    },
    {
      "name": "right_sh_01",
      "rotation": [
        -0.7749795317649841,
        0.17564670741558075,
        0.04531017690896988,
        0.6053939461708069
      ],
      "scale": [
        1.000000238418579,
        -2.614585703497596e-08,
        8.892474312460763e-09
      ],
      "translation": [
        4.598125457763672,
        0.7409515380859375,
        -1.674285888671875
      ]
    },
    {
      "children": [
        26
      ],
      "name": "Bip01 R UpperArm",
      "rotation": [
        -0.13511957228183746,
        -0.021313395351171494,
        -0.05337771028280258,
        0.9891608953475952
      ],
      "scale": [
        1.0,
        -9.01797747587807e-09,
        -7.934673362797184e-09
      ],
      "translation": [
        11.936210632324219,
        0.0,
        -1.52587890625e-05
      ]
    },
    {
      "children": [
        27,
        50
      ],
      "name": "Bip01 R ForeArm",
      "rotation": [
        2.0582130444424251e-10,
        1.1167869296002664e-08,
        -0.02882891707122326,
        0.9995843768119812
      ],
      "scale": [
        0.9999999403953552,
        -3.151394700751098e-09,
        -2.2365163943049993e-08
      ],
      "translation": [
        23.69732666015625,
        0.0,
        0.0
      ]
    },
    {
      "children": [
        28
      ],
      "name": "rh_w_01",
      "rotation": [
        0.827853798866272,
        0.5608291625976563,
        -0.010881793685257435,
        -0.003211149713024497
      ],
      "scale": [
        1.000000238418579,
        4.4030926460436604e-08,
        1.0460504684672856e-09
      ],
      "translation": [
        19.903621673583984,
        3.333932876586914,
        -1.67425537109375
      ]
    },
    {
      "name": "rh_w_02",
      "rotation": [
        -3.9935350165665184e-11,
        -2.0219581564617783e-09,
        -0.021440070122480392,
        0.9997701644897461
      ],
      "scale": [
        0.9999999403953552,
        1.9997997924292576e-08,
        3.4058815767679107e-09
      ],
      "translation": [
        18.202255249023438,
        -5.7220458984375e-06,
        0.0
      ]
    },
    {
      "children": [
        30,
        31
      ],
      "name": "Bip01 L Clavicle",
      "rotation": [
        0.6095110177993774,
        -0.23812922835350037,
        0.743303120136261,
        0.13889282941818237
      ],
      "scale": [
        0.9999999403953552,
        -4.8899877924668544e-08,
        4.1347913537492786e-08
      ],
      "translation": [
        -1.8450775146484375,
        1.0423622131347656,
        2.4952707290649414
      ]
    },
    {
      "name": "left_sh_01",
      "rotation": [
        0.7749796509742737,
        -0.17564767599105835,
        0.04530739411711693,
        0.6053937673568726
      ],
      "scale": [
        0.9999999403953552,
        -3.623275190989261e-08,
        2.44102249524758e-09
      ],
      "translation": [
        4.598121643066406,
        0.7409095764160156,
        1.674285888671875
      ]
    },
    {
      "children": [
        32
      ],
      "name": "Bip01 L UpperArm",
      "rotation": [
        0.13511957228183746,
        0.021313389763236046,
        -0.05337771028280258,
        0.9891608953475952
      ],
      "scale": [
        0.9999999403953552,
        -1.0924727789074495e-09,
        -1.44989922290506e-08
      ],
      "translation": [
        11.936209678649902,
        -3.814697265625e-06,
        1.52587890625e-05
      ]
    },
    {
      "children": [
        33,
        64
      ],
      "name": "Bip01 L ForeArm",
      "rotation": [
        -4.116427199107875e-10,
        -1.4894968813905507e-08,
        -0.028828918933868408,
        0.9995843768119812
      ],
      "scale": [
        1.0,
        5.677027736794571e-10,
        4.47045174212235e-08
      ],
      "translation": [
        23.697330474853516,
        0.0,
        1.52587890625e-05
      ]
    },
    {
      "children": [
        34
      ],
      "name": "lh_w_01",
      "rotation": [
        0.8278523683547974,
        0.5608313083648682,
        0.010881667025387287,
        0.003211786737665534
      ],
      "scale": [
        1.0585888624191284,
        1.0404265005092839e-08,
        1.2511250924163164e-09
      ],
      "translation": [
        19.90363883972168,
        3.334238052368164,
        1.6743011474609375
      ]
    },
    {
      "name": "lh_w_02",
      "rotation": [
        7.368998300449903e-09,
        -1.5974101208460212e-10,
        -0.02144007943570614,
        0.9997701644897461
      ],
      "scale": [
        0.9999998211860657,
        -3.4997891251720148e-09,
        7.447154448669835e-09
      ],
      "translation": [
        18.202251434326172,
        -5.7220458984375e-06,
        0.0
      ]
    },
    {
      "children": [
        36
      ],
      "name": "Bip01 Head",
      "rotation": [
        2.154592117513312e-14,
        -7.363438214724738e-08,
        0.026547618210315704,
        0.9996475577354431
      ],
      "scale": [
        0.9999997019767761,
        -3.8144790104333026e-10,
        2.7763954465543153e-14
      ],
      "translation": [
        8.269378662109375,
        -3.814697265625e-06,
        0.0
      ]
    },
    {
      "children": [
        37
      ],
      "name": "Bip01 Ponytail1",
      "rotation": [
        1.847844143323951e-12,
        -2.772950665530516e-06,
        0.9997656941413879,
        -0.021647104993462563
      ],
      "scale": [
        0.9999997615814209,
        -2.955307665253315e-10,
        1.2464477421123693e-13
      ],
      "translation": [
        6.120635986328125,
        -6.112083435058594,
        -1.6952501027844846e-05
      ]
    },
    {
      "children": [
        38
      ],
      "name": "Bip01 Ponytail11",
      "rotation": [
        1.0716071313730119e-13,
        -5.893472021512025e-08,
        0.021248415112495422,
        0.9997742176055908
      ],
      "scale": [
        1.0,
        2.532436260693771e-09,
        4.905095630342547e-14
      ],
      "translation": [
        11.2379150390625,
        -0.008941650390625,
        -2.4796463549137115e-08
      ]
    },
    {
      "children": [
        39
      ],
      "name": "Bip01 Ponytail12",
      "rotation": [
        6.052797830004633e-14,
        1.8297043880011188e-07,
        -0.0659685730934143,
        0.9978216886520386
      ],
      "scale": [
        1.0000001192092896,
        -9.223982133654829e-10,
        -8.898947795018056e-14
      ],
      "translation": [
        11.236335754394531,
        -0.0088653564453125,
        -2.459273673593998e-08
      ]
    },
    {
      "children": [
        40
      ],
      "name": "Bip01 Ponytail13",
      "rotation": [
        2.2787005030285024e-13,
        1.8297032511327416e-07,
        -0.06596854329109192,
        0.9978216886520386
      ],
      "scale": [
        1.0,
        8.8145484157141e-15,
        -2.3105324077621336e-14
      ],
      "translation": [
        11.236366271972656,
        -0.00887298583984375,
        -2.4607288651168346e-08
      ]
    },
    {
      "name": "Bip01 Ponytail14",
      "rotation": [
        1.1215478551299465e-13,
        1.8297041037840245e-07,
        -0.06596856564283371,
        0.9978216886520386
      ],
      "scale": [
        1.0,
        8.814692411315134e-15,
        -3.3800090818662115e-14
      ],
      "translation": [
        11.236343383789063,
        -0.00887298583984375,
        -2.4607288651168346e-08
      ]
    },
    {
      "children": [
        42
      ],
      "name": "back_bone01",
      "rotation": [
        -4.181228163702144e-08,
        -7.360821996371669e-07,
        0.9823358654975891,
        -0.18712618947029114
      ],
      "scale": [
        1.0,
        5.115908781674894e-13,
        6.570799134832106e-14
      ],
      "translation": [
        2.985992431640625,
        -9.184667587280273,
        -2.2888185412739404e-05
      ]
    },
    {
      "children": [
        43
      ],
      "name": "back_bone02",
      "rotation": [
        2.8352540614052103e-16,
        -1.8089424086393602e-15,
        -0.08938859403133392,
        0.9959968328475952
      ],
      "scale": [
        0.9999998807907104,
        2.5138167103477826e-09,
        3.552713678800501e-15
      ],
      "translation": [
        12.280601501464844,
        3.814697265625e-06,
        5.4569682106375694e-12
      ]
    },
    {
      "children": [
        44
      ],
      "name": "back_bone03",
      "rotation": [
        -1.3562816488795577e-15,
        -3.0056064574402696e-18,
        0.006767942104488611,
        0.9999771118164063
      ],
      "scale": [
        1.0,
        4.386681606534193e-32,
        -7.093079734812402e-15
      ],
      "translation": [
        18.749588012695313,
        8.392333984375e-05,
        1.4592387742595747e-07
      ]
    },
    {
      "children": [
        45
      ],
      "name": "back_bone04",
      "rotation": [
        3.5651260996095654e-15,
        -1.7763127936869932e-15,
        -0.0070373439230024815,
        0.9999752044677734
      ],
      "scale": [
        1.0000001192092896,
        -6.542272279475014e-10,
        -3.5023603229433114e-15
      ],
      "translation": [
        17.04608154296875,
        0.00026702880859375,
        1.2274449545657262e-07
      ]
    },
    {
      "name": "back_bone05",
      "rotation": [
        4.4408497468532634e-16,
        -1.940015228351749e-18,
        0.004368525464087725,
        0.9999904632568359
      ],
      "scale": [
        1.0,
        -5.20763876465935e-10,
        -7.759985639971253e-18
      ],
      "translation": [
        19.994050979614258,
        3.814697265625e-06,
        1.5606860870320816e-07
      ]
    },
    {
      "children": [
        47
      ],
      "name": "Bip01 R Thigh",
      "rotation": [
        -0.005618724040687084,
        0.9973922371864319,
        -0.005683527328073978,
        0.07172740250825882
      ],
      "scale": [
        1.0000001192092896,
        -6.227897086930057e-10,
        2.7660693180386886e-10
      ],
      "translation": [
        -6.183006286621094,
        0.36882495880126953,
        -6.6108808517456055
      ]
    },
    {
      "children": [
        48
      ],
      "name": "Bip01 R Calf",
      "rotation": [
        -4.579940315885267e-10,
        3.7252823048561368e-09,
        -0.0020579069387167692,
        0.9999978542327881
      ],
      "scale": [
        0.9999998807907104,
        2.453210967701125e-10,
        -7.452497285953541e-09
      ],
      "translation": [
        43.9483528137207,
        0.0,
        0.0
      ]
    },
    {
      "children": [
        49
      ],
      "name": "Bip01 R Foot",
      "rotation": [
        0.06650760024785995,
        0.07425322383642197,
        0.03141501173377037,
        0.9945231676101685
      ],
      "scale": [
        1.0,
        -1.6720505868761393e-08,
        1.339680721912373e-08
      ],
      "translation": [
        40.7279167175293,
        4.76837158203125e-07,
        0.0
      ]
    },
    {
      "name": "Bip01 R Toe0",
      "rotation": [
        2.6341777648042353e-09,
        -2.6341775427596303e-09,
        0.7071067094802856,
        0.7071067690849304
      ],
      "scale": [
        1.0000001192092896,
        -1.0587911840678754e-22,
        -7.450581485102248e-09
      ],
      "translation": [
        12.25244140625,
        10.99776554107666,
        0.0
      ]
    },
    {
      "children": [
        51,
        54,
        57,
        74
      ],
      "name": "Bip01 R Hand",
      "rotation": [
        0.7051334381103516,
        0.06748095154762268,
        -0.06658753752708435,
        0.7027085423469543
      ],
      "scale": [
        1.0000001192092896,
        3.7357503757107224e-09,
        -1.458518195107672e-09
      ],
      "translation": [
        22.580636978149414,
        9.5367431640625e-07,
        1.52587890625e-05
      ]
    },
    {
      "children": [
        52
      ],
      "name": "Bip01 R Finger0",
      "rotation": [
        -0.6464375853538513,
        -0.23017531633377075,
        -0.09677518159151077,
        0.7209523916244507
      ],
      "scale": [
        1.0,
        1.5804086217485747e-07,
        -2.560297502895992e-07
      ],
      "translation": [
        0.8650360107421875,
        0.074554443359375,
        1.5068011283874512
      ]
    },
    {
      "children": [
        53
      ],
      "name": "Bip01 R Finger01",
      "rotation": [
        2.0284780799517677e-12,
        -3.725290076417309e-09,
        -0.000181504525244236,
        1.0
      ],
      "scale": [
        1.0,
        -3.725290076417309e-09,
        -2.2351741790771484e-08
      ],
      "translation": [
        4.2113800048828125,
        1.9073486328125e-06,
        0.0
      ]
    },
    {
      "name": "Bip01 R Finger02",
      "rotation": [
        -7.732118945114053e-09,
        -1.1110480876553414e-16,
        0.038529977202415466,
        0.9992574453353882
      ],
      "scale": [
        1.0000001192092896,
        4.457075419850298e-08,
        -1.4305324924634988e-08
      ],
      "translation": [
        4.211374282836914,
        0.0,
        0.0
      ]
    },
    {
      "children": [
        55
      ],
      "name": "Bip01 R Finger1",
      "rotation": [
        -0.00017513516650069505,
        -0.07781512290239334,
        0.11223243176937103,
        0.9906304478645325
      ],
      "scale": [
        0.9999995827674866,
        -5.739314019592712e-07,
        4.2104161934730655e-07
      ],
      "translation": [
        9.00784683227539,
        -0.879119873046875,
        2.3459362983703613
      ]
    },
    {
      "children": [
        56
      ],
      "name": "Bip01 R Finger11",
      "rotation": [
        9.30943794275052e-11,
        -5.026033811361685e-09,
        0.1164020225405693,
        0.9932022094726563
      ],
      "scale": [
        0.9999999403953552,
        -7.154818959520526e-10,
        9.552365121123785e-09
      ],
      "translation": [
        3.5907135009765625,
        0.0,
        9.5367431640625e-07
      ]
    },
    {
      "name": "Bip01 R Finger12",
      "rotation": [
        -1.062263610407399e-09,
        1.1154103418675732e-08,
        0.1164020299911499,
        0.9932021498680115
      ],
      "scale": [
        0.9999999403953552,
        5.798942481760605e-08,
        5.640050204647196e-09
      ],
      "translation": [
        3.590709686279297,
        -1.52587890625e-05,
        0.0
      ]
    },
    {
      "children": [
        58
      ],
      "name": "Bip01 R Finger2",
      "rotation": [
        -0.01070131454616785,
        0.022079061716794968,
        0.12060804665088654,
        0.9923969507217407
      ],
      "scale": [
        0.999999463558197,
        -4.1925332538994553e-07,
        -8.654299676891242e-08
      ],
      "translation": [
        8.93044662475586,
        -0.6634063720703125,
        -0.9564814567565918
      ]
    },
    {
      "children": [
        59
      ],
      "name": "Bip01 R Finger21",
      "rotation": [
        4.218428661939555e-10,
        -2.9266794543403307e-10,
        0.1164020299911499,
        0.9932021498680115
      ],
      "scale": [
        1.0,
        -1.4309620155472658e-09,
        -6.795636275924721e-10
      ],
      "translation": [
        3.7396926879882813,
        0.0,
        0.0
      ]
    },
    {
      "name": "Bip01 R Finger22",
      "rotation": [
        -8.978895960076727e-10,
        6.937436736187408e-10,
        0.1164020225405693,
        0.9932022094726563
      ],
      "scale": [
        1.0,
        4.349206861320454e-08,
        6.557653309258171e-10
      ],
      "translation": [
        3.739696502685547,
        0.0,
        -9.5367431640625e-07
      ]
    },
    {
      "children": [
        61
      ],
      "name": "Bip01 L Thigh",
      "rotation": [
        -0.005618922412395477,
        0.9973922371864319,
        0.005686287768185139,
        -0.07172729820013046
      ],
      "scale": [
        1.0000001192092896,
        -1.0316302256896392e-09,
        7.780489141850921e-09
      ],
      "translation": [
        -6.183006286621094,
        0.3687882423400879,
        6.610882759094238
      ]
    },
    {
      "children": [
        62
      ],
      "name": "Bip01 L Calf",
      "rotation": [
        -2.3283014405350855e-10,
        -7.451044226058912e-09,
        -0.002057907171547413,
        0.9999978542327881
      ],
      "scale": [
        0.9999998211860657,
        -2.2033622149031373e-10,
        -1.8525046947825974e-12
      ],
      "translation": [
        43.94834899902344,
        0.0,
        0.0
      ]
    },
    {
      "children": [
        63
      ],
      "name": "Bip01 L Foot",
      "rotation": [
        -0.06650760769844055,
        -0.0742531344294548,
        0.03141501918435097,
        0.9945231676101685
      ],
      "scale": [
        1.0,
        -1.4292726113751542e-08,
        -1.1089581697376616e-08
      ],
      "translation": [
        40.72792053222656,
        0.0,
        0.0
      ]
    },
    {
      "name": "Bip01 L Toe0",
      "rotation": [
        -2.6341777648042353e-09,
        2.6341777648042353e-09,
        0.7071067094802856,
        0.7071067690849304
      ],
      "scale": [
        1.0,
        0.0,
        7.450580596923828e-09
      ],
      "translation": [
        12.252439498901367,
        10.997763633728027,
        0.0
      ]
    },
    {
      "children": [
        65,
        68,
        71,
        75
      ],
      "name": "Bip01 L Hand",
      "rotation": [
        -0.7049362063407898,
        -0.06950603425502777,
        -0.0645693764090538,
        0.702897310256958
      ],
      "scale": [
        0.9999999403953552,
        -8.178926869106817e-09,
        -2.6706901135042926e-09
      ],
      "translation": [
        22.58063316345215,
        -9.5367431640625e-07,
        -1.52587890625e-05
      ]
    },
    {
      "children": [
        66
      ],
      "name": "Bip01 L Finger0",
      "rotation": [
        0.6464375853538513,
        0.23017531633377075,
        -0.09677518904209137,
        0.7209523916244507
      ],
      "scale": [
        1.0000001192092896,
        1.33342965114025e-07,
        2.3337395305134123e-07
      ],
      "translation": [
        0.8650398254394531,
        0.074554443359375,
        -1.5068011283874512
      ]
    },
    {
      "children": [
        67
      ],
      "name": "Bip01 L Finger01",
      "rotation": [
        3.7239380468179206e-09,
        6.761258219967203e-13,
        -0.00018151430413126945,
        1.0
      ],
      "scale": [
        1.0,
        -1.2107192581822801e-08,
        1.4903864808957223e-08
      ],
      "translation": [
        4.21137809753418,
        -1.9073486328125e-06,
        0.0
      ]
    },
    {
      "name": "Bip01 L Finger02",
      "rotation": [
        7.301512727764248e-09,
        3.722523844729153e-09,
        0.038529954850673676,
        0.9992574453353882
      ],
      "scale": [
        1.0,
        -3.5391316544064466e-08,
        -8.024295006237026e-09
      ],
      "translation": [
        4.211387634277344,
        1.9073486328125e-06,
        0.0
      ]
    },
    {
      "children": [
        69
      ],
      "name": "Bip01 L Finger1",
      "rotation": [
        0.00017513516650069505,
        0.07781512290239334,
        0.11223243176937103,
        0.9906304478645325
      ],
      "scale": [
        0.9999996423721313,
        -5.474205977407109e-07,
        -4.1505487047288625e-07
      ],
      "translation": [
        9.007850646972656,
        -0.879119873046875,
        -2.345937728881836
      ]
    },
    {
      "children": [
        70
      ],
      "name": "Bip01 L Finger11",
      "rotation": [
        -1.7144733410745516e-09,
        -3.793942049412635e-09,
        0.11640201508998871,
        0.9932022094726563
      ],
      "scale": [
        1.0,
        -3.042568152977765e-08,
        2.1760591106811944e-09
      ],
      "translation": [
        3.5907135009765625,
        0.0,
        1.9073486328125e-06
      ]
    },
    {
      "name": "Bip01 L Finger12",
      "rotation": [
        1.4958954075439124e-09,
        -5.455642049234655e-10,
        0.1164020225405693,
        0.9932022094726563
      ],
      "scale": [
        0.9999999403953552,
        2.9710195192933497e-08,
        2.293328416058671e-09
      ],
      "translation": [
        3.5907135009765625,
        1.52587890625e-05,
        9.5367431640625e-07
      ]
    },
    {
      "children": [
        72
      ],
      "name": "Bip01 L Finger2",
      "rotation": [
        0.010701313614845276,
        -0.022079065442085266,
        0.12060804665088654,
        0.9923969507217407
      ],
      "scale": [
        0.999999463558197,
        -4.193959455278673e-07,
        8.991055011620119e-08
      ],
      "translation": [
        8.930450439453125,
        -0.66339111328125,
        0.95648193359375
      ]
    },
    {
      "children": [
        73
      ],
      "name": "Bip01 L Finger21",
      "rotation": [
        -1.0840782438403807e-10,
        3.540879256469509e-10,
        0.1164020299911499,
        0.9932021498680115
      ],
      "scale": [
        1.0000001192092896,
        1.3066394188854247e-08,
        -2.065368098769227e-09
      ],
      "translation": [
        3.739696502685547,
        0.0,
        -9.5367431640625e-07
      ]
    },
    {
      "name": "Bip01 L Finger22",
      "rotation": [
        6.251074657903644e-10,
        -5.166996275285385e-10,
        0.11640205979347229,
        0.9932021498680115
      ],
      "scale": [
        1.0000001192092896,
        5.655846990748614e-08,
        2.553388389614497e-09
      ],
      "translation": [
        3.7396888732910156,
        0.0,
        9.5367431640625e-07
      ]
    },
    {
      "name": "equip_right",
      "rotation": [
        7.497149567825545e-08,
        6.712217555104871e-07,
        -1.8766149878501892e-07,
        1.0
      ],
      "scale": [
        1.0000001192092896,
        2.1420369478164503e-08,
        5.646372258638621e-09
      ],
      "translation": [
        2.4170188903808594,
        -2.9430694580078125,
        -0.0777277946472168
      ]
    },
    {
      "name": "equip_left",
      "rotation": [
        -5.209587925492087e-07,
        -1.1168491482749232e-06,
        -1.9883738389125938e-07,
        1.0
      ],
      "scale": [
        0.9999997615814209,
        -2.1421641349661513e-08,
        -1.710641406305058e-08
      ],
      "translation": [
        -0.5002822875976563,
        -1.132965087890625,
        0.2617053985595703
      ]
    }
  ],
  "scene": 0,
  "scenes": [
    {
      "nodes": [
        0
      ]
    }
  ],
  "skins": [
    {
      "inverseBindMatrices": 8,
      "joints": [
        3,
        4,
        5,
        6,
        7,
        8,
        9,
        10,
        11,
        12,
        13,
        14,
        15,
        16,
        17,
        18,
        19,
        20,
        21,
        22,
        23,
        24,
        25,
        26,
        27,
        28,
        29,
        30,
        31,
        32,
        33,
        34,
        35,
        36,
        37,
        38,
        39,
        40,
        41,
        42,
        43,
        44,
        45,
        46,
        47,
        48,
        49,
        50,
        51,
        52,
        53,
        54,
        55,
        56,
        57,
        58,
        59,
        60,
        61,
        62,
        63,
        64,
        65,
        66,
        67,
        68,
        69,
        70,
        71,
        72,
        73,
        74,
        75
      ],
      "skeleton": 3
    }
  ]
}
