{
  "accessors": [
    {
      "bufferView": 0,
      "componentType": 5126,
      "count": 180,
      "max": [
        162.1473388671875,
        163.74400329589844,
        164.96441650390625
      ],
      "min": [
        -8.700945854187012,
        -9.162352561950684,
        -9.741878509521484
      ],
      "type": "VEC3"
    },
    {
      "bufferView": 1,
      "componentType": 5126,
      "count": 180,
      "type": "VEC3"
    },
    {
      "bufferView": 2,
      "componentType": 5126,
      "count": 180,
      "type": "VEC2"
    },
    {
      "bufferView": 3,
      "componentType": 5123,
      "count": 1020,
      "type": "SCALAR"
    },
    {
      "bufferView": 4,
      "componentType": 5126,
      "count": 4027,
      "max": [
        163.30596923828125,
        163.74400329589844,
        164.96441650390625
      ],
      "min": [
        -77.74430084228516,
        -78.08316040039063,
        -77.32861328125
      ],
      "type": "VEC3"
    },
    {
      "bufferView": 5,
      "componentType": 5126,
      "count": 4027,
      "type": "VEC3"
    },
    {
      "bufferView": 6,
      "componentType": 5126,
      "count": 4027,
      "type": "VEC2"
    },
    {
      "bufferView": 7,
      "componentType": 5123,
      "count": 15234,
      "type": "SCALAR"
    },
    {
      "bufferView": 8,
      "componentType": 5126,
      "count": 93,
      "type": "MAT4"
    }
  ],
  "asset": {
    "generator": "gr2togltf (ANKA2 Project)",
    "version": "2.0"
  },
  "bufferViews": [
    {
      "buffer": 0,
      "byteLength": 2160,
      "target": 34962
    },
    {
      "buffer": 0,
      "byteLength": 2160,
      "byteOffset": 2160,
      "target": 34962
    },
    {
      "buffer": 0,
      "byteLength": 1440,
      "byteOffset": 4320,
      "target": 34962
    },
    {
      "buffer": 0,
      "byteLength": 2040,
      "byteOffset": 5760,
      "target": 34963
    },
    {
      "buffer": 0,
      "byteLength": 48324,
      "byteOffset": 7800,
      "target": 34962
    },
    {
      "buffer": 0,
      "byteLength": 48324,
      "byteOffset": 56124,
      "target": 34962
    },
    {
      "buffer": 0,
      "byteLength": 32216,
      "byteOffset": 104448,
      "target": 34962
    },
    {
      "buffer": 0,
      "byteLength": 30468,
      "byteOffset": 136664,
      "target": 34963
    },
    {
      "buffer": 0,
      "byteLength": 5952,
      "byteOffset": 167132
    }
  ],
  "buffers": [
    {
      "byteLength": 173084,
      "uri": "data:application/octet-stream;base64,"
    }
  ],
  "materials": [
    {
      "name": "default",
      "pbrMetallicRoughness": {
        "baseColorFactor": [
          0.8,
          0.8,
          0.8,
          1.0
        ],
        "metallicFactor": 0.0,
        "roughnessFactor": 0.8
      }
    }
  ],
  "meshes": [
    {
      "name": "Object01",
      "primitives": [
        {
          "attributes": {
            "NORMAL": 1,
            "POSITION": 0,
            "TEXCOORD_0": 2
          },
          "indices": 3,
          "material": 0,
          "mode": 4
        }
      ]
    },
    {
      "name": "shaman_5_1",
      "primitives": [
        {
          "attributes": {
            "NORMAL": 5,
            "POSITION": 4,
            "TEXCOORD_0": 6
          },
          "indices": 7,
          "material": 0,
          "mode": 4
        }
      ]
    }
  ],
  "nodes": [
    {
      "children": [
        1,
        2,
        3
      ]
    },
    {
      "mesh": 0,
      "name": "Object01",
      "skin": 0
    },
    {
      "mesh": 1,
      "name": "shaman_5_1",
      "skin": 0
    },
    {
      "children": [
        4
      ],
      "name": "Bip01",
      "rotation": [
        0.0,
        0.0,
        0.0,
        0.9999999403953552
      ],
      "scale": [
        0.9999997615814209,
        -5.117093408073606e-14,
        0.0
      ],
      "translation": [
        5.960464477539063e-08,
        0.0,
        0.0
      ]
    },
    {
      "children": [
        5
      ],
      "name": "Bip01 Pelvis",
      "rotation": [
        -0.4999993145465851,
        -0.5,
        -0.5,
        0.5000006556510925
      ],
      "scale": [
        1.0,
        6.755036055564761e-20,
        -2.6671148450016795e-18
      ],
      "translation": [
        0.9084558486938477,
        2.4760220185271464e-06,
        0.0
      ]
    },
    {
      "children": [
        6,
        12,
        18,
        24,
        27,
        32,
        37
      ],
      "name": "Bip01 Spine",
      "rotation": [
        -2.0994200440327404e-06,
        -7.13202211954922e-07,
        0.02897808514535427,
        0.9995800256729126
      ],
      "scale": [
        1.0000001192092896,
        -3.724561326023945e-09,
        -1.6604279800061517e-13
      ],
      "translation": [
        6.193992614746094,
        -0.009989559650421143,
        8.603674359619617e-06
      ]
    },
    {
      "children": [
        7
      ],
      "name": "right_bone01",
      "rotation": [
        -0.12857399880886078,
        -0.6953200101852417,
        0.70159912109375,
        -0.08807685971260071
      ],
      "scale": [
        1.0,
        -6.186738943370074e-08,
        -1.0875721656589121e-08
      ],
      "translation": [
        3.5177764892578125,
        -1.6281237602233887,
        -9.51598834991455
      ]
    },
    {
      "children": [
        8
      ],
      "name": "right_bone02",
      "rotation": [
        4.143715925941649e-11,
        2.0767938480048542e-08,
        -0.0019965062383562326,
        0.9999979734420776
      ],
      "scale": [
        0.9999998807907104,
        2.3800161841336376e-10,
        -3.091183213533525e-17
      ],
      "translation": [
        17.058738708496094,
        -9.1552734375e-05,
        -7.152557373046875e-07
      ]
    },
    {
      "children": [
        9
      ],
      "name": "right_bone03",
      "rotation": [
        -1.9893423930730791e-13,
        7.386104228235268e-11,
        0.0024103140458464622,
        0.999997079372406
      ],
      "scale": [
        1.0000001192092896,
        -6.931877294391597e-11,
        1.5025193884758183e-14
      ],
      "translation": [
        17.697650909423828,
        -7.62939453125e-06,
        0.0
      ]
    },
    {
      "children": [
        10
      ],
      "name": "right_bone04",
      "rotation": [
        -1.598696930317934e-14,
        1.4657355904308932e-16,
        -0.005500905681401491,
        0.999984860420227
      ],
      "scale": [
        1.0000001192092896,
        -1.0471501443731768e-10,
        1.1725708699412794e-16
      ],
      "translation": [
        17.533355712890625,
        -0.0001983642578125,
        1.1920928955078125e-07
      ]
    },
    {
      "children": [
        11
      ],
      "name": "right_bone05",
      "rotation": [
        -2.3089188099976142e-14,
        -1.3748116380952243e-14,
        -0.017286883667111397,
        0.9998505711555481
      ],
      "scale": [
        1.0,
        3.3252289810548064e-09,
        1.3130572399438155e-16
      ],
      "translation": [
        17.377689361572266,
        -3.814697265625e-06,
        0.0
      ]
    },
    {
      "name": "right_bone06",
      "rotation": [
        -5.3290705182007514e-15,
        -7.105427357601002e-15,
        5.048709793414476e-29,
        1.0
      ],
      "scale": [
        1.0,
        -5.048709793414476e-28,
        1.4210854715202004e-14
      ],
      "translation": [
        18.117721557617188,
        2.6702880859375e-05,
        -1.1920928955078125e-07
      ]
    },
    {
      "children": [
        13
      ],
      "name": "left_bone01",
      "rotation": [
        0.1285741627216339,
        0.6953187584877014,
        0.7016002535820007,
        -0.0880773589015007
      ],
      "scale": [
        1.0000003576278687,
        -2.7512401246099216e-08,
        -1.3881578553309737e-08
      ],
      "translation": [
        3.5177688598632813,
        -1.6281514167785645,
        9.515978813171387
      ]
    },
    {
      "children": [
        14
      ],
      "name": "left_bone02",
      "rotation": [
        4.14780224056166e-11,
        2.0767920716480148e-08,
        -0.001996536273509264,
        0.9999979734420776
      ],
      "scale": [
        0.9999998807907104,
        1.0352829704629585e-11,
        -1.036665497639467e-14
      ],
      "translation": [
        17.058738708496094,
        -9.1552734375e-05,
        -7.152557373046875e-07
      ]
    },
    {
      "children": [
        15
      ],
      "name": "left_bone03",
      "rotation": [
        -1.7409957210699073e-13,
        7.385400624393412e-11,
        0.0024103145115077496,
        0.999997079372406
      ],
      "scale": [
        1.0,
        2.873310478435087e-10,
        -1.3409897819179496e-14
      ],
      "translation": [
        17.697647094726563,
        -3.814697265625e-06,
        0.0
      ]
    },
    {
      "children": [
        16
      ],
      "name": "left_bone04",
      "rotation": [
        -3.5331165127745886e-15,
        -3.5526598922083503e-15,
        -0.00550092151388526,
        0.999984860420227
      ],
      "scale": [
        1.0,
        -6.557510090487995e-10,
        -7.144082553181899e-15
      ],
      "translation": [
        17.533348083496094,
        -0.000194549560546875,
        0.0
      ]
    },
    {
      "children": [
        17
      ],
      "name": "left_bone05",
      "rotation": [
        1.7146761119394291e-15,
        -3.64430589248595e-15,
        -0.0172868762165308,
        0.9998505711555481
      ],
      "scale": [
        0.9999999403953552,
        -7.446127270327452e-09,
        6.98261478002918e-15
      ],
      "translation": [
        17.377689361572266,
        -3.814697265625e-06,
        0.0
      ]
    },
    {
      "name": "left_bone06",
      "rotation": [
        8.881784197001252e-16,
        -3.552713678800501e-15,
        -7.450580596923828e-09,
        1.0
      ],
      "scale": [
        1.0,
        -1.4901161193847656e-08,
        -7.105426934084528e-15
      ],
      "translation": [
        18.117727279663086,
        2.6702880859375e-05,
        0.0
      ]
    },
    {
      "children": [
        19
      ],
      "name": "back_bone01",
      "rotation": [
        -6.797802143410081e-08,
        -7.410665148199769e-07,
        0.9823358654975891,
        -0.1871262937784195
      ],
      "scale": [
        0.9999998211860657,
        2.771577989335583e-08,
        6.036891906507913e-14
      ],
      "translation": [
        3.0302886962890625,
        -8.421607971191406,
        -1.2403474102029577e-05
      ]
    },
    {
      "children": [
        20
      ],
      "name": "back_bone02",
      "rotation": [
        6.010975133541655e-16,
        -1.8089421968811234e-15,
        -0.08938859403133392,
        0.9959968328475952
      ],
      "scale": [
        1.0000001192092896,
        -8.099476644929382e-09,
        -3.49593938968665e-15
      ],
      "translation": [
        12.280601501464844,
        -3.814697265625e-06,
        5.4569682106375694e-12
      ]
    },
    {
      "children": [
        21
      ],
      "name": "back_bone03",
      "rotation": [
        1.3322371363640867e-15,
        -3.55563848356737e-15,
        0.006767957005649805,
        0.9999771118164063
      ],
      "scale": [
        1.0,
        1.2663907210335198e-29,
        -2.3718563649455715e-17
      ],
      "translation": [
        18.749588012695313,
        8.392333984375e-05,
        1.4592342267860658e-07
      ]
    },
    {
      "children": [
        22
      ],
      "name": "back_bone04",
      "rotation": [
        2.6769701262825425e-15,
        -1.788813729439046e-15,
        -0.007037321571260691,
        0.9999752044677734
      ],
      "scale": [
        1.0000001192092896,
        1.846740538269387e-10,
        -3.5398614361335746e-15
      ],
      "translation": [
        17.046077728271484,
        0.000270843505859375,
        1.2274449545657262e-07
      ]
    },
    {
      "children": [
        23
      ],
      "name": "back_bone05",
      "rotation": [
        4.518450140920374e-16,
        -1.7743998756547378e-15,
        0.004368525464087725,
        0.9999904632568359
      ],
      "scale": [
        1.0,
        6.310887241768095e-30,
        3.552713467042264e-15
      ],
      "translation": [
        19.994049072265625,
        7.62939453125e-06,
        1.560683813295327e-07
      ]
    },
    {
      "name": "back_bone06",
      "rotation": [
        3.108624680708675e-15,
        1.7763568394002505e-15,
        1.4901161193847656e-08,
        1.0
      ],
      "scale": [
        1.0,
        -1.2621775988168958e-29,
        3.552713467042264e-15
      ],
      "translation": [
        18.22533416748047,
        -3.814697265625e-06,
        1.3542285159928724e-07
      ]
    },
    {
      "children": [
        25
      ],
      "name": "front_bone01",
      "rotation": [
        1.228702899425116e-07,
        -6.800131586714997e-07,
        0.998245358467102,
        0.0592135451734066
      ],
      "scale": [
        1.000000238418579,
        7.033913451692797e-10,
        -3.1031695767701206e-14
      ],
      "translation": [
        4.354301452636719,
        7.45194149017334,
        1.0518007911741734e-05
      ]
    },
    {
      "children": [
        26
      ],
      "name": "front_bone02",
      "rotation": [
        -5.474692104855355e-16,
        3.609533072418793e-15,
        -0.06419984996318817,
        0.9979370832443237
      ],
      "scale": [
        1.000000238418579,
        1.4281795301940292e-08,
        -7.0769759444192035e-15
      ],
      "translation": [
        16.666854858398438,
        9.5367431640625e-07,
        1.2019336281809956e-07
      ]
    },
    {
      "name": "front_bone03",
      "rotation": [
        -4.440892098500626e-16,
        3.308722844642563e-24,
        3.725290298461914e-09,
        1.0
      ],
      "scale": [
        1.0,
        -7.450580596923828e-09,
        -7.888608111814637e-31
      ],
      "translation": [
        14.756553649902344,
        -3.814697265625e-06,
        1.8777882360154763e-07
      ]
    },
    {
      "children": [
        28
      ],
      "name": "Bip01 R Thigh",
      "rotation": [
        -0.005618722178041935,
        0.9973922371864319,
        -0.005683479830622673,
        0.07172735035419464
      ],
      "scale": [
        1.0000001192092896,
        3.558844996476296e-09,
        -9.571228254401376e-10
      ],
      "translation": [
        -6.183006286621094,
        0.36882495880126953,
        -6.6108808517456055
      ]
    },
    {
      "children": [
        29
      ],
      "name": "Bip01 R Calf",
      "rotation": [
        7.061567441901673e-10,
        3.7248031325987085e-09,
        -0.0020579088013619184,
        0.9999978542327881
      ],
      "scale": [
        0.9999999403953552,
        3.7252587681280147e-09,
        -7.448664351983325e-09
      ],
      "translation": [
        43.94834518432617,
        4.76837158203125e-07,
        -1.9073486328125e-06
      ]
    },
    {
      "children": [
        30
      ],
      "name": "Bip01 R Foot",
      "rotation": [
        0.06650763750076294,
        0.07425316423177719,
        0.03141501545906067,
        0.9945231676101685
      ],
      "scale": [
        1.0,
        -1.234354929380288e-08,
        2.9496771247750075e-08
      ],
      "translation": [
        40.72791290283203,
        4.76837158203125e-07,
        1.9073486328125e-06
      ]
    },
    {
      "children": [
        31
      ],
      "name": "Bip01 R Toe0",
      "rotation": [
        2.6341777648042353e-09,
        -2.6341775427596303e-09,
        0.7071067094802856,
        0.7071067690849304
      ],
      "scale": [
        1.0000001192092896,
        -1.0587911840678754e-22,
        -7.450581485102248e-09
      ],
      "translation": [
        12.25244140625,
        10.997764587402344,
        0.0
      ]
    },
    {
      "name": "Bip01 R Toe0Nub",
      "rotation": [
        -1.1102230246251565e-16,
        -3.7252898543727042e-09,
        8.88178366760566e-16,
        1.0
      ],
      "scale": [
        1.0000001192092896,
        -1.0587911840678754e-22,
        -7.450581485102248e-09
      ],
      "translation": [
        8.298245429992676,
        0.0,
        0.0
      ]
    },
    {
      "children": [
        33
      ],
      "name": "Bip01 L Thigh",
      "rotation": [
        -0.005618920549750328,
        0.9973922371864319,
        0.005686240270733833,
        -0.07172724604606628
      ],
      "scale": [
        1.0000001192092896,
        2.5299913275489416e-09,
        4.934844755055678e-10
      ],
      "translation": [
        -6.183006286621094,
        0.3687882423400879,
        6.610882759094238
      ]
    },
    {
      "children": [
        34
      ],
      "name": "Bip01 L Calf",
      "rotation": [
        -1.5332636202347594e-11,
        -7.449607153375837e-09,
        -0.002057911129668355,
        0.9999978542327881
      ],
      "scale": [
        0.9999997615814209,
        -4.4067149929105653e-10,
        1.490307610652053e-08
      ],
      "translation": [
        43.94833755493164,
        4.76837158203125e-07,
        -1.9073486328125e-06
      ]
    },
    {
      "children": [
        35
      ],
      "name": "Bip01 L Foot",
      "rotation": [
        -0.06650764495134354,
        -0.07425308227539063,
        0.03141501918435097,
        0.9945231676101685
      ],
      "scale": [
        0.9999999403953552,
        -1.7187934631124335e-08,
        -2.8242801874966972e-08
      ],
      "translation": [
        40.72791290283203,
        0.0,
        -1.9073486328125e-06
      ]
    },
    {
      "children": [
        36
      ],
      "name": "Bip01 L Toe0",
      "rotation": [
        -2.6341777648042353e-09,
        2.6341777648042353e-09,
        0.7071067094802856,
        0.7071067690849304
      ],
      "scale": [
        1.0,
        0.0,
        7.450580596923828e-09
      ],
      "translation": [
        12.252439498901367,
        10.997764587402344,
        0.0
      ]
    },
    {
      "name": "Bip01 L Toe0Nub",
      "rotation": [
        0.0,
        3.725290298461914e-09,
        0.0,
        1.0
      ],
      "scale": [
        1.0,
        0.0,
        -7.450580596923828e-09
      ],
      "translation": [
        8.298245429992676,
        0.0,
        1.9073486328125e-06
      ]
    },
    {
      "children": [
        38
      ],
      "name": "Bip01 Spine1",
      "rotation": [
        3.2099401126505986e-14,
        2.445134725803655e-07,
        -0.08815741539001465,
        0.9961065649986267
      ],
      "scale": [
        1.0,
        -1.0468244937555937e-08,
        -3.4335168307706235e-14
      ],
      "translation": [
        12.570350646972656,
        -0.0077838897705078125,
        -2.1591404220089316e-08
      ]
    },
    {
      "children": [
        39,
        41,
        43
      ],
      "name": "Bip01 Spine2",
      "rotation": [
        4.449198103581402e-15,
        1.693988309625638e-07,
        -0.06107543781399727,
        0.9981331825256348
      ],
      "scale": [
        1.0,
        6.9974137161671335e-15,
        -1.540582169213406e-14
      ],
      "translation": [
        9.930061340332031,
        -0.012085914611816406,
        -3.352033672854304e-08
      ]
    },
    {
      "children": [
        40
      ],
      "name": "ru_bone01",
      "rotation": [
        -0.13882531225681305,
        0.10431170463562012,
        0.7873218655586243,
        0.5915833115577698
      ],
      "scale": [
        0.9999999403953552,
        4.0001521539601015e-10,
        7.657412481876236e-10
      ],
      "translation": [
        3.6871795654296875,
        4.92872428894043,
        -5.072078704833984
      ]
    },
    {
      "name": "ru_bone02",
      "rotation": [
        1.0337814775090081e-16,
        1.703807939179569e-08,
        -8.731618805768449e-08,
        1.0
      ],
      "scale": [
        0.45864197611808777,
        3.3253132845499807e-15,
        -9.895322339303902e-10
      ],
      "translation": [
        8.65185546875,
        1.52587890625e-05,
        9.5367431640625e-07
      ]
    },
    {
      "children": [
        42
      ],
      "name": "lu_bone01",
      "rotation": [
        0.13882620632648468,
        -0.10431292653083801,
        0.7873217463493347,
        0.5915830731391907
      ],
      "scale": [
        0.9999998211860657,
        1.5914915607595503e-08,
        1.0053329191350713e-07
      ],
      "translation": [
        3.6871795654296875,
        4.928712844848633,
        5.072098255157471
      ]
    },
    {
      "name": "lu_bone02",
      "rotation": [
        -5.076532527681366e-10,
        -7.281635294731359e-09,
        -8.731617384682977e-08,
        1.0
      ],
      "scale": [
        0.45864206552505493,
        5.954107988440961e-15,
        1.127773341380589e-08
      ],
      "translation": [
        8.651857376098633,
        0.0,
        1.9073486328125e-06
      ]
    },
    {
      "children": [
        44,
        65,
        86
      ],
      "name": "Bip01 Neck",
      "rotation": [
        -1.4723102972251725e-14,
        -7.252514251376851e-07,
        0.2614837884902954,
        0.9652078747749329
      ],
      "scale": [
        1.000000238418579,
        3.8805957558452064e-08,
        -3.272489430047182e-14
      ],
      "translation": [
        18.59966278076172,
        -1.1482963562011719,
        -1.1849188013002276e-06
      ]
    },
    {
      "children": [
        45,
        47
      ],
      "name": "Bip01 R Clavicle",
      "rotation": [
        -0.609510600566864,
        0.23812735080718994,
        0.7433037161827087,
        0.13889476656913757
      ],
      "scale": [
        1.0,
        1.1427184531953571e-08,
        -8.539746687574734e-10
      ],
      "translation": [
        -1.845062255859375,
        1.0423736572265625,
        -2.495269298553467
      ]
    },
    {
      "children": [
        46
      ],
      "name": "right_sh_01",
      "rotation": [
        -0.7749796509742737,
        0.1756466031074524,
        0.045310262590646744,
        0.6053939461708069
      ],
      "scale": [
        1.0000001192092896,
        -3.6415941373491023e-09,
        1.0654925830522188e-08
      ],
      "translation": [
        4.489248275756836,
        0.011575698852539063,
        -1.4733428955078125
      ]
    },
    {
      "name": "right_sh_02",
      "rotation": [
        -7.993605777301127e-15,
        -1.9761969838327786e-14,
        4.614836295542919e-28,
        1.0
      ],
      "scale": [
        1.0,
        5.821793480531067e-28,
        -7.593925488436071e-14
      ],
      "translation": [
        24.970548629760742,
        -1.52587890625e-05,
        4.76837158203125e-07
      ]
    },
    {
      "children": [
        48
      ],
      "name": "Bip01 R UpperArm",
      "rotation": [
        -0.1351195126771927,
        -0.021313443779945374,
        -0.05337775871157646,
        0.9891608953475952
      ],
      "scale": [
        1.0,
        -2.3296081508306088e-08,
        -1.7741440316854096e-08
      ],
      "translation": [
        11.936211585998535,
        0.0,
        -1.52587890625e-05
      ]
    },
    {
      "children": [
        49,
        52
      ],
      "name": "Bip01 R ForeArm",
      "rotation": [
        2.3273385996169793e-10,
        -6.7122561848986795e-12,
        -0.028828922659158707,
        0.9995843768119812
      ],
      "scale": [
        1.0,
        -6.586643230832578e-09,
        0.0
      ],
      "translation": [
        23.697328567504883,
        -4.76837158203125e-07,
        -1.52587890625e-05
      ]
    },
    {
      "children": [
        50
      ],
      "name": "rh_w_01",
      "rotation": [
        0.827853798866272,
        0.5608291625976563,
        -0.010881846770644188,
        -0.0032111203763633966
      ],
      "scale": [
        1.0000005960464478,
        8.671037932117542e-08,
        -1.246919101305366e-08
      ],
      "translation": [
        19.923721313476563,
        2.5698394775390625,
        -1.6744384765625
      ]
    },
    {
      "children": [
        51
      ],
      "name": "rh_w_02",
      "rotation": [
        3.7044667333674397e-09,
        -1.0109789672085867e-09,
        -0.021440062671899796,
        0.9997701644897461
      ],
      "scale": [
        0.9999999403953552,
        -1.2332194820885434e-08,
        1.862645149230957e-09
      ],
      "translation": [
        18.20225715637207,
        1.9073486328125e-06,
        0.0
      ]
    },
    {
      "name": "rh_w_03",
      "rotation": [
        4.6565302909584716e-05,
        -0.004037187434732914,
        0.0049220481887459755,
        0.9999797344207764
      ],
      "scale": [
        0.5082592964172363,
        -1.0967508012882377e-09,
        -2.655142772312047e-09
      ],
      "translation": [
        13.761604309082031,
        0.0,
        1.52587890625e-05
      ]
    },
    {
      "children": [
        53,
        57,
        61,
        94
      ],
      "name": "Bip01 R Hand",
      "rotation": [
        0.7051334381103516,
        0.06748095154762268,
        -0.06658753007650375,
        0.7027085423469543
      ],
      "scale": [
        1.0000001192092896,
        -1.0898546065618575e-08,
        -9.223217745102374e-10
      ],
      "translation": [
        22.58063316345215,
        0.0,
        1.52587890625e-05
      ]
    },
    {
      "children": [
        54
      ],
      "name": "Bip01 R Finger2",
      "rotation": [
        -0.01070131454616785,
        0.022079061716794968,
        0.12060805410146713,
        0.9923969507217407
      ],
      "scale": [
        0.9999995231628418,
        -4.3382192416174803e-07,
        -8.806561169194538e-08
      ],
      "translation": [
        8.930442810058594,
        -0.663421630859375,
        -0.9564809799194336
      ]
    },
    {
      "children": [
        55
      ],
      "name": "Bip01 R Finger21",
      "rotation": [
        8.165837450668789e-10,
        0.0,
        0.1164020225405693,
        0.9932022094726563
      ],
      "scale": [
        1.0000001192092896,
        1.2350907852010096e-08,
        -2.0527493038713374e-09
      ],
      "translation": [
        3.7396926879882813,
        1.52587890625e-05,
        9.5367431640625e-07
      ]
    },
    {
      "children": [
        56
      ],
      "name": "Bip01 R Finger22",
      "rotation": [
        -1.0840783132293197e-10,
        4.62495819419928e-10,
        0.1164020299911499,
        0.9932021498680115
      ],
      "scale": [
        0.9999999403953552,
        5.798942481760605e-08,
        -1.850026243310765e-09
      ],
      "translation": [
        3.7396926879882813,
        0.0,
        -9.5367431640625e-07
      ]
    },
    {
      "name": "Bip01 R Finger2Nub",
      "rotation": [
        0.0,
        -4.656612873077393e-10,
        2.168404344971009e-19,
        1.0
      ],
      "scale": [
        1.0,
        0.0,
        9.313225746154785e-10
      ],
      "translation": [
        3.739696502685547,
        0.0,
        0.0
      ]
    },
    {
      "children": [
        58
      ],
      "name": "Bip01 R Finger1",
      "rotation": [
        -0.00017513516650069505,
        -0.07781513035297394,
        0.11223243176937103,
        0.9906304478645325
      ],
      "scale": [
        0.9999995827674866,
        -5.476859996633721e-07,
        4.210027952922246e-07
      ],
      "translation": [
        9.007843017578125,
        -0.8791351318359375,
        2.345937728881836
      ]
    },
    {
      "children": [
        59
      ],
      "name": "Bip01 R Finger11",
      "rotation": [
        -1.0640264225258989e-09,
        -6.13528605697411e-09,
        0.11640201508998871,
        0.9932022094726563
      ],
      "scale": [
        1.0,
        -1.5928323549019296e-08,
        1.4137583548290422e-08
      ],
      "translation": [
        3.5907211303710938,
        1.52587890625e-05,
        9.5367431640625e-07
      ]
    },
    {
      "children": [
        60
      ],
      "name": "Bip01 R Finger12",
      "rotation": [
        -3.5950837862230856e-09,
        1.8788475220077316e-09,
        0.1164020225405693,
        0.9932022094726563
      ],
      "scale": [
        0.9999999403953552,
        5.798942481760605e-08,
        1.760761669800104e-08
      ],
      "translation": [
        3.590709686279297,
        -1.52587890625e-05,
        -9.5367431640625e-07
      ]
    },
    {
      "name": "Bip01 R Finger1Nub",
      "rotation": [
        -2.3283064365386963e-09,
        4.6566128730773926e-09,
        7.450580596923828e-09,
        1.0
      ],
      "scale": [
        1.0,
        1.4901161193847656e-08,
        -7.450580596923828e-09
      ],
      "translation": [
        3.5907249450683594,
        0.0,
        -9.5367431640625e-07
      ]
    },
    {
      "children": [
        62
      ],
      "name": "Bip01 R Finger0",
      "rotation": [
        -0.6464375853538513,
        -0.23017531633377075,
        -0.09677518904209137,
        0.7209523916244507
      ],
      "scale": [
        1.0000001192092896,
        1.843139472157418e-07,
        -2.6138042130696704e-07
      ],
      "translation": [
        0.8650360107421875,
        0.074554443359375,
        1.5068016052246094
      ]
    },
    {
      "children": [
        63
      ],
      "name": "Bip01 R Finger01",
      "rotation": [
        3.7266425501059075e-09,
        -6.762368442991828e-13,
        -0.00018151244148612022,
        1.0
      ],
      "scale": [
        1.0,
        8.381902283360887e-09,
        -1.4901161193847656e-08
      ],
      "translation": [
        4.211383819580078,
        1.9073486328125e-06,
        0.0
      ]
    },
    {
      "children": [
        64
      ],
      "name": "Bip01 R Finger02",
      "rotation": [
        -2.870706727886585e-10,
        0.0,
        0.038529977202415466,
        0.9992574453353882
      ],
      "scale": [
        1.0000001192092896,
        1.944663807762481e-08,
        -1.4879040222126605e-08
      ],
      "translation": [
        4.211374282836914,
        -3.814697265625e-06,
        0.0
      ]
    },
    {
      "name": "Bip01 R Finger0Nub",
      "rotation": [
        -3.725290076417309e-09,
        0.0,
        4.656612873077393e-10,
        1.0
      ],
      "scale": [
        1.0,
        9.31322685637781e-10,
        1.4901161193847656e-08
      ],
      "translation": [
        4.83111572265625,
        1.9073486328125e-06,
        -1.52587890625e-05
      ]
    },
    {
      "children": [
        66,
        68
      ],
      "name": "Bip01 L Clavicle",
      "rotation": [
        0.6095109581947327,
        -0.2381293922662735,
        0.7433030605316162,
        0.13889306783676147
      ],
      "scale": [
        1.0,
        -7.017855629953829e-09,
        5.706258576765322e-09
      ],
      "translation": [
        -1.845062255859375,
        1.0423583984375,
        2.4952707290649414
      ]
    },
    {
      "children": [
        67
      ],
      "name": "left_sh_01",
      "rotation": [
        0.7749797701835632,
        -0.1756475418806076,
        0.045307520776987076,
        0.6053937673568726
      ],
      "scale": [
        0.9999999403953552,
        1.8220509900856996e-07,
        -3.1166948133432015e-08
      ],
      "translation": [
        4.48924446105957,
        0.011537551879882813,
        1.4733428955078125
      ]
    },
    {
      "name": "left_sh_02",
      "rotation": [
        1.6543612251060553e-23,
        3.9968028886505635e-15,
        3.725290298461914e-09,
        1.0
      ],
      "scale": [
        1.0,
        7.450580596923828e-09,
        8.881784197001252e-16
      ],
      "translation": [
        24.970552444458008,
        1.52587890625e-05,
        0.0
      ]
    },
    {
      "children": [
        69
      ],
      "name": "Bip01 L UpperArm",
      "rotation": [
        0.1351195126771927,
        0.021313440054655075,
        -0.05337775871157646,
        0.9891608953475952
      ],
      "scale": [
        0.9999998807907104,
        -6.282715681038553e-09,
        -9.216409857515373e-10
      ],
      "translation": [
        11.936210632324219,
        0.0,
        1.52587890625e-05
      ]
    },
    {
      "children": [
        70,
        73
      ],
      "name": "Bip01 L ForeArm",
      "rotation": [
        -4.475260717562435e-10,
        -7.447483518774334e-09,
        -0.028828920796513557,
        0.9995843768119812
      ],
      "scale": [
        1.0,
        8.515534943853709e-10,
        1.4887741706104407e-08
      ],
      "translation": [
        23.697330474853516,
        0.0,
        3.0517578125e-05
      ]
    },
    {
      "children": [
        71
      ],
      "name": "lh_w_01",
      "rotation": [
        0.8278522491455078,
        0.5608312487602234,
        0.010881937108933926,
        0.0032117515802383423
      ],
      "scale": [
        1.0585893392562866,
        -3.080105059893867e-08,
        1.5209750126032873e-09
      ],
      "translation": [
        19.923742294311523,
        2.5701589584350586,
        1.6744842529296875
      ]
    },
    {
      "children": [
        72
      ],
      "name": "lh_w_02",
      "rotation": [
        3.844239593320253e-09,
        1.7823464926181032e-09,
        -0.021440064534544945,
        0.9997701644897461
      ],
      "scale": [
        0.9999999403953552,
        1.1165596447426651e-08,
        -1.1172446967577798e-08
      ],
      "translation": [
        18.202255249023438,
        -1.9073486328125e-06,
        -1.52587890625e-05
      ]
    },
    {
      "name": "lh_w_03",
      "rotation": [
        4.656161036109552e-05,
        -0.004037186503410339,
        0.004922041203826666,
        0.9999797344207764
      ],
      "scale": [
        0.5082592368125916,
        6.177411027152857e-09,
        -1.2570932073074914e-09
      ],
      "translation": [
        13.7615966796875,
        1.9073486328125e-06,
        0.0
      ]
    },
    {
      "children": [
        74,
        78,
        82,
        95
      ],
      "name": "Bip01 L Hand",
      "rotation": [
        -0.7049362063407898,
        -0.06950603425502777,
        -0.0645693764090538,
        0.702897310256958
      ],
      "scale": [
        0.9999999403953552,
        -8.183318911392234e-09,
        2.214899930130798e-10
      ],
      "translation": [
        22.580629348754883,
        -9.5367431640625e-07,
        -1.52587890625e-05
      ]
    },
    {
      "children": [
        75
      ],
      "name": "Bip01 L Finger2",
      "rotation": [
        0.010701313614845276,
        -0.022079065442085266,
        0.12060804665088654,
        0.9923969507217407
      ],
      "scale": [
        0.9999994039535522,
        -3.9043041510922194e-07,
        8.957307073842458e-08
      ],
      "translation": [
        8.930450439453125,
        -0.6634063720703125,
        0.9564828872680664
      ]
    },
    {
      "children": [
        76
      ],
      "name": "Bip01 L Finger21",
      "rotation": [
        1.2195877641119068e-10,
        -3.468718368093704e-10,
        0.1164020299911499,
        0.9932021498680115
      ],
      "scale": [
        1.0,
        7.105582255917398e-08,
        2.0765476005379924e-09
      ],
      "translation": [
        3.739696502685547,
        0.0,
        0.0
      ]
    },
    {
      "children": [
        77
      ],
      "name": "Bip01 L Finger22",
      "rotation": [
        5.4203915661465984e-11,
        0.0,
        0.1164020225405693,
        0.9932022094726563
      ],
      "scale": [
        0.9999999403953552,
        2.756374684054208e-08,
        9.187036686952865e-10
      ],
      "translation": [
        3.73968505859375,
        0.0,
        -9.5367431640625e-07
      ]
    },
    {
      "name": "Bip01 L Finger2Nub",
      "rotation": [
        2.3283062977608182e-10,
        6.984919309616089e-10,
        0.0,
        1.0
      ],
      "scale": [
        1.0,
        2.980232594040899e-08,
        1.3969838619232178e-09
      ],
      "translation": [
        3.739696502685547,
        1.52587890625e-05,
        -1.9073486328125e-06
      ]
    },
    {
      "children": [
        79
      ],
      "name": "Bip01 L Finger1",
      "rotation": [
        0.0001751342206262052,
        0.07781513035297394,
        0.11223243176937103,
        0.9906304478645325
      ],
      "scale": [
        0.9999995827674866,
        -5.471703161674668e-07,
        -4.345196202848456e-07
      ],
      "translation": [
        9.007843017578125,
        -0.8791351318359375,
        -2.3459367752075195
      ]
    },
    {
      "children": [
        80
      ],
      "name": "Bip01 L Finger11",
      "rotation": [
        -6.251075213015156e-10,
        5.604153585636595e-09,
        0.1164020225405693,
        0.9932022094726563
      ],
      "scale": [
        1.0,
        -1.5928321772662457e-08,
        -2.6921969098481213e-09
      ],
      "translation": [
        3.5907135009765625,
        0.0,
        1.9073486328125e-06
      ]
    },
    {
      "children": [
        81
      ],
      "name": "Bip01 L Finger12",
      "rotation": [
        8.978895404965215e-10,
        -2.7894071497058803e-09,
        0.11640200018882751,
        0.9932022094726563
      ],
      "scale": [
        1.0000001192092896,
        2.8279227848315713e-08,
        -1.6198727081917497e-10
      ],
      "translation": [
        3.5907135009765625,
        0.0,
        9.5367431640625e-07
      ]
    },
    {
      "name": "Bip01 L Finger1Nub",
      "rotation": [
        -2.7939675018018306e-09,
        -9.313225746154785e-09,
        0.0,
        1.0
      ],
      "scale": [
        1.0,
        2.9802322387695313e-08,
        -3.725288078015865e-09
      ],
      "translation": [
        3.5907211303710938,
        0.0,
        -9.5367431640625e-07
      ]
    },
    {
      "children": [
        83
      ],
      "name": "Bip01 L Finger0",
      "rotation": [
        0.6464375853538513,
        0.23017531633377075,
        -0.09677518904209137,
        0.7209523916244507
      ],
      "scale": [
        1.0000001192092896,
        1.33342965114025e-07,
        2.3699669782217825e-07
      ],
      "translation": [
        0.8650436401367188,
        0.074554443359375,
        -1.5068001747131348
      ]
    },
    {
      "children": [
        84
      ],
      "name": "Bip01 L Finger01",
      "rotation": [
        -6.760703108454891e-13,
        -1.1175870895385742e-08,
        -0.0001814994029700756,
        1.0
      ],
      "scale": [
        1.0,
        -1.2085556555518906e-08,
        7.450581485102248e-09
      ],
      "translation": [
        4.21137809753418,
        -1.9073486328125e-06,
        0.0
      ]
    },
    {
      "children": [
        85
      ],
      "name": "Bip01 L Finger02",
      "rotation": [
        -3.722523844729153e-09,
        1.4353528088317802e-10,
        0.03852996975183487,
        0.9992574453353882
      ],
      "scale": [
        1.0000001192092896,
        2.403635690484407e-08,
        5.737151864693146e-10
      ],
      "translation": [
        4.2113800048828125,
        0.0,
        -1.52587890625e-05
      ]
    },
    {
      "name": "Bip01 L Finger0Nub",
      "rotation": [
        -3.725290298461914e-09,
        3.725290298461914e-09,
        -7.450580596923828e-09,
        1.0
      ],
      "scale": [
        1.0,
        2.0489096641540527e-08,
        7.450580152834618e-09
      ],
      "translation": [
        4.83111572265625,
        0.0,
        0.0
      ]
    },
    {
      "children": [
        87,
        93
      ],
      "name": "Bip01 Head",
      "rotation": [
        7.929786926923199e-14,
        -7.363339449284467e-08,
        0.026547251269221306,
        0.9996475577354431
      ],
      "scale": [
        0.9999999403953552,
        -5.755562936208961e-16,
        7.975309865640434e-14
      ],
      "translation": [
        8.269393920898438,
        0.0,
        0.0
      ]
    },
    {
      "children": [
        88
      ],
      "name": "Bip01 Ponytail1",
      "rotation": [
        1.8407369812428742e-12,
        -2.772950665530516e-06,
        0.9997656941413879,
        -0.021647075191140175
      ],
      "scale": [
        0.9999997615814209,
        -2.955201083842951e-10,
        6.406047838459356e-14
      ],
      "translation": [
        6.120635986328125,
        -6.112087249755859,
        -1.6952501027844846e-05
      ]
    },
    {
      "children": [
        89
      ],
      "name": "Bip01 Ponytail11",
      "rotation": [
        -6.396328643609381e-14,
        -5.893446441973538e-08,
        0.021248385310173035,
        0.9997742176055908
      ],
      "scale": [
        1.0,
        2.5324327079800923e-09,
        5.3692537612184954e-15
      ],
      "translation": [
        11.2379150390625,
        -0.00894927978515625,
        -2.482556737959385e-08
      ]
    },
    {
      "children": [
        90
      ],
      "name": "Bip01 Ponytail12",
      "rotation": [
        -5.073669078186488e-14,
        1.8297042458925716e-07,
        -0.0659685730934143,
        0.9978216886520386
      ],
      "scale": [
        1.0000001192092896,
        -9.223982133654829e-10,
        -1.7678381274057603e-13
      ],
      "translation": [
        11.236335754394531,
        -0.0088653564453125,
        -2.4578184820711613e-08
      ]
    },
    {
      "children": [
        91
      ],
      "name": "Bip01 Ponytail13",
      "rotation": [
        1.2016584016900922e-13,
        1.8297042458925716e-07,
        -0.06596856564283371,
        0.9978216886520386
      ],
      "scale": [
        0.9999999403953552,
        -6.924521400719641e-09,
        -5.201924435367482e-14
      ],
      "translation": [
        11.236343383789063,
        -0.00887298583984375,
        -2.4621840566396713e-08
      ]
    },
    {
      "children": [
        92
      ],
      "name": "Bip01 Ponytail14",
      "rotation": [
        -8.901173839955087e-16,
        1.8297041037840245e-07,
        -0.06596856564283371,
        0.9978216886520386
      ],
      "scale": [
        1.0000001192092896,
        -9.223964370086435e-10,
        -2.6781711342984543e-14
      ],
      "translation": [
        11.236343383789063,
        -0.00887298583984375,
        -2.459273673593998e-08
      ]
    },
    {
      "name": "Bip01 Ponytail1Nub",
      "rotation": [
        0.7073882222175598,
        0.7068251967430115,
        9.80225195235107e-07,
        -9.810059964365792e-07
      ],
      "scale": [
        1.0,
        3.670962839263936e-11,
        -5.371667195254448e-13
      ],
      "translation": [
        11.237533569335938,
        1.9073486328125e-06,
        7.275957614183426e-12
      ]
    },
    {
      "name": "Bip01 HeadNub",
      "rotation": [
        -6.394884621840902e-14,
        -2.842170943040401e-14,
        -2.0194839173657902e-27,
        1.0
      ],
      "scale": [
        0.9999999403953552,
        -6.462348535570529e-27,
        5.684341886080802e-14
      ],
      "translation": [
        20.161117553710938,
        -7.62939453125e-06,
        0.0
      ]
    },
    {
      "name": "equip_right",
      "rotation": [
        7.543712854385376e-08,
        -4.0054871419670235e-07,
        2.8172499355605396e-07,
        1.0
      ],
      "scale": [
        1.0000003576278687,
        -2.7940070257415073e-09,
        -1.3390044628636133e-09
      ],
      "translation": [
        5.946506500244141,
        0.677276611328125,
        -0.03371429443359375
      ]
    },
    {
      "name": "equip_left",
      "rotation": [
        0.026893114671111107,
        0.9994118809700012,
        -0.000617685669567436,
        0.021266143769025803
      ],
      "scale": [
        1.0000004768371582,
        5.405750957976352e-09,
        7.255378520198974e-10
      ],
      "translation": [
        5.946643829345703,
        0.6773834228515625,
        -0.00022029876708984375
      ]
    }
  ],
  "scene": 0,
  "scenes": [
    {
      "nodes": [
        0
      ]
    }
  ],
  "skins": [
    {
      "inverseBindMatrices": 8,
      "joints": [
        3,
        4,
        5,
        6,
        7,
        8,
        9,
        10,
        11,
        12,
        13,
        14,
        15,
        16,
        17,
        18,
        19,
        20,
        21,
        22,
        23,
        24,
        25,
        26,
        27,
        28,
        29,
        30,
        31,
        32,
        33,
        34,
        35,
        36,
        37,
        38,
        39,
        40,
        41,
        42,
        43,
        44,
        45,
        46,
        47,
        48,
        49,
        50,
        51,
        52,
        53,
        54,
        55,
        56,
        57,
        58,
        59,
        60,
        61,
        62,
        63,
        64,
        65,
        66,
        67,
        68,
        69,
        70,
        71,
        72,
        73,
        74,
        75,
        76,
        77,
        78,
        79,
        80,
        81,
        82,
        83,
        84,
        85,
        86,
        87,
        88,
        89,
        90,
        91,
        92,
        93,
        94,
        95
      ],
      "skeleton": 3
    }
  ]
}
