{
  "accessors": [
    {
      "bufferView": 0,
      "componentType": 5126,
      "count": 180,
      "max": [
        8.649505615234375,
        2.8450708389282227,
        165.3986053466797
      ],
      "min": [
        -8.649520874023438,
        -9.87231159210205,
        147.49720764160156
      ],
      "type": "VEC3"
    },
    {
      "bufferView": 1,
      "componentType": 5126,
      "count": 180,
      "type": "VEC3"
    },
    {
      "bufferView": 2,
      "componentType": 5126,
      "count": 180,
      "type": "VEC2"
    },
    {
      "bufferView": 3,
      "componentType": 5123,
      "count": 1020,
      "type": "SCALAR"
    },
    {
      "bufferView": 4,
      "componentType": 5126,
      "count": 1710,
      "max": [
        150.2083740234375,
        150.20838928222656,
        165.3986053466797
      ],
      "min": [
        -77.13684844970703,
        -78.0831069946289,
        -77.87824249267578
      ],
      "type": "VEC3"
    },
    {
      "bufferView": 5,
      "componentType": 5126,
      "count": 1710,
      "type": "VEC3"
    },
    {
      "bufferView": 6,
      "componentType": 5126,
      "count": 1710,
      "type": "VEC2"
    },
    {
      "bufferView": 7,
      "componentType": 5123,
      "count": 8256,
      "type": "SCALAR"
    },
    {
      "bufferView": 8,
      "componentType": 5126,
      "count": 73,
      "type": "MAT4"
    }
  ],
  "asset": {
    "generator": "gr2togltf (ANKA2 Project)",
    "version": "2.0"
  },
  "bufferViews": [
    {
      "buffer": 0,
      "byteLength": 2160,
      "target": 34962
    },
    {
      "buffer": 0,
      "byteLength": 2160,
      "byteOffset": 2160,
      "target": 34962
    },
    {
      "buffer": 0,
      "byteLength": 1440,
      "byteOffset": 4320,
      "target": 34962
    },
    {
      "buffer": 0,
      "byteLength": 2040,
      "byteOffset": 5760,
      "target": 34963
    },
    {
      "buffer": 0,
      "byteLength": 20520,
      "byteOffset": 7800,
      "target": 34962
    },
    {
      "buffer": 0,
      "byteLength": 20520,
      "byteOffset": 28320,
      "target": 34962
    },
    {
      "buffer": 0,
      "byteLength": 13680,
      "byteOffset": 48840,
      "target": 34962
    },
    {
      "buffer": 0,
      "byteLength": 16512,
      "byteOffset": 62520,
      "target": 34963
    },
    {
      "buffer": 0,
      "byteLength": 4672,
      "byteOffset": 79032
    }
  ],
  "buffers": [
    {
      "byteLength": 83704,
      "uri": "data:application/octet-stream;base64,"
    }
  ],
  "materials": [
    {
      "name": "default",
      "pbrMetallicRoughness": {
        "baseColorFactor": [
          0.8,
          0.8,
          0.8,
          1.0
        ],
        "metallicFactor": 0.0,
        "roughnessFactor": 0.8
      }
    }
  ],
  "meshes": [
    {
      "name": "shaman_face",
      "primitives": [
        {
          "attributes": {
            "NORMAL": 1,
            "POSITION": 0,
            "TEXCOORD_0": 2
          },
          "indices": 3,
          "material": 0,
          "mode": 4
        }
      ]
    },
    {
      "name": "shaman_snow1",
      "primitives": [
        {
          "attributes": {
            "NORMAL": 5,
            "POSITION": 4,
            "TEXCOORD_0": 6
          },
          "indices": 7,
          "material": 0,
          "mode": 4
        }
      ]
    }
  ],
  "nodes": [
    {
      "children": [
        1,
        2,
        3
      ]
    },
    {
      "mesh": 0,
      "name": "shaman_face",
      "skin": 0
    },
    {
      "mesh": 1,
      "name": "shaman_snow1",
      "skin": 0
    },
    {
      "children": [
        4
      ],
      "name": "Bip01",
      "rotation": [
        0.0,
        0.0,
        0.0,
        0.9999999403953552
      ],
      "scale": [
        0.9999997615814209,
        -5.117093408073606e-14,
        0.0
      ],
      "translation": [
        5.960464477539063e-08,
        0.0,
        0.0
      ]
    },
    {
      "children": [
        5
      ],
      "name": "Bip01 Pelvis",
      "rotation": [
        -0.4999993145465851,
        -0.5,
        -0.5,
        0.5000006556510925
      ],
      "scale": [
        1.0,
        6.755036055564761e-20,
        -2.6671148450016795e-18
      ],
      "translation": [
        0.9084558486938477,
        2.4760220185271464e-06,
        0.0
      ]
    },
    {
      "children": [
        6,
        27,
        42,
        46,
        61,
        65,
        70
      ],
      "name": "Bip01 Spine",
      "rotation": [
        -2.0994200440327404e-06,
        -7.13202211954922e-07,
        0.02897808514535427,
        0.9995800256729126
      ],
      "scale": [
        1.0000001192092896,
        -3.724561326023945e-09,
        -1.6604279800061517e-13
      ],
      "translation": [
        6.193992614746094,
        -0.009989559650421143,
        8.603674359619617e-06
      ]
    },
    {
      "children": [
        7
      ],
      "name": "Bip01 Spine1",
      "rotation": [
        3.2099401126505986e-14,
        2.445134725803655e-07,
        -0.08815741539001465,
        0.9961065649986267
      ],
      "scale": [
        1.0,
        -1.0468244937555937e-08,
        -3.4335168307706235e-14
      ],
      "translation": [
        12.570350646972656,
        -0.0077838897705078125,
        -2.1591404220089316e-08
      ]
    },
    {
      "children": [
        8,
        72,
        73
      ],
      "name": "Bip01 Spine2",
      "rotation": [
        4.449198103581402e-15,
        1.693988309625638e-07,
        -0.06107543781399727,
        0.9981331825256348
      ],
      "scale": [
        1.0,
        6.9974137161671335e-15,
        -1.540582169213406e-14
      ],
      "translation": [
        9.930061340332031,
        -0.012085914611816406,
        -3.352033672854304e-08
      ]
    },
    {
      "children": [
        9,
        15,
        21
      ],
      "name": "Bip01 Neck",
      "rotation": [
        -1.4723102972251725e-14,
        -7.252514251376851e-07,
        0.2614837884902954,
        0.9652078747749329
      ],
      "scale": [
        1.000000238418579,
        3.8805957558452064e-08,
        -3.272489430047182e-14
      ],
      "translation": [
        18.59966278076172,
        -1.1482963562011719,
        -1.1849188013002276e-06
      ]
    },
    {
      "children": [
        10
      ],
      "name": "Bip01 Head",
      "rotation": [
        7.929786926923199e-14,
        -7.363339449284467e-08,
        0.026547251269221306,
        0.9996475577354431
      ],
      "scale": [
        0.9999999403953552,
        -5.755562936208961e-16,
        7.975309865640434e-14
      ],
      "translation": [
        8.269393920898438,
        0.0,
        0.0
      ]
    },
    {
      "children": [
        11
      ],
      "name": "Bip01 Ponytail1",
      "rotation": [
        1.890486682129544e-12,
        -2.7729504381568404e-06,
        0.9997656941413879,
        -0.021647030487656593
      ],
      "scale": [
        0.9999998211860657,
        2.284418432196844e-09,
        3.171376057814826e-14
      ],
      "translation": [
        6.120635986328125,
        -6.112087249755859,
        -1.6952501027844846e-05
      ]
    },
    {
      "children": [
        12
      ],
      "name": "Bip01 Ponytail11",
      "rotation": [
        1.633506833487522e-13,
        -5.893437560189341e-08,
        0.021248308941721916,
        0.9997742176055908
      ],
      "scale": [
        1.0000001192092896,
        1.3429209966275835e-09,
        -6.6176719052540856e-15
      ],
      "translation": [
        11.2379150390625,
        -0.008941650390625,
        -2.4811015464365482e-08
      ]
    },
    {
      "children": [
        13
      ],
      "name": "Bip01 Ponytail12",
      "rotation": [
        -1.780234759520688e-13,
        1.8297041037840245e-07,
        -0.06596855074167252,
        0.9978216886520386
      ],
      "scale": [
        0.9999999403953552,
        7.846942651212885e-09,
        2.9029259058415205e-15
      ],
      "translation": [
        11.236328125,
        -0.0088653564453125,
        -2.4563632905483246e-08
      ]
    },
    {
      "children": [
        14
      ],
      "name": "Bip01 Ponytail13",
      "rotation": [
        1.1037455265082777e-13,
        1.8297039616754773e-07,
        -0.06596854329109192,
        0.9978216886520386
      ],
      "scale": [
        1.0,
        8.814836406916167e-15,
        1.7063980165942655e-14
      ],
      "translation": [
        11.236343383789063,
        -0.00887298583984375,
        -2.4607288651168346e-08
      ]
    },
    {
      "name": "Bip01 Ponytail14",
      "rotation": [
        1.1037455265082777e-13,
        1.8297042458925716e-07,
        -0.06596856564283371,
        0.9978216886520386
      ],
      "scale": [
        1.0,
        6.924539164288035e-09,
        6.919761123694648e-14
      ],
      "translation": [
        11.236351013183594,
        -0.008869171142578125,
        -2.459273673593998e-08
      ]
    },
    {
      "children": [
        16,
        17
      ],
      "name": "Bip01 R Clavicle",
      "rotation": [
        -0.609510600566864,
        0.23812735080718994,
        0.7433037161827087,
        0.13889476656913757
      ],
      "scale": [
        1.0,
        1.1427184531953571e-08,
        -8.539746687574734e-10
      ],
      "translation": [
        -1.845062255859375,
        1.0423736572265625,
        -2.495269298553467
      ]
    },
    {
      "name": "right_sh_01",
      "rotation": [
        -0.7749796509742737,
        0.1756466031074524,
        0.045310262590646744,
        0.6053939461708069
      ],
      "scale": [
        1.0000003576278687,
        1.8317104277798535e-08,
        -1.1430183022298479e-08
      ],
      "translation": [
        4.489246368408203,
        0.01157379150390625,
        -1.4733428955078125
      ]
    },
    {
      "children": [
        18
      ],
      "name": "Bip01 R UpperArm",
      "rotation": [
        -0.1351195126771927,
        -0.021313443779945374,
        -0.05337775871157646,
        0.9891608953475952
      ],
      "scale": [
        1.0,
        -2.3296081508306088e-08,
        -1.7741440316854096e-08
      ],
      "translation": [
        11.936211585998535,
        0.0,
        -1.52587890625e-05
      ]
    },
    {
      "children": [
        19,
        32
      ],
      "name": "Bip01 R ForeArm",
      "rotation": [
        2.3273385996169793e-10,
        -6.7122561848986795e-12,
        -0.028828922659158707,
        0.9995843768119812
      ],
      "scale": [
        1.0,
        -6.586643230832578e-09,
        0.0
      ],
      "translation": [
        23.697328567504883,
        -4.76837158203125e-07,
        -1.52587890625e-05
      ]
    },
    {
      "children": [
        20
      ],
      "name": "rh_w_01",
      "rotation": [
        0.827853798866272,
        0.5608291625976563,
        -0.010881793685257435,
        -0.003211159724742174
      ],
      "scale": [
        1.0000007152557373,
        2.088017225787553e-08,
        1.588053599732575e-08
      ],
      "translation": [
        19.9179630279541,
        2.597683906555176,
        -1.6131744384765625
      ]
    },
    {
      "name": "rh_w_02",
      "rotation": [
        3.664531567082463e-09,
        -3.0329374567372724e-09,
        -0.02144007943570614,
        0.9997701644897461
      ],
      "scale": [
        0.9999999403953552,
        -2.3331925280700716e-09,
        5.268526503954263e-09
      ],
      "translation": [
        18.20225715637207,
        -5.7220458984375e-06,
        1.52587890625e-05
      ]
    },
    {
      "children": [
        22,
        23
      ],
      "name": "Bip01 L Clavicle",
      "rotation": [
        0.6095109581947327,
        -0.2381293922662735,
        0.7433030605316162,
        0.13889306783676147
      ],
      "scale": [
        1.0,
        -7.017855629953829e-09,
        5.706258576765322e-09
      ],
      "translation": [
        -1.845062255859375,
        1.0423583984375,
        2.4952707290649414
      ]
    },
    {
      "name": "left_sh_01",
      "rotation": [
        0.7749797701835632,
        -0.1756475269794464,
        0.04530753940343857,
        0.6053937673568726
      ],
      "scale": [
        1.0000003576278687,
        -1.3271199250652899e-08,
        1.1828640289479608e-08
      ],
      "translation": [
        4.489250183105469,
        0.0115509033203125,
        1.473297119140625
      ]
    },
    {
      "children": [
        24
      ],
      "name": "Bip01 L UpperArm",
      "rotation": [
        0.1351195126771927,
        0.021313440054655075,
        -0.05337775871157646,
        0.9891608953475952
      ],
      "scale": [
        0.9999998807907104,
        -6.282715681038553e-09,
        -9.216409857515373e-10
      ],
      "translation": [
        11.936210632324219,
        0.0,
        1.52587890625e-05
      ]
    },
    {
      "children": [
        25,
        51
      ],
      "name": "Bip01 L ForeArm",
      "rotation": [
        -4.475260717562435e-10,
        -7.447483518774334e-09,
        -0.028828920796513557,
        0.9995843768119812
      ],
      "scale": [
        1.0,
        8.515534943853709e-10,
        1.4887741706104407e-08
      ],
      "translation": [
        23.697330474853516,
        0.0,
        3.0517578125e-05
      ]
    },
    {
      "children": [
        26
      ],
      "name": "lh_w_01",
      "rotation": [
        0.827852189540863,
        0.5608315467834473,
        0.010881935246288776,
        0.003211730858311057
      ],
      "scale": [
        1.0822943449020386,
        0.04837721958756447,
        -0.008712511509656906
      ],
      "translation": [
        19.69511604309082,
        2.5669336318969727,
        1.397430419921875
      ]
    },
    {
      "name": "lh_w_02",
      "rotation": [
        -3.7444016776078115e-09,
        -2.713455238279039e-09,
        -0.0214400514960289,
        0.9997701644897461
      ],
      "scale": [
        0.9999998807907104,
        -6.055064893928375e-09,
        1.864357779268744e-09
      ],
      "translation": [
        18.202255249023438,
        -3.814697265625e-06,
        0.0
      ]
    },
    {
      "children": [
        28
      ],
      "name": "back_bone01",
      "rotation": [
        -1.0046800014151813e-07,
        -7.452316594935837e-07,
        0.9823358654975891,
        -0.18712641298770905
      ],
      "scale": [
        0.9999996423721313,
        4.96290297746782e-08,
        -8.296056286383191e-09
      ],
      "translation": [
        3.030303955078125,
        -8.42160415649414,
        -3.260258381487802e-05
      ]
    },
    {
      "children": [
        29
      ],
      "name": "back_bone02",
      "rotation": [
        -2.1123159407861972e-15,
        3.0054873020730313e-16,
        -0.08938857913017273,
        0.9959968328475952
      ],
      "scale": [
        1.0,
        1.0613291578920325e-08,
        -2.4434778710753693e-15
      ],
      "translation": [
        12.280601501464844,
        0.0,
        5.4569682106375694e-12
      ]
    },
    {
      "children": [
        30
      ],
      "name": "back_bone03",
      "rotation": [
        4.92826426843891e-16,
        9.905368456616503e-16,
        0.006767930928617716,
        0.9999771118164063
      ],
      "scale": [
        0.9999999403953552,
        7.4498980318082886e-09,
        -2.022445533324279e-15
      ],
      "translation": [
        18.749595642089844,
        8.392333984375e-05,
        1.4592478692065924e-07
      ]
    },
    {
      "children": [
        31
      ],
      "name": "back_bone04",
      "rotation": [
        1.7763128995661116e-15,
        -8.850312158450427e-16,
        -0.0070373364724218845,
        0.9999752044677734
      ],
      "scale": [
        1.0000001192092896,
        1.5084355098338165e-08,
        3.1339153639780144e-17
      ],
      "translation": [
        17.04608154296875,
        0.00026702880859375,
        1.2274358596187085e-07
      ]
    },
    {
      "name": "back_bone05",
      "rotation": [
        1.7198592124227966e-15,
        2.1306992027195757e-16,
        0.004368529189378023,
        0.9999904632568359
      ],
      "scale": [
        1.0,
        7.450296379829524e-09,
        -4.770692317447969e-16
      ],
      "translation": [
        19.99404525756836,
        3.814697265625e-06,
        1.5606929082423449e-07
      ]
    },
    {
      "children": [
        33,
        36,
        39,
        74
      ],
      "name": "Bip01 R Hand",
      "rotation": [
        0.7051334381103516,
        0.06748095154762268,
        -0.06658753007650375,
        0.7027085423469543
      ],
      "scale": [
        1.0000001192092896,
        -1.0898546065618575e-08,
        -9.223217745102374e-10
      ],
      "translation": [
        22.58063316345215,
        0.0,
        1.52587890625e-05
      ]
    },
    {
      "children": [
        34
      ],
      "name": "Bip01 R Finger0",
      "rotation": [
        -0.6464375853538513,
        -0.23017531633377075,
        -0.09677518904209137,
        0.7209523916244507
      ],
      "scale": [
        1.0000001192092896,
        1.843139472157418e-07,
        -2.6138042130696704e-07
      ],
      "translation": [
        0.8650360107421875,
        0.074554443359375,
        1.5068016052246094
      ]
    },
    {
      "children": [
        35
      ],
      "name": "Bip01 R Finger01",
      "rotation": [
        3.7266425501059075e-09,
        -6.762368442991828e-13,
        -0.00018151244148612022,
        1.0
      ],
      "scale": [
        1.0,
        8.381902283360887e-09,
        -1.4901161193847656e-08
      ],
      "translation": [
        4.211383819580078,
        1.9073486328125e-06,
        0.0
      ]
    },
    {
      "name": "Bip01 R Finger02",
      "rotation": [
        -2.870706727886585e-10,
        0.0,
        0.038529977202415466,
        0.9992574453353882
      ],
      "scale": [
        1.0000001192092896,
        1.944663807762481e-08,
        -1.4879040222126605e-08
      ],
      "translation": [
        4.211374282836914,
        -3.814697265625e-06,
        0.0
      ]
    },
    {
      "children": [
        37
      ],
      "name": "Bip01 R Finger1",
      "rotation": [
        -0.00017513516650069505,
        -0.07781513035297394,
        0.11223243176937103,
        0.9906304478645325
      ],
      "scale": [
        0.9999995827674866,
        -5.476859996633721e-07,
        4.210027952922246e-07
      ],
      "translation": [
        9.007843017578125,
        -0.8791351318359375,
        2.345937728881836
      ]
    },
    {
      "children": [
        38
      ],
      "name": "Bip01 R Finger11",
      "rotation": [
        -1.0640264225258989e-09,
        -6.13528605697411e-09,
        0.11640201508998871,
        0.9932022094726563
      ],
      "scale": [
        1.0,
        -1.5928323549019296e-08,
        1.4137583548290422e-08
      ],
      "translation": [
        3.5907211303710938,
        1.52587890625e-05,
        9.5367431640625e-07
      ]
    },
    {
      "name": "Bip01 R Finger12",
      "rotation": [
        -3.5950837862230856e-09,
        1.8788475220077316e-09,
        0.1164020225405693,
        0.9932022094726563
      ],
      "scale": [
        0.9999999403953552,
        5.798942481760605e-08,
        1.760761669800104e-08
      ],
      "translation": [
        3.590709686279297,
        -1.52587890625e-05,
        -9.5367431640625e-07
      ]
    },
    {
      "children": [
        40
      ],
      "name": "Bip01 R Finger2",
      "rotation": [
        -0.01070131454616785,
        0.022079061716794968,
        0.12060805410146713,
        0.9923969507217407
      ],
      "scale": [
        0.9999995231628418,
        -4.3382192416174803e-07,
        -8.806561169194538e-08
      ],
      "translation": [
        8.930442810058594,
        -0.663421630859375,
        -0.9564809799194336
      ]
    },
    {
      "children": [
        41
      ],
      "name": "Bip01 R Finger21",
      "rotation": [
        8.165837450668789e-10,
        0.0,
        0.1164020225405693,
        0.9932022094726563
      ],
      "scale": [
        1.0000001192092896,
        1.2350907852010096e-08,
        -2.0527493038713374e-09
      ],
      "translation": [
        3.7396926879882813,
        1.52587890625e-05,
        9.5367431640625e-07
      ]
    },
    {
      "name": "Bip01 R Finger22",
      "rotation": [
        -1.0840783132293197e-10,
        4.62495819419928e-10,
        0.1164020299911499,
        0.9932021498680115
      ],
      "scale": [
        0.9999999403953552,
        5.798942481760605e-08,
        -1.850026243310765e-09
      ],
      "translation": [
        3.7396926879882813,
        0.0,
        -9.5367431640625e-07
      ]
    },
    {
      "children": [
        43
      ],
      "name": "Bip01 R Thigh",
      "rotation": [
        -0.005618722178041935,
        0.9973922371864319,
        -0.005683479830622673,
        0.07172735035419464
      ],
      "scale": [
        1.0000001192092896,
        3.558844996476296e-09,
        -9.571228254401376e-10
      ],
      "translation": [
        -6.183006286621094,
        0.36882495880126953,
        -6.6108808517456055
      ]
    },
    {
      "children": [
        44
      ],
      "name": "Bip01 R Calf",
      "rotation": [
        7.061567441901673e-10,
        3.7248031325987085e-09,
        -0.0020579088013619184,
        0.9999978542327881
      ],
      "scale": [
        0.9999999403953552,
        3.7252587681280147e-09,
        -7.448664351983325e-09
      ],
      "translation": [
        43.94834518432617,
        4.76837158203125e-07,
        -1.9073486328125e-06
      ]
    },
    {
      "children": [
        45
      ],
      "name": "Bip01 R Foot",
      "rotation": [
        0.06650763750076294,
        0.07425316423177719,
        0.03141501545906067,
        0.9945231676101685
      ],
      "scale": [
        1.0,
        -1.234354929380288e-08,
        2.9496771247750075e-08
      ],
      "translation": [
        40.72791290283203,
        4.76837158203125e-07,
        1.9073486328125e-06
      ]
    },
    {
      "name": "Bip01 R Toe0",
      "rotation": [
        2.6341777648042353e-09,
        -2.6341775427596303e-09,
        0.7071067094802856,
        0.7071067690849304
      ],
      "scale": [
        1.0000001192092896,
        -1.0587911840678754e-22,
        -7.450581485102248e-09
      ],
      "translation": [
        12.25244140625,
        10.997764587402344,
        0.0
      ]
    },
    {
      "children": [
        47
      ],
      "name": "right_bone01",
      "rotation": [
        -0.12857399880886078,
        -0.6953200101852417,
        0.7015990614891052,
        -0.0880768746137619
      ],
      "scale": [
        0.9999999403953552,
        1.5350502735600458e-07,
        -4.173918100036644e-08
      ],
      "translation": [
        3.5177688598632813,
        -1.6281228065490723,
        -9.515992164611816
      ]
    },
    {
      "children": [
        48
      ],
      "name": "right_bone02",
      "rotation": [
        4.1438946024596746e-11,
        2.0767926045550666e-08,
        -0.0019965062383562326,
        0.9999979734420776
      ],
      "scale": [
        0.9999999403953552,
        3.246436113593973e-21,
        -3.5266544984199856e-15
      ],
      "translation": [
        17.058731079101563,
        -9.1552734375e-05,
        -7.152557373046875e-07
      ]
    },
    {
      "children": [
        49
      ],
      "name": "right_bone03",
      "rotation": [
        -1.9004338846963925e-13,
        7.385039801910409e-11,
        0.002410306828096509,
        0.999997079372406
      ],
      "scale": [
        1.0000001192092896,
        1.500999324832719e-08,
        2.2090026341329075e-14
      ],
      "translation": [
        17.697643280029297,
        -3.814697265625e-06,
        -1.1920928955078125e-07
      ]
    },
    {
      "children": [
        50
      ],
      "name": "right_bone04",
      "rotation": [
        -1.9520086027712165e-14,
        1.0824095966592302e-14,
        -0.0055009061470627785,
        0.999984860420227
      ],
      "scale": [
        1.0,
        -3.802321790757901e-10,
        -6.988599914834479e-15
      ],
      "translation": [
        17.533355712890625,
        -0.0001983642578125,
        0.0
      ]
    },
    {
      "name": "right_bone05",
      "rotation": [
        -1.0902209344988093e-14,
        -4.913224669064818e-16,
        -0.0172868724912405,
        0.9998505711555481
      ],
      "scale": [
        1.0,
        -2.060447812368693e-09,
        2.7062280842367163e-14
      ],
      "translation": [
        17.377689361572266,
        -3.814697265625e-06,
        1.1920928955078125e-07
      ]
    },
    {
      "children": [
        52,
        55,
        58,
        75
      ],
      "name": "Bip01 L Hand",
      "rotation": [
        -0.7049362063407898,
        -0.06950603425502777,
        -0.0645693764090538,
        0.702897310256958
      ],
      "scale": [
        0.9999999403953552,
        -8.183318911392234e-09,
        2.214899930130798e-10
      ],
      "translation": [
        22.580629348754883,
        -9.5367431640625e-07,
        -1.52587890625e-05
      ]
    },
    {
      "children": [
        53
      ],
      "name": "Bip01 L Finger0",
      "rotation": [
        0.6464375853538513,
        0.23017531633377075,
        -0.09677518904209137,
        0.7209523916244507
      ],
      "scale": [
        1.0000001192092896,
        1.33342965114025e-07,
        2.3699669782217825e-07
      ],
      "translation": [
        0.8650436401367188,
        0.074554443359375,
        -1.5068001747131348
      ]
    },
    {
      "children": [
        54
      ],
      "name": "Bip01 L Finger01",
      "rotation": [
        -6.760703108454891e-13,
        -1.1175870895385742e-08,
        -0.0001814994029700756,
        1.0
      ],
      "scale": [
        1.0,
        -1.2085556555518906e-08,
        7.450581485102248e-09
      ],
      "translation": [
        4.21137809753418,
        -1.9073486328125e-06,
        0.0
      ]
    },
    {
      "name": "Bip01 L Finger02",
      "rotation": [
        -3.722523844729153e-09,
        1.4353528088317802e-10,
        0.03852996975183487,
        0.9992574453353882
      ],
      "scale": [
        1.0000001192092896,
        2.403635690484407e-08,
        5.737151864693146e-10
      ],
      "translation": [
        4.2113800048828125,
        0.0,
        -1.52587890625e-05
      ]
    },
    {
      "children": [
        56
      ],
      "name": "Bip01 L Finger1",
      "rotation": [
        0.0001751342206262052,
        0.07781513035297394,
        0.11223243176937103,
        0.9906304478645325
      ],
      "scale": [
        0.9999995827674866,
        -5.471703161674668e-07,
        -4.345196202848456e-07
      ],
      "translation": [
        9.007843017578125,
        -0.8791351318359375,
        -2.3459367752075195
      ]
    },
    {
      "children": [
        57
      ],
      "name": "Bip01 L Finger11",
      "rotation": [
        -6.251075213015156e-10,
        5.604153585636595e-09,
        0.1164020225405693,
        0.9932022094726563
      ],
      "scale": [
        1.0,
        -1.5928321772662457e-08,
        -2.6921969098481213e-09
      ],
      "translation": [
        3.5907135009765625,
        0.0,
        1.9073486328125e-06
      ]
    },
    {
      "name": "Bip01 L Finger12",
      "rotation": [
        8.978895404965215e-10,
        -2.7894071497058803e-09,
        0.11640200018882751,
        0.9932022094726563
      ],
      "scale": [
        1.0000001192092896,
        2.8279227848315713e-08,
        -1.6198727081917497e-10
      ],
      "translation": [
        3.5907135009765625,
        0.0,
        9.5367431640625e-07
      ]
    },
    {
      "children": [
        59
      ],
      "name": "Bip01 L Finger2",
      "rotation": [
        0.010701313614845276,
        -0.022079065442085266,
        0.12060804665088654,
        0.9923969507217407
      ],
      "scale": [
        0.9999994039535522,
        -3.9043041510922194e-07,
        8.957307073842458e-08
      ],
      "translation": [
        8.930450439453125,
        -0.6634063720703125,
        0.9564828872680664
      ]
    },
    {
      "children": [
        60
      ],
      "name": "Bip01 L Finger21",
      "rotation": [
        1.2195877641119068e-10,
        -3.468718368093704e-10,
        0.1164020299911499,
        0.9932021498680115
      ],
      "scale": [
        1.0,
        7.105582255917398e-08,
        2.0765476005379924e-09
      ],
      "translation": [
        3.739696502685547,
        0.0,
        0.0
      ]
    },
    {
      "name": "Bip01 L Finger22",
      "rotation": [
        5.4203915661465984e-11,
        0.0,
        0.1164020225405693,
        0.9932022094726563
      ],
      "scale": [
        0.9999999403953552,
        2.756374684054208e-08,
        9.187036686952865e-10
      ],
      "translation": [
        3.73968505859375,
        0.0,
        -9.5367431640625e-07
      ]
    },
    {
      "children": [
        62
      ],
      "name": "Bip01 L Thigh",
      "rotation": [
        -0.005618920549750328,
        0.9973922371864319,
        0.005686240270733833,
        -0.07172724604606628
      ],
      "scale": [
        1.0000001192092896,
        2.5299913275489416e-09,
        4.934844755055678e-10
      ],
      "translation": [
        -6.183006286621094,
        0.3687882423400879,
        6.610882759094238
      ]
    },
    {
      "children": [
        63
      ],
      "name": "Bip01 L Calf",
      "rotation": [
        -1.5332636202347594e-11,
        -7.449607153375837e-09,
        -0.002057911129668355,
        0.9999978542327881
      ],
      "scale": [
        0.9999997615814209,
        -4.4067149929105653e-10,
        1.490307610652053e-08
      ],
      "translation": [
        43.94833755493164,
        4.76837158203125e-07,
        -1.9073486328125e-06
      ]
    },
    {
      "children": [
        64
      ],
      "name": "Bip01 L Foot",
      "rotation": [
        -0.06650764495134354,
        -0.07425308227539063,
        0.03141501918435097,
        0.9945231676101685
      ],
      "scale": [
        0.9999999403953552,
        -1.7187934631124335e-08,
        -2.8242801874966972e-08
      ],
      "translation": [
        40.72791290283203,
        0.0,
        -1.9073486328125e-06
      ]
    },
    {
      "name": "Bip01 L Toe0",
      "rotation": [
        -2.6341777648042353e-09,
        2.6341777648042353e-09,
        0.7071067094802856,
        0.7071067690849304
      ],
      "scale": [
        1.0,
        0.0,
        7.450580596923828e-09
      ],
      "translation": [
        12.252439498901367,
        10.997764587402344,
        0.0
      ]
    },
    {
      "children": [
        66
      ],
      "name": "left_bone01",
      "rotation": [
        0.12857411801815033,
        0.6953186988830566,
        0.7016001343727112,
        -0.08807732909917831
      ],
      "scale": [
        0.9999997019767761,
        -8.457084277324611e-08,
        -3.7095673199871726e-09
      ],
      "translation": [
        3.5177078247070313,
        -1.62815523147583,
        9.51600456237793
      ]
    },
    {
      "children": [
        67
      ],
      "name": "left_bone02",
      "rotation": [
        4.1465726685618876e-11,
        2.0767926045550666e-08,
        -0.0019965136889368296,
        0.9999979734420776
      ],
      "scale": [
        0.9999999403953552,
        1.4901042177939416e-08,
        1.091353502252583e-14
      ],
      "translation": [
        17.058746337890625,
        -9.1552734375e-05,
        -7.152557373046875e-07
      ]
    },
    {
      "children": [
        68
      ],
      "name": "left_bone03",
      "rotation": [
        -1.6876196349668166e-13,
        7.385046740804313e-11,
        0.002410314278677106,
        0.999997079372406
      ],
      "scale": [
        1.0,
        1.0900616520537199e-10,
        -6.304470461578494e-15
      ],
      "translation": [
        17.697647094726563,
        -3.814697265625e-06,
        -1.1920928955078125e-07
      ]
    },
    {
      "children": [
        69
      ],
      "name": "left_bone04",
      "rotation": [
        1.9543093229269715e-17,
        1.0657979253108577e-14,
        -0.005500891711562872,
        0.999984860420227
      ],
      "scale": [
        1.0,
        -6.557474563351207e-10,
        -7.105857650338207e-15
      ],
      "translation": [
        17.533348083496094,
        -0.000202178955078125,
        1.1920928955078125e-07
      ]
    },
    {
      "name": "left_bone05",
      "rotation": [
        8.880456049339958e-15,
        -2.7636877182961024e-16,
        -0.0172868762165308,
        0.9998505711555481
      ],
      "scale": [
        1.0,
        1.821748440988813e-08,
        -2.4562446692937413e-16
      ],
      "translation": [
        17.377689361572266,
        -3.814697265625e-06,
        -1.1920928955078125e-07
      ]
    },
    {
      "children": [
        71
      ],
      "name": "front_bone01",
      "rotation": [
        1.1486273621130749e-07,
        -6.779889645258663e-07,
        0.998245358467102,
        0.0592135488986969
      ],
      "scale": [
        0.9999998807907104,
        1.761155310475715e-08,
        3.220272404291791e-08
      ],
      "translation": [
        4.354255676269531,
        7.451939105987549,
        3.0517576306010596e-05
      ]
    },
    {
      "name": "front_bone02",
      "rotation": [
        -2.802317449949023e-16,
        -1.8404048121904108e-15,
        -0.06419984996318817,
        0.9979370832443237
      ],
      "scale": [
        1.0000001192092896,
        1.4778327894759968e-08,
        3.396229847509426e-15
      ],
      "translation": [
        16.666854858398438,
        9.5367431640625e-07,
        1.20191543828696e-07
      ]
    },
    {
      "name": "ru_bone01",
      "rotation": [
        -0.13882531225681305,
        0.10431168973445892,
        0.7873218655586243,
        0.5915833115577698
      ],
      "scale": [
        0.999999463558197,
        5.0900595738312404e-08,
        -2.6803080643844623e-08
      ],
      "translation": [
        3.6872100830078125,
        4.928739547729492,
        -5.07208776473999
      ]
    },
    {
      "name": "lu_bone01",
      "rotation": [
        0.1388261765241623,
        -0.1043129414319992,
        0.7873217463493347,
        0.5915831327438354
      ],
      "scale": [
        1.0000001192092896,
        -2.802863896533836e-08,
        -1.0242548853511835e-07
      ],
      "translation": [
        3.6871871948242188,
        4.928689956665039,
        5.072102069854736
      ]
    },
    {
      "name": "equip_right",
      "rotation": [
        -6.030315802263431e-08,
        -4.0193117456510663e-07,
        2.845190465450287e-07,
        1.0
      ],
      "scale": [
        1.0000001192092896,
        3.8184115425110576e-08,
        -3.240719337327391e-08
      ],
      "translation": [
        5.904937744140625,
        0.6725311279296875,
        -0.06330204010009766
      ]
    },
    {
      "name": "equip_left",
      "rotation": [
        0.0028179686050862074,
        0.0005431011668406427,
        0.9999958872795105,
        -9.989906175178476e-06
      ],
      "scale": [
        1.0000003576278687,
        -6.391869078470336e-08,
        -1.3106726726164197e-07
      ],
      "translation": [
        5.875522613525391,
        0.6938323974609375,
        -0.035778045654296875
      ]
    }
  ],
  "scene": 0,
  "scenes": [
    {
      "nodes": [
        0
      ]
    }
  ],
  "skins": [
    {
      "inverseBindMatrices": 8,
      "joints": [
        3,
        4,
        5,
        6,
        7,
        8,
        9,
        10,
        11,
        12,
        13,
        14,
        15,
        16,
        17,
        18,
        19,
        20,
        21,
        22,
        23,
        24,
        25,
        26,
        27,
        28,
        29,
        30,
        31,
        32,
        33,
        34,
        35,
        36,
        37,
        38,
        39,
        40,
        41,
        42,
        43,
        44,
        45,
        46,
        47,
        48,
        49,
        50,
        51,
        52,
        53,
        54,
        55,
        56,
        57,
        58,
        59,
        60,
        61,
        62,
        63,
        64,
        65,
        66,
        67,
        68,
        69,
        70,
        71,
        72,
        73,
        74,
        75
      ],
      "skeleton": 3
    }
  ]
}
