{
  "accessors": [
    {
      "bufferView": 0,
      "componentType": 5126,
      "count": 895,
      "max": [
        156.27420043945313,
        147.3791046142578,
        147.3791046142578
      ],
      "min": [
        -76.45346069335938,
        -76.2176513671875,
        -78.11215209960938
      ],
      "type": "VEC3"
    },
    {
      "bufferView": 1,
      "componentType": 5126,
      "count": 895,
      "type": "VEC3"
    },
    {
      "bufferView": 2,
      "componentType": 5126,
      "count": 895,
      "type": "VEC2"
    },
    {
      "bufferView": 3,
      "componentType": 5123,
      "count": 3045,
      "type": "SCALAR"
    },
    {
      "bufferView": 4,
      "componentType": 5126,
      "count": 180,
      "max": [
        156.27420043945313,
        147.3791046142578,
        165.3986053466797
      ],
      "min": [
        -76.45346069335938,
        -76.2176513671875,
        -78.11215209960938
      ],
      "type": "VEC3"
    },
    {
      "bufferView": 5,
      "componentType": 5126,
      "count": 180,
      "type": "VEC3"
    },
    {
      "bufferView": 6,
      "componentType": 5126,
      "count": 180,
      "type": "VEC2"
    },
    {
      "bufferView": 7,
      "componentType": 5123,
      "count": 1020,
      "type": "SCALAR"
    },
    {
      "bufferView": 8,
      "componentType": 5126,
      "count": 50,
      "type": "MAT4"
    }
  ],
  "asset": {
    "generator": "gr2togltf (ANKA2 Project)",
    "version": "2.0"
  },
  "bufferViews": [
    {
      "buffer": 0,
      "byteLength": 10740,
      "target": 34962
    },
    {
      "buffer": 0,
      "byteLength": 10740,
      "byteOffset": 10740,
      "target": 34962
    },
    {
      "buffer": 0,
      "byteLength": 7160,
      "byteOffset": 21480,
      "target": 34962
    },
    {
      "buffer": 0,
      "byteLength": 6090,
      "byteOffset": 28640,
      "target": 34963
    },
    {
      "buffer": 0,
      "byteLength": 2160,
      "byteOffset": 34730,
      "target": 34962
    },
    {
      "buffer": 0,
      "byteLength": 2160,
      "byteOffset": 36890,
      "target": 34962
    },
    {
      "buffer": 0,
      "byteLength": 1440,
      "byteOffset": 39050,
      "target": 34962
    },
    {
      "buffer": 0,
      "byteLength": 2040,
      "byteOffset": 40490,
      "target": 34963
    },
    {
      "buffer": 0,
      "byteLength": 3200,
      "byteOffset": 42530
    }
  ],
  "buffers": [
    {
      "byteLength": 45730,
      "uri": "data:application/octet-stream;base64,"
    }
  ],
  "materials": [
    {
      "name": "default",
      "pbrMetallicRoughness": {
        "baseColorFactor": [
          0.8,
          0.8,
          0.8,
          1.0
        ],
        "metallicFactor": 0.0,
        "roughnessFactor": 0.8
      }
    }
  ],
  "meshes": [
    {
      "name": "shaman_boxing1",
      "primitives": [
        {
          "attributes": {
            "NORMAL": 1,
            "POSITION": 0,
            "TEXCOORD_0": 2
          },
          "indices": 3,
          "material": 0,
          "mode": 4
        }
      ]
    },
    {
      "name": "shaman_face",
      "primitives": [
        {
          "attributes": {
            "NORMAL": 5,
            "POSITION": 4,
            "TEXCOORD_0": 6
          },
          "indices": 7,
          "material": 0,
          "mode": 4
        }
      ]
    }
  ],
  "nodes": [
    {
      "children": [
        1,
        2,
        3
      ]
    },
    {
      "mesh": 0,
      "name": "shaman_boxing1",
      "skin": 0
    },
    {
      "mesh": 1,
      "name": "shaman_face",
      "skin": 0
    },
    {
      "children": [
        4
      ],
      "name": "Bip01",
      "rotation": [
        0.0,
        0.0,
        0.0,
        0.9999999403953552
      ],
      "scale": [
        0.9999997615814209,
        -5.117093408073606e-14,
        0.0
      ],
      "translation": [
        0.0,
        -1.2789769243681803e-13,
        0.0
      ]
    },
    {
      "children": [
        5
      ],
      "name": "Bip01 Pelvis",
      "rotation": [
        -0.4999993145465851,
        -0.5,
        -0.5,
        0.5000006556510925
      ],
      "scale": [
        1.0,
        6.755036055564761e-20,
        -2.6671148450016795e-18
      ],
      "translation": [
        1.8116858005523682,
        1.5631940186722204e-13,
        0.0
      ]
    },
    {
      "children": [
        6,
        17,
        34
      ],
      "name": "Bip01 Spine",
      "rotation": [
        -2.0994200440327404e-06,
        -7.13202211954922e-07,
        0.02897808514535427,
        0.9995800256729126
      ],
      "scale": [
        1.0000001192092896,
        -3.724561326023945e-09,
        -1.6604279800061517e-13
      ],
      "translation": [
        6.193992614746094,
        -0.009989559650421143,
        8.603674359619617e-06
      ]
    },
    {
      "children": [
        7
      ],
      "name": "Bip01 Spine1",
      "rotation": [
        3.2099401126505986e-14,
        2.445134725803655e-07,
        -0.08815741539001465,
        0.9961065649986267
      ],
      "scale": [
        1.0,
        -1.0468244937555937e-08,
        -3.4335168307706235e-14
      ],
      "translation": [
        12.570350646972656,
        -0.0077838897705078125,
        -2.1591404220089316e-08
      ]
    },
    {
      "children": [
        8,
        15,
        16
      ],
      "name": "Bip01 Spine2",
      "rotation": [
        4.449198103581402e-15,
        1.693988309625638e-07,
        -0.06107543781399727,
        0.9981331825256348
      ],
      "scale": [
        1.0,
        6.9974137161671335e-15,
        -1.540582169213406e-14
      ],
      "translation": [
        9.930061340332031,
        -0.012085914611816406,
        -3.352033672854304e-08
      ]
    },
    {
      "children": [
        9,
        21,
        38
      ],
      "name": "Bip01 Neck",
      "rotation": [
        5.88924118890069e-14,
        -7.252514251376851e-07,
        0.2614837884902954,
        0.9652078747749329
      ],
      "scale": [
        1.000000238418579,
        -3.008731042086765e-08,
        -2.589480279507894e-13
      ],
      "translation": [
        18.59966278076172,
        -1.1482963562011719,
        -1.1849188013002276e-06
      ]
    },
    {
      "children": [
        10
      ],
      "name": "Bip01 Head",
      "rotation": [
        -5.553072192750414e-15,
        -7.36333731765626e-08,
        0.026547251269221306,
        0.9996475577354431
      ],
      "scale": [
        0.9999998807907104,
        6.268419383559376e-08,
        2.9831665566623644e-13
      ],
      "translation": [
        8.269378662109375,
        -3.814697265625e-06,
        0.0
      ]
    },
    {
      "children": [
        11
      ],
      "name": "Bip01 Ponytail1",
      "rotation": [
        1.890486682129544e-12,
        -2.7729504381568404e-06,
        0.9997656941413879,
        -0.021647045388817787
      ],
      "scale": [
        0.9999998211860657,
        2.2844148794831654e-09,
        -1.8896762952157198e-15
      ],
      "translation": [
        6.120635986328125,
        -6.112083435058594,
        -1.6952501027844846e-05
      ]
    },
    {
      "children": [
        12
      ],
      "name": "Bip01 Ponytail11",
      "rotation": [
        1.210416315788887e-13,
        -5.893433652204294e-08,
        0.02124832570552826,
        0.9997742176055908
      ],
      "scale": [
        1.0,
        2.5324256025527347e-09,
        2.2824952783948374e-14
      ],
      "translation": [
        11.2379150390625,
        -0.00894927978515625,
        -2.4796463549137115e-08
      ]
    },
    {
      "children": [
        13
      ],
      "name": "Bip01 Ponytail12",
      "rotation": [
        -1.2817690160128736e-13,
        1.8297033932412887e-07,
        -0.06596855074167252,
        0.9978216886520386
      ],
      "scale": [
        0.9999999403953552,
        7.846942651212885e-09,
        -5.3259898593715875e-15
      ],
      "translation": [
        11.236335754394531,
        -0.0088653564453125,
        -2.4578184820711613e-08
      ]
    },
    {
      "children": [
        14
      ],
      "name": "Bip01 Ponytail13",
      "rotation": [
        1.1660537444467545e-13,
        1.8297041037840245e-07,
        -0.06596855819225311,
        0.9978216886520386
      ],
      "scale": [
        1.0,
        8.81481692515838e-15,
        -7.284687311920682e-14
      ],
      "translation": [
        11.236343383789063,
        -0.00887298583984375,
        -2.4621840566396713e-08
      ]
    },
    {
      "name": "Bip01 Ponytail14",
      "rotation": [
        1.1037455265082777e-13,
        1.8297039616754773e-07,
        -0.06596855074167252,
        0.9978216886520386
      ],
      "scale": [
        1.0,
        6.924540940644874e-09,
        3.682299894148221e-14
      ],
      "translation": [
        11.236351013183594,
        -0.008869171142578125,
        -2.459273673593998e-08
      ]
    },
    {
      "name": "ru_bone01",
      "rotation": [
        -0.13882553577423096,
        0.10431142896413803,
        0.7873219847679138,
        0.5915831923484802
      ],
      "scale": [
        1.0,
        -1.0702966513065348e-08,
        -6.317613809869727e-08
      ],
      "translation": [
        3.6871871948242188,
        4.92872428894043,
        -5.072079181671143
      ]
    },
    {
      "name": "lu_bone01",
      "rotation": [
        0.1388261914253235,
        -0.1043127179145813,
        0.787321925163269,
        0.5915828943252563
      ],
      "scale": [
        1.0000001192092896,
        -6.946346609026932e-09,
        -6.082579062649529e-08
      ],
      "translation": [
        3.6871795654296875,
        4.928712844848633,
        5.072099208831787
      ]
    },
    {
      "children": [
        18
      ],
      "name": "Bip01 R Thigh",
      "rotation": [
        -0.005618721712380648,
        0.9973922371864319,
        -0.005683480761945248,
        0.07172736525535583
      ],
      "scale": [
        1.0000001192092896,
        2.148268896107197e-09,
        -7.16700965242012e-09
      ],
      "translation": [
        -6.183006286621094,
        0.36882495880126953,
        -6.6108808517456055
      ]
    },
    {
      "children": [
        19
      ],
      "name": "Bip01 R Calf",
      "rotation": [
        2.174975477498009e-10,
        1.4375198080507356e-12,
        -0.0020579074043780565,
        0.9999978542327881
      ],
      "scale": [
        0.9999998211860657,
        -4.4067238746947623e-10,
        1.4904928846704024e-08
      ],
      "translation": [
        43.948341369628906,
        9.5367431640625e-07,
        -1.9073486328125e-06
      ]
    },
    {
      "children": [
        20
      ],
      "name": "Bip01 R Foot",
      "rotation": [
        0.06650763750076294,
        0.07425319403409958,
        0.03141501173377037,
        0.9945231676101685
      ],
      "scale": [
        1.0,
        -1.3434794610134304e-08,
        1.7472364888249103e-08
      ],
      "translation": [
        40.7279167175293,
        0.0,
        0.0
      ]
    },
    {
      "name": "Bip01 R Toe0",
      "rotation": [
        2.6341777648042353e-09,
        -2.6341775427596303e-09,
        0.7071067094802856,
        0.7071067690849304
      ],
      "scale": [
        1.0000001192092896,
        -1.0587911840678754e-22,
        -7.450581485102248e-09
      ],
      "translation": [
        12.25244140625,
        10.997764587402344,
        0.0
      ]
    },
    {
      "children": [
        22
      ],
      "name": "Bip01 R Clavicle",
      "rotation": [
        -0.609510600566864,
        0.23812735080718994,
        0.7433037161827087,
        0.13889478147029877
      ],
      "scale": [
        1.0000001192092896,
        7.120253719961056e-09,
        -3.747916821339459e-08
      ],
      "translation": [
        -1.8450775146484375,
        1.0423774719238281,
        -2.495269536972046
      ]
    },
    {
      "children": [
        23
      ],
      "name": "Bip01 R UpperArm",
      "rotation": [
        -0.1351195126771927,
        -0.021313436329364777,
        -0.05337775871157646,
        0.9891608953475952
      ],
      "scale": [
        1.0,
        -1.3168728330015256e-08,
        7.087646025638605e-10
      ],
      "translation": [
        11.936211585998535,
        0.0,
        -1.52587890625e-05
      ]
    },
    {
      "children": [
        24
      ],
      "name": "Bip01 R ForeArm",
      "rotation": [
        -1.794169500468623e-11,
        7.454196371270427e-09,
        -0.02882891707122326,
        0.9995843768119812
      ],
      "scale": [
        1.0,
        -2.8675430918667644e-09,
        -1.4901161193847656e-08
      ],
      "translation": [
        23.697328567504883,
        0.0,
        -3.0517578125e-05
      ]
    },
    {
      "children": [
        25,
        28,
        31,
        51
      ],
      "name": "Bip01 R Hand",
      "rotation": [
        0.7051334381103516,
        0.06748095154762268,
        -0.06658753007650375,
        0.7027085423469543
      ],
      "scale": [
        1.0000001192092896,
        -1.0899697144850506e-08,
        -2.2325534754230603e-09
      ],
      "translation": [
        22.58064079284668,
        9.5367431640625e-07,
        1.52587890625e-05
      ]
    },
    {
      "children": [
        26
      ],
      "name": "Bip01 R Finger2",
      "rotation": [
        -0.01070131454616785,
        0.022079061716794968,
        0.12060804665088654,
        0.9923969507217407
      ],
      "scale": [
        0.9999995231628418,
        -4.3373549374337017e-07,
        -8.806561169194538e-08
      ],
      "translation": [
        8.93044662475586,
        -0.6634063720703125,
        -0.9564805030822754
      ]
    },
    {
      "children": [
        27
      ],
      "name": "Bip01 R Finger21",
      "rotation": [
        4.760467575692928e-10,
        -8.635714920934845e-10,
        0.1164020225405693,
        0.9932022094726563
      ],
      "scale": [
        1.0000001192092896,
        2.6848264056411608e-08,
        3.6417143606248814e-11
      ],
      "translation": [
        3.7396926879882813,
        0.0,
        0.0
      ]
    },
    {
      "name": "Bip01 R Finger22",
      "rotation": [
        6.124377671667958e-10,
        2.0414596402229535e-10,
        0.1164020299911499,
        0.9932021498680115
      ],
      "scale": [
        0.9999999403953552,
        2.8994712408803025e-08,
        -1.5997068114614876e-09
      ],
      "translation": [
        3.739696502685547,
        -1.52587890625e-05,
        0.0
      ]
    },
    {
      "children": [
        29
      ],
      "name": "Bip01 R Finger1",
      "rotation": [
        -0.00017513609782326967,
        -0.07781513035297394,
        0.11223243176937103,
        0.9906304478645325
      ],
      "scale": [
        0.9999996423721313,
        -5.474205977407109e-07,
        3.9193676570903335e-07
      ],
      "translation": [
        9.00784683227539,
        -0.879119873046875,
        2.3459386825561523
      ]
    },
    {
      "children": [
        30
      ],
      "name": "Bip01 R Finger11",
      "rotation": [
        6.368961469327417e-10,
        -3.2446869635549547e-09,
        0.1164020225405693,
        0.9932022094726563
      ],
      "scale": [
        0.9999999403953552,
        -2.8994712408803025e-08,
        1.110159697503832e-08
      ],
      "translation": [
        3.5907211303710938,
        1.52587890625e-05,
        0.0
      ]
    },
    {
      "name": "Bip01 R Finger12",
      "rotation": [
        -2.2075963279633015e-09,
        4.216666571466021e-09,
        0.11640201508998871,
        0.9932022094726563
      ],
      "scale": [
        0.9999998807907104,
        1.4497356204401513e-08,
        1.8203165197405724e-08
      ],
      "translation": [
        3.5907135009765625,
        0.0,
        9.5367431640625e-07
      ]
    },
    {
      "children": [
        32
      ],
      "name": "Bip01 R Finger0",
      "rotation": [
        -0.6464375853538513,
        -0.23017531633377075,
        -0.09677518159151077,
        0.7209523916244507
      ],
      "scale": [
        1.000000238418579,
        1.602179509063717e-07,
        -2.6304866196369403e-07
      ],
      "translation": [
        0.8650360107421875,
        0.074554443359375,
        1.5068016052246094
      ]
    },
    {
      "children": [
        33
      ],
      "name": "Bip01 R Finger01",
      "rotation": [
        1.3522656302014657e-12,
        7.450580596923828e-09,
        -0.0001815115101635456,
        1.0
      ],
      "scale": [
        0.9999999403953552,
        -2.7008352887492038e-08,
        -1.4901161193847656e-08
      ],
      "translation": [
        4.2113800048828125,
        1.9073486328125e-06,
        1.52587890625e-05
      ]
    },
    {
      "name": "Bip01 R Finger02",
      "rotation": [
        3.5789886609904897e-09,
        1.1024036794538006e-08,
        0.03852997347712517,
        0.9992574453353882
      ],
      "scale": [
        1.0000001192092896,
        4.348299498246888e-08,
        -8.046417754314916e-09
      ],
      "translation": [
        4.21137809753418,
        -3.814697265625e-06,
        0.0
      ]
    },
    {
      "children": [
        35
      ],
      "name": "Bip01 L Thigh",
      "rotation": [
        -0.0056189196184277534,
        0.9973922371864319,
        0.005686241202056408,
        -0.07172726094722748
      ],
      "scale": [
        1.0000001192092896,
        2.2318629167017434e-09,
        -8.03366884127854e-09
      ],
      "translation": [
        -6.183006286621094,
        0.3687882423400879,
        6.610882759094238
      ]
    },
    {
      "children": [
        36
      ],
      "name": "Bip01 L Calf",
      "rotation": [
        2.2516385977944253e-10,
        -3.725761921202775e-09,
        -0.0020579055417329073,
        0.9999978542327881
      ],
      "scale": [
        0.9999997615814209,
        -4.411252696456813e-09,
        7.450580152834618e-09
      ],
      "translation": [
        43.94833755493164,
        0.0,
        -1.9073486328125e-06
      ]
    },
    {
      "children": [
        37
      ],
      "name": "Bip01 L Foot",
      "rotation": [
        -0.06650764495134354,
        -0.07425310462713242,
        0.03141501918435097,
        0.9945231676101685
      ],
      "scale": [
        0.9999999403953552,
        -7.950195168859864e-09,
        -6.738430258224071e-09
      ],
      "translation": [
        40.7279167175293,
        0.0,
        -1.9073486328125e-06
      ]
    },
    {
      "name": "Bip01 L Toe0",
      "rotation": [
        -2.6341777648042353e-09,
        2.6341777648042353e-09,
        0.7071067094802856,
        0.7071067690849304
      ],
      "scale": [
        1.0,
        0.0,
        7.450580596923828e-09
      ],
      "translation": [
        12.252439498901367,
        10.997764587402344,
        0.0
      ]
    },
    {
      "children": [
        39
      ],
      "name": "Bip01 L Clavicle",
      "rotation": [
        0.6095109581947327,
        -0.2381293922662735,
        0.7433030605316162,
        0.13889306783676147
      ],
      "scale": [
        1.0000001192092896,
        -1.1515121300931241e-08,
        4.62304612369735e-08
      ],
      "translation": [
        -1.8450775146484375,
        1.0423622131347656,
        2.4952709674835205
      ]
    },
    {
      "children": [
        40
      ],
      "name": "Bip01 L UpperArm",
      "rotation": [
        0.1351195126771927,
        0.021313432604074478,
        -0.05337776243686676,
        0.9891608953475952
      ],
      "scale": [
        0.9999998807907104,
        2.6594155766446193e-09,
        -1.7363280591098373e-08
      ],
      "translation": [
        11.936210632324219,
        0.0,
        1.52587890625e-05
      ]
    },
    {
      "children": [
        41
      ],
      "name": "Bip01 L ForeArm",
      "rotation": [
        -4.2958431256678864e-10,
        -1.490167989004476e-08,
        -0.02882891707122326,
        0.9995843768119812
      ],
      "scale": [
        1.0,
        -2.8675430918667644e-09,
        2.9788903788130483e-08
      ],
      "translation": [
        23.697330474853516,
        0.0,
        1.52587890625e-05
      ]
    },
    {
      "children": [
        42,
        45,
        48,
        52
      ],
      "name": "Bip01 L Hand",
      "rotation": [
        -0.7049362063407898,
        -0.06950603425502777,
        -0.0645693764090538,
        0.702897310256958
      ],
      "scale": [
        0.9999999403953552,
        -8.178926869106817e-09,
        5.914212453106416e-10
      ],
      "translation": [
        22.58063316345215,
        0.0,
        -3.0517578125e-05
      ]
    },
    {
      "children": [
        43
      ],
      "name": "Bip01 L Finger2",
      "rotation": [
        0.010701313614845276,
        -0.022079065442085266,
        0.12060804665088654,
        0.9923969507217407
      ],
      "scale": [
        0.999999463558197,
        -4.1962005070672603e-07,
        8.624812153357198e-08
      ],
      "translation": [
        8.930450439453125,
        -0.6634063720703125,
        0.9564805030822754
      ]
    },
    {
      "children": [
        44
      ],
      "name": "Bip01 L Finger21",
      "rotation": [
        5.166996275285385e-10,
        -5.166996275285385e-10,
        0.1164020299911499,
        0.9932021498680115
      ],
      "scale": [
        0.9999999403953552,
        4.206110659765727e-08,
        7.159808301793191e-10
      ],
      "translation": [
        3.739704132080078,
        0.0,
        0.0
      ]
    },
    {
      "name": "Bip01 L Finger22",
      "rotation": [
        2.312478819543884e-10,
        -8.130585787968769e-11,
        0.1164020299911499,
        0.9932021498680115
      ],
      "scale": [
        1.0000001192092896,
        2.756375039325576e-08,
        -2.1534184158067404e-10
      ],
      "translation": [
        3.73968505859375,
        1.52587890625e-05,
        -2.86102294921875e-06
      ]
    },
    {
      "children": [
        46
      ],
      "name": "Bip01 L Finger1",
      "rotation": [
        0.0001751342206262052,
        0.07781513035297394,
        0.11223243176937103,
        0.9906304478645325
      ],
      "scale": [
        0.9999995827674866,
        -5.333407102625642e-07,
        -4.3534808469303243e-07
      ],
      "translation": [
        9.007843017578125,
        -0.8791351318359375,
        -2.345938205718994
      ]
    },
    {
      "children": [
        47
      ],
      "name": "Bip01 L Finger11",
      "rotation": [
        5.420390525312513e-11,
        1.849983499724317e-09,
        0.11640201508998871,
        0.9932022094726563
      ],
      "scale": [
        0.9999999403953552,
        -1.4497356204401513e-08,
        8.682279339922161e-10
      ],
      "translation": [
        3.5907249450683594,
        0.0,
        1.9073486328125e-06
      ]
    },
    {
      "name": "Bip01 L Finger12",
      "rotation": [
        3.2934368565662453e-09,
        -2.218503381001824e-09,
        0.11640201508998871,
        0.9932022094726563
      ],
      "scale": [
        1.0,
        7.105581545374662e-08,
        -7.03621561015666e-09
      ],
      "translation": [
        3.5907211303710938,
        0.0,
        0.0
      ]
    },
    {
      "children": [
        49
      ],
      "name": "Bip01 L Finger0",
      "rotation": [
        0.6464375853538513,
        0.23017531633377075,
        -0.09677518904209137,
        0.7209523916244507
      ],
      "scale": [
        1.0000001192092896,
        1.3098787121634814e-07,
        2.3529420900558762e-07
      ],
      "translation": [
        0.8650398254394531,
        0.0745391845703125,
        -1.5068020820617676
      ]
    },
    {
      "children": [
        50
      ],
      "name": "Bip01 L Finger01",
      "rotation": [
        -3.725290076417309e-09,
        6.761743400439391e-13,
        -0.0001814994029700756,
        1.0
      ],
      "scale": [
        1.0,
        -1.9536136264264314e-08,
        0.0
      ],
      "translation": [
        4.211381912231445,
        -1.9073486328125e-06,
        0.0
      ]
    },
    {
      "name": "Bip01 L Finger02",
      "rotation": [
        -1.4353529476096583e-10,
        -3.722523844729153e-09,
        0.03852996602654457,
        0.9992574453353882
      ],
      "scale": [
        1.0000001192092896,
        6.340699076901046e-09,
        -7.428459181113567e-09
      ],
      "translation": [
        4.211385726928711,
        1.9073486328125e-06,
        0.0
      ]
    },
    {
      "name": "equip_right",
      "rotation": [
        3.1315721571445465e-07,
        -4.014764556359296e-07,
        2.7427452664596785e-07,
        1.0
      ],
      "scale": [
        0.9999998807907104,
        -1.3969629009125129e-08,
        -8.229224413014435e-09
      ],
      "translation": [
        5.946514129638672,
        0.6772613525390625,
        -0.03369855880737305
      ]
    },
    {
      "name": "equip_left",
      "rotation": [
        0.0028177862986922264,
        0.0005428575677797198,
        0.9999958872795105,
        -1.0367061804572586e-05
      ],
      "scale": [
        1.0,
        -1.691324236219316e-08,
        -5.7550412435602993e-08
      ],
      "translation": [
        5.9466552734375,
        0.6773834228515625,
        -0.0002288818359375
      ]
    }
  ],
  "scene": 0,
  "scenes": [
    {
      "nodes": [
        0
      ]
    }
  ],
  "skins": [
    {
      "inverseBindMatrices": 8,
      "joints": [
        3,
        4,
        5,
        6,
        7,
        8,
        9,
        10,
        11,
        12,
        13,
        14,
        15,
        16,
        17,
        18,
        19,
        20,
        21,
        22,
        23,
        24,
        25,
        26,
        27,
        28,
        29,
        30,
        31,
        32,
        33,
        34,
        35,
        36,
        37,
        38,
        39,
        40,
        41,
        42,
        43,
        44,
        45,
        46,
        47,
        48,
        49,
        50,
        51,
        52
      ],
      "skeleton": 3
    }
  ]
}
