{
  "accessors": [
    {
      "bufferView": 0,
      "componentType": 5126,
      "count": 656,
      "max": [
        13.573498725891113,
        12.809877395629883,
        184.1549530029297
      ],
      "min": [
        -13.573504447937012,
        -20.321733474731445,
        146.3240509033203
      ],
      "type": "VEC3"
    },
    {
      "bufferView": 1,
      "componentType": 5126,
      "count": 656,
      "type": "VEC3"
    },
    {
      "bufferView": 2,
      "componentType": 5126,
      "count": 656,
      "type": "VEC2"
    },
    {
      "bufferView": 3,
      "componentType": 5123,
      "count": 2952,
      "type": "SCALAR"
    },
    {
      "bufferView": 4,
      "componentType": 5126,
      "count": 91,
      "type": "MAT4"
    }
  ],
  "asset": {
    "generator": "gr2togltf (ANKA2 Project)",
    "version": "2.0"
  },
  "bufferViews": [
    {
      "buffer": 0,
      "byteLength": 7872,
      "target": 34962
    },
    {
      "buffer": 0,
      "byteLength": 7872,
      "byteOffset": 7872,
      "target": 34962
    },
    {
      "buffer": 0,
      "byteLength": 5248,
      "byteOffset": 15744,
      "target": 34962
    },
    {
      "buffer": 0,
      "byteLength": 5904,
      "byteOffset": 20992,
      "target": 34963
    },
    {
      "buffer": 0,
      "byteLength": 5824,
      "byteOffset": 26896
    }
  ],
  "buffers": [
    {
      "byteLength": 32720,
      "uri": "data:application/octet-stream;base64,"
    }
  ],
  "materials": [
    {
      "name": "default",
      "pbrMetallicRoughness": {
        "baseColorFactor": [
          0.8,
          0.8,
          0.8,
          1.0
        ],
        "metallicFactor": 0.0,
        "roughnessFactor": 0.8
      }
    }
  ],
  "meshes": [
    {
      "name": "hair_75_1",
      "primitives": [
        {
          "attributes": {
            "NORMAL": 1,
            "POSITION": 0,
            "TEXCOORD_0": 2
          },
          "indices": 3,
          "material": 0,
          "mode": 4
        }
      ]
    }
  ],
  "nodes": [
    {
      "children": [
        1,
        2
      ]
    },
    {
      "mesh": 0,
      "name": "hair_75_1",
      "skin": 0
    },
    {
      "children": [
        3
      ],
      "name": "Bip01",
      "rotation": [
        0.0,
        0.0,
        0.0,
        1.0000001192092896
      ],
      "scale": [
        1.0,
        0.0,
        0.0
      ],
      "translation": [
        1.9073486328125e-06,
        9.094947017729282e-13,
        0.0
      ]
    },
    {
      "children": [
        4
      ],
      "name": "Bip01 Pelvis",
      "rotation": [
        -0.499999463558197,
        -0.5000001788139343,
        -0.5000001788139343,
        0.500000536441803
      ],
      "scale": [
        1.0,
        0.0,
        0.0
      ],
      "translation": [
        9.937357902526855,
        2.0000011318188626e-06,
        0.0
      ]
    },
    {
      "children": [
        5,
        6,
        9,
        21,
        28,
        32,
        38
      ],
      "name": "Bip01 Spine",
      "rotation": [
        -2.0994200440327404e-06,
        -7.132022687983408e-07,
        0.02897809073328972,
        0.9995800852775574
      ],
      "scale": [
        1.0,
        -5.52744438761521e-12,
        0.0
      ],
      "translation": [
        6.193992614746094,
        -0.009989559650421143,
        8.603674359619617e-06
      ]
    },
    {
      "children": [
        7
      ],
      "name": "Bip01 R Thigh",
      "rotation": [
        -0.005618722643703222,
        0.9973922371864319,
        -0.005683527793735266,
        0.07172741740942001
      ],
      "scale": [
        1.0000001192092896,
        -1.1641532182693481e-10,
        0.0
      ],
      "translation": [
        -6.183006286621094,
        0.36882495880126953,
        -6.6108808517456055
      ]
    },
    {
      "children": [
        8
      ],
      "name": "Bip01 L Thigh",
      "rotation": [
        -0.005618920549750328,
        0.9973922371864319,
        0.005686287768185139,
        -0.07172729820013046
      ],
      "scale": [
        1.0,
        -1.1641532182693481e-09,
        0.0
      ],
      "translation": [
        -6.183006286621094,
        0.3687882423400879,
        6.610882759094238
      ]
    },
    {
      "children": [
        39
      ],
      "name": "Bip01 R Calf",
      "rotation": [
        -2.3283019956465978e-10,
        -4.791448271132537e-13,
        -0.0020579092670232058,
        0.9999979734420776
      ],
      "scale": [
        0.9999999403953552,
        3.725290298461914e-09,
        -1.916571068516504e-12
      ],
      "translation": [
        43.94834899902344,
        0.0,
        1.9073486328125e-06
      ]
    },
    {
      "children": [
        40
      ],
      "name": "Bip01 L Calf",
      "rotation": [
        7.666303356024251e-12,
        -3.7252831930345565e-09,
        -0.0020579092670232058,
        0.9999979734420776
      ],
      "scale": [
        0.9999998807907104,
        3.725290298461914e-09,
        -7.45051664807761e-09
      ],
      "translation": [
        43.94834518432617,
        0.0,
        0.0
      ]
    },
    {
      "children": [
        10
      ],
      "name": "Bip01 Spine1",
      "rotation": [
        3.20993977383742e-14,
        2.4451341573694663e-07,
        -0.08815741539001465,
        0.9961065649986267
      ],
      "scale": [
        1.0,
        -1.4901139877565583e-08,
        -5.684341886080802e-14
      ],
      "translation": [
        12.570350646972656,
        -0.0077838897705078125,
        -2.1591404220089316e-08
      ]
    },
    {
      "children": [
        11,
        57,
        58
      ],
      "name": "Bip01 Spine2",
      "rotation": [
        4.449197680064928e-15,
        1.693989162276921e-07,
        -0.061075467616319656,
        0.9981331825256348
      ],
      "scale": [
        1.0,
        6.99740863396945e-15,
        -2.842170943040401e-14
      ],
      "translation": [
        9.930061340332031,
        -0.012085914611816406,
        -3.352033672854304e-08
      ]
    },
    {
      "children": [
        12,
        14,
        20
      ],
      "name": "Bip01 Neck",
      "rotation": [
        2.944620255637166e-14,
        -7.252509135469154e-07,
        0.2614835798740387,
        0.9652079343795776
      ],
      "scale": [
        1.0000003576278687,
        -5.310076380340978e-13,
        0.0
      ],
      "translation": [
        18.59967803955078,
        -1.1482963562011719,
        -1.1849115253426135e-06
      ]
    },
    {
      "children": [
        13,
        17
      ],
      "name": "Bip01 L Clavicle",
      "rotation": [
        0.6095110774040222,
        -0.23812930285930634,
        0.743303120136261,
        0.13889293372631073
      ],
      "scale": [
        1.0000001192092896,
        -8.940696716308594e-08,
        5.960464477539063e-08
      ],
      "translation": [
        -1.8450927734375,
        1.0423622131347656,
        2.4952709674835205
      ]
    },
    {
      "children": [
        44
      ],
      "name": "left_sh_01",
      "rotation": [
        0.7749797701835632,
        -0.17564767599105835,
        0.04530755430459976,
        0.6053938269615173
      ],
      "scale": [
        1.0000001192092896,
        0.0,
        3.725290298461914e-08
      ],
      "translation": [
        4.48924446105957,
        0.011537551879882813,
        1.4733428955078125
      ]
    },
    {
      "children": [
        15,
        16
      ],
      "name": "Bip01 R Clavicle",
      "rotation": [
        -0.6095106601715088,
        0.23812727630138397,
        0.7433038353919983,
        0.13889464735984802
      ],
      "scale": [
        0.9999999403953552,
        -5.960464477539063e-08,
        -4.470348358154297e-08
      ],
      "translation": [
        -1.8450927734375,
        1.0423774719238281,
        -2.4952690601348877
      ]
    },
    {
      "children": [
        45
      ],
      "name": "right_sh_01",
      "rotation": [
        -0.7749795317649841,
        0.17564637959003448,
        0.045310333371162415,
        0.6053941249847412
      ],
      "scale": [
        0.9999999403953552,
        -2.9802322387695313e-08,
        -1.4901161193847656e-08
      ],
      "translation": [
        4.489246368408203,
        0.011575698852539063,
        -1.4733428955078125
      ]
    },
    {
      "children": [
        19
      ],
      "name": "Bip01 R UpperArm",
      "rotation": [
        -0.13511957228183746,
        -0.021313393488526344,
        -0.05337769538164139,
        0.9891608953475952
      ],
      "scale": [
        1.0,
        -4.6566128730773926e-09,
        -3.725290298461914e-09
      ],
      "translation": [
        11.936211585998535,
        3.814697265625e-06,
        0.0
      ]
    },
    {
      "children": [
        18
      ],
      "name": "Bip01 L UpperArm",
      "rotation": [
        0.13511957228183746,
        0.021313386037945747,
        -0.053377702832221985,
        0.9891608953475952
      ],
      "scale": [
        0.9999999403953552,
        -9.313225746154785e-10,
        -1.1175870895385742e-08
      ],
      "translation": [
        11.936212539672852,
        0.0,
        0.0
      ]
    },
    {
      "children": [
        27,
        52
      ],
      "name": "Bip01 L ForeArm",
      "rotation": [
        -4.116427476663631e-10,
        -1.4894967925727087e-08,
        -0.028828918933868408,
        0.9995843768119812
      ],
      "scale": [
        1.0,
        3.725290298461914e-09,
        4.47045174212235e-08
      ],
      "translation": [
        23.697324752807617,
        4.76837158203125e-07,
        0.0
      ]
    },
    {
      "children": [
        26,
        53
      ],
      "name": "Bip01 R ForeArm",
      "rotation": [
        2.0582130444424251e-10,
        1.1167870184181083e-08,
        -0.028828918933868408,
        0.9995843768119812
      ],
      "scale": [
        0.9999999403953552,
        -3.725290298461914e-09,
        -2.2365162166693153e-08
      ],
      "translation": [
        23.697328567504883,
        4.76837158203125e-07,
        -1.52587890625e-05
      ]
    },
    {
      "children": [
        46,
        51
      ],
      "name": "Bip01 Head",
      "rotation": [
        -6.219441059168371e-15,
        -7.363406950844364e-08,
        0.0265475045889616,
        0.9996475577354431
      ],
      "scale": [
        0.9999995827674866,
        -5.757036773537184e-16,
        5.684341886080802e-14
      ],
      "translation": [
        8.269378662109375,
        0.0,
        0.0
      ]
    },
    {
      "children": [
        22
      ],
      "name": "back_bone01",
      "rotation": [
        9.356300267882034e-08,
        -4.911679525321233e-07,
        0.9823359251022339,
        -0.1871260404586792
      ],
      "scale": [
        1.0000001192092896,
        2.9802322387695313e-08,
        -7.105427357601002e-15
      ],
      "translation": [
        3.0302886962890625,
        -8.421607971191406,
        -1.2000002243439667e-05
      ]
    },
    {
      "children": [
        23
      ],
      "name": "back_bone02",
      "rotation": [
        0.0,
        -6.351436320921377e-16,
        -0.08938851952552795,
        0.9959968328475952
      ],
      "scale": [
        1.0,
        1.7979603255262107e-29,
        -1.2652021018854341e-15
      ],
      "translation": [
        12.280609130859375,
        0.0,
        -1.8189894035458565e-12
      ]
    },
    {
      "children": [
        24
      ],
      "name": "back_bone03",
      "rotation": [
        -4.808906804433387e-17,
        -7.129309451548837e-15,
        0.006767934188246727,
        0.9999771118164063
      ],
      "scale": [
        1.0,
        -9.313225746154785e-10,
        -1.4257643121142437e-14
      ],
      "translation": [
        18.749588012695313,
        8.0108642578125e-05,
        -1.8189894035458565e-12
      ]
    },
    {
      "children": [
        25
      ],
      "name": "back_bone04",
      "rotation": [
        -8.83156191949265e-15,
        7.092751509545341e-15,
        -0.007037442643195391,
        0.9999752044677734
      ],
      "scale": [
        1.0,
        1.9981664006644755e-28,
        -1.4360862556094846e-14
      ],
      "translation": [
        17.046077728271484,
        0.000270843505859375,
        -1.8189894035458565e-12
      ]
    },
    {
      "children": [
        54
      ],
      "name": "back_bone05",
      "rotation": [
        -1.2403339768837004e-14,
        7.0665599802668174e-15,
        0.004368473310023546,
        0.9999904632568359
      ],
      "scale": [
        1.0,
        6.071453705151929e-28,
        1.4241352983500842e-14
      ],
      "translation": [
        19.99404525756836,
        7.62939453125e-06,
        3.637978807091713e-12
      ]
    },
    {
      "children": [
        42
      ],
      "name": "rh_w_01",
      "rotation": [
        0.8278539180755615,
        0.5608289837837219,
        -0.010881735011935234,
        -0.0032108454033732414
      ],
      "scale": [
        1.0000001192092896,
        -1.83063093572855e-08,
        -8.381903171539307e-09
      ],
      "translation": [
        19.923721313476563,
        2.569838523864746,
        -1.6744384765625
      ]
    },
    {
      "children": [
        43
      ],
      "name": "lh_w_01",
      "rotation": [
        0.8278525471687317,
        0.5608311891555786,
        0.010881888680160046,
        0.0032119357492774725
      ],
      "scale": [
        1.0585888624191284,
        -2.722663339227438e-08,
        -5.587935447692871e-09
      ],
      "translation": [
        19.923738479614258,
        2.570159912109375,
        1.67449951171875
      ]
    },
    {
      "children": [
        29
      ],
      "name": "right_bone01",
      "rotation": [
        -0.12857404351234436,
        -0.6953200697898865,
        0.7015990614891052,
        -0.08807676285505295
      ],
      "scale": [
        1.0000001192092896,
        -2.9802322387695313e-08,
        1.2596501619555056e-09
      ],
      "translation": [
        3.5177764892578125,
        -1.6281232833862305,
        -9.515987396240234
      ]
    },
    {
      "children": [
        30
      ],
      "name": "right_bone02",
      "rotation": [
        -6.479079019171621e-14,
        1.9687071796999772e-14,
        -0.0019964987877756357,
        0.9999979734420776
      ],
      "scale": [
        1.0,
        -1.4901161193847656e-08,
        -4.614978714391656e-14
      ],
      "translation": [
        17.058731079101563,
        -8.7738037109375e-05,
        0.0
      ]
    },
    {
      "children": [
        31
      ],
      "name": "right_bone03",
      "rotation": [
        -5.311930806513061e-15,
        3.612639565752848e-15,
        0.002410061890259385,
        0.9999971985816956
      ],
      "scale": [
        1.0,
        -2.833625782743044e-28,
        1.4356288578179673e-14
      ],
      "translation": [
        17.697647094726563,
        -3.814697265625e-06,
        0.0
      ]
    },
    {
      "children": [
        35
      ],
      "name": "right_bone04",
      "rotation": [
        -2.529315935840236e-14,
        -1.0723941943876006e-14,
        -0.005501159932464361,
        0.999984860420227
      ],
      "scale": [
        1.0,
        -5.788927004547613e-28,
        -7.514986422323296e-15
      ],
      "translation": [
        17.53335189819336,
        -0.000202178955078125,
        0.0
      ]
    },
    {
      "children": [
        33
      ],
      "name": "left_bone01",
      "rotation": [
        0.12857413291931152,
        0.6953186988830566,
        0.7016003131866455,
        -0.08807732164859772
      ],
      "scale": [
        1.0000001192092896,
        -2.9802322387695313e-08,
        -2.9115199140505865e-10
      ],
      "translation": [
        3.5177688598632813,
        -1.6281509399414063,
        9.515979766845703
      ]
    },
    {
      "children": [
        34
      ],
      "name": "left_bone02",
      "rotation": [
        1.1553393028244149e-14,
        3.5473877473864027e-15,
        -0.001996484352275729,
        0.9999979734420776
      ],
      "scale": [
        1.0,
        1.4901161193847656e-08,
        -7.069962511615938e-15
      ],
      "translation": [
        17.058746337890625,
        -9.1552734375e-05,
        1.1920928955078125e-07
      ]
    },
    {
      "children": [
        36
      ],
      "name": "left_bone03",
      "rotation": [
        4.440879816522891e-15,
        1.49840608134041e-17,
        0.002410084242001176,
        0.9999971985816956
      ],
      "scale": [
        1.0,
        -1.4901161193847656e-08,
        8.562285486879298e-18
      ],
      "translation": [
        17.697643280029297,
        -3.814697265625e-06,
        -1.1920928955078125e-07
      ]
    },
    {
      "children": [
        55
      ],
      "name": "right_bone05",
      "rotation": [
        -5.620666353677549e-14,
        -6.405776449103055e-15,
        -0.01728665642440319,
        0.9998505711555481
      ],
      "scale": [
        1.0000001192092896,
        -3.725290298461914e-09,
        -2.1858313702344083e-14
      ],
      "translation": [
        17.377685546875,
        0.0,
        0.0
      ]
    },
    {
      "children": [
        37
      ],
      "name": "left_bone04",
      "rotation": [
        -4.440825182897793e-15,
        7.119977689568936e-15,
        -0.00550114456564188,
        0.999984860420227
      ],
      "scale": [
        1.0,
        2.016645457739628e-28,
        -1.9973036896256402e-17
      ],
      "translation": [
        17.53335189819336,
        -0.0001983642578125,
        0.0
      ]
    },
    {
      "children": [
        56
      ],
      "name": "left_bone05",
      "rotation": [
        6.141451426992217e-17,
        3.644305045453003e-15,
        -0.017286641523241997,
        0.9998505711555481
      ],
      "scale": [
        1.0,
        3.725290298461914e-09,
        -6.921210820583874e-15
      ],
      "translation": [
        17.377689361572266,
        -3.814697265625e-06,
        0.0
      ]
    },
    {
      "children": [
        41
      ],
      "name": "front_bone01",
      "rotation": [
        1.1581165892948775e-07,
        -7.990132644408732e-07,
        0.998245358467102,
        0.059213344007730484
      ],
      "scale": [
        1.0000001192092896,
        -5.153205878509481e-13,
        -2.842170943040401e-14
      ],
      "translation": [
        4.354301452636719,
        7.45194149017334,
        1.1000000085914508e-05
      ]
    },
    {
      "children": [
        59
      ],
      "name": "Bip01 R Foot",
      "rotation": [
        0.06650760769844055,
        0.07425323128700256,
        0.03141501918435097,
        0.9945231080055237
      ],
      "scale": [
        1.0000001192092896,
        -7.450580596923828e-09,
        1.4901161193847656e-08
      ],
      "translation": [
        40.72792053222656,
        4.76837158203125e-07,
        0.0
      ]
    },
    {
      "children": [
        60
      ],
      "name": "Bip01 L Foot",
      "rotation": [
        -0.06650760024785995,
        -0.0742531344294548,
        0.03141501918435097,
        0.9945231676101685
      ],
      "scale": [
        1.0,
        -1.30385160446167e-08,
        -1.4901161193847656e-08
      ],
      "translation": [
        40.7279167175293,
        0.0,
        -1.9073486328125e-06
      ]
    },
    {
      "children": [
        61
      ],
      "name": "front_bone02",
      "rotation": [
        1.554354374364345e-15,
        1.7798201453633365e-15,
        -0.06419982016086578,
        0.997937023639679
      ],
      "scale": [
        1.0,
        1.4901161193847656e-08,
        -3.3535525159784918e-15
      ],
      "translation": [
        16.666854858398438,
        0.0,
        0.0
      ]
    },
    {
      "children": [
        62
      ],
      "name": "rh_w_02",
      "rotation": [
        -7.488801578858784e-09,
        -1.7024777143603842e-09,
        -0.021439846605062485,
        0.9997701644897461
      ],
      "scale": [
        1.0,
        7.450580596923828e-09,
        3.725290298461914e-09
      ],
      "translation": [
        18.20225715637207,
        3.814697265625e-06,
        0.0
      ]
    },
    {
      "children": [
        63
      ],
      "name": "lh_w_02",
      "rotation": [
        0.0,
        0.0,
        -0.02143986150622368,
        0.9997701644897461
      ],
      "scale": [
        0.9999999403953552,
        7.450580596923828e-09,
        0.0
      ],
      "translation": [
        18.20224952697754,
        -5.7220458984375e-06,
        0.0
      ]
    },
    {
      "name": "left_sh_02",
      "rotation": [
        3.552713678800501e-15,
        8.659739592076221e-15,
        2.524354896707238e-29,
        1.0
      ],
      "scale": [
        1.0,
        -1.4515040656066617e-28,
        -3.1086244689504383e-15
      ],
      "translation": [
        24.970550537109375,
        0.0,
        0.0
      ]
    },
    {
      "name": "right_sh_02",
      "rotation": [
        0.0,
        -1.5987211554602254e-14,
        0.0,
        1.0
      ],
      "scale": [
        1.0,
        0.0,
        8.171241461241152e-14
      ],
      "translation": [
        24.970550537109375,
        0.0,
        4.76837158203125e-07
      ]
    },
    {
      "children": [
        47
      ],
      "name": "Bip01 Ponytail1",
      "rotation": [
        1.890486682129544e-12,
        -2.7729508929041913e-06,
        0.9997656941413879,
        -0.02164701744914055
      ],
      "scale": [
        0.9999998211860657,
        6.656206618868565e-13,
        -7.105427357601002e-14
      ],
      "translation": [
        6.120635986328125,
        -6.112079620361328,
        -1.6952486475929618e-05
      ]
    },
    {
      "children": [
        48
      ],
      "name": "Bip01 Ponytail11",
      "rotation": [
        5.097074292585019e-14,
        -5.8934144675504285e-08,
        0.02124827727675438,
        0.9997742772102356
      ],
      "scale": [
        1.0,
        3.725290076417309e-09,
        1.1368683772161603e-13
      ],
      "translation": [
        11.237899780273438,
        -0.008941650390625,
        -2.4796463549137115e-08
      ]
    },
    {
      "children": [
        49
      ],
      "name": "Bip01 Ponytail12",
      "rotation": [
        3.827504719416952e-14,
        1.8297031090241944e-07,
        -0.06596856564283371,
        0.9978216886520386
      ],
      "scale": [
        1.0,
        8.814805913730066e-15,
        -5.684341886080802e-14
      ],
      "translation": [
        11.236343383789063,
        -0.0088653564453125,
        -2.4607288651168346e-08
      ]
    },
    {
      "children": [
        50
      ],
      "name": "Bip01 Ponytail13",
      "rotation": [
        2.2787005030285024e-13,
        1.8297038195669302e-07,
        -0.06596853584051132,
        0.9978216886520386
      ],
      "scale": [
        1.0,
        8.814705116809343e-15,
        0.0
      ],
      "translation": [
        11.236358642578125,
        -0.0088653564453125,
        -2.4607288651168346e-08
      ]
    },
    {
      "children": [
        64
      ],
      "name": "Bip01 Ponytail14",
      "rotation": [
        1.0948443621974432e-13,
        1.8297042458925716e-07,
        -0.06596855074167252,
        0.9978216886520386
      ],
      "scale": [
        1.0000001192092896,
        8.814589920328516e-15,
        2.842170943040401e-14
      ],
      "translation": [
        11.236351013183594,
        -0.00887298583984375,
        -2.4600012693554163e-08
      ]
    },
    {
      "name": "Bip01 HeadNub",
      "rotation": [
        -6.394884621840902e-14,
        -2.842170943040401e-14,
        -2.0194839173657902e-27,
        1.0
      ],
      "scale": [
        0.9999999403953552,
        -6.462348535570529e-27,
        5.684341886080802e-14
      ],
      "translation": [
        20.161102294921875,
        0.0,
        0.0
      ]
    },
    {
      "children": [
        65,
        78,
        81
      ],
      "name": "Bip01 L Hand",
      "rotation": [
        -0.704936146736145,
        -0.06950601190328598,
        -0.06456935405731201,
        0.7028973698616028
      ],
      "scale": [
        0.9999999403953552,
        -1.4901161193847656e-08,
        -9.89530235528946e-10
      ],
      "translation": [
        22.580636978149414,
        0.0,
        -1.52587890625e-05
      ]
    },
    {
      "children": [
        68,
        75,
        82
      ],
      "name": "Bip01 R Hand",
      "rotation": [
        0.7051333785057068,
        0.06748094409704208,
        -0.06658752262592316,
        0.7027085423469543
      ],
      "scale": [
        1.0000001192092896,
        0.0,
        -2.3865140974521637e-09
      ],
      "translation": [
        22.58063316345215,
        0.0,
        1.52587890625e-05
      ]
    },
    {
      "name": "back_bone06",
      "rotation": [
        1.7763568394002505e-15,
        0.0,
        0.0,
        1.0
      ],
      "scale": [
        1.0,
        0.0,
        0.0
      ],
      "translation": [
        18.225330352783203,
        0.0,
        -1.8189894035458565e-12
      ]
    },
    {
      "name": "right_bone06",
      "rotation": [
        1.7763568394002505e-14,
        1.776357262916724e-15,
        -7.450580596923828e-09,
        1.0
      ],
      "scale": [
        0.9999999403953552,
        1.4901161193847656e-08,
        -3.552713678800501e-15
      ],
      "translation": [
        18.117721557617188,
        3.0517578125e-05,
        0.0
      ]
    },
    {
      "name": "left_bone06",
      "rotation": [
        5.3290705182007514e-15,
        2.6469779601696886e-23,
        1.4901161193847656e-08,
        1.0
      ],
      "scale": [
        1.0,
        1.504632769052528e-36,
        -1.0587911840678754e-22
      ],
      "translation": [
        18.117721557617188,
        2.6702880859375e-05,
        0.0
      ]
    },
    {
      "children": [
        71
      ],
      "name": "ru_bone01",
      "rotation": [
        -0.1388254463672638,
        0.10431180894374847,
        0.787321925163269,
        0.5915833711624146
      ],
      "scale": [
        0.9999999403953552,
        6.80147920206764e-08,
        0.0
      ],
      "translation": [
        3.6871795654296875,
        4.9287261962890625,
        -5.072078704833984
      ]
    },
    {
      "children": [
        72
      ],
      "name": "lu_bone01",
      "rotation": [
        0.13882628083229065,
        -0.104312963783741,
        0.7873218655586243,
        0.5915830135345459
      ],
      "scale": [
        1.0000001192092896,
        5.002391390007688e-09,
        5.960464477539063e-08
      ],
      "translation": [
        3.6871795654296875,
        4.9287109375,
        5.072098255157471
      ]
    },
    {
      "children": [
        73
      ],
      "name": "Bip01 R Toe0",
      "rotation": [
        2.63417843093805e-09,
        -2.63417798684884e-09,
        0.70710688829422,
        0.7071067094802856
      ],
      "scale": [
        1.0000001192092896,
        -1.0587911840678754e-22,
        -7.450581485102248e-09
      ],
      "translation": [
        12.25244140625,
        10.99776554107666,
        0.0
      ]
    },
    {
      "children": [
        74
      ],
      "name": "Bip01 L Toe0",
      "rotation": [
        -2.63417843093805e-09,
        2.63417843093805e-09,
        0.70710688829422,
        0.7071067094802856
      ],
      "scale": [
        1.0,
        0.0,
        7.450580596923828e-09
      ],
      "translation": [
        12.252439498901367,
        10.997763633728027,
        0.0
      ]
    },
    {
      "name": "front_bone03",
      "rotation": [
        -7.549516567451064e-15,
        -1.7763568394002505e-15,
        -7.450580596923828e-09,
        1.0
      ],
      "scale": [
        0.9999999403953552,
        8.881784197001252e-16,
        3.552713467042264e-15
      ],
      "translation": [
        14.756561279296875,
        0.0,
        4.547473508864641e-13
      ]
    },
    {
      "name": "rh_w_03",
      "rotation": [
        4.6374741941690445e-05,
        -0.004037306644022465,
        0.0049220360815525055,
        0.9999797344207764
      ],
      "scale": [
        0.5082589983940125,
        2.292608769494109e-09,
        -3.725290298461914e-09
      ],
      "translation": [
        13.761604309082031,
        -1.9073486328125e-06,
        0.0
      ]
    },
    {
      "name": "lh_w_03",
      "rotation": [
        4.6382123400690034e-05,
        -0.004037308506667614,
        0.004922043532133102,
        0.9999797344207764
      ],
      "scale": [
        0.5082589983940125,
        -1.3885085081710713e-08,
        -3.259629011154175e-09
      ],
      "translation": [
        13.761600494384766,
        7.62939453125e-06,
        0.0
      ]
    },
    {
      "name": "Bip01 Ponytail1Nub",
      "rotation": [
        0.7073883414268494,
        0.7068251967430115,
        9.802253089219448e-07,
        -9.810062238102546e-07
      ],
      "scale": [
        1.0000001192092896,
        -6.125618184216327e-15,
        -2.2737367544323206e-13
      ],
      "translation": [
        11.237533569335938,
        1.9073486328125e-06,
        7.275957614183426e-12
      ]
    },
    {
      "children": [
        66
      ],
      "name": "Bip01 L Finger0",
      "rotation": [
        0.6464375257492065,
        0.23017530143260956,
        -0.09677518904209137,
        0.7209523916244507
      ],
      "scale": [
        1.0000001192092896,
        1.4901161193847656e-07,
        2.4400651454925537e-07
      ],
      "translation": [
        0.8650398254394531,
        0.074554443359375,
        -1.5068016052246094
      ]
    },
    {
      "children": [
        67
      ],
      "name": "Bip01 L Finger01",
      "rotation": [
        3.7246141726399173e-09,
        -3.7246141726399173e-09,
        -0.00018151430413126945,
        1.0
      ],
      "scale": [
        1.0000001192092896,
        -1.2078089639544487e-08,
        7.453285100211815e-09
      ],
      "translation": [
        4.21137809753418,
        -1.9073486328125e-06,
        1.52587890625e-05
      ]
    },
    {
      "children": [
        87
      ],
      "name": "Bip01 L Finger02",
      "rotation": [
        3.722524288818363e-09,
        1.4353530863875363e-10,
        0.03852996975183487,
        0.9992574453353882
      ],
      "scale": [
        0.9999999403953552,
        -7.450580596923828e-09,
        0.0
      ],
      "translation": [
        4.211385726928711,
        0.0,
        -1.52587890625e-05
      ]
    },
    {
      "children": [
        69
      ],
      "name": "Bip01 R Finger0",
      "rotation": [
        -0.6464377045631409,
        -0.23017536103725433,
        -0.09677521884441376,
        0.7209523320198059
      ],
      "scale": [
        1.0,
        1.4901161193847656e-07,
        -2.4586915969848633e-07
      ],
      "translation": [
        0.8650360107421875,
        0.074554443359375,
        1.5068011283874512
      ]
    },
    {
      "children": [
        70
      ],
      "name": "Bip01 R Finger01",
      "rotation": [
        2.0284780799517677e-12,
        -3.7252898543727042e-09,
        -0.000181504525244236,
        1.0
      ],
      "scale": [
        1.0,
        -3.725290298461914e-09,
        -2.2351741790771484e-08
      ],
      "translation": [
        4.211381912231445,
        -3.814697265625e-06,
        1.52587890625e-05
      ]
    },
    {
      "children": [
        88
      ],
      "name": "Bip01 R Finger02",
      "rotation": [
        -1.1598179305849499e-08,
        3.5789888830350947e-09,
        0.03852998465299606,
        0.9992574453353882
      ],
      "scale": [
        1.0,
        3.725290298461914e-08,
        -2.1755905521558816e-08
      ],
      "translation": [
        4.2113800048828125,
        0.0,
        -1.52587890625e-05
      ]
    },
    {
      "name": "ru_bone02",
      "rotation": [
        2.538270427177025e-10,
        -9.264653044738225e-09,
        1.5229565519803145e-07,
        1.0
      ],
      "scale": [
        0.45864206552505493,
        -1.4202225990568324e-14,
        5.908077582716942e-09
      ],
      "translation": [
        8.651857376098633,
        0.0,
        9.5367431640625e-07
      ]
    },
    {
      "name": "lu_bone02",
      "rotation": [
        2.538261267837072e-10,
        -9.153604096923118e-09,
        1.5026506616777624e-07,
        1.0
      ],
      "scale": [
        0.45864200592041016,
        -1.4202330175620836e-14,
        1.0186340659856796e-10
      ],
      "translation": [
        8.65185546875,
        0.0,
        9.5367431640625e-07
      ]
    },
    {
      "name": "Bip01 R Toe0Nub",
      "rotation": [
        -1.1102230246251565e-16,
        -3.7252898543727042e-09,
        8.88178366760566e-16,
        1.0
      ],
      "scale": [
        1.0000001192092896,
        -1.0587911840678754e-22,
        -7.450581485102248e-09
      ],
      "translation": [
        8.29824447631836,
        0.0,
        0.0
      ]
    },
    {
      "name": "Bip01 L Toe0Nub",
      "rotation": [
        0.0,
        3.725290298461914e-09,
        0.0,
        1.0
      ],
      "scale": [
        1.0,
        0.0,
        -7.450580596923828e-09
      ],
      "translation": [
        8.29824447631836,
        0.0,
        0.0
      ]
    },
    {
      "children": [
        76
      ],
      "name": "Bip01 R Finger2",
      "rotation": [
        -0.010701315477490425,
        0.022079063579440117,
        0.12060806155204773,
        0.9923969507217407
      ],
      "scale": [
        0.9999995231628418,
        -4.314933903515339e-07,
        -8.195638656616211e-08
      ],
      "translation": [
        8.930450439453125,
        -0.6634063720703125,
        -0.9564824104309082
      ]
    },
    {
      "children": [
        77
      ],
      "name": "Bip01 R Finger21",
      "rotation": [
        4.0829201131131754e-10,
        5.420392953925379e-11,
        0.11640207469463348,
        0.9932021498680115
      ],
      "scale": [
        1.0,
        -1.4901161193847656e-08,
        -9.18703779717589e-10
      ],
      "translation": [
        3.7396926879882813,
        0.0,
        9.5367431640625e-07
      ]
    },
    {
      "children": [
        89
      ],
      "name": "Bip01 R Finger22",
      "rotation": [
        5.853358353569149e-10,
        4.3539388761004716e-10,
        0.11640210449695587,
        0.993202269077301
      ],
      "scale": [
        1.0,
        4.470348358154297e-08,
        -2.065368320813832e-09
      ],
      "translation": [
        3.7396926879882813,
        0.0,
        -9.5367431640625e-07
      ]
    },
    {
      "children": [
        79
      ],
      "name": "Bip01 L Finger2",
      "rotation": [
        0.01070131454616785,
        -0.022079065442085266,
        0.12060806155204773,
        0.9923969507217407
      ],
      "scale": [
        0.9999995231628418,
        -4.016328603029251e-07,
        8.940696716308594e-08
      ],
      "translation": [
        8.930450439453125,
        -0.66339111328125,
        0.9564805030822754
      ]
    },
    {
      "children": [
        80
      ],
      "name": "Bip01 L Finger21",
      "rotation": [
        4.3539388761004716e-10,
        1.7704400445683888e-10,
        0.11640210449695587,
        0.993202269077301
      ],
      "scale": [
        0.9999999403953552,
        2.9802322387695313e-08,
        -6.810031982773523e-10
      ],
      "translation": [
        3.7396888732910156,
        0.0,
        -9.5367431640625e-07
      ]
    },
    {
      "children": [
        90
      ],
      "name": "Bip01 L Finger22",
      "rotation": [
        -1.499420448913824e-10,
        -7.20845938495529e-10,
        0.11640210449695587,
        0.9932021498680115
      ],
      "scale": [
        1.0,
        1.4901161193847656e-08,
        1.3969838619232178e-09
      ],
      "translation": [
        3.7396926879882813,
        -1.52587890625e-05,
        -9.5367431640625e-07
      ]
    },
    {
      "children": [
        85
      ],
      "name": "Bip01 L Finger1",
      "rotation": [
        0.00017513609782326967,
        0.07781512290239334,
        0.11223242431879044,
        0.9906304478645325
      ],
      "scale": [
        0.9999996423721313,
        -5.371402949094772e-07,
        -4.023313522338867e-07
      ],
      "translation": [
        9.007843017578125,
        -0.879119873046875,
        -2.345938205718994
      ]
    },
    {
      "children": [
        83
      ],
      "name": "Bip01 R Finger1",
      "rotation": [
        -0.0001751342206262052,
        -0.07781512290239334,
        0.11223242431879044,
        0.9906304478645325
      ],
      "scale": [
        0.9999995827674866,
        -5.662441253662109e-07,
        4.172325134277344e-07
      ],
      "translation": [
        9.007843017578125,
        -0.879119873046875,
        2.345937728881836
      ]
    },
    {
      "children": [
        84
      ],
      "name": "Bip01 R Finger11",
      "rotation": [
        -2.3431065976353693e-09,
        -8.256289873997957e-09,
        0.11640208959579468,
        0.9932021498680115
      ],
      "scale": [
        1.0,
        1.4901161193847656e-08,
        1.5810124764925604e-08
      ],
      "translation": [
        3.5907135009765625,
        1.52587890625e-05,
        9.5367431640625e-07
      ]
    },
    {
      "children": [
        91
      ],
      "name": "Bip01 R Finger12",
      "rotation": [
        -6.793117179881847e-10,
        6.637555394206629e-09,
        0.11640208959579468,
        0.9932021498680115
      ],
      "scale": [
        1.0,
        -1.4901161193847656e-08,
        -3.42079609083612e-09
      ],
      "translation": [
        3.590709686279297,
        0.0,
        1.9073486328125e-06
      ]
    },
    {
      "children": [
        86
      ],
      "name": "Bip01 L Finger11",
      "rotation": [
        -1.1671470456775523e-09,
        3.537355963700861e-09,
        0.11640208214521408,
        0.9932021498680115
      ],
      "scale": [
        1.0,
        2.7188410956825805e-17,
        -1.2259441461992537e-08
      ],
      "translation": [
        3.590717315673828,
        1.52587890625e-05,
        0.0
      ]
    },
    {
      "children": [
        92
      ],
      "name": "Bip01 L Finger12",
      "rotation": [
        -3.7795113705385575e-09,
        -1.1960116230724793e-09,
        0.11640208214521408,
        0.9932021498680115
      ],
      "scale": [
        1.0,
        -1.6717720535113165e-17,
        -8.946457796810137e-09
      ],
      "translation": [
        3.5907135009765625,
        0.0,
        9.5367431640625e-07
      ]
    },
    {
      "name": "Bip01 L Finger0Nub",
      "rotation": [
        3.725290298461914e-09,
        3.725290298461914e-09,
        9.313225746154785e-10,
        1.0
      ],
      "scale": [
        1.0,
        7.450580152834618e-09,
        -7.450580596923828e-09
      ],
      "translation": [
        4.83111572265625,
        0.0,
        1.52587890625e-05
      ]
    },
    {
      "name": "Bip01 R Finger0Nub",
      "rotation": [
        -1.0408342510222068e-17,
        0.0,
        1.3969838619232178e-09,
        1.0
      ],
      "scale": [
        0.9999999403953552,
        -9.313223525708736e-10,
        1.4901160305669237e-08
      ],
      "translation": [
        4.831111907958984,
        1.9073486328125e-06,
        0.0
      ]
    },
    {
      "name": "Bip01 R Finger2Nub",
      "rotation": [
        4.6566123179658803e-10,
        -2.3283064365386963e-10,
        -2.9802322387695313e-08,
        1.0
      ],
      "scale": [
        1.0,
        4.336808689942018e-19,
        -2.3283064365386963e-09
      ],
      "translation": [
        3.739696502685547,
        0.0,
        0.0
      ]
    },
    {
      "name": "Bip01 L Finger2Nub",
      "rotation": [
        2.3283064365386963e-10,
        4.656612873077393e-10,
        1.0842021724855044e-19,
        1.0
      ],
      "scale": [
        1.0,
        -4.336808689942018e-19,
        0.0
      ],
      "translation": [
        3.7396888732910156,
        -1.52587890625e-05,
        9.5367431640625e-07
      ]
    },
    {
      "name": "Bip01 R Finger1Nub",
      "rotation": [
        -4.656612873077393e-10,
        -1.862645149230957e-09,
        -4.336808689942018e-19,
        1.0
      ],
      "scale": [
        0.9999999403953552,
        -3.122502256758253e-17,
        -1.303851515643828e-08
      ],
      "translation": [
        3.590717315673828,
        0.0,
        9.5367431640625e-07
      ]
    },
    {
      "name": "Bip01 L Finger1Nub",
      "rotation": [
        5.587935447692871e-09,
        1.3969840839678227e-09,
        -1.4901161193847656e-08,
        1.0
      ],
      "scale": [
        0.9999998807907104,
        2.9802318834981634e-08,
        -2.7939677238464355e-09
      ],
      "translation": [
        3.5907135009765625,
        0.0,
        -9.5367431640625e-07
      ]
    }
  ],
  "scene": 0,
  "scenes": [
    {
      "nodes": [
        0
      ]
    }
  ],
  "skins": [
    {
      "inverseBindMatrices": 4,
      "joints": [
        2,
        3,
        4,
        5,
        6,
        7,
        8,
        9,
        10,
        11,
        12,
        13,
        14,
        15,
        16,
        17,
        18,
        19,
        20,
        21,
        22,
        23,
        24,
        25,
        26,
        27,
        28,
        29,
        30,
        31,
        32,
        33,
        34,
        35,
        36,
        37,
        38,
        39,
        40,
        41,
        42,
        43,
        44,
        45,
        46,
        47,
        48,
        49,
        50,
        51,
        52,
        53,
        54,
        55,
        56,
        57,
        58,
        59,
        60,
        61,
        62,
        63,
        64,
        65,
        66,
        67,
        68,
        69,
        70,
        71,
        72,
        73,
        74,
        75,
        76,
        77,
        78,
        79,
        80,
        81,
        82,
        83,
        84,
        85,
        86,
        87,
        88,
        89,
        90,
        91,
        92
      ],
      "skeleton": 2
    }
  ]
}
