{
  "accessors": [
    {
      "bufferView": 0,
      "componentType": 5126,
      "count": 340,
      "max": [
        171.75535583496094,
        169.9469757080078,
        169.20668029785156
      ],
      "min": [
        -10.64016342163086,
        -10.78426742553711,
        -10.85726547241211
      ],
      "type": "VEC3"
    },
    {
      "bufferView": 1,
      "componentType": 5126,
      "count": 340,
      "type": "VEC3"
    },
    {
      "bufferView": 2,
      "componentType": 5126,
      "count": 340,
      "type": "VEC2"
    },
    {
      "bufferView": 3,
      "componentType": 5123,
      "count": 1338,
      "type": "SCALAR"
    },
    {
      "bufferView": 4,
      "componentType": 5126,
      "count": 22,
      "type": "MAT4"
    }
  ],
  "asset": {
    "generator": "gr2togltf (ANKA2 Project)",
    "version": "2.0"
  },
  "bufferViews": [
    {
      "buffer": 0,
      "byteLength": 4080,
      "target": 34962
    },
    {
      "buffer": 0,
      "byteLength": 4080,
      "byteOffset": 4080,
      "target": 34962
    },
    {
      "buffer": 0,
      "byteLength": 2720,
      "byteOffset": 8160,
      "target": 34962
    },
    {
      "buffer": 0,
      "byteLength": 2676,
      "byteOffset": 10880,
      "target": 34963
    },
    {
      "buffer": 0,
      "byteLength": 1408,
      "byteOffset": 13556
    }
  ],
  "buffers": [
    {
      "byteLength": 14964,
      "uri": "data:application/octet-stream;base64,"
    }
  ],
  "materials": [
    {
      "name": "default",
      "pbrMetallicRoughness": {
        "baseColorFactor": [
          0.8,
          0.8,
          0.8,
          1.0
        ],
        "metallicFactor": 0.0,
        "roughnessFactor": 0.8
      }
    }
  ],
  "meshes": [
    {
      "name": "hair_52_1",
      "primitives": [
        {
          "attributes": {
            "NORMAL": 1,
            "POSITION": 0,
            "TEXCOORD_0": 2
          },
          "indices": 3,
          "material": 0,
          "mode": 4
        }
      ]
    }
  ],
  "nodes": [
    {
      "children": [
        1,
        2
      ]
    },
    {
      "mesh": 0,
      "name": "hair_52_1",
      "skin": 0
    },
    {
      "children": [
        3
      ],
      "name": "Bip01",
      "rotation": [
        0.0,
        0.0,
        0.0,
        0.9999999403953552
      ],
      "scale": [
        0.9999997615814209,
        -5.117093408073606e-14,
        0.0
      ],
      "translation": [
        0.0,
        9.947598300641403e-14,
        0.0
      ]
    },
    {
      "children": [
        4
      ],
      "name": "Bip01 Pelvis",
      "rotation": [
        -0.4999993145465851,
        -0.5,
        -0.5,
        0.5000006556510925
      ],
      "scale": [
        1.0,
        6.755036055564761e-20,
        -2.6671148450016795e-18
      ],
      "translation": [
        2.714576244354248,
        -2.984279490192421e-13,
        0.0
      ]
    },
    {
      "children": [
        5
      ],
      "name": "Bip01 Spine",
      "rotation": [
        -2.0994200440327404e-06,
        -7.13202211954922e-07,
        0.02897808514535427,
        0.9995800256729126
      ],
      "scale": [
        1.0000001192092896,
        -3.724561326023945e-09,
        -1.6604279800061517e-13
      ],
      "translation": [
        6.193992614746094,
        -0.009989559650421143,
        8.603674359619617e-06
      ]
    },
    {
      "children": [
        6
      ],
      "name": "Bip01 Spine1",
      "rotation": [
        3.2099401126505986e-14,
        2.445134725803655e-07,
        -0.08815741539001465,
        0.9961065649986267
      ],
      "scale": [
        1.0,
        -1.0468244937555937e-08,
        -3.4335168307706235e-14
      ],
      "translation": [
        12.570350646972656,
        -0.0077838897705078125,
        -2.1591404220089316e-08
      ]
    },
    {
      "children": [
        7
      ],
      "name": "Bip01 Spine2",
      "rotation": [
        3.559358652271711e-15,
        1.693989304385468e-07,
        -0.061075467616319656,
        0.9981331825256348
      ],
      "scale": [
        1.0,
        6.99740863396945e-15,
        -1.902568475486109e-14
      ],
      "translation": [
        9.930061340332031,
        -0.0120849609375,
        -3.352033672854304e-08
      ]
    },
    {
      "children": [
        8,
        14,
        19
      ],
      "name": "Bip01 Neck",
      "rotation": [
        5.889240511274332e-14,
        -7.252509135469154e-07,
        0.2614835798740387,
        0.9652079343795776
      ],
      "scale": [
        1.0000003576278687,
        2.6158426535971557e-08,
        -7.844087521451798e-14
      ],
      "translation": [
        18.59967803955078,
        -1.148294448852539,
        -1.1849188013002276e-06
      ]
    },
    {
      "children": [
        9
      ],
      "name": "Bip01 Head",
      "rotation": [
        -3.487329511536047e-14,
        -7.363405529758893e-08,
        0.026547500863671303,
        0.9996475577354431
      ],
      "scale": [
        0.9999995827674866,
        1.7508204608329692e-10,
        6.670162875808613e-14
      ],
      "translation": [
        8.269378662109375,
        0.0,
        0.0
      ]
    },
    {
      "children": [
        10
      ],
      "name": "Bip01 Ponytail1",
      "rotation": [
        1.847844143323951e-12,
        -2.772950665530516e-06,
        0.9997656941413879,
        -0.02164709009230137
      ],
      "scale": [
        0.9999997615814209,
        -2.955254374548133e-10,
        1.5824819753207375e-13
      ],
      "translation": [
        6.120635986328125,
        -6.112083435058594,
        -1.6952501027844846e-05
      ]
    },
    {
      "children": [
        11
      ],
      "name": "Bip01 Ponytail11",
      "rotation": [
        -6.218652895010951e-15,
        -5.8934503499585844e-08,
        0.02124837040901184,
        0.9997742176055908
      ],
      "scale": [
        1.0,
        2.532430931623253e-09,
        9.191657309413903e-14
      ],
      "translation": [
        11.2379150390625,
        -0.00894927978515625,
        -2.4796463549137115e-08
      ]
    },
    {
      "children": [
        12
      ],
      "name": "Bip01 Ponytail12",
      "rotation": [
        -5.162680721294832e-14,
        1.8297039616754773e-07,
        -0.06596855819225311,
        0.9978216886520386
      ],
      "scale": [
        1.0000001192092896,
        -9.223946606518041e-10,
        -1.8075020375828837e-13
      ],
      "translation": [
        11.236343383789063,
        -0.0088653564453125,
        -2.459273673593998e-08
      ]
    },
    {
      "children": [
        13
      ],
      "name": "Bip01 Ponytail13",
      "rotation": [
        1.1482514158250856e-13,
        1.829703535349836e-07,
        -0.06596855819225311,
        0.9978216886520386
      ],
      "scale": [
        0.9999998807907104,
        9.224123131978956e-10,
        -2.6956859121751893e-14
      ],
      "translation": [
        11.236351013183594,
        -0.00887298583984375,
        -2.4607288651168346e-08
      ]
    },
    {
      "name": "Bip01 Ponytail14",
      "rotation": [
        -2.6703520461074078e-15,
        1.829703535349836e-07,
        -0.06596854329109192,
        0.9978216886520386
      ],
      "scale": [
        1.0000001192092896,
        -9.223911079381253e-10,
        -2.9064620566380704e-15
      ],
      "translation": [
        11.236343383789063,
        -0.00887298583984375,
        -2.459273673593998e-08
      ]
    },
    {
      "children": [
        15
      ],
      "name": "Bip01 R Clavicle",
      "rotation": [
        -0.609510600566864,
        0.2381272166967392,
        0.7433037757873535,
        0.13889458775520325
      ],
      "scale": [
        1.0,
        -3.7082735104831954e-08,
        -4.853704282936633e-08
      ],
      "translation": [
        -1.8450927734375,
        1.0423774719238281,
        -2.495269298553467
      ]
    },
    {
      "children": [
        16
      ],
      "name": "Bip01 R UpperArm",
      "rotation": [
        -0.13511957228183746,
        -0.021313395351171494,
        -0.05337771028280258,
        0.9891608953475952
      ],
      "scale": [
        1.0,
        -9.01797747587807e-09,
        -7.934673362797184e-09
      ],
      "translation": [
        11.936210632324219,
        0.0,
        -1.52587890625e-05
      ]
    },
    {
      "children": [
        17
      ],
      "name": "Bip01 R ForeArm",
      "rotation": [
        2.0582130444424251e-10,
        1.1167869296002664e-08,
        -0.02882891707122326,
        0.9995843768119812
      ],
      "scale": [
        0.9999999403953552,
        -3.151394700751098e-09,
        -2.2365163943049993e-08
      ],
      "translation": [
        23.69732666015625,
        0.0,
        0.0
      ]
    },
    {
      "children": [
        18
      ],
      "name": "Bip01 R Hand",
      "rotation": [
        0.7051334381103516,
        0.06748095154762268,
        -0.06658753752708435,
        0.7027085423469543
      ],
      "scale": [
        1.0000001192092896,
        3.7357503757107224e-09,
        -1.458518195107672e-09
      ],
      "translation": [
        22.580636978149414,
        9.5367431640625e-07,
        1.52587890625e-05
      ]
    },
    {
      "name": "equip_right",
      "rotation": [
        3.061723532482574e-07,
        -4.019494781459798e-07,
        2.821908253736183e-07,
        1.0
      ],
      "scale": [
        0.9999995231628418,
        -6.146686359898013e-08,
        9.4812939721578e-08
      ],
      "translation": [
        5.946506500244141,
        0.677276611328125,
        -0.03369855880737305
      ]
    },
    {
      "children": [
        20
      ],
      "name": "Bip01 L Clavicle",
      "rotation": [
        0.6095110177993774,
        -0.23812930285930634,
        0.743303120136261,
        0.13889291882514954
      ],
      "scale": [
        0.9999999403953552,
        -4.793485786080964e-08,
        4.196642677811724e-08
      ],
      "translation": [
        -1.8450927734375,
        1.0423622131347656,
        2.4952707290649414
      ]
    },
    {
      "children": [
        21
      ],
      "name": "Bip01 L UpperArm",
      "rotation": [
        0.13511957228183746,
        0.021313389763236046,
        -0.05337771028280258,
        0.9891608953475952
      ],
      "scale": [
        0.9999999403953552,
        -1.0924727789074495e-09,
        -1.44989922290506e-08
      ],
      "translation": [
        11.936209678649902,
        -3.814697265625e-06,
        1.52587890625e-05
      ]
    },
    {
      "children": [
        22
      ],
      "name": "Bip01 L ForeArm",
      "rotation": [
        -4.116427199107875e-10,
        -1.4894968813905507e-08,
        -0.028828918933868408,
        0.9995843768119812
      ],
      "scale": [
        1.0,
        5.677027736794571e-10,
        4.47045174212235e-08
      ],
      "translation": [
        23.697330474853516,
        0.0,
        1.52587890625e-05
      ]
    },
    {
      "children": [
        23
      ],
      "name": "Bip01 L Hand",
      "rotation": [
        -0.7049362063407898,
        -0.06950603425502777,
        -0.0645693764090538,
        0.702897310256958
      ],
      "scale": [
        0.9999999403953552,
        -8.178926869106817e-09,
        -2.6706901135042926e-09
      ],
      "translation": [
        22.58063316345215,
        -9.5367431640625e-07,
        -1.52587890625e-05
      ]
    },
    {
      "name": "equip_left",
      "rotation": [
        0.9990437626838684,
        0.04362672567367554,
        -0.002839059801772237,
        -0.0004196411755401641
      ],
      "scale": [
        1.0000001192092896,
        -9.712298743025372e-10,
        2.64058400034628e-07
      ],
      "translation": [
        5.658180236816406,
        3.974212646484375,
        0.0033745765686035156
      ]
    }
  ],
  "scene": 0,
  "scenes": [
    {
      "nodes": [
        0
      ]
    }
  ],
  "skins": [
    {
      "inverseBindMatrices": 4,
      "joints": [
        2,
        3,
        4,
        5,
        6,
        7,
        8,
        9,
        10,
        11,
        12,
        13,
        14,
        15,
        16,
        17,
        18,
        19,
        20,
        21,
        22,
        23
      ],
      "skeleton": 2
    }
  ]
}
