{
  "accessors": [
    {
      "bufferView": 0,
      "componentType": 5126,
      "count": 551,
      "max": [
        173.35919189453125,
        171.49560546875,
        171.26434326171875
      ],
      "min": [
        -13.671579360961914,
        -12.441682815551758,
        -14.716802597045898
      ],
      "type": "VEC3"
    },
    {
      "bufferView": 1,
      "componentType": 5126,
      "count": 551,
      "type": "VEC3"
    },
    {
      "bufferView": 2,
      "componentType": 5126,
      "count": 551,
      "type": "VEC2"
    },
    {
      "bufferView": 3,
      "componentType": 5123,
      "count": 2214,
      "type": "SCALAR"
    },
    {
      "bufferView": 4,
      "componentType": 5126,
      "count": 91,
      "type": "MAT4"
    }
  ],
  "asset": {
    "generator": "gr2togltf (ANKA2 Project)",
    "version": "2.0"
  },
  "bufferViews": [
    {
      "buffer": 0,
      "byteLength": 6612,
      "target": 34962
    },
    {
      "buffer": 0,
      "byteLength": 6612,
      "byteOffset": 6612,
      "target": 34962
    },
    {
      "buffer": 0,
      "byteLength": 4408,
      "byteOffset": 13224,
      "target": 34962
    },
    {
      "buffer": 0,
      "byteLength": 4428,
      "byteOffset": 17632,
      "target": 34963
    },
    {
      "buffer": 0,
      "byteLength": 5824,
      "byteOffset": 22060
    }
  ],
  "buffers": [
    {
      "byteLength": 27884,
      "uri": "data:application/octet-stream;base64,"
    }
  ],
  "materials": [
    {
      "name": "default",
      "pbrMetallicRoughness": {
        "baseColorFactor": [
          0.8,
          0.8,
          0.8,
          1.0
        ],
        "metallicFactor": 0.0,
        "roughnessFactor": 0.8
      }
    }
  ],
  "meshes": [
    {
      "name": "hair_64_1",
      "primitives": [
        {
          "attributes": {
            "NORMAL": 1,
            "POSITION": 0,
            "TEXCOORD_0": 2
          },
          "indices": 3,
          "material": 0,
          "mode": 4
        }
      ]
    }
  ],
  "nodes": [
    {
      "children": [
        1,
        2
      ]
    },
    {
      "mesh": 0,
      "name": "hair_64_1",
      "skin": 0
    },
    {
      "children": [
        3
      ],
      "name": "Bip01",
      "rotation": [
        0.0,
        0.0,
        0.0,
        0.9999999403953552
      ],
      "scale": [
        0.9999997615814209,
        -5.117093408073606e-14,
        0.0
      ],
      "translation": [
        0.0,
        2.2737367544323206e-13,
        0.0
      ]
    },
    {
      "children": [
        4
      ],
      "name": "Bip01 Pelvis",
      "rotation": [
        -0.4999993145465851,
        -0.5,
        -0.5,
        0.5000006556510925
      ],
      "scale": [
        1.0,
        6.755036055564761e-20,
        -2.6671148450016795e-18
      ],
      "translation": [
        2.714235544204712,
        2.476021791153471e-06,
        0.0
      ]
    },
    {
      "children": [
        5,
        11,
        17,
        23,
        26,
        31,
        36
      ],
      "name": "Bip01 Spine",
      "rotation": [
        -2.0994200440327404e-06,
        -7.13202211954922e-07,
        0.02897808514535427,
        0.9995800256729126
      ],
      "scale": [
        1.0000001192092896,
        -3.724561326023945e-09,
        -1.6604279800061517e-13
      ],
      "translation": [
        6.193992614746094,
        -0.009989559650421143,
        8.603674359619617e-06
      ]
    },
    {
      "children": [
        6
      ],
      "name": "right_bone01",
      "rotation": [
        -0.09812251478433609,
        -0.7002662420272827,
        0.7047734260559082,
        -0.05738968029618263
      ],
      "scale": [
        0.9999990463256836,
        -2.0429208547056987e-08,
        -2.6963076216190984e-09
      ],
      "translation": [
        3.5177536010742188,
        -1.6281228065490723,
        -9.5159912109375
      ]
    },
    {
      "children": [
        7
      ],
      "name": "right_bone02",
      "rotation": [
        3.552706902536923e-15,
        1.4217918969982105e-14,
        -0.0019964950624853373,
        0.9999979734420776
      ],
      "scale": [
        1.0,
        7.212520802823974e-09,
        2.825966609836363e-17
      ],
      "translation": [
        17.058738708496094,
        -9.5367431640625e-05,
        1.1920928955078125e-07
      ]
    },
    {
      "children": [
        8
      ],
      "name": "right_bone03",
      "rotation": [
        -1.2485836542734836e-14,
        7.1011261242948445e-15,
        0.002410076092928648,
        0.999997079372406
      ],
      "scale": [
        0.9999999403953552,
        4.053615494923618e-28,
        -4.258102388483148e-14
      ],
      "translation": [
        17.697647094726563,
        -3.814697265625e-06,
        -1.1920928955078125e-07
      ]
    },
    {
      "children": [
        9
      ],
      "name": "right_bone04",
      "rotation": [
        1.7763298402250567e-15,
        4.886011618051905e-17,
        -0.005501159466803074,
        0.999984860420227
      ],
      "scale": [
        1.0,
        1.4519966562431819e-08,
        1.1726234124537888e-16
      ],
      "translation": [
        17.533348083496094,
        -0.0001983642578125,
        0.0
      ]
    },
    {
      "children": [
        10
      ],
      "name": "right_bone05",
      "rotation": [
        -2.5413082706591096e-15,
        7.027596888209593e-15,
        -0.017286645248532295,
        0.9998505711555481
      ],
      "scale": [
        1.0,
        -7.4461277144166615e-09,
        -1.445647563518091e-14
      ],
      "translation": [
        17.377683639526367,
        -1.9073486328125e-06,
        0.0
      ]
    },
    {
      "name": "right_bone06",
      "rotation": [
        2.6645352591003757e-15,
        7.105427357601002e-15,
        3.725290298461914e-09,
        1.0
      ],
      "scale": [
        1.0,
        -7.450580596923828e-09,
        -1.4210853868169056e-14
      ],
      "translation": [
        18.117725372314453,
        2.6702880859375e-05,
        -1.1920928955078125e-07
      ]
    },
    {
      "children": [
        12
      ],
      "name": "left_bone01",
      "rotation": [
        0.19970197975635529,
        0.6783204674720764,
        0.6887510418891907,
        -0.16007038950920105
      ],
      "scale": [
        1.0,
        -1.0121207871804927e-08,
        8.48145664811284e-10
      ],
      "translation": [
        3.5177536010742188,
        -1.6281490325927734,
        9.515979766845703
      ]
    },
    {
      "children": [
        13
      ],
      "name": "left_bone02",
      "rotation": [
        -3.320023140277904e-15,
        4.4484192567864015e-15,
        -0.001996491337195039,
        0.9999979734420776
      ],
      "scale": [
        1.0,
        -2.3799984205652436e-10,
        -1.0656360573146374e-14
      ],
      "translation": [
        17.058738708496094,
        -8.7738037109375e-05,
        0.0
      ]
    },
    {
      "children": [
        14
      ],
      "name": "left_bone03",
      "rotation": [
        4.408770226860579e-16,
        -1.3204905893306825e-15,
        0.002410068642348051,
        0.999997079372406
      ],
      "scale": [
        1.0,
        1.4613686261100156e-08,
        -2.6430987610295007e-15
      ],
      "translation": [
        17.697643280029297,
        0.0,
        0.0
      ]
    },
    {
      "children": [
        15
      ],
      "name": "left_bone04",
      "rotation": [
        -1.8858846369306306e-14,
        5.3692990774811735e-15,
        -0.00550117390230298,
        0.999984860420227
      ],
      "scale": [
        1.0,
        -1.0481093770664529e-10,
        -5.456266067758141e-15
      ],
      "translation": [
        17.53335189819336,
        -0.0001983642578125,
        1.1920928955078125e-07
      ]
    },
    {
      "children": [
        16
      ],
      "name": "left_bone05",
      "rotation": [
        5.9789540058827716e-15,
        3.4178387167850674e-15,
        -0.017286626622080803,
        0.9998505711555481
      ],
      "scale": [
        1.0,
        -1.6952673931314166e-08,
        1.7122974316653022e-15
      ],
      "translation": [
        17.377681732177734,
        -7.62939453125e-06,
        0.0
      ]
    },
    {
      "name": "left_bone06",
      "rotation": [
        1.1102230246251565e-15,
        3.552713678800501e-15,
        7.450580596923828e-09,
        1.0
      ],
      "scale": [
        1.0,
        1.4901161193847656e-08,
        1.776357262916724e-15
      ],
      "translation": [
        18.11772346496582,
        3.0517578125e-05,
        0.0
      ]
    },
    {
      "children": [
        18
      ],
      "name": "back_bone01",
      "rotation": [
        9.356325136877786e-08,
        -4.911678956887044e-07,
        0.9823358058929443,
        -0.1871265023946762
      ],
      "scale": [
        0.9999991059303284,
        -5.802007763122674e-09,
        -5.463260188210209e-14
      ],
      "translation": [
        3.0302734375,
        -8.421607971191406,
        -1.1000001904903911e-05
      ]
    },
    {
      "children": [
        19
      ],
      "name": "back_bone02",
      "rotation": [
        -8.165301790929297e-16,
        1.7851243080306903e-14,
        -0.08938851207494736,
        0.9959968328475952
      ],
      "scale": [
        1.0000001192092896,
        1.8712778881990744e-08,
        -2.1429830227514234e-14
      ],
      "translation": [
        12.280601501464844,
        0.0,
        0.0
      ]
    },
    {
      "children": [
        20
      ],
      "name": "back_bone03",
      "rotation": [
        -5.4251270190347044e-15,
        1.419850666889693e-14,
        0.006767942104488611,
        0.9999771118164063
      ],
      "scale": [
        1.0,
        -1.4899796063616577e-08,
        -2.8373621675922486e-14
      ],
      "translation": [
        18.749595642089844,
        8.392333984375e-05,
        0.0
      ]
    },
    {
      "children": [
        21
      ],
      "name": "back_bone04",
      "rotation": [
        -1.9489436987548715e-14,
        7.117752534016499e-15,
        -0.007037448696792126,
        0.9999752044677734
      ],
      "scale": [
        1.0,
        -1.4899685041314115e-08,
        -1.4460870042111267e-14
      ],
      "translation": [
        17.046085357666016,
        0.00026702880859375,
        -1.8189894035458565e-12
      ]
    },
    {
      "children": [
        22
      ],
      "name": "back_bone05",
      "rotation": [
        -5.2669393809702276e-15,
        1.4249518381112374e-14,
        0.004368477035313845,
        0.9999904632568359
      ],
      "scale": [
        1.0,
        7.971054927224941e-09,
        2.854478331764006e-14
      ],
      "translation": [
        19.99405288696289,
        7.62939453125e-06,
        0.0
      ]
    },
    {
      "name": "back_bone06",
      "rotation": [
        8.881784197001252e-15,
        1.4210854715202004e-14,
        1.4901161193847656e-08,
        1.0
      ],
      "scale": [
        1.0,
        -4.0389678347315804e-28,
        -6.352747104407253e-22
      ],
      "translation": [
        18.22533416748047,
        0.0,
        0.0
      ]
    },
    {
      "children": [
        24
      ],
      "name": "front_bone01",
      "rotation": [
        6.769909788317818e-08,
        -6.877003784211411e-07,
        0.9902325868606567,
        0.1394253373146057
      ],
      "scale": [
        0.9999989867210388,
        -1.6458889362525042e-08,
        -1.2910206825572819e-14
      ],
      "translation": [
        4.354278564453125,
        7.451948165893555,
        1.2000000424450263e-05
      ]
    },
    {
      "children": [
        25
      ],
      "name": "front_bone02",
      "rotation": [
        -2.2808357926204005e-16,
        -3.5453845144661463e-15,
        -0.06419983506202698,
        0.9979370832443237
      ],
      "scale": [
        1.0000001192092896,
        -2.241575636219295e-08,
        7.105427357601002e-15
      ],
      "translation": [
        16.666854858398438,
        -1.9073486328125e-06,
        -9.094947017729282e-13
      ]
    },
    {
      "name": "front_bone03",
      "rotation": [
        -5.293955920339377e-23,
        -3.552713678800501e-15,
        -7.450580596923828e-09,
        1.0
      ],
      "scale": [
        1.0,
        1.4901161193847656e-08,
        7.105427357601002e-15
      ],
      "translation": [
        14.756553649902344,
        -3.814697265625e-06,
        9.094947017729282e-13
      ]
    },
    {
      "children": [
        27
      ],
      "name": "Bip01 R Thigh",
      "rotation": [
        -0.005618722178041935,
        0.9973922371864319,
        -0.005683479830622673,
        0.07172735035419464
      ],
      "scale": [
        1.0000001192092896,
        3.558844996476296e-09,
        -9.571228254401376e-10
      ],
      "translation": [
        -6.183006286621094,
        0.36882495880126953,
        -6.6108808517456055
      ]
    },
    {
      "children": [
        28
      ],
      "name": "Bip01 R Calf",
      "rotation": [
        7.061567441901673e-10,
        3.7248031325987085e-09,
        -0.0020579088013619184,
        0.9999978542327881
      ],
      "scale": [
        0.9999999403953552,
        3.7252587681280147e-09,
        -7.448664351983325e-09
      ],
      "translation": [
        43.94834518432617,
        4.76837158203125e-07,
        -1.9073486328125e-06
      ]
    },
    {
      "children": [
        29
      ],
      "name": "Bip01 R Foot",
      "rotation": [
        0.06650763750076294,
        0.07425316423177719,
        0.03141501545906067,
        0.9945231676101685
      ],
      "scale": [
        1.0,
        -1.234354929380288e-08,
        2.9496771247750075e-08
      ],
      "translation": [
        40.72791290283203,
        4.76837158203125e-07,
        1.9073486328125e-06
      ]
    },
    {
      "children": [
        30
      ],
      "name": "Bip01 R Toe0",
      "rotation": [
        2.6341777648042353e-09,
        -2.6341775427596303e-09,
        0.7071067094802856,
        0.7071067690849304
      ],
      "scale": [
        1.0000001192092896,
        -1.0587911840678754e-22,
        -7.450581485102248e-09
      ],
      "translation": [
        12.25244140625,
        10.997764587402344,
        0.0
      ]
    },
    {
      "name": "Bip01 R Toe0Nub",
      "rotation": [
        -1.1102230246251565e-16,
        -3.7252898543727042e-09,
        8.88178366760566e-16,
        1.0
      ],
      "scale": [
        1.0000001192092896,
        -1.0587911840678754e-22,
        -7.450581485102248e-09
      ],
      "translation": [
        8.298245429992676,
        0.0,
        0.0
      ]
    },
    {
      "children": [
        32
      ],
      "name": "Bip01 L Thigh",
      "rotation": [
        -0.005618920549750328,
        0.9973922371864319,
        0.005686240270733833,
        -0.07172724604606628
      ],
      "scale": [
        1.0000001192092896,
        2.5299913275489416e-09,
        4.934844755055678e-10
      ],
      "translation": [
        -6.183006286621094,
        0.3687882423400879,
        6.610882759094238
      ]
    },
    {
      "children": [
        33
      ],
      "name": "Bip01 L Calf",
      "rotation": [
        -1.5332636202347594e-11,
        -7.449607153375837e-09,
        -0.002057911129668355,
        0.9999978542327881
      ],
      "scale": [
        0.9999997615814209,
        -4.4067149929105653e-10,
        1.490307610652053e-08
      ],
      "translation": [
        43.94833755493164,
        4.76837158203125e-07,
        -1.9073486328125e-06
      ]
    },
    {
      "children": [
        34
      ],
      "name": "Bip01 L Foot",
      "rotation": [
        -0.06650764495134354,
        -0.07425308227539063,
        0.03141501918435097,
        0.9945231676101685
      ],
      "scale": [
        0.9999999403953552,
        -1.7187934631124335e-08,
        -2.8242801874966972e-08
      ],
      "translation": [
        40.72791290283203,
        0.0,
        -1.9073486328125e-06
      ]
    },
    {
      "children": [
        35
      ],
      "name": "Bip01 L Toe0",
      "rotation": [
        -2.6341777648042353e-09,
        2.6341777648042353e-09,
        0.7071067094802856,
        0.7071067690849304
      ],
      "scale": [
        1.0,
        0.0,
        7.450580596923828e-09
      ],
      "translation": [
        12.252439498901367,
        10.997764587402344,
        0.0
      ]
    },
    {
      "name": "Bip01 L Toe0Nub",
      "rotation": [
        0.0,
        3.725290298461914e-09,
        0.0,
        1.0
      ],
      "scale": [
        1.0,
        0.0,
        -7.450580596923828e-09
      ],
      "translation": [
        8.298245429992676,
        0.0,
        1.9073486328125e-06
      ]
    },
    {
      "children": [
        37
      ],
      "name": "Bip01 Spine1",
      "rotation": [
        3.2099401126505986e-14,
        2.445134725803655e-07,
        -0.08815741539001465,
        0.9961065649986267
      ],
      "scale": [
        1.0,
        -1.0468244937555937e-08,
        -3.4335168307706235e-14
      ],
      "translation": [
        12.570350646972656,
        -0.0077838897705078125,
        -2.1591404220089316e-08
      ]
    },
    {
      "children": [
        38,
        40,
        42
      ],
      "name": "Bip01 Spine2",
      "rotation": [
        4.449198103581402e-15,
        1.693988309625638e-07,
        -0.06107543781399727,
        0.9981331825256348
      ],
      "scale": [
        1.0,
        6.9974137161671335e-15,
        -1.540582169213406e-14
      ],
      "translation": [
        9.930061340332031,
        -0.012085914611816406,
        -3.352033672854304e-08
      ]
    },
    {
      "children": [
        39
      ],
      "name": "ru_bone01",
      "rotation": [
        -0.17921100556850433,
        0.12042774260044098,
        0.7256395816802979,
        0.6533205509185791
      ],
      "scale": [
        0.9999999403953552,
        -5.477732045733319e-09,
        4.949887166816325e-10
      ],
      "translation": [
        3.68719482421875,
        4.928731918334961,
        -5.072075843811035
      ]
    },
    {
      "name": "ru_bone02",
      "rotation": [
        -1.0153045071348288e-09,
        8.090708547570102e-09,
        1.5229568361974088e-07,
        1.0
      ],
      "scale": [
        0.45864197611808777,
        1.862645593320167e-09,
        1.4552008903434555e-11
      ],
      "translation": [
        8.65185546875,
        -7.62939453125e-06,
        9.5367431640625e-07
      ]
    },
    {
      "children": [
        41
      ],
      "name": "lu_bone01",
      "rotation": [
        0.11528582125902176,
        -0.06302982568740845,
        0.7384979128837585,
        0.6613299250602722
      ],
      "scale": [
        1.0,
        1.570774088577309e-08,
        1.0729071853177174e-08
      ],
      "translation": [
        3.68719482421875,
        4.928716659545898,
        5.072096824645996
      ]
    },
    {
      "name": "lu_bone02",
      "rotation": [
        1.0153047291794337e-09,
        5.838000305402602e-09,
        1.482344487158116e-07,
        1.0
      ],
      "scale": [
        0.45864206552505493,
        1.862647813766216e-09,
        1.7462303825155345e-09
      ],
      "translation": [
        8.651857376098633,
        0.0,
        9.5367431640625e-07
      ]
    },
    {
      "children": [
        43,
        64,
        85
      ],
      "name": "Bip01 Neck",
      "rotation": [
        -1.4723102972251725e-14,
        -7.252514251376851e-07,
        0.2614837884902954,
        0.9652078747749329
      ],
      "scale": [
        1.000000238418579,
        3.8805957558452064e-08,
        -3.272489430047182e-14
      ],
      "translation": [
        18.59966278076172,
        -1.1482963562011719,
        -1.1849188013002276e-06
      ]
    },
    {
      "children": [
        44,
        46
      ],
      "name": "Bip01 R Clavicle",
      "rotation": [
        -0.609510600566864,
        0.23812735080718994,
        0.7433037161827087,
        0.13889476656913757
      ],
      "scale": [
        1.0,
        1.1427184531953571e-08,
        -8.539746687574734e-10
      ],
      "translation": [
        -1.845062255859375,
        1.0423736572265625,
        -2.495269298553467
      ]
    },
    {
      "children": [
        45
      ],
      "name": "right_sh_01",
      "rotation": [
        -0.7749795317649841,
        0.17564637959003448,
        0.04531032592058182,
        0.6053941249847412
      ],
      "scale": [
        1.0,
        -1.213233957741977e-08,
        9.356480035194181e-10
      ],
      "translation": [
        4.489246368408203,
        0.011575698852539063,
        -1.4733428955078125
      ]
    },
    {
      "name": "right_sh_02",
      "rotation": [
        0.0,
        -6.217248937900877e-15,
        0.0,
        1.0
      ],
      "scale": [
        1.0,
        0.0,
        -5.1514348342607263e-14
      ],
      "translation": [
        24.97054672241211,
        -1.52587890625e-05,
        0.0
      ]
    },
    {
      "children": [
        47
      ],
      "name": "Bip01 R UpperArm",
      "rotation": [
        -0.1351195126771927,
        -0.021313443779945374,
        -0.05337775871157646,
        0.9891608953475952
      ],
      "scale": [
        1.0,
        -2.3296081508306088e-08,
        -1.7741440316854096e-08
      ],
      "translation": [
        11.936211585998535,
        0.0,
        -1.52587890625e-05
      ]
    },
    {
      "children": [
        48,
        51
      ],
      "name": "Bip01 R ForeArm",
      "rotation": [
        2.3273385996169793e-10,
        -6.7122561848986795e-12,
        -0.028828922659158707,
        0.9995843768119812
      ],
      "scale": [
        1.0,
        -6.586643230832578e-09,
        0.0
      ],
      "translation": [
        23.697328567504883,
        -4.76837158203125e-07,
        -1.52587890625e-05
      ]
    },
    {
      "children": [
        49
      ],
      "name": "rh_w_01",
      "rotation": [
        0.8026027679443359,
        0.5964059829711914,
        -0.010731496848165989,
        -0.0036825649440288544
      ],
      "scale": [
        1.0,
        -4.0756621189075304e-08,
        -4.705472456123516e-09
      ],
      "translation": [
        19.923717498779297,
        2.56986141204834,
        -1.6744232177734375
      ]
    },
    {
      "children": [
        50
      ],
      "name": "rh_w_02",
      "rotation": [
        3.7044665113228348e-09,
        -1.010978079030167e-09,
        -0.02143985591828823,
        0.9997701644897461
      ],
      "scale": [
        1.0000001192092896,
        3.094154621408052e-08,
        1.862645149230957e-09
      ],
      "translation": [
        18.202253341674805,
        0.0,
        0.0
      ]
    },
    {
      "name": "rh_w_03",
      "rotation": [
        4.637482561520301e-05,
        -0.004037307109683752,
        0.004922043532133102,
        0.9999797344207764
      ],
      "scale": [
        0.5082589983940125,
        -1.589348386232814e-08,
        -6.98142210708852e-10
      ],
      "translation": [
        13.761604309082031,
        5.7220458984375e-06,
        0.0
      ]
    },
    {
      "children": [
        52,
        56,
        60
      ],
      "name": "Bip01 R Hand",
      "rotation": [
        0.7051334381103516,
        0.06748095154762268,
        -0.06658753007650375,
        0.7027085423469543
      ],
      "scale": [
        1.0000001192092896,
        -1.0898546065618575e-08,
        -9.223217745102374e-10
      ],
      "translation": [
        22.58063316345215,
        0.0,
        1.52587890625e-05
      ]
    },
    {
      "children": [
        53
      ],
      "name": "Bip01 R Finger2",
      "rotation": [
        -0.01070131454616785,
        0.022079061716794968,
        0.12060805410146713,
        0.9923969507217407
      ],
      "scale": [
        0.9999995231628418,
        -4.3382192416174803e-07,
        -8.806561169194538e-08
      ],
      "translation": [
        8.930442810058594,
        -0.663421630859375,
        -0.9564809799194336
      ]
    },
    {
      "children": [
        54
      ],
      "name": "Bip01 R Finger21",
      "rotation": [
        8.165837450668789e-10,
        0.0,
        0.1164020225405693,
        0.9932022094726563
      ],
      "scale": [
        1.0000001192092896,
        1.2350907852010096e-08,
        -2.0527493038713374e-09
      ],
      "translation": [
        3.7396926879882813,
        1.52587890625e-05,
        9.5367431640625e-07
      ]
    },
    {
      "children": [
        55
      ],
      "name": "Bip01 R Finger22",
      "rotation": [
        -1.0840783132293197e-10,
        4.62495819419928e-10,
        0.1164020299911499,
        0.9932021498680115
      ],
      "scale": [
        0.9999999403953552,
        5.798942481760605e-08,
        -1.850026243310765e-09
      ],
      "translation": [
        3.7396926879882813,
        0.0,
        -9.5367431640625e-07
      ]
    },
    {
      "name": "Bip01 R Finger2Nub",
      "rotation": [
        0.0,
        -4.656612873077393e-10,
        2.168404344971009e-19,
        1.0
      ],
      "scale": [
        1.0,
        0.0,
        9.313225746154785e-10
      ],
      "translation": [
        3.739696502685547,
        0.0,
        0.0
      ]
    },
    {
      "children": [
        57
      ],
      "name": "Bip01 R Finger1",
      "rotation": [
        -0.00017513516650069505,
        -0.07781513035297394,
        0.11223243176937103,
        0.9906304478645325
      ],
      "scale": [
        0.9999995827674866,
        -5.476859996633721e-07,
        4.210027952922246e-07
      ],
      "translation": [
        9.007843017578125,
        -0.8791351318359375,
        2.345937728881836
      ]
    },
    {
      "children": [
        58
      ],
      "name": "Bip01 R Finger11",
      "rotation": [
        -1.0640264225258989e-09,
        -6.13528605697411e-09,
        0.11640201508998871,
        0.9932022094726563
      ],
      "scale": [
        1.0,
        -1.5928323549019296e-08,
        1.4137583548290422e-08
      ],
      "translation": [
        3.5907211303710938,
        1.52587890625e-05,
        9.5367431640625e-07
      ]
    },
    {
      "children": [
        59
      ],
      "name": "Bip01 R Finger12",
      "rotation": [
        -3.5950837862230856e-09,
        1.8788475220077316e-09,
        0.1164020225405693,
        0.9932022094726563
      ],
      "scale": [
        0.9999999403953552,
        5.798942481760605e-08,
        1.760761669800104e-08
      ],
      "translation": [
        3.590709686279297,
        -1.52587890625e-05,
        -9.5367431640625e-07
      ]
    },
    {
      "name": "Bip01 R Finger1Nub",
      "rotation": [
        -2.3283064365386963e-09,
        4.6566128730773926e-09,
        7.450580596923828e-09,
        1.0
      ],
      "scale": [
        1.0,
        1.4901161193847656e-08,
        -7.450580596923828e-09
      ],
      "translation": [
        3.5907249450683594,
        0.0,
        -9.5367431640625e-07
      ]
    },
    {
      "children": [
        61
      ],
      "name": "Bip01 R Finger0",
      "rotation": [
        -0.6464375853538513,
        -0.23017531633377075,
        -0.09677518904209137,
        0.7209523916244507
      ],
      "scale": [
        1.0000001192092896,
        1.843139472157418e-07,
        -2.6138042130696704e-07
      ],
      "translation": [
        0.8650360107421875,
        0.074554443359375,
        1.5068016052246094
      ]
    },
    {
      "children": [
        62
      ],
      "name": "Bip01 R Finger01",
      "rotation": [
        3.7266425501059075e-09,
        -6.762368442991828e-13,
        -0.00018151244148612022,
        1.0
      ],
      "scale": [
        1.0,
        8.381902283360887e-09,
        -1.4901161193847656e-08
      ],
      "translation": [
        4.211383819580078,
        1.9073486328125e-06,
        0.0
      ]
    },
    {
      "children": [
        63
      ],
      "name": "Bip01 R Finger02",
      "rotation": [
        -2.870706727886585e-10,
        0.0,
        0.038529977202415466,
        0.9992574453353882
      ],
      "scale": [
        1.0000001192092896,
        1.944663807762481e-08,
        -1.4879040222126605e-08
      ],
      "translation": [
        4.211374282836914,
        -3.814697265625e-06,
        0.0
      ]
    },
    {
      "name": "Bip01 R Finger0Nub",
      "rotation": [
        -3.725290076417309e-09,
        0.0,
        4.656612873077393e-10,
        1.0
      ],
      "scale": [
        1.0,
        9.31322685637781e-10,
        1.4901161193847656e-08
      ],
      "translation": [
        4.83111572265625,
        1.9073486328125e-06,
        -1.52587890625e-05
      ]
    },
    {
      "children": [
        65,
        67
      ],
      "name": "Bip01 L Clavicle",
      "rotation": [
        0.6095109581947327,
        -0.2381293922662735,
        0.7433030605316162,
        0.13889306783676147
      ],
      "scale": [
        1.0,
        -7.017855629953829e-09,
        5.706258576765322e-09
      ],
      "translation": [
        -1.845062255859375,
        1.0423583984375,
        2.4952707290649414
      ]
    },
    {
      "children": [
        66
      ],
      "name": "left_sh_01",
      "rotation": [
        0.7749796509742737,
        -0.17564763128757477,
        0.04530756175518036,
        0.6053938269615173
      ],
      "scale": [
        0.9999999403953552,
        4.803145436937939e-09,
        -4.257697305831698e-09
      ],
      "translation": [
        4.48924446105957,
        0.011537551879882813,
        1.4733428955078125
      ]
    },
    {
      "name": "left_sh_02",
      "rotation": [
        0.0,
        -1.1102230246251565e-15,
        0.0,
        1.0
      ],
      "scale": [
        1.0,
        0.0,
        2.220446049250313e-15
      ],
      "translation": [
        24.970552444458008,
        1.52587890625e-05,
        4.76837158203125e-07
      ]
    },
    {
      "children": [
        68
      ],
      "name": "Bip01 L UpperArm",
      "rotation": [
        0.1351195126771927,
        0.021313440054655075,
        -0.05337775871157646,
        0.9891608953475952
      ],
      "scale": [
        0.9999998807907104,
        -6.282715681038553e-09,
        -9.216409857515373e-10
      ],
      "translation": [
        11.936210632324219,
        0.0,
        1.52587890625e-05
      ]
    },
    {
      "children": [
        69,
        72
      ],
      "name": "Bip01 L ForeArm",
      "rotation": [
        -4.475260717562435e-10,
        -7.447483518774334e-09,
        -0.028828920796513557,
        0.9995843768119812
      ],
      "scale": [
        1.0,
        8.515534943853709e-10,
        1.4887741706104407e-08
      ],
      "translation": [
        23.697330474853516,
        0.0,
        3.0517578125e-05
      ]
    },
    {
      "children": [
        70
      ],
      "name": "lh_w_01",
      "rotation": [
        0.8734633326530457,
        0.48528188467025757,
        -0.01538873091340065,
        0.03642085939645767
      ],
      "scale": [
        1.0791689157485962,
        0.05250607430934906,
        -0.008415277116000652
      ],
      "translation": [
        19.92374610900879,
        2.570171356201172,
        1.6744842529296875
      ]
    },
    {
      "children": [
        71
      ],
      "name": "lh_w_02",
      "rotation": [
        -1.8622169362103591e-09,
        -3.9934833218069343e-11,
        -0.021439865231513977,
        0.9997701644897461
      ],
      "scale": [
        1.0,
        -2.4886436023052738e-08,
        -1.5970282041255501e-10
      ],
      "translation": [
        18.202259063720703,
        -3.814697265625e-06,
        0.0
      ]
    },
    {
      "name": "lh_w_03",
      "rotation": [
        4.637107122107409e-05,
        -0.004037315957248211,
        0.004922054708003998,
        0.9999797344207764
      ],
      "scale": [
        0.5082589983940125,
        1.3686372923871204e-08,
        6.104615923874235e-09
      ],
      "translation": [
        13.761604309082031,
        3.814697265625e-06,
        0.0
      ]
    },
    {
      "children": [
        73,
        77,
        81
      ],
      "name": "Bip01 L Hand",
      "rotation": [
        -0.7049362063407898,
        -0.06950603425502777,
        -0.0645693764090538,
        0.702897310256958
      ],
      "scale": [
        0.9999999403953552,
        -8.183318911392234e-09,
        2.214899930130798e-10
      ],
      "translation": [
        22.580629348754883,
        -9.5367431640625e-07,
        -1.52587890625e-05
      ]
    },
    {
      "children": [
        74
      ],
      "name": "Bip01 L Finger2",
      "rotation": [
        0.010701313614845276,
        -0.022079065442085266,
        0.12060804665088654,
        0.9923969507217407
      ],
      "scale": [
        0.9999994039535522,
        -3.9043041510922194e-07,
        8.957307073842458e-08
      ],
      "translation": [
        8.930450439453125,
        -0.6634063720703125,
        0.9564828872680664
      ]
    },
    {
      "children": [
        75
      ],
      "name": "Bip01 L Finger21",
      "rotation": [
        1.2195877641119068e-10,
        -3.468718368093704e-10,
        0.1164020299911499,
        0.9932021498680115
      ],
      "scale": [
        1.0,
        7.105582255917398e-08,
        2.0765476005379924e-09
      ],
      "translation": [
        3.739696502685547,
        0.0,
        0.0
      ]
    },
    {
      "children": [
        76
      ],
      "name": "Bip01 L Finger22",
      "rotation": [
        5.4203915661465984e-11,
        0.0,
        0.1164020225405693,
        0.9932022094726563
      ],
      "scale": [
        0.9999999403953552,
        2.756374684054208e-08,
        9.187036686952865e-10
      ],
      "translation": [
        3.73968505859375,
        0.0,
        -9.5367431640625e-07
      ]
    },
    {
      "name": "Bip01 L Finger2Nub",
      "rotation": [
        2.3283062977608182e-10,
        6.984919309616089e-10,
        0.0,
        1.0
      ],
      "scale": [
        1.0,
        2.980232594040899e-08,
        1.3969838619232178e-09
      ],
      "translation": [
        3.739696502685547,
        1.52587890625e-05,
        -1.9073486328125e-06
      ]
    },
    {
      "children": [
        78
      ],
      "name": "Bip01 L Finger1",
      "rotation": [
        0.0001751342206262052,
        0.07781513035297394,
        0.11223243176937103,
        0.9906304478645325
      ],
      "scale": [
        0.9999995827674866,
        -5.471703161674668e-07,
        -4.345196202848456e-07
      ],
      "translation": [
        9.007843017578125,
        -0.8791351318359375,
        -2.3459367752075195
      ]
    },
    {
      "children": [
        79
      ],
      "name": "Bip01 L Finger11",
      "rotation": [
        -6.251075213015156e-10,
        5.604153585636595e-09,
        0.1164020225405693,
        0.9932022094726563
      ],
      "scale": [
        1.0,
        -1.5928321772662457e-08,
        -2.6921969098481213e-09
      ],
      "translation": [
        3.5907135009765625,
        0.0,
        1.9073486328125e-06
      ]
    },
    {
      "children": [
        80
      ],
      "name": "Bip01 L Finger12",
      "rotation": [
        8.978895404965215e-10,
        -2.7894071497058803e-09,
        0.11640200018882751,
        0.9932022094726563
      ],
      "scale": [
        1.0000001192092896,
        2.8279227848315713e-08,
        -1.6198727081917497e-10
      ],
      "translation": [
        3.5907135009765625,
        0.0,
        9.5367431640625e-07
      ]
    },
    {
      "name": "Bip01 L Finger1Nub",
      "rotation": [
        -2.7939675018018306e-09,
        -9.313225746154785e-09,
        0.0,
        1.0
      ],
      "scale": [
        1.0,
        2.9802322387695313e-08,
        -3.725288078015865e-09
      ],
      "translation": [
        3.5907211303710938,
        0.0,
        -9.5367431640625e-07
      ]
    },
    {
      "children": [
        82
      ],
      "name": "Bip01 L Finger0",
      "rotation": [
        0.6464375853538513,
        0.23017531633377075,
        -0.09677518904209137,
        0.7209523916244507
      ],
      "scale": [
        1.0000001192092896,
        1.33342965114025e-07,
        2.3699669782217825e-07
      ],
      "translation": [
        0.8650436401367188,
        0.074554443359375,
        -1.5068001747131348
      ]
    },
    {
      "children": [
        83
      ],
      "name": "Bip01 L Finger01",
      "rotation": [
        -6.760703108454891e-13,
        -1.1175870895385742e-08,
        -0.0001814994029700756,
        1.0
      ],
      "scale": [
        1.0,
        -1.2085556555518906e-08,
        7.450581485102248e-09
      ],
      "translation": [
        4.21137809753418,
        -1.9073486328125e-06,
        0.0
      ]
    },
    {
      "children": [
        84
      ],
      "name": "Bip01 L Finger02",
      "rotation": [
        -3.722523844729153e-09,
        1.4353528088317802e-10,
        0.03852996975183487,
        0.9992574453353882
      ],
      "scale": [
        1.0000001192092896,
        2.403635690484407e-08,
        5.737151864693146e-10
      ],
      "translation": [
        4.2113800048828125,
        0.0,
        -1.52587890625e-05
      ]
    },
    {
      "name": "Bip01 L Finger0Nub",
      "rotation": [
        -3.725290298461914e-09,
        3.725290298461914e-09,
        -7.450580596923828e-09,
        1.0
      ],
      "scale": [
        1.0,
        2.0489096641540527e-08,
        7.450580152834618e-09
      ],
      "translation": [
        4.83111572265625,
        0.0,
        0.0
      ]
    },
    {
      "children": [
        86,
        92
      ],
      "name": "Bip01 Head",
      "rotation": [
        7.929786926923199e-14,
        -7.363339449284467e-08,
        0.026547251269221306,
        0.9996475577354431
      ],
      "scale": [
        0.9999999403953552,
        -5.755562936208961e-16,
        7.975309865640434e-14
      ],
      "translation": [
        8.269393920898438,
        0.0,
        0.0
      ]
    },
    {
      "children": [
        87
      ],
      "name": "Bip01 Ponytail1",
      "rotation": [
        1.9402361661757794e-12,
        -2.772950665530516e-06,
        0.9997656941413879,
        -0.021647000685334206
      ],
      "scale": [
        0.9999998211860657,
        2.2844255376242018e-09,
        -5.71856676053438e-14
      ],
      "translation": [
        6.120635986328125,
        -6.112087249755859,
        -1.6952501027844846e-05
      ]
    },
    {
      "children": [
        88
      ],
      "name": "Bip01 Ponytail11",
      "rotation": [
        2.9316504871488083e-14,
        -5.893421572977786e-08,
        0.021248292177915573,
        0.9997742176055908
      ],
      "scale": [
        1.0,
        1.3429174439139047e-09,
        8.468033674442765e-14
      ],
      "translation": [
        11.237899780273438,
        -0.00893402099609375,
        -2.478191163390875e-08
      ]
    },
    {
      "children": [
        89
      ],
      "name": "Bip01 Ponytail12",
      "rotation": [
        -5.340704007511521e-14,
        1.8297042458925716e-07,
        -0.06596856564283371,
        0.9978216886520386
      ],
      "scale": [
        0.9999999403953552,
        7.846944427569724e-09,
        -1.0605103221376228e-13
      ],
      "translation": [
        11.236358642578125,
        -0.008880615234375,
        -2.463639248162508e-08
      ]
    },
    {
      "children": [
        90
      ],
      "name": "Bip01 Ponytail13",
      "rotation": [
        -1.7802347679910175e-15,
        1.8297038195669302e-07,
        -0.06596855074167252,
        0.9978216886520386
      ],
      "scale": [
        0.9999999403953552,
        7.846942651212885e-09,
        6.477699371907134e-14
      ],
      "translation": [
        11.236343383789063,
        -0.0088653564453125,
        -2.459273673593998e-08
      ]
    },
    {
      "children": [
        91
      ],
      "name": "Bip01 Ponytail14",
      "rotation": [
        -1.1393502515142512e-13,
        1.829704530109666e-07,
        -0.0659685805439949,
        0.9978216886520386
      ],
      "scale": [
        1.0,
        8.814940591968679e-15,
        -3.602280013994749e-14
      ],
      "translation": [
        11.236343383789063,
        -0.0088653564453125,
        -2.4585460778325796e-08
      ]
    },
    {
      "name": "Bip01 Ponytail1Nub",
      "rotation": [
        0.7073882222175598,
        0.7068251967430115,
        9.802253089219448e-07,
        -9.810061101234169e-07
      ],
      "scale": [
        1.0,
        3.670962839263936e-11,
        -3.0979320671253863e-13
      ],
      "translation": [
        11.237525939941406,
        1.9073486328125e-06,
        7.275957614183426e-12
      ]
    },
    {
      "name": "Bip01 HeadNub",
      "rotation": [
        -6.394884621840902e-14,
        -2.842170943040401e-14,
        -2.0194839173657902e-27,
        1.0
      ],
      "scale": [
        0.9999999403953552,
        -6.462348535570529e-27,
        5.684341886080802e-14
      ],
      "translation": [
        20.161117553710938,
        -7.62939453125e-06,
        0.0
      ]
    }
  ],
  "scene": 0,
  "scenes": [
    {
      "nodes": [
        0
      ]
    }
  ],
  "skins": [
    {
      "inverseBindMatrices": 4,
      "joints": [
        2,
        3,
        4,
        5,
        6,
        7,
        8,
        9,
        10,
        11,
        12,
        13,
        14,
        15,
        16,
        17,
        18,
        19,
        20,
        21,
        22,
        23,
        24,
        25,
        26,
        27,
        28,
        29,
        30,
        31,
        32,
        33,
        34,
        35,
        36,
        37,
        38,
        39,
        40,
        41,
        42,
        43,
        44,
        45,
        46,
        47,
        48,
        49,
        50,
        51,
        52,
        53,
        54,
        55,
        56,
        57,
        58,
        59,
        60,
        61,
        62,
        63,
        64,
        65,
        66,
        67,
        68,
        69,
        70,
        71,
        72,
        73,
        74,
        75,
        76,
        77,
        78,
        79,
        80,
        81,
        82,
        83,
        84,
        85,
        86,
        87,
        88,
        89,
        90,
        91,
        92
      ],
      "skeleton": 2
    }
  ]
}
