{
  "accessors": [
    {
      "bufferView": 0,
      "componentType": 5126,
      "count": 314,
      "max": [
        169.94699096679688,
        169.20669555664063,
        170.1378173828125
      ],
      "min": [
        -7.790729522705078,
        -7.790729522705078,
        -8.538178443908691
      ],
      "type": "VEC3"
    },
    {
      "bufferView": 1,
      "componentType": 5126,
      "count": 314,
      "type": "VEC3"
    },
    {
      "bufferView": 2,
      "componentType": 5126,
      "count": 314,
      "type": "VEC2"
    },
    {
      "bufferView": 3,
      "componentType": 5123,
      "count": 684,
      "type": "SCALAR"
    },
    {
      "bufferView": 4,
      "componentType": 5126,
      "count": 87,
      "type": "MAT4"
    }
  ],
  "asset": {
    "generator": "gr2togltf (ANKA2 Project)",
    "version": "2.0"
  },
  "bufferViews": [
    {
      "buffer": 0,
      "byteLength": 3768,
      "target": 34962
    },
    {
      "buffer": 0,
      "byteLength": 3768,
      "byteOffset": 3768,
      "target": 34962
    },
    {
      "buffer": 0,
      "byteLength": 2512,
      "byteOffset": 7536,
      "target": 34962
    },
    {
      "buffer": 0,
      "byteLength": 1368,
      "byteOffset": 10048,
      "target": 34963
    },
    {
      "buffer": 0,
      "byteLength": 5568,
      "byteOffset": 11416
    }
  ],
  "buffers": [
    {
      "byteLength": 16984,
      "uri": "data:application/octet-stream;base64,"
    }
  ],
  "materials": [
    {
      "name": "default",
      "pbrMetallicRoughness": {
        "baseColorFactor": [
          0.8,
          0.8,
          0.8,
          1.0
        ],
        "metallicFactor": 0.0,
        "roughnessFactor": 0.8
      }
    }
  ],
  "meshes": [
    {
      "name": "Object02fd",
      "primitives": [
        {
          "attributes": {
            "NORMAL": 1,
            "POSITION": 0,
            "TEXCOORD_0": 2
          },
          "indices": 3,
          "material": 0,
          "mode": 4
        }
      ]
    }
  ],
  "nodes": [
    {
      "children": [
        1,
        2
      ]
    },
    {
      "mesh": 0,
      "name": "Object02fd",
      "skin": 0
    },
    {
      "children": [
        3
      ],
      "name": "Bip01",
      "rotation": [
        0.0,
        0.0,
        1.2687824124668623e-08,
        1.0
      ],
      "scale": [
        0.9999997615814209,
        -5.117093408073606e-14,
        0.0
      ],
      "translation": [
        5.960464477539063e-08,
        -2.842170943040401e-14,
        0.0
      ]
    },
    {
      "children": [
        4
      ],
      "name": "Bip01 Pelvis",
      "rotation": [
        -0.4999993145465851,
        -0.5,
        -0.5,
        0.5000006556510925
      ],
      "scale": [
        1.0,
        -1.4929007394145328e-19,
        -2.667114431411373e-18
      ],
      "translation": [
        0.9087960720062256,
        -9.414691248821327e-14,
        0.0
      ]
    },
    {
      "children": [
        5,
        11,
        17,
        23,
        26,
        31,
        36
      ],
      "name": "Bip01 Spine",
      "rotation": [
        -2.0994200440327404e-06,
        -7.13202211954922e-07,
        0.02897808514535427,
        0.9995800256729126
      ],
      "scale": [
        1.0000001192092896,
        -3.724561326023945e-09,
        -1.6604279800061517e-13
      ],
      "translation": [
        6.193992614746094,
        -0.009989544749259949,
        8.603677997598425e-06
      ]
    },
    {
      "children": [
        6
      ],
      "name": "right_bone01",
      "rotation": [
        -0.1285742074251175,
        -0.695319652557373,
        0.7015994191169739,
        -0.08807697147130966
      ],
      "scale": [
        1.0,
        -1.2067251198288886e-08,
        -3.073025445221589e-10
      ],
      "translation": [
        3.517747163772583,
        -1.6281230449676514,
        -9.515987396240234
      ]
    },
    {
      "children": [
        7
      ],
      "name": "right_bone02",
      "rotation": [
        4.1463398686714115e-11,
        2.0767929598264345e-08,
        -0.001996520673856139,
        0.9999979734420776
      ],
      "scale": [
        0.9999999403953552,
        2.3800333925905193e-10,
        1.1377271108647897e-16
      ],
      "translation": [
        17.058740615844727,
        -9.16146018425934e-05,
        -7.429034099004639e-07
      ]
    },
    {
      "children": [
        8
      ],
      "name": "right_bone03",
      "rotation": [
        -1.7816835246736717e-13,
        7.384848982328052e-11,
        0.002410332439467311,
        0.999997079372406
      ],
      "scale": [
        1.0000001192092896,
        1.0901049507516802e-10,
        4.934462432030443e-16
      ],
      "translation": [
        17.69763946533203,
        -9.653608685766812e-07,
        -4.248320806254924e-08
      ]
    },
    {
      "children": [
        9
      ],
      "name": "right_bone04",
      "rotation": [
        -1.6948458265645647e-16,
        -1.2690882890474368e-16,
        -0.005500918719917536,
        0.999984860420227
      ],
      "scale": [
        1.0,
        -1.3115013519637841e-09,
        -2.925868057915699e-16
      ],
      "translation": [
        17.533349990844727,
        -0.00019782281015068293,
        -5.180838158480583e-08
      ]
    },
    {
      "children": [
        10
      ],
      "name": "right_bone05",
      "rotation": [
        3.0573421297083476e-16,
        7.44673674259828e-16,
        -0.0172868762165308,
        0.9998505711555481
      ],
      "scale": [
        1.0,
        -2.060448256457903e-09,
        -7.252749786413693e-16
      ],
      "translation": [
        17.377689361572266,
        -2.1870730506634573e-06,
        2.5899741018520217e-08
      ]
    },
    {
      "name": "right_bone06",
      "rotation": [
        -4.06510897547591e-17,
        -7.632167871922212e-17,
        -2.2122117471212732e-09,
        1.0
      ],
      "scale": [
        1.0,
        1.7763568394002505e-15,
        6.982387986957553e-16
      ],
      "translation": [
        18.117721557617188,
        2.5386560082552023e-05,
        -7.166544691017407e-08
      ]
    },
    {
      "children": [
        12
      ],
      "name": "left_bone01",
      "rotation": [
        0.1285741776227951,
        0.6953186392784119,
        0.7016003727912903,
        -0.08807732909917831
      ],
      "scale": [
        0.9999998807907104,
        2.0294686819966046e-08,
        1.5835805999842023e-09
      ],
      "translation": [
        3.5177485942840576,
        -1.628151297569275,
        9.515979766845703
      ]
    },
    {
      "children": [
        13
      ],
      "name": "left_bone02",
      "rotation": [
        4.146353746459219e-11,
        2.0767927821907506e-08,
        -0.001996522070840001,
        0.9999979734420776
      ],
      "scale": [
        0.9999999403953552,
        2.380035057925056e-10,
        6.129301506987463e-15
      ],
      "translation": [
        17.058731079101563,
        -9.006066102301702e-05,
        -7.605882501593442e-07
      ]
    },
    {
      "children": [
        14
      ],
      "name": "left_bone03",
      "rotation": [
        -1.7924476193673794e-13,
        7.384660244413865e-11,
        0.0024103382602334023,
        0.999997079372406
      ],
      "scale": [
        1.0000001192092896,
        1.4544344395517328e-08,
        1.2895344785480295e-14
      ],
      "translation": [
        17.697641372680664,
        -2.8843980999226915e-06,
        -2.8753969871786467e-08
      ]
    },
    {
      "children": [
        15
      ],
      "name": "left_bone04",
      "rotation": [
        3.3116373023418496e-16,
        -1.490654743873743e-15,
        -0.0055009289644658566,
        0.999984860420227
      ],
      "scale": [
        1.0,
        2.755142780586084e-10,
        -2.5259946561265807e-16
      ],
      "translation": [
        17.53335189819336,
        -0.00019942001381423324,
        5.3690367707304176e-08
      ]
    },
    {
      "children": [
        16
      ],
      "name": "left_bone05",
      "rotation": [
        -1.3137760532786792e-15,
        -2.494955663170039e-15,
        -0.017286866903305054,
        0.9998505711555481
      ],
      "scale": [
        1.0,
        -2.0604471462348783e-09,
        -2.1654312593261463e-15
      ],
      "translation": [
        17.377689361572266,
        -3.3483320294180885e-06,
        3.800361980665912e-08
      ]
    },
    {
      "name": "left_bone06",
      "rotation": [
        2.7515230016845506e-17,
        5.320398171370288e-16,
        -5.530602642522808e-10,
        1.0
      ],
      "scale": [
        1.0,
        1.438884300597465e-08,
        5.580438133210306e-15
      ],
      "translation": [
        18.117725372314453,
        2.579299507488031e-05,
        2.3941000293348225e-08
      ]
    },
    {
      "children": [
        18
      ],
      "name": "back_bone01",
      "rotation": [
        -9.262237909979376e-08,
        -7.457609854100156e-07,
        0.9823359251022339,
        -0.187126025557518
      ],
      "scale": [
        1.0,
        6.595733074293841e-13,
        -2.082532144778368e-16
      ],
      "translation": [
        3.0302767753601074,
        -8.421609878540039,
        -1.2413239346642513e-05
      ]
    },
    {
      "children": [
        19
      ],
      "name": "back_bone02",
      "rotation": [
        3.0805940311434254e-15,
        4.822542909918548e-16,
        -0.08938860148191452,
        0.9959968328475952
      ],
      "scale": [
        0.9999999403953552,
        6.563556809169313e-09,
        1.4634906090135345e-15
      ],
      "translation": [
        12.280601501464844,
        3.8911554156584316e-07,
        4.86404709912347e-12
      ]
    },
    {
      "children": [
        20
      ],
      "name": "back_bone03",
      "rotation": [
        1.5393544796596555e-15,
        -7.521595396894247e-16,
        0.006767951883375645,
        0.9999771118164063
      ],
      "scale": [
        1.0,
        1.0578945105422955e-29,
        1.1816351812680845e-16
      ],
      "translation": [
        18.749597549438477,
        8.237537258537486e-05,
        1.4592299635296513e-07
      ]
    },
    {
      "children": [
        21
      ],
      "name": "back_bone04",
      "rotation": [
        -1.794818981276842e-15,
        5.169944473509835e-16,
        -0.0070373499765992165,
        0.9999752044677734
      ],
      "scale": [
        1.0000001192092896,
        -6.542295594158531e-10,
        -1.3690747051192946e-15
      ],
      "translation": [
        17.04607582092285,
        0.00027016428066417575,
        1.2274421123947832e-07
      ]
    },
    {
      "children": [
        22
      ],
      "name": "back_bone05",
      "rotation": [
        -1.1437280481285108e-15,
        -2.332242222189264e-16,
        0.0043685222044587135,
        0.9999904632568359
      ],
      "scale": [
        1.0,
        5.484282999693592e-31,
        6.411459722541776e-16
      ],
      "translation": [
        19.994050979614258,
        4.328237992012873e-06,
        1.5606885028773831e-07
      ]
    },
    {
      "name": "back_bone06",
      "rotation": [
        3.7520061317293345e-15,
        -1.3824231502746343e-16,
        5.47553646867982e-09,
        1.0
      ],
      "scale": [
        1.0,
        2.049846985348095e-30,
        -7.72875371540864e-16
      ],
      "translation": [
        18.225332260131836,
        -3.2119264687935356e-06,
        1.3542214105655148e-07
      ]
    },
    {
      "children": [
        24
      ],
      "name": "front_bone01",
      "rotation": [
        1.228702899425116e-07,
        -6.800131018280808e-07,
        0.998245358467102,
        0.0592135488986969
      ],
      "scale": [
        0.9999998807907104,
        -7.042657568234745e-10,
        -2.6416077712840963e-16
      ],
      "translation": [
        4.354275703430176,
        7.451943397521973,
        1.0479928278073203e-05
      ]
    },
    {
      "children": [
        25
      ],
      "name": "front_bone02",
      "rotation": [
        -9.033637484458145e-17,
        -2.790341462866031e-16,
        -0.06419985741376877,
        0.9979370832443237
      ],
      "scale": [
        1.0000001192092896,
        7.140896762791726e-09,
        1.8121746863660826e-15
      ],
      "translation": [
        16.66684913635254,
        1.2302255072427215e-06,
        1.2019422968023719e-07
      ]
    },
    {
      "name": "front_bone03",
      "rotation": [
        -4.1365785715405737e-16,
        1.5350801396495735e-15,
        7.317876971058013e-09,
        1.0
      ],
      "scale": [
        1.0,
        3.552713678800501e-15,
        -2.0897145606546107e-15
      ],
      "translation": [
        14.756560325622559,
        -2.7075520847574808e-06,
        1.8777900834265893e-07
      ]
    },
    {
      "children": [
        27
      ],
      "name": "Bip01 R Thigh",
      "rotation": [
        -0.005618720315396786,
        0.9973922371864319,
        -0.005683480761945248,
        0.07172735780477524
      ],
      "scale": [
        1.0000001192092896,
        -7.691552950106484e-10,
        -3.2792197401931844e-08
      ],
      "translation": [
        -6.183012962341309,
        0.3688247799873352,
        -6.6108808517456055
      ]
    },
    {
      "children": [
        28
      ],
      "name": "Bip01 R Calf",
      "rotation": [
        2.9888611030592926e-10,
        2.9592523986821107e-09,
        -0.0020579046104103327,
        0.9999978542327881
      ],
      "scale": [
        0.9999998807907104,
        -4.19200741499216e-18,
        -4.581519608137796e-09
      ],
      "translation": [
        43.94834518432617,
        8.974735976607917e-08,
        -4.6605381953668257e-07
      ]
    },
    {
      "children": [
        29
      ],
      "name": "Bip01 R Foot",
      "rotation": [
        0.06650765240192413,
        0.07425317913293839,
        0.03141498565673828,
        0.9945231676101685
      ],
      "scale": [
        1.0,
        -3.579450513768734e-09,
        2.5519442559129857e-08
      ],
      "translation": [
        40.7279167175293,
        -2.128602716311434e-07,
        6.569497941200098e-07
      ]
    },
    {
      "children": [
        30
      ],
      "name": "Bip01 R Toe0",
      "rotation": [
        -2.2529178522745497e-09,
        2.2529178522745497e-09,
        0.7071067094802856,
        0.7071067690849304
      ],
      "scale": [
        1.0,
        -1.4786344993192573e-15,
        7.362845517593681e-33
      ],
      "translation": [
        12.25244140625,
        10.997764587402344,
        4.6331874159477593e-07
      ]
    },
    {
      "name": "Bip01 R Toe0Nub",
      "rotation": [
        -2.871800687577926e-18,
        3.186107377928238e-09,
        7.505054431621147e-16,
        1.0
      ],
      "scale": [
        1.0,
        -1.4864398020490873e-15,
        0.0
      ],
      "translation": [
        8.29824447631836,
        1.0513914183718498e-08,
        -1.3266244991427811e-07
      ]
    },
    {
      "children": [
        32
      ],
      "name": "Bip01 L Thigh",
      "rotation": [
        -0.005618925206363201,
        0.9973922371864319,
        0.005686333868652582,
        -0.07172734290361404
      ],
      "scale": [
        1.0000001192092896,
        -3.0324163180495134e-09,
        1.5070249048676487e-08
      ],
      "translation": [
        -6.183012962341309,
        0.36878812313079834,
        6.610882759094238
      ]
    },
    {
      "children": [
        33
      ],
      "name": "Bip01 L Calf",
      "rotation": [
        -5.891149373882243e-11,
        -5.830436577980436e-09,
        -0.0020579062402248383,
        0.9999978542327881
      ],
      "scale": [
        0.9999998807907104,
        1.6422930793069668e-09,
        1.572480634592921e-08
      ],
      "translation": [
        43.94834518432617,
        -6.855432843622111e-08,
        3.0851236942908145e-07
      ]
    },
    {
      "children": [
        34
      ],
      "name": "Bip01 L Foot",
      "rotation": [
        -0.06650756299495697,
        -0.07425317913293839,
        0.03141499310731888,
        0.9945231676101685
      ],
      "scale": [
        1.0,
        -5.982849771157817e-10,
        -3.0032211384423135e-08
      ],
      "translation": [
        40.7279167175293,
        4.0998124006819125e-08,
        -8.020303994271671e-07
      ]
    },
    {
      "children": [
        35
      ],
      "name": "Bip01 L Toe0",
      "rotation": [
        2.847779031717141e-17,
        4.1908463842843806e-17,
        0.7071067094802856,
        0.7071067690849304
      ],
      "scale": [
        1.0,
        -2.934490853318748e-16,
        2.0166181584054064e-16
      ],
      "translation": [
        12.25244140625,
        10.997764587402344,
        -1.7086924799514236e-06
      ]
    },
    {
      "name": "Bip01 L Toe0Nub",
      "rotation": [
        4.977059718947862e-17,
        9.496920169725415e-18,
        -3.1035191896191e-16,
        1.0
      ],
      "scale": [
        1.0,
        -2.934490853318748e-16,
        -2.0166181584054064e-16
      ],
      "translation": [
        8.29824447631836,
        1.0511257642065175e-08,
        3.7731348356828676e-07
      ]
    },
    {
      "children": [
        37
      ],
      "name": "Bip01 Spine1",
      "rotation": [
        -1.783299968468894e-15,
        2.4451344415865606e-07,
        -0.08815740793943405,
        0.9961065649986267
      ],
      "scale": [
        1.0,
        2.1000486167209974e-14,
        -1.3503441596775419e-14
      ],
      "translation": [
        12.570341110229492,
        -0.00778404762968421,
        -2.1590217613720597e-08
      ]
    },
    {
      "children": [
        38,
        40,
        42
      ],
      "name": "Bip01 Spine2",
      "rotation": [
        1.6017113511706225e-14,
        1.6939887359512795e-07,
        -0.061075448989868164,
        0.9981331825256348
      ],
      "scale": [
        0.9999999403953552,
        -1.2782053193660659e-10,
        2.168309307874327e-14
      ],
      "translation": [
        9.930063247680664,
        -0.012086071074008942,
        -3.3520066722303454e-08
      ]
    },
    {
      "children": [
        39
      ],
      "name": "ru_bone01",
      "rotation": [
        -0.13882555067539215,
        0.10431143641471863,
        0.7873219847679138,
        0.5915831923484802
      ],
      "scale": [
        1.0,
        -9.122022248675421e-09,
        8.391213945913023e-09
      ],
      "translation": [
        3.6871838569641113,
        4.9287238121032715,
        -5.072079181671143
      ]
    },
    {
      "name": "ru_bone02",
      "rotation": [
        -2.1137466776899316e-10,
        -4.805306819122279e-09,
        -8.618368241286589e-08,
        1.0
      ],
      "scale": [
        0.4586419463157654,
        2.116116309958116e-10,
        -3.403896497999881e-09
      ],
      "translation": [
        8.651856422424316,
        4.9990117076958995e-06,
        9.555622000334552e-07
      ]
    },
    {
      "children": [
        41
      ],
      "name": "lu_bone01",
      "rotation": [
        0.1388261765241623,
        -0.10431269556283951,
        0.787321925163269,
        0.5915828943252563
      ],
      "scale": [
        0.9999998807907104,
        -1.0519051407698043e-08,
        -6.699129073695076e-08
      ],
      "translation": [
        3.6871798038482666,
        4.928711414337158,
        5.072098731994629
      ]
    },
    {
      "name": "lu_bone02",
      "rotation": [
        5.58958539176313e-11,
        -8.76764350010717e-09,
        -8.862606648563087e-08,
        1.0
      ],
      "scale": [
        0.45864197611808777,
        -1.2997046772156295e-09,
        1.3974194246202387e-08
      ],
      "translation": [
        8.651856422424316,
        -1.0133265277545433e-05,
        1.4000594319441007e-06
      ]
    },
    {
      "children": [
        43,
        62,
        81
      ],
      "name": "Bip01 Neck",
      "rotation": [
        7.361551147312684e-14,
        -7.25251084077172e-07,
        0.26148366928100586,
        0.9652078747749329
      ],
      "scale": [
        1.0,
        2.1366568958569587e-08,
        -1.598275548367334e-13
      ],
      "translation": [
        18.59966468811035,
        -1.1482977867126465,
        -1.184916982310824e-06
      ]
    },
    {
      "children": [
        44
      ],
      "name": "Bip01 R Clavicle",
      "rotation": [
        -0.609510600566864,
        0.23812727630138397,
        0.7433037757873535,
        0.13889466226100922
      ],
      "scale": [
        1.0,
        1.658838222340364e-08,
        4.984121559914456e-09
      ],
      "translation": [
        -1.8450628519058228,
        1.0423771142959595,
        -2.4952690601348877
      ]
    },
    {
      "children": [
        45
      ],
      "name": "Bip01 R UpperArm",
      "rotation": [
        -0.13511952757835388,
        -0.021313456818461418,
        -0.053377751260995865,
        0.9891608953475952
      ],
      "scale": [
        0.9999999403953552,
        -1.6338250752312433e-09,
        -9.0306251365746e-09
      ],
      "translation": [
        11.936213493347168,
        2.910350076490431e-06,
        1.4138461665424984e-05
      ]
    },
    {
      "children": [
        46,
        49
      ],
      "name": "Bip01 R ForeArm",
      "rotation": [
        8.438221649198496e-11,
        -9.995570343646065e-11,
        -0.02882891707122326,
        0.9995843768119812
      ],
      "scale": [
        0.9999999403953552,
        8.53112337015653e-20,
        1.6169650063346808e-09
      ],
      "translation": [
        23.69733238220215,
        2.3263268644768686e-07,
        9.549179594614543e-06
      ]
    },
    {
      "children": [
        47
      ],
      "name": "rh_w_01",
      "rotation": [
        0.8278537392616272,
        0.560829222202301,
        -0.01088182907551527,
        -0.003211125498637557
      ],
      "scale": [
        1.000000238418579,
        1.7377362881987324e-09,
        4.890086113817915e-09
      ],
      "translation": [
        19.923715591430664,
        2.5698630809783936,
        -1.6744464635849
      ]
    },
    {
      "children": [
        48
      ],
      "name": "rh_w_02",
      "rotation": [
        1.9475419055225984e-09,
        9.410161538880857e-10,
        -0.021440060809254646,
        0.9997701644897461
      ],
      "scale": [
        0.9999999403953552,
        1.3886682914687754e-09,
        1.8679278124267285e-09
      ],
      "translation": [
        18.202255249023438,
        -3.2364605431212112e-06,
        8.81179585121572e-06
      ]
    },
    {
      "name": "rh_w_03",
      "rotation": [
        4.65675511804875e-05,
        -0.004037190228700638,
        0.004922032356262207,
        0.9999797344207764
      ],
      "scale": [
        0.5082592964172363,
        -5.877700104406358e-09,
        2.1570403241355507e-09
      ],
      "translation": [
        13.761597633361816,
        1.0048009926322266e-06,
        1.8914704469352728e-06
      ]
    },
    {
      "children": [
        50,
        54,
        58
      ],
      "name": "Bip01 R Hand",
      "rotation": [
        0.7051334381103516,
        0.06748096644878387,
        -0.06658753752708435,
        0.7027085423469543
      ],
      "scale": [
        1.0,
        3.55416807096276e-10,
        -4.967479760864535e-10
      ],
      "translation": [
        22.580631256103516,
        -6.563654437741206e-07,
        -1.4610972357331775e-05
      ]
    },
    {
      "children": [
        51
      ],
      "name": "Bip01 R Finger2",
      "rotation": [
        -0.010701313614845276,
        0.022079065442085266,
        0.12060804665088654,
        0.9923969507217407
      ],
      "scale": [
        0.999999463558197,
        -4.337225050221605e-07,
        -8.669966433672016e-08
      ],
      "translation": [
        8.930450439453125,
        -0.6633958220481873,
        -0.9564816355705261
      ]
    },
    {
      "children": [
        52
      ],
      "name": "Bip01 R Finger21",
      "rotation": [
        -4.183362822818282e-10,
        2.9285365799047725e-10,
        0.1164020299911499,
        0.9932021498680115
      ],
      "scale": [
        1.0,
        -1.5212837212175145e-08,
        -8.641649618112979e-10
      ],
      "translation": [
        3.7396938800811768,
        -3.966205440519843e-06,
        2.6427625243741204e-07
      ]
    },
    {
      "children": [
        53
      ],
      "name": "Bip01 R Finger22",
      "rotation": [
        2.005583477071582e-10,
        3.7587968848562525e-10,
        0.11640200763940811,
        0.9932022094726563
      ],
      "scale": [
        1.0,
        2.7563743287828402e-08,
        -5.319575890894157e-10
      ],
      "translation": [
        3.7396938800811768,
        2.040235585809569e-06,
        -1.0497407743059739e-07
      ]
    },
    {
      "name": "Bip01 R Finger2Nub",
      "rotation": [
        -1.2843477670276826e-10,
        -7.594644912956028e-10,
        1.1315418824153767e-08,
        1.0
      ],
      "scale": [
        1.0,
        2.5635868539097828e-08,
        -1.1764114682399907e-10
      ],
      "translation": [
        3.7396960258483887,
        -2.551988018240081e-06,
        -5.82999973630649e-07
      ]
    },
    {
      "children": [
        55
      ],
      "name": "Bip01 R Finger1",
      "rotation": [
        -0.00017513609782326967,
        -0.07781513035297394,
        0.11223243176937103,
        0.9906304478645325
      ],
      "scale": [
        0.9999995827674866,
        -5.463306820274738e-07,
        3.9750929659021494e-07
      ],
      "translation": [
        9.007841110229492,
        -0.8791297078132629,
        2.345937967300415
      ]
    },
    {
      "children": [
        56
      ],
      "name": "Bip01 R Finger11",
      "rotation": [
        1.0778468118033402e-09,
        -3.1802966926619547e-09,
        0.1164020225405693,
        0.9932022094726563
      ],
      "scale": [
        0.9999999403953552,
        -7.15482728619321e-10,
        2.359030526477568e-09
      ],
      "translation": [
        3.590714693069458,
        6.0622478486038744e-06,
        3.385046056791907e-07
      ]
    },
    {
      "children": [
        57
      ],
      "name": "Bip01 R Finger12",
      "rotation": [
        -1.4455493468901182e-09,
        1.8986470173842918e-09,
        0.1164020225405693,
        0.9932022094726563
      ],
      "scale": [
        1.0,
        -1.4309655682609446e-09,
        7.55395634932654e-10
      ],
      "translation": [
        3.590717077255249,
        3.912695319741033e-06,
        -3.489540745249542e-08
      ]
    },
    {
      "name": "Bip01 R Finger1Nub",
      "rotation": [
        1.86282878011923e-09,
        2.6691715504512104e-09,
        1.8238031085360262e-09,
        1.0
      ],
      "scale": [
        1.0,
        -1.1920339382243128e-08,
        2.254845199445299e-09
      ],
      "translation": [
        3.5907187461853027,
        -4.58141767012421e-06,
        -2.589574705780251e-07
      ]
    },
    {
      "children": [
        59
      ],
      "name": "Bip01 R Finger0",
      "rotation": [
        -0.6464375853538513,
        -0.23017531633377075,
        -0.09677518904209137,
        0.7209523916244507
      ],
      "scale": [
        1.0000001192092896,
        1.8546761282323132e-07,
        -2.498220510460669e-07
      ],
      "translation": [
        0.8650373816490173,
        0.07455236464738846,
        1.5068007707595825
      ]
    },
    {
      "children": [
        60
      ],
      "name": "Bip01 R Finger01",
      "rotation": [
        1.9000187534423674e-10,
        -1.2746599331592279e-09,
        -0.00018150168762076646,
        1.0
      ],
      "scale": [
        0.9999999403953552,
        -3.576113982717288e-08,
        4.846516521439526e-09
      ],
      "translation": [
        4.211382865905762,
        1.356556680320864e-07,
        1.7889783521241043e-07
      ]
    },
    {
      "children": [
        61
      ],
      "name": "Bip01 R Finger02",
      "rotation": [
        3.107493595777555e-09,
        2.018378131296572e-09,
        0.03852996230125427,
        0.9992574453353882
      ],
      "scale": [
        1.0,
        1.2018177564243615e-08,
        -1.3942809129474654e-09
      ],
      "translation": [
        4.2113800048828125,
        -4.1903132341758464e-07,
        -7.82559800427407e-06
      ]
    },
    {
      "name": "Bip01 R Finger0Nub",
      "rotation": [
        -2.0602008987680165e-09,
        1.3631582529427533e-09,
        -4.172195477991636e-09,
        1.0
      ],
      "scale": [
        1.0,
        6.1691638464367315e-09,
        9.31596799702561e-10
      ],
      "translation": [
        4.831111907958984,
        9.266857432521647e-07,
        5.996911568217911e-06
      ]
    },
    {
      "children": [
        63
      ],
      "name": "Bip01 L Clavicle",
      "rotation": [
        0.6095109581947327,
        -0.23812934756278992,
        0.743303120136261,
        0.1388929784297943
      ],
      "scale": [
        1.0,
        2.336908444533492e-08,
        -8.749697855137128e-09
      ],
      "translation": [
        -1.8450628519058228,
        1.0423634052276611,
        2.4952709674835205
      ]
    },
    {
      "children": [
        64
      ],
      "name": "Bip01 L UpperArm",
      "rotation": [
        0.1351195126771927,
        0.02131344936788082,
        -0.0533776618540287,
        0.9891608953475952
      ],
      "scale": [
        0.9999998807907104,
        3.06051894938264e-09,
        -7.455356332286556e-09
      ],
      "translation": [
        11.936213493347168,
        3.1310405574913602e-06,
        -1.4052850929147098e-05
      ]
    },
    {
      "children": [
        65,
        68
      ],
      "name": "Bip01 L ForeArm",
      "rotation": [
        1.3985239355474022e-10,
        -4.684991283809836e-10,
        -0.028828918933868408,
        0.9995843768119812
      ],
      "scale": [
        1.0,
        -3.1513951448403077e-09,
        5.675059089327306e-09
      ],
      "translation": [
        23.69733238220215,
        -2.548489419496036e-08,
        -9.568936548021156e-06
      ]
    },
    {
      "children": [
        66
      ],
      "name": "lh_w_01",
      "rotation": [
        0.8278523683547974,
        0.5608313083648682,
        0.010881876572966576,
        0.003211789997294545
      ],
      "scale": [
        0.9985765218734741,
        0.052885767072439194,
        -0.00805959478020668
      ],
      "translation": [
        19.92374038696289,
        2.570164680480957,
        1.6744920015335083
      ]
    },
    {
      "children": [
        67
      ],
      "name": "lh_w_02",
      "rotation": [
        4.614124193835778e-09,
        -2.7545039582577147e-09,
        -0.021440066397190094,
        0.9997701644897461
      ],
      "scale": [
        0.9999998807907104,
        -1.3498792306165797e-08,
        4.817128029799278e-09
      ],
      "translation": [
        18.202255249023438,
        -3.4289134873688454e-06,
        6.519023372675292e-06
      ]
    },
    {
      "name": "lh_w_03",
      "rotation": [
        4.65647826786153e-05,
        -0.004037188366055489,
        0.004922045860439539,
        0.9999797344207764
      ],
      "scale": [
        0.5082592964172363,
        -6.489749293514535e-10,
        -1.6726285911872196e-09
      ],
      "translation": [
        13.761604309082031,
        1.577182047185488e-06,
        -2.3701613827142864e-06
      ]
    },
    {
      "children": [
        69,
        73,
        77
      ],
      "name": "Bip01 L Hand",
      "rotation": [
        -0.7049362063407898,
        -0.06950602680444717,
        -0.0645693764090538,
        0.702897310256958
      ],
      "scale": [
        0.9999999403953552,
        3.0648452664649994e-09,
        9.440709325403418e-10
      ],
      "translation": [
        22.580629348754883,
        -2.1588101617453503e-07,
        5.7085380831267685e-06
      ]
    },
    {
      "children": [
        70
      ],
      "name": "Bip01 L Finger2",
      "rotation": [
        0.01070131454616785,
        -0.022079063579440117,
        0.12060805410146713,
        0.9923969507217407
      ],
      "scale": [
        0.999999463558197,
        -4.336360746037826e-07,
        8.9465544306222e-08
      ],
      "translation": [
        8.930449485778809,
        -0.6633956432342529,
        0.9564811587333679
      ]
    },
    {
      "children": [
        71
      ],
      "name": "Bip01 L Finger21",
      "rotation": [
        -2.803493548420022e-10,
        -4.792152785704218e-10,
        0.1164020225405693,
        0.9932022094726563
      ],
      "scale": [
        1.0,
        1.378187342027104e-08,
        -1.1951944989263552e-10
      ],
      "translation": [
        3.7396955490112305,
        -2.9003331292187795e-06,
        1.7437882604554034e-07
      ]
    },
    {
      "children": [
        72
      ],
      "name": "Bip01 L Finger22",
      "rotation": [
        7.52356954514255e-10,
        -3.96841726146846e-10,
        0.1164020225405693,
        0.9932022094726563
      ],
      "scale": [
        1.0,
        1.378187430844946e-08,
        9.263061429010122e-10
      ],
      "translation": [
        3.739699602127075,
        -5.728912128688535e-06,
        -2.471930997671734e-07
      ]
    },
    {
      "name": "Bip01 L Finger2Nub",
      "rotation": [
        -4.1897874059060314e-11,
        -3.264325199037188e-10,
        -1.1897305363106625e-08,
        1.0
      ],
      "scale": [
        1.0,
        -4.980034162826996e-10,
        -1.196516757201449e-11
      ],
      "translation": [
        3.739697217941284,
        9.441692782274913e-06,
        -9.478290508013743e-08
      ]
    },
    {
      "children": [
        74
      ],
      "name": "Bip01 L Finger1",
      "rotation": [
        0.00017513516650069505,
        0.07781513035297394,
        0.11223243176937103,
        0.9906304478645325
      ],
      "scale": [
        0.9999995827674866,
        -5.598515144811245e-07,
        -4.2141701328546333e-07
      ],
      "translation": [
        9.007842063903809,
        -0.8791216015815735,
        -2.345937490463257
      ]
    },
    {
      "children": [
        75
      ],
      "name": "Bip01 L Finger11",
      "rotation": [
        7.131459867082413e-10,
        1.3973826540336631e-09,
        0.1164020225405693,
        0.9932022094726563
      ],
      "scale": [
        1.0,
        -7.154827841304723e-10,
        -2.942398547034486e-09
      ],
      "translation": [
        3.5907225608825684,
        9.180042070511263e-06,
        6.675523422927654e-07
      ]
    },
    {
      "children": [
        76
      ],
      "name": "Bip01 L Finger12",
      "rotation": [
        -5.402396863196657e-10,
        3.1820750479027993e-09,
        0.1164020299911499,
        0.9932021498680115
      ],
      "scale": [
        1.0,
        -1.5212837212175145e-08,
        -4.962716015910473e-09
      ],
      "translation": [
        3.5907139778137207,
        -2.26806537284574e-06,
        -1.402572422648518e-07
      ]
    },
    {
      "name": "Bip01 L Finger1Nub",
      "rotation": [
        -1.5382266571606351e-09,
        1.3061696169103243e-09,
        8.308822074809541e-09,
        1.0
      ],
      "scale": [
        1.0,
        2.2676971411783597e-11,
        3.703547690747655e-09
      ],
      "translation": [
        3.5907158851623535,
        9.047554385688272e-07,
        -4.441169494384667e-07
      ]
    },
    {
      "children": [
        78
      ],
      "name": "Bip01 L Finger0",
      "rotation": [
        0.6464375853538513,
        0.23017531633377075,
        -0.09677518904209137,
        0.7209523916244507
      ],
      "scale": [
        1.0000001192092896,
        1.3098787121634814e-07,
        2.5583742058188363e-07
      ],
      "translation": [
        0.8650371432304382,
        0.07455894351005554,
        -1.5068007707595825
      ]
    },
    {
      "children": [
        79
      ],
      "name": "Bip01 L Finger01",
      "rotation": [
        1.920984926684355e-09,
        4.874899595108673e-09,
        -0.00018150625692214817,
        1.0
      ],
      "scale": [
        0.9999999403953552,
        -2.159504042253957e-08,
        -5.619722909244729e-09
      ],
      "translation": [
        4.211381912231445,
        2.391894895481528e-07,
        1.2538553164631594e-06
      ]
    },
    {
      "children": [
        80
      ],
      "name": "Bip01 L Finger02",
      "rotation": [
        -1.372168823010611e-09,
        -4.094082406425059e-09,
        0.038529954850673676,
        0.9992574453353882
      ],
      "scale": [
        1.0,
        1.2018176676065195e-08,
        2.2618549255781772e-09
      ],
      "translation": [
        4.211379051208496,
        -1.0827812957359129e-06,
        -1.7483413103036582e-05
      ]
    },
    {
      "name": "Bip01 L Finger0Nub",
      "rotation": [
        1.4605305853621076e-10,
        -5.32383248597057e-10,
        -2.9806879187077584e-09,
        1.0
      ],
      "scale": [
        1.0,
        1.2107950198014805e-09,
        -5.0750075253347404e-09
      ],
      "translation": [
        4.831111431121826,
        5.208098130538019e-08,
        8.921184416976757e-06
      ]
    },
    {
      "children": [
        82,
        88
      ],
      "name": "Bip01 Head",
      "rotation": [
        6.530413281533379e-14,
        -7.363379950220406e-08,
        0.026547402143478394,
        0.9996475577354431
      ],
      "scale": [
        1.0,
        -5.56458323863751e-10,
        1.0338757946276849e-14
      ],
      "translation": [
        8.269389152526855,
        2.1998951638124709e-07,
        3.1625975709798082e-12
      ]
    },
    {
      "children": [
        83
      ],
      "name": "Bip01 Ponytail1",
      "rotation": [
        1.9970930291435263e-12,
        -2.772950210783165e-06,
        0.9997656941413879,
        -0.021647099405527115
      ],
      "scale": [
        0.9999998807907104,
        1.14253373428852e-09,
        -4.8898608957532314e-14
      ],
      "translation": [
        6.120657444000244,
        -6.112082481384277,
        -1.6952493751887232e-05
      ]
    },
    {
      "children": [
        84
      ],
      "name": "Bip01 Ponytail11",
      "rotation": [
        -2.1221152818936412e-13,
        -5.893448218330377e-08,
        0.02124839462339878,
        0.9997742176055908
      ],
      "scale": [
        0.9999999403953552,
        -2.9519050566209084e-16,
        8.418449720963214e-14
      ],
      "translation": [
        11.23791790008545,
        -0.008942464366555214,
        -2.480838467988633e-08
      ]
    },
    {
      "children": [
        85
      ],
      "name": "Bip01 Ponytail12",
      "rotation": [
        9.880302549421585e-14,
        1.8297041037840245e-07,
        -0.0659685805439949,
        0.9978216886520386
      ],
      "scale": [
        0.9999999403953552,
        -6.9245196243628016e-09,
        -6.428160141767197e-14
      ],
      "translation": [
        11.236331939697266,
        -0.008865129202604294,
        -2.4591097158577213e-08
      ]
    },
    {
      "children": [
        86
      ],
      "name": "Bip01 Ponytail13",
      "rotation": [
        -1.130449019440781e-13,
        1.829703677458383e-07,
        -0.06596854329109192,
        0.9978216886520386
      ],
      "scale": [
        1.0,
        8.814763562082703e-15,
        1.6245454959561145e-14
      ],
      "translation": [
        11.236351013183594,
        -0.008873227052390575,
        -2.4600897319260184e-08
      ]
    },
    {
      "children": [
        87
      ],
      "name": "Bip01 Ponytail14",
      "rotation": [
        8.90117379760344e-14,
        1.8297038195669302e-07,
        -0.06596855819225311,
        0.9978216886520386
      ],
      "scale": [
        1.0,
        8.814830477685536e-15,
        -2.4408787504767195e-14
      ],
      "translation": [
        11.236348152160645,
        -0.008871217258274555,
        -2.4605315118719773e-08
      ]
    },
    {
      "name": "Bip01 Ponytail1Nub",
      "rotation": [
        0.7073882222175598,
        0.7068251967430115,
        9.802253089219448e-07,
        -9.810062238102546e-07
      ],
      "scale": [
        1.0,
        -1.0752133558500354e-11,
        -3.098005521822572e-13
      ],
      "translation": [
        11.237531661987305,
        1.3685398698726203e-06,
        1.0721475790509416e-11
      ]
    },
    {
      "name": "Bip01 HeadNub",
      "rotation": [
        -1.2444916381052981e-14,
        4.396992498426804e-16,
        4.06274391906436e-09,
        1.0
      ],
      "scale": [
        1.0,
        -6.803446694902959e-13,
        -2.0156353460767072e-14
      ],
      "translation": [
        20.1611270904541,
        -1.45710487231554e-07,
        7.69680543258322e-13
      ]
    }
  ],
  "scene": 0,
  "scenes": [
    {
      "nodes": [
        0
      ]
    }
  ],
  "skins": [
    {
      "inverseBindMatrices": 4,
      "joints": [
        2,
        3,
        4,
        5,
        6,
        7,
        8,
        9,
        10,
        11,
        12,
        13,
        14,
        15,
        16,
        17,
        18,
        19,
        20,
        21,
        22,
        23,
        24,
        25,
        26,
        27,
        28,
        29,
        30,
        31,
        32,
        33,
        34,
        35,
        36,
        37,
        38,
        39,
        40,
        41,
        42,
        43,
        44,
        45,
        46,
        47,
        48,
        49,
        50,
        51,
        52,
        53,
        54,
        55,
        56,
        57,
        58,
        59,
        60,
        61,
        62,
        63,
        64,
        65,
        66,
        67,
        68,
        69,
        70,
        71,
        72,
        73,
        74,
        75,
        76,
        77,
        78,
        79,
        80,
        81,
        82,
        83,
        84,
        85,
        86,
        87,
        88
      ],
      "skeleton": 2
    }
  ]
}
