{
  "accessors": [
    {
      "bufferView": 0,
      "componentType": 5126,
      "count": 616,
      "max": [
        174.95982360839844,
        173.3544158935547,
        174.9724578857422
      ],
      "min": [
        -10.947036743164063,
        -12.143071174621582,
        -11.030683517456055
      ],
      "type": "VEC3"
    },
    {
      "bufferView": 1,
      "componentType": 5126,
      "count": 616,
      "type": "VEC3"
    },
    {
      "bufferView": 2,
      "componentType": 5126,
      "count": 616,
      "type": "VEC2"
    },
    {
      "bufferView": 3,
      "componentType": 5123,
      "count": 2472,
      "type": "SCALAR"
    },
    {
      "bufferView": 4,
      "componentType": 5126,
      "count": 91,
      "type": "MAT4"
    }
  ],
  "asset": {
    "generator": "gr2togltf (ANKA2 Project)",
    "version": "2.0"
  },
  "bufferViews": [
    {
      "buffer": 0,
      "byteLength": 7392,
      "target": 34962
    },
    {
      "buffer": 0,
      "byteLength": 7392,
      "byteOffset": 7392,
      "target": 34962
    },
    {
      "buffer": 0,
      "byteLength": 4928,
      "byteOffset": 14784,
      "target": 34962
    },
    {
      "buffer": 0,
      "byteLength": 4944,
      "byteOffset": 19712,
      "target": 34963
    },
    {
      "buffer": 0,
      "byteLength": 5824,
      "byteOffset": 24656
    }
  ],
  "buffers": [
    {
      "byteLength": 30480,
      "uri": "data:application/octet-stream;base64,"
    }
  ],
  "materials": [
    {
      "name": "default",
      "pbrMetallicRoughness": {
        "baseColorFactor": [
          0.8,
          0.8,
          0.8,
          1.0
        ],
        "metallicFactor": 0.0,
        "roughnessFactor": 0.8
      }
    }
  ],
  "meshes": [
    {
      "name": "hair_65_1",
      "primitives": [
        {
          "attributes": {
            "NORMAL": 1,
            "POSITION": 0,
            "TEXCOORD_0": 2
          },
          "indices": 3,
          "material": 0,
          "mode": 4
        }
      ]
    }
  ],
  "nodes": [
    {
      "children": [
        1,
        2
      ]
    },
    {
      "mesh": 0,
      "name": "hair_65_1",
      "skin": 0
    },
    {
      "children": [
        3
      ],
      "name": "Bip01",
      "rotation": [
        0.0,
        0.0,
        0.0,
        0.9999999403953552
      ],
      "scale": [
        0.9999997615814209,
        -5.117093408073606e-14,
        0.0
      ],
      "translation": [
        0.0,
        0.0,
        0.0
      ]
    },
    {
      "children": [
        4
      ],
      "name": "Bip01 Pelvis",
      "rotation": [
        -0.4999993145465851,
        -0.5,
        -0.5,
        0.5000006556510925
      ],
      "scale": [
        1.0,
        6.755036055564761e-20,
        -2.6671148450016795e-18
      ],
      "translation": [
        1.8113460540771484,
        2.000000222324161e-06,
        0.0
      ]
    },
    {
      "children": [
        5,
        11,
        17,
        23,
        26,
        31,
        36
      ],
      "name": "Bip01 Spine",
      "rotation": [
        -2.0994200440327404e-06,
        -7.13202211954922e-07,
        0.02897808514535427,
        0.9995800256729126
      ],
      "scale": [
        1.0000001192092896,
        -3.724561326023945e-09,
        -1.6604279800061517e-13
      ],
      "translation": [
        6.193992614746094,
        -0.009989559650421143,
        8.603674359619617e-06
      ]
    },
    {
      "children": [
        6
      ],
      "name": "right_bone01",
      "rotation": [
        -0.12857402861118317,
        -0.6953200697898865,
        0.7015990614891052,
        -0.08807675540447235
      ],
      "scale": [
        1.000000238418579,
        -4.774562967213569e-08,
        1.5676174802692344e-09
      ],
      "translation": [
        3.5177764892578125,
        -1.6281232833862305,
        -9.51598834991455
      ]
    },
    {
      "children": [
        7
      ],
      "name": "right_bone02",
      "rotation": [
        -6.479079019171621e-14,
        1.968706671480209e-14,
        -0.0019964987877756357,
        0.9999979734420776
      ],
      "scale": [
        0.9999999403953552,
        -1.4901042177939416e-08,
        -4.614978375578477e-14
      ],
      "translation": [
        17.058731079101563,
        -8.7738037109375e-05,
        0.0
      ]
    },
    {
      "children": [
        8
      ],
      "name": "right_bone03",
      "rotation": [
        -5.311929959480113e-15,
        3.6126391422363745e-15,
        0.002410061191767454,
        0.999997079372406
      ],
      "scale": [
        1.0,
        -2.833625782743044e-28,
        1.4356288578179673e-14
      ],
      "translation": [
        17.697647094726563,
        0.0,
        0.0
      ]
    },
    {
      "children": [
        9
      ],
      "name": "right_bone04",
      "rotation": [
        -2.529315935840236e-14,
        -1.0723940249810111e-14,
        -0.005501159932464361,
        0.999984860420227
      ],
      "scale": [
        0.9999999403953552,
        -5.788927004547613e-28,
        -7.514984728257401e-15
      ],
      "translation": [
        17.533348083496094,
        -0.000202178955078125,
        0.0
      ]
    },
    {
      "children": [
        10
      ],
      "name": "right_bone05",
      "rotation": [
        -5.620665676051191e-14,
        -6.405775178553634e-15,
        -0.01728665642440319,
        0.9998505711555481
      ],
      "scale": [
        1.0000001192092896,
        -2.060422055194522e-09,
        -2.1858315396409977e-14
      ],
      "translation": [
        17.377687454223633,
        -3.814697265625e-06,
        0.0
      ]
    },
    {
      "name": "right_bone06",
      "rotation": [
        1.7763568394002505e-14,
        1.776357474674961e-15,
        -7.450580596923828e-09,
        1.0
      ],
      "scale": [
        0.9999999403953552,
        1.4901160305669237e-08,
        -3.552713678800501e-15
      ],
      "translation": [
        18.117721557617188,
        3.0517578125e-05,
        0.0
      ]
    },
    {
      "children": [
        12
      ],
      "name": "left_bone01",
      "rotation": [
        0.12857413291931152,
        0.6953186988830566,
        0.7016003131866455,
        -0.08807732164859772
      ],
      "scale": [
        1.0000001192092896,
        -5.26817878210295e-08,
        -1.3314936930797217e-09
      ],
      "translation": [
        3.5177688598632813,
        -1.6281509399414063,
        9.515978813171387
      ]
    },
    {
      "children": [
        13
      ],
      "name": "left_bone02",
      "rotation": [
        1.155338964011236e-14,
        3.5473871121116923e-15,
        -0.001996483886614442,
        0.9999979734420776
      ],
      "scale": [
        1.0,
        1.4663043224061312e-08,
        -7.069962511615938e-15
      ],
      "translation": [
        17.058738708496094,
        -9.1552734375e-05,
        1.1920928955078125e-07
      ]
    },
    {
      "children": [
        14
      ],
      "name": "left_bone03",
      "rotation": [
        4.44087854597347e-15,
        1.498405750468165e-17,
        0.002410083543509245,
        0.999997079372406
      ],
      "scale": [
        1.0,
        -1.4900987999055815e-08,
        8.562285486879298e-18
      ],
      "translation": [
        17.697643280029297,
        0.0,
        -1.1920928955078125e-07
      ]
    },
    {
      "children": [
        15
      ],
      "name": "left_bone04",
      "rotation": [
        -4.440825182897793e-15,
        7.119977689568936e-15,
        -0.00550114456564188,
        0.999984860420227
      ],
      "scale": [
        1.0,
        -3.802890224946509e-10,
        -1.997324700013199e-17
      ],
      "translation": [
        17.53335189819336,
        -0.0001983642578125,
        0.0
      ]
    },
    {
      "children": [
        16
      ],
      "name": "left_bone05",
      "rotation": [
        6.141450765247727e-17,
        3.644304621936529e-15,
        -0.017286641523241997,
        0.9998505711555481
      ],
      "scale": [
        0.9999999403953552,
        2.0604202788376824e-09,
        -6.9212112441003476e-15
      ],
      "translation": [
        17.3776912689209,
        0.0,
        0.0
      ]
    },
    {
      "name": "left_bone06",
      "rotation": [
        5.3290705182007514e-15,
        2.6469779601696886e-23,
        1.4901161193847656e-08,
        1.0
      ],
      "scale": [
        1.0,
        1.504632769052528e-36,
        -1.0587911840678754e-22
      ],
      "translation": [
        18.117721557617188,
        2.6702880859375e-05,
        0.0
      ]
    },
    {
      "children": [
        18
      ],
      "name": "back_bone01",
      "rotation": [
        9.356300267882034e-08,
        -4.911680093755422e-07,
        0.9823359251022339,
        -0.187126025557518
      ],
      "scale": [
        1.0000001192092896,
        -5.8020717119688925e-09,
        -4.716211348862985e-14
      ],
      "translation": [
        3.0302886962890625,
        -8.421607971191406,
        -1.200000406242907e-05
      ]
    },
    {
      "children": [
        19
      ],
      "name": "back_bone02",
      "rotation": [
        0.0,
        -6.351436320921377e-16,
        -0.08938851952552795,
        0.9959968328475952
      ],
      "scale": [
        1.0,
        1.7979603255262107e-29,
        -1.2652021018854341e-15
      ],
      "translation": [
        12.280609130859375,
        0.0,
        -1.8189894035458565e-12
      ]
    },
    {
      "children": [
        20
      ],
      "name": "back_bone03",
      "rotation": [
        -4.808906473561142e-17,
        -7.12930860451589e-15,
        0.006767934188246727,
        0.9999771118164063
      ],
      "scale": [
        1.0,
        -1.2445511288206035e-10,
        -1.4257641427076542e-14
      ],
      "translation": [
        18.749588012695313,
        8.0108642578125e-05,
        -1.8189894035458565e-12
      ]
    },
    {
      "children": [
        21
      ],
      "name": "back_bone04",
      "rotation": [
        -8.831560225426756e-15,
        7.092751086028868e-15,
        -0.007037441246211529,
        0.9999752044677734
      ],
      "scale": [
        1.0,
        1.9981664006644755e-28,
        -1.4360862556094846e-14
      ],
      "translation": [
        17.046077728271484,
        0.000270843505859375,
        -1.8189894035458565e-12
      ]
    },
    {
      "children": [
        22
      ],
      "name": "back_bone05",
      "rotation": [
        -1.2403338921804057e-14,
        7.066559556750344e-15,
        0.004368473310023546,
        0.9999904632568359
      ],
      "scale": [
        1.0,
        6.071453223669443e-28,
        1.4241352983500842e-14
      ],
      "translation": [
        19.99404525756836,
        7.62939453125e-06,
        3.637978807091713e-12
      ]
    },
    {
      "name": "back_bone06",
      "rotation": [
        1.7763568394002505e-15,
        0.0,
        0.0,
        1.0
      ],
      "scale": [
        1.0,
        0.0,
        0.0
      ],
      "translation": [
        18.225330352783203,
        0.0,
        -1.8189894035458565e-12
      ]
    },
    {
      "children": [
        24
      ],
      "name": "front_bone01",
      "rotation": [
        1.1581165892948775e-07,
        -7.990132644408732e-07,
        0.998245358467102,
        0.059213344007730484
      ],
      "scale": [
        1.0000001192092896,
        7.033625348817907e-10,
        -3.950257072946224e-14
      ],
      "translation": [
        4.354301452636719,
        7.45194149017334,
        1.1000000085914508e-05
      ]
    },
    {
      "children": [
        25
      ],
      "name": "front_bone02",
      "rotation": [
        1.5543542684852267e-15,
        1.7798199336050997e-15,
        -0.06419982016086578,
        0.9979370832443237
      ],
      "scale": [
        1.0,
        7.637426691076143e-09,
        -3.3535525159784918e-15
      ],
      "translation": [
        16.666854858398438,
        0.0,
        -4.547473508864641e-13
      ]
    },
    {
      "name": "front_bone03",
      "rotation": [
        -7.549516567451064e-15,
        -1.7763568394002505e-15,
        -7.450580596923828e-09,
        1.0
      ],
      "scale": [
        0.9999999403953552,
        8.881784197001252e-16,
        3.552713467042264e-15
      ],
      "translation": [
        14.756561279296875,
        0.0,
        0.0
      ]
    },
    {
      "children": [
        27
      ],
      "name": "Bip01 R Thigh",
      "rotation": [
        -0.005618724040687084,
        0.9973922371864319,
        -0.005683527328073978,
        0.07172740250825882
      ],
      "scale": [
        1.0000001192092896,
        -6.227897086930057e-10,
        2.7660693180386886e-10
      ],
      "translation": [
        -6.183006286621094,
        0.36882495880126953,
        -6.6108808517456055
      ]
    },
    {
      "children": [
        28
      ],
      "name": "Bip01 R Calf",
      "rotation": [
        -4.579940315885267e-10,
        3.7252823048561368e-09,
        -0.0020579069387167692,
        0.9999978542327881
      ],
      "scale": [
        0.9999998807907104,
        2.453210967701125e-10,
        -7.452497285953541e-09
      ],
      "translation": [
        43.9483528137207,
        0.0,
        0.0
      ]
    },
    {
      "children": [
        29
      ],
      "name": "Bip01 R Foot",
      "rotation": [
        0.06650760024785995,
        0.07425322383642197,
        0.03141501173377037,
        0.9945231676101685
      ],
      "scale": [
        1.0,
        -1.6720505868761393e-08,
        1.339680721912373e-08
      ],
      "translation": [
        40.7279167175293,
        4.76837158203125e-07,
        0.0
      ]
    },
    {
      "children": [
        30
      ],
      "name": "Bip01 R Toe0",
      "rotation": [
        2.6341777648042353e-09,
        -2.6341775427596303e-09,
        0.7071067094802856,
        0.7071067690849304
      ],
      "scale": [
        1.0000001192092896,
        -1.0587911840678754e-22,
        -7.450581485102248e-09
      ],
      "translation": [
        12.25244140625,
        10.99776554107666,
        0.0
      ]
    },
    {
      "name": "Bip01 R Toe0Nub",
      "rotation": [
        -1.1102230246251565e-16,
        -3.7252898543727042e-09,
        8.88178366760566e-16,
        1.0
      ],
      "scale": [
        1.0000001192092896,
        -1.0587911840678754e-22,
        -7.450581485102248e-09
      ],
      "translation": [
        8.29824447631836,
        0.0,
        0.0
      ]
    },
    {
      "children": [
        32
      ],
      "name": "Bip01 L Thigh",
      "rotation": [
        -0.005618922412395477,
        0.9973922371864319,
        0.005686287768185139,
        -0.07172729820013046
      ],
      "scale": [
        1.0000001192092896,
        -1.0316302256896392e-09,
        7.780489141850921e-09
      ],
      "translation": [
        -6.183006286621094,
        0.3687882423400879,
        6.610882759094238
      ]
    },
    {
      "children": [
        33
      ],
      "name": "Bip01 L Calf",
      "rotation": [
        -2.3283014405350855e-10,
        -7.451044226058912e-09,
        -0.002057907171547413,
        0.9999978542327881
      ],
      "scale": [
        0.9999998211860657,
        -2.2033622149031373e-10,
        -1.8525046947825974e-12
      ],
      "translation": [
        43.94834899902344,
        0.0,
        0.0
      ]
    },
    {
      "children": [
        34
      ],
      "name": "Bip01 L Foot",
      "rotation": [
        -0.06650760769844055,
        -0.0742531344294548,
        0.03141501918435097,
        0.9945231676101685
      ],
      "scale": [
        1.0,
        -1.4292726113751542e-08,
        -1.1089581697376616e-08
      ],
      "translation": [
        40.72792053222656,
        0.0,
        0.0
      ]
    },
    {
      "children": [
        35
      ],
      "name": "Bip01 L Toe0",
      "rotation": [
        -2.6341777648042353e-09,
        2.6341777648042353e-09,
        0.7071067094802856,
        0.7071067690849304
      ],
      "scale": [
        1.0,
        0.0,
        7.450580596923828e-09
      ],
      "translation": [
        12.252439498901367,
        10.997763633728027,
        0.0
      ]
    },
    {
      "name": "Bip01 L Toe0Nub",
      "rotation": [
        0.0,
        3.725290298461914e-09,
        0.0,
        1.0
      ],
      "scale": [
        1.0,
        0.0,
        -7.450580596923828e-09
      ],
      "translation": [
        8.29824447631836,
        0.0,
        0.0
      ]
    },
    {
      "children": [
        37
      ],
      "name": "Bip01 Spine1",
      "rotation": [
        3.2099401126505986e-14,
        2.445134725803655e-07,
        -0.08815741539001465,
        0.9961065649986267
      ],
      "scale": [
        1.0,
        -1.0468244937555937e-08,
        -3.4335168307706235e-14
      ],
      "translation": [
        12.570350646972656,
        -0.0077838897705078125,
        -2.1591404220089316e-08
      ]
    },
    {
      "children": [
        38,
        40,
        42
      ],
      "name": "Bip01 Spine2",
      "rotation": [
        3.559358652271711e-15,
        1.693989304385468e-07,
        -0.061075467616319656,
        0.9981331825256348
      ],
      "scale": [
        1.0,
        6.99740863396945e-15,
        -1.902568475486109e-14
      ],
      "translation": [
        9.930061340332031,
        -0.0120849609375,
        -3.352033672854304e-08
      ]
    },
    {
      "children": [
        39
      ],
      "name": "ru_bone01",
      "rotation": [
        -0.1388254165649414,
        0.10431177914142609,
        0.787321925163269,
        0.591583251953125
      ],
      "scale": [
        1.0,
        -5.851517048682808e-10,
        5.954921888928766e-09
      ],
      "translation": [
        3.6871795654296875,
        4.9287261962890625,
        -5.072079181671143
      ]
    },
    {
      "name": "ru_bone02",
      "rotation": [
        -2.538227961146333e-10,
        -9.217060892297013e-09,
        1.5128034647204913e-07,
        1.0
      ],
      "scale": [
        0.45864206552505493,
        9.313110838071736e-10,
        2.0358129404485226e-08
      ],
      "translation": [
        8.651857376098633,
        0.0,
        4.76837158203125e-07
      ]
    },
    {
      "children": [
        41
      ],
      "name": "lu_bone01",
      "rotation": [
        0.13882629573345184,
        -0.104312963783741,
        0.7873218655586243,
        0.5915830135345459
      ],
      "scale": [
        1.0000001192092896,
        -7.177807237468414e-09,
        3.330937659029587e-08
      ],
      "translation": [
        3.6871795654296875,
        4.9287109375,
        5.0720977783203125
      ]
    },
    {
      "name": "lu_bone02",
      "rotation": [
        2.538261267837072e-10,
        7.075403374301459e-09,
        1.4924975744179392e-07,
        1.0
      ],
      "scale": [
        0.45864203572273254,
        -9.313336768457248e-10,
        8.731169953701823e-11
      ],
      "translation": [
        8.651857376098633,
        0.0,
        4.76837158203125e-07
      ]
    },
    {
      "children": [
        43,
        64,
        85
      ],
      "name": "Bip01 Neck",
      "rotation": [
        2.944620255637166e-14,
        -7.252505724864022e-07,
        0.26148346066474915,
        0.9652079343795776
      ],
      "scale": [
        1.0000003576278687,
        -3.928436242972566e-09,
        -3.264605247374139e-14
      ],
      "translation": [
        18.59967803955078,
        -1.148294448852539,
        -1.1849188013002276e-06
      ]
    },
    {
      "children": [
        44,
        46
      ],
      "name": "Bip01 R Clavicle",
      "rotation": [
        -0.6095106601715088,
        0.23812714219093323,
        0.7433037757873535,
        0.13889451324939728
      ],
      "scale": [
        1.0,
        -3.804866466339263e-08,
        -4.791913710278095e-08
      ],
      "translation": [
        -1.8450775146484375,
        1.0423774719238281,
        -2.495269298553467
      ]
    },
    {
      "children": [
        45
      ],
      "name": "right_sh_01",
      "rotation": [
        -0.7749795317649841,
        0.17564637959003448,
        0.04531032592058182,
        0.6053941249847412
      ],
      "scale": [
        1.0,
        -1.861087284282803e-08,
        -1.332741028647888e-08
      ],
      "translation": [
        4.489246368408203,
        0.011575698852539063,
        -1.4733428955078125
      ]
    },
    {
      "name": "right_sh_02",
      "rotation": [
        -7.105427357601002e-15,
        -2.220446049250313e-14,
        -1.7670484276950664e-28,
        1.0
      ],
      "scale": [
        1.0,
        -1.9689968194316455e-27,
        9.414691248821327e-14
      ],
      "translation": [
        24.970548629760742,
        0.0,
        0.0
      ]
    },
    {
      "children": [
        47
      ],
      "name": "Bip01 R UpperArm",
      "rotation": [
        -0.13511957228183746,
        -0.021313395351171494,
        -0.05337771028280258,
        0.9891608953475952
      ],
      "scale": [
        1.0,
        -9.01797747587807e-09,
        -7.934673362797184e-09
      ],
      "translation": [
        11.936210632324219,
        0.0,
        -1.52587890625e-05
      ]
    },
    {
      "children": [
        48,
        51
      ],
      "name": "Bip01 R ForeArm",
      "rotation": [
        2.0582130444424251e-10,
        1.1167869296002664e-08,
        -0.02882891707122326,
        0.9995843768119812
      ],
      "scale": [
        0.9999999403953552,
        -3.151394700751098e-09,
        -2.2365163943049993e-08
      ],
      "translation": [
        23.69732666015625,
        0.0,
        0.0
      ]
    },
    {
      "children": [
        49
      ],
      "name": "rh_w_01",
      "rotation": [
        0.8278539180755615,
        0.5608289837837219,
        -0.01088173408061266,
        -0.0032108454033732414
      ],
      "scale": [
        1.0,
        -2.5898824418391087e-08,
        -7.007912028456076e-09
      ],
      "translation": [
        19.923721313476563,
        2.5698394775390625,
        -1.6744384765625
      ]
    },
    {
      "children": [
        50
      ],
      "name": "rh_w_02",
      "rotation": [
        -7.488803355215623e-09,
        -1.7024778253826867e-09,
        -0.021439850330352783,
        0.9997701644897461
      ],
      "scale": [
        1.0,
        9.998972316793697e-09,
        3.725290298461914e-09
      ],
      "translation": [
        18.202255249023438,
        0.0,
        0.0
      ]
    },
    {
      "name": "rh_w_03",
      "rotation": [
        4.637473830371164e-05,
        -0.004037307575345039,
        0.004922035615891218,
        0.9999797344207764
      ],
      "scale": [
        0.5082589983940125,
        1.6013295134342798e-09,
        -2.6328472735315245e-09
      ],
      "translation": [
        13.761600494384766,
        -1.9073486328125e-06,
        0.0
      ]
    },
    {
      "children": [
        52,
        56,
        60
      ],
      "name": "Bip01 R Hand",
      "rotation": [
        0.7051334381103516,
        0.06748095154762268,
        -0.06658753752708435,
        0.7027085423469543
      ],
      "scale": [
        1.0000001192092896,
        3.7357503757107224e-09,
        -1.458518195107672e-09
      ],
      "translation": [
        22.580636978149414,
        9.5367431640625e-07,
        1.52587890625e-05
      ]
    },
    {
      "children": [
        53
      ],
      "name": "Bip01 R Finger2",
      "rotation": [
        -0.01070131454616785,
        0.022079061716794968,
        0.12060804665088654,
        0.9923969507217407
      ],
      "scale": [
        0.999999463558197,
        -4.1925332538994553e-07,
        -8.654299676891242e-08
      ],
      "translation": [
        8.93044662475586,
        -0.6634063720703125,
        -0.9564814567565918
      ]
    },
    {
      "children": [
        54
      ],
      "name": "Bip01 R Finger21",
      "rotation": [
        4.218428661939555e-10,
        -2.9266794543403307e-10,
        0.1164020299911499,
        0.9932021498680115
      ],
      "scale": [
        1.0,
        -1.4309620155472658e-09,
        -6.795636275924721e-10
      ],
      "translation": [
        3.7396926879882813,
        0.0,
        0.0
      ]
    },
    {
      "children": [
        55
      ],
      "name": "Bip01 R Finger22",
      "rotation": [
        -8.978895960076727e-10,
        6.937436736187408e-10,
        0.1164020225405693,
        0.9932022094726563
      ],
      "scale": [
        1.0,
        4.349206861320454e-08,
        6.557653309258171e-10
      ],
      "translation": [
        3.739696502685547,
        0.0,
        -9.5367431640625e-07
      ]
    },
    {
      "name": "Bip01 R Finger2Nub",
      "rotation": [
        -4.656612873077393e-10,
        0.0,
        -2.168404344971009e-19,
        1.0
      ],
      "scale": [
        1.0,
        -4.336808689942018e-19,
        -9.313225746154785e-10
      ],
      "translation": [
        3.739696502685547,
        0.0,
        0.0
      ]
    },
    {
      "children": [
        57
      ],
      "name": "Bip01 R Finger1",
      "rotation": [
        -0.00017513516650069505,
        -0.07781512290239334,
        0.11223243176937103,
        0.9906304478645325
      ],
      "scale": [
        0.9999995827674866,
        -5.739314019592712e-07,
        4.2104161934730655e-07
      ],
      "translation": [
        9.00784683227539,
        -0.879119873046875,
        2.3459362983703613
      ]
    },
    {
      "children": [
        58
      ],
      "name": "Bip01 R Finger11",
      "rotation": [
        9.30943794275052e-11,
        -5.026033811361685e-09,
        0.1164020225405693,
        0.9932022094726563
      ],
      "scale": [
        0.9999999403953552,
        -7.154818959520526e-10,
        9.552365121123785e-09
      ],
      "translation": [
        3.5907135009765625,
        0.0,
        9.5367431640625e-07
      ]
    },
    {
      "children": [
        59
      ],
      "name": "Bip01 R Finger12",
      "rotation": [
        -1.062263610407399e-09,
        1.1154103418675732e-08,
        0.1164020299911499,
        0.9932021498680115
      ],
      "scale": [
        0.9999999403953552,
        5.798942481760605e-08,
        5.640050204647196e-09
      ],
      "translation": [
        3.590709686279297,
        -1.52587890625e-05,
        0.0
      ]
    },
    {
      "name": "Bip01 R Finger1Nub",
      "rotation": [
        -4.656611762854368e-10,
        1.862645149230957e-09,
        -2.2351741790771484e-08,
        1.0
      ],
      "scale": [
        1.0,
        1.4901160305669237e-08,
        7.450580596923828e-09
      ],
      "translation": [
        3.590728759765625,
        0.0,
        9.5367431640625e-07
      ]
    },
    {
      "children": [
        61
      ],
      "name": "Bip01 R Finger0",
      "rotation": [
        -0.6464375853538513,
        -0.23017531633377075,
        -0.09677518159151077,
        0.7209523916244507
      ],
      "scale": [
        1.0,
        1.5804086217485747e-07,
        -2.560297502895992e-07
      ],
      "translation": [
        0.8650360107421875,
        0.074554443359375,
        1.5068011283874512
      ]
    },
    {
      "children": [
        62
      ],
      "name": "Bip01 R Finger01",
      "rotation": [
        2.0284780799517677e-12,
        -3.725290076417309e-09,
        -0.000181504525244236,
        1.0
      ],
      "scale": [
        1.0,
        -3.725290076417309e-09,
        -2.2351741790771484e-08
      ],
      "translation": [
        4.2113800048828125,
        1.9073486328125e-06,
        0.0
      ]
    },
    {
      "children": [
        63
      ],
      "name": "Bip01 R Finger02",
      "rotation": [
        -7.732118945114053e-09,
        -1.1110480876553414e-16,
        0.038529977202415466,
        0.9992574453353882
      ],
      "scale": [
        1.0000001192092896,
        4.457075419850298e-08,
        -1.4305324924634988e-08
      ],
      "translation": [
        4.211374282836914,
        0.0,
        0.0
      ]
    },
    {
      "name": "Bip01 R Finger0Nub",
      "rotation": [
        -1.3877787807814457e-17,
        -7.450580596923828e-09,
        -6.05359673500061e-09,
        1.0
      ],
      "scale": [
        1.0,
        1.5832483768463135e-08,
        1.4901161193847656e-08
      ],
      "translation": [
        4.83111572265625,
        0.0,
        0.0
      ]
    },
    {
      "children": [
        65,
        67
      ],
      "name": "Bip01 L Clavicle",
      "rotation": [
        0.6095110177993774,
        -0.23812922835350037,
        0.743303120136261,
        0.13889282941818237
      ],
      "scale": [
        0.9999999403953552,
        -4.909086825932718e-08,
        4.0251716626471534e-08
      ],
      "translation": [
        -1.8450775146484375,
        1.0423622131347656,
        2.4952707290649414
      ]
    },
    {
      "children": [
        66
      ],
      "name": "left_sh_01",
      "rotation": [
        0.7749795913696289,
        -0.17564764618873596,
        0.04530755430459976,
        0.6053938865661621
      ],
      "scale": [
        1.0000001192092896,
        -1.1213334261128693e-08,
        1.9773175097270723e-08
      ],
      "translation": [
        4.4892425537109375,
        0.011537551879882813,
        1.4733428955078125
      ]
    },
    {
      "name": "left_sh_02",
      "rotation": [
        3.552713678800501e-15,
        5.3290705182007514e-15,
        2.524354896707238e-29,
        1.0
      ],
      "scale": [
        1.0,
        -5.048709793414476e-29,
        3.552713678800501e-15
      ],
      "translation": [
        24.970550537109375,
        0.0,
        0.0
      ]
    },
    {
      "children": [
        68
      ],
      "name": "Bip01 L UpperArm",
      "rotation": [
        0.13511957228183746,
        0.021313389763236046,
        -0.05337771028280258,
        0.9891608953475952
      ],
      "scale": [
        0.9999999403953552,
        -1.0924727789074495e-09,
        -1.44989922290506e-08
      ],
      "translation": [
        11.936209678649902,
        -3.814697265625e-06,
        1.52587890625e-05
      ]
    },
    {
      "children": [
        69,
        72
      ],
      "name": "Bip01 L ForeArm",
      "rotation": [
        -4.116427199107875e-10,
        -1.4894968813905507e-08,
        -0.028828918933868408,
        0.9995843768119812
      ],
      "scale": [
        1.0,
        5.677027736794571e-10,
        4.47045174212235e-08
      ],
      "translation": [
        23.697330474853516,
        0.0,
        1.52587890625e-05
      ]
    },
    {
      "children": [
        70
      ],
      "name": "lh_w_01",
      "rotation": [
        0.8278523683547974,
        0.5608310699462891,
        0.010881887748837471,
        0.003211935516446829
      ],
      "scale": [
        1.0585888624191284,
        -3.494170641715755e-08,
        -6.26773788425794e-09
      ],
      "translation": [
        19.923738479614258,
        2.570159912109375,
        1.6744842529296875
      ]
    },
    {
      "children": [
        71
      ],
      "name": "lh_w_02",
      "rotation": [
        0.0,
        0.0,
        -0.021439865231513977,
        0.9997701644897461
      ],
      "scale": [
        0.9999999403953552,
        7.443730964951101e-09,
        0.0
      ],
      "translation": [
        18.20224952697754,
        -5.7220458984375e-06,
        0.0
      ]
    },
    {
      "name": "lh_w_03",
      "rotation": [
        4.6382134314626455e-05,
        -0.004037308972328901,
        0.00492204399779439,
        0.9999797344207764
      ],
      "scale": [
        0.5082589983940125,
        -1.3970725909473458e-08,
        -2.6031199418241613e-09
      ],
      "translation": [
        13.761600494384766,
        7.62939453125e-06,
        0.0
      ]
    },
    {
      "children": [
        73,
        77,
        81
      ],
      "name": "Bip01 L Hand",
      "rotation": [
        -0.7049362063407898,
        -0.06950603425502777,
        -0.0645693764090538,
        0.702897310256958
      ],
      "scale": [
        0.9999999403953552,
        -8.178926869106817e-09,
        -2.6706901135042926e-09
      ],
      "translation": [
        22.58063316345215,
        -9.5367431640625e-07,
        -1.52587890625e-05
      ]
    },
    {
      "children": [
        74
      ],
      "name": "Bip01 L Finger2",
      "rotation": [
        0.010701313614845276,
        -0.022079065442085266,
        0.12060804665088654,
        0.9923969507217407
      ],
      "scale": [
        0.999999463558197,
        -4.193959455278673e-07,
        8.991055011620119e-08
      ],
      "translation": [
        8.930450439453125,
        -0.66339111328125,
        0.95648193359375
      ]
    },
    {
      "children": [
        75
      ],
      "name": "Bip01 L Finger21",
      "rotation": [
        -1.0840782438403807e-10,
        3.540879256469509e-10,
        0.1164020299911499,
        0.9932021498680115
      ],
      "scale": [
        1.0000001192092896,
        1.3066394188854247e-08,
        -2.065368098769227e-09
      ],
      "translation": [
        3.739696502685547,
        0.0,
        -9.5367431640625e-07
      ]
    },
    {
      "children": [
        76
      ],
      "name": "Bip01 L Finger22",
      "rotation": [
        6.251074657903644e-10,
        -5.166996275285385e-10,
        0.11640205979347229,
        0.9932021498680115
      ],
      "scale": [
        1.0000001192092896,
        5.655846990748614e-08,
        2.553388389614497e-09
      ],
      "translation": [
        3.7396888732910156,
        0.0,
        9.5367431640625e-07
      ]
    },
    {
      "name": "Bip01 L Finger2Nub",
      "rotation": [
        -4.6566125955216364e-10,
        -6.984918754504577e-10,
        -7.450580596923828e-09,
        1.0
      ],
      "scale": [
        1.0,
        -1.4901161193847656e-08,
        1.3969839729455202e-09
      ],
      "translation": [
        3.7396888732910156,
        0.0,
        0.0
      ]
    },
    {
      "children": [
        78
      ],
      "name": "Bip01 L Finger1",
      "rotation": [
        0.00017513516650069505,
        0.07781512290239334,
        0.11223243176937103,
        0.9906304478645325
      ],
      "scale": [
        0.9999996423721313,
        -5.474205977407109e-07,
        -4.1505487047288625e-07
      ],
      "translation": [
        9.007850646972656,
        -0.879119873046875,
        -2.345937728881836
      ]
    },
    {
      "children": [
        79
      ],
      "name": "Bip01 L Finger11",
      "rotation": [
        -1.7144733410745516e-09,
        -3.793942049412635e-09,
        0.11640201508998871,
        0.9932022094726563
      ],
      "scale": [
        1.0,
        -3.042568152977765e-08,
        2.1760591106811944e-09
      ],
      "translation": [
        3.5907135009765625,
        0.0,
        1.9073486328125e-06
      ]
    },
    {
      "children": [
        80
      ],
      "name": "Bip01 L Finger12",
      "rotation": [
        1.4958954075439124e-09,
        -5.455642049234655e-10,
        0.1164020225405693,
        0.9932022094726563
      ],
      "scale": [
        0.9999999403953552,
        2.9710195192933497e-08,
        2.293328416058671e-09
      ],
      "translation": [
        3.5907135009765625,
        1.52587890625e-05,
        9.5367431640625e-07
      ]
    },
    {
      "name": "Bip01 L Finger1Nub",
      "rotation": [
        4.6566128730773926e-09,
        1.862645149230957e-09,
        -2.2351741790771484e-08,
        1.0
      ],
      "scale": [
        1.0,
        -1.4901161193847656e-08,
        7.450580596923828e-09
      ],
      "translation": [
        3.5907249450683594,
        0.0,
        9.5367431640625e-07
      ]
    },
    {
      "children": [
        82
      ],
      "name": "Bip01 L Finger0",
      "rotation": [
        0.6464375853538513,
        0.23017531633377075,
        -0.09677518904209137,
        0.7209523916244507
      ],
      "scale": [
        1.0000001192092896,
        1.33342965114025e-07,
        2.3337395305134123e-07
      ],
      "translation": [
        0.8650398254394531,
        0.074554443359375,
        -1.5068011283874512
      ]
    },
    {
      "children": [
        83
      ],
      "name": "Bip01 L Finger01",
      "rotation": [
        3.7239380468179206e-09,
        6.761258219967203e-13,
        -0.00018151430413126945,
        1.0
      ],
      "scale": [
        1.0,
        -1.2107192581822801e-08,
        1.4903864808957223e-08
      ],
      "translation": [
        4.21137809753418,
        -1.9073486328125e-06,
        0.0
      ]
    },
    {
      "children": [
        84
      ],
      "name": "Bip01 L Finger02",
      "rotation": [
        7.301512727764248e-09,
        3.722523844729153e-09,
        0.038529954850673676,
        0.9992574453353882
      ],
      "scale": [
        1.0,
        -3.5391316544064466e-08,
        -8.024295006237026e-09
      ],
      "translation": [
        4.211387634277344,
        1.9073486328125e-06,
        0.0
      ]
    },
    {
      "name": "Bip01 L Finger0Nub",
      "rotation": [
        -3.725290298461914e-09,
        3.725290298461914e-09,
        -8.381903171539307e-09,
        1.0
      ],
      "scale": [
        1.0,
        2.2351741790771484e-08,
        7.450580596923828e-09
      ],
      "translation": [
        4.831111907958984,
        0.0,
        0.0
      ]
    },
    {
      "children": [
        86,
        92
      ],
      "name": "Bip01 Head",
      "rotation": [
        2.843173152423592e-14,
        -7.36343963581021e-08,
        0.026547618210315704,
        0.9996475577354431
      ],
      "scale": [
        0.9999997019767761,
        -3.8144790104333026e-10,
        -2.0861582928255636e-15
      ],
      "translation": [
        8.269378662109375,
        -3.814697265625e-06,
        0.0
      ]
    },
    {
      "children": [
        87
      ],
      "name": "Bip01 Ponytail1",
      "rotation": [
        1.847844143323951e-12,
        -2.772950665530516e-06,
        0.9997656941413879,
        -0.021647104993462563
      ],
      "scale": [
        0.9999997615814209,
        -2.955307665253315e-10,
        1.2464477421123693e-13
      ],
      "translation": [
        6.120635986328125,
        -6.112083435058594,
        -1.6952501027844846e-05
      ]
    },
    {
      "children": [
        88
      ],
      "name": "Bip01 Ponytail11",
      "rotation": [
        1.0716071313730119e-13,
        -5.893472021512025e-08,
        0.021248415112495422,
        0.9997742176055908
      ],
      "scale": [
        1.0,
        2.532436260693771e-09,
        4.905095630342547e-14
      ],
      "translation": [
        11.2379150390625,
        -0.008941650390625,
        -2.4796463549137115e-08
      ]
    },
    {
      "children": [
        89
      ],
      "name": "Bip01 Ponytail12",
      "rotation": [
        6.052797830004633e-14,
        1.8297043880011188e-07,
        -0.0659685730934143,
        0.9978216886520386
      ],
      "scale": [
        1.0000001192092896,
        -9.223982133654829e-10,
        -8.898947795018056e-14
      ],
      "translation": [
        11.236335754394531,
        -0.0088653564453125,
        -2.459273673593998e-08
      ]
    },
    {
      "children": [
        90
      ],
      "name": "Bip01 Ponytail13",
      "rotation": [
        2.2787005030285024e-13,
        1.8297032511327416e-07,
        -0.06596854329109192,
        0.9978216886520386
      ],
      "scale": [
        1.0,
        8.8145484157141e-15,
        -2.3105324077621336e-14
      ],
      "translation": [
        11.236366271972656,
        -0.00887298583984375,
        -2.4607288651168346e-08
      ]
    },
    {
      "children": [
        91
      ],
      "name": "Bip01 Ponytail14",
      "rotation": [
        1.1215478551299465e-13,
        1.8297041037840245e-07,
        -0.06596856564283371,
        0.9978216886520386
      ],
      "scale": [
        1.0,
        8.814692411315134e-15,
        -3.3800090818662115e-14
      ],
      "translation": [
        11.236343383789063,
        -0.00887298583984375,
        -2.459273673593998e-08
      ]
    },
    {
      "name": "Bip01 Ponytail1Nub",
      "rotation": [
        0.7073882222175598,
        0.7068251967430115,
        9.80225195235107e-07,
        -9.810059964365792e-07
      ],
      "scale": [
        1.0,
        3.670962839263936e-11,
        -5.371695384510933e-13
      ],
      "translation": [
        11.237533569335938,
        1.9073486328125e-06,
        1.4551915228366852e-11
      ]
    },
    {
      "name": "Bip01 HeadNub",
      "rotation": [
        -6.394884621840902e-14,
        -2.842170943040401e-14,
        -2.0194839173657902e-27,
        1.0
      ],
      "scale": [
        0.9999999403953552,
        -6.462348535570529e-27,
        5.684341886080802e-14
      ],
      "translation": [
        20.161102294921875,
        0.0,
        0.0
      ]
    }
  ],
  "scene": 0,
  "scenes": [
    {
      "nodes": [
        0
      ]
    }
  ],
  "skins": [
    {
      "inverseBindMatrices": 4,
      "joints": [
        2,
        3,
        4,
        5,
        6,
        7,
        8,
        9,
        10,
        11,
        12,
        13,
        14,
        15,
        16,
        17,
        18,
        19,
        20,
        21,
        22,
        23,
        24,
        25,
        26,
        27,
        28,
        29,
        30,
        31,
        32,
        33,
        34,
        35,
        36,
        37,
        38,
        39,
        40,
        41,
        42,
        43,
        44,
        45,
        46,
        47,
        48,
        49,
        50,
        51,
        52,
        53,
        54,
        55,
        56,
        57,
        58,
        59,
        60,
        61,
        62,
        63,
        64,
        65,
        66,
        67,
        68,
        69,
        70,
        71,
        72,
        73,
        74,
        75,
        76,
        77,
        78,
        79,
        80,
        81,
        82,
        83,
        84,
        85,
        86,
        87,
        88,
        89,
        90,
        91,
        92
      ],
      "skeleton": 2
    }
  ]
}
