{
  "accessors": [
    {
      "bufferView": 0,
      "componentType": 5126,
      "count": 269,
      "max": [
        172.78207397460938,
        172.3259735107422,
        173.71107482910156
      ],
      "min": [
        -14.82708740234375,
        -13.282302856445313,
        -13.475387573242188
      ],
      "type": "VEC3"
    },
    {
      "bufferView": 1,
      "componentType": 5126,
      "count": 269,
      "type": "VEC3"
    },
    {
      "bufferView": 2,
      "componentType": 5126,
      "count": 269,
      "type": "VEC2"
    },
    {
      "bufferView": 3,
      "componentType": 5123,
      "count": 1122,
      "type": "SCALAR"
    },
    {
      "bufferView": 4,
      "componentType": 5126,
      "count": 9,
      "type": "MAT4"
    }
  ],
  "asset": {
    "generator": "gr2togltf (ANKA2 Project)",
    "version": "2.0"
  },
  "bufferViews": [
    {
      "buffer": 0,
      "byteLength": 3228,
      "target": 34962
    },
    {
      "buffer": 0,
      "byteLength": 3228,
      "byteOffset": 3228,
      "target": 34962
    },
    {
      "buffer": 0,
      "byteLength": 2152,
      "byteOffset": 6456,
      "target": 34962
    },
    {
      "buffer": 0,
      "byteLength": 2244,
      "byteOffset": 8608,
      "target": 34963
    },
    {
      "buffer": 0,
      "byteLength": 576,
      "byteOffset": 10852
    }
  ],
  "buffers": [
    {
      "byteLength": 11428,
      "uri": "data:application/octet-stream;base64,"
    }
  ],
  "materials": [
    {
      "name": "default",
      "pbrMetallicRoughness": {
        "baseColorFactor": [
          0.8,
          0.8,
          0.8,
          1.0
        ],
        "metallicFactor": 0.0,
        "roughnessFactor": 0.8
      }
    }
  ],
  "meshes": [
    {
      "name": "hair_16_1",
      "primitives": [
        {
          "attributes": {
            "NORMAL": 1,
            "POSITION": 0,
            "TEXCOORD_0": 2
          },
          "indices": 3,
          "material": 0,
          "mode": 4
        }
      ]
    }
  ],
  "nodes": [
    {
      "children": [
        1,
        2
      ]
    },
    {
      "mesh": 0,
      "name": "hair_16_1",
      "skin": 0
    },
    {
      "children": [
        3
      ],
      "name": "Bip01",
      "rotation": [
        0.0,
        0.0,
        0.0,
        0.9999999403953552
      ],
      "scale": [
        0.9999997615814209,
        -5.117093408073606e-14,
        0.0
      ],
      "translation": [
        5.960464477539063e-08,
        -7.105427357601002e-14,
        0.0
      ]
    },
    {
      "children": [
        4
      ],
      "name": "Bip01 Pelvis",
      "rotation": [
        -0.4999993145465851,
        -0.5,
        -0.5,
        0.5000006556510925
      ],
      "scale": [
        1.0,
        6.755036055564761e-20,
        -2.6671148450016795e-18
      ],
      "translation": [
        0.9087960720062256,
        -7.105427357601002e-14,
        0.0
      ]
    },
    {
      "children": [
        5
      ],
      "name": "Bip01 Spine",
      "rotation": [
        -2.0994200440327404e-06,
        -7.13202211954922e-07,
        0.02897808514535427,
        0.9995800256729126
      ],
      "scale": [
        1.0000001192092896,
        -3.724561326023945e-09,
        -1.6604279800061517e-13
      ],
      "translation": [
        6.193992614746094,
        -0.009989559650421143,
        8.603674359619617e-06
      ]
    },
    {
      "children": [
        6
      ],
      "name": "Bip01 Spine1",
      "rotation": [
        3.2099401126505986e-14,
        2.445134725803655e-07,
        -0.08815741539001465,
        0.9961065649986267
      ],
      "scale": [
        1.0,
        -1.0468244937555937e-08,
        -3.4335168307706235e-14
      ],
      "translation": [
        12.570350646972656,
        -0.0077838897705078125,
        -2.1591404220089316e-08
      ]
    },
    {
      "children": [
        7
      ],
      "name": "Bip01 Spine2",
      "rotation": [
        4.449198103581402e-15,
        1.693988309625638e-07,
        -0.06107543781399727,
        0.9981331825256348
      ],
      "scale": [
        1.0,
        6.9974137161671335e-15,
        -1.540582169213406e-14
      ],
      "translation": [
        9.930061340332031,
        -0.012085914611816406,
        -3.352033672854304e-08
      ]
    },
    {
      "children": [
        8
      ],
      "name": "Bip01 Neck",
      "rotation": [
        -1.4723102972251725e-14,
        -7.252511977640097e-07,
        0.26148366928100586,
        0.9652078747749329
      ],
      "scale": [
        1.000000238418579,
        -1.2647957348121963e-08,
        -1.2834034507878955e-13
      ],
      "translation": [
        18.59966278076172,
        -1.1482963562011719,
        -1.1849188013002276e-06
      ]
    },
    {
      "children": [
        9
      ],
      "name": "Bip01 Head",
      "rotation": [
        1.5548602647920927e-15,
        -7.36336076556654e-08,
        0.026547329500317574,
        0.9996475577354431
      ],
      "scale": [
        0.9999998807907104,
        1.1129323018721493e-09,
        1.171749600559907e-13
      ],
      "translation": [
        8.269378662109375,
        -3.814697265625e-06,
        -1.4551915228366852e-11
      ]
    },
    {
      "children": [
        10
      ],
      "name": "Bip01 Ponytail1",
      "rotation": [
        1.847844143323951e-12,
        -2.772950665530516e-06,
        0.9997656941413879,
        -0.02164709009230137
      ],
      "scale": [
        0.9999997615814209,
        -2.955254374548133e-10,
        1.5824819753207375e-13
      ],
      "translation": [
        6.120635986328125,
        -6.112083435058594,
        -1.6952501027844846e-05
      ]
    },
    {
      "name": "Bip01 Ponytail11",
      "rotation": [
        8.883789547503877e-16,
        -5.8934499946872165e-08,
        0.021248383447527885,
        0.9997742176055908
      ],
      "scale": [
        1.0000001192092896,
        1.3429387601959775e-09,
        8.474584288443651e-14
      ],
      "translation": [
        11.2379150390625,
        -0.00894927978515625,
        -2.4811015464365482e-08
      ]
    }
  ],
  "scene": 0,
  "scenes": [
    {
      "nodes": [
        0
      ]
    }
  ],
  "skins": [
    {
      "inverseBindMatrices": 4,
      "joints": [
        2,
        3,
        4,
        5,
        6,
        7,
        8,
        9,
        10
      ],
      "skeleton": 2
    }
  ]
}
