{
  "accessors": [
    {
      "bufferView": 0,
      "componentType": 5126,
      "count": 606,
      "max": [
        8.442532539367676,
        11.934651374816895,
        175.16200256347656
      ],
      "min": [
        -18.34239959716797,
        -11.669398307800293,
        145.51025390625
      ],
      "type": "VEC3"
    },
    {
      "bufferView": 1,
      "componentType": 5126,
      "count": 606,
      "type": "VEC3"
    },
    {
      "bufferView": 2,
      "componentType": 5126,
      "count": 606,
      "type": "VEC2"
    },
    {
      "bufferView": 3,
      "componentType": 5123,
      "count": 2379,
      "type": "SCALAR"
    },
    {
      "bufferView": 4,
      "componentType": 5126,
      "count": 83,
      "type": "MAT4"
    }
  ],
  "asset": {
    "generator": "gr2togltf (ANKA2 Project)",
    "version": "2.0"
  },
  "bufferViews": [
    {
      "buffer": 0,
      "byteLength": 7272,
      "target": 34962
    },
    {
      "buffer": 0,
      "byteLength": 7272,
      "byteOffset": 7272,
      "target": 34962
    },
    {
      "buffer": 0,
      "byteLength": 4848,
      "byteOffset": 14544,
      "target": 34962
    },
    {
      "buffer": 0,
      "byteLength": 4758,
      "byteOffset": 19392,
      "target": 34963
    },
    {
      "buffer": 0,
      "byteLength": 5312,
      "byteOffset": 24150
    }
  ],
  "buffers": [
    {
      "byteLength": 29462,
      "uri": "data:application/octet-stream;base64,"
    }
  ],
  "materials": [
    {
      "name": "default",
      "pbrMetallicRoughness": {
        "baseColorFactor": [
          0.8,
          0.8,
          0.8,
          1.0
        ],
        "metallicFactor": 0.0,
        "roughnessFactor": 0.8
      }
    }
  ],
  "meshes": [
    {
      "name": "hair_71_1",
      "primitives": [
        {
          "attributes": {
            "NORMAL": 1,
            "POSITION": 0,
            "TEXCOORD_0": 2
          },
          "indices": 3,
          "material": 0,
          "mode": 4
        }
      ]
    }
  ],
  "nodes": [
    {
      "children": [
        1,
        2
      ]
    },
    {
      "mesh": 0,
      "name": "hair_71_1",
      "skin": 0
    },
    {
      "children": [
        3
      ],
      "name": "Bip01",
      "rotation": [
        0.0,
        0.0,
        0.0,
        1.0000001192092896
      ],
      "scale": [
        1.0,
        0.0,
        0.0
      ],
      "translation": [
        1.7881393432617188e-07,
        1.1368683772161603e-13,
        0.0
      ]
    },
    {
      "children": [
        4
      ],
      "name": "Bip01 Pelvis",
      "rotation": [
        -0.499999463558197,
        -0.5000001788139343,
        -0.5000001788139343,
        0.500000536441803
      ],
      "scale": [
        1.0,
        0.0,
        0.0
      ],
      "translation": [
        0.9087960720062256,
        -7.105427357601002e-14,
        0.0
      ]
    },
    {
      "children": [
        5,
        6,
        9,
        20,
        27,
        29,
        37
      ],
      "name": "Bip01 Spine",
      "rotation": [
        -2.0994200440327404e-06,
        -7.132022687983408e-07,
        0.02897809073328972,
        0.9995800852775574
      ],
      "scale": [
        1.0,
        -5.52744438761521e-12,
        0.0
      ],
      "translation": [
        6.193992614746094,
        -0.009989559650421143,
        8.603674359619617e-06
      ]
    },
    {
      "children": [
        7
      ],
      "name": "Bip01 R Thigh",
      "rotation": [
        -0.005618720781058073,
        0.9973922371864319,
        -0.005683480761945248,
        0.07172735035419464
      ],
      "scale": [
        1.0,
        3.725290298461914e-09,
        -1.4901161193847656e-08
      ],
      "translation": [
        -6.183006286621094,
        0.36882495880126953,
        -6.6108808517456055
      ]
    },
    {
      "children": [
        8
      ],
      "name": "Bip01 L Thigh",
      "rotation": [
        -0.005618919152766466,
        0.9973923563957214,
        0.005686241202056408,
        -0.07172724604606628
      ],
      "scale": [
        1.0,
        2.561137080192566e-09,
        0.0
      ],
      "translation": [
        -6.183006286621094,
        0.3687882423400879,
        6.610882759094238
      ]
    },
    {
      "children": [
        38
      ],
      "name": "Bip01 R Calf",
      "rotation": [
        2.2516390141280596e-10,
        3.7248040207771282e-09,
        -0.002057911129668355,
        0.9999979734420776
      ],
      "scale": [
        1.0,
        -6.9388355876740434e-18,
        7.4505170921668196e-09
      ],
      "translation": [
        43.94834899902344,
        0.0,
        0.0
      ]
    },
    {
      "children": [
        39
      ],
      "name": "Bip01 L Calf",
      "rotation": [
        -2.40496539349877e-10,
        -3.725762365291985e-09,
        -0.002057911129668355,
        0.9999979734420776
      ],
      "scale": [
        0.9999999403953552,
        0.0,
        7.448664351983325e-09
      ],
      "translation": [
        43.94834518432617,
        0.0,
        0.0
      ]
    },
    {
      "children": [
        10
      ],
      "name": "Bip01 Spine1",
      "rotation": [
        3.20993977383742e-14,
        2.4451341573694663e-07,
        -0.08815741539001465,
        0.9961065649986267
      ],
      "scale": [
        1.0,
        -1.4901139877565583e-08,
        -5.684341886080802e-14
      ],
      "translation": [
        12.570350646972656,
        -0.0077838897705078125,
        -2.1591404220089316e-08
      ]
    },
    {
      "children": [
        11,
        55,
        56
      ],
      "name": "Bip01 Spine2",
      "rotation": [
        3.559358228755237e-15,
        1.6939880254085438e-07,
        -0.06107543036341667,
        0.9981331825256348
      ],
      "scale": [
        1.0,
        6.9974137161671335e-15,
        -2.842170943040401e-14
      ],
      "translation": [
        9.930061340332031,
        -0.012085914611816406,
        -3.352033672854304e-08
      ]
    },
    {
      "children": [
        12,
        14,
        45
      ],
      "name": "Bip01 Neck",
      "rotation": [
        -4.4169308916755176e-14,
        -7.252515388245229e-07,
        0.2614837884902954,
        0.9652078747749329
      ],
      "scale": [
        1.000000238418579,
        -5.310096980182255e-13,
        0.0
      ],
      "translation": [
        18.59966278076172,
        -1.1482963562011719,
        -1.1849188013002276e-06
      ]
    },
    {
      "children": [
        13,
        17
      ],
      "name": "Bip01 L Clavicle",
      "rotation": [
        0.6095110774040222,
        -0.23812946677207947,
        0.743303120136261,
        0.13889309763908386
      ],
      "scale": [
        1.0,
        -1.4901161193847656e-08,
        0.0
      ],
      "translation": [
        -1.845062255859375,
        1.0423583984375,
        2.4952709674835205
      ]
    },
    {
      "children": [
        43
      ],
      "name": "left_sh_01",
      "rotation": [
        0.774979829788208,
        -0.1756475418806076,
        0.04530750960111618,
        0.6053937077522278
      ],
      "scale": [
        0.9999999403953552,
        -2.9802322387695313e-08,
        -7.450580596923828e-09
      ],
      "translation": [
        4.48924446105957,
        0.01154327392578125,
        1.47332763671875
      ]
    },
    {
      "children": [
        15,
        16
      ],
      "name": "Bip01 R Clavicle",
      "rotation": [
        -0.609510600566864,
        0.23812735080718994,
        0.7433037757873535,
        0.13889478147029877
      ],
      "scale": [
        1.0000001192092896,
        -2.9802322387695313e-08,
        -2.9802322387695313e-08
      ],
      "translation": [
        -1.845062255859375,
        1.0423736572265625,
        -2.4952690601348877
      ]
    },
    {
      "children": [
        44
      ],
      "name": "right_sh_01",
      "rotation": [
        -0.7749796509742737,
        0.1756465882062912,
        0.04531028866767883,
        0.6053939461708069
      ],
      "scale": [
        1.0,
        0.0,
        -1.4901161193847656e-08
      ],
      "translation": [
        4.489246368408203,
        0.011577606201171875,
        -1.4733428955078125
      ]
    },
    {
      "children": [
        18
      ],
      "name": "Bip01 R UpperArm",
      "rotation": [
        -0.1351194977760315,
        -0.021313438192009926,
        -0.053377747535705566,
        0.9891608953475952
      ],
      "scale": [
        0.9999999403953552,
        -4.6566128730773926e-09,
        0.0
      ],
      "translation": [
        11.936210632324219,
        3.814697265625e-06,
        0.0
      ]
    },
    {
      "children": [
        19
      ],
      "name": "Bip01 L UpperArm",
      "rotation": [
        0.1351195126771927,
        0.021313441917300224,
        -0.053377751260995865,
        0.9891608953475952
      ],
      "scale": [
        0.9999999403953552,
        0.0,
        1.1175870895385742e-08
      ],
      "translation": [
        11.936214447021484,
        0.0,
        0.0
      ]
    },
    {
      "children": [
        26,
        50
      ],
      "name": "Bip01 R ForeArm",
      "rotation": [
        2.417046840452741e-10,
        -3.733811038131307e-09,
        -0.028828922659158707,
        0.9995843768119812
      ],
      "scale": [
        1.0,
        3.725290298461914e-09,
        7.450580596923828e-09
      ],
      "translation": [
        23.697330474853516,
        0.0,
        -1.52587890625e-05
      ]
    },
    {
      "children": [
        25,
        51
      ],
      "name": "Bip01 L ForeArm",
      "rotation": [
        -5.638930433704559e-10,
        -7.444127536615497e-09,
        -0.028828920796513557,
        0.9995843768119812
      ],
      "scale": [
        1.0,
        7.450580596923828e-09,
        1.4887741706104407e-08
      ],
      "translation": [
        23.69732666015625,
        4.76837158203125e-07,
        3.0517578125e-05
      ]
    },
    {
      "children": [
        21
      ],
      "name": "back_bone01",
      "rotation": [
        -9.262238620522112e-08,
        -7.457609285665967e-07,
        0.9823359251022339,
        -0.1871260404586792
      ],
      "scale": [
        1.0000001192092896,
        2.980298319243957e-08,
        2.842170943040401e-14
      ],
      "translation": [
        3.0302810668945313,
        -8.421609878540039,
        -1.2413242075126618e-05
      ]
    },
    {
      "children": [
        22
      ],
      "name": "back_bone02",
      "rotation": [
        -1.3581191809795075e-15,
        2.0840673919952663e-16,
        -0.08938860148191452,
        0.9959968328475952
      ],
      "scale": [
        0.9999998211860657,
        1.3011134135635892e-30,
        -1.6040125279300757e-15
      ],
      "translation": [
        12.280601501464844,
        -3.814697265625e-06,
        5.229594535194337e-12
      ]
    },
    {
      "children": [
        23
      ],
      "name": "back_bone03",
      "rotation": [
        4.224761477613324e-15,
        3.907233945508529e-17,
        0.00676793372258544,
        0.9999771118164063
      ],
      "scale": [
        1.0000001192092896,
        -9.313225746154785e-10,
        1.7973141285812164e-15
      ],
      "translation": [
        18.749588012695313,
        8.392333984375e-05,
        1.4592342267860658e-07
      ]
    },
    {
      "children": [
        24
      ],
      "name": "back_bone04",
      "rotation": [
        2.1891397115197941e-16,
        -4.534539002357878e-16,
        -0.007037338335067034,
        0.9999752044677734
      ],
      "scale": [
        1.0000001192092896,
        2.8095874160359602e-30,
        8.725527794056515e-16
      ],
      "translation": [
        17.046077728271484,
        0.00026702880859375,
        1.2274404070922174e-07
      ]
    },
    {
      "children": [
        52
      ],
      "name": "back_bone05",
      "rotation": [
        -3.311237079274272e-16,
        4.3777992612376135e-16,
        0.004368518013507128,
        0.9999904632568359
      ],
      "scale": [
        1.0,
        3.1208620817156246e-30,
        8.784445817680748e-16
      ],
      "translation": [
        19.994054794311523,
        0.0,
        1.5606860870320816e-07
      ]
    },
    {
      "children": [
        41
      ],
      "name": "lh_w_01",
      "rotation": [
        0.8278523683547974,
        0.5608313083648682,
        0.01088186539709568,
        0.0032117855735123158
      ],
      "scale": [
        0.9985764622688293,
        0.05288582295179367,
        -0.008059623651206493
      ],
      "translation": [
        19.923744201660156,
        2.5701656341552734,
        1.6744842529296875
      ]
    },
    {
      "children": [
        42
      ],
      "name": "rh_w_01",
      "rotation": [
        0.8278537392616272,
        0.5608292818069458,
        -0.010881809517741203,
        -0.0032111131586134434
      ],
      "scale": [
        1.0000003576278687,
        1.58033799380064e-08,
        1.4901161193847656e-08
      ],
      "translation": [
        19.923723220825195,
        2.5698633193969727,
        -1.6744384765625
      ]
    },
    {
      "children": [
        28
      ],
      "name": "left_bone01",
      "rotation": [
        0.1285741627216339,
        0.6953186392784119,
        0.7016003727912903,
        -0.08807732909917831
      ],
      "scale": [
        1.0,
        -5.960464477539063e-08,
        -1.1292229373793816e-09
      ],
      "translation": [
        3.5177536010742188,
        -1.6281514167785645,
        9.515979766845703
      ]
    },
    {
      "children": [
        31
      ],
      "name": "left_bone02",
      "rotation": [
        4.1463804612007493e-11,
        2.0767929598264345e-08,
        -0.0019965062383562326,
        0.9999979734420776
      ],
      "scale": [
        1.0,
        0.0,
        0.0
      ],
      "translation": [
        17.058738708496094,
        -9.1552734375e-05,
        -7.152557373046875e-07
      ]
    },
    {
      "children": [
        30
      ],
      "name": "right_bone01",
      "rotation": [
        -0.1285742223262787,
        -0.695319652557373,
        0.7015994787216187,
        -0.08807699382305145
      ],
      "scale": [
        1.0000001192092896,
        -2.9802322387695313e-08,
        -1.0364828995079733e-09
      ],
      "translation": [
        3.5177536010742188,
        -1.6281232833862305,
        -9.515987396240234
      ]
    },
    {
      "children": [
        32
      ],
      "name": "right_bone02",
      "rotation": [
        4.1463700528598935e-11,
        2.0767936703691703e-08,
        -0.001996521605178714,
        0.9999979734420776
      ],
      "scale": [
        1.0,
        0.0,
        3.552713678800501e-15
      ],
      "translation": [
        17.058738708496094,
        -9.1552734375e-05,
        -5.960464477539063e-07
      ]
    },
    {
      "children": [
        33
      ],
      "name": "left_bone03",
      "rotation": [
        -1.7585457016359302e-13,
        7.385227152045815e-11,
        0.0024103298783302307,
        0.9999971985816956
      ],
      "scale": [
        1.0000001192092896,
        -1.0495065633704364e-24,
        4.413136522884997e-15
      ],
      "translation": [
        17.697647094726563,
        -3.814697265625e-06,
        0.0
      ]
    },
    {
      "children": [
        35
      ],
      "name": "right_bone03",
      "rotation": [
        -1.7841556411522103e-13,
        7.38500510744089e-11,
        0.002410314977169037,
        0.9999971985816956
      ],
      "scale": [
        1.0000001192092896,
        1.967765703381435e-25,
        -1.8041124150158794e-15
      ],
      "translation": [
        17.697647094726563,
        0.0,
        0.0
      ]
    },
    {
      "children": [
        34
      ],
      "name": "left_bone04",
      "rotation": [
        -1.7861015299419376e-15,
        -1.7763299461041751e-15,
        -0.005500906612724066,
        0.999984860420227
      ],
      "scale": [
        1.0,
        -1.269120425803135e-29,
        3.5331702993667393e-15
      ],
      "translation": [
        17.533344268798828,
        -0.0001983642578125,
        0.0
      ]
    },
    {
      "children": [
        53
      ],
      "name": "left_bone05",
      "rotation": [
        -9.49461041675737e-16,
        -1.5353813855937755e-17,
        -0.0172868724912405,
        0.9998505711555481
      ],
      "scale": [
        1.0000001192092896,
        -3.725290298461914e-09,
        7.041898192491035e-15
      ],
      "translation": [
        17.377689361572266,
        0.0,
        -1.1920928955078125e-07
      ]
    },
    {
      "children": [
        36
      ],
      "name": "right_bone04",
      "rotation": [
        -2.4428998885485152e-18,
        4.428610385463235e-16,
        -0.00550092151388526,
        0.999984860420227
      ],
      "scale": [
        1.0000001192092896,
        -9.313225746154785e-10,
        8.856818959672116e-16
      ],
      "translation": [
        17.533355712890625,
        -0.0001983642578125,
        0.0
      ]
    },
    {
      "children": [
        54
      ],
      "name": "right_bone05",
      "rotation": [
        1.5353833708272456e-17,
        3.838453463984439e-18,
        -0.0172868762165308,
        0.9998505711555481
      ],
      "scale": [
        1.0,
        7.450580596923828e-09,
        -1.7681502548116588e-15
      ],
      "translation": [
        17.377685546875,
        -3.814697265625e-06,
        1.1920928955078125e-07
      ]
    },
    {
      "children": [
        40
      ],
      "name": "front_bone01",
      "rotation": [
        1.228702899425116e-07,
        -6.800131586714997e-07,
        0.998245358467102,
        0.0592135451734066
      ],
      "scale": [
        1.0,
        -4.376338159049753e-13,
        -2.842170943040401e-14
      ],
      "translation": [
        4.354286193847656,
        7.451943874359131,
        1.0479928278073203e-05
      ]
    },
    {
      "children": [
        57
      ],
      "name": "Bip01 R Foot",
      "rotation": [
        0.06650765985250473,
        0.07425318658351898,
        0.031415026634931564,
        0.9945231676101685
      ],
      "scale": [
        1.0,
        -9.313225746154785e-09,
        1.4901161193847656e-08
      ],
      "translation": [
        40.7279167175293,
        4.76837158203125e-07,
        1.9073486328125e-06
      ]
    },
    {
      "children": [
        58
      ],
      "name": "Bip01 L Foot",
      "rotation": [
        -0.06650766730308533,
        -0.07425310462713242,
        0.03141503036022186,
        0.9945231676101685
      ],
      "scale": [
        1.0,
        -5.587935447692871e-09,
        -2.9802322387695313e-08
      ],
      "translation": [
        40.72791290283203,
        0.0,
        -1.9073486328125e-06
      ]
    },
    {
      "children": [
        59
      ],
      "name": "front_bone02",
      "rotation": [
        -2.2093685523661213e-15,
        3.6166612781864116e-15,
        -0.06419986486434937,
        0.997937023639679
      ],
      "scale": [
        1.0000001192092896,
        4.9274132208841984e-29,
        -7.276137530757686e-15
      ],
      "translation": [
        16.666854858398438,
        9.5367431640625e-07,
        1.2019427231280133e-07
      ]
    },
    {
      "children": [
        60
      ],
      "name": "lh_w_02",
      "rotation": [
        0.0,
        0.0,
        -0.021440040320158005,
        0.9997701644897461
      ],
      "scale": [
        1.0,
        -1.4901161193847656e-08,
        0.0
      ],
      "translation": [
        18.202255249023438,
        -3.814697265625e-06,
        0.0
      ]
    },
    {
      "children": [
        61
      ],
      "name": "rh_w_02",
      "rotation": [
        -3.993523567391577e-11,
        1.7024761600481497e-09,
        -0.021440060809254646,
        0.9997701644897461
      ],
      "scale": [
        0.9999998807907104,
        3.725290298461914e-09,
        3.402456538736942e-09
      ],
      "translation": [
        18.202253341674805,
        0.0,
        0.0
      ]
    },
    {
      "name": "left_sh_02",
      "rotation": [
        -3.552713678800501e-15,
        6.661338147750939e-15,
        3.725290298461914e-09,
        1.0
      ],
      "scale": [
        1.0,
        -7.450580596923828e-09,
        -4.440892098500626e-15
      ],
      "translation": [
        24.970548629760742,
        0.0,
        0.0
      ]
    },
    {
      "name": "right_sh_02",
      "rotation": [
        3.552713678800501e-15,
        8.08242361927114e-14,
        1.6960509462251754e-27,
        1.0
      ],
      "scale": [
        1.0,
        -4.395532963891478e-27,
        -1.509903313490213e-14
      ],
      "translation": [
        24.97054672241211,
        0.0,
        4.76837158203125e-07
      ]
    },
    {
      "children": [
        46
      ],
      "name": "Bip01 Head",
      "rotation": [
        1.0772960756973149e-13,
        -7.363340870369939e-08,
        0.026547256857156754,
        0.9996475577354431
      ],
      "scale": [
        1.0,
        -5.755563465604553e-16,
        7.105427357601002e-14
      ],
      "translation": [
        8.269393920898438,
        0.0,
        0.0
      ]
    },
    {
      "children": [
        47
      ],
      "name": "Bip01 Ponytail1",
      "rotation": [
        1.890486682129544e-12,
        -2.7729504381568404e-06,
        0.9997656941413879,
        -0.021647030487656593
      ],
      "scale": [
        0.9999998807907104,
        6.656210413576169e-13,
        0.0
      ],
      "translation": [
        6.120635986328125,
        -6.112087249755859,
        -1.6952501027844846e-05
      ]
    },
    {
      "children": [
        48
      ],
      "name": "Bip01 Ponytail11",
      "rotation": [
        5.807777625791918e-14,
        -5.8934201518923146e-08,
        0.021248288452625275,
        0.9997742772102356
      ],
      "scale": [
        1.0000001192092896,
        -2.9509370567808743e-16,
        1.0658141036401503e-13
      ],
      "translation": [
        11.2379150390625,
        -0.008941650390625,
        -2.4811015464365482e-08
      ]
    },
    {
      "children": [
        49
      ],
      "name": "Bip01 Ponytail12",
      "rotation": [
        -9.791290906313241e-15,
        1.8297032511327416e-07,
        -0.06596855074167252,
        0.9978216886520386
      ],
      "scale": [
        1.0,
        8.814857582739848e-15,
        -1.4210854715202004e-13
      ],
      "translation": [
        11.236328125,
        -0.0088653564453125,
        -2.4578184820711613e-08
      ]
    },
    {
      "children": [
        62
      ],
      "name": "Bip01 Ponytail13",
      "rotation": [
        1.0948443621974432e-13,
        1.8297039616754773e-07,
        -0.06596855074167252,
        0.9978216886520386
      ],
      "scale": [
        0.9999998807907104,
        8.814861817904585e-15,
        2.842170943040401e-14
      ],
      "translation": [
        11.236351013183594,
        -0.00887298583984375,
        -2.4607288651168346e-08
      ]
    },
    {
      "children": [
        63,
        67,
        71,
        75
      ],
      "name": "Bip01 R Hand",
      "rotation": [
        0.7051333785057068,
        0.06748094409704208,
        -0.06658753007650375,
        0.7027085423469543
      ],
      "scale": [
        1.0000001192092896,
        -1.4901161193847656e-08,
        -1.0477378964424133e-09
      ],
      "translation": [
        22.58063507080078,
        0.0,
        1.52587890625e-05
      ]
    },
    {
      "children": [
        64,
        68,
        72,
        76
      ],
      "name": "Bip01 L Hand",
      "rotation": [
        -0.704936146736145,
        -0.06950602680444717,
        -0.06456935405731201,
        0.7028973698616028
      ],
      "scale": [
        0.9999999403953552,
        -1.4901161193847656e-08,
        -3.4924596548080444e-10
      ],
      "translation": [
        22.58063507080078,
        0.0,
        -1.52587890625e-05
      ]
    },
    {
      "name": "back_bone06",
      "rotation": [
        -2.3314685634710655e-15,
        0.0,
        0.0,
        1.0
      ],
      "scale": [
        0.9999999403953552,
        0.0,
        0.0
      ],
      "translation": [
        18.225330352783203,
        0.0,
        1.3542194210458547e-07
      ]
    },
    {
      "name": "left_bone06",
      "rotation": [
        0.0,
        1.7763568394002505e-15,
        0.0,
        1.0
      ],
      "scale": [
        1.0,
        0.0,
        -3.552713678800501e-15
      ],
      "translation": [
        18.117721557617188,
        2.6702880859375e-05,
        1.1920928955078125e-07
      ]
    },
    {
      "name": "right_bone06",
      "rotation": [
        -2.220446049250313e-16,
        0.0,
        -1.9721524981513997e-31,
        1.0
      ],
      "scale": [
        0.9999999403953552,
        0.0,
        1.7763568394002505e-15
      ],
      "translation": [
        18.117719650268555,
        2.6702880859375e-05,
        0.0
      ]
    },
    {
      "children": [
        65
      ],
      "name": "ru_bone01",
      "rotation": [
        -0.13882558047771454,
        0.10431145876646042,
        0.7873221039772034,
        0.5915831327438354
      ],
      "scale": [
        1.0,
        5.703711281057622e-09,
        -5.960464477539063e-08
      ],
      "translation": [
        3.6871871948242188,
        4.92872428894043,
        -5.072078704833984
      ]
    },
    {
      "children": [
        66
      ],
      "name": "lu_bone01",
      "rotation": [
        0.13882620632648468,
        -0.10431274026632309,
        0.7873220443725586,
        0.5915828347206116
      ],
      "scale": [
        1.0,
        -6.702350674459012e-09,
        -5.960464477539063e-08
      ],
      "translation": [
        3.6871795654296875,
        4.928712844848633,
        5.072099685668945
      ]
    },
    {
      "name": "Bip01 R Toe0",
      "rotation": [
        2.63417843093805e-09,
        -2.63417798684884e-09,
        0.70710688829422,
        0.7071067094802856
      ],
      "scale": [
        1.0000001192092896,
        -1.0587911840678754e-22,
        -7.450581485102248e-09
      ],
      "translation": [
        12.25244140625,
        10.997764587402344,
        0.0
      ]
    },
    {
      "name": "Bip01 L Toe0",
      "rotation": [
        -2.63417843093805e-09,
        2.63417843093805e-09,
        0.70710688829422,
        0.7071067094802856
      ],
      "scale": [
        1.0,
        0.0,
        7.450580596923828e-09
      ],
      "translation": [
        12.252439498901367,
        10.997764587402344,
        0.0
      ]
    },
    {
      "name": "front_bone03",
      "rotation": [
        -4.440892627896218e-16,
        1.7763568394002505e-15,
        7.450580596923828e-09,
        1.0
      ],
      "scale": [
        1.0,
        0.0,
        -3.552713467042264e-15
      ],
      "translation": [
        14.756553649902344,
        -3.814697265625e-06,
        1.877797330962494e-07
      ]
    },
    {
      "name": "lh_w_03",
      "rotation": [
        4.65580087620765e-05,
        -0.004037191160023212,
        0.004922029562294483,
        0.9999797344207764
      ],
      "scale": [
        0.5082592368125916,
        -5.402441161095339e-09,
        9.313225746154785e-10
      ],
      "translation": [
        13.761600494384766,
        3.814697265625e-06,
        0.0
      ]
    },
    {
      "name": "rh_w_03",
      "rotation": [
        4.65616540168412e-05,
        -0.004037188366055489,
        0.004922045394778252,
        0.9999797344207764
      ],
      "scale": [
        0.5082592964172363,
        -6.27375129624852e-09,
        -1.3969838619232178e-09
      ],
      "translation": [
        13.7615966796875,
        -1.9073486328125e-06,
        0.0
      ]
    },
    {
      "name": "Bip01 Ponytail14",
      "rotation": [
        -4.450586814098425e-15,
        1.829704530109666e-07,
        -0.06596856564283371,
        0.9978216886520386
      ],
      "scale": [
        1.0,
        8.814750856588494e-15,
        8.526512829121202e-14
      ],
      "translation": [
        11.236351013183594,
        -0.008869171142578125,
        -2.459273673593998e-08
      ]
    },
    {
      "name": "equip_right",
      "rotation": [
        3.1408853828907013e-07,
        -4.0236773202195764e-07,
        2.7939677238464355e-07,
        1.0
      ],
      "scale": [
        1.0000001192092896,
        -1.8624242148490566e-09,
        -3.0415776564041153e-09
      ],
      "translation": [
        5.946506500244141,
        0.677276611328125,
        -0.03370189666748047
      ]
    },
    {
      "name": "equip_left",
      "rotation": [
        0.0268931332975626,
        0.999411940574646,
        -0.0006183977238833904,
        0.021266009658575058
      ],
      "scale": [
        1.0000001192092896,
        1.6502781363669783e-08,
        -1.1175870895385742e-08
      ],
      "translation": [
        5.946643829345703,
        0.6773681640625,
        -0.00022554397583007813
      ]
    },
    {
      "name": "ru_bone02",
      "rotation": [
        5.076525311231705e-10,
        4.917882212573943e-10,
        -8.731618805768449e-08,
        1.0
      ],
      "scale": [
        0.45864197611808777,
        0.0,
        -3.2741809263825417e-09
      ],
      "translation": [
        8.651857376098633,
        0.0,
        4.76837158203125e-07
      ]
    },
    {
      "name": "lu_bone02",
      "rotation": [
        -5.812666191743702e-16,
        8.677680796154164e-09,
        -8.630087933170216e-08,
        1.0
      ],
      "scale": [
        0.45864197611808777,
        9.313225746154785e-10,
        6.271876351604533e-09
      ],
      "translation": [
        8.65185546875,
        0.0,
        1.430511474609375e-06
      ]
    },
    {
      "children": [
        70
      ],
      "name": "Bip01 R Finger0",
      "rotation": [
        -0.6464377045631409,
        -0.23017534613609314,
        -0.09677519649267197,
        0.7209523320198059
      ],
      "scale": [
        1.0000001192092896,
        2.384185791015625e-07,
        -2.5890767574310303e-07
      ],
      "translation": [
        0.8650360107421875,
        0.074554443359375,
        1.506800651550293
      ]
    },
    {
      "children": [
        69
      ],
      "name": "Bip01 L Finger0",
      "rotation": [
        0.6464377045631409,
        0.23017536103725433,
        -0.09677521884441376,
        0.7209523320198059
      ],
      "scale": [
        1.0000001192092896,
        1.4901161193847656e-07,
        2.3096799850463867e-07
      ],
      "translation": [
        0.8650436401367188,
        0.074554443359375,
        -1.506800651550293
      ]
    },
    {
      "children": [
        79
      ],
      "name": "Bip01 L Finger01",
      "rotation": [
        -1.3521823634746188e-12,
        -1.4901161193847656e-08,
        -0.00018149986863136292,
        1.0
      ],
      "scale": [
        1.0000001192092896,
        -1.3009412214159966e-08,
        1.4901161193847656e-08
      ],
      "translation": [
        4.21137809753418,
        0.0,
        1.52587890625e-05
      ]
    },
    {
      "children": [
        80
      ],
      "name": "Bip01 R Finger01",
      "rotation": [
        3.7266425501059075e-09,
        -6.761258219967203e-13,
        -0.00018151244148612022,
        1.0
      ],
      "scale": [
        1.0,
        8.381903171539307e-09,
        -1.4901161193847656e-08
      ],
      "translation": [
        4.211385726928711,
        -3.814697265625e-06,
        0.0
      ]
    },
    {
      "children": [
        74
      ],
      "name": "Bip01 R Finger2",
      "rotation": [
        -0.01070131454616785,
        0.022079061716794968,
        0.12060806155204773,
        0.9923969507217407
      ],
      "scale": [
        0.9999995827674866,
        -4.463363438844681e-07,
        -8.195638656616211e-08
      ],
      "translation": [
        8.930442810058594,
        -0.6634063720703125,
        -0.9564809799194336
      ]
    },
    {
      "children": [
        73
      ],
      "name": "Bip01 L Finger2",
      "rotation": [
        0.01070131454616785,
        -0.022079065442085266,
        0.12060806155204773,
        0.9923969507217407
      ],
      "scale": [
        0.999999463558197,
        -4.0157465264201164e-07,
        8.568167686462402e-08
      ],
      "translation": [
        8.930458068847656,
        -0.6634063720703125,
        0.9564824104309082
      ]
    },
    {
      "children": [
        81
      ],
      "name": "Bip01 L Finger21",
      "rotation": [
        1.490608331211618e-10,
        -5.781198852972125e-10,
        0.11640210449695587,
        0.9932021498680115
      ],
      "scale": [
        0.9999999403953552,
        5.960464477539063e-08,
        2.5422088878457316e-09
      ],
      "translation": [
        3.7396888732910156,
        0.0,
        0.0
      ]
    },
    {
      "children": [
        82
      ],
      "name": "Bip01 R Finger21",
      "rotation": [
        8.165840226226351e-10,
        0.0,
        0.11640208959579468,
        0.9932021498680115
      ],
      "scale": [
        1.0,
        4.470348358154297e-08,
        -2.0527493038713374e-09
      ],
      "translation": [
        3.7397003173828125,
        1.52587890625e-05,
        9.5367431640625e-07
      ]
    },
    {
      "children": [
        78
      ],
      "name": "Bip01 R Finger1",
      "rotation": [
        -0.00017513516650069505,
        -0.07781513780355453,
        0.11223243921995163,
        0.9906304478645325
      ],
      "scale": [
        0.9999995827674866,
        -5.522742867469788e-07,
        4.172325134277344e-07
      ],
      "translation": [
        9.007843017578125,
        -0.8791351318359375,
        2.3459372520446777
      ]
    },
    {
      "children": [
        77
      ],
      "name": "Bip01 L Finger1",
      "rotation": [
        0.00017513327475171536,
        0.07781513780355453,
        0.11223243921995163,
        0.9906304478645325
      ],
      "scale": [
        0.9999996423721313,
        -5.671754479408264e-07,
        -4.172325134277344e-07
      ],
      "translation": [
        9.007843017578125,
        -0.8791351318359375,
        -2.3459372520446777
      ]
    },
    {
      "children": [
        83
      ],
      "name": "Bip01 L Finger11",
      "rotation": [
        8.301349607719999e-10,
        5.20307930074182e-09,
        0.11640208959579468,
        0.9932021498680115
      ],
      "scale": [
        0.9999999403953552,
        -1.8891240164992202e-17,
        -1.9650370219892466e-09
      ],
      "translation": [
        3.5907135009765625,
        1.52587890625e-05,
        1.9073486328125e-06
      ]
    },
    {
      "children": [
        84
      ],
      "name": "Bip01 R Finger11",
      "rotation": [
        -2.112739760917748e-09,
        -9.636562658954517e-09,
        0.11640207469463348,
        0.9932021498680115
      ],
      "scale": [
        0.9999999403953552,
        1.4901161193847656e-08,
        1.9533974437990764e-08
      ],
      "translation": [
        3.5907211303710938,
        0.0,
        -9.5367431640625e-07
      ]
    },
    {
      "name": "Bip01 L Finger02",
      "rotation": [
        1.4353555843893417e-10,
        -3.4354530331626165e-09,
        0.03852999582886696,
        0.9992574453353882
      ],
      "scale": [
        1.0,
        -7.450580596923828e-09,
        8.024295894415445e-09
      ],
      "translation": [
        4.21137809753418,
        -1.9073486328125e-06,
        0.0
      ]
    },
    {
      "name": "Bip01 R Finger02",
      "rotation": [
        -3.866060360735446e-09,
        -3.866060360735446e-09,
        0.03852999955415726,
        0.9992574453353882
      ],
      "scale": [
        1.0,
        7.450580596923828e-09,
        -7.428458737024357e-09
      ],
      "translation": [
        4.211376190185547,
        -3.814697265625e-06,
        0.0
      ]
    },
    {
      "name": "Bip01 L Finger22",
      "rotation": [
        -1.1020359069746632e-09,
        4.353939986323496e-10,
        0.11640206724405289,
        0.9932021498680115
      ],
      "scale": [
        1.0,
        2.9802322387695313e-08,
        1.1214266182335564e-09
      ],
      "translation": [
        3.7396926879882813,
        -1.52587890625e-05,
        9.5367431640625e-07
      ]
    },
    {
      "name": "Bip01 R Finger22",
      "rotation": [
        -1.183341757915457e-09,
        2.0414603341123438e-10,
        0.11640209704637527,
        0.9932021498680115
      ],
      "scale": [
        1.0,
        -1.4901161193847656e-08,
        -2.5031951511600425e-10
      ],
      "translation": [
        3.7396812438964844,
        0.0,
        -9.5367431640625e-07
      ]
    },
    {
      "name": "Bip01 L Finger12",
      "rotation": [
        -1.905950064440276e-09,
        4.227242167420542e-10,
        0.11640211194753647,
        0.9932021498680115
      ],
      "scale": [
        1.0,
        2.9802322387695313e-08,
        6.8713488232674536e-09
      ],
      "translation": [
        3.5907135009765625,
        0.0,
        9.5367431640625e-07
      ]
    },
    {
      "name": "Bip01 R Finger12",
      "rotation": [
        -2.2023092238754316e-09,
        5.643927103449187e-09,
        0.11640209704637527,
        0.9932021498680115
      ],
      "scale": [
        0.9999999403953552,
        -2.183732498029984e-17,
        -5.039982209353866e-09
      ],
      "translation": [
        3.5907058715820313,
        0.0,
        0.0
      ]
    }
  ],
  "scene": 0,
  "scenes": [
    {
      "nodes": [
        0
      ]
    }
  ],
  "skins": [
    {
      "inverseBindMatrices": 4,
      "joints": [
        2,
        3,
        4,
        5,
        6,
        7,
        8,
        9,
        10,
        11,
        12,
        13,
        14,
        15,
        16,
        17,
        18,
        19,
        20,
        21,
        22,
        23,
        24,
        25,
        26,
        27,
        28,
        29,
        30,
        31,
        32,
        33,
        34,
        35,
        36,
        37,
        38,
        39,
        40,
        41,
        42,
        43,
        44,
        45,
        46,
        47,
        48,
        49,
        50,
        51,
        52,
        53,
        54,
        55,
        56,
        57,
        58,
        59,
        60,
        61,
        62,
        63,
        64,
        65,
        66,
        67,
        68,
        69,
        70,
        71,
        72,
        73,
        74,
        75,
        76,
        77,
        78,
        79,
        80,
        81,
        82,
        83,
        84
      ],
      "skeleton": 2
    }
  ]
}
