{
  "accessors": [
    {
      "bufferView": 0,
      "componentType": 5126,
      "count": 432,
      "max": [
        9.525087356567383,
        14.39617919921875,
        170.63400268554688
      ],
      "min": [
        -9.525083541870117,
        -10.162235260009766,
        143.9568634033203
      ],
      "type": "VEC3"
    },
    {
      "bufferView": 1,
      "componentType": 5126,
      "count": 432,
      "type": "VEC3"
    },
    {
      "bufferView": 2,
      "componentType": 5126,
      "count": 432,
      "type": "VEC2"
    },
    {
      "bufferView": 3,
      "componentType": 5123,
      "count": 1977,
      "type": "SCALAR"
    },
    {
      "bufferView": 4,
      "componentType": 5126,
      "count": 91,
      "type": "MAT4"
    }
  ],
  "asset": {
    "generator": "gr2togltf (ANKA2 Project)",
    "version": "2.0"
  },
  "bufferViews": [
    {
      "buffer": 0,
      "byteLength": 5184,
      "target": 34962
    },
    {
      "buffer": 0,
      "byteLength": 5184,
      "byteOffset": 5184,
      "target": 34962
    },
    {
      "buffer": 0,
      "byteLength": 3456,
      "byteOffset": 10368,
      "target": 34962
    },
    {
      "buffer": 0,
      "byteLength": 3954,
      "byteOffset": 13824,
      "target": 34963
    },
    {
      "buffer": 0,
      "byteLength": 5824,
      "byteOffset": 17778
    }
  ],
  "buffers": [
    {
      "byteLength": 23602,
      "uri": "data:application/octet-stream;base64,"
    }
  ],
  "materials": [
    {
      "name": "default",
      "pbrMetallicRoughness": {
        "baseColorFactor": [
          0.8,
          0.8,
          0.8,
          1.0
        ],
        "metallicFactor": 0.0,
        "roughnessFactor": 0.8
      }
    }
  ],
  "meshes": [
    {
      "name": "hair_78_1",
      "primitives": [
        {
          "attributes": {
            "NORMAL": 1,
            "POSITION": 0,
            "TEXCOORD_0": 2
          },
          "indices": 3,
          "material": 0,
          "mode": 4
        }
      ]
    }
  ],
  "nodes": [
    {
      "children": [
        1,
        2
      ]
    },
    {
      "mesh": 0,
      "name": "hair_78_1",
      "skin": 0
    },
    {
      "children": [
        3
      ],
      "name": "Bip01",
      "rotation": [
        0.0,
        0.0,
        0.0,
        1.0000001192092896
      ],
      "scale": [
        1.0,
        0.0,
        0.0
      ],
      "translation": [
        2.86102294921875e-06,
        0.0,
        0.0
      ]
    },
    {
      "children": [
        4
      ],
      "name": "Bip01 Pelvis",
      "rotation": [
        -0.499999463558197,
        -0.5000001788139343,
        -0.5000001788139343,
        0.500000536441803
      ],
      "scale": [
        1.0,
        0.0,
        0.0
      ],
      "translation": [
        10.840248107910156,
        2.0000011318188626e-06,
        0.0
      ]
    },
    {
      "children": [
        5,
        6,
        9,
        21,
        28,
        33,
        38
      ],
      "name": "Bip01 Spine",
      "rotation": [
        -2.0994200440327404e-06,
        -7.132022687983408e-07,
        0.02897809073328972,
        0.9995800852775574
      ],
      "scale": [
        1.0,
        -5.52744438761521e-12,
        0.0
      ],
      "translation": [
        6.193992614746094,
        -0.009989559650421143,
        8.603674359619617e-06
      ]
    },
    {
      "children": [
        7
      ],
      "name": "Bip01 R Thigh",
      "rotation": [
        -0.005618722643703222,
        0.9973922371864319,
        -0.005683527793735266,
        0.07172741740942001
      ],
      "scale": [
        1.0000001192092896,
        -1.1641532182693481e-10,
        0.0
      ],
      "translation": [
        -6.183006286621094,
        0.36882495880126953,
        -6.6108808517456055
      ]
    },
    {
      "children": [
        8
      ],
      "name": "Bip01 L Thigh",
      "rotation": [
        -0.005618920549750328,
        0.9973922371864319,
        0.005686287768185139,
        -0.07172729820013046
      ],
      "scale": [
        1.0,
        -1.1641532182693481e-09,
        0.0
      ],
      "translation": [
        -6.183006286621094,
        0.3687882423400879,
        6.610882759094238
      ]
    },
    {
      "children": [
        39
      ],
      "name": "Bip01 R Calf",
      "rotation": [
        -2.3283019956465978e-10,
        -4.791448271132537e-13,
        -0.0020579092670232058,
        0.9999979734420776
      ],
      "scale": [
        0.9999999403953552,
        3.725290298461914e-09,
        -1.916571068516504e-12
      ],
      "translation": [
        43.94834899902344,
        0.0,
        1.9073486328125e-06
      ]
    },
    {
      "children": [
        40
      ],
      "name": "Bip01 L Calf",
      "rotation": [
        7.666303356024251e-12,
        -3.7252831930345565e-09,
        -0.0020579092670232058,
        0.9999979734420776
      ],
      "scale": [
        0.9999998807907104,
        3.725290298461914e-09,
        -7.45051664807761e-09
      ],
      "translation": [
        43.94834518432617,
        0.0,
        0.0
      ]
    },
    {
      "children": [
        10
      ],
      "name": "Bip01 Spine1",
      "rotation": [
        3.20993977383742e-14,
        2.4451341573694663e-07,
        -0.08815741539001465,
        0.9961065649986267
      ],
      "scale": [
        1.0,
        -1.4901139877565583e-08,
        -5.684341886080802e-14
      ],
      "translation": [
        12.570350646972656,
        -0.0077838897705078125,
        -2.1591404220089316e-08
      ]
    },
    {
      "children": [
        11,
        57,
        58
      ],
      "name": "Bip01 Spine2",
      "rotation": [
        4.449197680064928e-15,
        1.693989162276921e-07,
        -0.061075467616319656,
        0.9981331825256348
      ],
      "scale": [
        1.0,
        6.99740863396945e-15,
        -2.842170943040401e-14
      ],
      "translation": [
        9.930061340332031,
        -0.012085914611816406,
        -3.352033672854304e-08
      ]
    },
    {
      "children": [
        12,
        13,
        20
      ],
      "name": "Bip01 Neck",
      "rotation": [
        2.944620255637166e-14,
        -7.252509135469154e-07,
        0.2614835798740387,
        0.9652079343795776
      ],
      "scale": [
        1.0000003576278687,
        -5.310076380340978e-13,
        0.0
      ],
      "translation": [
        18.59967803955078,
        -1.1482963562011719,
        -1.1849115253426135e-06
      ]
    },
    {
      "children": [
        15,
        16
      ],
      "name": "Bip01 R Clavicle",
      "rotation": [
        -0.6095106601715088,
        0.23812727630138397,
        0.7433038353919983,
        0.13889464735984802
      ],
      "scale": [
        0.9999999403953552,
        -5.960464477539063e-08,
        -4.470348358154297e-08
      ],
      "translation": [
        -1.8450927734375,
        1.0423774719238281,
        -2.4952690601348877
      ]
    },
    {
      "children": [
        14,
        17
      ],
      "name": "Bip01 L Clavicle",
      "rotation": [
        0.6095110774040222,
        -0.23812930285930634,
        0.743303120136261,
        0.13889293372631073
      ],
      "scale": [
        1.0000001192092896,
        -8.940696716308594e-08,
        5.960464477539063e-08
      ],
      "translation": [
        -1.8450927734375,
        1.0423622131347656,
        2.4952709674835205
      ]
    },
    {
      "children": [
        44
      ],
      "name": "left_sh_01",
      "rotation": [
        0.7567222118377686,
        -0.24252280592918396,
        0.09789872169494629,
        0.5991410613059998
      ],
      "scale": [
        0.9999999403953552,
        0.0,
        2.2351741790771484e-08
      ],
      "translation": [
        4.4892425537109375,
        0.011545181274414063,
        1.47332763671875
      ]
    },
    {
      "children": [
        45
      ],
      "name": "right_sh_01",
      "rotation": [
        -0.7454231977462769,
        0.2752988934516907,
        0.1239423081278801,
        0.5943005681037903
      ],
      "scale": [
        1.0,
        2.9802322387695313e-08,
        0.0
      ],
      "translation": [
        4.489248275756836,
        0.011577606201171875,
        -1.4733428955078125
      ]
    },
    {
      "children": [
        19
      ],
      "name": "Bip01 R UpperArm",
      "rotation": [
        -0.13511957228183746,
        -0.021313393488526344,
        -0.05337769538164139,
        0.9891608953475952
      ],
      "scale": [
        1.0,
        -4.6566128730773926e-09,
        -3.725290298461914e-09
      ],
      "translation": [
        11.936211585998535,
        3.814697265625e-06,
        0.0
      ]
    },
    {
      "children": [
        18
      ],
      "name": "Bip01 L UpperArm",
      "rotation": [
        0.13511957228183746,
        0.021313386037945747,
        -0.053377702832221985,
        0.9891608953475952
      ],
      "scale": [
        0.9999999403953552,
        -9.313225746154785e-10,
        -1.1175870895385742e-08
      ],
      "translation": [
        11.936212539672852,
        0.0,
        0.0
      ]
    },
    {
      "children": [
        27,
        52
      ],
      "name": "Bip01 L ForeArm",
      "rotation": [
        -4.116427476663631e-10,
        -1.4894967925727087e-08,
        -0.028828918933868408,
        0.9995843768119812
      ],
      "scale": [
        1.0,
        3.725290298461914e-09,
        4.47045174212235e-08
      ],
      "translation": [
        23.697324752807617,
        4.76837158203125e-07,
        0.0
      ]
    },
    {
      "children": [
        26,
        53
      ],
      "name": "Bip01 R ForeArm",
      "rotation": [
        2.0582130444424251e-10,
        1.1167870184181083e-08,
        -0.028828918933868408,
        0.9995843768119812
      ],
      "scale": [
        0.9999999403953552,
        -3.725290298461914e-09,
        -2.2365162166693153e-08
      ],
      "translation": [
        23.697328567504883,
        4.76837158203125e-07,
        -1.52587890625e-05
      ]
    },
    {
      "children": [
        46,
        51
      ],
      "name": "Bip01 Head",
      "rotation": [
        -6.219441059168371e-15,
        -7.363406950844364e-08,
        0.0265475045889616,
        0.9996475577354431
      ],
      "scale": [
        0.9999995827674866,
        -5.757036773537184e-16,
        5.684341886080802e-14
      ],
      "translation": [
        8.269378662109375,
        0.0,
        0.0
      ]
    },
    {
      "children": [
        22
      ],
      "name": "back_bone01",
      "rotation": [
        9.004127576872634e-08,
        -5.023756557420711e-07,
        0.9823358654975891,
        -0.18712647259235382
      ],
      "scale": [
        0.9999994039535522,
        2.980233304583635e-08,
        -4.613663691088732e-07
      ],
      "translation": [
        3.0302810668945313,
        -8.421611785888672,
        -8.000002708286047e-06
      ]
    },
    {
      "children": [
        23
      ],
      "name": "back_bone02",
      "rotation": [
        1.4222059267028284e-14,
        -1.761306419180257e-14,
        -0.08938853442668915,
        0.9959968328475952
      ],
      "scale": [
        1.0,
        8.093000293488158e-28,
        -1.833168355612133e-14
      ],
      "translation": [
        12.280601501464844,
        0.0,
        0.0
      ]
    },
    {
      "children": [
        24
      ],
      "name": "back_bone03",
      "rotation": [
        -7.425237352331072e-15,
        -9.597244128426753e-15,
        0.22304201126098633,
        0.9748088717460632
      ],
      "scale": [
        1.0000001192092896,
        0.0,
        -2.9609534225524814e-14
      ],
      "translation": [
        18.749595642089844,
        8.0108642578125e-05,
        0.0
      ]
    },
    {
      "children": [
        25
      ],
      "name": "back_bone04",
      "rotation": [
        -5.228718713291272e-15,
        2.3993993352914396e-15,
        0.2520151436328888,
        0.9677233099937439
      ],
      "scale": [
        1.0,
        3.103370086306462e-28,
        -2.1142367574006858e-14
      ],
      "translation": [
        17.046077728271484,
        0.000270843505859375,
        0.0
      ]
    },
    {
      "children": [
        54
      ],
      "name": "back_bone05",
      "rotation": [
        -7.84092470042675e-16,
        1.7325545634120677e-14,
        0.2207023650407791,
        0.9753413200378418
      ],
      "scale": [
        1.0000001192092896,
        0.0,
        -8.489834947252375e-15
      ],
      "translation": [
        19.994050979614258,
        7.62939453125e-06,
        0.0
      ]
    },
    {
      "children": [
        43
      ],
      "name": "rh_w_01",
      "rotation": [
        0.8026027679443359,
        0.5964059829711914,
        -0.010731499642133713,
        -0.0036825677379965782
      ],
      "scale": [
        1.0000001192092896,
        2.518936526030302e-08,
        1.862645149230957e-09
      ],
      "translation": [
        19.923709869384766,
        2.569866180419922,
        -1.6744384765625
      ]
    },
    {
      "children": [
        42
      ],
      "name": "lh_w_01",
      "rotation": [
        0.8731625080108643,
        0.48583269119262695,
        -0.015448521822690964,
        0.036266274750232697
      ],
      "scale": [
        1.0572398900985718,
        0.05278022959828377,
        -0.008310351520776749
      ],
      "translation": [
        19.923738479614258,
        2.570159912109375,
        1.67449951171875
      ]
    },
    {
      "children": [
        29
      ],
      "name": "left_bone01",
      "rotation": [
        0.20959065854549408,
        0.6705139875411987,
        0.6871151924133301,
        -0.18535226583480835
      ],
      "scale": [
        0.9999997615814209,
        -2.980232238769531e-07,
        2.3283064365386963e-09
      ],
      "translation": [
        3.5177459716796875,
        -1.6281476020812988,
        9.515983581542969
      ]
    },
    {
      "children": [
        30
      ],
      "name": "left_bone02",
      "rotation": [
        -0.01120348833501339,
        0.08643270283937454,
        -0.1320011019706726,
        0.9874105453491211
      ],
      "scale": [
        0.9999999403953552,
        -1.3969838619232178e-09,
        -2.9802322387695313e-08
      ],
      "translation": [
        17.058731079101563,
        -9.1552734375e-05,
        0.0
      ]
    },
    {
      "children": [
        31
      ],
      "name": "left_bone03",
      "rotation": [
        0.029712973162531853,
        0.17091958224773407,
        0.044667936861515045,
        0.9838233590126038
      ],
      "scale": [
        1.0,
        -2.9802322387695313e-08,
        0.0
      ],
      "translation": [
        17.697643280029297,
        -3.814697265625e-06,
        0.0
      ]
    },
    {
      "children": [
        32
      ],
      "name": "left_bone04",
      "rotation": [
        0.03109383024275303,
        0.17084138095378876,
        0.080433689057827,
        0.9815176129341125
      ],
      "scale": [
        1.0,
        -2.0489096641540527e-08,
        0.0
      ],
      "translation": [
        17.53334617614746,
        -0.000202178955078125,
        3.814697265625e-06
      ]
    },
    {
      "children": [
        55
      ],
      "name": "left_bone05",
      "rotation": [
        0.04050932452082634,
        0.16885684430599213,
        0.19649890065193176,
        0.965005099773407
      ],
      "scale": [
        1.0,
        -1.862645149230957e-08,
        0.0
      ],
      "translation": [
        17.377689361572266,
        -3.814697265625e-06,
        0.0
      ]
    },
    {
      "children": [
        34
      ],
      "name": "right_bone01",
      "rotation": [
        -0.09812252968549728,
        -0.7002662420272827,
        0.7047734260559082,
        -0.05738966912031174
      ],
      "scale": [
        1.0000001192092896,
        2.086162567138672e-07,
        -2.3049636865835055e-08
      ],
      "translation": [
        3.5177536010742188,
        -1.6281228065490723,
        -9.5159912109375
      ]
    },
    {
      "children": [
        35
      ],
      "name": "right_bone02",
      "rotation": [
        0.01547957956790924,
        0.17295671999454498,
        -0.001966326730325818,
        0.9848058223724365
      ],
      "scale": [
        1.0,
        0.0,
        -2.9802322387695313e-08
      ],
      "translation": [
        17.058738708496094,
        -9.1552734375e-05,
        -1.1920928955078125e-07
      ]
    },
    {
      "children": [
        36
      ],
      "name": "right_bone03",
      "rotation": [
        -0.007931237109005451,
        0.1301734894514084,
        -0.0843624547123909,
        0.9878638386726379
      ],
      "scale": [
        1.0,
        -2.421438694000244e-08,
        -4.470348358154297e-08
      ],
      "translation": [
        17.69763946533203,
        -3.814697265625e-06,
        0.0
      ]
    },
    {
      "children": [
        37
      ],
      "name": "right_bone04",
      "rotation": [
        -0.0033224790822714567,
        0.08709247410297394,
        -0.13546064496040344,
        0.9869418740272522
      ],
      "scale": [
        1.0,
        2.468004822731018e-08,
        -2.9802322387695313e-08
      ],
      "translation": [
        17.533348083496094,
        -0.0002002716064453125,
        -3.814697265625e-06
      ]
    },
    {
      "children": [
        56
      ],
      "name": "right_bone05",
      "rotation": [
        -0.009880581870675087,
        0.08659389615058899,
        -0.1470835953950882,
        0.9852767586708069
      ],
      "scale": [
        1.0,
        -3.91155481338501e-08,
        1.4901161193847656e-08
      ],
      "translation": [
        17.37769317626953,
        -9.5367431640625e-07,
        3.814697265625e-06
      ]
    },
    {
      "children": [
        41
      ],
      "name": "front_bone01",
      "rotation": [
        0.03974000737071037,
        0.12489023804664612,
        0.9267643690109253,
        0.35203856229782104
      ],
      "scale": [
        1.0000001192092896,
        6.891787052154541e-08,
        -2.7939677238464355e-09
      ],
      "translation": [
        4.354278564453125,
        7.451948642730713,
        1.4999999621068127e-05
      ]
    },
    {
      "children": [
        59
      ],
      "name": "Bip01 R Foot",
      "rotation": [
        0.06650760769844055,
        0.07425323128700256,
        0.03141501918435097,
        0.9945231080055237
      ],
      "scale": [
        1.0000001192092896,
        -7.450580596923828e-09,
        1.4901161193847656e-08
      ],
      "translation": [
        40.72792053222656,
        4.76837158203125e-07,
        0.0
      ]
    },
    {
      "children": [
        60
      ],
      "name": "Bip01 L Foot",
      "rotation": [
        -0.06650760024785995,
        -0.0742531344294548,
        0.03141501918435097,
        0.9945231676101685
      ],
      "scale": [
        1.0,
        -1.30385160446167e-08,
        -1.4901161193847656e-08
      ],
      "translation": [
        40.7279167175293,
        0.0,
        -1.9073486328125e-06
      ]
    },
    {
      "children": [
        61
      ],
      "name": "front_bone02",
      "rotation": [
        0.0,
        5.116174595087841e-09,
        -0.15093150734901428,
        0.988544225692749
      ],
      "scale": [
        1.0,
        2.9802322387695313e-08,
        -4.786032903325577e-09
      ],
      "translation": [
        16.666851043701172,
        0.0,
        0.0
      ]
    },
    {
      "children": [
        62
      ],
      "name": "lh_w_02",
      "rotation": [
        -0.00952085293829441,
        0.08663420379161835,
        0.10882384330034256,
        0.9902329444885254
      ],
      "scale": [
        1.0,
        -6.089842230494469e-08,
        4.470348358154297e-08
      ],
      "translation": [
        18.202253341674805,
        1.9073486328125e-06,
        0.0
      ]
    },
    {
      "children": [
        63
      ],
      "name": "rh_w_02",
      "rotation": [
        0.019807711243629456,
        0.12901431322097778,
        -0.15045467019081116,
        0.9799625277519226
      ],
      "scale": [
        1.0000001192092896,
        0.0,
        2.9802322387695313e-08
      ],
      "translation": [
        18.20225715637207,
        0.0,
        0.0
      ]
    },
    {
      "name": "left_sh_02",
      "rotation": [
        1.4210854715202004e-14,
        0.0,
        0.0,
        1.0
      ],
      "scale": [
        1.0,
        0.0,
        0.0
      ],
      "translation": [
        24.970550537109375,
        0.0,
        0.0
      ]
    },
    {
      "name": "right_sh_02",
      "rotation": [
        -1.7763568394002505e-14,
        0.0,
        -3.155444391256025e-27,
        1.0
      ],
      "scale": [
        0.9999999403953552,
        -5.0487097934144756e-27,
        3.552713407749958e-13
      ],
      "translation": [
        24.970550537109375,
        0.0,
        -4.76837158203125e-07
      ]
    },
    {
      "children": [
        47
      ],
      "name": "Bip01 Ponytail1",
      "rotation": [
        1.9047007894512635e-12,
        -2.7729504381568404e-06,
        0.9997656941413879,
        -0.021646985784173012
      ],
      "scale": [
        0.9999998807907104,
        6.656194692644668e-13,
        -8.526512829121202e-14
      ],
      "translation": [
        6.120635986328125,
        -6.112079620361328,
        -1.6952486475929618e-05
      ]
    },
    {
      "children": [
        48
      ],
      "name": "Bip01 Ponytail11",
      "rotation": [
        1.704577099045576e-13,
        -5.893419441349579e-08,
        0.02124827355146408,
        0.9997742772102356
      ],
      "scale": [
        1.000000238418579,
        3.725290076417309e-09,
        -7.105427357601002e-15
      ],
      "translation": [
        11.237899780273438,
        -0.00893402099609375,
        -2.4796463549137115e-08
      ]
    },
    {
      "children": [
        49
      ],
      "name": "Bip01 Ponytail12",
      "rotation": [
        5.874774543787945e-14,
        1.8297048143267602e-07,
        -0.06596856564283371,
        0.9978216886520386
      ],
      "scale": [
        1.0,
        8.814689023183345e-15,
        -8.526512829121202e-14
      ],
      "translation": [
        11.236351013183594,
        -0.00887298583984375,
        -2.459273673593998e-08
      ]
    },
    {
      "children": [
        50
      ],
      "name": "Bip01 Ponytail13",
      "rotation": [
        -6.2308217938476795e-15,
        1.8297042458925716e-07,
        -0.06596855074167252,
        0.9978216886520386
      ],
      "scale": [
        0.9999999403953552,
        8.814924498342681e-15,
        5.684341886080802e-14
      ],
      "translation": [
        11.236358642578125,
        -0.00887298583984375,
        -2.459273673593998e-08
      ]
    },
    {
      "children": [
        64
      ],
      "name": "Bip01 Ponytail14",
      "rotation": [
        -8.901173839955087e-16,
        1.8297048143267602e-07,
        -0.0659685805439949,
        0.9978216886520386
      ],
      "scale": [
        1.0,
        8.814786431972279e-15,
        0.0
      ],
      "translation": [
        11.236343383789063,
        -0.0088653564453125,
        -2.4585460778325796e-08
      ]
    },
    {
      "name": "Bip01 HeadNub",
      "rotation": [
        -6.394884621840902e-14,
        -2.842170943040401e-14,
        -2.0194839173657902e-27,
        1.0
      ],
      "scale": [
        0.9999999403953552,
        -6.462348535570529e-27,
        5.684341886080802e-14
      ],
      "translation": [
        20.161102294921875,
        0.0,
        0.0
      ]
    },
    {
      "children": [
        65,
        78,
        81
      ],
      "name": "Bip01 L Hand",
      "rotation": [
        -0.704936146736145,
        -0.06950601190328598,
        -0.06456935405731201,
        0.7028973698616028
      ],
      "scale": [
        0.9999999403953552,
        -1.4901161193847656e-08,
        -9.89530235528946e-10
      ],
      "translation": [
        22.580636978149414,
        0.0,
        -1.52587890625e-05
      ]
    },
    {
      "children": [
        68,
        75,
        82
      ],
      "name": "Bip01 R Hand",
      "rotation": [
        0.7051333785057068,
        0.06748094409704208,
        -0.06658752262592316,
        0.7027085423469543
      ],
      "scale": [
        1.0000001192092896,
        0.0,
        -2.3865140974521637e-09
      ],
      "translation": [
        22.58063316345215,
        0.0,
        1.52587890625e-05
      ]
    },
    {
      "name": "back_bone06",
      "rotation": [
        1.4210854715202004e-14,
        2.4868995751603507e-14,
        -1.862645149230957e-09,
        1.0
      ],
      "scale": [
        1.0,
        -3.725290298461914e-09,
        7.105427357601002e-15
      ],
      "translation": [
        18.22533416748047,
        0.0,
        0.0
      ]
    },
    {
      "name": "left_bone06",
      "rotation": [
        -7.450580596923828e-09,
        -9.313225746154785e-10,
        7.450580596923828e-09,
        1.0
      ],
      "scale": [
        1.0,
        7.450580596923828e-09,
        1.862645593320167e-09
      ],
      "translation": [
        18.117725372314453,
        2.288818359375e-05,
        0.0
      ]
    },
    {
      "name": "right_bone06",
      "rotation": [
        3.725290076417309e-09,
        7.450580596923828e-09,
        0.0,
        1.0
      ],
      "scale": [
        1.0,
        -4.470348358154297e-08,
        1.4901161193847656e-08
      ],
      "translation": [
        18.117721557617188,
        2.574920654296875e-05,
        0.0
      ]
    },
    {
      "children": [
        71
      ],
      "name": "lu_bone01",
      "rotation": [
        0.11528582870960236,
        -0.06302978098392487,
        0.7384979128837585,
        0.6613299250602722
      ],
      "scale": [
        1.0000003576278687,
        -2.169981598854065e-07,
        -2.980232238769531e-07
      ],
      "translation": [
        3.68719482421875,
        4.9287109375,
        5.072098255157471
      ]
    },
    {
      "children": [
        72
      ],
      "name": "ru_bone01",
      "rotation": [
        -0.17921102046966553,
        0.12042775750160217,
        0.7256395816802979,
        0.6533206105232239
      ],
      "scale": [
        1.0,
        1.6763806343078613e-08,
        2.9802322387695313e-08
      ],
      "translation": [
        3.68719482421875,
        4.928730010986328,
        -5.072089672088623
      ]
    },
    {
      "children": [
        73
      ],
      "name": "Bip01 R Toe0",
      "rotation": [
        2.63417843093805e-09,
        -2.63417798684884e-09,
        0.70710688829422,
        0.7071067094802856
      ],
      "scale": [
        1.0000001192092896,
        -1.0587911840678754e-22,
        -7.450581485102248e-09
      ],
      "translation": [
        12.25244140625,
        10.99776554107666,
        0.0
      ]
    },
    {
      "children": [
        74
      ],
      "name": "Bip01 L Toe0",
      "rotation": [
        -2.63417843093805e-09,
        2.63417843093805e-09,
        0.70710688829422,
        0.7071067094802856
      ],
      "scale": [
        1.0,
        0.0,
        7.450580596923828e-09
      ],
      "translation": [
        12.252439498901367,
        10.997763633728027,
        0.0
      ]
    },
    {
      "name": "front_bone03",
      "rotation": [
        5.551115123125783e-17,
        5.587935447692871e-09,
        1.4901161193847656e-08,
        1.0
      ],
      "scale": [
        1.0,
        -8.326672684688674e-17,
        3.725290298461914e-09
      ],
      "translation": [
        14.756561279296875,
        0.0,
        0.0
      ]
    },
    {
      "name": "lh_w_03",
      "rotation": [
        4.6373002987820655e-05,
        -0.004037309437990189,
        0.004922043532133102,
        0.9999797344207764
      ],
      "scale": [
        0.5082589387893677,
        -2.8440879873414815e-08,
        -8.381903171539307e-09
      ],
      "translation": [
        13.761600494384766,
        0.0,
        1.52587890625e-05
      ]
    },
    {
      "name": "rh_w_03",
      "rotation": [
        4.638213067664765e-05,
        -0.0040373122319579124,
        0.0049220481887459755,
        0.9999797344207764
      ],
      "scale": [
        0.5082590579986572,
        5.505995659405016e-10,
        9.778887033462524e-09
      ],
      "translation": [
        13.761600494384766,
        -3.814697265625e-06,
        -1.52587890625e-05
      ]
    },
    {
      "name": "Bip01 Ponytail1Nub",
      "rotation": [
        0.7073883414268494,
        0.7068251967430115,
        9.802253089219448e-07,
        -9.810062238102546e-07
      ],
      "scale": [
        1.0,
        -6.12557879718428e-15,
        -4.547473508864641e-13
      ],
      "translation": [
        11.237525939941406,
        0.0,
        7.275957614183426e-12
      ]
    },
    {
      "children": [
        66
      ],
      "name": "Bip01 L Finger0",
      "rotation": [
        0.6464375257492065,
        0.23017530143260956,
        -0.09677518904209137,
        0.7209523916244507
      ],
      "scale": [
        1.0000001192092896,
        1.4901161193847656e-07,
        2.4400651454925537e-07
      ],
      "translation": [
        0.8650398254394531,
        0.074554443359375,
        -1.5068016052246094
      ]
    },
    {
      "children": [
        67
      ],
      "name": "Bip01 L Finger01",
      "rotation": [
        3.7246141726399173e-09,
        -3.7246141726399173e-09,
        -0.00018151430413126945,
        1.0
      ],
      "scale": [
        1.0000001192092896,
        -1.2078089639544487e-08,
        7.453285100211815e-09
      ],
      "translation": [
        4.21137809753418,
        -1.9073486328125e-06,
        1.52587890625e-05
      ]
    },
    {
      "children": [
        87
      ],
      "name": "Bip01 L Finger02",
      "rotation": [
        3.722524288818363e-09,
        1.4353530863875363e-10,
        0.03852996975183487,
        0.9992574453353882
      ],
      "scale": [
        0.9999999403953552,
        -7.450580596923828e-09,
        0.0
      ],
      "translation": [
        4.211385726928711,
        0.0,
        -1.52587890625e-05
      ]
    },
    {
      "children": [
        69
      ],
      "name": "Bip01 R Finger0",
      "rotation": [
        -0.6464377045631409,
        -0.23017536103725433,
        -0.09677521884441376,
        0.7209523320198059
      ],
      "scale": [
        1.0,
        1.4901161193847656e-07,
        -2.4586915969848633e-07
      ],
      "translation": [
        0.8650360107421875,
        0.074554443359375,
        1.5068011283874512
      ]
    },
    {
      "children": [
        70
      ],
      "name": "Bip01 R Finger01",
      "rotation": [
        2.0284780799517677e-12,
        -3.7252898543727042e-09,
        -0.000181504525244236,
        1.0
      ],
      "scale": [
        1.0,
        -3.725290298461914e-09,
        -2.2351741790771484e-08
      ],
      "translation": [
        4.211381912231445,
        -3.814697265625e-06,
        1.52587890625e-05
      ]
    },
    {
      "children": [
        88
      ],
      "name": "Bip01 R Finger02",
      "rotation": [
        -1.1598179305849499e-08,
        3.5789888830350947e-09,
        0.03852998465299606,
        0.9992574453353882
      ],
      "scale": [
        1.0,
        3.725290298461914e-08,
        -2.1755905521558816e-08
      ],
      "translation": [
        4.2113800048828125,
        0.0,
        -1.52587890625e-05
      ]
    },
    {
      "name": "lu_bone02",
      "rotation": [
        1.5229547623007988e-09,
        -6.980216404883777e-10,
        1.5229565519803145e-07,
        1.0
      ],
      "scale": [
        0.45864203572273254,
        1.8626309383762418e-09,
        -1.146690919995308e-08
      ],
      "translation": [
        8.65185546875,
        0.0,
        9.5367431640625e-07
      ]
    },
    {
      "name": "ru_bone02",
      "rotation": [
        -8.883925817215754e-10,
        -1.69746228184664e-09,
        1.5229565519803145e-07,
        1.0
      ],
      "scale": [
        0.45864200592041016,
        1.8626309383762418e-09,
        -7.159542292356491e-09
      ],
      "translation": [
        8.651853561401367,
        -1.52587890625e-05,
        9.5367431640625e-07
      ]
    },
    {
      "name": "Bip01 R Toe0Nub",
      "rotation": [
        -1.1102230246251565e-16,
        -3.7252898543727042e-09,
        8.88178366760566e-16,
        1.0
      ],
      "scale": [
        1.0000001192092896,
        -1.0587911840678754e-22,
        -7.450581485102248e-09
      ],
      "translation": [
        8.29824447631836,
        0.0,
        0.0
      ]
    },
    {
      "name": "Bip01 L Toe0Nub",
      "rotation": [
        0.0,
        3.725290298461914e-09,
        0.0,
        1.0
      ],
      "scale": [
        1.0,
        0.0,
        -7.450580596923828e-09
      ],
      "translation": [
        8.29824447631836,
        0.0,
        0.0
      ]
    },
    {
      "children": [
        76
      ],
      "name": "Bip01 R Finger2",
      "rotation": [
        -0.010701315477490425,
        0.022079063579440117,
        0.12060806155204773,
        0.9923969507217407
      ],
      "scale": [
        0.9999995231628418,
        -4.314933903515339e-07,
        -8.195638656616211e-08
      ],
      "translation": [
        8.930450439453125,
        -0.6634063720703125,
        -0.9564824104309082
      ]
    },
    {
      "children": [
        77
      ],
      "name": "Bip01 R Finger21",
      "rotation": [
        4.0829201131131754e-10,
        5.420392953925379e-11,
        0.11640207469463348,
        0.9932021498680115
      ],
      "scale": [
        1.0,
        -1.4901161193847656e-08,
        -9.18703779717589e-10
      ],
      "translation": [
        3.7396926879882813,
        0.0,
        9.5367431640625e-07
      ]
    },
    {
      "children": [
        89
      ],
      "name": "Bip01 R Finger22",
      "rotation": [
        5.853358353569149e-10,
        4.3539388761004716e-10,
        0.11640210449695587,
        0.993202269077301
      ],
      "scale": [
        1.0,
        4.470348358154297e-08,
        -2.065368320813832e-09
      ],
      "translation": [
        3.7396926879882813,
        0.0,
        -9.5367431640625e-07
      ]
    },
    {
      "children": [
        79
      ],
      "name": "Bip01 L Finger2",
      "rotation": [
        0.01070131454616785,
        -0.022079065442085266,
        0.12060806155204773,
        0.9923969507217407
      ],
      "scale": [
        0.9999995231628418,
        -4.016328603029251e-07,
        8.940696716308594e-08
      ],
      "translation": [
        8.930450439453125,
        -0.66339111328125,
        0.9564805030822754
      ]
    },
    {
      "children": [
        80
      ],
      "name": "Bip01 L Finger21",
      "rotation": [
        4.3539388761004716e-10,
        1.7704400445683888e-10,
        0.11640210449695587,
        0.993202269077301
      ],
      "scale": [
        0.9999999403953552,
        2.9802322387695313e-08,
        -6.810031982773523e-10
      ],
      "translation": [
        3.7396888732910156,
        0.0,
        -9.5367431640625e-07
      ]
    },
    {
      "children": [
        90
      ],
      "name": "Bip01 L Finger22",
      "rotation": [
        -1.499420448913824e-10,
        -7.20845938495529e-10,
        0.11640210449695587,
        0.9932021498680115
      ],
      "scale": [
        1.0,
        1.4901161193847656e-08,
        1.3969838619232178e-09
      ],
      "translation": [
        3.7396926879882813,
        -1.52587890625e-05,
        -9.5367431640625e-07
      ]
    },
    {
      "children": [
        85
      ],
      "name": "Bip01 L Finger1",
      "rotation": [
        0.00017513609782326967,
        0.07781512290239334,
        0.11223242431879044,
        0.9906304478645325
      ],
      "scale": [
        0.9999996423721313,
        -5.371402949094772e-07,
        -4.023313522338867e-07
      ],
      "translation": [
        9.007843017578125,
        -0.879119873046875,
        -2.345938205718994
      ]
    },
    {
      "children": [
        83
      ],
      "name": "Bip01 R Finger1",
      "rotation": [
        -0.0001751342206262052,
        -0.07781512290239334,
        0.11223242431879044,
        0.9906304478645325
      ],
      "scale": [
        0.9999995827674866,
        -5.662441253662109e-07,
        4.172325134277344e-07
      ],
      "translation": [
        9.007843017578125,
        -0.879119873046875,
        2.345937728881836
      ]
    },
    {
      "children": [
        84
      ],
      "name": "Bip01 R Finger11",
      "rotation": [
        -2.3431065976353693e-09,
        -8.256289873997957e-09,
        0.11640208959579468,
        0.9932021498680115
      ],
      "scale": [
        1.0,
        1.4901161193847656e-08,
        1.5810124764925604e-08
      ],
      "translation": [
        3.5907135009765625,
        1.52587890625e-05,
        9.5367431640625e-07
      ]
    },
    {
      "children": [
        91
      ],
      "name": "Bip01 R Finger12",
      "rotation": [
        -6.793117179881847e-10,
        6.637555394206629e-09,
        0.11640208959579468,
        0.9932021498680115
      ],
      "scale": [
        1.0,
        -1.4901161193847656e-08,
        -3.42079609083612e-09
      ],
      "translation": [
        3.590709686279297,
        0.0,
        1.9073486328125e-06
      ]
    },
    {
      "children": [
        86
      ],
      "name": "Bip01 L Finger11",
      "rotation": [
        -1.1671470456775523e-09,
        3.537355963700861e-09,
        0.11640208214521408,
        0.9932021498680115
      ],
      "scale": [
        1.0,
        2.7188410956825805e-17,
        -1.2259441461992537e-08
      ],
      "translation": [
        3.590717315673828,
        1.52587890625e-05,
        0.0
      ]
    },
    {
      "children": [
        92
      ],
      "name": "Bip01 L Finger12",
      "rotation": [
        -3.7795113705385575e-09,
        -1.1960116230724793e-09,
        0.11640208214521408,
        0.9932021498680115
      ],
      "scale": [
        1.0,
        -1.6717720535113165e-17,
        -8.946457796810137e-09
      ],
      "translation": [
        3.5907135009765625,
        0.0,
        9.5367431640625e-07
      ]
    },
    {
      "name": "Bip01 L Finger0Nub",
      "rotation": [
        3.725290298461914e-09,
        3.725290298461914e-09,
        9.313225746154785e-10,
        1.0
      ],
      "scale": [
        1.0,
        7.450580152834618e-09,
        -7.450580596923828e-09
      ],
      "translation": [
        4.83111572265625,
        0.0,
        1.52587890625e-05
      ]
    },
    {
      "name": "Bip01 R Finger0Nub",
      "rotation": [
        -1.0408342510222068e-17,
        0.0,
        1.3969838619232178e-09,
        1.0
      ],
      "scale": [
        0.9999999403953552,
        -9.313223525708736e-10,
        1.4901160305669237e-08
      ],
      "translation": [
        4.831111907958984,
        1.9073486328125e-06,
        0.0
      ]
    },
    {
      "name": "Bip01 R Finger2Nub",
      "rotation": [
        4.6566123179658803e-10,
        -2.3283064365386963e-10,
        -2.9802322387695313e-08,
        1.0
      ],
      "scale": [
        1.0,
        4.336808689942018e-19,
        -2.3283064365386963e-09
      ],
      "translation": [
        3.739696502685547,
        0.0,
        0.0
      ]
    },
    {
      "name": "Bip01 L Finger2Nub",
      "rotation": [
        2.3283064365386963e-10,
        4.656612873077393e-10,
        1.0842021724855044e-19,
        1.0
      ],
      "scale": [
        1.0,
        -4.336808689942018e-19,
        0.0
      ],
      "translation": [
        3.7396888732910156,
        -1.52587890625e-05,
        9.5367431640625e-07
      ]
    },
    {
      "name": "Bip01 R Finger1Nub",
      "rotation": [
        -4.656612873077393e-10,
        -1.862645149230957e-09,
        -4.336808689942018e-19,
        1.0
      ],
      "scale": [
        0.9999999403953552,
        -3.122502256758253e-17,
        -1.303851515643828e-08
      ],
      "translation": [
        3.590717315673828,
        0.0,
        9.5367431640625e-07
      ]
    },
    {
      "name": "Bip01 L Finger1Nub",
      "rotation": [
        5.587935447692871e-09,
        1.3969840839678227e-09,
        -1.4901161193847656e-08,
        1.0
      ],
      "scale": [
        0.9999998807907104,
        2.9802318834981634e-08,
        -2.7939677238464355e-09
      ],
      "translation": [
        3.5907135009765625,
        0.0,
        -9.5367431640625e-07
      ]
    }
  ],
  "scene": 0,
  "scenes": [
    {
      "nodes": [
        0
      ]
    }
  ],
  "skins": [
    {
      "inverseBindMatrices": 4,
      "joints": [
        2,
        3,
        4,
        5,
        6,
        7,
        8,
        9,
        10,
        11,
        12,
        13,
        14,
        15,
        16,
        17,
        18,
        19,
        20,
        21,
        22,
        23,
        24,
        25,
        26,
        27,
        28,
        29,
        30,
        31,
        32,
        33,
        34,
        35,
        36,
        37,
        38,
        39,
        40,
        41,
        42,
        43,
        44,
        45,
        46,
        47,
        48,
        49,
        50,
        51,
        52,
        53,
        54,
        55,
        56,
        57,
        58,
        59,
        60,
        61,
        62,
        63,
        64,
        65,
        66,
        67,
        68,
        69,
        70,
        71,
        72,
        73,
        74,
        75,
        76,
        77,
        78,
        79,
        80,
        81,
        82,
        83,
        84,
        85,
        86,
        87,
        88,
        89,
        90,
        91,
        92
      ],
      "skeleton": 2
    }
  ]
}
