{
  "accessors": [
    {
      "bufferView": 0,
      "componentType": 5126,
      "count": 391,
      "max": [
        171.01429748535156,
        171.69796752929688,
        170.40635681152344
      ],
      "min": [
        -10.437650680541992,
        -10.665390014648438,
        -10.973376274108887
      ],
      "type": "VEC3"
    },
    {
      "bufferView": 1,
      "componentType": 5126,
      "count": 391,
      "type": "VEC3"
    },
    {
      "bufferView": 2,
      "componentType": 5126,
      "count": 391,
      "type": "VEC2"
    },
    {
      "bufferView": 3,
      "componentType": 5123,
      "count": 1872,
      "type": "SCALAR"
    },
    {
      "bufferView": 4,
      "componentType": 5126,
      "count": 56,
      "type": "MAT4"
    }
  ],
  "asset": {
    "generator": "gr2togltf (ANKA2 Project)",
    "version": "2.0"
  },
  "bufferViews": [
    {
      "buffer": 0,
      "byteLength": 4692,
      "target": 34962
    },
    {
      "buffer": 0,
      "byteLength": 4692,
      "byteOffset": 4692,
      "target": 34962
    },
    {
      "buffer": 0,
      "byteLength": 3128,
      "byteOffset": 9384,
      "target": 34962
    },
    {
      "buffer": 0,
      "byteLength": 3744,
      "byteOffset": 12512,
      "target": 34963
    },
    {
      "buffer": 0,
      "byteLength": 3584,
      "byteOffset": 16256
    }
  ],
  "buffers": [
    {
      "byteLength": 19840,
      "uri": "data:application/octet-stream;base64,"
    }
  ],
  "materials": [
    {
      "name": "default",
      "pbrMetallicRoughness": {
        "baseColorFactor": [
          0.8,
          0.8,
          0.8,
          1.0
        ],
        "metallicFactor": 0.0,
        "roughnessFactor": 0.8
      }
    }
  ],
  "meshes": [
    {
      "name": "hair_68_1",
      "primitives": [
        {
          "attributes": {
            "NORMAL": 1,
            "POSITION": 0,
            "TEXCOORD_0": 2
          },
          "indices": 3,
          "material": 0,
          "mode": 4
        }
      ]
    }
  ],
  "nodes": [
    {
      "children": [
        1,
        2
      ]
    },
    {
      "mesh": 0,
      "name": "hair_68_1",
      "skin": 0
    },
    {
      "children": [
        3
      ],
      "name": "Bip01",
      "rotation": [
        0.0,
        0.0,
        0.0,
        1.0000001192092896
      ],
      "scale": [
        1.0,
        0.0,
        0.0
      ],
      "translation": [
        3.5762786865234375e-07,
        9.094947017729282e-13,
        0.0
      ]
    },
    {
      "children": [
        4
      ],
      "name": "Bip01 Pelvis",
      "rotation": [
        -0.499999463558197,
        -0.5000001788139343,
        -0.5000001788139343,
        0.500000536441803
      ],
      "scale": [
        1.0,
        0.0,
        0.0
      ],
      "translation": [
        1.8113456964492798,
        2.4760220185271464e-06,
        0.0
      ]
    },
    {
      "children": [
        5,
        6,
        9
      ],
      "name": "Bip01 Spine",
      "rotation": [
        -2.0994200440327404e-06,
        -7.132022687983408e-07,
        0.02897809073328972,
        0.9995800852775574
      ],
      "scale": [
        1.0,
        -5.52744438761521e-12,
        0.0
      ],
      "translation": [
        6.193992614746094,
        -0.009989559650421143,
        8.603674359619617e-06
      ]
    },
    {
      "children": [
        7
      ],
      "name": "Bip01 R Thigh",
      "rotation": [
        -0.005618720781058073,
        0.9973922371864319,
        -0.005683480761945248,
        0.07172735035419464
      ],
      "scale": [
        1.0,
        3.725290298461914e-09,
        -1.4901161193847656e-08
      ],
      "translation": [
        -6.183006286621094,
        0.36882495880126953,
        -6.6108808517456055
      ]
    },
    {
      "children": [
        8
      ],
      "name": "Bip01 L Thigh",
      "rotation": [
        -0.005618919152766466,
        0.9973923563957214,
        0.005686241202056408,
        -0.07172724604606628
      ],
      "scale": [
        1.0,
        2.561137080192566e-09,
        0.0
      ],
      "translation": [
        -6.183006286621094,
        0.3687882423400879,
        6.610882759094238
      ]
    },
    {
      "children": [
        19
      ],
      "name": "Bip01 R Calf",
      "rotation": [
        2.2516390141280596e-10,
        3.7248040207771282e-09,
        -0.002057911129668355,
        0.9999979734420776
      ],
      "scale": [
        1.0,
        -6.9388355876740434e-18,
        7.4505170921668196e-09
      ],
      "translation": [
        43.94834899902344,
        0.0,
        0.0
      ]
    },
    {
      "children": [
        20
      ],
      "name": "Bip01 L Calf",
      "rotation": [
        -2.40496539349877e-10,
        -3.725762365291985e-09,
        -0.002057911129668355,
        0.9999979734420776
      ],
      "scale": [
        0.9999999403953552,
        0.0,
        7.448664351983325e-09
      ],
      "translation": [
        43.94834518432617,
        0.0,
        0.0
      ]
    },
    {
      "children": [
        10
      ],
      "name": "Bip01 Spine1",
      "rotation": [
        3.20993977383742e-14,
        2.4451341573694663e-07,
        -0.08815741539001465,
        0.9961065649986267
      ],
      "scale": [
        1.0,
        -1.4901139877565583e-08,
        -5.684341886080802e-14
      ],
      "translation": [
        12.570350646972656,
        -0.0077838897705078125,
        -2.1591404220089316e-08
      ]
    },
    {
      "children": [
        11
      ],
      "name": "Bip01 Spine2",
      "rotation": [
        3.559358228755237e-15,
        1.6939880254085438e-07,
        -0.06107543036341667,
        0.9981331825256348
      ],
      "scale": [
        1.0,
        6.9974137161671335e-15,
        -2.842170943040401e-14
      ],
      "translation": [
        9.930061340332031,
        -0.012085914611816406,
        -3.352033672854304e-08
      ]
    },
    {
      "children": [
        12,
        14,
        18
      ],
      "name": "Bip01 Neck",
      "rotation": [
        -4.4169308916755176e-14,
        -7.252515388245229e-07,
        0.2614837884902954,
        0.9652078747749329
      ],
      "scale": [
        1.000000238418579,
        -5.310096980182255e-13,
        0.0
      ],
      "translation": [
        18.59966278076172,
        -1.1482963562011719,
        -1.1849188013002276e-06
      ]
    },
    {
      "children": [
        13
      ],
      "name": "Bip01 R Clavicle",
      "rotation": [
        -0.609510600566864,
        0.23812735080718994,
        0.7433037757873535,
        0.13889478147029877
      ],
      "scale": [
        1.0000001192092896,
        -2.9802322387695313e-08,
        -2.9802322387695313e-08
      ],
      "translation": [
        -1.845062255859375,
        1.0423736572265625,
        -2.4952690601348877
      ]
    },
    {
      "children": [
        17
      ],
      "name": "Bip01 R UpperArm",
      "rotation": [
        -0.1351194977760315,
        -0.021313438192009926,
        -0.053377747535705566,
        0.9891608953475952
      ],
      "scale": [
        0.9999999403953552,
        -4.6566128730773926e-09,
        0.0
      ],
      "translation": [
        11.936210632324219,
        3.814697265625e-06,
        0.0
      ]
    },
    {
      "children": [
        15
      ],
      "name": "Bip01 L Clavicle",
      "rotation": [
        0.6095110774040222,
        -0.23812946677207947,
        0.743303120136261,
        0.13889309763908386
      ],
      "scale": [
        1.0,
        -1.4901161193847656e-08,
        0.0
      ],
      "translation": [
        -1.845062255859375,
        1.0423583984375,
        2.4952709674835205
      ]
    },
    {
      "children": [
        16
      ],
      "name": "Bip01 L UpperArm",
      "rotation": [
        0.1351195126771927,
        0.021313441917300224,
        -0.053377751260995865,
        0.9891608953475952
      ],
      "scale": [
        0.9999999403953552,
        0.0,
        1.1175870895385742e-08
      ],
      "translation": [
        11.936214447021484,
        0.0,
        0.0
      ]
    },
    {
      "children": [
        27
      ],
      "name": "Bip01 L ForeArm",
      "rotation": [
        -5.638930433704559e-10,
        -7.444127536615497e-09,
        -0.028828920796513557,
        0.9995843768119812
      ],
      "scale": [
        1.0,
        7.450580596923828e-09,
        1.4887741706104407e-08
      ],
      "translation": [
        23.69732666015625,
        4.76837158203125e-07,
        3.0517578125e-05
      ]
    },
    {
      "children": [
        28
      ],
      "name": "Bip01 R ForeArm",
      "rotation": [
        2.417046840452741e-10,
        -3.733811038131307e-09,
        -0.028828922659158707,
        0.9995843768119812
      ],
      "scale": [
        1.0,
        3.725290298461914e-09,
        7.450580596923828e-09
      ],
      "translation": [
        23.697330474853516,
        0.0,
        -1.52587890625e-05
      ]
    },
    {
      "children": [
        21,
        26
      ],
      "name": "Bip01 Head",
      "rotation": [
        1.0772960756973149e-13,
        -7.363340870369939e-08,
        0.026547256857156754,
        0.9996475577354431
      ],
      "scale": [
        1.0,
        -5.755563465604553e-16,
        7.105427357601002e-14
      ],
      "translation": [
        8.269393920898438,
        0.0,
        0.0
      ]
    },
    {
      "children": [
        29
      ],
      "name": "Bip01 R Foot",
      "rotation": [
        0.06650765985250473,
        0.07425318658351898,
        0.031415026634931564,
        0.9945231676101685
      ],
      "scale": [
        1.0,
        -9.313225746154785e-09,
        1.4901161193847656e-08
      ],
      "translation": [
        40.7279167175293,
        4.76837158203125e-07,
        1.9073486328125e-06
      ]
    },
    {
      "children": [
        30
      ],
      "name": "Bip01 L Foot",
      "rotation": [
        -0.06650766730308533,
        -0.07425310462713242,
        0.03141503036022186,
        0.9945231676101685
      ],
      "scale": [
        1.0,
        -5.587935447692871e-09,
        -2.9802322387695313e-08
      ],
      "translation": [
        40.72791290283203,
        0.0,
        -1.9073486328125e-06
      ]
    },
    {
      "children": [
        22
      ],
      "name": "Bip01 Ponytail1",
      "rotation": [
        1.933129220935137e-12,
        -2.7729504381568404e-06,
        0.9997656941413879,
        -0.021647000685334206
      ],
      "scale": [
        0.9999998807907104,
        6.656196318947927e-13,
        -5.684341886080802e-14
      ],
      "translation": [
        6.120635986328125,
        -6.112087249755859,
        -1.6952501027844846e-05
      ]
    },
    {
      "children": [
        23
      ],
      "name": "Bip01 Ponytail11",
      "rotation": [
        -5.996557891625558e-15,
        -5.8934229940632576e-08,
        0.02124827355146408,
        0.9997742772102356
      ],
      "scale": [
        1.0000001192092896,
        -2.951105933974733e-16,
        1.1368683772161603e-13
      ],
      "translation": [
        11.237899780273438,
        -0.00893402099609375,
        -2.478191163390875e-08
      ]
    },
    {
      "children": [
        24
      ],
      "name": "Bip01 Ponytail12",
      "rotation": [
        4.9846574350781436e-14,
        1.829704530109666e-07,
        -0.06596856564283371,
        0.9978216886520386
      ],
      "scale": [
        0.9999999403953552,
        1.4901170075631853e-08,
        -2.842170943040401e-14
      ],
      "translation": [
        11.236351013183594,
        -0.00887298583984375,
        -2.463639248162508e-08
      ]
    },
    {
      "children": [
        25
      ],
      "name": "Bip01 Ponytail13",
      "rotation": [
        -6.2308217938476795e-15,
        1.8297041037840245e-07,
        -0.06596855074167252,
        0.9978216886520386
      ],
      "scale": [
        1.0,
        8.814908404716684e-15,
        8.526512829121202e-14
      ],
      "translation": [
        11.236343383789063,
        -0.0088653564453125,
        -2.459273673593998e-08
      ]
    },
    {
      "children": [
        31
      ],
      "name": "Bip01 Ponytail14",
      "rotation": [
        -1.1393502515142512e-13,
        1.8297042458925716e-07,
        -0.06596856564283371,
        0.9978216886520386
      ],
      "scale": [
        1.0,
        8.814938897902785e-15,
        -5.684341886080802e-14
      ],
      "translation": [
        11.236343383789063,
        -0.0088653564453125,
        -2.4578184820711613e-08
      ]
    },
    {
      "name": "Bip01 HeadNub",
      "rotation": [
        -6.394884621840902e-14,
        -2.842170943040401e-14,
        -2.0194839173657902e-27,
        1.0
      ],
      "scale": [
        0.9999999403953552,
        -6.462348535570529e-27,
        5.684341886080802e-14
      ],
      "translation": [
        20.161117553710938,
        -7.62939453125e-06,
        0.0
      ]
    },
    {
      "children": [
        35,
        43,
        47
      ],
      "name": "Bip01 L Hand",
      "rotation": [
        -0.704936146736145,
        -0.06950602680444717,
        -0.06456935405731201,
        0.7028973698616028
      ],
      "scale": [
        0.9999999403953552,
        -1.4901161193847656e-08,
        -3.4924596548080444e-10
      ],
      "translation": [
        22.58063507080078,
        0.0,
        -1.52587890625e-05
      ]
    },
    {
      "children": [
        32,
        40,
        46
      ],
      "name": "Bip01 R Hand",
      "rotation": [
        0.7051333785057068,
        0.06748094409704208,
        -0.06658753007650375,
        0.7027085423469543
      ],
      "scale": [
        1.0000001192092896,
        -1.4901161193847656e-08,
        -1.0477378964424133e-09
      ],
      "translation": [
        22.58063507080078,
        0.0,
        1.52587890625e-05
      ]
    },
    {
      "children": [
        38
      ],
      "name": "Bip01 R Toe0",
      "rotation": [
        2.63417843093805e-09,
        -2.63417798684884e-09,
        0.70710688829422,
        0.7071067094802856
      ],
      "scale": [
        1.0000001192092896,
        -1.0587911840678754e-22,
        -7.450581485102248e-09
      ],
      "translation": [
        12.25244140625,
        10.997764587402344,
        0.0
      ]
    },
    {
      "children": [
        39
      ],
      "name": "Bip01 L Toe0",
      "rotation": [
        -2.63417843093805e-09,
        2.63417843093805e-09,
        0.70710688829422,
        0.7071067094802856
      ],
      "scale": [
        1.0,
        0.0,
        7.450580596923828e-09
      ],
      "translation": [
        12.252439498901367,
        10.997764587402344,
        0.0
      ]
    },
    {
      "name": "Bip01 Ponytail1Nub",
      "rotation": [
        0.7073883414268494,
        0.7068251967430115,
        9.802253089219448e-07,
        -9.810062238102546e-07
      ],
      "scale": [
        1.0000001192092896,
        -6.125598278942067e-15,
        -4.547473508864641e-13
      ],
      "translation": [
        11.237525939941406,
        1.9073486328125e-06,
        0.0
      ]
    },
    {
      "children": [
        33
      ],
      "name": "Bip01 R Finger0",
      "rotation": [
        -0.6464377045631409,
        -0.23017534613609314,
        -0.09677519649267197,
        0.7209523320198059
      ],
      "scale": [
        1.0000001192092896,
        2.384185791015625e-07,
        -2.5890767574310303e-07
      ],
      "translation": [
        0.8650360107421875,
        0.074554443359375,
        1.506800651550293
      ]
    },
    {
      "children": [
        34
      ],
      "name": "Bip01 R Finger01",
      "rotation": [
        3.7266425501059075e-09,
        -6.761258219967203e-13,
        -0.00018151244148612022,
        1.0
      ],
      "scale": [
        1.0,
        8.381903171539307e-09,
        -1.4901161193847656e-08
      ],
      "translation": [
        4.211385726928711,
        -3.814697265625e-06,
        0.0
      ]
    },
    {
      "children": [
        52
      ],
      "name": "Bip01 R Finger02",
      "rotation": [
        -3.866060360735446e-09,
        -3.866060360735446e-09,
        0.03852999955415726,
        0.9992574453353882
      ],
      "scale": [
        1.0,
        7.450580596923828e-09,
        -7.428458737024357e-09
      ],
      "translation": [
        4.211376190185547,
        -3.814697265625e-06,
        0.0
      ]
    },
    {
      "children": [
        36
      ],
      "name": "Bip01 L Finger0",
      "rotation": [
        0.6464377045631409,
        0.23017536103725433,
        -0.09677521884441376,
        0.7209523320198059
      ],
      "scale": [
        1.0000001192092896,
        1.4901161193847656e-07,
        2.3096799850463867e-07
      ],
      "translation": [
        0.8650436401367188,
        0.074554443359375,
        -1.506800651550293
      ]
    },
    {
      "children": [
        37
      ],
      "name": "Bip01 L Finger01",
      "rotation": [
        -1.3521823634746188e-12,
        -1.4901161193847656e-08,
        -0.00018149986863136292,
        1.0
      ],
      "scale": [
        1.0000001192092896,
        -1.3009412214159966e-08,
        1.4901161193847656e-08
      ],
      "translation": [
        4.21137809753418,
        0.0,
        1.52587890625e-05
      ]
    },
    {
      "children": [
        53
      ],
      "name": "Bip01 L Finger02",
      "rotation": [
        1.4353555843893417e-10,
        -3.4354530331626165e-09,
        0.03852999582886696,
        0.9992574453353882
      ],
      "scale": [
        1.0,
        -7.450580596923828e-09,
        8.024295894415445e-09
      ],
      "translation": [
        4.21137809753418,
        -1.9073486328125e-06,
        0.0
      ]
    },
    {
      "name": "Bip01 R Toe0Nub",
      "rotation": [
        -1.1102230246251565e-16,
        -3.7252898543727042e-09,
        8.88178366760566e-16,
        1.0
      ],
      "scale": [
        1.0000001192092896,
        -1.0587911840678754e-22,
        -7.450581485102248e-09
      ],
      "translation": [
        8.298245429992676,
        0.0,
        0.0
      ]
    },
    {
      "name": "Bip01 L Toe0Nub",
      "rotation": [
        0.0,
        3.725290298461914e-09,
        0.0,
        1.0
      ],
      "scale": [
        1.0,
        0.0,
        -7.450580596923828e-09
      ],
      "translation": [
        8.298245429992676,
        0.0,
        1.9073486328125e-06
      ]
    },
    {
      "children": [
        41
      ],
      "name": "Bip01 R Finger2",
      "rotation": [
        -0.01070131454616785,
        0.022079061716794968,
        0.12060806155204773,
        0.9923969507217407
      ],
      "scale": [
        0.9999995827674866,
        -4.463363438844681e-07,
        -8.195638656616211e-08
      ],
      "translation": [
        8.930442810058594,
        -0.6634063720703125,
        -0.9564809799194336
      ]
    },
    {
      "children": [
        42
      ],
      "name": "Bip01 R Finger21",
      "rotation": [
        8.165840226226351e-10,
        0.0,
        0.11640208959579468,
        0.9932021498680115
      ],
      "scale": [
        1.0,
        4.470348358154297e-08,
        -2.0527493038713374e-09
      ],
      "translation": [
        3.7397003173828125,
        1.52587890625e-05,
        9.5367431640625e-07
      ]
    },
    {
      "children": [
        54
      ],
      "name": "Bip01 R Finger22",
      "rotation": [
        -1.183341757915457e-09,
        2.0414603341123438e-10,
        0.11640209704637527,
        0.9932021498680115
      ],
      "scale": [
        1.0,
        -1.4901161193847656e-08,
        -2.5031951511600425e-10
      ],
      "translation": [
        3.7396812438964844,
        0.0,
        -9.5367431640625e-07
      ]
    },
    {
      "children": [
        44
      ],
      "name": "Bip01 L Finger2",
      "rotation": [
        0.01070131454616785,
        -0.022079065442085266,
        0.12060806155204773,
        0.9923969507217407
      ],
      "scale": [
        0.999999463558197,
        -4.0157465264201164e-07,
        8.568167686462402e-08
      ],
      "translation": [
        8.930458068847656,
        -0.6634063720703125,
        0.9564824104309082
      ]
    },
    {
      "children": [
        45
      ],
      "name": "Bip01 L Finger21",
      "rotation": [
        1.490608331211618e-10,
        -5.781198852972125e-10,
        0.11640210449695587,
        0.9932021498680115
      ],
      "scale": [
        0.9999999403953552,
        5.960464477539063e-08,
        2.5422088878457316e-09
      ],
      "translation": [
        3.7396888732910156,
        0.0,
        0.0
      ]
    },
    {
      "children": [
        55
      ],
      "name": "Bip01 L Finger22",
      "rotation": [
        -1.1020359069746632e-09,
        4.353939986323496e-10,
        0.11640206724405289,
        0.9932021498680115
      ],
      "scale": [
        1.0,
        2.9802322387695313e-08,
        1.1214266182335564e-09
      ],
      "translation": [
        3.7396926879882813,
        -1.52587890625e-05,
        9.5367431640625e-07
      ]
    },
    {
      "children": [
        50
      ],
      "name": "Bip01 R Finger1",
      "rotation": [
        -0.00017513516650069505,
        -0.07781513780355453,
        0.11223243921995163,
        0.9906304478645325
      ],
      "scale": [
        0.9999995827674866,
        -5.522742867469788e-07,
        4.172325134277344e-07
      ],
      "translation": [
        9.007843017578125,
        -0.8791351318359375,
        2.3459372520446777
      ]
    },
    {
      "children": [
        48
      ],
      "name": "Bip01 L Finger1",
      "rotation": [
        0.00017513327475171536,
        0.07781513780355453,
        0.11223243921995163,
        0.9906304478645325
      ],
      "scale": [
        0.9999996423721313,
        -5.671754479408264e-07,
        -4.172325134277344e-07
      ],
      "translation": [
        9.007843017578125,
        -0.8791351318359375,
        -2.3459372520446777
      ]
    },
    {
      "children": [
        49
      ],
      "name": "Bip01 L Finger11",
      "rotation": [
        8.301349607719999e-10,
        5.20307930074182e-09,
        0.11640208959579468,
        0.9932021498680115
      ],
      "scale": [
        0.9999999403953552,
        -1.8891240164992202e-17,
        -1.9650370219892466e-09
      ],
      "translation": [
        3.5907135009765625,
        1.52587890625e-05,
        1.9073486328125e-06
      ]
    },
    {
      "children": [
        56
      ],
      "name": "Bip01 L Finger12",
      "rotation": [
        -1.905950064440276e-09,
        4.227242167420542e-10,
        0.11640211194753647,
        0.9932021498680115
      ],
      "scale": [
        1.0,
        2.9802322387695313e-08,
        6.8713488232674536e-09
      ],
      "translation": [
        3.5907135009765625,
        0.0,
        9.5367431640625e-07
      ]
    },
    {
      "children": [
        51
      ],
      "name": "Bip01 R Finger11",
      "rotation": [
        -2.112739760917748e-09,
        -9.636562658954517e-09,
        0.11640207469463348,
        0.9932021498680115
      ],
      "scale": [
        0.9999999403953552,
        1.4901161193847656e-08,
        1.9533974437990764e-08
      ],
      "translation": [
        3.5907211303710938,
        0.0,
        -9.5367431640625e-07
      ]
    },
    {
      "children": [
        57
      ],
      "name": "Bip01 R Finger12",
      "rotation": [
        -2.2023092238754316e-09,
        5.643927103449187e-09,
        0.11640209704637527,
        0.9932021498680115
      ],
      "scale": [
        0.9999999403953552,
        -2.183732498029984e-17,
        -5.039982209353866e-09
      ],
      "translation": [
        3.5907058715820313,
        0.0,
        0.0
      ]
    },
    {
      "name": "Bip01 R Finger0Nub",
      "rotation": [
        -3.725290298461914e-09,
        3.725290298461914e-09,
        7.450580596923828e-09,
        1.0
      ],
      "scale": [
        1.0,
        -1.6763806343078613e-08,
        -7.450580596923828e-09
      ],
      "translation": [
        4.83111572265625,
        0.0,
        0.0
      ]
    },
    {
      "name": "Bip01 L Finger0Nub",
      "rotation": [
        3.725291186640334e-09,
        3.725290298461914e-09,
        -4.656612873077393e-10,
        1.0
      ],
      "scale": [
        1.0,
        3.259628655882807e-08,
        7.450580596923828e-09
      ],
      "translation": [
        4.831111907958984,
        1.9073486328125e-06,
        0.0
      ]
    },
    {
      "name": "Bip01 R Finger2Nub",
      "rotation": [
        0.0,
        4.656612873077393e-10,
        -7.450580596923828e-09,
        1.0
      ],
      "scale": [
        1.0,
        1.4901161193847656e-08,
        -9.313225746154785e-10
      ],
      "translation": [
        3.7397003173828125,
        0.0,
        -9.5367431640625e-07
      ]
    },
    {
      "name": "Bip01 L Finger2Nub",
      "rotation": [
        9.313225746154785e-10,
        6.984919309616089e-10,
        1.4901161193847656e-08,
        1.0
      ],
      "scale": [
        1.0,
        2.9802322387695313e-08,
        4.656612873077393e-10
      ],
      "translation": [
        3.739696502685547,
        0.0,
        0.0
      ]
    },
    {
      "name": "Bip01 L Finger1Nub",
      "rotation": [
        -2.7939677238464355e-09,
        -2.3283064365386963e-09,
        7.450580596923828e-09,
        1.0
      ],
      "scale": [
        1.0,
        1.4901161193847656e-08,
        9.313225746154785e-10
      ],
      "translation": [
        3.5907135009765625,
        0.0,
        -9.5367431640625e-07
      ]
    },
    {
      "name": "Bip01 R Finger1Nub",
      "rotation": [
        9.313224635931761e-10,
        6.5192584663975595e-09,
        1.4901161193847656e-08,
        1.0
      ],
      "scale": [
        0.9999999403953552,
        -7.28583926084708e-17,
        8.881784197001252e-16
      ],
      "translation": [
        3.5907135009765625,
        1.52587890625e-05,
        0.0
      ]
    }
  ],
  "scene": 0,
  "scenes": [
    {
      "nodes": [
        0
      ]
    }
  ],
  "skins": [
    {
      "inverseBindMatrices": 4,
      "joints": [
        2,
        3,
        4,
        5,
        6,
        7,
        8,
        9,
        10,
        11,
        12,
        13,
        14,
        15,
        16,
        17,
        18,
        19,
        20,
        21,
        22,
        23,
        24,
        25,
        26,
        27,
        28,
        29,
        30,
        31,
        32,
        33,
        34,
        35,
        36,
        37,
        38,
        39,
        40,
        41,
        42,
        43,
        44,
        45,
        46,
        47,
        48,
        49,
        50,
        51,
        52,
        53,
        54,
        55,
        56,
        57
      ],
      "skeleton": 2
    }
  ]
}
