{
  "accessors": [
    {
      "bufferView": 0,
      "componentType": 5126,
      "count": 313,
      "max": [
        172.33261108398438,
        172.33261108398438,
        172.6043701171875
      ],
      "min": [
        -11.344758987426758,
        -9.240270614624023,
        -10.034957885742188
      ],
      "type": "VEC3"
    },
    {
      "bufferView": 1,
      "componentType": 5126,
      "count": 313,
      "type": "VEC3"
    },
    {
      "bufferView": 2,
      "componentType": 5126,
      "count": 313,
      "type": "VEC2"
    },
    {
      "bufferView": 3,
      "componentType": 5123,
      "count": 1305,
      "type": "SCALAR"
    },
    {
      "bufferView": 4,
      "componentType": 5126,
      "count": 73,
      "type": "MAT4"
    }
  ],
  "asset": {
    "generator": "gr2togltf (ANKA2 Project)",
    "version": "2.0"
  },
  "bufferViews": [
    {
      "buffer": 0,
      "byteLength": 3756,
      "target": 34962
    },
    {
      "buffer": 0,
      "byteLength": 3756,
      "byteOffset": 3756,
      "target": 34962
    },
    {
      "buffer": 0,
      "byteLength": 2504,
      "byteOffset": 7512,
      "target": 34962
    },
    {
      "buffer": 0,
      "byteLength": 2610,
      "byteOffset": 10016,
      "target": 34963
    },
    {
      "buffer": 0,
      "byteLength": 4672,
      "byteOffset": 12626
    }
  ],
  "buffers": [
    {
      "byteLength": 17298,
      "uri": "data:application/octet-stream;base64,"
    }
  ],
  "materials": [
    {
      "name": "default",
      "pbrMetallicRoughness": {
        "baseColorFactor": [
          0.8,
          0.8,
          0.8,
          1.0
        ],
        "metallicFactor": 0.0,
        "roughnessFactor": 0.8
      }
    }
  ],
  "meshes": [
    {
      "name": "28-1",
      "primitives": [
        {
          "attributes": {
            "NORMAL": 1,
            "POSITION": 0,
            "TEXCOORD_0": 2
          },
          "indices": 3,
          "material": 0,
          "mode": 4
        }
      ]
    }
  ],
  "nodes": [
    {
      "children": [
        1,
        2
      ]
    },
    {
      "mesh": 0,
      "name": "28-1",
      "skin": 0
    },
    {
      "children": [
        3
      ],
      "name": "Bip01",
      "rotation": [
        0.0,
        0.0,
        0.0,
        0.9999999403953552
      ],
      "scale": [
        0.9999997615814209,
        -5.117093408073606e-14,
        0.0
      ],
      "translation": [
        5.960464477539063e-08,
        -7.105427357601002e-14,
        0.0
      ]
    },
    {
      "children": [
        4
      ],
      "name": "Bip01 Pelvis",
      "rotation": [
        -0.4999993145465851,
        -0.5,
        -0.5,
        0.5000006556510925
      ],
      "scale": [
        1.0,
        6.755036055564761e-20,
        -2.6671148450016795e-18
      ],
      "translation": [
        0.9087960720062256,
        -7.105427357601002e-14,
        0.0
      ]
    },
    {
      "children": [
        5,
        12,
        22,
        28,
        31,
        53,
        69
      ],
      "name": "Bip01 Spine",
      "rotation": [
        -2.0994200440327404e-06,
        -7.13202211954922e-07,
        0.02897808514535427,
        0.9995800256729126
      ],
      "scale": [
        1.0000001192092896,
        -3.724561326023945e-09,
        -1.6604279800061517e-13
      ],
      "translation": [
        6.193992614746094,
        -0.009989559650421143,
        8.603674359619617e-06
      ]
    },
    {
      "children": [
        6
      ],
      "name": "Bip01 Spine1",
      "rotation": [
        3.2099401126505986e-14,
        2.445134725803655e-07,
        -0.08815741539001465,
        0.9961065649986267
      ],
      "scale": [
        1.0,
        -1.0468244937555937e-08,
        -3.4335168307706235e-14
      ],
      "translation": [
        12.570350646972656,
        -0.0077838897705078125,
        -2.1591404220089316e-08
      ]
    },
    {
      "children": [
        7,
        9,
        18
      ],
      "name": "Bip01 Spine2",
      "rotation": [
        3.559358652271711e-15,
        1.693989304385468e-07,
        -0.061075467616319656,
        0.9981331825256348
      ],
      "scale": [
        1.0,
        6.99740863396945e-15,
        -1.902568475486109e-14
      ],
      "translation": [
        9.930061340332031,
        -0.0120849609375,
        -3.352033672854304e-08
      ]
    },
    {
      "children": [
        8
      ],
      "name": "ru_bone01",
      "rotation": [
        -0.13882529735565186,
        0.10431169718503952,
        0.7873218655586243,
        0.5915833115577698
      ],
      "scale": [
        1.0000001192092896,
        6.471310030065069e-07,
        -3.667756232061947e-07
      ],
      "translation": [
        3.6871795654296875,
        4.9287261962890625,
        -5.072078227996826
      ]
    },
    {
      "name": "ru_bone02",
      "rotation": [
        -5.076534748127415e-10,
        -6.250468587154501e-09,
        -8.731619516311184e-08,
        1.0
      ],
      "scale": [
        0.4586419463157654,
        -1.862648257855426e-09,
        1.1990778148174286e-08
      ],
      "translation": [
        8.65185546875,
        0.0,
        4.76837158203125e-07
      ]
    },
    {
      "children": [
        10,
        20,
        47
      ],
      "name": "Bip01 Neck",
      "rotation": [
        2.944620255637166e-14,
        -7.252505724864022e-07,
        0.26148346066474915,
        0.9652079343795776
      ],
      "scale": [
        1.0000003576278687,
        -3.928436242972566e-09,
        -3.264605247374139e-14
      ],
      "translation": [
        18.59967803955078,
        -1.148294448852539,
        -1.1849188013002276e-06
      ]
    },
    {
      "children": [
        11,
        35
      ],
      "name": "Bip01 R Clavicle",
      "rotation": [
        -0.6095106601715088,
        0.23812714219093323,
        0.7433037757873535,
        0.13889451324939728
      ],
      "scale": [
        1.0,
        -3.804866466339263e-08,
        -4.791913710278095e-08
      ],
      "translation": [
        -1.8450775146484375,
        1.0423774719238281,
        -2.495269298553467
      ]
    },
    {
      "name": "right_sh_01",
      "rotation": [
        -0.7749795317649841,
        0.17564670741558075,
        0.04531017690896988,
        0.6053939461708069
      ],
      "scale": [
        1.0000001192092896,
        7.952736069682942e-08,
        4.47707968476152e-08
      ],
      "translation": [
        4.489246368408203,
        0.011579513549804688,
        -1.4733428955078125
      ]
    },
    {
      "children": [
        13
      ],
      "name": "right_bone01",
      "rotation": [
        -0.12857407331466675,
        -0.695319652557373,
        0.7015994787216187,
        -0.08807680755853653
      ],
      "scale": [
        1.0000007152557373,
        3.394978165260909e-08,
        -8.453889144277582e-09
      ],
      "translation": [
        3.51776123046875,
        -1.628124713897705,
        -9.515989303588867
      ]
    },
    {
      "children": [
        14
      ],
      "name": "right_bone02",
      "rotation": [
        4.146498769341811e-11,
        2.0767933150978024e-08,
        -0.0019965285900980234,
        0.9999979734420776
      ],
      "scale": [
        1.0,
        -1.4901042177939416e-08,
        -3.39877221690061e-15
      ],
      "translation": [
        17.058738708496094,
        -9.1552734375e-05,
        -5.960464477539063e-07
      ]
    },
    {
      "children": [
        15
      ],
      "name": "right_bone03",
      "rotation": [
        -1.7986202533858825e-13,
        7.384958616851733e-11,
        0.002410314278677106,
        0.999997079372406
      ],
      "scale": [
        1.0000001192092896,
        1.0900616520537199e-10,
        -4.438051573512009e-15
      ],
      "translation": [
        17.69763946533203,
        0.0,
        0.0
      ]
    },
    {
      "children": [
        16
      ],
      "name": "right_bone04",
      "rotation": [
        2.220412564979117e-16,
        3.664340216848152e-18,
        -0.005500906612724066,
        0.999984860420227
      ],
      "scale": [
        0.9999999403953552,
        8.678769566352984e-33,
        9.7714241919042e-18
      ],
      "translation": [
        17.533348083496094,
        -0.000202178955078125,
        1.1920928955078125e-07
      ]
    },
    {
      "children": [
        17
      ],
      "name": "right_bone05",
      "rotation": [
        1.5694337842869581e-15,
        8.151149458567454e-16,
        -0.017286887392401695,
        0.9998505711555481
      ],
      "scale": [
        1.0,
        -4.120899177451065e-09,
        -1.8684661666999985e-15
      ],
      "translation": [
        17.377689361572266,
        -3.814697265625e-06,
        -1.1920928955078125e-07
      ]
    },
    {
      "name": "right_bone06",
      "rotation": [
        1.3322676295501878e-15,
        0.0,
        0.0,
        1.0
      ],
      "scale": [
        1.0,
        0.0,
        0.0
      ],
      "translation": [
        18.117721557617188,
        2.288818359375e-05,
        0.0
      ]
    },
    {
      "children": [
        19
      ],
      "name": "lu_bone01",
      "rotation": [
        0.13882598280906677,
        -0.10431281477212906,
        0.7873216271400452,
        0.5915833115577698
      ],
      "scale": [
        1.000000238418579,
        2.661723996766341e-08,
        -2.465991144617874e-07
      ],
      "translation": [
        3.68719482421875,
        4.928718566894531,
        5.072099685668945
      ]
    },
    {
      "name": "lu_bone02",
      "rotation": [
        -7.614781027953654e-10,
        5.393804847209083e-10,
        -8.731619516311184e-08,
        1.0
      ],
      "scale": [
        0.45864197611808777,
        -1.862648257855426e-09,
        -2.9103830456733704e-09
      ],
      "translation": [
        8.651856422424316,
        0.0,
        1.430511474609375e-06
      ]
    },
    {
      "children": [
        21,
        57
      ],
      "name": "Bip01 L Clavicle",
      "rotation": [
        0.6095110177993774,
        -0.23812922835350037,
        0.743303120136261,
        0.13889282941818237
      ],
      "scale": [
        0.9999999403953552,
        -4.909086825932718e-08,
        4.0251716626471534e-08
      ],
      "translation": [
        -1.8450775146484375,
        1.0423622131347656,
        2.4952707290649414
      ]
    },
    {
      "name": "left_sh_01",
      "rotation": [
        0.774979829788208,
        -0.17564772069454193,
        0.04530739411711693,
        0.605393648147583
      ],
      "scale": [
        1.0000001192092896,
        -5.267315117407634e-08,
        4.8865604895809156e-08
      ],
      "translation": [
        4.48924446105957,
        0.011545181274414063,
        1.47332763671875
      ]
    },
    {
      "children": [
        23
      ],
      "name": "left_bone01",
      "rotation": [
        0.12857414782047272,
        0.6953186988830566,
        0.7016003131866455,
        -0.0880773514509201
      ],
      "scale": [
        1.0000003576278687,
        -5.983202555626121e-08,
        4.443150292132714e-09
      ],
      "translation": [
        3.5177459716796875,
        -1.628150463104248,
        9.515978813171387
      ]
    },
    {
      "children": [
        24
      ],
      "name": "left_bone02",
      "rotation": [
        4.145683449308102e-11,
        2.0767924269193827e-08,
        -0.0019965136889368296,
        0.9999979734420776
      ],
      "scale": [
        0.9999998807907104,
        1.513904557270962e-08,
        1.423927097651649e-14
      ],
      "translation": [
        17.058738708496094,
        -8.7738037109375e-05,
        -7.152557373046875e-07
      ]
    },
    {
      "children": [
        25
      ],
      "name": "left_bone03",
      "rotation": [
        -1.7585936775820626e-13,
        7.383980926700673e-11,
        0.002410306828096509,
        0.999997079372406
      ],
      "scale": [
        1.0000001192092896,
        -1.4791983637962858e-08,
        8.418609640783656e-16
      ],
      "translation": [
        17.697647094726563,
        -3.814697265625e-06,
        1.1920928955078125e-07
      ]
    },
    {
      "children": [
        26
      ],
      "name": "left_bone04",
      "rotation": [
        -6.197611326051733e-15,
        3.606403285678688e-15,
        -0.0055009061470627785,
        0.999984860420227
      ],
      "scale": [
        1.0,
        -3.802321790757901e-10,
        -7.066341445766426e-15
      ],
      "translation": [
        17.53335189819336,
        -0.0001983642578125,
        -1.1920928955078125e-07
      ]
    },
    {
      "children": [
        27
      ],
      "name": "left_bone05",
      "rotation": [
        -9.49461041675737e-16,
        3.3832907839654062e-15,
        -0.0172868724912405,
        0.9998505711555481
      ],
      "scale": [
        1.0,
        -2.060447812368693e-09,
        6.732743025204477e-15
      ],
      "translation": [
        17.377689361572266,
        -3.814697265625e-06,
        0.0
      ]
    },
    {
      "name": "left_bone06",
      "rotation": [
        -3.552713678800501e-15,
        0.0,
        0.0,
        1.0
      ],
      "scale": [
        0.9999999403953552,
        0.0,
        0.0
      ],
      "translation": [
        18.117721557617188,
        2.6702880859375e-05,
        0.0
      ]
    },
    {
      "children": [
        29
      ],
      "name": "front_bone01",
      "rotation": [
        1.228702899425116e-07,
        -6.800131586714997e-07,
        0.998245358467102,
        0.0592135451734066
      ],
      "scale": [
        1.000000238418579,
        1.4072203402548666e-09,
        -3.1031695767701206e-14
      ],
      "translation": [
        4.3542938232421875,
        7.451944351196289,
        1.0614675375109073e-05
      ]
    },
    {
      "children": [
        30
      ],
      "name": "front_bone02",
      "rotation": [
        1.0036364219491748e-15,
        3.595277931432977e-15,
        -0.06419984996318817,
        0.9979370832443237
      ],
      "scale": [
        1.000000238418579,
        -4.965325928196762e-10,
        -6.9062653477460455e-15
      ],
      "translation": [
        16.666847229003906,
        9.5367431640625e-07,
        1.201951818075031e-07
      ]
    },
    {
      "name": "front_bone03",
      "rotation": [
        0.0,
        -1.7763568394002505e-15,
        7.450580596923828e-09,
        1.0
      ],
      "scale": [
        1.0,
        6.310887241768095e-30,
        3.552713467042264e-15
      ],
      "translation": [
        14.756553649902344,
        -3.814697265625e-06,
        1.877797330962494e-07
      ]
    },
    {
      "children": [
        32
      ],
      "name": "Bip01 R Thigh",
      "rotation": [
        -0.005618724040687084,
        0.9973922371864319,
        -0.005683527328073978,
        0.07172740250825882
      ],
      "scale": [
        1.0000001192092896,
        -6.227897086930057e-10,
        2.7660693180386886e-10
      ],
      "translation": [
        -6.183006286621094,
        0.36882495880126953,
        -6.6108808517456055
      ]
    },
    {
      "children": [
        33
      ],
      "name": "Bip01 R Calf",
      "rotation": [
        -4.579940315885267e-10,
        3.7252823048561368e-09,
        -0.0020579069387167692,
        0.9999978542327881
      ],
      "scale": [
        0.9999998807907104,
        2.453210967701125e-10,
        -7.452497285953541e-09
      ],
      "translation": [
        43.9483528137207,
        0.0,
        0.0
      ]
    },
    {
      "children": [
        34
      ],
      "name": "Bip01 R Foot",
      "rotation": [
        0.06650760024785995,
        0.07425322383642197,
        0.03141501173377037,
        0.9945231676101685
      ],
      "scale": [
        1.0,
        -1.6720505868761393e-08,
        1.339680721912373e-08
      ],
      "translation": [
        40.7279167175293,
        4.76837158203125e-07,
        0.0
      ]
    },
    {
      "name": "Bip01 R Toe0",
      "rotation": [
        2.6341777648042353e-09,
        -2.6341775427596303e-09,
        0.7071067094802856,
        0.7071067690849304
      ],
      "scale": [
        1.0000001192092896,
        -1.0587911840678754e-22,
        -7.450581485102248e-09
      ],
      "translation": [
        12.25244140625,
        10.99776554107666,
        0.0
      ]
    },
    {
      "children": [
        36
      ],
      "name": "Bip01 R UpperArm",
      "rotation": [
        -0.13511957228183746,
        -0.021313395351171494,
        -0.05337771028280258,
        0.9891608953475952
      ],
      "scale": [
        1.0,
        -9.01797747587807e-09,
        -7.934673362797184e-09
      ],
      "translation": [
        11.936210632324219,
        0.0,
        -1.52587890625e-05
      ]
    },
    {
      "children": [
        37
      ],
      "name": "Bip01 R ForeArm",
      "rotation": [
        2.0582130444424251e-10,
        1.1167869296002664e-08,
        -0.02882891707122326,
        0.9995843768119812
      ],
      "scale": [
        0.9999999403953552,
        -3.151394700751098e-09,
        -2.2365163943049993e-08
      ],
      "translation": [
        23.69732666015625,
        0.0,
        0.0
      ]
    },
    {
      "children": [
        38,
        41,
        44
      ],
      "name": "Bip01 R Hand",
      "rotation": [
        0.7051334381103516,
        0.06748095154762268,
        -0.06658753752708435,
        0.7027085423469543
      ],
      "scale": [
        1.0000001192092896,
        3.7357503757107224e-09,
        -1.458518195107672e-09
      ],
      "translation": [
        22.580636978149414,
        9.5367431640625e-07,
        1.52587890625e-05
      ]
    },
    {
      "children": [
        39
      ],
      "name": "Bip01 R Finger2",
      "rotation": [
        -0.01070131454616785,
        0.022079061716794968,
        0.12060804665088654,
        0.9923969507217407
      ],
      "scale": [
        0.999999463558197,
        -4.1925332538994553e-07,
        -8.654299676891242e-08
      ],
      "translation": [
        8.93044662475586,
        -0.6634063720703125,
        -0.9564814567565918
      ]
    },
    {
      "children": [
        40
      ],
      "name": "Bip01 R Finger21",
      "rotation": [
        4.218428661939555e-10,
        -2.9266794543403307e-10,
        0.1164020299911499,
        0.9932021498680115
      ],
      "scale": [
        1.0,
        -1.4309620155472658e-09,
        -6.795636275924721e-10
      ],
      "translation": [
        3.7396926879882813,
        0.0,
        0.0
      ]
    },
    {
      "name": "Bip01 R Finger22",
      "rotation": [
        -8.978895960076727e-10,
        6.937436736187408e-10,
        0.1164020225405693,
        0.9932022094726563
      ],
      "scale": [
        1.0,
        4.349206861320454e-08,
        6.557653309258171e-10
      ],
      "translation": [
        3.739696502685547,
        0.0,
        -9.5367431640625e-07
      ]
    },
    {
      "children": [
        42
      ],
      "name": "Bip01 R Finger1",
      "rotation": [
        -0.00017513516650069505,
        -0.07781512290239334,
        0.11223243176937103,
        0.9906304478645325
      ],
      "scale": [
        0.9999995827674866,
        -5.739314019592712e-07,
        4.2104161934730655e-07
      ],
      "translation": [
        9.00784683227539,
        -0.879119873046875,
        2.3459362983703613
      ]
    },
    {
      "children": [
        43
      ],
      "name": "Bip01 R Finger11",
      "rotation": [
        9.30943794275052e-11,
        -5.026033811361685e-09,
        0.1164020225405693,
        0.9932022094726563
      ],
      "scale": [
        0.9999999403953552,
        -7.154818959520526e-10,
        9.552365121123785e-09
      ],
      "translation": [
        3.5907135009765625,
        0.0,
        9.5367431640625e-07
      ]
    },
    {
      "name": "Bip01 R Finger12",
      "rotation": [
        -1.062263610407399e-09,
        1.1154103418675732e-08,
        0.1164020299911499,
        0.9932021498680115
      ],
      "scale": [
        0.9999999403953552,
        5.798942481760605e-08,
        5.640050204647196e-09
      ],
      "translation": [
        3.590709686279297,
        -1.52587890625e-05,
        0.0
      ]
    },
    {
      "children": [
        45
      ],
      "name": "Bip01 R Finger0",
      "rotation": [
        -0.6464375853538513,
        -0.23017531633377075,
        -0.09677518159151077,
        0.7209523916244507
      ],
      "scale": [
        1.0,
        1.5804086217485747e-07,
        -2.560297502895992e-07
      ],
      "translation": [
        0.8650360107421875,
        0.074554443359375,
        1.5068011283874512
      ]
    },
    {
      "children": [
        46
      ],
      "name": "Bip01 R Finger01",
      "rotation": [
        2.0284780799517677e-12,
        -3.725290076417309e-09,
        -0.000181504525244236,
        1.0
      ],
      "scale": [
        1.0,
        -3.725290076417309e-09,
        -2.2351741790771484e-08
      ],
      "translation": [
        4.2113800048828125,
        1.9073486328125e-06,
        0.0
      ]
    },
    {
      "name": "Bip01 R Finger02",
      "rotation": [
        -7.732118945114053e-09,
        -1.1110480876553414e-16,
        0.038529977202415466,
        0.9992574453353882
      ],
      "scale": [
        1.0000001192092896,
        4.457075419850298e-08,
        -1.4305324924634988e-08
      ],
      "translation": [
        4.211374282836914,
        0.0,
        0.0
      ]
    },
    {
      "children": [
        48
      ],
      "name": "Bip01 Head",
      "rotation": [
        2.843173152423592e-14,
        -7.36343963581021e-08,
        0.026547618210315704,
        0.9996475577354431
      ],
      "scale": [
        0.9999997019767761,
        -3.8144790104333026e-10,
        -2.0861582928255636e-15
      ],
      "translation": [
        8.269378662109375,
        -3.814697265625e-06,
        0.0
      ]
    },
    {
      "children": [
        49
      ],
      "name": "Bip01 Ponytail1",
      "rotation": [
        1.847844143323951e-12,
        -2.772950665530516e-06,
        0.9997656941413879,
        -0.021647104993462563
      ],
      "scale": [
        0.9999997615814209,
        -2.955307665253315e-10,
        1.2464477421123693e-13
      ],
      "translation": [
        6.120635986328125,
        -6.112083435058594,
        -1.6952501027844846e-05
      ]
    },
    {
      "children": [
        50
      ],
      "name": "Bip01 Ponytail11",
      "rotation": [
        1.0716071313730119e-13,
        -5.893472021512025e-08,
        0.021248415112495422,
        0.9997742176055908
      ],
      "scale": [
        1.0,
        2.532436260693771e-09,
        4.905095630342547e-14
      ],
      "translation": [
        11.2379150390625,
        -0.008941650390625,
        -2.4796463549137115e-08
      ]
    },
    {
      "children": [
        51
      ],
      "name": "Bip01 Ponytail12",
      "rotation": [
        6.052797830004633e-14,
        1.8297043880011188e-07,
        -0.0659685730934143,
        0.9978216886520386
      ],
      "scale": [
        1.0000001192092896,
        -9.223982133654829e-10,
        -8.898947795018056e-14
      ],
      "translation": [
        11.236335754394531,
        -0.0088653564453125,
        -2.459273673593998e-08
      ]
    },
    {
      "children": [
        52
      ],
      "name": "Bip01 Ponytail13",
      "rotation": [
        2.2787005030285024e-13,
        1.8297032511327416e-07,
        -0.06596854329109192,
        0.9978216886520386
      ],
      "scale": [
        1.0,
        8.8145484157141e-15,
        -2.3105324077621336e-14
      ],
      "translation": [
        11.236366271972656,
        -0.00887298583984375,
        -2.4607288651168346e-08
      ]
    },
    {
      "name": "Bip01 Ponytail14",
      "rotation": [
        1.1215478551299465e-13,
        1.8297041037840245e-07,
        -0.06596856564283371,
        0.9978216886520386
      ],
      "scale": [
        1.0,
        8.814692411315134e-15,
        -3.3800090818662115e-14
      ],
      "translation": [
        11.236343383789063,
        -0.00887298583984375,
        -2.459273673593998e-08
      ]
    },
    {
      "children": [
        54
      ],
      "name": "Bip01 L Thigh",
      "rotation": [
        -0.005618922412395477,
        0.9973922371864319,
        0.005686287768185139,
        -0.07172729820013046
      ],
      "scale": [
        1.0000001192092896,
        -1.0316302256896392e-09,
        7.780489141850921e-09
      ],
      "translation": [
        -6.183006286621094,
        0.3687882423400879,
        6.610882759094238
      ]
    },
    {
      "children": [
        55
      ],
      "name": "Bip01 L Calf",
      "rotation": [
        -2.3283014405350855e-10,
        -7.451044226058912e-09,
        -0.002057907171547413,
        0.9999978542327881
      ],
      "scale": [
        0.9999998211860657,
        -2.2033622149031373e-10,
        -1.8525046947825974e-12
      ],
      "translation": [
        43.94834899902344,
        0.0,
        0.0
      ]
    },
    {
      "children": [
        56
      ],
      "name": "Bip01 L Foot",
      "rotation": [
        -0.06650760769844055,
        -0.0742531344294548,
        0.03141501918435097,
        0.9945231676101685
      ],
      "scale": [
        1.0,
        -1.4292726113751542e-08,
        -1.1089581697376616e-08
      ],
      "translation": [
        40.72792053222656,
        0.0,
        0.0
      ]
    },
    {
      "name": "Bip01 L Toe0",
      "rotation": [
        -2.6341777648042353e-09,
        2.6341777648042353e-09,
        0.7071067094802856,
        0.7071067690849304
      ],
      "scale": [
        1.0,
        0.0,
        7.450580596923828e-09
      ],
      "translation": [
        12.252439498901367,
        10.997763633728027,
        0.0
      ]
    },
    {
      "children": [
        58
      ],
      "name": "Bip01 L UpperArm",
      "rotation": [
        0.13511957228183746,
        0.021313389763236046,
        -0.05337771028280258,
        0.9891608953475952
      ],
      "scale": [
        0.9999999403953552,
        -1.0924727789074495e-09,
        -1.44989922290506e-08
      ],
      "translation": [
        11.936209678649902,
        -3.814697265625e-06,
        1.52587890625e-05
      ]
    },
    {
      "children": [
        59
      ],
      "name": "Bip01 L ForeArm",
      "rotation": [
        -4.116427199107875e-10,
        -1.4894968813905507e-08,
        -0.028828918933868408,
        0.9995843768119812
      ],
      "scale": [
        1.0,
        5.677027736794571e-10,
        4.47045174212235e-08
      ],
      "translation": [
        23.697330474853516,
        0.0,
        1.52587890625e-05
      ]
    },
    {
      "children": [
        60,
        63,
        66
      ],
      "name": "Bip01 L Hand",
      "rotation": [
        -0.7049362063407898,
        -0.06950603425502777,
        -0.0645693764090538,
        0.702897310256958
      ],
      "scale": [
        0.9999999403953552,
        -8.178926869106817e-09,
        -2.6706901135042926e-09
      ],
      "translation": [
        22.58063316345215,
        -9.5367431640625e-07,
        -1.52587890625e-05
      ]
    },
    {
      "children": [
        61
      ],
      "name": "Bip01 L Finger2",
      "rotation": [
        0.010701313614845276,
        -0.022079065442085266,
        0.12060804665088654,
        0.9923969507217407
      ],
      "scale": [
        0.999999463558197,
        -4.193959455278673e-07,
        8.991055011620119e-08
      ],
      "translation": [
        8.930450439453125,
        -0.66339111328125,
        0.95648193359375
      ]
    },
    {
      "children": [
        62
      ],
      "name": "Bip01 L Finger21",
      "rotation": [
        -1.0840782438403807e-10,
        3.540879256469509e-10,
        0.1164020299911499,
        0.9932021498680115
      ],
      "scale": [
        1.0000001192092896,
        1.3066394188854247e-08,
        -2.065368098769227e-09
      ],
      "translation": [
        3.739696502685547,
        0.0,
        -9.5367431640625e-07
      ]
    },
    {
      "name": "Bip01 L Finger22",
      "rotation": [
        6.251074657903644e-10,
        -5.166996275285385e-10,
        0.11640205979347229,
        0.9932021498680115
      ],
      "scale": [
        1.0000001192092896,
        5.655846990748614e-08,
        2.553388389614497e-09
      ],
      "translation": [
        3.7396888732910156,
        0.0,
        9.5367431640625e-07
      ]
    },
    {
      "children": [
        64
      ],
      "name": "Bip01 L Finger1",
      "rotation": [
        0.00017513516650069505,
        0.07781512290239334,
        0.11223243176937103,
        0.9906304478645325
      ],
      "scale": [
        0.9999996423721313,
        -5.474205977407109e-07,
        -4.1505487047288625e-07
      ],
      "translation": [
        9.007850646972656,
        -0.879119873046875,
        -2.345937728881836
      ]
    },
    {
      "children": [
        65
      ],
      "name": "Bip01 L Finger11",
      "rotation": [
        -1.7144733410745516e-09,
        -3.793942049412635e-09,
        0.11640201508998871,
        0.9932022094726563
      ],
      "scale": [
        1.0,
        -3.042568152977765e-08,
        2.1760591106811944e-09
      ],
      "translation": [
        3.5907135009765625,
        0.0,
        1.9073486328125e-06
      ]
    },
    {
      "name": "Bip01 L Finger12",
      "rotation": [
        1.4958954075439124e-09,
        -5.455642049234655e-10,
        0.1164020225405693,
        0.9932022094726563
      ],
      "scale": [
        0.9999999403953552,
        2.9710195192933497e-08,
        2.293328416058671e-09
      ],
      "translation": [
        3.5907135009765625,
        1.52587890625e-05,
        9.5367431640625e-07
      ]
    },
    {
      "children": [
        67
      ],
      "name": "Bip01 L Finger0",
      "rotation": [
        0.6464375853538513,
        0.23017531633377075,
        -0.09677518904209137,
        0.7209523916244507
      ],
      "scale": [
        1.0000001192092896,
        1.33342965114025e-07,
        2.3337395305134123e-07
      ],
      "translation": [
        0.8650398254394531,
        0.074554443359375,
        -1.5068011283874512
      ]
    },
    {
      "children": [
        68
      ],
      "name": "Bip01 L Finger01",
      "rotation": [
        3.7239380468179206e-09,
        6.761258219967203e-13,
        -0.00018151430413126945,
        1.0
      ],
      "scale": [
        1.0,
        -1.2107192581822801e-08,
        1.4903864808957223e-08
      ],
      "translation": [
        4.21137809753418,
        -1.9073486328125e-06,
        0.0
      ]
    },
    {
      "name": "Bip01 L Finger02",
      "rotation": [
        7.301512727764248e-09,
        3.722523844729153e-09,
        0.038529954850673676,
        0.9992574453353882
      ],
      "scale": [
        1.0,
        -3.5391316544064466e-08,
        -8.024295006237026e-09
      ],
      "translation": [
        4.211387634277344,
        1.9073486328125e-06,
        0.0
      ]
    },
    {
      "children": [
        70
      ],
      "name": "back_bone01",
      "rotation": [
        -4.3333738375395114e-08,
        -7.363719873865193e-07,
        0.9823358654975891,
        -0.1871262788772583
      ],
      "scale": [
        1.0,
        5.160222292868721e-13,
        -1.53338984305168e-14
      ],
      "translation": [
        3.0302810668945313,
        -8.421611785888672,
        -1.2297716239118017e-05
      ]
    },
    {
      "children": [
        71
      ],
      "name": "back_bone02",
      "rotation": [
        1.4857204593186316e-15,
        -1.8883354420602162e-15,
        -0.08938858658075333,
        0.9959968328475952
      ],
      "scale": [
        0.9999999403953552,
        6.563553256455634e-09,
        -3.4959389661701765e-15
      ],
      "translation": [
        12.280609130859375,
        0.0,
        4.547473508864641e-12
      ]
    },
    {
      "children": [
        72
      ],
      "name": "back_bone03",
      "rotation": [
        -2.6524521223495563e-15,
        -1.7823273628872092e-15,
        0.0067679500207304955,
        0.9999771118164063
      ],
      "scale": [
        0.9999999403953552,
        1.2445322550291849e-10,
        3.5767575560412615e-15
      ],
      "translation": [
        18.749588012695313,
        8.392333984375e-05,
        1.459229679312557e-07
      ]
    },
    {
      "children": [
        73
      ],
      "name": "back_bone04",
      "rotation": [
        4.565789753551233e-16,
        -1.779437921745888e-15,
        -0.0070373364724218845,
        0.9999752044677734
      ],
      "scale": [
        1.0000001192092896,
        -6.542245634122423e-10,
        -3.5523623718856272e-15
      ],
      "translation": [
        17.04608154296875,
        0.00026702880859375,
        1.2274449545657262e-07
      ]
    },
    {
      "children": [
        74
      ],
      "name": "back_bone05",
      "rotation": [
        1.3244948317097088e-15,
        1.7782798159487545e-15,
        0.0043685175478458405,
        0.9999904632568359
      ],
      "scale": [
        1.0000001192092896,
        -4.105241147023264e-10,
        -3.560473771146771e-15
      ],
      "translation": [
        19.994050979614258,
        0.0,
        1.5606929082423449e-07
      ]
    },
    {
      "name": "back_bone06",
      "rotation": [
        0.0,
        -1.7763568394002505e-15,
        1.5777219985211197e-30,
        1.0
      ],
      "scale": [
        1.0,
        0.0,
        -3.552713467042264e-15
      ],
      "translation": [
        18.225330352783203,
        -3.814697265625e-06,
        1.354210326098837e-07
      ]
    }
  ],
  "scene": 0,
  "scenes": [
    {
      "nodes": [
        0
      ]
    }
  ],
  "skins": [
    {
      "inverseBindMatrices": 4,
      "joints": [
        2,
        3,
        4,
        5,
        6,
        7,
        8,
        9,
        10,
        11,
        12,
        13,
        14,
        15,
        16,
        17,
        18,
        19,
        20,
        21,
        22,
        23,
        24,
        25,
        26,
        27,
        28,
        29,
        30,
        31,
        32,
        33,
        34,
        35,
        36,
        37,
        38,
        39,
        40,
        41,
        42,
        43,
        44,
        45,
        46,
        47,
        48,
        49,
        50,
        51,
        52,
        53,
        54,
        55,
        56,
        57,
        58,
        59,
        60,
        61,
        62,
        63,
        64,
        65,
        66,
        67,
        68,
        69,
        70,
        71,
        72,
        73,
        74
      ],
      "skeleton": 2
    }
  ]
}
