{
  "accessors": [
    {
      "bufferView": 0,
      "componentType": 5126,
      "count": 322,
      "max": [
        166.4186553955078,
        167.33407592773438,
        167.48565673828125
      ],
      "min": [
        -10.205035209655762,
        -9.712084770202637,
        -9.512917518615723
      ],
      "type": "VEC3"
    },
    {
      "bufferView": 1,
      "componentType": 5126,
      "count": 322,
      "type": "VEC3"
    },
    {
      "bufferView": 2,
      "componentType": 5126,
      "count": 322,
      "type": "VEC2"
    },
    {
      "bufferView": 3,
      "componentType": 5123,
      "count": 1428,
      "type": "SCALAR"
    },
    {
      "bufferView": 4,
      "componentType": 5126,
      "count": 12,
      "type": "MAT4"
    }
  ],
  "asset": {
    "generator": "gr2togltf (ANKA2 Project)",
    "version": "2.0"
  },
  "bufferViews": [
    {
      "buffer": 0,
      "byteLength": 3864,
      "target": 34962
    },
    {
      "buffer": 0,
      "byteLength": 3864,
      "byteOffset": 3864,
      "target": 34962
    },
    {
      "buffer": 0,
      "byteLength": 2576,
      "byteOffset": 7728,
      "target": 34962
    },
    {
      "buffer": 0,
      "byteLength": 2856,
      "byteOffset": 10304,
      "target": 34963
    },
    {
      "buffer": 0,
      "byteLength": 768,
      "byteOffset": 13160
    }
  ],
  "buffers": [
    {
      "byteLength": 13928,
      "uri": "data:application/octet-stream;base64,"
    }
  ],
  "materials": [
    {
      "name": "default",
      "pbrMetallicRoughness": {
        "baseColorFactor": [
          0.8,
          0.8,
          0.8,
          1.0
        ],
        "metallicFactor": 0.0,
        "roughnessFactor": 0.8
      }
    }
  ],
  "meshes": [
    {
      "name": "hair_ff",
      "primitives": [
        {
          "attributes": {
            "NORMAL": 1,
            "POSITION": 0,
            "TEXCOORD_0": 2
          },
          "indices": 3,
          "material": 0,
          "mode": 4
        }
      ]
    }
  ],
  "nodes": [
    {
      "children": [
        1,
        2
      ]
    },
    {
      "mesh": 0,
      "name": "hair_ff",
      "skin": 0
    },
    {
      "children": [
        3
      ],
      "name": "Bip01",
      "rotation": [
        0.0,
        0.0,
        0.0,
        1.0000001192092896
      ],
      "scale": [
        1.0,
        0.0,
        0.0
      ],
      "translation": [
        1.7881393432617188e-07,
        1.1368683772161603e-13,
        0.0
      ]
    },
    {
      "children": [
        4
      ],
      "name": "Bip01 Pelvis",
      "rotation": [
        -0.499999463558197,
        -0.5000001788139343,
        -0.5000001788139343,
        0.500000536441803
      ],
      "scale": [
        1.0,
        0.0,
        0.0
      ],
      "translation": [
        0.9087960720062256,
        -7.105427357601002e-14,
        0.0
      ]
    },
    {
      "children": [
        5
      ],
      "name": "Bip01 Spine",
      "rotation": [
        -2.0994200440327404e-06,
        -7.132022687983408e-07,
        0.02897809073328972,
        0.9995800852775574
      ],
      "scale": [
        1.0,
        -5.52744438761521e-12,
        0.0
      ],
      "translation": [
        6.193992614746094,
        -0.009989559650421143,
        8.603674359619617e-06
      ]
    },
    {
      "children": [
        6
      ],
      "name": "Bip01 Spine1",
      "rotation": [
        3.20993977383742e-14,
        2.4451341573694663e-07,
        -0.08815741539001465,
        0.9961065649986267
      ],
      "scale": [
        1.0,
        -1.4901139877565583e-08,
        -5.684341886080802e-14
      ],
      "translation": [
        12.570350646972656,
        -0.0077838897705078125,
        -2.1591404220089316e-08
      ]
    },
    {
      "children": [
        7
      ],
      "name": "Bip01 Spine2",
      "rotation": [
        3.559358228755237e-15,
        1.6939880254085438e-07,
        -0.06107543036341667,
        0.9981331825256348
      ],
      "scale": [
        1.0,
        6.9974137161671335e-15,
        -2.842170943040401e-14
      ],
      "translation": [
        9.930061340332031,
        -0.012085914611816406,
        -3.352033672854304e-08
      ]
    },
    {
      "children": [
        8
      ],
      "name": "Bip01 Neck",
      "rotation": [
        -1.472310127818583e-14,
        -7.252510272337531e-07,
        0.26148363947868347,
        0.9652079343795776
      ],
      "scale": [
        1.0000001192092896,
        2.9801791257000332e-08,
        0.0
      ],
      "translation": [
        18.59966278076172,
        -1.1482963562011719,
        -1.1849188013002276e-06
      ]
    },
    {
      "children": [
        9
      ],
      "name": "Bip01 Head",
      "rotation": [
        5.73077081123842e-14,
        -7.363370002622105e-08,
        0.02654736302793026,
        0.9996475577354431
      ],
      "scale": [
        0.9999999403953552,
        -5.75566934472296e-16,
        2.842170943040401e-14
      ],
      "translation": [
        8.269393920898438,
        -3.814697265625e-06,
        0.0
      ]
    },
    {
      "children": [
        10
      ],
      "name": "Bip01 Ponytail1",
      "rotation": [
        1.8407369812428742e-12,
        -2.7729508929041913e-06,
        0.9997656941413879,
        -0.021647091954946518
      ],
      "scale": [
        0.9999998211860657,
        6.656235350226136e-13,
        1.5631940186722204e-13
      ],
      "translation": [
        6.120635986328125,
        -6.112087249755859,
        -1.6952501027844846e-05
      ]
    },
    {
      "children": [
        11
      ],
      "name": "Bip01 Ponytail11",
      "rotation": [
        5.552368731887719e-16,
        -5.893454968486367e-08,
        0.021248381584882736,
        0.9997742176055908
      ],
      "scale": [
        1.0,
        -2.951356338089765e-16,
        5.684341886080802e-14
      ],
      "translation": [
        11.2379150390625,
        -0.00894927978515625,
        -2.4811015464365482e-08
      ]
    },
    {
      "children": [
        12
      ],
      "name": "Bip01 Ponytail12",
      "rotation": [
        -6.052798507630991e-14,
        1.829703677458383e-07,
        -0.06596856564283371,
        0.9978216886520386
      ],
      "scale": [
        1.0,
        8.814755938786178e-15,
        -1.1368683772161603e-13
      ],
      "translation": [
        11.236335754394531,
        -0.0088653564453125,
        -2.459273673593998e-08
      ]
    },
    {
      "children": [
        13
      ],
      "name": "Bip01 Ponytail13",
      "rotation": [
        2.31430516027184e-13,
        1.8297038195669302e-07,
        -0.06596854329109192,
        0.9978216886520386
      ],
      "scale": [
        1.0,
        8.814575520768413e-15,
        0.0
      ],
      "translation": [
        11.236351013183594,
        -0.00887298583984375,
        -2.459273673593998e-08
      ]
    },
    {
      "name": "Bip01 Ponytail14",
      "rotation": [
        -3.560469535982035e-15,
        1.8297039616754773e-07,
        -0.06596855819225311,
        0.9978216886520386
      ],
      "scale": [
        1.0,
        8.814701728677553e-15,
        2.842170943040401e-14
      ],
      "translation": [
        11.236343383789063,
        -0.008869171142578125,
        -2.4607288651168346e-08
      ]
    }
  ],
  "scene": 0,
  "scenes": [
    {
      "nodes": [
        0
      ]
    }
  ],
  "skins": [
    {
      "inverseBindMatrices": 4,
      "joints": [
        2,
        3,
        4,
        5,
        6,
        7,
        8,
        9,
        10,
        11,
        12,
        13
      ],
      "skeleton": 2
    }
  ]
}
