{
  "accessors": [
    {
      "bufferView": 0,
      "componentType": 5126,
      "count": 767,
      "max": [
        188.20050048828125,
        188.20050048828125,
        188.63987731933594
      ],
      "min": [
        -17.13630485534668,
        -17.28875732421875,
        -17.13630485534668
      ],
      "type": "VEC3"
    },
    {
      "bufferView": 1,
      "componentType": 5126,
      "count": 767,
      "type": "VEC3"
    },
    {
      "bufferView": 2,
      "componentType": 5126,
      "count": 767,
      "type": "VEC2"
    },
    {
      "bufferView": 3,
      "componentType": 5123,
      "count": 2340,
      "type": "SCALAR"
    },
    {
      "bufferView": 4,
      "componentType": 5126,
      "count": 14,
      "type": "MAT4"
    }
  ],
  "asset": {
    "generator": "gr2togltf (ANKA2 Project)",
    "version": "2.0"
  },
  "bufferViews": [
    {
      "buffer": 0,
      "byteLength": 9204,
      "target": 34962
    },
    {
      "buffer": 0,
      "byteLength": 9204,
      "byteOffset": 9204,
      "target": 34962
    },
    {
      "buffer": 0,
      "byteLength": 6136,
      "byteOffset": 18408,
      "target": 34962
    },
    {
      "buffer": 0,
      "byteLength": 4680,
      "byteOffset": 24544,
      "target": 34963
    },
    {
      "buffer": 0,
      "byteLength": 896,
      "byteOffset": 29224
    }
  ],
  "buffers": [
    {
      "byteLength": 30120,
      "uri": "data:application/octet-stream;base64,"
    }
  ],
  "materials": [
    {
      "name": "default",
      "pbrMetallicRoughness": {
        "baseColorFactor": [
          0.8,
          0.8,
          0.8,
          1.0
        ],
        "metallicFactor": 0.0,
        "roughnessFactor": 0.8
      }
    }
  ],
  "meshes": [
    {
      "name": "hair_6_1",
      "primitives": [
        {
          "attributes": {
            "NORMAL": 1,
            "POSITION": 0,
            "TEXCOORD_0": 2
          },
          "indices": 3,
          "material": 0,
          "mode": 4
        }
      ]
    }
  ],
  "nodes": [
    {
      "children": [
        1,
        2
      ]
    },
    {
      "mesh": 0,
      "name": "hair_6_1",
      "skin": 0
    },
    {
      "children": [
        3
      ],
      "name": "Bip01",
      "rotation": [
        0.0,
        0.0,
        0.0,
        0.9999999403953552
      ],
      "scale": [
        0.9999997615814209,
        -5.117093408073606e-14,
        0.0
      ],
      "translation": [
        5.960464477539063e-08,
        -7.105427357601002e-14,
        0.0
      ]
    },
    {
      "children": [
        4
      ],
      "name": "Bip01 Pelvis",
      "rotation": [
        -0.4999993145465851,
        -0.5,
        -0.5,
        0.5000006556510925
      ],
      "scale": [
        1.0,
        6.755036055564761e-20,
        -2.6671148450016795e-18
      ],
      "translation": [
        0.9087953567504883,
        2.7000623958883807e-13,
        0.0
      ]
    },
    {
      "children": [
        5
      ],
      "name": "Bip01 Spine",
      "rotation": [
        -2.0994200440327404e-06,
        -7.13202211954922e-07,
        0.02897808514535427,
        0.9995800256729126
      ],
      "scale": [
        1.0000001192092896,
        -3.724561326023945e-09,
        -1.6604279800061517e-13
      ],
      "translation": [
        6.193992614746094,
        -0.009989559650421143,
        8.603674359619617e-06
      ]
    },
    {
      "children": [
        6
      ],
      "name": "Bip01 Spine1",
      "rotation": [
        3.2099401126505986e-14,
        2.445134725803655e-07,
        -0.08815741539001465,
        0.9961065649986267
      ],
      "scale": [
        1.0,
        -1.0468244937555937e-08,
        -3.4335168307706235e-14
      ],
      "translation": [
        12.570350646972656,
        -0.0077838897705078125,
        -2.1591404220089316e-08
      ]
    },
    {
      "children": [
        7
      ],
      "name": "Bip01 Spine2",
      "rotation": [
        4.449198103581402e-15,
        1.693988309625638e-07,
        -0.06107543781399727,
        0.9981331825256348
      ],
      "scale": [
        1.0,
        6.9974137161671335e-15,
        -1.540582169213406e-14
      ],
      "translation": [
        9.930061340332031,
        -0.012085914611816406,
        -3.352033672854304e-08
      ]
    },
    {
      "children": [
        8
      ],
      "name": "Bip01 Neck",
      "rotation": [
        5.88924118890069e-14,
        -7.252514251376851e-07,
        0.2614837884902954,
        0.9652078747749329
      ],
      "scale": [
        1.000000238418579,
        -3.008731042086765e-08,
        -2.589480279507894e-13
      ],
      "translation": [
        18.59966278076172,
        -1.1482963562011719,
        -1.1849188013002276e-06
      ]
    },
    {
      "children": [
        9,
        15
      ],
      "name": "Bip01 Head",
      "rotation": [
        -5.553072192750414e-15,
        -7.36333731765626e-08,
        0.026547251269221306,
        0.9996475577354431
      ],
      "scale": [
        0.9999998807907104,
        6.268419383559376e-08,
        2.9831665566623644e-13
      ],
      "translation": [
        8.269378662109375,
        -3.814697265625e-06,
        0.0
      ]
    },
    {
      "children": [
        10
      ],
      "name": "Bip01 Ponytail1",
      "rotation": [
        1.8407369812428742e-12,
        -2.772950665530516e-06,
        0.9997656941413879,
        -0.021647075191140175
      ],
      "scale": [
        0.9999997615814209,
        -2.955201083842951e-10,
        6.406047838459356e-14
      ],
      "translation": [
        6.120635986328125,
        -6.112083435058594,
        -1.6952501027844846e-05
      ]
    },
    {
      "children": [
        11
      ],
      "name": "Bip01 Ponytail11",
      "rotation": [
        3.33142134501175e-16,
        -5.8934414681743874e-08,
        0.021248353645205498,
        0.9997742176055908
      ],
      "scale": [
        1.0000001192092896,
        1.3429316547686199e-09,
        2.432635934053809e-14
      ],
      "translation": [
        11.2379150390625,
        -0.00894927978515625,
        -2.4811015464365482e-08
      ]
    },
    {
      "children": [
        12
      ],
      "name": "Bip01 Ponytail12",
      "rotation": [
        -7.12093890255748e-14,
        1.8297039616754773e-07,
        -0.06596855074167252,
        0.9978216886520386
      ],
      "scale": [
        1.0,
        -7.84692488764449e-09,
        -2.725377635701652e-14
      ],
      "translation": [
        11.236328125,
        -0.0088653564453125,
        -2.459273673593998e-08
      ]
    },
    {
      "children": [
        13
      ],
      "name": "Bip01 Ponytail13",
      "rotation": [
        1.2105595660009266e-13,
        1.829704530109666e-07,
        -0.06596856564283371,
        0.9978216886520386
      ],
      "scale": [
        0.9999999403953552,
        -6.924521400719641e-09,
        -8.068833145039034e-14
      ],
      "translation": [
        11.236343383789063,
        -0.00887298583984375,
        -2.4607288651168346e-08
      ]
    },
    {
      "children": [
        14
      ],
      "name": "Bip01 Ponytail14",
      "rotation": [
        -8.901173839955087e-16,
        1.8297039616754773e-07,
        -0.06596855819225311,
        0.9978216886520386
      ],
      "scale": [
        1.0000001192092896,
        -9.223946606518041e-10,
        -2.689405671091067e-14
      ],
      "translation": [
        11.236343383789063,
        -0.00887298583984375,
        -2.4607288651168346e-08
      ]
    },
    {
      "name": "Bip01 Ponytail1Nub",
      "rotation": [
        0.7073882222175598,
        0.7068251967430115,
        9.80225195235107e-07,
        -9.810059964365792e-07
      ],
      "scale": [
        1.0,
        3.670962839263936e-11,
        -5.371667195254448e-13
      ],
      "translation": [
        11.237533569335938,
        1.9073486328125e-06,
        7.275957614183426e-12
      ]
    },
    {
      "name": "Bip01 HeadNub",
      "rotation": [
        -6.394884621840902e-14,
        -2.842170943040401e-14,
        -2.0194839173657902e-27,
        1.0
      ],
      "scale": [
        0.9999999403953552,
        -6.462348535570529e-27,
        5.684341886080802e-14
      ],
      "translation": [
        20.161117553710938,
        -3.814697265625e-06,
        0.0
      ]
    }
  ],
  "scene": 0,
  "scenes": [
    {
      "nodes": [
        0
      ]
    }
  ],
  "skins": [
    {
      "inverseBindMatrices": 4,
      "joints": [
        2,
        3,
        4,
        5,
        6,
        7,
        8,
        9,
        10,
        11,
        12,
        13,
        14,
        15
      ],
      "skeleton": 2
    }
  ]
}
