{
  "accessors": [
    {
      "bufferView": 0,
      "componentType": 5126,
      "count": 446,
      "max": [
        191.04002380371094,
        190.5958251953125,
        191.04354858398438
      ],
      "min": [
        -12.744805335998535,
        -12.394838333129883,
        -11.677325248718262
      ],
      "type": "VEC3"
    },
    {
      "bufferView": 1,
      "componentType": 5126,
      "count": 446,
      "type": "VEC3"
    },
    {
      "bufferView": 2,
      "componentType": 5126,
      "count": 446,
      "type": "VEC2"
    },
    {
      "bufferView": 3,
      "componentType": 5123,
      "count": 2031,
      "type": "SCALAR"
    },
    {
      "bufferView": 4,
      "componentType": 5126,
      "count": 12,
      "type": "MAT4"
    }
  ],
  "asset": {
    "generator": "gr2togltf (ANKA2 Project)",
    "version": "2.0"
  },
  "bufferViews": [
    {
      "buffer": 0,
      "byteLength": 5352,
      "target": 34962
    },
    {
      "buffer": 0,
      "byteLength": 5352,
      "byteOffset": 5352,
      "target": 34962
    },
    {
      "buffer": 0,
      "byteLength": 3568,
      "byteOffset": 10704,
      "target": 34962
    },
    {
      "buffer": 0,
      "byteLength": 4062,
      "byteOffset": 14272,
      "target": 34963
    },
    {
      "buffer": 0,
      "byteLength": 768,
      "byteOffset": 18334
    }
  ],
  "buffers": [
    {
      "byteLength": 19102,
      "uri": "data:application/octet-stream;base64,"
    }
  ],
  "materials": [
    {
      "name": "default",
      "pbrMetallicRoughness": {
        "baseColorFactor": [
          0.8,
          0.8,
          0.8,
          1.0
        ],
        "metallicFactor": 0.0,
        "roughnessFactor": 0.8
      }
    }
  ],
  "meshes": [
    {
      "name": "hair_43_1",
      "primitives": [
        {
          "attributes": {
            "NORMAL": 1,
            "POSITION": 0,
            "TEXCOORD_0": 2
          },
          "indices": 3,
          "material": 0,
          "mode": 4
        }
      ]
    }
  ],
  "nodes": [
    {
      "children": [
        1,
        2
      ]
    },
    {
      "mesh": 0,
      "name": "hair_43_1",
      "skin": 0
    },
    {
      "children": [
        3
      ],
      "name": "Bip01",
      "rotation": [
        0.0,
        0.0,
        0.0,
        0.9999999403953552
      ],
      "scale": [
        0.9999997615814209,
        -5.117093408073606e-14,
        0.0
      ],
      "translation": [
        5.960464477539063e-08,
        -7.105427357601002e-14,
        0.0
      ]
    },
    {
      "children": [
        4
      ],
      "name": "Bip01 Pelvis",
      "rotation": [
        -0.4999993145465851,
        -0.5,
        -0.5,
        0.5000006556510925
      ],
      "scale": [
        1.0,
        6.755036055564761e-20,
        -2.6671148450016795e-18
      ],
      "translation": [
        0.9087960720062256,
        -7.105427357601002e-14,
        0.0
      ]
    },
    {
      "children": [
        5
      ],
      "name": "Bip01 Spine",
      "rotation": [
        -2.0994200440327404e-06,
        -7.13202211954922e-07,
        0.02897808514535427,
        0.9995800256729126
      ],
      "scale": [
        1.0000001192092896,
        -3.724561326023945e-09,
        -1.6604279800061517e-13
      ],
      "translation": [
        6.193992614746094,
        -0.009989559650421143,
        8.603674359619617e-06
      ]
    },
    {
      "children": [
        6
      ],
      "name": "Bip01 Spine1",
      "rotation": [
        3.2099401126505986e-14,
        2.445134725803655e-07,
        -0.08815741539001465,
        0.9961065649986267
      ],
      "scale": [
        1.0,
        -1.0468244937555937e-08,
        -3.4335168307706235e-14
      ],
      "translation": [
        12.570350646972656,
        -0.0077838897705078125,
        -2.1591404220089316e-08
      ]
    },
    {
      "children": [
        7
      ],
      "name": "Bip01 Spine2",
      "rotation": [
        3.559358652271711e-15,
        1.693989304385468e-07,
        -0.061075467616319656,
        0.9981331825256348
      ],
      "scale": [
        1.0,
        6.99740863396945e-15,
        -1.902568475486109e-14
      ],
      "translation": [
        9.930061340332031,
        -0.0120849609375,
        -3.352033672854304e-08
      ]
    },
    {
      "children": [
        8
      ],
      "name": "Bip01 Neck",
      "rotation": [
        5.889240511274332e-14,
        -7.252509135469154e-07,
        0.2614835798740387,
        0.9652079343795776
      ],
      "scale": [
        1.0000003576278687,
        2.6158426535971557e-08,
        -7.844087521451798e-14
      ],
      "translation": [
        18.59967803955078,
        -1.148294448852539,
        -1.1849188013002276e-06
      ]
    },
    {
      "children": [
        9
      ],
      "name": "Bip01 Head",
      "rotation": [
        -3.487329511536047e-14,
        -7.363405529758893e-08,
        0.026547500863671303,
        0.9996475577354431
      ],
      "scale": [
        0.9999995827674866,
        1.7508204608329692e-10,
        6.670162875808613e-14
      ],
      "translation": [
        8.269378662109375,
        0.0,
        0.0
      ]
    },
    {
      "children": [
        10
      ],
      "name": "Bip01 Ponytail1",
      "rotation": [
        1.847844143323951e-12,
        -2.772950665530516e-06,
        0.9997656941413879,
        -0.021647104993462563
      ],
      "scale": [
        0.9999997615814209,
        -2.955307665253315e-10,
        1.2464477421123693e-13
      ],
      "translation": [
        6.120635986328125,
        -6.112083435058594,
        -1.6952501027844846e-05
      ]
    },
    {
      "children": [
        11
      ],
      "name": "Bip01 Ponytail11",
      "rotation": [
        1.1371250620804962e-13,
        -5.89345781065731e-08,
        0.021248385310173035,
        0.9997742176055908
      ],
      "scale": [
        1.0,
        2.5324327079800923e-09,
        -1.147116052862586e-14
      ],
      "translation": [
        11.2379150390625,
        -0.008941650390625,
        -2.4796463549137115e-08
      ]
    },
    {
      "children": [
        12
      ],
      "name": "Bip01 Ponytail12",
      "rotation": [
        -6.052797830004633e-14,
        1.8297039616754773e-07,
        -0.0659685805439949,
        0.9978216886520386
      ],
      "scale": [
        1.0,
        -7.84692844035817e-09,
        -1.0461383414270622e-13
      ],
      "translation": [
        11.236335754394531,
        -0.0088653564453125,
        -2.4578184820711613e-08
      ]
    },
    {
      "children": [
        13
      ],
      "name": "Bip01 Ponytail13",
      "rotation": [
        2.2787005030285024e-13,
        1.8297033932412887e-07,
        -0.06596853584051132,
        0.9978216886520386
      ],
      "scale": [
        1.0,
        8.814569591537782e-15,
        -1.622900727379136e-14
      ],
      "translation": [
        11.236358642578125,
        -0.00887298583984375,
        -2.459273673593998e-08
      ]
    },
    {
      "name": "Bip01 Ponytail14",
      "rotation": [
        1.1215478551299465e-13,
        1.8297042458925716e-07,
        -0.06596856564283371,
        0.9978216886520386
      ],
      "scale": [
        1.0,
        8.814703422743448e-15,
        -1.4163331084663354e-15
      ],
      "translation": [
        11.236343383789063,
        -0.008869171142578125,
        -2.4607288651168346e-08
      ]
    }
  ],
  "scene": 0,
  "scenes": [
    {
      "nodes": [
        0
      ]
    }
  ],
  "skins": [
    {
      "inverseBindMatrices": 4,
      "joints": [
        2,
        3,
        4,
        5,
        6,
        7,
        8,
        9,
        10,
        11,
        12,
        13
      ],
      "skeleton": 2
    }
  ]
}
