{
  "accessors": [
    {
      "bufferView": 0,
      "componentType": 5126,
      "count": 588,
      "max": [
        13.389570236206055,
        14.421382904052734,
        174.81454467773438
      ],
      "min": [
        -13.389568328857422,
        -11.644529342651367,
        145.9596710205078
      ],
      "type": "VEC3"
    },
    {
      "bufferView": 1,
      "componentType": 5126,
      "count": 588,
      "type": "VEC3"
    },
    {
      "bufferView": 2,
      "componentType": 5126,
      "count": 588,
      "type": "VEC2"
    },
    {
      "bufferView": 3,
      "componentType": 5123,
      "count": 2268,
      "type": "SCALAR"
    },
    {
      "bufferView": 4,
      "componentType": 5126,
      "count": 12,
      "type": "MAT4"
    }
  ],
  "asset": {
    "generator": "gr2togltf (ANKA2 Project)",
    "version": "2.0"
  },
  "bufferViews": [
    {
      "buffer": 0,
      "byteLength": 7056,
      "target": 34962
    },
    {
      "buffer": 0,
      "byteLength": 7056,
      "byteOffset": 7056,
      "target": 34962
    },
    {
      "buffer": 0,
      "byteLength": 4704,
      "byteOffset": 14112,
      "target": 34962
    },
    {
      "buffer": 0,
      "byteLength": 4536,
      "byteOffset": 18816,
      "target": 34963
    },
    {
      "buffer": 0,
      "byteLength": 768,
      "byteOffset": 23352
    }
  ],
  "buffers": [
    {
      "byteLength": 24120,
      "uri": "data:application/octet-stream;base64,"
    }
  ],
  "materials": [
    {
      "name": "default",
      "pbrMetallicRoughness": {
        "baseColorFactor": [
          0.8,
          0.8,
          0.8,
          1.0
        ],
        "metallicFactor": 0.0,
        "roughnessFactor": 0.8
      }
    }
  ],
  "meshes": [
    {
      "name": "hair_96",
      "primitives": [
        {
          "attributes": {
            "NORMAL": 1,
            "POSITION": 0,
            "TEXCOORD_0": 2
          },
          "indices": 3,
          "material": 0,
          "mode": 4
        }
      ]
    }
  ],
  "nodes": [
    {
      "children": [
        1,
        2
      ]
    },
    {
      "mesh": 0,
      "name": "hair_96",
      "skin": 0
    },
    {
      "children": [
        3
      ],
      "name": "Bip01",
      "rotation": [
        0.0,
        0.0,
        0.0,
        1.0000001192092896
      ],
      "scale": [
        1.0,
        0.0,
        0.0
      ],
      "translation": [
        2.86102294921875e-06,
        1.8189894035458565e-12,
        0.0
      ]
    },
    {
      "children": [
        4
      ],
      "name": "Bip01 Pelvis",
      "rotation": [
        -0.499999463558197,
        -0.5000001788139343,
        -0.5000001788139343,
        0.500000536441803
      ],
      "scale": [
        1.0,
        0.0,
        0.0
      ],
      "translation": [
        12.646028518676758,
        2.0000020413135644e-06,
        0.0
      ]
    },
    {
      "children": [
        5
      ],
      "name": "Bip01 Spine",
      "rotation": [
        -2.0994200440327404e-06,
        -7.132022687983408e-07,
        0.02897809073328972,
        0.9995800852775574
      ],
      "scale": [
        1.0,
        -5.52744438761521e-12,
        0.0
      ],
      "translation": [
        6.193992614746094,
        -0.009989559650421143,
        8.603674359619617e-06
      ]
    },
    {
      "children": [
        6
      ],
      "name": "Bip01 Spine1",
      "rotation": [
        3.20993977383742e-14,
        2.4451341573694663e-07,
        -0.08815741539001465,
        0.9961065649986267
      ],
      "scale": [
        1.0,
        -1.4901139877565583e-08,
        -5.684341886080802e-14
      ],
      "translation": [
        12.570350646972656,
        -0.0077838897705078125,
        -2.1591404220089316e-08
      ]
    },
    {
      "children": [
        7
      ],
      "name": "Bip01 Spine2",
      "rotation": [
        4.449197680064928e-15,
        1.693989162276921e-07,
        -0.061075467616319656,
        0.9981331825256348
      ],
      "scale": [
        1.0,
        6.99740863396945e-15,
        -2.842170943040401e-14
      ],
      "translation": [
        9.930061340332031,
        -0.012085914611816406,
        -3.352033672854304e-08
      ]
    },
    {
      "children": [
        8
      ],
      "name": "Bip01 Neck",
      "rotation": [
        2.944620255637166e-14,
        -7.252509135469154e-07,
        0.2614835798740387,
        0.9652079343795776
      ],
      "scale": [
        1.0000003576278687,
        -5.310076380340978e-13,
        0.0
      ],
      "translation": [
        18.59967803955078,
        -1.1482963562011719,
        -1.1849115253426135e-06
      ]
    },
    {
      "children": [
        9
      ],
      "name": "Bip01 Head",
      "rotation": [
        -6.219441059168371e-15,
        -7.363406950844364e-08,
        0.0265475045889616,
        0.9996475577354431
      ],
      "scale": [
        0.9999995827674866,
        -5.757036773537184e-16,
        5.684341886080802e-14
      ],
      "translation": [
        8.269378662109375,
        0.0,
        0.0
      ]
    },
    {
      "children": [
        10
      ],
      "name": "Bip01 Ponytail1",
      "rotation": [
        1.9189151136134175e-12,
        -2.7729508929041913e-06,
        0.9997656941413879,
        -0.021646926179528236
      ],
      "scale": [
        0.9999998807907104,
        6.65617571910665e-13,
        4.263256414560601e-14
      ],
      "translation": [
        6.120635986328125,
        -6.112079620361328,
        -1.6952486475929618e-05
      ]
    },
    {
      "children": [
        11
      ],
      "name": "Bip01 Ponytail11",
      "rotation": [
        6.496271077495452e-14,
        -5.8933963487106666e-08,
        0.021248171105980873,
        0.9997742772102356
      ],
      "scale": [
        1.000000238418579,
        -2.950556686047998e-16,
        8.526512829121202e-14
      ],
      "translation": [
        11.237899780273438,
        -0.008941650390625,
        -2.4796463549137115e-08
      ]
    },
    {
      "children": [
        12
      ],
      "name": "Bip01 Ponytail12",
      "rotation": [
        1.246164358769536e-13,
        1.8297042458925716e-07,
        -0.06596856564283371,
        0.9978216886520386
      ],
      "scale": [
        0.9999999403953552,
        1.4901170075631853e-08,
        -1.4210854715202004e-13
      ],
      "translation": [
        11.236351013183594,
        -0.0088653564453125,
        -2.4607288651168346e-08
      ]
    },
    {
      "children": [
        13
      ],
      "name": "Bip01 Ponytail13",
      "rotation": [
        -1.2372631944587015e-13,
        1.8297033932412887e-07,
        -0.06596853584051132,
        0.9978216886520386
      ],
      "scale": [
        1.0,
        8.814910098782578e-15,
        1.1368683772161603e-13
      ],
      "translation": [
        11.236358642578125,
        -0.008876800537109375,
        -2.4621840566396713e-08
      ]
    },
    {
      "name": "Bip01 Ponytail14",
      "rotation": [
        0.0,
        1.8297042458925716e-07,
        -0.06596855819225311,
        0.9978216886520386
      ],
      "scale": [
        1.0,
        8.814843183179745e-15,
        -5.684341886080802e-14
      ],
      "translation": [
        11.236343383789063,
        -0.008869171142578125,
        -2.4600012693554163e-08
      ]
    }
  ],
  "scene": 0,
  "scenes": [
    {
      "nodes": [
        0
      ]
    }
  ],
  "skins": [
    {
      "inverseBindMatrices": 4,
      "joints": [
        2,
        3,
        4,
        5,
        6,
        7,
        8,
        9,
        10,
        11,
        12,
        13
      ],
      "skeleton": 2
    }
  ]
}
