{
  "accessors": [
    {
      "bufferView": 0,
      "componentType": 5126,
      "count": 209,
      "max": [
        167.13046264648438,
        167.55531311035156,
        165.97206115722656
      ],
      "min": [
        -10.77410888671875,
        -10.528661727905273,
        -11.334317207336426
      ],
      "type": "VEC3"
    },
    {
      "bufferView": 1,
      "componentType": 5126,
      "count": 209,
      "type": "VEC3"
    },
    {
      "bufferView": 2,
      "componentType": 5126,
      "count": 209,
      "type": "VEC2"
    },
    {
      "bufferView": 3,
      "componentType": 5123,
      "count": 1032,
      "type": "SCALAR"
    },
    {
      "bufferView": 4,
      "componentType": 5126,
      "count": 17,
      "type": "MAT4"
    }
  ],
  "asset": {
    "generator": "gr2togltf (ANKA2 Project)",
    "version": "2.0"
  },
  "bufferViews": [
    {
      "buffer": 0,
      "byteLength": 2508,
      "target": 34962
    },
    {
      "buffer": 0,
      "byteLength": 2508,
      "byteOffset": 2508,
      "target": 34962
    },
    {
      "buffer": 0,
      "byteLength": 1672,
      "byteOffset": 5016,
      "target": 34962
    },
    {
      "buffer": 0,
      "byteLength": 2064,
      "byteOffset": 6688,
      "target": 34963
    },
    {
      "buffer": 0,
      "byteLength": 1088,
      "byteOffset": 8752
    }
  ],
  "buffers": [
    {
      "byteLength": 9840,
      "uri": "data:application/octet-stream;base64,"
    }
  ],
  "materials": [
    {
      "name": "default",
      "pbrMetallicRoughness": {
        "baseColorFactor": [
          0.8,
          0.8,
          0.8,
          1.0
        ],
        "metallicFactor": 0.0,
        "roughnessFactor": 0.8
      }
    }
  ],
  "meshes": [
    {
      "name": "hair_57_1",
      "primitives": [
        {
          "attributes": {
            "NORMAL": 1,
            "POSITION": 0,
            "TEXCOORD_0": 2
          },
          "indices": 3,
          "material": 0,
          "mode": 4
        }
      ]
    }
  ],
  "nodes": [
    {
      "children": [
        1,
        2
      ]
    },
    {
      "mesh": 0,
      "name": "hair_57_1",
      "skin": 0
    },
    {
      "children": [
        3
      ],
      "name": "Bip01",
      "rotation": [
        0.0,
        0.0,
        0.0,
        0.9999999403953552
      ],
      "scale": [
        0.9999997615814209,
        -5.117093408073606e-14,
        0.0
      ],
      "translation": [
        0.0,
        1.862645149230957e-09,
        0.0
      ]
    },
    {
      "children": [
        4
      ],
      "name": "Bip01 Pelvis",
      "rotation": [
        -0.4999993145465851,
        -0.5,
        -0.5,
        0.5000006556510925
      ],
      "scale": [
        1.0,
        6.755036055564761e-20,
        -2.6671148450016795e-18
      ],
      "translation": [
        -0.43055498600006104,
        -0.013545999303460121,
        0.0
      ]
    },
    {
      "children": [
        5
      ],
      "name": "Bip01 Spine",
      "rotation": [
        2.198597258029622e-06,
        0.0004582926048897207,
        -0.008512730710208416,
        0.999963641166687
      ],
      "scale": [
        1.0000001192092896,
        1.6053518514524967e-09,
        4.059790351118586e-11
      ],
      "translation": [
        9.231704711914063,
        -0.0066817449405789375,
        1.2809410691261292e-05
      ]
    },
    {
      "children": [
        6
      ],
      "name": "Bip01 Spine1",
      "rotation": [
        6.106153451791718e-14,
        -5.820778081755407e-09,
        0.0020979992114007473,
        0.9999977946281433
      ],
      "scale": [
        0.9999999403953552,
        -2.501004403576701e-10,
        5.820904175335428e-11
      ],
      "translation": [
        8.398162841796875,
        -0.010102272033691406,
        -2.2351741790771484e-08
      ]
    },
    {
      "children": [
        7
      ],
      "name": "Bip01 Spine2",
      "rotation": [
        3.586395286650501e-12,
        9.605644635257704e-08,
        -0.03463057801127434,
        0.9994001984596252
      ],
      "scale": [
        0.9999999403953552,
        4.1258116922904264e-09,
        2.9037402690668124e-11
      ],
      "translation": [
        12.686180114746094,
        -0.010077595710754395,
        -1.4901161193847656e-08
      ]
    },
    {
      "children": [
        8,
        9,
        14
      ],
      "name": "Bip01 Neck",
      "rotation": [
        -3.473228571237996e-05,
        -0.0004580979875754565,
        0.13992176949977875,
        0.9901624321937561
      ],
      "scale": [
        0.9999998807907104,
        1.4035803985734674e-07,
        9.231966657807789e-08
      ],
      "translation": [
        14.33416748046875,
        -3.4407691955566406,
        -3.1366944313049316e-06
      ]
    },
    {
      "name": "Bip01 Head",
      "rotation": [
        -1.5619374948983022e-07,
        3.534524850579146e-08,
        0.009768322110176086,
        0.9999522566795349
      ],
      "scale": [
        1.000000238418579,
        -1.6108998579511535e-07,
        -9.256437749627366e-08
      ],
      "translation": [
        8.948715209960938,
        -1.9073486328125e-06,
        0.0
      ]
    },
    {
      "children": [
        10
      ],
      "name": "Bip01 R Clavicle",
      "rotation": [
        -0.5792272090911865,
        0.08922632783651352,
        0.8029547333717346,
        0.10861966758966446
      ],
      "scale": [
        1.0000004768371582,
        -4.281842080899878e-08,
        -1.6650460565870162e-07
      ],
      "translation": [
        -1.067474365234375,
        1.08306884765625,
        -2.8085217475891113
      ]
    },
    {
      "children": [
        11
      ],
      "name": "Bip01 R UpperArm",
      "rotation": [
        -0.041233353316783905,
        -0.11716548353433609,
        0.0096023203805089,
        0.9922095537185669
      ],
      "scale": [
        1.0,
        1.3707346369074003e-10,
        -9.792978872269487e-09
      ],
      "translation": [
        11.362140655517578,
        -4.76837158203125e-07,
        -1.52587890625e-05
      ]
    },
    {
      "children": [
        12
      ],
      "name": "Bip01 R ForeArm",
      "rotation": [
        6.410615371876816e-10,
        2.444753714452171e-15,
        -0.043017107993364334,
        0.9990743398666382
      ],
      "scale": [
        1.0000001192092896,
        0.0,
        -2.9747166507831935e-08
      ],
      "translation": [
        24.08300018310547,
        -2.384185791015625e-07,
        0.0
      ]
    },
    {
      "children": [
        13
      ],
      "name": "Bip01 R Hand",
      "rotation": [
        0.7058847546577454,
        0.036477863788604736,
        -0.036448825150728226,
        0.7064471244812012
      ],
      "scale": [
        1.0,
        7.194338458305083e-09,
        -4.697594313540776e-09
      ],
      "translation": [
        24.082996368408203,
        4.76837158203125e-07,
        0.0
      ]
    },
    {
      "name": "equip_right",
      "rotation": [
        7.953498766255507e-07,
        8.740463499634643e-07,
        -2.1606685152164573e-07,
        1.0
      ],
      "scale": [
        1.000000238418579,
        -1.490233891843218e-08,
        -2.5146670523668035e-08
      ],
      "translation": [
        4.544063568115234,
        -0.03719329833984375,
        0.029287338256835938
      ]
    },
    {
      "children": [
        15
      ],
      "name": "Bip01 L Clavicle",
      "rotation": [
        0.5799686312675476,
        -0.08928920328617096,
        0.8024171590805054,
        0.1085839793086052
      ],
      "scale": [
        1.0000005960464478,
        2.2543934719010394e-08,
        1.2659322479180446e-08
      ],
      "translation": [
        -1.0624542236328125,
        1.081949234008789,
        2.8108510971069336
      ]
    },
    {
      "children": [
        16
      ],
      "name": "Bip01 L UpperArm",
      "rotation": [
        0.041231438517570496,
        0.11807678639888763,
        0.00962535385042429,
        0.9921014308929443
      ],
      "scale": [
        1.0,
        -3.4518038427577835e-10,
        7.065376905757148e-08
      ],
      "translation": [
        11.362140655517578,
        9.5367431640625e-07,
        0.0
      ]
    },
    {
      "children": [
        17
      ],
      "name": "Bip01 L ForeArm",
      "rotation": [
        -6.409479058611112e-10,
        2.444753714452171e-15,
        -0.043017104268074036,
        0.9990743398666382
      ],
      "scale": [
        1.0000001192092896,
        2.2997146409409197e-09,
        2.9747187824114008e-08
      ],
      "translation": [
        24.08300018310547,
        0.0,
        0.0
      ]
    },
    {
      "children": [
        18
      ],
      "name": "Bip01 L Hand",
      "rotation": [
        -0.7058847546577454,
        -0.036477863788604736,
        -0.03644883632659912,
        0.7064471244812012
      ],
      "scale": [
        1.0,
        -7.634824328306422e-09,
        -1.0802878591675835e-09
      ],
      "translation": [
        24.082996368408203,
        -4.76837158203125e-07,
        0.0
      ]
    },
    {
      "name": "equip_left",
      "rotation": [
        -5.206095465837279e-07,
        -1.1199158507224638e-06,
        2.2351748896198842e-08,
        1.0
      ],
      "scale": [
        0.9999998807907104,
        7.450457673030542e-08,
        3.0733303901797626e-08
      ],
      "translation": [
        4.716060638427734,
        -0.0486907958984375,
        -0.28772592544555664
      ]
    }
  ],
  "scene": 0,
  "scenes": [
    {
      "nodes": [
        0
      ]
    }
  ],
  "skins": [
    {
      "inverseBindMatrices": 4,
      "joints": [
        2,
        3,
        4,
        5,
        6,
        7,
        8,
        9,
        10,
        11,
        12,
        13,
        14,
        15,
        16,
        17,
        18
      ],
      "skeleton": 2
    }
  ]
}
