{
  "accessors": [
    {
      "bufferView": 0,
      "componentType": 5126,
      "count": 388,
      "max": [
        19.914649963378906,
        12.230504989624023,
        175.4267120361328
      ],
      "min": [
        -19.914648056030273,
        -32.65877151489258,
        142.39080810546875
      ],
      "type": "VEC3"
    },
    {
      "bufferView": 1,
      "componentType": 5126,
      "count": 388,
      "type": "VEC3"
    },
    {
      "bufferView": 2,
      "componentType": 5126,
      "count": 388,
      "type": "VEC2"
    },
    {
      "bufferView": 3,
      "componentType": 5123,
      "count": 1584,
      "type": "SCALAR"
    },
    {
      "bufferView": 4,
      "componentType": 5126,
      "count": 76,
      "type": "MAT4"
    }
  ],
  "asset": {
    "generator": "gr2togltf (ANKA2 Project)",
    "version": "2.0"
  },
  "bufferViews": [
    {
      "buffer": 0,
      "byteLength": 4656,
      "target": 34962
    },
    {
      "buffer": 0,
      "byteLength": 4656,
      "byteOffset": 4656,
      "target": 34962
    },
    {
      "buffer": 0,
      "byteLength": 3104,
      "byteOffset": 9312,
      "target": 34962
    },
    {
      "buffer": 0,
      "byteLength": 3168,
      "byteOffset": 12416,
      "target": 34963
    },
    {
      "buffer": 0,
      "byteLength": 4864,
      "byteOffset": 15584
    }
  ],
  "buffers": [
    {
      "byteLength": 20448,
      "uri": "data:application/octet-stream;base64,"
    }
  ],
  "materials": [
    {
      "name": "default",
      "pbrMetallicRoughness": {
        "baseColorFactor": [
          0.8,
          0.8,
          0.8,
          1.0
        ],
        "metallicFactor": 0.0,
        "roughnessFactor": 0.8
      }
    }
  ],
  "meshes": [
    {
      "name": "hair_67_1",
      "primitives": [
        {
          "attributes": {
            "NORMAL": 1,
            "POSITION": 0,
            "TEXCOORD_0": 2
          },
          "indices": 3,
          "material": 0,
          "mode": 4
        }
      ]
    }
  ],
  "nodes": [
    {
      "children": [
        1,
        2
      ]
    },
    {
      "mesh": 0,
      "name": "hair_67_1",
      "skin": 0
    },
    {
      "children": [
        3
      ],
      "name": "Bip01",
      "rotation": [
        0.0,
        0.0,
        0.0,
        1.0000001192092896
      ],
      "scale": [
        1.0,
        0.0,
        0.0
      ],
      "translation": [
        7.275957614183426e-12,
        -1.3969838619232178e-09,
        0.0
      ]
    },
    {
      "children": [
        4
      ],
      "name": "Bip01 Pelvis",
      "rotation": [
        -0.499999463558197,
        -0.5000001788139343,
        -0.5000001788139343,
        0.500000536441803
      ],
      "scale": [
        1.0,
        0.0,
        0.0
      ],
      "translation": [
        3.60000049113296e-05,
        1.000240445137024e-06,
        0.0
      ]
    },
    {
      "children": [
        5,
        6,
        9,
        21,
        23,
        24,
        25
      ],
      "name": "Bip01 Spine",
      "rotation": [
        2.1985958937875694e-06,
        0.0004582926630973816,
        -0.008512727916240692,
        0.9999637603759766
      ],
      "scale": [
        1.0,
        1.2589018716369083e-09,
        1.1641532182693481e-10
      ],
      "translation": [
        9.231704711914063,
        -0.0066817449405789375,
        1.2808945029973984e-05
      ]
    },
    {
      "children": [
        8
      ],
      "name": "Bip01 L Thigh",
      "rotation": [
        -0.0017526185838505626,
        0.9994144439697266,
        0.012854245491325855,
        -0.03166180104017258
      ],
      "scale": [
        0.9999998807907104,
        1.6298145055770874e-09,
        0.0
      ],
      "translation": [
        -9.237846374511719,
        -0.15049993991851807,
        8.019189834594727
      ]
    },
    {
      "children": [
        7
      ],
      "name": "Bip01 R Thigh",
      "rotation": [
        -0.001740752486512065,
        0.9993849992752075,
        -0.012853805907070637,
        0.032579340040683746
      ],
      "scale": [
        0.9999999403953552,
        2.3283064365386963e-09,
        -1.4901161193847656e-08
      ],
      "translation": [
        -9.223106384277344,
        -0.1504671573638916,
        -8.036136627197266
      ]
    },
    {
      "children": [
        26
      ],
      "name": "Bip01 R Calf",
      "rotation": [
        2.02709002361523e-10,
        6.682723818762781e-11,
        -0.09983331710100174,
        0.9950041770935059
      ],
      "scale": [
        1.0,
        2.9802322387695313e-08,
        1.734609816894661e-10
      ],
      "translation": [
        40.13832473754883,
        1.1920928955078125e-07,
        0.0
      ]
    },
    {
      "children": [
        27
      ],
      "name": "Bip01 L Calf",
      "rotation": [
        8.588251776409095e-10,
        -6.246891892658368e-11,
        -0.09983331710100174,
        0.9950041770935059
      ],
      "scale": [
        1.0000001192092896,
        1.4901161193847656e-08,
        7.497746423723584e-09
      ],
      "translation": [
        40.138336181640625,
        0.0,
        0.0
      ]
    },
    {
      "children": [
        10
      ],
      "name": "Bip01 Spine1",
      "rotation": [
        6.106413660313115e-14,
        -5.8207816344690855e-09,
        0.002098000142723322,
        0.9999977946281433
      ],
      "scale": [
        1.0,
        -1.3969838619232178e-09,
        5.820499637820831e-11
      ],
      "translation": [
        8.398162841796875,
        -0.010102272033691406,
        -2.2351741790771484e-08
      ]
    },
    {
      "children": [
        11,
        42,
        43
      ],
      "name": "Bip01 Spine2",
      "rotation": [
        2.22333414699738e-12,
        9.605654582856005e-08,
        -0.034630581736564636,
        0.9994001984596252
      ],
      "scale": [
        0.9999999403953552,
        7.450581485102248e-09,
        2.90896196020185e-11
      ],
      "translation": [
        12.686180114746094,
        -0.010077714920043945,
        -1.4901161193847656e-08
      ]
    },
    {
      "children": [
        12,
        14,
        20
      ],
      "name": "Bip01 Neck",
      "rotation": [
        -3.473228571237996e-05,
        -0.00045809801667928696,
        0.13992175459861755,
        0.9901624321937561
      ],
      "scale": [
        1.0,
        1.5105504758139432e-07,
        9.231735020875931e-08
      ],
      "translation": [
        14.33416748046875,
        -3.440770149230957,
        -3.129243850708008e-06
      ]
    },
    {
      "children": [
        13,
        16
      ],
      "name": "Bip01 L Clavicle",
      "rotation": [
        0.5799687504768372,
        -0.08928920328617096,
        0.8024172782897949,
        0.10858398675918579
      ],
      "scale": [
        1.0000007152557373,
        1.6763806343078613e-08,
        2.9802322387695313e-08
      ],
      "translation": [
        -1.0624542236328125,
        1.081949234008789,
        2.8108510971069336
      ]
    },
    {
      "children": [
        31
      ],
      "name": "Bone01",
      "rotation": [
        0.7176153063774109,
        -0.16453470289707184,
        0.15742738544940948,
        0.6581589579582214
      ],
      "scale": [
        1.0,
        -2.9802322387695313e-08,
        0.0
      ],
      "translation": [
        5.556034088134766,
        -0.32680320739746094,
        0.830352783203125
      ]
    },
    {
      "children": [
        15,
        18
      ],
      "name": "Bip01 R Clavicle",
      "rotation": [
        -0.5792272090911865,
        0.08922634273767471,
        0.8029548525810242,
        0.10861966758966446
      ],
      "scale": [
        1.0000003576278687,
        -4.470348358154297e-08,
        -1.7881393432617188e-07
      ],
      "translation": [
        -1.067474365234375,
        1.08306884765625,
        -2.8085217475891113
      ]
    },
    {
      "children": [
        32
      ],
      "name": "Bone09",
      "rotation": [
        -0.7176153063774109,
        0.16453255712985992,
        0.15742911398410797,
        0.6581591367721558
      ],
      "scale": [
        1.0000001192092896,
        -2.9802322387695313e-08,
        0.0
      ],
      "translation": [
        5.556022644042969,
        -0.32675743103027344,
        -0.830352783203125
      ]
    },
    {
      "children": [
        17
      ],
      "name": "Bip01 L UpperArm",
      "rotation": [
        0.0412314347922802,
        0.11807679384946823,
        0.009625352919101715,
        0.9921014308929443
      ],
      "scale": [
        1.000000238418579,
        0.0,
        4.470348358154297e-08
      ],
      "translation": [
        11.362140655517578,
        9.5367431640625e-07,
        0.0
      ]
    },
    {
      "children": [
        44
      ],
      "name": "Bip01 L ForeArm",
      "rotation": [
        6.099012961335859e-10,
        -7.48374873182911e-09,
        -0.043017104268074036,
        0.9990743398666382
      ],
      "scale": [
        0.9999998807907104,
        -1.4901161193847656e-08,
        1.490115053570662e-08
      ],
      "translation": [
        24.082992553710938,
        0.0,
        -7.62939453125e-06
      ]
    },
    {
      "children": [
        19
      ],
      "name": "Bip01 R UpperArm",
      "rotation": [
        -0.041233353316783905,
        -0.11716550588607788,
        0.009602321311831474,
        0.9922095537185669
      ],
      "scale": [
        1.000000238418579,
        -1.862645149230957e-09,
        1.4901161193847656e-08
      ],
      "translation": [
        11.362144470214844,
        -9.5367431640625e-07,
        -1.52587890625e-05
      ]
    },
    {
      "children": [
        45
      ],
      "name": "Bip01 R ForeArm",
      "rotation": [
        3.2044566999900326e-10,
        7.4436812269595976e-09,
        -0.043017107993364334,
        0.9990743398666382
      ],
      "scale": [
        0.9999999403953552,
        -7.450580596923828e-09,
        -1.4901170075631853e-08
      ],
      "translation": [
        24.082996368408203,
        -2.384185791015625e-07,
        0.0
      ]
    },
    {
      "children": [
        33,
        38
      ],
      "name": "Bip01 Head",
      "rotation": [
        -1.5619426108059997e-07,
        3.5345355087201824e-08,
        0.00976832490414381,
        0.9999522566795349
      ],
      "scale": [
        1.000000238418579,
        -1.6018745441215287e-07,
        -9.256383037836713e-08
      ],
      "translation": [
        8.948715209960938,
        -1.9073486328125e-06,
        0.0
      ]
    },
    {
      "children": [
        22
      ],
      "name": "B_01",
      "rotation": [
        -0.00044984163832850754,
        9.212751319864765e-05,
        0.9794315695762634,
        -0.2017761915922165
      ],
      "scale": [
        1.0,
        -7.504638688260457e-09,
        -5.820766091346741e-11
      ],
      "translation": [
        5.919456481933594,
        -6.957294464111328,
        -0.0004289969801902771
      ]
    },
    {
      "children": [
        39
      ],
      "name": "B_02",
      "rotation": [
        -1.3010582770921295e-14,
        5.766949176602427e-16,
        -0.08116260915994644,
        0.9967008829116821
      ],
      "scale": [
        1.0,
        -4.1027941160535456e-29,
        -2.9384070995624664e-14
      ],
      "translation": [
        16.875198364257813,
        -0.00030517578125,
        -3.637978807091713e-12
      ]
    },
    {
      "children": [
        29
      ],
      "name": "R_01",
      "rotation": [
        0.13033580780029297,
        0.6949856877326965,
        -0.6926764249801636,
        0.14215120673179626
      ],
      "scale": [
        0.9999999403953552,
        0.0,
        3.3651303965598345e-10
      ],
      "translation": [
        3.7016830444335938,
        0.06956291198730469,
        -10.318808555603027
      ]
    },
    {
      "children": [
        28
      ],
      "name": "L_01",
      "rotation": [
        0.1296996921300888,
        0.6951155662536621,
        0.6927960515022278,
        -0.14151312410831451
      ],
      "scale": [
        0.9999999403953552,
        0.0,
        2.41016095969826e-09
      ],
      "translation": [
        3.6826705932617188,
        0.06954896450042725,
        10.391955375671387
      ]
    },
    {
      "children": [
        30
      ],
      "name": "F_01",
      "rotation": [
        -0.0004580841341521591,
        -3.1571704312227666e-05,
        0.9976655840873718,
        0.06828777492046356
      ],
      "scale": [
        1.0,
        -4.9859423256748414e-09,
        0.0
      ],
      "translation": [
        2.9761505126953125,
        9.141226768493652,
        -0.0031199976801872253
      ]
    },
    {
      "children": [
        40
      ],
      "name": "Bip01 R Foot",
      "rotation": [
        0.06932739913463593,
        0.03842361271381378,
        0.09007489681243896,
        0.9927758574485779
      ],
      "scale": [
        1.0,
        -2.9802322387695313e-08,
        1.4901161193847656e-08
      ],
      "translation": [
        40.13832473754883,
        0.0,
        0.0
      ]
    },
    {
      "children": [
        41
      ],
      "name": "Bip01 L Foot",
      "rotation": [
        -0.06932740658521652,
        -0.038423530757427216,
        0.09007490426301956,
        0.9927758574485779
      ],
      "scale": [
        1.0000001192092896,
        -3.4458935260772705e-08,
        -7.450580596923828e-09
      ],
      "translation": [
        40.13832473754883,
        0.0,
        0.0
      ]
    },
    {
      "children": [
        46
      ],
      "name": "L_02",
      "rotation": [
        -1.5975951098601456e-14,
        7.333080273548922e-16,
        -0.03752870112657547,
        0.9992956519126892
      ],
      "scale": [
        1.0000001192092896,
        -7.450580596923828e-09,
        2.6646960365416764e-16
      ],
      "translation": [
        19.448837280273438,
        3.814697265625e-06,
        0.0
      ]
    },
    {
      "children": [
        47
      ],
      "name": "R_02",
      "rotation": [
        1.6417769624878166e-15,
        -3.4835472976683197e-15,
        -0.03752869740128517,
        0.9992956519126892
      ],
      "scale": [
        1.0000001192092896,
        -7.450580596923828e-09,
        7.371897146543627e-15
      ],
      "translation": [
        19.44884490966797,
        3.814697265625e-06,
        9.094947017729282e-13
      ]
    },
    {
      "children": [
        48
      ],
      "name": "F_02",
      "rotation": [
        6.215533696182687e-15,
        1.4600775426921325e-16,
        0.023484302684664726,
        0.9997242093086243
      ],
      "scale": [
        0.9999999403953552,
        3.725290298461914e-09,
        0.0
      ],
      "translation": [
        19.174598693847656,
        3.814697265625e-06,
        0.0
      ]
    },
    {
      "name": "Bone02",
      "rotation": [
        0.0,
        7.105427357601002e-15,
        0.0,
        1.0
      ],
      "scale": [
        1.0,
        0.0,
        -7.105427357601002e-15
      ],
      "translation": [
        25.6839599609375,
        -1.52587890625e-05,
        -2.384185791015625e-07
      ]
    },
    {
      "name": "Bone10",
      "rotation": [
        8.526512829121202e-14,
        -2.3803181647963356e-13,
        2.88786200183308e-26,
        1.0
      ],
      "scale": [
        1.0,
        5.654554968624213e-26,
        5.186961971048731e-13
      ],
      "translation": [
        25.683956146240234,
        -1.52587890625e-05,
        -2.384185791015625e-07
      ]
    },
    {
      "children": [
        34
      ],
      "name": "Bip01 Ponytail1",
      "rotation": [
        1.9119766533903793e-12,
        -2.772705101961037e-06,
        0.9996773600578308,
        -0.02540152333676815
      ],
      "scale": [
        1.0,
        7.808638718270755e-13,
        -5.684341886080802e-14
      ],
      "translation": [
        16.320892333984375,
        -17.09018325805664,
        0.031389594078063965
      ]
    },
    {
      "children": [
        35
      ],
      "name": "Bip01 Ponytail11",
      "rotation": [
        2.2591372945534455e-13,
        3.766511156300112e-07,
        -0.1357986330986023,
        0.9907364845275879
      ],
      "scale": [
        1.0,
        7.634667095572645e-14,
        0.0
      ],
      "translation": [
        12.657058715820313,
        -0.00971221923828125,
        -2.6542693376541138e-08
      ]
    },
    {
      "children": [
        36
      ],
      "name": "Bip01 Ponytail12",
      "rotation": [
        -4.443874183870553e-16,
        1.0159089214312189e-07,
        -0.03662780299782753,
        0.9993289709091187
      ],
      "scale": [
        0.9999999403953552,
        1.5110835903747407e-15,
        0.0
      ],
      "translation": [
        12.65899658203125,
        -0.010051727294921875,
        -2.8405338525772095e-08
      ]
    },
    {
      "children": [
        37
      ],
      "name": "Bip01 Ponytail13",
      "rotation": [
        3.3310904727667286e-16,
        -4.4103988017241136e-08,
        0.0159013569355011,
        0.9998735785484314
      ],
      "scale": [
        1.0,
        -1.2372966279079208e-16,
        -2.1316282072803006e-14
      ],
      "translation": [
        12.660064697265625,
        -0.010076522827148438,
        -2.7474015951156616e-08
      ]
    },
    {
      "children": [
        49
      ],
      "name": "Bip01 Ponytail14",
      "rotation": [
        8.884569876606535e-16,
        -6.945334263264158e-08,
        0.02504085749387741,
        0.9996864199638367
      ],
      "scale": [
        0.9999998807907104,
        -4.829964506723272e-16,
        1.4210854715202004e-14
      ],
      "translation": [
        12.660255432128906,
        -0.010067939758300781,
        -2.8405338525772095e-08
      ]
    },
    {
      "name": "Bip01 HeadNub",
      "rotation": [
        -2.842170943040401e-14,
        1.4210854715202004e-14,
        7.068194673745238e-28,
        1.0
      ],
      "scale": [
        0.9999999403953552,
        4.0389678347315804e-28,
        -2.842170943040401e-14
      ],
      "translation": [
        20.872726440429688,
        0.0,
        0.0
      ]
    },
    {
      "name": "B_03",
      "rotation": [
        5.3290705182007514e-15,
        -7.105427357601002e-15,
        -2.524354896707238e-29,
        1.0
      ],
      "scale": [
        1.0,
        0.0,
        -1.4210854715202004e-14
      ],
      "translation": [
        23.144187927246094,
        1.1444091796875e-05,
        -3.637978807091713e-12
      ]
    },
    {
      "children": [
        50
      ],
      "name": "Bip01 R Toe0",
      "rotation": [
        1.5700926965105832e-16,
        1.5700926965105832e-16,
        0.70710688829422,
        0.7071067094802856
      ],
      "scale": [
        1.0,
        1.7763568394002505e-15,
        -3.223900041478473e-16
      ],
      "translation": [
        13.162713050842285,
        12.05335521697998,
        0.0
      ]
    },
    {
      "children": [
        51
      ],
      "name": "Bip01 L Toe0",
      "rotation": [
        2.02476010213036e-31,
        0.0,
        0.70710688829422,
        0.7071067094802856
      ],
      "scale": [
        1.0,
        1.7763568394002505e-15,
        3.223949804664124e-16
      ],
      "translation": [
        13.162713050842285,
        12.05335521697998,
        9.5367431640625e-07
      ]
    },
    {
      "children": [
        52
      ],
      "name": "Bone07",
      "rotation": [
        -0.13934281468391418,
        0.09060375392436981,
        0.7841300368309021,
        0.5979253649711609
      ],
      "scale": [
        1.0,
        -1.955777406692505e-08,
        -2.9802322387695313e-08
      ],
      "translation": [
        4.191436767578125,
        3.2420263290405273,
        -4.378600597381592
      ]
    },
    {
      "children": [
        53
      ],
      "name": "Bone05",
      "rotation": [
        0.11136427521705627,
        -0.07542812824249268,
        0.7880298495292664,
        0.6007641553878784
      ],
      "scale": [
        0.9999999403953552,
        -1.5832483768463135e-08,
        2.9802322387695313e-08
      ],
      "translation": [
        4.191429138183594,
        3.242015838623047,
        4.7433013916015625
      ]
    },
    {
      "children": [
        54,
        60,
        66
      ],
      "name": "Bip01 L Hand",
      "rotation": [
        -0.7058848142623901,
        -0.03647787123918533,
        -0.03644883260130882,
        0.7064470648765564
      ],
      "scale": [
        1.0,
        -1.4901161193847656e-08,
        -8.658389560878277e-10
      ],
      "translation": [
        24.082996368408203,
        4.76837158203125e-07,
        0.0
      ]
    },
    {
      "children": [
        57,
        62,
        68
      ],
      "name": "Bip01 R Hand",
      "rotation": [
        0.7058848142623901,
        0.03647787496447563,
        -0.03644884005188942,
        0.7064470648765564
      ],
      "scale": [
        1.0000001192092896,
        7.450580596923828e-09,
        -3.776222001761198e-09
      ],
      "translation": [
        24.082996368408203,
        4.76837158203125e-07,
        0.0
      ]
    },
    {
      "name": "L_03",
      "rotation": [
        1.7763568394002505e-15,
        0.0,
        0.0,
        1.0
      ],
      "scale": [
        1.0,
        0.0,
        0.0
      ],
      "translation": [
        16.961395263671875,
        -7.62939453125e-06,
        0.0
      ]
    },
    {
      "name": "R_03",
      "rotation": [
        -1.7763568394002505e-15,
        0.0,
        0.0,
        1.0
      ],
      "scale": [
        1.0,
        0.0,
        0.0
      ],
      "translation": [
        16.961395263671875,
        0.0,
        -9.094947017729282e-13
      ]
    },
    {
      "name": "F_03",
      "rotation": [
        -6.217245549769088e-15,
        7.105426087051581e-15,
        1.5273687381522905e-07,
        1.0
      ],
      "scale": [
        1.0000001192092896,
        -2.842170943040401e-14,
        4.26325675337378e-14
      ],
      "translation": [
        15.030860900878906,
        -7.62939453125e-06,
        3.637978807091713e-12
      ]
    },
    {
      "name": "Bip01 Ponytail1Nub",
      "rotation": [
        0.7073883414268494,
        0.7068251967430115,
        9.802253089219448e-07,
        -9.810062238102546e-07
      ],
      "scale": [
        1.0,
        -6.125627925095221e-15,
        0.0
      ],
      "translation": [
        12.659751892089844,
        0.0,
        4.656612873077393e-10
      ]
    },
    {
      "name": "Bip01 R Toe0Nub",
      "rotation": [
        2.220446049250313e-16,
        0.0,
        8.881784197001252e-16,
        1.0
      ],
      "scale": [
        1.0,
        1.7763568394002505e-15,
        -3.223900041478473e-16
      ],
      "translation": [
        10.604896545410156,
        0.0,
        -9.5367431640625e-07
      ]
    },
    {
      "name": "Bip01 L Toe0Nub",
      "rotation": [
        1.4317213213495546e-31,
        0.0,
        8.881784197001252e-16,
        1.0
      ],
      "scale": [
        1.0,
        1.7763568394002505e-15,
        -3.223949804664124e-16
      ],
      "translation": [
        10.604896545410156,
        0.0,
        0.0
      ]
    },
    {
      "name": "Bone08",
      "rotation": [
        2.210817751091554e-09,
        8.014215069351849e-09,
        -4.421635502183108e-09,
        1.0
      ],
      "scale": [
        0.42125698924064636,
        -3.725290076417309e-09,
        1.1641541064477678e-09
      ],
      "translation": [
        9.775652885437012,
        -7.62939453125e-06,
        9.5367431640625e-07
      ]
    },
    {
      "name": "Bone06",
      "rotation": [
        -1.105410318835709e-09,
        -1.9344676971400077e-09,
        8.843271004366215e-09,
        1.0
      ],
      "scale": [
        0.42125701904296875,
        -7.450582373280668e-09,
        3.026796147054256e-09
      ],
      "translation": [
        9.775650978088379,
        -7.62939453125e-06,
        -9.5367431640625e-07
      ]
    },
    {
      "children": [
        55
      ],
      "name": "Bip01 L Finger0",
      "rotation": [
        0.6828780174255371,
        0.25692248344421387,
        -0.1345290094614029,
        0.6705000996589661
      ],
      "scale": [
        1.0000004768371582,
        1.7881393432617188e-07,
        -3.3527612686157227e-07
      ],
      "translation": [
        0.5431480407714844,
        0.00774383544921875,
        -2.5511605739593506
      ]
    },
    {
      "children": [
        56
      ],
      "name": "Bip01 L Finger01",
      "rotation": [
        -4.5672310378108705e-09,
        6.966303089939174e-09,
        0.11640208959579468,
        0.9932021498680115
      ],
      "scale": [
        0.9999999403953552,
        1.4901161193847656e-08,
        -1.4901161193847656e-08
      ],
      "translation": [
        3.795013427734375,
        0.0,
        7.62939453125e-06
      ]
    },
    {
      "children": [
        72
      ],
      "name": "Bip01 L Finger02",
      "rotation": [
        5.4344937439054775e-09,
        -4.3363165835863526e-10,
        0.11640210449695587,
        0.9932021498680115
      ],
      "scale": [
        1.0,
        0.0,
        2.7675783442759894e-08
      ],
      "translation": [
        3.795013427734375,
        1.9073486328125e-06,
        -7.62939453125e-06
      ]
    },
    {
      "children": [
        58
      ],
      "name": "Bip01 R Finger0",
      "rotation": [
        -0.6828780174255371,
        -0.25692248344421387,
        -0.1345290094614029,
        0.6705000996589661
      ],
      "scale": [
        1.0000004768371582,
        1.7881393432617188e-07,
        4.1350722312927246e-07
      ],
      "translation": [
        0.5431480407714844,
        0.00774383544921875,
        2.5511603355407715
      ]
    },
    {
      "children": [
        59
      ],
      "name": "Bip01 R Finger01",
      "rotation": [
        -7.3999353311648974e-09,
        -1.653439696269743e-08,
        0.11640210449695587,
        0.9932021498680115
      ],
      "scale": [
        0.9999998211860657,
        1.4901159417490817e-08,
        -1.3189307423999708e-09
      ],
      "translation": [
        3.7950172424316406,
        -1.9073486328125e-06,
        0.0
      ]
    },
    {
      "children": [
        73
      ],
      "name": "Bip01 R Finger02",
      "rotation": [
        -3.6999678876270536e-09,
        4.336317138697865e-10,
        0.11640210449695587,
        0.9932021498680115
      ],
      "scale": [
        0.9999999403953552,
        0.0,
        1.7227346216230899e-09
      ],
      "translation": [
        3.7950172424316406,
        1.9073486328125e-06,
        0.0
      ]
    },
    {
      "children": [
        61
      ],
      "name": "Bip01 L Finger2",
      "rotation": [
        -0.08983667194843292,
        -0.004974723793566227,
        0.0555574856698513,
        0.9943932890892029
      ],
      "scale": [
        0.9999997615814209,
        1.6928788681980222e-07,
        -1.2648524716496468e-07
      ],
      "translation": [
        8.273906707763672,
        -0.6917953491210938,
        1.2059063911437988
      ]
    },
    {
      "children": [
        63
      ],
      "name": "Bip01 L Finger21",
      "rotation": [
        -2.4370638840309766e-10,
        4.565075428786258e-09,
        0.1308387815952301,
        0.9914036393165588
      ],
      "scale": [
        1.0000001192092896,
        -2.9802322387695313e-08,
        -5.785724788154312e-09
      ],
      "translation": [
        3.0855941772460938,
        7.62939453125e-06,
        0.0
      ]
    },
    {
      "children": [
        64
      ],
      "name": "Bip01 R Finger2",
      "rotation": [
        0.08983668684959412,
        0.004974720533937216,
        0.055557504296302795,
        0.9943932890892029
      ],
      "scale": [
        0.9999997615814209,
        2.007582224905491e-07,
        1.0398071026429534e-07
      ],
      "translation": [
        8.273910522460938,
        -0.6917953491210938,
        -1.205906867980957
      ]
    },
    {
      "children": [
        74
      ],
      "name": "Bip01 L Finger22",
      "rotation": [
        2.3340458454867985e-09,
        -9.86126913460339e-09,
        0.1308388113975525,
        0.9914036393165588
      ],
      "scale": [
        1.0,
        2.9802322387695313e-08,
        9.638560172220423e-09
      ],
      "translation": [
        3.0856056213378906,
        -1.52587890625e-05,
        -1.9073486328125e-06
      ]
    },
    {
      "children": [
        65
      ],
      "name": "Bip01 R Finger21",
      "rotation": [
        -3.936972969853514e-09,
        -2.3340458454867985e-09,
        0.1308388113975525,
        0.9914036393165588
      ],
      "scale": [
        1.0000001192092896,
        -2.9802322387695313e-08,
        -3.597745656946927e-09
      ],
      "translation": [
        3.085590362548828,
        0.0,
        0.0
      ]
    },
    {
      "children": [
        75
      ],
      "name": "Bip01 R Finger22",
      "rotation": [
        4.874125547615904e-10,
        3.693267025539626e-09,
        0.1308387815952301,
        0.9914036393165588
      ],
      "scale": [
        0.9999999403953552,
        2.9802322387695313e-08,
        7.195490425715434e-09
      ],
      "translation": [
        3.085590362548828,
        -1.52587890625e-05,
        1.9073486328125e-06
      ]
    },
    {
      "children": [
        67
      ],
      "name": "Bip01 L Finger1",
      "rotation": [
        -0.0031984648667275906,
        0.06787998974323273,
        0.041126422584056854,
        0.9968403577804565
      ],
      "scale": [
        1.0000001192092896,
        2.4682231014594436e-07,
        1.043081283569336e-07
      ],
      "translation": [
        8.236907958984375,
        -0.8613967895507813,
        -2.459082841873169
      ]
    },
    {
      "children": [
        71
      ],
      "name": "Bip01 L Finger11",
      "rotation": [
        -6.207448333128696e-09,
        -9.19218923201015e-09,
        0.11640209704637527,
        0.9932021498680115
      ],
      "scale": [
        1.0,
        1.4901160305669237e-08,
        2.043861968559213e-08
      ],
      "translation": [
        3.0103721618652344,
        0.0,
        0.0
      ]
    },
    {
      "children": [
        69
      ],
      "name": "Bip01 R Finger1",
      "rotation": [
        0.0031984674278646708,
        -0.06787998974323273,
        0.04112643748521805,
        0.9968403577804565
      ],
      "scale": [
        1.0000001192092896,
        2.7662463253363967e-07,
        -1.1920928955078125e-07
      ],
      "translation": [
        8.236907958984375,
        -0.8613967895507813,
        2.45908260345459
      ]
    },
    {
      "children": [
        70
      ],
      "name": "Bip01 R Finger11",
      "rotation": [
        3.157928585295622e-09,
        2.7749760267425927e-09,
        0.11640209704637527,
        0.9932021498680115
      ],
      "scale": [
        1.0,
        2.9802322387695313e-08,
        -1.0124117544307865e-08
      ],
      "translation": [
        3.0103759765625,
        -7.62939453125e-06,
        9.5367431640625e-07
      ]
    },
    {
      "children": [
        76
      ],
      "name": "Bip01 R Finger12",
      "rotation": [
        2.124527886948613e-09,
        5.4415427719334275e-09,
        0.11640210449695587,
        0.993202269077301
      ],
      "scale": [
        1.0,
        -1.4901161193847656e-08,
        -1.203723787313038e-08
      ],
      "translation": [
        3.0103912353515625,
        0.0,
        -2.86102294921875e-06
      ]
    },
    {
      "children": [
        77
      ],
      "name": "Bip01 L Finger12",
      "rotation": [
        -2.3413437855168695e-09,
        -3.157927919161807e-09,
        0.11640210449695587,
        0.993202269077301
      ],
      "scale": [
        1.0,
        -1.4901161193847656e-08,
        9.173315440591523e-09
      ],
      "translation": [
        3.010395050048828,
        7.62939453125e-06,
        1.9073486328125e-06
      ]
    },
    {
      "name": "Bip01 L Finger0Nub",
      "rotation": [
        2.7939677238464355e-09,
        -7.450580596923828e-09,
        -2.7939677238464355e-09,
        1.0
      ],
      "scale": [
        1.0,
        -2.0489098417897367e-08,
        -1.4901161193847656e-08
      ],
      "translation": [
        3.7950172424316406,
        0.0,
        0.0
      ]
    },
    {
      "name": "Bip01 R Finger0Nub",
      "rotation": [
        3.725290076417309e-09,
        -2.2351741790771484e-08,
        -1.8626450382086546e-09,
        1.0
      ],
      "scale": [
        1.0000001192092896,
        1.1175871783564162e-08,
        1.4901164746561335e-08
      ],
      "translation": [
        3.795013427734375,
        0.0,
        -7.62939453125e-06
      ]
    },
    {
      "name": "Bip01 L Finger2Nub",
      "rotation": [
        1.8626450382086546e-09,
        7.450580596923828e-09,
        -7.450580152834618e-09,
        1.0
      ],
      "scale": [
        1.0,
        1.4901161193847656e-08,
        0.0
      ],
      "translation": [
        3.085601806640625,
        7.62939453125e-06,
        0.0
      ]
    },
    {
      "name": "Bip01 R Finger2Nub",
      "rotation": [
        -5.5511137996368026e-17,
        -3.7252898543727042e-09,
        0.0,
        1.0
      ],
      "scale": [
        1.0000001192092896,
        2.9802322387695313e-08,
        -7.450581485102248e-09
      ],
      "translation": [
        3.085601806640625,
        0.0,
        -1.9073486328125e-06
      ]
    },
    {
      "name": "Bip01 R Finger1Nub",
      "rotation": [
        1.8626449271863521e-09,
        1.8626450382086546e-09,
        -1.4901160305669237e-08,
        1.0
      ],
      "scale": [
        1.0,
        -2.7755568998184013e-17,
        -1.1175870895385742e-08
      ],
      "translation": [
        3.0103721618652344,
        -7.62939453125e-06,
        9.5367431640625e-07
      ]
    },
    {
      "name": "Bip01 L Finger1Nub",
      "rotation": [
        1.862645149230957e-09,
        1.862645149230957e-09,
        -1.4901161193847656e-08,
        1.0
      ],
      "scale": [
        1.0,
        0.0,
        3.725290298461914e-09
      ],
      "translation": [
        3.0103683471679688,
        7.62939453125e-06,
        -1.9073486328125e-06
      ]
    }
  ],
  "scene": 0,
  "scenes": [
    {
      "nodes": [
        0
      ]
    }
  ],
  "skins": [
    {
      "inverseBindMatrices": 4,
      "joints": [
        2,
        3,
        4,
        5,
        6,
        7,
        8,
        9,
        10,
        11,
        12,
        13,
        14,
        15,
        16,
        17,
        18,
        19,
        20,
        21,
        22,
        23,
        24,
        25,
        26,
        27,
        28,
        29,
        30,
        31,
        32,
        33,
        34,
        35,
        36,
        37,
        38,
        39,
        40,
        41,
        42,
        43,
        44,
        45,
        46,
        47,
        48,
        49,
        50,
        51,
        52,
        53,
        54,
        55,
        56,
        57,
        58,
        59,
        60,
        61,
        62,
        63,
        64,
        65,
        66,
        67,
        68,
        69,
        70,
        71,
        72,
        73,
        74,
        75,
        76,
        77
      ],
      "skeleton": 2
    }
  ]
}
