{
  "accessors": [
    {
      "bufferView": 0,
      "componentType": 5126,
      "count": 485,
      "max": [
        166.61170959472656,
        167.65110778808594,
        167.65110778808594
      ],
      "min": [
        -11.541580200195313,
        -11.45340633392334,
        -10.419487953186035
      ],
      "type": "VEC3"
    },
    {
      "bufferView": 1,
      "componentType": 5126,
      "count": 485,
      "type": "VEC3"
    },
    {
      "bufferView": 2,
      "componentType": 5126,
      "count": 485,
      "type": "VEC2"
    },
    {
      "bufferView": 3,
      "componentType": 5123,
      "count": 1680,
      "type": "SCALAR"
    },
    {
      "bufferView": 4,
      "componentType": 5126,
      "count": 76,
      "type": "MAT4"
    }
  ],
  "asset": {
    "generator": "gr2togltf (ANKA2 Project)",
    "version": "2.0"
  },
  "bufferViews": [
    {
      "buffer": 0,
      "byteLength": 5820,
      "target": 34962
    },
    {
      "buffer": 0,
      "byteLength": 5820,
      "byteOffset": 5820,
      "target": 34962
    },
    {
      "buffer": 0,
      "byteLength": 3880,
      "byteOffset": 11640,
      "target": 34962
    },
    {
      "buffer": 0,
      "byteLength": 3360,
      "byteOffset": 15520,
      "target": 34963
    },
    {
      "buffer": 0,
      "byteLength": 4864,
      "byteOffset": 18880
    }
  ],
  "buffers": [
    {
      "byteLength": 23744,
      "uri": "data:application/octet-stream;base64,"
    }
  ],
  "materials": [
    {
      "name": "default",
      "pbrMetallicRoughness": {
        "baseColorFactor": [
          0.8,
          0.8,
          0.8,
          1.0
        ],
        "metallicFactor": 0.0,
        "roughnessFactor": 0.8
      }
    }
  ],
  "meshes": [
    {
      "name": "hair_14_1",
      "primitives": [
        {
          "attributes": {
            "NORMAL": 1,
            "POSITION": 0,
            "TEXCOORD_0": 2
          },
          "indices": 3,
          "material": 0,
          "mode": 4
        }
      ]
    }
  ],
  "nodes": [
    {
      "children": [
        1,
        2
      ]
    },
    {
      "mesh": 0,
      "name": "hair_14_1",
      "skin": 0
    },
    {
      "children": [
        3
      ],
      "name": "Bip01",
      "rotation": [
        0.0,
        0.0,
        0.0,
        0.9999999403953552
      ],
      "scale": [
        0.9999997019767761,
        -1.3359980981751673e-13,
        0.0
      ],
      "translation": [
        0.0,
        1.862645149230957e-09,
        0.0
      ]
    },
    {
      "children": [
        4
      ],
      "name": "Bip01 Pelvis",
      "rotation": [
        -0.4999993145465851,
        -0.5,
        -0.5,
        0.5000006556510925
      ],
      "scale": [
        1.0,
        5.1399245505243465e-20,
        8.265705963650741e-14
      ],
      "translation": [
        -0.4305531978607178,
        -0.013545995578169823,
        0.0
      ]
    },
    {
      "children": [
        5,
        8,
        11,
        14,
        17,
        22,
        27
      ],
      "name": "Bip01 Spine",
      "rotation": [
        2.199636128352722e-06,
        0.00045840319944545627,
        -0.008512724190950394,
        0.999963641166687
      ],
      "scale": [
        1.0000001192092896,
        2.6206861125643854e-09,
        7.218286385279882e-11
      ],
      "translation": [
        9.231704711914063,
        -0.006681768223643303,
        1.2808945029973984e-05
      ]
    },
    {
      "children": [
        6
      ],
      "name": "F_01",
      "rotation": [
        -0.00045760037028230727,
        -3.148532778141089e-05,
        0.9976655840873718,
        0.06828778982162476
      ],
      "scale": [
        1.0000001192092896,
        -7.172296090374175e-09,
        1.1203227234801716e-10
      ],
      "translation": [
        2.9761581420898438,
        9.141228675842285,
        -0.0031204447150230408
      ]
    },
    {
      "children": [
        7
      ],
      "name": "F_02",
      "rotation": [
        7.1034673233610554e-15,
        1.668643524085743e-16,
        0.023484067991375923,
        0.9997242093086243
      ],
      "scale": [
        1.0,
        5.597494023845684e-09,
        0.0
      ],
      "translation": [
        19.174591064453125,
        1.9073486328125e-06,
        3.499662852846086e-07
      ]
    },
    {
      "name": "F_03",
      "rotation": [
        3.55271240825108e-15,
        -1.4210854715202004e-14,
        -8.381903171539307e-08,
        1.0
      ],
      "scale": [
        1.0,
        3.725290298461914e-09,
        2.842170943040401e-14
      ],
      "translation": [
        15.030853271484375,
        -7.62939453125e-06,
        2.441738615743816e-07
      ]
    },
    {
      "children": [
        9
      ],
      "name": "L_01",
      "rotation": [
        0.1296996921300888,
        0.6951159834861755,
        0.6927956342697144,
        -0.1415129452943802
      ],
      "scale": [
        0.9999997615814209,
        -1.219441880806471e-09,
        -9.474534490294673e-10
      ],
      "translation": [
        3.68267822265625,
        0.06954872608184814,
        10.391953468322754
      ]
    },
    {
      "children": [
        10
      ],
      "name": "L_02",
      "rotation": [
        7.191600648326357e-10,
        1.9149087648884233e-08,
        -0.037528540939092636,
        0.9992955327033997
      ],
      "scale": [
        1.0000001192092896,
        -3.0232083503278773e-09,
        -5.906719671415635e-16
      ],
      "translation": [
        19.448829650878906,
        3.814697265625e-06,
        -7.87309545557946e-07
      ]
    },
    {
      "name": "L_03",
      "rotation": [
        -2.842170943040401e-14,
        -2.117582368135751e-22,
        1.4901161193847656e-08,
        1.0
      ],
      "scale": [
        1.0,
        0.0,
        -2.842170943040401e-14
      ],
      "translation": [
        16.961402893066406,
        -3.814697265625e-06,
        0.0
      ]
    },
    {
      "children": [
        12
      ],
      "name": "B_01",
      "rotation": [
        -0.0004498336638789624,
        9.224806854035705e-05,
        0.9794314503669739,
        -0.20177654922008514
      ],
      "scale": [
        0.9999993443489075,
        -3.062814712961881e-08,
        4.296998520891826e-11
      ],
      "translation": [
        5.919471740722656,
        -6.957296371459961,
        -0.0004348382353782654
      ]
    },
    {
      "children": [
        13
      ],
      "name": "B_02",
      "rotation": [
        -1.7704963243173164e-15,
        -1.441739014686281e-16,
        -0.0811627134680748,
        0.9967008829116821
      ],
      "scale": [
        1.000000238418579,
        4.79396078389982e-10,
        -5.747933286936568e-16
      ],
      "translation": [
        16.875205993652344,
        -0.00030517578125,
        1.8189894035458565e-11
      ]
    },
    {
      "name": "B_03",
      "rotation": [
        -2.557952764534188e-13,
        -2.131627990439866e-12,
        3.352760558072987e-08,
        1.0
      ],
      "scale": [
        1.000000238418579,
        -7.450586814172766e-09,
        5.258016244624741e-12
      ],
      "translation": [
        23.14419174194336,
        1.1444091796875e-05,
        1.6366720956284553e-07
      ]
    },
    {
      "children": [
        15
      ],
      "name": "R_01",
      "rotation": [
        0.1303357034921646,
        0.6949856877326965,
        -0.6926762461662292,
        0.1421509087085724
      ],
      "scale": [
        1.0000003576278687,
        -2.092892259497603e-08,
        -1.5631415051231556e-09
      ],
      "translation": [
        3.7016983032226563,
        0.06956255435943604,
        -10.318818092346191
      ]
    },
    {
      "children": [
        16
      ],
      "name": "R_02",
      "rotation": [
        7.191487405577845e-10,
        1.914910008338211e-08,
        -0.03752852603793144,
        0.9992955327033997
      ],
      "scale": [
        1.0000001192092896,
        1.4473959808469772e-09,
        -1.947491799579983e-15
      ],
      "translation": [
        19.448837280273438,
        0.0,
        -7.873043159634108e-07
      ]
    },
    {
      "name": "R_03",
      "rotation": [
        -3.3306690738754696e-15,
        3.552713467042264e-15,
        7.4505797087454084e-09,
        1.0
      ],
      "scale": [
        1.0000001192092896,
        1.4901162970204496e-08,
        -3.552713678800501e-15
      ],
      "translation": [
        16.961395263671875,
        0.0,
        -6.821210263296962e-13
      ]
    },
    {
      "children": [
        18
      ],
      "name": "Bip01 R Thigh",
      "rotation": [
        -0.0017406422412022948,
        0.9993849396705627,
        -0.012854011729359627,
        0.032579731196165085
      ],
      "scale": [
        1.0000001192092896,
        9.05034935883009e-10,
        5.961324767156384e-09
      ],
      "translation": [
        -9.223114013671875,
        -0.1504669189453125,
        -8.036138534545898
      ]
    },
    {
      "children": [
        19
      ],
      "name": "Bip01 R Calf",
      "rotation": [
        1.476880062689645e-09,
        -3.883916299685097e-09,
        -0.09983320534229279,
        0.9950041770935059
      ],
      "scale": [
        1.0000001192092896,
        2.762541306822186e-09,
        1.6436933411578813e-11
      ],
      "translation": [
        40.138328552246094,
        0.0,
        9.5367431640625e-07
      ]
    },
    {
      "children": [
        20
      ],
      "name": "Bip01 R Foot",
      "rotation": [
        0.06932652741670609,
        0.038423802703619,
        0.09007467329502106,
        0.9927759170532227
      ],
      "scale": [
        0.9999999403953552,
        1.2885747580071438e-08,
        1.5653611740162887e-10
      ],
      "translation": [
        40.13832473754883,
        9.5367431640625e-07,
        -9.5367431640625e-07
      ]
    },
    {
      "children": [
        21
      ],
      "name": "Bip01 R Toe0",
      "rotation": [
        1.8088487152567723e-08,
        1.2820132511137672e-08,
        0.7071067690849304,
        0.7071067690849304
      ],
      "scale": [
        0.9999999403953552,
        -3.227037769152458e-15,
        -7.450578820566989e-09
      ],
      "translation": [
        13.162713050842285,
        12.053354263305664,
        9.5367431640625e-07
      ]
    },
    {
      "name": "Bip01 R Toe0Nub",
      "rotation": [
        -8.88178366760566e-16,
        -3.7252894102834944e-09,
        1.776356733521132e-15,
        1.0
      ],
      "scale": [
        1.0000001192092896,
        3.552713678800501e-15,
        -7.450577932388569e-09
      ],
      "translation": [
        10.604899406433105,
        0.0,
        -9.5367431640625e-07
      ]
    },
    {
      "children": [
        23
      ],
      "name": "Bip01 L Thigh",
      "rotation": [
        -0.0017525114817544818,
        0.9994144439697266,
        0.012854451313614845,
        -0.03166196867823601
      ],
      "scale": [
        1.0000001192092896,
        9.431764258494013e-10,
        3.040020901678986e-09
      ],
      "translation": [
        -9.23785400390625,
        -0.15049970149993896,
        8.019186973571777
      ]
    },
    {
      "children": [
        24
      ],
      "name": "Bip01 L Calf",
      "rotation": [
        -1.0447794851486947e-09,
        1.9622969915644717e-09,
        -0.09983319789171219,
        0.9950041770935059
      ],
      "scale": [
        1.0,
        -9.07904684765981e-09,
        -3.754200950112363e-09
      ],
      "translation": [
        40.13832473754883,
        -1.1920928955078125e-07,
        -9.5367431640625e-07
      ]
    },
    {
      "children": [
        25
      ],
      "name": "Bip01 L Foot",
      "rotation": [
        -0.06932654231786728,
        -0.03842370957136154,
        0.09007466584444046,
        0.9927759170532227
      ],
      "scale": [
        1.0,
        -6.275744368622327e-09,
        -7.355255071672673e-09
      ],
      "translation": [
        40.13832473754883,
        0.0,
        0.0
      ]
    },
    {
      "children": [
        26
      ],
      "name": "Bip01 L Toe0",
      "rotation": [
        -1.5454309831852697e-08,
        -1.5454309831852697e-08,
        0.7071067094802856,
        0.7071067690849304
      ],
      "scale": [
        1.0000001192092896,
        1.7763570511584873e-15,
        -5.933408091396842e-16
      ],
      "translation": [
        13.162713050842285,
        12.05335521697998,
        0.0
      ]
    },
    {
      "name": "Bip01 L Toe0Nub",
      "rotation": [
        1.3322676295501878e-15,
        -1.453142063389794e-16,
        1.776356733521132e-15,
        1.0
      ],
      "scale": [
        1.0000001192092896,
        -2.117582368135751e-22,
        1.5345693787823791e-15
      ],
      "translation": [
        10.604900360107422,
        0.0,
        0.0
      ]
    },
    {
      "children": [
        28
      ],
      "name": "Bip01 Spine1",
      "rotation": [
        -3.0525996769399655e-14,
        -5.80622572243783e-09,
        0.002097886987030506,
        0.9999977946281433
      ],
      "scale": [
        1.0,
        -9.313143589650963e-10,
        -2.910163256208964e-11
      ],
      "translation": [
        8.398162841796875,
        -0.010102033615112305,
        -2.9802322387695313e-08
      ]
    },
    {
      "children": [
        29,
        31,
        33
      ],
      "name": "Bip01 Spine2",
      "rotation": [
        9.88247136034237e-13,
        9.602741357639388e-08,
        -0.03463052213191986,
        0.9994001984596252
      ],
      "scale": [
        1.0000001192092896,
        6.613813940958835e-09,
        8.727295275345881e-11
      ],
      "translation": [
        12.686180114746094,
        -0.010077834129333496,
        -2.2351741790771484e-08
      ]
    },
    {
      "children": [
        30
      ],
      "name": "Bone07",
      "rotation": [
        -0.13934260606765747,
        0.09060359746217728,
        0.7841299176216125,
        0.5979254245758057
      ],
      "scale": [
        1.0,
        2.6805777597616043e-09,
        -8.894814840232357e-08
      ],
      "translation": [
        4.1914520263671875,
        3.2420291900634766,
        -4.378602504730225
      ]
    },
    {
      "name": "Bone08",
      "rotation": [
        2.210819749492998e-09,
        -2.4871726900244084e-09,
        2.6882489787801643e-17,
        1.0
      ],
      "scale": [
        0.42125657200813293,
        1.8016132707747852e-17,
        8.149072527885437e-09
      ],
      "translation": [
        9.775653839111328,
        -7.62939453125e-06,
        9.5367431640625e-07
      ]
    },
    {
      "children": [
        32
      ],
      "name": "Bone05",
      "rotation": [
        0.1113646924495697,
        -0.07542755454778671,
        0.7880299687385559,
        0.6007640361785889
      ],
      "scale": [
        1.0000001192092896,
        3.0089406521938145e-08,
        6.104309946408648e-09
      ],
      "translation": [
        4.1914215087890625,
        3.2420167922973633,
        4.743307590484619
      ]
    },
    {
      "name": "Bone06",
      "rotation": [
        1.1938426780488953e-07,
        9.506526765790113e-08,
        4.421637722629157e-09,
        1.0
      ],
      "scale": [
        0.4212566018104553,
        3.7252794182762727e-09,
        -9.77887282260781e-09
      ],
      "translation": [
        9.775650024414063,
        0.0,
        9.5367431640625e-07
      ]
    },
    {
      "children": [
        34,
        52,
        70
      ],
      "name": "Bip01 Neck",
      "rotation": [
        -3.490446033538319e-05,
        -0.00045816993224434555,
        0.1399218589067459,
        0.9901624321937561
      ],
      "scale": [
        1.0,
        -2.0756235841190573e-08,
        6.587219051473747e-12
      ],
      "translation": [
        14.334159851074219,
        -3.440769672393799,
        -3.4421682357788086e-06
      ]
    },
    {
      "children": [
        35,
        37
      ],
      "name": "Bip01 R Clavicle",
      "rotation": [
        -0.579227089881897,
        0.08922643214464188,
        0.8029547929763794,
        0.10861968249082565
      ],
      "scale": [
        1.000000238418579,
        1.3151737476846392e-09,
        -6.08215486863628e-08
      ],
      "translation": [
        -1.067474365234375,
        1.0830726623535156,
        -2.8085200786590576
      ]
    },
    {
      "children": [
        36
      ],
      "name": "Bone09",
      "rotation": [
        -0.7176154851913452,
        0.16453242301940918,
        0.1574290692806244,
        0.6581589579582214
      ],
      "scale": [
        1.000000238418579,
        -2.480915206604095e-08,
        -5.0802646534009455e-09
      ],
      "translation": [
        5.5560150146484375,
        -0.32675695419311523,
        -0.8303680419921875
      ]
    },
    {
      "name": "Bone10",
      "rotation": [
        1.4210854715202004e-13,
        7.176481631177012e-13,
        7.450580596923828e-09,
        1.0
      ],
      "scale": [
        1.0,
        -4.8952290156946755e-25,
        -1.293187670663165e-12
      ],
      "translation": [
        25.683961868286133,
        0.0,
        2.384185791015625e-07
      ]
    },
    {
      "children": [
        38
      ],
      "name": "Bip01 R UpperArm",
      "rotation": [
        -0.04123351350426674,
        -0.11716581135988235,
        0.009602156467735767,
        0.9922095537185669
      ],
      "scale": [
        1.0000001192092896,
        -4.730378755368747e-09,
        4.773719197714854e-08
      ],
      "translation": [
        11.362136840820313,
        0.0,
        0.0
      ]
    },
    {
      "children": [
        39
      ],
      "name": "Bip01 R ForeArm",
      "rotation": [
        2.8950894459534027e-10,
        -2.981479951813526e-08,
        -0.04301733896136284,
        0.9990743398666382
      ],
      "scale": [
        0.9999998807907104,
        2.8236331051090247e-09,
        2.985748182027237e-08
      ],
      "translation": [
        24.082996368408203,
        -2.384185791015625e-07,
        0.0
      ]
    },
    {
      "children": [
        40,
        44,
        48
      ],
      "name": "Bip01 R Hand",
      "rotation": [
        0.7058848142623901,
        0.03647807613015175,
        -0.03644903749227524,
        0.7064470648765564
      ],
      "scale": [
        1.0,
        -3.473360976613549e-08,
        6.37664365754631e-10
      ],
      "translation": [
        24.082996368408203,
        -4.76837158203125e-07,
        -7.62939453125e-06
      ]
    },
    {
      "children": [
        41
      ],
      "name": "Bip01 R Finger2",
      "rotation": [
        0.08983657509088516,
        0.004974632523953915,
        0.0555575005710125,
        0.9943932890892029
      ],
      "scale": [
        1.0000001192092896,
        -3.988501617868678e-08,
        1.609799582524829e-08
      ],
      "translation": [
        8.273906707763672,
        -0.6917953491210938,
        -1.2059059143066406
      ]
    },
    {
      "children": [
        42
      ],
      "name": "Bip01 R Finger21",
      "rotation": [
        -3.2058542487334307e-09,
        4.180678470078192e-09,
        0.13083870708942413,
        0.9914036393165588
      ],
      "scale": [
        0.9999999403953552,
        -2.1442581044084363e-09,
        9.128379829803634e-09
      ],
      "translation": [
        3.0855941772460938,
        1.52587890625e-05,
        -1.9073486328125e-06
      ]
    },
    {
      "children": [
        43
      ],
      "name": "Bip01 R Finger22",
      "rotation": [
        -7.3865327188116225e-09,
        1.1198496864195997e-16,
        0.13083870708942413,
        0.9914036393165588
      ],
      "scale": [
        0.9999999403953552,
        -1.5463111679991925e-08,
        1.9328887379543858e-09
      ],
      "translation": [
        3.0856094360351563,
        -1.52587890625e-05,
        1.9073486328125e-06
      ]
    },
    {
      "name": "Bip01 R Finger2Nub",
      "rotation": [
        -5.551115123125783e-17,
        -3.725290076417309e-09,
        -7.450580596923828e-09,
        1.0
      ],
      "scale": [
        1.0,
        1.4901161193847656e-08,
        -7.450581485102248e-09
      ],
      "translation": [
        3.0855941772460938,
        0.0,
        -1.9073486328125e-06
      ]
    },
    {
      "children": [
        45
      ],
      "name": "Bip01 R Finger1",
      "rotation": [
        0.0031985866371542215,
        -0.06788016110658646,
        0.04112652689218521,
        0.9968403577804565
      ],
      "scale": [
        1.0,
        -9.962183966649718e-09,
        1.5695651001124133e-08
      ],
      "translation": [
        8.23690414428711,
        -0.8613967895507813,
        2.4590835571289063
      ]
    },
    {
      "children": [
        46
      ],
      "name": "Bip01 R Finger11",
      "rotation": [
        -1.0840803255085518e-10,
        -4.913596196587378e-10,
        0.11640219390392303,
        0.9932021498680115
      ],
      "scale": [
        1.0000001192092896,
        1.3781894736553113e-08,
        -9.50800993493317e-10
      ],
      "translation": [
        3.0103607177734375,
        0.0,
        2.86102294921875e-06
      ]
    },
    {
      "children": [
        47
      ],
      "name": "Bip01 R Finger12",
      "rotation": [
        5.9835816301756495e-09,
        -3.049518859654654e-09,
        0.11640219390392303,
        0.9932021498680115
      ],
      "scale": [
        0.9999998807907104,
        -2.8994710632446186e-08,
        7.450580596923828e-09
      ],
      "translation": [
        3.0103836059570313,
        7.62939453125e-06,
        -1.9073486328125e-06
      ]
    },
    {
      "name": "Bip01 R Finger1Nub",
      "rotation": [
        8.381903171539307e-09,
        5.587935447692871e-09,
        7.450580596923828e-09,
        1.0
      ],
      "scale": [
        1.0,
        1.4901161193847656e-08,
        -3.725290298461914e-09
      ],
      "translation": [
        3.0103759765625,
        0.0,
        9.5367431640625e-07
      ]
    },
    {
      "children": [
        49
      ],
      "name": "Bip01 R Finger0",
      "rotation": [
        -0.6828780770301819,
        -0.2569224238395691,
        -0.13452890515327454,
        0.6705000996589661
      ],
      "scale": [
        1.0000001192092896,
        3.5064566361597826e-08,
        2.8926475437174304e-08
      ],
      "translation": [
        0.5431480407714844,
        0.00774383544921875,
        2.551161766052246
      ]
    },
    {
      "children": [
        50
      ],
      "name": "Bip01 R Finger01",
      "rotation": [
        9.134461187443321e-09,
        -1.3065337256534804e-08,
        0.11640222370624542,
        0.9932021498680115
      ],
      "scale": [
        1.0,
        -5.798942126489237e-08,
        3.152505811954143e-08
      ],
      "translation": [
        3.795013427734375,
        -1.9073486328125e-06,
        -7.62939453125e-06
      ]
    },
    {
      "children": [
        51
      ],
      "name": "Bip01 R Finger02",
      "rotation": [
        -1.1157627710645102e-08,
        -2.3609102228761003e-08,
        0.11640220135450363,
        0.9932021498680115
      ],
      "scale": [
        0.9999999403953552,
        -2.6848333334328345e-08,
        1.530496795965064e-08
      ],
      "translation": [
        3.795013427734375,
        1.9073486328125e-06,
        0.0
      ]
    },
    {
      "name": "Bip01 R Finger0Nub",
      "rotation": [
        -9.313225746154785e-10,
        7.450580596923828e-09,
        0.0,
        1.0
      ],
      "scale": [
        1.0,
        1.862645149230957e-09,
        1.4901161193847656e-08
      ],
      "translation": [
        3.7950172424316406,
        0.0,
        7.62939453125e-06
      ]
    },
    {
      "children": [
        53,
        55
      ],
      "name": "Bip01 L Clavicle",
      "rotation": [
        0.5799686312675476,
        -0.0892895832657814,
        0.8024171590805054,
        0.10858380049467087
      ],
      "scale": [
        1.000000238418579,
        -7.356630860044788e-10,
        4.165273992384755e-08
      ],
      "translation": [
        -1.06243896484375,
        1.0819511413574219,
        2.8108513355255127
      ]
    },
    {
      "children": [
        54
      ],
      "name": "Bone01",
      "rotation": [
        0.7176151871681213,
        -0.1645348221063614,
        0.15742738544940948,
        0.658159077167511
      ],
      "scale": [
        1.0000004768371582,
        -1.223237262593102e-07,
        5.4038862273841914e-09
      ],
      "translation": [
        5.556026458740234,
        -0.32680654525756836,
        0.830352783203125
      ]
    },
    {
      "name": "Bone02",
      "rotation": [
        -3.552713678800501e-15,
        4.440891569105034e-16,
        -7.450580596923828e-09,
        1.0
      ],
      "scale": [
        1.0,
        0.0,
        4.440892098500626e-15
      ],
      "translation": [
        25.683956146240234,
        0.0,
        0.0
      ]
    },
    {
      "children": [
        56
      ],
      "name": "Bip01 L UpperArm",
      "rotation": [
        0.041231583803892136,
        0.11807733029127121,
        0.009625191800296307,
        0.9921013116836548
      ],
      "scale": [
        1.0,
        6.444792477466876e-10,
        -1.7402523866394404e-08
      ],
      "translation": [
        11.362140655517578,
        0.0,
        0.0
      ]
    },
    {
      "children": [
        57
      ],
      "name": "Bip01 L ForeArm",
      "rotation": [
        6.410084130159532e-10,
        2.9774735565979427e-08,
        -0.04301733896136284,
        0.9990743398666382
      ],
      "scale": [
        1.0,
        5.123319546385119e-09,
        -2.9857467609417654e-08
      ],
      "translation": [
        24.082992553710938,
        -2.384185791015625e-07,
        -7.62939453125e-06
      ]
    },
    {
      "children": [
        58,
        62,
        66
      ],
      "name": "Bip01 L Hand",
      "rotation": [
        -0.7058848142623901,
        -0.03647807240486145,
        -0.03644903376698494,
        0.7064470648765564
      ],
      "scale": [
        1.0,
        -3.812783422318944e-09,
        -1.5644369133482883e-09
      ],
      "translation": [
        24.08300018310547,
        0.0,
        7.62939453125e-06
      ]
    },
    {
      "children": [
        59
      ],
      "name": "Bip01 L Finger2",
      "rotation": [
        -0.08983656764030457,
        -0.004974633455276489,
        0.0555574856698513,
        0.9943932890892029
      ],
      "scale": [
        0.9999999403953552,
        -2.3961368000868788e-08,
        -5.01583130585459e-09
      ],
      "translation": [
        8.273910522460938,
        -0.691802978515625,
        1.2059059143066406
      ]
    },
    {
      "children": [
        60
      ],
      "name": "Bip01 L Finger21",
      "rotation": [
        -3.936972525764304e-09,
        -2.334044957308379e-09,
        0.13083870708942413,
        0.9914036393165588
      ],
      "scale": [
        1.0,
        -4.424507693556734e-08,
        -3.5977458789915318e-09
      ],
      "translation": [
        3.085601806640625,
        0.0,
        0.0
      ]
    },
    {
      "children": [
        61
      ],
      "name": "Bip01 L Finger22",
      "rotation": [
        9.74824443389366e-10,
        9.74824443389366e-10,
        0.13083870708942413,
        0.9914036393165588
      ],
      "scale": [
        0.9999999403953552,
        -3.092622335998385e-08,
        1.6578960426727463e-08
      ],
      "translation": [
        3.0856056213378906,
        0.0,
        -1.9073486328125e-06
      ]
    },
    {
      "name": "Bip01 L Finger2Nub",
      "rotation": [
        -1.862645149230957e-09,
        7.450580596923828e-09,
        -1.3877787807814457e-17,
        1.0
      ],
      "scale": [
        1.0,
        5.551115123125783e-17,
        0.0
      ],
      "translation": [
        3.085601806640625,
        -7.62939453125e-06,
        -1.9073486328125e-06
      ]
    },
    {
      "children": [
        63
      ],
      "name": "Bip01 L Finger1",
      "rotation": [
        -0.003198582911863923,
        0.06788016110658646,
        0.04112650081515312,
        0.9968403577804565
      ],
      "scale": [
        1.0,
        -4.172933287804881e-08,
        1.2735140053621308e-08
      ],
      "translation": [
        8.236907958984375,
        -0.8613967895507813,
        -2.4590823650360107
      ]
    },
    {
      "children": [
        64
      ],
      "name": "Bip01 L Finger11",
      "rotation": [
        -2.0667989542033638e-09,
        -5.33313304629246e-09,
        0.11640219390392303,
        0.9932021498680115
      ],
      "scale": [
        1.0,
        4.27766053689993e-08,
        -2.6620186055481554e-09
      ],
      "translation": [
        3.010364532470703,
        -7.62939453125e-06,
        -9.5367431640625e-07
      ]
    },
    {
      "children": [
        65
      ],
      "name": "Bip01 L Finger12",
      "rotation": [
        -4.567230149632451e-09,
        7.833564019676942e-09,
        0.11640222370624542,
        0.9932021498680115
      ],
      "scale": [
        1.0,
        -1.5212812343179394e-08,
        -1.3178426350179961e-08
      ],
      "translation": [
        3.0103912353515625,
        0.0,
        2.86102294921875e-06
      ]
    },
    {
      "name": "Bip01 L Finger1Nub",
      "rotation": [
        -2.7939679458910405e-09,
        5.587935447692871e-09,
        0.0,
        1.0
      ],
      "scale": [
        0.9999999403953552,
        -2.9802320611338473e-08,
        3.7252894102834944e-09
      ],
      "translation": [
        3.0103721618652344,
        0.0,
        -9.5367431640625e-07
      ]
    },
    {
      "children": [
        67
      ],
      "name": "Bip01 L Finger0",
      "rotation": [
        0.6828780770301819,
        0.2569223940372467,
        -0.13452893495559692,
        0.6705000996589661
      ],
      "scale": [
        0.9999999403953552,
        2.1433455899000364e-08,
        -3.670124115728868e-08
      ],
      "translation": [
        0.5431480407714844,
        0.00774383544921875,
        -2.551161050796509
      ]
    },
    {
      "children": [
        68
      ],
      "name": "Bip01 L Finger01",
      "rotation": [
        -4.567230149632451e-09,
        6.966300425403915e-09,
        0.11640220135450363,
        0.9932021498680115
      ],
      "scale": [
        1.0,
        -2.9710170323937746e-08,
        -1.4901161193847656e-08
      ],
      "translation": [
        3.795013427734375,
        -3.814697265625e-06,
        -7.62939453125e-06
      ]
    },
    {
      "children": [
        69
      ],
      "name": "Bip01 L Finger02",
      "rotation": [
        1.0117179982671587e-08,
        7.616748121108685e-09,
        0.11640220135450363,
        0.9932021498680115
      ],
      "scale": [
        1.0,
        7.154594139358039e-10,
        1.2774618696198559e-08
      ],
      "translation": [
        3.7950210571289063,
        3.814697265625e-06,
        0.0
      ]
    },
    {
      "name": "Bip01 L Finger0Nub",
      "rotation": [
        9.313225191043273e-10,
        7.450580596923828e-09,
        -4.6566128730773926e-09,
        1.0
      ],
      "scale": [
        1.0,
        7.450580596923828e-09,
        1.4901161193847656e-08
      ],
      "translation": [
        3.7950172424316406,
        4.76837158203125e-07,
        0.0
      ]
    },
    {
      "children": [
        71,
        77
      ],
      "name": "Bip01 Head",
      "rotation": [
        -6.110875694353979e-12,
        -2.7123627788228077e-08,
        0.009768256917595863,
        0.9999522566795349
      ],
      "scale": [
        1.0000001192092896,
        1.5831384203579546e-08,
        1.5840585136997487e-12
      ],
      "translation": [
        8.948715209960938,
        0.0,
        1.862645149230957e-09
      ]
    },
    {
      "children": [
        72
      ],
      "name": "Bip01 Ponytail1",
      "rotation": [
        1.9261924954355747e-12,
        -2.7727053293347126e-06,
        0.999677300453186,
        -0.025401543825864792
      ],
      "scale": [
        1.0000001192092896,
        -4.413062359986952e-09,
        -2.2762621323425825e-14
      ],
      "translation": [
        16.320892333984375,
        -17.09018325805664,
        0.03138930723071098
      ]
    },
    {
      "children": [
        73
      ],
      "name": "Bip01 Ponytail11",
      "rotation": [
        -7.171864386818893e-15,
        3.766506608826603e-07,
        -0.13579846918582916,
        0.9907364845275879
      ],
      "scale": [
        1.0000001192092896,
        -1.603840082964325e-08,
        4.901162686961856e-14
      ],
      "translation": [
        12.65704345703125,
        -0.00971221923828125,
        -2.6542693376541138e-08
      ]
    },
    {
      "children": [
        74
      ],
      "name": "Bip01 Ponytail12",
      "rotation": [
        -8.887748367741107e-16,
        1.0159112662222469e-07,
        -0.03662789240479469,
        0.9993289709091187
      ],
      "scale": [
        1.0000001192092896,
        -7.430588144785588e-09,
        -1.9980932937390707e-14
      ],
      "translation": [
        12.658981323242188,
        -0.010051727294921875,
        -2.7939677238464355e-08
      ]
    },
    {
      "children": [
        75
      ],
      "name": "Bip01 Ponytail13",
      "rotation": [
        1.1475606435159408e-13,
        -4.41036256404459e-08,
        0.015901217237114906,
        0.9998735785484314
      ],
      "scale": [
        1.0000001192092896,
        9.342145723678641e-09,
        4.355889970551405e-14
      ],
      "translation": [
        12.660079956054688,
        -0.010073661804199219,
        -2.7939677238464355e-08
      ]
    },
    {
      "children": [
        76
      ],
      "name": "Bip01 Ponytail14",
      "rotation": [
        2.282223889038537e-13,
        -6.945380448541982e-08,
        0.02504103071987629,
        0.9996864199638367
      ],
      "scale": [
        1.0000001192092896,
        -8.177668320286102e-09,
        -1.851985023128798e-14
      ],
      "translation": [
        12.660247802734375,
        -0.010068893432617188,
        -2.7939677238464355e-08
      ]
    },
    {
      "name": "Bip01 Ponytail1Nub",
      "rotation": [
        0.7073882222175598,
        0.7068251967430115,
        9.80225195235107e-07,
        -9.810059964365792e-07
      ],
      "scale": [
        1.0,
        3.6709461859185666e-11,
        -8.242093395586722e-14
      ],
      "translation": [
        12.659751892089844,
        1.9073486328125e-06,
        0.0
      ]
    },
    {
      "name": "Bip01 HeadNub",
      "rotation": [
        5.684341886080802e-14,
        0.0,
        -1.6155873264856266e-27,
        1.0
      ],
      "scale": [
        1.0,
        -2.827277291719112e-27,
        -5.6843415472676226e-14
      ],
      "translation": [
        20.872726440429688,
        3.814697265625e-06,
        0.0
      ]
    }
  ],
  "scene": 0,
  "scenes": [
    {
      "nodes": [
        0
      ]
    }
  ],
  "skins": [
    {
      "inverseBindMatrices": 4,
      "joints": [
        2,
        3,
        4,
        5,
        6,
        7,
        8,
        9,
        10,
        11,
        12,
        13,
        14,
        15,
        16,
        17,
        18,
        19,
        20,
        21,
        22,
        23,
        24,
        25,
        26,
        27,
        28,
        29,
        30,
        31,
        32,
        33,
        34,
        35,
        36,
        37,
        38,
        39,
        40,
        41,
        42,
        43,
        44,
        45,
        46,
        47,
        48,
        49,
        50,
        51,
        52,
        53,
        54,
        55,
        56,
        57,
        58,
        59,
        60,
        61,
        62,
        63,
        64,
        65,
        66,
        67,
        68,
        69,
        70,
        71,
        72,
        73,
        74,
        75,
        76,
        77
      ],
      "skeleton": 2
    }
  ]
}
