{
  "accessors": [
    {
      "bufferView": 0,
      "componentType": 5126,
      "count": 590,
      "max": [
        13.389569282531738,
        14.01474380493164,
        169.89462280273438
      ],
      "min": [
        -13.389566421508789,
        -12.051166534423828,
        141.19859313964844
      ],
      "type": "VEC3"
    },
    {
      "bufferView": 1,
      "componentType": 5126,
      "count": 590,
      "type": "VEC3"
    },
    {
      "bufferView": 2,
      "componentType": 5126,
      "count": 590,
      "type": "VEC2"
    },
    {
      "bufferView": 3,
      "componentType": 5123,
      "count": 2280,
      "type": "SCALAR"
    },
    {
      "bufferView": 4,
      "componentType": 5126,
      "count": 12,
      "type": "MAT4"
    }
  ],
  "asset": {
    "generator": "gr2togltf (ANKA2 Project)",
    "version": "2.0"
  },
  "bufferViews": [
    {
      "buffer": 0,
      "byteLength": 7080,
      "target": 34962
    },
    {
      "buffer": 0,
      "byteLength": 7080,
      "byteOffset": 7080,
      "target": 34962
    },
    {
      "buffer": 0,
      "byteLength": 4720,
      "byteOffset": 14160,
      "target": 34962
    },
    {
      "buffer": 0,
      "byteLength": 4560,
      "byteOffset": 18880,
      "target": 34963
    },
    {
      "buffer": 0,
      "byteLength": 768,
      "byteOffset": 23440
    }
  ],
  "buffers": [
    {
      "byteLength": 24208,
      "uri": "data:application/octet-stream;base64,"
    }
  ],
  "materials": [
    {
      "name": "default",
      "pbrMetallicRoughness": {
        "baseColorFactor": [
          0.8,
          0.8,
          0.8,
          1.0
        ],
        "metallicFactor": 0.0,
        "roughnessFactor": 0.8
      }
    }
  ],
  "meshes": [
    {
      "name": "hair_96",
      "primitives": [
        {
          "attributes": {
            "NORMAL": 1,
            "POSITION": 0,
            "TEXCOORD_0": 2
          },
          "indices": 3,
          "material": 0,
          "mode": 4
        }
      ]
    }
  ],
  "nodes": [
    {
      "children": [
        1,
        2
      ]
    },
    {
      "mesh": 0,
      "name": "hair_96",
      "skin": 0
    },
    {
      "children": [
        3
      ],
      "name": "Bip01",
      "rotation": [
        0.0,
        0.0,
        0.0,
        1.0000001192092896
      ],
      "scale": [
        1.0,
        0.0,
        0.0
      ],
      "translation": [
        7.152557373046875e-07,
        1.4901161193847656e-08,
        0.0
      ]
    },
    {
      "children": [
        4
      ],
      "name": "Bip01 Pelvis",
      "rotation": [
        -0.499999463558197,
        -0.5000001788139343,
        -0.5000001788139343,
        0.500000536441803
      ],
      "scale": [
        1.0,
        0.0,
        0.0
      ],
      "translation": [
        2.5834147930145264,
        0.0812615379691124,
        0.0
      ]
    },
    {
      "children": [
        5
      ],
      "name": "Bip01 Spine",
      "rotation": [
        2.1985185867379187e-06,
        0.0004582926630973816,
        -0.008512726053595543,
        0.9999637603759766
      ],
      "scale": [
        1.0,
        1.259041981782616e-09,
        1.1641532182693481e-10
      ],
      "translation": [
        9.231704711914063,
        -0.006681759841740131,
        1.2808945029973984e-05
      ]
    },
    {
      "children": [
        6
      ],
      "name": "Bip01 Spine1",
      "rotation": [
        6.106500396486914e-14,
        -5.8207816344690855e-09,
        0.002098020166158676,
        0.9999977946281433
      ],
      "scale": [
        1.0,
        -1.3969838619232178e-09,
        5.820499637820831e-11
      ],
      "translation": [
        8.398162841796875,
        -0.010102152824401855,
        -2.2351741790771484e-08
      ]
    },
    {
      "children": [
        7
      ],
      "name": "Bip01 Spine2",
      "rotation": [
        9.880249830090948e-13,
        9.602746331438539e-08,
        -0.034630581736564636,
        0.9994001984596252
      ],
      "scale": [
        1.0,
        7.450581485102248e-09,
        8.72688588060555e-11
      ],
      "translation": [
        12.686180114746094,
        -0.010077714920043945,
        -1.4901161193847656e-08
      ]
    },
    {
      "children": [
        8
      ],
      "name": "Bip01 Neck",
      "rotation": [
        -3.473227843642235e-05,
        -0.0004580979875754565,
        0.13992175459861755,
        0.9901624321937561
      ],
      "scale": [
        0.9999999403953552,
        1.2125275361540844e-07,
        9.225914254784584e-08
      ],
      "translation": [
        14.334159851074219,
        -3.440770149230957,
        -3.1515955924987793e-06
      ]
    },
    {
      "children": [
        9
      ],
      "name": "Bip01 Head",
      "rotation": [
        -1.5613477444276214e-07,
        3.536259640668504e-08,
        0.009768287651240826,
        0.9999522566795349
      ],
      "scale": [
        1.0000001192092896,
        -1.4714893836753618e-07,
        -9.256365984811055e-08
      ],
      "translation": [
        8.94873046875,
        0.0,
        0.0
      ]
    },
    {
      "children": [
        10
      ],
      "name": "Bip01 Ponytail1",
      "rotation": [
        1.9119766533903793e-12,
        -2.772705101961037e-06,
        0.9996773600578308,
        -0.02540152333676815
      ],
      "scale": [
        1.0,
        7.808638718270755e-13,
        -5.684341886080802e-14
      ],
      "translation": [
        16.320892333984375,
        -17.09018325805664,
        0.031389594078063965
      ]
    },
    {
      "children": [
        11
      ],
      "name": "Bip01 Ponytail11",
      "rotation": [
        2.2591372945534455e-13,
        3.766511156300112e-07,
        -0.1357986330986023,
        0.9907364845275879
      ],
      "scale": [
        1.0,
        7.634667095572645e-14,
        0.0
      ],
      "translation": [
        12.657058715820313,
        -0.00971221923828125,
        -2.6542693376541138e-08
      ]
    },
    {
      "children": [
        12
      ],
      "name": "Bip01 Ponytail12",
      "rotation": [
        -4.443874183870553e-16,
        1.0159089214312189e-07,
        -0.03662780299782753,
        0.9993289709091187
      ],
      "scale": [
        0.9999999403953552,
        1.5110835903747407e-15,
        0.0
      ],
      "translation": [
        12.65899658203125,
        -0.010051727294921875,
        -2.8405338525772095e-08
      ]
    },
    {
      "children": [
        13
      ],
      "name": "Bip01 Ponytail13",
      "rotation": [
        2.277355550233534e-13,
        -4.410441434288259e-08,
        0.015901511535048485,
        0.9998735785484314
      ],
      "scale": [
        1.0,
        3.725290076417309e-09,
        -2.1316282072803006e-14
      ],
      "translation": [
        12.660064697265625,
        -0.010076522827148438,
        -2.7474015951156616e-08
      ]
    },
    {
      "name": "Bip01 Ponytail14",
      "rotation": [
        6.663427142757105e-16,
        -6.945291630700012e-08,
        0.025040702894330025,
        0.9996864199638367
      ],
      "scale": [
        1.0,
        -4.829296938881717e-16,
        1.4210854715202004e-14
      ],
      "translation": [
        12.660255432128906,
        -0.010066032409667969,
        -2.7939677238464355e-08
      ]
    }
  ],
  "scene": 0,
  "scenes": [
    {
      "nodes": [
        0
      ]
    }
  ],
  "skins": [
    {
      "inverseBindMatrices": 4,
      "joints": [
        2,
        3,
        4,
        5,
        6,
        7,
        8,
        9,
        10,
        11,
        12,
        13
      ],
      "skeleton": 2
    }
  ]
}
