{
  "accessors": [
    {
      "bufferView": 0,
      "componentType": 5126,
      "count": 361,
      "max": [
        166.74942016601563,
        166.4940948486328,
        167.672607421875
      ],
      "min": [
        -10.89195728302002,
        -10.051426887512207,
        -10.569167137145996
      ],
      "type": "VEC3"
    },
    {
      "bufferView": 1,
      "componentType": 5126,
      "count": 361,
      "type": "VEC3"
    },
    {
      "bufferView": 2,
      "componentType": 5126,
      "count": 361,
      "type": "VEC2"
    },
    {
      "bufferView": 3,
      "componentType": 5123,
      "count": 1206,
      "type": "SCALAR"
    },
    {
      "bufferView": 4,
      "componentType": 5126,
      "count": 78,
      "type": "MAT4"
    }
  ],
  "asset": {
    "generator": "gr2togltf (ANKA2 Project)",
    "version": "2.0"
  },
  "bufferViews": [
    {
      "buffer": 0,
      "byteLength": 4332,
      "target": 34962
    },
    {
      "buffer": 0,
      "byteLength": 4332,
      "byteOffset": 4332,
      "target": 34962
    },
    {
      "buffer": 0,
      "byteLength": 2888,
      "byteOffset": 8664,
      "target": 34962
    },
    {
      "buffer": 0,
      "byteLength": 2412,
      "byteOffset": 11552,
      "target": 34963
    },
    {
      "buffer": 0,
      "byteLength": 4992,
      "byteOffset": 13964
    }
  ],
  "buffers": [
    {
      "byteLength": 18956,
      "uri": "data:application/octet-stream;base64,"
    }
  ],
  "materials": [
    {
      "name": "default",
      "pbrMetallicRoughness": {
        "baseColorFactor": [
          0.8,
          0.8,
          0.8,
          1.0
        ],
        "metallicFactor": 0.0,
        "roughnessFactor": 0.8
      }
    }
  ],
  "meshes": [
    {
      "name": "hair_02:Layer_2",
      "primitives": [
        {
          "attributes": {
            "NORMAL": 1,
            "POSITION": 0,
            "TEXCOORD_0": 2
          },
          "indices": 3,
          "material": 0,
          "mode": 4
        }
      ]
    }
  ],
  "nodes": [
    {
      "children": [
        1,
        2
      ]
    },
    {
      "mesh": 0,
      "name": "hair_02:Layer_2",
      "skin": 0
    },
    {
      "children": [
        3
      ],
      "name": "Bip01",
      "rotation": [
        0.0,
        0.0,
        1.2687824124668623e-08,
        1.0
      ],
      "scale": [
        0.9999997019767761,
        -1.3359980981751673e-13,
        0.0
      ],
      "translation": [
        0.0,
        0.0,
        0.0
      ]
    },
    {
      "children": [
        4
      ],
      "name": "Bip01 Pelvis",
      "rotation": [
        -0.4999993145465851,
        -0.5,
        -0.5,
        0.5000006556510925
      ],
      "scale": [
        1.0,
        5.1399245505243465e-20,
        8.265705963650741e-14
      ],
      "translation": [
        -0.4305543601512909,
        -0.013546023517847061,
        0.0
      ]
    },
    {
      "children": [
        5,
        8,
        11,
        14,
        17,
        22,
        27
      ],
      "name": "Bip01 Spine",
      "rotation": [
        2.199635446231696e-06,
        0.00045840319944545627,
        -0.008512725122272968,
        0.999963641166687
      ],
      "scale": [
        1.0000001192092896,
        7.58310914061866e-10,
        7.217462738573488e-11
      ],
      "translation": [
        9.231704711914063,
        -0.006681745406240225,
        1.2809181498596445e-05
      ]
    },
    {
      "children": [
        6
      ],
      "name": "F_01",
      "rotation": [
        -0.0004578382067847997,
        -3.1469044188270345e-05,
        0.9976655840873718,
        0.06828779727220535
      ],
      "scale": [
        0.9999998211860657,
        2.0930954747200303e-08,
        -1.0794908716915685e-10
      ],
      "translation": [
        2.9761555194854736,
        9.141227722167969,
        -0.0031200738158077
      ]
    },
    {
      "children": [
        7
      ],
      "name": "F_02",
      "rotation": [
        6.81325604793984e-15,
        -3.553722071524207e-15,
        0.023484060540795326,
        0.9997242093086243
      ],
      "scale": [
        1.0,
        2.7987461237444222e-09,
        -3.560352645435314e-15
      ],
      "translation": [
        19.174602508544922,
        3.1768634016771102e-06,
        3.499593503875076e-07
      ]
    },
    {
      "name": "F_03",
      "rotation": [
        -3.570121052899524e-15,
        1.0099682049881376e-15,
        -8.625232794656768e-08,
        1.0
      ],
      "scale": [
        1.0,
        1.8474111129762605e-13,
        -1.4010672877678553e-14
      ],
      "translation": [
        15.03084945678711,
        -5.587626674241619e-06,
        2.4417559529865684e-07
      ]
    },
    {
      "children": [
        9
      ],
      "name": "L_01",
      "rotation": [
        0.12969960272312164,
        0.6951155662536621,
        0.6927961111068726,
        -0.14151300489902496
      ],
      "scale": [
        0.9999998807907104,
        1.7211890801505092e-09,
        4.022472910314434e-10
      ],
      "translation": [
        3.682666301727295,
        0.06954881548881531,
        10.391955375671387
      ]
    },
    {
      "children": [
        10
      ],
      "name": "L_02",
      "rotation": [
        7.191283679652827e-10,
        1.914909297795475e-08,
        -0.03752853348851204,
        0.9992955327033997
      ],
      "scale": [
        1.0000001192092896,
        -8.941196227851833e-09,
        5.982733996289012e-16
      ],
      "translation": [
        19.448835372924805,
        4.9537757149664685e-06,
        -7.873031790950336e-07
      ]
    },
    {
      "name": "L_03",
      "rotation": [
        4.1536500970760105e-15,
        4.1173255126494834e-16,
        -4.102456152565992e-09,
        1.0
      ],
      "scale": [
        1.0,
        -5.3290705182007514e-14,
        -1.3591278066372742e-14
      ],
      "translation": [
        16.96139907836914,
        -4.468309725780273e-06,
        -8.835305534068971e-13
      ]
    },
    {
      "children": [
        12
      ],
      "name": "B_01",
      "rotation": [
        -0.00044975493801757693,
        9.231100557371974e-05,
        0.9794315099716187,
        -0.20177632570266724
      ],
      "scale": [
        0.9999999403953552,
        2.3452230379916728e-08,
        -8.477042678922686e-11
      ],
      "translation": [
        5.9194560050964355,
        -6.957294464111328,
        -0.00042892410419881344
      ]
    },
    {
      "children": [
        13
      ],
      "name": "B_02",
      "rotation": [
        9.45784283409943e-17,
        3.8937614894357555e-16,
        -0.08116272836923599,
        0.9967008829116821
      ],
      "scale": [
        1.0000001192092896,
        -9.643430942674058e-09,
        -7.482929931038865e-16
      ],
      "translation": [
        16.875202178955078,
        -0.00030638318276032805,
        1.7839467750246918e-11
      ]
    },
    {
      "name": "B_03",
      "rotation": [
        8.416025173854993e-14,
        -1.4653294853547716e-12,
        3.4900988765684815e-08,
        1.0
      ],
      "scale": [
        1.0000001192092896,
        8.375799609439127e-09,
        4.885352539174548e-12
      ],
      "translation": [
        23.14419174194336,
        1.3786832823825534e-05,
        1.6366966804071126e-07
      ]
    },
    {
      "children": [
        15
      ],
      "name": "R_01",
      "rotation": [
        0.1303357481956482,
        0.6949857473373413,
        -0.6926763653755188,
        0.14215093851089478
      ],
      "scale": [
        0.9999997019767761,
        6.604773972185285e-08,
        -1.1391472209965059e-09
      ],
      "translation": [
        3.701683759689331,
        0.06956273317337036,
        -10.31881046295166
      ]
    },
    {
      "children": [
        16
      ],
      "name": "R_02",
      "rotation": [
        7.19144299665686e-10,
        1.914909653066843e-08,
        -0.03752853348851204,
        0.9992955327033997
      ],
      "scale": [
        1.0000001192092896,
        -1.6370790945074987e-08,
        -1.0728960031753336e-16
      ],
      "translation": [
        19.448837280273438,
        1.3072472029307391e-06,
        -7.873037475292222e-07
      ]
    },
    {
      "name": "R_03",
      "rotation": [
        -2.1895697924987625e-15,
        2.440278892331386e-16,
        -9.3768592890342e-10,
        1.0
      ],
      "scale": [
        0.9999999403953552,
        4.1085837091173454e-15,
        -2.197844033844016e-15
      ],
      "translation": [
        16.961397171020508,
        -2.7370892894396093e-06,
        -1.7431970580558676e-13
      ]
    },
    {
      "children": [
        18
      ],
      "name": "Bip01 R Thigh",
      "rotation": [
        -0.0017406425904482603,
        0.9993849396705627,
        -0.012854009866714478,
        0.032579727470874786
      ],
      "scale": [
        0.9999999403953552,
        -1.2780442260051927e-09,
        2.0808210710043795e-09
      ],
      "translation": [
        -9.223104476928711,
        -0.15046696364879608,
        -8.036139488220215
      ]
    },
    {
      "children": [
        19
      ],
      "name": "Bip01 R Calf",
      "rotation": [
        -1.4055061281492698e-10,
        -4.325780622593811e-09,
        -0.09983321279287338,
        0.9950041770935059
      ],
      "scale": [
        0.9999999403953552,
        7.287417356019709e-18,
        9.081658980392149e-09
      ],
      "translation": [
        40.13832092285156,
        7.354901754297316e-08,
        6.099652409830014e-07
      ]
    },
    {
      "children": [
        20
      ],
      "name": "Bip01 R Foot",
      "rotation": [
        0.06932653486728668,
        0.0384238064289093,
        0.09007468074560165,
        0.9927759170532227
      ],
      "scale": [
        0.9999999403953552,
        -7.467217955081651e-09,
        5.254814361421722e-10
      ],
      "translation": [
        40.13832092285156,
        4.2717567794170463e-07,
        4.441412784217391e-07
      ]
    },
    {
      "children": [
        21
      ],
      "name": "Bip01 R Toe0",
      "rotation": [
        1.1500539187636605e-08,
        1.940808047606879e-08,
        0.7071067690849304,
        0.7071067690849304
      ],
      "scale": [
        0.9999999403953552,
        3.063891176698281e-15,
        -2.236588692028363e-09
      ],
      "translation": [
        13.162713050842285,
        12.053354263305664,
        -4.3161713847439387e-07
      ]
    },
    {
      "name": "Bip01 R Toe0Nub",
      "rotation": [
        1.1784398818234657e-15,
        -6.307335764788036e-10,
        -2.4113820986380093e-15,
        1.0
      ],
      "scale": [
        1.0,
        -3.926063355577094e-15,
        2.9976021664879227e-15
      ],
      "translation": [
        10.604897499084473,
        1.377010172554094e-10,
        2.986725178288907e-08
      ]
    },
    {
      "children": [
        23
      ],
      "name": "Bip01 L Thigh",
      "rotation": [
        -0.0017525135772302747,
        0.9994144439697266,
        0.01285453513264656,
        -0.03166205435991287
      ],
      "scale": [
        0.9999999403953552,
        -1.4084262645042145e-09,
        -1.5932014596486965e-09
      ],
      "translation": [
        -9.237847328186035,
        -0.15049976110458374,
        8.019187927246094
      ]
    },
    {
      "children": [
        24
      ],
      "name": "Bip01 L Calf",
      "rotation": [
        -3.1718966342353383e-10,
        3.1038085435142193e-09,
        -0.09983321279287338,
        0.9950041770935059
      ],
      "scale": [
        1.0,
        2.7625404186437663e-09,
        -8.053119060491554e-09
      ],
      "translation": [
        40.13832092285156,
        3.026511308235058e-08,
        9.350476659619744e-08
      ]
    },
    {
      "children": [
        25
      ],
      "name": "Bip01 L Foot",
      "rotation": [
        -0.06932644546031952,
        -0.038423795253038406,
        0.09007467329502106,
        0.9927759170532227
      ],
      "scale": [
        1.0,
        -1.1425930424024955e-08,
        -8.162617248785864e-10
      ],
      "translation": [
        40.13832092285156,
        -2.7998370910609083e-07,
        -6.335104671961744e-07
      ]
    },
    {
      "children": [
        26
      ],
      "name": "Bip01 L Toe0",
      "rotation": [
        -1.5900480931918537e-08,
        -1.5008138731786858e-08,
        0.7071067094802856,
        0.7071067690849304
      ],
      "scale": [
        1.0,
        2.487576735650033e-15,
        -5.551115123125783e-16
      ],
      "translation": [
        13.162713050842285,
        12.05335521697998,
        2.8370452653803113e-08
      ]
    },
    {
      "name": "Bip01 L Toe0Nub",
      "rotation": [
        -2.152947581870394e-16,
        6.309822664363196e-10,
        1.5145343496622955e-16,
        1.0
      ],
      "scale": [
        1.0,
        -1.1426027648580835e-15,
        1.3322676295501878e-15
      ],
      "translation": [
        10.604897499084473,
        -1.5071693892920734e-11,
        -1.8896940900958725e-07
      ]
    },
    {
      "children": [
        28
      ],
      "name": "Bip01 Spine1",
      "rotation": [
        3.0396412925744187e-13,
        -5.833185046100198e-09,
        0.002097885124385357,
        0.9999977946281433
      ],
      "scale": [
        1.0,
        1.1814011990907147e-09,
        4.8826456766626336e-11
      ],
      "translation": [
        8.398159980773926,
        -0.010102195665240288,
        -3.602569620397844e-08
      ]
    },
    {
      "children": [
        29,
        31,
        33
      ],
      "name": "Bip01 Spine2",
      "rotation": [
        -4.547980915481364e-13,
        9.607657602828112e-08,
        -0.03463052213191986,
        0.9994001984596252
      ],
      "scale": [
        0.9999999403953552,
        -3.306904972077973e-09,
        -1.2054899613256342e-11
      ],
      "translation": [
        12.686182022094727,
        -0.01007755845785141,
        -1.8122959133393124e-08
      ]
    },
    {
      "children": [
        30
      ],
      "name": "Bone07",
      "rotation": [
        -0.13934281468391418,
        0.09060375392436981,
        0.7841300368309021,
        0.5979253649711609
      ],
      "scale": [
        0.9999996423721313,
        -5.209455977706057e-09,
        1.6830856708338615e-08
      ],
      "translation": [
        4.191433906555176,
        3.2420263290405273,
        -4.37860107421875
      ]
    },
    {
      "name": "Bone08",
      "rotation": [
        -3.895138434018008e-09,
        -9.916643506358014e-09,
        -6.294287313579616e-09,
        1.0
      ],
      "scale": [
        0.4212566018104553,
        2.890223171903017e-09,
        -6.959691045693717e-09
      ],
      "translation": [
        9.775654792785645,
        -4.611225904227467e-06,
        9.315648981100821e-07
      ]
    },
    {
      "children": [
        32
      ],
      "name": "Bone05",
      "rotation": [
        0.11136461794376373,
        -0.0754280537366867,
        0.7880299687385559,
        0.6007639169692993
      ],
      "scale": [
        1.0000001192092896,
        1.8359347819796312e-08,
        -1.3475894178327508e-08
      ],
      "translation": [
        4.19143533706665,
        3.242016077041626,
        4.7433013916015625
      ]
    },
    {
      "name": "Bone06",
      "rotation": [
        1.1812105071840051e-07,
        9.862402805538295e-08,
        1.9973471765410977e-09,
        1.0
      ],
      "scale": [
        0.42125657200813293,
        3.867428599590994e-09,
        -2.182818592544322e-09
      ],
      "translation": [
        9.775649070739746,
        -1.2341480214672629e-05,
        -1.730426788526529e-07
      ]
    },
    {
      "children": [
        34,
        53,
        72
      ],
      "name": "Bip01 Neck",
      "rotation": [
        -3.490438393782824e-05,
        -0.00045816993224434555,
        0.13992168009281158,
        0.9901624917984009
      ],
      "scale": [
        1.0,
        -2.0756083074502385e-08,
        2.389395278856732e-11
      ],
      "translation": [
        14.33415699005127,
        -3.440769672393799,
        -3.436808810874936e-06
      ]
    },
    {
      "children": [
        35,
        37
      ],
      "name": "Bip01 R Clavicle",
      "rotation": [
        -0.579227089881897,
        0.08922633528709412,
        0.8029547929763794,
        0.1086195558309555
      ],
      "scale": [
        1.0000001192092896,
        8.33566105029604e-09,
        -1.0245292614285972e-08
      ],
      "translation": [
        -1.067467212677002,
        1.0830726623535156,
        -2.8085200786590576
      ]
    },
    {
      "children": [
        36
      ],
      "name": "Bone09",
      "rotation": [
        -0.7176151275634766,
        0.1645326465368271,
        0.15742915868759155,
        0.6581592559814453
      ],
      "scale": [
        0.9999999403953552,
        -2.230557960558599e-09,
        3.422390149054877e-11
      ],
      "translation": [
        5.556018352508545,
        -0.32675665616989136,
        -0.8303515911102295
      ]
    },
    {
      "name": "Bone10",
      "rotation": [
        -3.432053157837768e-14,
        7.0034827072342105e-15,
        9.744313134163463e-10,
        1.0
      ],
      "scale": [
        1.0,
        -1.161499785240494e-10,
        5.505397705643858e-14
      ],
      "translation": [
        25.683958053588867,
        -1.1726979209925048e-05,
        4.1685034091187845e-08
      ]
    },
    {
      "children": [
        38
      ],
      "name": "Bip01 R UpperArm",
      "rotation": [
        -0.04123350977897644,
        -0.11716580390930176,
        0.009602155536413193,
        0.9922095537185669
      ],
      "scale": [
        0.9999998211860657,
        -2.67207544979442e-09,
        2.0478504225707184e-08
      ],
      "translation": [
        11.362138748168945,
        -3.7777365946567443e-07,
        -5.307698302203789e-06
      ]
    },
    {
      "children": [
        39
      ],
      "name": "Bip01 R ForeArm",
      "rotation": [
        -5.824518645169974e-10,
        -2.7547709890995975e-08,
        -0.04301733896136284,
        0.9990743398666382
      ],
      "scale": [
        1.0,
        2.299686663320699e-09,
        1.1817259171209571e-08
      ],
      "translation": [
        24.08300018310547,
        -2.2741991756447533e-07,
        2.8055546863470227e-06
      ]
    },
    {
      "children": [
        40,
        41,
        45,
        49
      ],
      "name": "Bip01 R Hand",
      "rotation": [
        0.7058848142623901,
        0.03647806867957115,
        -0.03644903749227524,
        0.7064470648765564
      ],
      "scale": [
        1.0,
        -5.0896358239072015e-09,
        -4.51889503594316e-09
      ],
      "translation": [
        24.082998275756836,
        -9.99740663587545e-08,
        -2.2385563624993665e-06
      ]
    },
    {
      "name": "equip_right",
      "rotation": [
        7.661022038973897e-08,
        6.739631999153062e-07,
        -1.930245190351343e-07,
        1.0
      ],
      "scale": [
        1.000000238418579,
        -8.311612731404239e-09,
        6.277826258838104e-09
      ],
      "translation": [
        2.4170196056365967,
        -2.9430599212646484,
        -0.07772736996412277
      ]
    },
    {
      "children": [
        42
      ],
      "name": "Bip01 R Finger2",
      "rotation": [
        0.08983657509088516,
        0.004974639508873224,
        0.0555574968457222,
        0.9943932890892029
      ],
      "scale": [
        0.9999999403953552,
        2.5729855579470495e-08,
        5.190857743642141e-10
      ],
      "translation": [
        8.273906707763672,
        -0.6917946934700012,
        -1.2059062719345093
      ]
    },
    {
      "children": [
        43
      ],
      "name": "Bip01 R Finger21",
      "rotation": [
        -1.8557357872595048e-09,
        2.7999180751692165e-09,
        0.13083870708942413,
        0.9914036393165588
      ],
      "scale": [
        0.9999999403953552,
        -1.5463111679991925e-08,
        5.7280287180105915e-09
      ],
      "translation": [
        3.0856001377105713,
        -2.1315665890142554e-06,
        1.4931883640656451e-07
      ]
    },
    {
      "children": [
        44
      ],
      "name": "Bip01 R Finger22",
      "rotation": [
        -4.385298790765546e-09,
        5.514026124586735e-09,
        0.13083870708942413,
        0.9914036393165588
      ],
      "scale": [
        1.0,
        1.3318853575583489e-08,
        -1.6529279278643116e-08
      ],
      "translation": [
        3.085597515106201,
        -9.63610909821e-06,
        1.0960574172713677e-06
      ]
    },
    {
      "name": "Bip01 R Finger2Nub",
      "rotation": [
        -1.4353477295614425e-09,
        5.514234069359247e-10,
        -2.8772642046703822e-09,
        1.0
      ],
      "scale": [
        1.0,
        -5.961795501718825e-09,
        1.490446432939052e-09
      ],
      "translation": [
        3.085602045059204,
        1.4006717492520693e-06,
        -6.840089668003202e-07
      ]
    },
    {
      "children": [
        46
      ],
      "name": "Bip01 R Finger1",
      "rotation": [
        0.0031985838431864977,
        -0.06788016110658646,
        0.04112650081515312,
        0.9968403577804565
      ],
      "scale": [
        1.0,
        -7.464858953198927e-09,
        2.4090166306223182e-08
      ],
      "translation": [
        8.236912727355957,
        -0.8613980412483215,
        2.4590821266174316
      ]
    },
    {
      "children": [
        47
      ],
      "name": "Bip01 R Finger11",
      "rotation": [
        -2.248912833735517e-09,
        7.334924667645737e-09,
        0.11640217900276184,
        0.9932021498680115
      ],
      "scale": [
        1.0,
        7.154632997163901e-10,
        2.812776400684669e-10
      ],
      "translation": [
        3.0103647708892822,
        3.426345301704714e-06,
        2.207947545684874e-06
      ]
    },
    {
      "children": [
        48
      ],
      "name": "Bip01 R Finger12",
      "rotation": [
        1.4767327360942772e-09,
        -2.688857358990049e-09,
        0.11640219390392303,
        0.9932021498680115
      ],
      "scale": [
        1.0,
        -7.154605241588285e-10,
        -2.6405083675129504e-10
      ],
      "translation": [
        3.010383129119873,
        7.804695997037925e-06,
        -1.730899725771451e-06
      ]
    },
    {
      "name": "Bip01 R Finger1Nub",
      "rotation": [
        1.0588303567260482e-09,
        1.7172832045275754e-09,
        -2.3805997173553806e-09,
        1.0
      ],
      "scale": [
        1.0,
        5.324172214216105e-10,
        -2.669865217796996e-09
      ],
      "translation": [
        3.0103704929351807,
        -3.5628959267341997e-06,
        2.2482075223706488e-07
      ]
    },
    {
      "children": [
        50
      ],
      "name": "Bip01 R Finger0",
      "rotation": [
        -0.6828780770301819,
        -0.2569224238395691,
        -0.13452890515327454,
        0.6705000996589661
      ],
      "scale": [
        0.9999999403953552,
        1.1892423046333533e-08,
        1.4241688717220313e-08
      ],
      "translation": [
        0.5431512594223022,
        0.007746860384941101,
        2.5511608123779297
      ]
    },
    {
      "children": [
        51
      ],
      "name": "Bip01 R Finger01",
      "rotation": [
        -7.622513287230959e-09,
        -2.0116559529270717e-09,
        0.11640219390392303,
        0.9932021498680115
      ],
      "scale": [
        1.0,
        1.4497355316223093e-08,
        -9.832434422207825e-09
      ],
      "translation": [
        3.7950146198272705,
        -1.3318256151251262e-06,
        2.1027451566624222e-06
      ]
    },
    {
      "children": [
        52
      ],
      "name": "Bip01 R Finger02",
      "rotation": [
        -2.1136596917159522e-09,
        -1.0168847985880802e-08,
        0.11640218645334244,
        0.9932021498680115
      ],
      "scale": [
        1.0,
        -7.154615233595507e-10,
        8.61487237102665e-09
      ],
      "translation": [
        3.7950186729431152,
        9.388011221744819e-07,
        2.8196864150231704e-06
      ]
    },
    {
      "name": "Bip01 R Finger0Nub",
      "rotation": [
        -2.3101527357738405e-09,
        1.5077658233053626e-08,
        1.390517909150013e-11,
        1.0
      ],
      "scale": [
        1.0,
        -4.4885686834028604e-10,
        -9.401464495795153e-09
      ],
      "translation": [
        3.7950170040130615,
        1.926309778355062e-07,
        2.664062606072548e-07
      ]
    },
    {
      "children": [
        54,
        56
      ],
      "name": "Bip01 L Clavicle",
      "rotation": [
        0.5799686908721924,
        -0.08928947895765305,
        0.8024171590805054,
        0.10858368128538132
      ],
      "scale": [
        1.0000001192092896,
        -8.437388565596393e-09,
        6.058218104953994e-08
      ],
      "translation": [
        -1.0624293088912964,
        1.08194899559021,
        2.8108508586883545
      ]
    },
    {
      "children": [
        55
      ],
      "name": "Bone01",
      "rotation": [
        0.7176151871681213,
        -0.16453485190868378,
        0.15742740035057068,
        0.658159077167511
      ],
      "scale": [
        1.0,
        -1.6072471353822948e-08,
        2.1617139189800127e-09
      ],
      "translation": [
        5.556035995483398,
        -0.3268032968044281,
        0.8303576111793518
      ]
    },
    {
      "name": "Bone02",
      "rotation": [
        -3.677236839409303e-15,
        -2.066692205148239e-15,
        -3.145280480509882e-09,
        1.0
      ],
      "scale": [
        1.0,
        -1.021405182655144e-14,
        -2.5739565203363162e-15
      ],
      "translation": [
        25.683958053588867,
        -1.565002094139345e-05,
        2.627170658797695e-07
      ]
    },
    {
      "children": [
        57
      ],
      "name": "Bip01 L UpperArm",
      "rotation": [
        0.04123154655098915,
        0.11807729303836823,
        0.009625272825360298,
        0.9921013116836548
      ],
      "scale": [
        0.9999998807907104,
        1.429622864534963e-09,
        -2.6964059429701592e-08
      ],
      "translation": [
        11.362136840820313,
        -6.641558343289944e-07,
        1.2722333849524148e-05
      ]
    },
    {
      "children": [
        58
      ],
      "name": "Bip01 L ForeArm",
      "rotation": [
        6.702071675412924e-10,
        2.916165797728354e-08,
        -0.04301733896136284,
        0.9990743398666382
      ],
      "scale": [
        1.0,
        2.299686663320699e-09,
        -1.5055947599762476e-08
      ],
      "translation": [
        24.08300018310547,
        5.354594634354726e-08,
        -1.1567601632123115e-06
      ]
    },
    {
      "children": [
        59,
        60,
        64,
        68
      ],
      "name": "Bip01 L Hand",
      "rotation": [
        -0.7058848142623901,
        -0.036478061228990555,
        -0.03644902631640434,
        0.7064470648765564
      ],
      "scale": [
        1.0,
        -3.816698068703772e-09,
        2.45164133438891e-09
      ],
      "translation": [
        24.0830020904541,
        1.4657814517704537e-07,
        3.4563749977678526e-06
      ]
    },
    {
      "name": "equip_left",
      "rotation": [
        -5.210822564549744e-07,
        -1.1165662954226718e-06,
        -1.8223141751150251e-07,
        1.0
      ],
      "scale": [
        0.9999998807907104,
        -3.0616316593068404e-08,
        -2.6876113778939725e-08
      ],
      "translation": [
        -0.5002873539924622,
        -1.1329749822616577,
        0.2617054283618927
      ]
    },
    {
      "children": [
        61
      ],
      "name": "Bip01 L Finger2",
      "rotation": [
        -0.08983657509088516,
        -0.0049746353179216385,
        0.0555575005710125,
        0.9943932890892029
      ],
      "scale": [
        1.0,
        -2.534725762615153e-09,
        -1.9082948554682844e-09
      ],
      "translation": [
        8.273908615112305,
        -0.6917939186096191,
        1.2059063911437988
      ]
    },
    {
      "children": [
        62
      ],
      "name": "Bip01 L Finger21",
      "rotation": [
        7.282801584018728e-10,
        -1.549972039605052e-09,
        0.13083870708942413,
        0.9914036393165588
      ],
      "scale": [
        1.0,
        1.3318853575583489e-08,
        -2.9241642440780424e-09
      ],
      "translation": [
        3.085599660873413,
        4.953163625032175e-06,
        7.71485588302312e-07
      ]
    },
    {
      "children": [
        63
      ],
      "name": "Bip01 L Finger22",
      "rotation": [
        3.086181088463036e-09,
        9.031509429213713e-10,
        0.13083870708942413,
        0.9914036393165588
      ],
      "scale": [
        1.0,
        1.3318853575583489e-08,
        1.9822925523271806e-09
      ],
      "translation": [
        3.0855956077575684,
        -5.385526037571253e-06,
        -7.549340352852596e-07
      ]
    },
    {
      "name": "Bip01 L Finger2Nub",
      "rotation": [
        4.579128742854266e-10,
        -1.0352726453888295e-09,
        -2.3604329602022744e-09,
        1.0
      ],
      "scale": [
        1.0,
        1.0379912041003081e-08,
        2.3534243442924208e-09
      ],
      "translation": [
        3.085601568222046,
        5.834158855577698e-06,
        4.993900688532449e-07
      ]
    },
    {
      "children": [
        65
      ],
      "name": "Bip01 L Finger1",
      "rotation": [
        -0.0031985824462026358,
        0.06788016110658646,
        0.041126493364572525,
        0.9968403577804565
      ],
      "scale": [
        1.0,
        -1.7856544687333553e-08,
        6.305332256317797e-09
      ],
      "translation": [
        8.236907958984375,
        -0.8613942861557007,
        -2.4590823650360107
      ]
    },
    {
      "children": [
        66
      ],
      "name": "Bip01 L Finger11",
      "rotation": [
        3.443193952179513e-09,
        2.12413642231013e-09,
        0.11640217900276184,
        0.9932021498680115
      ],
      "scale": [
        1.0,
        -1.4497356204401513e-08,
        -6.519614625943859e-09
      ],
      "translation": [
        3.0103726387023926,
        -5.687501470674761e-06,
        -4.2209401840409555e-07
      ]
    },
    {
      "children": [
        67
      ],
      "name": "Bip01 L Finger12",
      "rotation": [
        9.009872292686794e-10,
        2.6255082552495423e-09,
        0.11640217900276184,
        0.9932021498680115
      ],
      "scale": [
        1.0000001192092896,
        7.154632442052389e-10,
        5.070510677995799e-09
      ],
      "translation": [
        3.0103814601898193,
        2.6107552457688143e-06,
        1.2671922604567953e-06
      ]
    },
    {
      "name": "Bip01 L Finger1Nub",
      "rotation": [
        -3.0939911743743664e-10,
        -3.1183944315671397e-09,
        -2.3760065026579014e-09,
        1.0
      ],
      "scale": [
        1.0,
        -2.465786330674291e-08,
        5.595980567818515e-09
      ],
      "translation": [
        3.010371446609497,
        -4.82761350895089e-08,
        -5.703849410565454e-07
      ]
    },
    {
      "children": [
        69
      ],
      "name": "Bip01 L Finger0",
      "rotation": [
        0.6828780770301819,
        0.2569223940372467,
        -0.13452893495559692,
        0.6705000996589661
      ],
      "scale": [
        0.9999999403953552,
        3.991046071405435e-08,
        -1.2208438704419677e-09
      ],
      "translation": [
        0.5431513786315918,
        0.007748423609882593,
        -2.5511608123779297
      ]
    },
    {
      "children": [
        70
      ],
      "name": "Bip01 L Finger01",
      "rotation": [
        -9.66537161417591e-09,
        8.518422411896154e-09,
        0.11640219390392303,
        0.9932021498680115
      ],
      "scale": [
        0.9999999403953552,
        2.8994710632446186e-08,
        -1.9494372782702385e-09
      ],
      "translation": [
        3.7950150966644287,
        -4.549712286916474e-07,
        -1.5222698266370571e-06
      ]
    },
    {
      "children": [
        71
      ],
      "name": "Bip01 L Finger02",
      "rotation": [
        9.398732903065365e-10,
        1.060480503412009e-08,
        0.11640219390392303,
        0.9932021498680115
      ],
      "scale": [
        1.0,
        1.4497355316223093e-08,
        3.685515892470903e-08
      ],
      "translation": [
        3.795017957687378,
        9.99435883386468e-07,
        9.370643851980276e-07
      ]
    },
    {
      "name": "Bip01 L Finger0Nub",
      "rotation": [
        1.1486902540269739e-09,
        -3.6544154369266835e-09,
        4.867306557798656e-11,
        1.0
      ],
      "scale": [
        1.0,
        -4.58370141842579e-09,
        8.699704068249048e-09
      ],
      "translation": [
        3.795015335083008,
        -2.657704953890061e-07,
        -1.28678448163555e-06
      ]
    },
    {
      "children": [
        73,
        79
      ],
      "name": "Bip01 Head",
      "rotation": [
        -1.0325567102189258e-14,
        -2.70956039827297e-08,
        0.0097684096544981,
        0.9999522566795349
      ],
      "scale": [
        1.0,
        -2.869204333071245e-17,
        -5.22657826103356e-15
      ],
      "translation": [
        8.948725700378418,
        -3.6080169252272754e-07,
        1.0913242531884748e-09
      ]
    },
    {
      "children": [
        74
      ],
      "name": "Bip01 Ponytail1",
      "rotation": [
        1.9190846828331942e-12,
        -2.7727053293347126e-06,
        0.999677300453186,
        -0.025401558727025986
      ],
      "scale": [
        1.0000001192092896,
        7.441746774361491e-09,
        1.9879072143285693e-14
      ],
      "translation": [
        16.320894241333008,
        -17.090187072753906,
        0.03138931095600128
      ]
    },
    {
      "children": [
        75
      ],
      "name": "Bip01 Ponytail11",
      "rotation": [
        -3.944525370398744e-14,
        3.7665068930436973e-07,
        -0.13579846918582916,
        0.9907364845275879
      ],
      "scale": [
        1.0,
        -1.603840082964325e-08,
        -1.586889257151891e-13
      ],
      "translation": [
        12.657039642333984,
        -0.009708604775369167,
        -2.6613877324166424e-08
      ]
    },
    {
      "children": [
        76
      ],
      "name": "Bip01 Ponytail12",
      "rotation": [
        -9.932058295377896e-14,
        1.0159110530594262e-07,
        -0.036627888679504395,
        0.9993289709091187
      ],
      "scale": [
        0.9999999403953552,
        1.2963210505034795e-09,
        1.044950411599856e-14
      ],
      "translation": [
        12.659005165100098,
        -0.010052675381302834,
        -2.813591848394026e-08
      ]
    },
    {
      "children": [
        77
      ],
      "name": "Bip01 Ponytail13",
      "rotation": [
        -6.767665177180235e-14,
        -4.410355458617232e-08,
        0.015901191160082817,
        0.9998735785484314
      ],
      "scale": [
        1.0000001192092896,
        1.8953298930313167e-09,
        3.252156573554932e-14
      ],
      "translation": [
        12.660056114196777,
        -0.010077486746013165,
        -2.7828964022091895e-08
      ]
    },
    {
      "children": [
        78
      ],
      "name": "Bip01 Ponytail14",
      "rotation": [
        2.687582517375397e-14,
        -6.945389685597547e-08,
        0.025041062384843826,
        0.9996864199638367
      ],
      "scale": [
        1.0,
        -4.829485403712482e-16,
        1.0105118307336854e-14
      ],
      "translation": [
        12.66025447845459,
        -0.010070808231830597,
        -2.8124112816385605e-08
      ]
    },
    {
      "name": "Bip01 Ponytail1Nub",
      "rotation": [
        0.7073882222175598,
        0.7068251967430115,
        9.80225195235107e-07,
        -9.810059964365792e-07
      ],
      "scale": [
        1.0,
        -1.0752130089053402e-11,
        8.289913487656911e-14
      ],
      "translation": [
        12.659743309020996,
        2.1187183847359847e-06,
        2.2442675495781828e-10
      ]
    },
    {
      "name": "Bip01 HeadNub",
      "rotation": [
        -5.060182026677242e-15,
        -6.136690175386362e-16,
        -8.226210823636393e-10,
        1.0
      ],
      "scale": [
        1.0,
        -4.2676973066591017e-13,
        4.6364470185497e-15
      ],
      "translation": [
        20.872730255126953,
        -4.114701539492671e-07,
        4.649126084110833e-10
      ]
    }
  ],
  "scene": 0,
  "scenes": [
    {
      "nodes": [
        0
      ]
    }
  ],
  "skins": [
    {
      "inverseBindMatrices": 4,
      "joints": [
        2,
        3,
        4,
        5,
        6,
        7,
        8,
        9,
        10,
        11,
        12,
        13,
        14,
        15,
        16,
        17,
        18,
        19,
        20,
        21,
        22,
        23,
        24,
        25,
        26,
        27,
        28,
        29,
        30,
        31,
        32,
        33,
        34,
        35,
        36,
        37,
        38,
        39,
        40,
        41,
        42,
        43,
        44,
        45,
        46,
        47,
        48,
        49,
        50,
        51,
        52,
        53,
        54,
        55,
        56,
        57,
        58,
        59,
        60,
        61,
        62,
        63,
        64,
        65,
        66,
        67,
        68,
        69,
        70,
        71,
        72,
        73,
        74,
        75,
        76,
        77,
        78,
        79
      ],
      "skeleton": 2
    }
  ]
}
