{
  "accessors": [
    {
      "bufferView": 0,
      "componentType": 5126,
      "count": 1038,
      "max": [
        12.8121976852417,
        29.662900924682617,
        178.4624786376953
      ],
      "min": [
        -13.529300689697266,
        -9.392105102539063,
        141.30960083007813
      ],
      "type": "VEC3"
    },
    {
      "bufferView": 1,
      "componentType": 5126,
      "count": 1038,
      "type": "VEC3"
    },
    {
      "bufferView": 2,
      "componentType": 5126,
      "count": 1038,
      "type": "VEC2"
    },
    {
      "bufferView": 3,
      "componentType": 5123,
      "count": 4902,
      "type": "SCALAR"
    },
    {
      "bufferView": 4,
      "componentType": 5126,
      "count": 7,
      "type": "MAT4"
    }
  ],
  "asset": {
    "generator": "gr2togltf (ANKA2 Project)",
    "version": "2.0"
  },
  "bufferViews": [
    {
      "buffer": 0,
      "byteLength": 12456,
      "target": 34962
    },
    {
      "buffer": 0,
      "byteLength": 12456,
      "byteOffset": 12456,
      "target": 34962
    },
    {
      "buffer": 0,
      "byteLength": 8304,
      "byteOffset": 24912,
      "target": 34962
    },
    {
      "buffer": 0,
      "byteLength": 9804,
      "byteOffset": 33216,
      "target": 34963
    },
    {
      "buffer": 0,
      "byteLength": 448,
      "byteOffset": 43020
    }
  ],
  "buffers": [
    {
      "byteLength": 43468,
      "uri": "data:application/octet-stream;base64,"
    }
  ],
  "materials": [
    {
      "name": "default",
      "pbrMetallicRoughness": {
        "baseColorFactor": [
          0.8,
          0.8,
          0.8,
          1.0
        ],
        "metallicFactor": 0.0,
        "roughnessFactor": 0.8
      }
    }
  ],
  "meshes": [
    {
      "name": "assassin_assassin3_hair",
      "primitives": [
        {
          "attributes": {
            "NORMAL": 1,
            "POSITION": 0,
            "TEXCOORD_0": 2
          },
          "indices": 3,
          "material": 0,
          "mode": 4
        }
      ]
    }
  ],
  "nodes": [
    {
      "children": [
        1,
        2
      ]
    },
    {
      "mesh": 0,
      "name": "assassin_assassin3_hair",
      "skin": 0
    },
    {
      "children": [
        3
      ],
      "name": "Bip01",
      "rotation": [
        0.0,
        0.0,
        0.0,
        0.9999999403953552
      ],
      "scale": [
        0.9999997019767761,
        -1.3359980981751673e-13,
        0.0
      ],
      "translation": [
        0.0,
        1.862645149230957e-09,
        0.0
      ]
    },
    {
      "children": [
        4
      ],
      "name": "Bip01 Pelvis",
      "rotation": [
        -0.4999993145465851,
        -0.5,
        -0.5,
        0.5000006556510925
      ],
      "scale": [
        1.0,
        5.1399245505243465e-20,
        8.265705963650741e-14
      ],
      "translation": [
        -0.4305456280708313,
        -0.01354575902223587,
        0.0
      ]
    },
    {
      "children": [
        5
      ],
      "name": "Bip01 Spine",
      "rotation": [
        2.199636128352722e-06,
        0.00045840319944545627,
        -0.008512724190950394,
        0.999963641166687
      ],
      "scale": [
        1.0000001192092896,
        2.6206861125643854e-09,
        7.218286385279882e-11
      ],
      "translation": [
        9.231704711914063,
        -0.006681768223643303,
        1.2808945029973984e-05
      ]
    },
    {
      "children": [
        6
      ],
      "name": "Bip01 Spine1",
      "rotation": [
        -2.578975715709225e-13,
        -5.80622616652704e-09,
        0.002097890479490161,
        0.9999977946281433
      ],
      "scale": [
        1.0,
        -1.3969715384476444e-09,
        -2.910163256208964e-11
      ],
      "translation": [
        8.398162841796875,
        -0.010102033615112305,
        -2.9802322387695313e-08
      ]
    },
    {
      "children": [
        7
      ],
      "name": "Bip01 Spine2",
      "rotation": [
        -1.0571222716637685e-12,
        9.602747041981274e-08,
        -0.03463052213191986,
        0.9994001984596252
      ],
      "scale": [
        1.0000001192092896,
        -8.188961175825682e-10,
        8.723841787849906e-11
      ],
      "translation": [
        12.686180114746094,
        -0.010077714920043945,
        -2.2351741790771484e-08
      ]
    },
    {
      "children": [
        8
      ],
      "name": "Bip01 Neck",
      "rotation": [
        -3.4904456697404385e-05,
        -0.00045816993224434555,
        0.1399218589067459,
        0.9901624321937561
      ],
      "scale": [
        1.0,
        -2.0756235841190573e-08,
        4.571118223523074e-12
      ],
      "translation": [
        14.334159851074219,
        -3.4407691955566406,
        -3.4421682357788086e-06
      ]
    },
    {
      "name": "Bip01 Head",
      "rotation": [
        -1.1490024209859229e-11,
        -2.7122478485352985e-08,
        0.009768249467015266,
        0.9999522566795349
      ],
      "scale": [
        1.0000001192092896,
        1.5831380650865867e-08,
        8.002747770019525e-13
      ],
      "translation": [
        8.948715209960938,
        0.0,
        1.862645149230957e-09
      ]
    }
  ],
  "scene": 0,
  "scenes": [
    {
      "nodes": [
        0
      ]
    }
  ],
  "skins": [
    {
      "inverseBindMatrices": 4,
      "joints": [
        2,
        3,
        4,
        5,
        6,
        7,
        8
      ],
      "skeleton": 2
    }
  ]
}
