{
  "accessors": [
    {
      "bufferView": 0,
      "componentType": 5126,
      "count": 446,
      "max": [
        10.747733116149902,
        11.60685920715332,
        170.22665405273438
      ],
      "min": [
        -10.752301216125488,
        -11.854909896850586,
        138.95509338378906
      ],
      "type": "VEC3"
    },
    {
      "bufferView": 1,
      "componentType": 5126,
      "count": 446,
      "type": "VEC3"
    },
    {
      "bufferView": 2,
      "componentType": 5126,
      "count": 446,
      "type": "VEC2"
    },
    {
      "bufferView": 3,
      "componentType": 5123,
      "count": 2352,
      "type": "SCALAR"
    },
    {
      "bufferView": 4,
      "componentType": 5126,
      "count": 7,
      "type": "MAT4"
    }
  ],
  "asset": {
    "generator": "gr2togltf (ANKA2 Project)",
    "version": "2.0"
  },
  "bufferViews": [
    {
      "buffer": 0,
      "byteLength": 5352,
      "target": 34962
    },
    {
      "buffer": 0,
      "byteLength": 5352,
      "byteOffset": 5352,
      "target": 34962
    },
    {
      "buffer": 0,
      "byteLength": 3568,
      "byteOffset": 10704,
      "target": 34962
    },
    {
      "buffer": 0,
      "byteLength": 4704,
      "byteOffset": 14272,
      "target": 34963
    },
    {
      "buffer": 0,
      "byteLength": 448,
      "byteOffset": 18976
    }
  ],
  "buffers": [
    {
      "byteLength": 19424,
      "uri": "data:application/octet-stream;base64,"
    }
  ],
  "materials": [
    {
      "name": "default",
      "pbrMetallicRoughness": {
        "baseColorFactor": [
          0.8,
          0.8,
          0.8,
          1.0
        ],
        "metallicFactor": 0.0,
        "roughnessFactor": 0.8
      }
    }
  ],
  "meshes": [
    {
      "name": "hair_38_1",
      "primitives": [
        {
          "attributes": {
            "NORMAL": 1,
            "POSITION": 0,
            "TEXCOORD_0": 2
          },
          "indices": 3,
          "material": 0,
          "mode": 4
        }
      ]
    }
  ],
  "nodes": [
    {
      "children": [
        1,
        2
      ]
    },
    {
      "mesh": 0,
      "name": "hair_38_1",
      "skin": 0
    },
    {
      "children": [
        3
      ],
      "name": "Bip01",
      "rotation": [
        0.0,
        0.0,
        0.0,
        0.9999999403953552
      ],
      "scale": [
        0.9999997019767761,
        -1.3359980981751673e-13,
        0.0
      ],
      "translation": [
        0.0,
        1.862645149230957e-09,
        0.0
      ]
    },
    {
      "children": [
        4
      ],
      "name": "Bip01 Pelvis",
      "rotation": [
        -0.4999993145465851,
        -0.5,
        -0.5,
        0.5000006556510925
      ],
      "scale": [
        1.0,
        5.1399245505243465e-20,
        8.265705963650741e-14
      ],
      "translation": [
        -0.43055176734924316,
        -0.013545950874686241,
        0.0
      ]
    },
    {
      "children": [
        5
      ],
      "name": "Bip01 Spine",
      "rotation": [
        2.199636128352722e-06,
        0.00045840319944545627,
        -0.008512724190950394,
        0.999963641166687
      ],
      "scale": [
        1.0000001192092896,
        2.6206861125643854e-09,
        7.218286385279882e-11
      ],
      "translation": [
        9.231704711914063,
        -0.006681768223643303,
        1.2808945029973984e-05
      ]
    },
    {
      "children": [
        6
      ],
      "name": "Bip01 Spine1",
      "rotation": [
        -3.052426204592368e-14,
        -5.80622572243783e-09,
        0.0020978848915547132,
        0.9999977946281433
      ],
      "scale": [
        1.0,
        -1.3969715384476444e-09,
        -2.9101630827366165e-11
      ],
      "translation": [
        8.398162841796875,
        -0.010102033615112305,
        -2.9802322387695313e-08
      ]
    },
    {
      "children": [
        7
      ],
      "name": "Bip01 Spine2",
      "rotation": [
        7.607370137475977e-13,
        9.602740647096653e-08,
        -0.03463052213191986,
        0.9994001984596252
      ],
      "scale": [
        1.0000001192092896,
        6.613813940958835e-09,
        8.723841787849906e-11
      ],
      "translation": [
        12.686180114746094,
        -0.010077834129333496,
        -2.2351741790771484e-08
      ]
    },
    {
      "children": [
        8
      ],
      "name": "Bip01 Neck",
      "rotation": [
        -3.4904405765701085e-05,
        -0.00045816987403668463,
        0.13992172479629517,
        0.9901624321937561
      ],
      "scale": [
        1.0000001192092896,
        -4.240239714903282e-09,
        1.7750740113897656e-11
      ],
      "translation": [
        14.334159851074219,
        -3.440769672393799,
        -3.4347176551818848e-06
      ]
    },
    {
      "name": "Bip01 Head",
      "rotation": [
        -4.357555549033831e-12,
        -2.7124325896465962e-08,
        0.009768372401595116,
        0.9999522566795349
      ],
      "scale": [
        1.0000001192092896,
        2.3280597005737036e-08,
        8.352871345984614e-13
      ],
      "translation": [
        8.94873046875,
        0.0,
        1.862645149230957e-09
      ]
    }
  ],
  "scene": 0,
  "scenes": [
    {
      "nodes": [
        0
      ]
    }
  ],
  "skins": [
    {
      "inverseBindMatrices": 4,
      "joints": [
        2,
        3,
        4,
        5,
        6,
        7,
        8
      ],
      "skeleton": 2
    }
  ]
}
