{
  "accessors": [
    {
      "bufferView": 0,
      "componentType": 5126,
      "count": 415,
      "max": [
        166.847900390625,
        165.972412109375,
        165.94992065429688
      ],
      "min": [
        -23.68791961669922,
        -22.16311264038086,
        -21.910329818725586
      ],
      "type": "VEC3"
    },
    {
      "bufferView": 1,
      "componentType": 5126,
      "count": 415,
      "type": "VEC3"
    },
    {
      "bufferView": 2,
      "componentType": 5126,
      "count": 415,
      "type": "VEC2"
    },
    {
      "bufferView": 3,
      "componentType": 5123,
      "count": 1440,
      "type": "SCALAR"
    },
    {
      "bufferView": 4,
      "componentType": 5126,
      "count": 79,
      "type": "MAT4"
    }
  ],
  "asset": {
    "generator": "gr2togltf (ANKA2 Project)",
    "version": "2.0"
  },
  "bufferViews": [
    {
      "buffer": 0,
      "byteLength": 4980,
      "target": 34962
    },
    {
      "buffer": 0,
      "byteLength": 4980,
      "byteOffset": 4980,
      "target": 34962
    },
    {
      "buffer": 0,
      "byteLength": 3320,
      "byteOffset": 9960,
      "target": 34962
    },
    {
      "buffer": 0,
      "byteLength": 2880,
      "byteOffset": 13280,
      "target": 34963
    },
    {
      "buffer": 0,
      "byteLength": 5056,
      "byteOffset": 16160
    }
  ],
  "buffers": [
    {
      "byteLength": 21216,
      "uri": "data:application/octet-stream;base64,"
    }
  ],
  "materials": [
    {
      "name": "default",
      "pbrMetallicRoughness": {
        "baseColorFactor": [
          0.8,
          0.8,
          0.8,
          1.0
        ],
        "metallicFactor": 0.0,
        "roughnessFactor": 0.8
      }
    }
  ],
  "meshes": [
    {
      "name": "assassin_hair01",
      "primitives": [
        {
          "attributes": {
            "NORMAL": 1,
            "POSITION": 0,
            "TEXCOORD_0": 2
          },
          "indices": 3,
          "material": 0,
          "mode": 4
        }
      ]
    }
  ],
  "nodes": [
    {
      "children": [
        1,
        2
      ]
    },
    {
      "mesh": 0,
      "name": "assassin_hair01",
      "skin": 0
    },
    {
      "children": [
        3
      ],
      "name": "Bip01",
      "rotation": [
        0.0,
        0.0,
        1.2687824124668623e-08,
        1.0
      ],
      "scale": [
        0.9999997019767761,
        -1.3359980981751673e-13,
        0.0
      ],
      "translation": [
        0.0,
        0.0,
        0.0
      ]
    },
    {
      "children": [
        4
      ],
      "name": "Bip01 Pelvis",
      "rotation": [
        -0.4999993145465851,
        -0.5,
        -0.5,
        0.5000006556510925
      ],
      "scale": [
        1.0,
        5.1399245505243465e-20,
        8.265705963650741e-14
      ],
      "translation": [
        -0.43055427074432373,
        -0.013546017929911613,
        0.0
      ]
    },
    {
      "children": [
        5,
        10,
        13,
        16,
        19,
        22,
        27
      ],
      "name": "Bip01 Spine",
      "rotation": [
        2.199635446231696e-06,
        0.00045840319944545627,
        -0.008512725122272968,
        0.999963641166687
      ],
      "scale": [
        1.0000001192092896,
        7.583111361064709e-10,
        1.3975424116574597e-11
      ],
      "translation": [
        9.231704711914063,
        -0.006681745406240225,
        1.2809181498596445e-05
      ]
    },
    {
      "children": [
        6
      ],
      "name": "Bip01 Spine1",
      "rotation": [
        8.276383999797007e-14,
        -5.833186822457037e-09,
        0.0020978848915547132,
        0.9999977946281433
      ],
      "scale": [
        1.0,
        7.157439640970154e-10,
        4.883701429370113e-11
      ],
      "translation": [
        8.398159980773926,
        -0.010102180764079094,
        -3.6025920024940206e-08
      ]
    },
    {
      "children": [
        7,
        32,
        34
      ],
      "name": "Bip01 Spine2",
      "rotation": [
        -1.1637676499559602e-12,
        9.607661866084527e-08,
        -0.03463052213191986,
        0.9994001984596252
      ],
      "scale": [
        0.9999999403953552,
        -3.306904972077973e-09,
        -1.2090856094104652e-11
      ],
      "translation": [
        12.686182022094727,
        -0.010077563114464283,
        -1.812326289041266e-08
      ]
    },
    {
      "children": [
        8,
        36,
        55
      ],
      "name": "Bip01 Neck",
      "rotation": [
        -3.4904380299849436e-05,
        -0.0004581699031405151,
        0.13992168009281158,
        0.9901624917984009
      ],
      "scale": [
        1.0000001192092896,
        -6.59073293718393e-08,
        -2.844593137429907e-11
      ],
      "translation": [
        14.33415699005127,
        -3.440769672393799,
        -3.438689418544527e-06
      ]
    },
    {
      "children": [
        9,
        74,
        80
      ],
      "name": "Bip01 Head",
      "rotation": [
        -6.953103728630367e-14,
        -2.709276181178666e-08,
        0.009768417105078697,
        0.9999522566795349
      ],
      "scale": [
        0.9999999403953552,
        4.516152429800968e-08,
        5.2073588496792667e-11
      ],
      "translation": [
        8.94871711730957,
        -7.091421139193699e-07,
        5.999646335297371e-10
      ]
    },
    {
      "name": "assassin_hair01",
      "rotation": [
        0.7029027938842773,
        -0.07699073851108551,
        0.7029027938842773,
        0.076991967856884
      ],
      "scale": [
        0.9999998807907104,
        2.0977306263575413e-14,
        -1.8497620698620237e-14
      ],
      "translation": [
        -11.41738510131836,
        14.83211612701416,
        0.3150254189968109
      ]
    },
    {
      "children": [
        11
      ],
      "name": "F_01",
      "rotation": [
        -0.0004578382067847997,
        -3.146904055029154e-05,
        0.9976655840873718,
        0.06828780472278595
      ],
      "scale": [
        0.9999998211860657,
        2.0930949418129785e-08,
        -1.0727914390162852e-10
      ],
      "translation": [
        2.9761555194854736,
        9.141227722167969,
        -0.0031200738158077
      ]
    },
    {
      "children": [
        12
      ],
      "name": "F_02",
      "rotation": [
        -7.313389192744983e-15,
        -3.612503616964814e-15,
        0.023484060540795326,
        0.9997242093086243
      ],
      "scale": [
        1.0,
        2.7987461237444222e-09,
        -1.3488120464825483e-14
      ],
      "translation": [
        19.17459487915039,
        2.8602310067071812e-06,
        3.4996145359400543e-07
      ]
    },
    {
      "name": "F_03",
      "rotation": [
        -1.0029103029551411e-14,
        8.923639483056876e-15,
        -8.254824024334084e-08,
        1.0
      ],
      "scale": [
        1.0,
        1.8474111129762605e-13,
        -1.1682186928973007e-14
      ],
      "translation": [
        15.030850410461426,
        -6.2167969190340955e-06,
        2.441729236579704e-07
      ]
    },
    {
      "children": [
        14
      ],
      "name": "L_01",
      "rotation": [
        0.12969960272312164,
        0.6951155662536621,
        0.6927961111068726,
        -0.14151300489902496
      ],
      "scale": [
        1.0,
        1.7211890801505092e-09,
        4.0087780317499266e-10
      ],
      "translation": [
        3.682666301727295,
        0.06954881548881531,
        10.391955375671387
      ]
    },
    {
      "children": [
        15
      ],
      "name": "L_02",
      "rotation": [
        7.191316431232053e-10,
        1.9149091201597912e-08,
        -0.03752853721380234,
        0.9992955327033997
      ],
      "scale": [
        1.0000001192092896,
        -5.982201845000645e-09,
        6.570619648550583e-15
      ],
      "translation": [
        19.448833465576172,
        2.1960131562082097e-06,
        -7.873041454331542e-07
      ]
    },
    {
      "name": "L_03",
      "rotation": [
        5.410259473228023e-15,
        -2.0031177237755937e-15,
        9.376501797220271e-10,
        1.0
      ],
      "scale": [
        1.0,
        -5.417888360170764e-14,
        -3.145172564195922e-16
      ],
      "translation": [
        16.961393356323242,
        -1.2858530453740968e-06,
        -1.9796356394430337e-12
      ]
    },
    {
      "children": [
        17
      ],
      "name": "B_01",
      "rotation": [
        -0.00044975493801757693,
        9.231100557371974e-05,
        0.9794315099716187,
        -0.20177632570266724
      ],
      "scale": [
        0.9999999403953552,
        2.3452230379916728e-08,
        -8.474795865076601e-11
      ],
      "translation": [
        5.9194560050964355,
        -6.957294464111328,
        -0.00042892410419881344
      ]
    },
    {
      "children": [
        18
      ],
      "name": "B_02",
      "rotation": [
        6.620193125291368e-17,
        3.531263416444233e-16,
        -0.08116272836923599,
        0.9967008829116821
      ],
      "scale": [
        1.0000001192092896,
        -9.643430942674058e-09,
        -8.251596978199973e-16
      ],
      "translation": [
        16.875202178955078,
        -0.00030638318276032805,
        1.7725780912525302e-11
      ]
    },
    {
      "name": "B_03",
      "rotation": [
        -3.1550047405355663e-13,
        4.733337203091659e-13,
        3.43429675808693e-08,
        1.0
      ],
      "scale": [
        1.000000238418579,
        8.375800497617547e-09,
        4.9939783211550015e-12
      ],
      "translation": [
        23.144187927246094,
        1.2120123756176326e-05,
        1.6366983857096784e-07
      ]
    },
    {
      "children": [
        20
      ],
      "name": "R_01",
      "rotation": [
        0.1303357481956482,
        0.6949857473373413,
        -0.6926763653755188,
        0.14215093851089478
      ],
      "scale": [
        0.9999997019767761,
        6.604039981539245e-08,
        -1.1195436799837921e-09
      ],
      "translation": [
        3.701683759689331,
        0.06956273317337036,
        -10.31881046295166
      ]
    },
    {
      "children": [
        21
      ],
      "name": "R_02",
      "rotation": [
        7.191441331322324e-10,
        1.914909653066843e-08,
        -0.03752853348851204,
        0.9992955327033997
      ],
      "scale": [
        1.0000001192092896,
        -1.6370790945074987e-08,
        2.591044668893343e-16
      ],
      "translation": [
        19.448837280273438,
        1.3072472029307391e-06,
        -7.87304202276573e-07
      ]
    },
    {
      "name": "R_03",
      "rotation": [
        1.910662277637774e-16,
        1.278611480473417e-15,
        8.20486256714048e-09,
        1.0
      ],
      "scale": [
        1.0,
        3.552713678800501e-15,
        9.77745271729571e-16
      ],
      "translation": [
        16.961400985717773,
        -1.3746687272941926e-06,
        -4.0367047812045476e-13
      ]
    },
    {
      "children": [
        23
      ],
      "name": "Bip01 R Thigh",
      "rotation": [
        -0.0017406430561095476,
        0.9993849396705627,
        -0.012854009866714478,
        0.032579731196165085
      ],
      "scale": [
        0.9999999403953552,
        -9.662357580708658e-10,
        5.9729368118155435e-09
      ],
      "translation": [
        -9.223104476928711,
        -0.15046696364879608,
        -8.036139488220215
      ]
    },
    {
      "children": [
        24
      ],
      "name": "Bip01 R Calf",
      "rotation": [
        6.350212577999059e-10,
        2.0874946216054013e-09,
        -0.09983320534229279,
        0.9950041770935059
      ],
      "scale": [
        1.0,
        -8.012156612791719e-18,
        1.3238271590054751e-11
      ],
      "translation": [
        40.13832473754883,
        3.431231476724861e-08,
        1.2249826397692232e-07
      ]
    },
    {
      "children": [
        25
      ],
      "name": "Bip01 R Foot",
      "rotation": [
        0.06932653486728668,
        0.038423802703619,
        0.09007465094327927,
        0.9927759170532227
      ],
      "scale": [
        0.9999998807907104,
        8.495828041077402e-09,
        -1.2546935934665271e-08
      ],
      "translation": [
        40.13832092285156,
        -8.154649435709871e-07,
        -9.572838735039113e-07
      ]
    },
    {
      "children": [
        26
      ],
      "name": "Bip01 R Toe0",
      "rotation": [
        1.1500539187636605e-08,
        1.940808047606879e-08,
        0.7071067690849304,
        0.7071067690849304
      ],
      "scale": [
        0.9999999403953552,
        -4.041535122111537e-15,
        -2.236588692028363e-09
      ],
      "translation": [
        13.162713050842285,
        12.053354263305664,
        -1.0499157809817916e-07
      ]
    },
    {
      "name": "Bip01 R Toe0Nub",
      "rotation": [
        -3.641844626499466e-17,
        -6.307338540345597e-10,
        -1.394605019303368e-15,
        1.0
      ],
      "scale": [
        1.0,
        -3.0380937294984672e-15,
        3.885780586188048e-15
      ],
      "translation": [
        10.604897499084473,
        -5.868710378775788e-11,
        3.5649313190333487e-07
      ]
    },
    {
      "children": [
        28
      ],
      "name": "Bip01 L Thigh",
      "rotation": [
        -0.0017525125294923782,
        0.9994144439697266,
        0.012854449450969696,
        -0.03166196867823601
      ],
      "scale": [
        0.9999999403953552,
        -8.042763122162455e-10,
        -6.415589171027136e-10
      ],
      "translation": [
        -9.237847328186035,
        -0.15049976110458374,
        8.019187927246094
      ]
    },
    {
      "children": [
        29
      ],
      "name": "Bip01 L Calf",
      "rotation": [
        -9.740549478109983e-10,
        -4.185398416733932e-10,
        -0.09983320534229279,
        0.9950041770935059
      ],
      "scale": [
        1.0,
        -2.8314241407228346e-18,
        8.146431307309854e-10
      ],
      "translation": [
        40.13832473754883,
        -2.006000698884236e-08,
        -6.065154707357578e-07
      ]
    },
    {
      "children": [
        30
      ],
      "name": "Bip01 L Foot",
      "rotation": [
        -0.06932654231786728,
        -0.03842370957136154,
        0.09007465839385986,
        0.9927759170532227
      ],
      "scale": [
        0.9999999403953552,
        5.7519455864962765e-09,
        7.488343278794218e-10
      ],
      "translation": [
        40.13832473754883,
        -5.233018214312324e-07,
        6.305270403572649e-07
      ]
    },
    {
      "children": [
        31
      ],
      "name": "Bip01 L Toe0",
      "rotation": [
        -1.5900480931918537e-08,
        -1.5008138731786858e-08,
        0.7071067094802856,
        0.7071067690849304
      ],
      "scale": [
        1.0,
        4.656249378307085e-15,
        -8.881787373374805e-16
      ],
      "translation": [
        13.162713050842285,
        12.053354263305664,
        6.214834797901858e-07
      ]
    },
    {
      "name": "Bip01 L Toe0Nub",
      "rotation": [
        2.3814320724142813e-16,
        6.309823774586221e-10,
        -1.3654829677855812e-15,
        1.0
      ],
      "scale": [
        1.0,
        1.132922237062151e-15,
        2.220446049250313e-15
      ],
      "translation": [
        10.604898452758789,
        -2.4508320373151093e-10,
        -5.49531080196175e-07
      ]
    },
    {
      "children": [
        33
      ],
      "name": "Bone07",
      "rotation": [
        -0.13934281468391418,
        0.09060375392436981,
        0.7841300368309021,
        0.5979253649711609
      ],
      "scale": [
        0.9999996423721313,
        -5.209455977706057e-09,
        1.6830856708338615e-08
      ],
      "translation": [
        4.191433906555176,
        3.2420263290405273,
        -4.37860107421875
      ]
    },
    {
      "name": "Bone08",
      "rotation": [
        -2.489413564177312e-09,
        4.048725354977023e-09,
        -6.470449953610569e-09,
        1.0
      ],
      "scale": [
        0.4212566316127777,
        3.038643781039241e-09,
        -6.863891677255651e-09
      ],
      "translation": [
        9.775654792785645,
        -4.611225904227467e-06,
        5.846069370818441e-07
      ]
    },
    {
      "children": [
        35
      ],
      "name": "Bone05",
      "rotation": [
        0.11136461794376373,
        -0.0754280537366867,
        0.7880299687385559,
        0.6007639169692993
      ],
      "scale": [
        1.0000001192092896,
        1.8359347819796312e-08,
        -1.3475894178327508e-08
      ],
      "translation": [
        4.19143533706665,
        3.242016077041626,
        4.7433013916015625
      ]
    },
    {
      "name": "Bone06",
      "rotation": [
        1.1812105071840051e-07,
        9.530009492664249e-08,
        -6.691226461796873e-10,
        1.0
      ],
      "scale": [
        0.42125654220581055,
        6.113964001741579e-09,
        -4.983271129077593e-09
      ],
      "translation": [
        9.77564811706543,
        -1.2341480214672629e-05,
        -1.730426788526529e-07
      ]
    },
    {
      "children": [
        37,
        39
      ],
      "name": "Bip01 R Clavicle",
      "rotation": [
        -0.579227089881897,
        0.08922632783651352,
        0.8029547929763794,
        0.10861954838037491
      ],
      "scale": [
        1.0000001192092896,
        -1.3637224682838678e-10,
        -2.8448285505078275e-08
      ],
      "translation": [
        -1.067475438117981,
        1.0830721855163574,
        -2.8085200786590576
      ]
    },
    {
      "children": [
        38
      ],
      "name": "Bone09",
      "rotation": [
        -0.7176151275634766,
        0.1645326465368271,
        0.15742915868759155,
        0.6581592559814453
      ],
      "scale": [
        0.9999999403953552,
        -2.230557960558599e-09,
        -8.005113238951367e-10
      ],
      "translation": [
        5.556018352508545,
        -0.32675665616989136,
        -0.8303515911102295
      ]
    },
    {
      "name": "Bone10",
      "rotation": [
        -3.46443217809269e-14,
        8.760666108840413e-15,
        9.744329787508832e-10,
        1.0
      ],
      "scale": [
        1.0,
        -1.1614664785497553e-10,
        5.1539610253226176e-14
      ],
      "translation": [
        25.683958053588867,
        -1.1726979209925048e-05,
        1.29363797896076e-07
      ]
    },
    {
      "children": [
        40
      ],
      "name": "Bip01 R UpperArm",
      "rotation": [
        -0.04123351350426674,
        -0.11716581881046295,
        0.009602155536413193,
        0.9922095537185669
      ],
      "scale": [
        0.9999999403953552,
        -2.416146616113224e-09,
        -8.233750570241227e-09
      ],
      "translation": [
        11.362138748168945,
        -3.7777365946567443e-07,
        -5.307698302203789e-06
      ]
    },
    {
      "children": [
        41
      ],
      "name": "Bip01 R ForeArm",
      "rotation": [
        -6.544212394210547e-10,
        -2.154782130503463e-08,
        -0.043017346411943436,
        0.9990743398666382
      ],
      "scale": [
        1.0,
        -7.423006209705818e-09,
        1.1852973713644133e-08
      ],
      "translation": [
        24.08300018310547,
        -2.2744328020962712e-07,
        2.85707102420929e-07
      ]
    },
    {
      "children": [
        42,
        43,
        47,
        51
      ],
      "name": "Bip01 R Hand",
      "rotation": [
        0.7058848142623901,
        0.03647807240486145,
        -0.03644903376698494,
        0.7064470648765564
      ],
      "scale": [
        0.9999999403953552,
        -5.084175302982885e-09,
        -2.9868414408440458e-09
      ],
      "translation": [
        24.08300018310547,
        3.767019052247633e-07,
        2.2393505787476897e-06
      ]
    },
    {
      "name": "equip_right",
      "rotation": [
        7.681704516926402e-08,
        6.682215598630137e-07,
        -1.9933281691919547e-07,
        1.0
      ],
      "scale": [
        1.000000238418579,
        5.48821477153183e-09,
        2.855284675362668e-09
      ],
      "translation": [
        2.4170193672180176,
        -2.943063974380493,
        -0.07772724330425262
      ]
    },
    {
      "children": [
        44
      ],
      "name": "Bip01 R Finger2",
      "rotation": [
        0.08983657509088516,
        0.004974633455276489,
        0.0555575005710125,
        0.9943932890892029
      ],
      "scale": [
        1.0,
        1.2321005549154052e-08,
        -2.8840307919608676e-09
      ],
      "translation": [
        8.273910522460938,
        -0.6918006539344788,
        -1.2059062719345093
      ]
    },
    {
      "children": [
        45
      ],
      "name": "Bip01 R Finger21",
      "rotation": [
        -6.232319660348651e-10,
        -3.091221500994834e-09,
        0.13083870708942413,
        0.9914036393165588
      ],
      "scale": [
        1.0,
        1.3318853575583489e-08,
        -1.29047716956876e-09
      ],
      "translation": [
        3.0855937004089355,
        2.6981565497408155e-06,
        1.500229274142839e-07
      ]
    },
    {
      "children": [
        46
      ],
      "name": "Bip01 R Finger22",
      "rotation": [
        -1.9462975675565986e-09,
        5.631020538743314e-09,
        0.13083869218826294,
        0.9914036989212036
      ],
      "scale": [
        1.0000001192092896,
        1.3318855351940329e-08,
        -5.965500982085814e-09
      ],
      "translation": [
        3.085596799850464,
        -6.2209905991039705e-06,
        1.626160496925877e-06
      ]
    },
    {
      "name": "Bip01 R Finger2Nub",
      "rotation": [
        -2.0728927463409264e-09,
        2.4048332214476886e-09,
        -1.7127214091416931e-09,
        1.0
      ],
      "scale": [
        1.0,
        -4.647340290375723e-09,
        -1.780220276748068e-10
      ],
      "translation": [
        3.0856027603149414,
        -5.128342763782712e-07,
        -4.715562909041182e-07
      ]
    },
    {
      "children": [
        48
      ],
      "name": "Bip01 R Finger1",
      "rotation": [
        0.003198582213371992,
        -0.06788016110658646,
        0.041126493364572525,
        0.9968403577804565
      ],
      "scale": [
        1.0,
        1.1483503037368337e-08,
        -5.158476756861319e-09
      ],
      "translation": [
        8.236908912658691,
        -0.8614006638526917,
        2.45908260345459
      ]
    },
    {
      "children": [
        49
      ],
      "name": "Bip01 R Finger11",
      "rotation": [
        3.0610696200028542e-09,
        1.0161825825250048e-09,
        0.11640219390392303,
        0.9932021498680115
      ],
      "scale": [
        1.0,
        -1.4497355316223093e-08,
        -9.267498768394944e-09
      ],
      "translation": [
        3.010370969772339,
        -6.806577403040137e-06,
        8.936001449910691e-07
      ]
    },
    {
      "children": [
        50
      ],
      "name": "Bip01 R Finger12",
      "rotation": [
        1.6989475382089836e-09,
        -1.835200658106828e-09,
        0.11640217900276184,
        0.9932021498680115
      ],
      "scale": [
        1.0,
        7.154632997163901e-10,
        -5.408953285268581e-09
      ],
      "translation": [
        3.0103816986083984,
        2.761695213848725e-06,
        -1.6429869447165402e-06
      ]
    },
    {
      "name": "Bip01 R Finger1Nub",
      "rotation": [
        -2.7437505600858003e-09,
        -1.7502107541034206e-09,
        -2.779966035149073e-09,
        1.0
      ],
      "scale": [
        1.0,
        -1.3984015334589373e-10,
        3.2859304166521497e-09
      ],
      "translation": [
        3.010370969772339,
        -5.795262950414326e-06,
        2.3700397377979243e-07
      ]
    },
    {
      "children": [
        52
      ],
      "name": "Bip01 R Finger0",
      "rotation": [
        -0.6828780770301819,
        -0.2569223940372467,
        -0.13452889025211334,
        0.6705000996589661
      ],
      "scale": [
        1.0,
        5.861264895656859e-08,
        1.4241688717220313e-08
      ],
      "translation": [
        0.5431512594223022,
        0.007742802146822214,
        2.551161050796509
      ]
    },
    {
      "children": [
        53
      ],
      "name": "Bip01 R Finger01",
      "rotation": [
        7.469802554282978e-10,
        -4.1494292446486725e-09,
        0.11640217900276184,
        0.9932021498680115
      ],
      "scale": [
        1.0,
        1.521281944860675e-08,
        2.0444348436399196e-08
      ],
      "translation": [
        3.7950127124786377,
        -1.4311692666524323e-06,
        -1.2939283067225915e-07
      ]
    },
    {
      "children": [
        54
      ],
      "name": "Bip01 R Finger02",
      "rotation": [
        3.0156634966971296e-09,
        6.982297851010344e-09,
        0.11640220880508423,
        0.9932021498680115
      ],
      "scale": [
        1.0,
        1.4497355316223093e-08,
        1.5149151266768968e-08
      ],
      "translation": [
        3.795018196105957,
        1.038073719428212e-06,
        -8.629911008029012e-07
      ]
    },
    {
      "name": "Bip01 R Finger0Nub",
      "rotation": [
        1.290912376994413e-09,
        -6.315286960045796e-09,
        -5.804883240756453e-10,
        1.0
      ],
      "scale": [
        1.0,
        -3.785098900976891e-09,
        9.338933182334586e-09
      ],
      "translation": [
        3.795016288757324,
        -2.2531196464115055e-07,
        3.642207957454957e-07
      ]
    },
    {
      "children": [
        56,
        58
      ],
      "name": "Bip01 L Clavicle",
      "rotation": [
        0.5799686908721924,
        -0.08928948640823364,
        0.8024171590805054,
        0.10858366638422012
      ],
      "scale": [
        1.0000001192092896,
        4.665452468799458e-10,
        5.362958432897358e-08
      ],
      "translation": [
        -1.0624375343322754,
        1.0819486379623413,
        2.8108508586883545
      ]
    },
    {
      "children": [
        57
      ],
      "name": "Bone01",
      "rotation": [
        0.7176151871681213,
        -0.16453485190868378,
        0.15742740035057068,
        0.658159077167511
      ],
      "scale": [
        1.0,
        -1.6072471353822948e-08,
        1.326978860127781e-09
      ],
      "translation": [
        5.556035995483398,
        -0.3268032968044281,
        0.8303576111793518
      ]
    },
    {
      "name": "Bone02",
      "rotation": [
        -3.30109131863206e-15,
        -1.2628098690841512e-15,
        -3.145280480509882e-09,
        1.0
      ],
      "scale": [
        1.0,
        -1.021405182655144e-14,
        -2.9340331908294347e-15
      ],
      "translation": [
        25.683958053588867,
        -1.5643005099263974e-05,
        -3.218668354065812e-08
      ]
    },
    {
      "children": [
        59
      ],
      "name": "Bip01 L UpperArm",
      "rotation": [
        0.04123159125447273,
        0.11807731539011002,
        0.009625193662941456,
        0.9921013116836548
      ],
      "scale": [
        0.9999999403953552,
        -1.1429217572356265e-09,
        -1.8009478353064878e-08
      ],
      "translation": [
        11.362136840820313,
        -6.641558343289944e-07,
        1.2722333849524148e-05
      ]
    },
    {
      "children": [
        60
      ],
      "name": "Bip01 L ForeArm",
      "rotation": [
        2.8435415133643005e-10,
        2.120211739509159e-08,
        -0.04301734268665314,
        0.9990743398666382
      ],
      "scale": [
        1.0,
        -5.123319990474329e-09,
        -1.1136451760762611e-08
      ],
      "translation": [
        24.082998275756836,
        4.7847418471747005e-08,
        -1.0124513210030273e-06
      ]
    },
    {
      "children": [
        61,
        62,
        66,
        70
      ],
      "name": "Bip01 L Hand",
      "rotation": [
        -0.7058848142623901,
        -0.036478061228990555,
        -0.03644903004169464,
        0.7064470648765564
      ],
      "scale": [
        1.0,
        -5.089660248813743e-09,
        4.49863701845743e-09
      ],
      "translation": [
        24.0830020904541,
        1.97905308141344e-07,
        -1.937644356075907e-06
      ]
    },
    {
      "name": "equip_left",
      "rotation": [
        -5.196700385567965e-07,
        -1.11493272925145e-06,
        -1.8835078208212508e-07,
        1.0
      ],
      "scale": [
        0.9999997615814209,
        -2.332732229604062e-08,
        -2.6083915471986074e-08
      ],
      "translation": [
        -0.5002874135971069,
        -1.1329755783081055,
        0.2617054581642151
      ]
    },
    {
      "children": [
        63
      ],
      "name": "Bip01 L Finger2",
      "rotation": [
        -0.08983657509088516,
        -0.004974637180566788,
        0.0555575005710125,
        0.9943932890892029
      ],
      "scale": [
        1.0,
        2.6505800221343634e-08,
        3.1085352070192585e-09
      ],
      "translation": [
        8.273907661437988,
        -0.6917943954467773,
        1.2059062719345093
      ]
    },
    {
      "children": [
        64
      ],
      "name": "Bip01 L Finger21",
      "rotation": [
        1.3325291980947895e-09,
        -2.0288701829684896e-09,
        0.13083870708942413,
        0.9914036393165588
      ],
      "scale": [
        1.0000001192092896,
        -1.5463111679991925e-08,
        6.789157236397614e-09
      ],
      "translation": [
        3.085599660873413,
        1.6255501122941496e-06,
        6.062917918825406e-07
      ]
    },
    {
      "children": [
        65
      ],
      "name": "Bip01 L Finger22",
      "rotation": [
        1.6399487323681683e-09,
        -2.8205677793380346e-09,
        0.13083867728710175,
        0.9914036989212036
      ],
      "scale": [
        1.0,
        5.2415775204635393e-17,
        1.7719901101997948e-09
      ],
      "translation": [
        3.0855958461761475,
        -1.0305318028258625e-05,
        -1.3271308034745743e-06
      ]
    },
    {
      "name": "Bip01 L Finger2Nub",
      "rotation": [
        1.2457714859692715e-09,
        -2.0930319699630218e-09,
        5.3567426050449285e-09,
        1.0
      ],
      "scale": [
        1.0,
        -1.9150260044398237e-08,
        -7.688248260251385e-09
      ],
      "translation": [
        3.085601806640625,
        5.155312919669086e-06,
        1.0976411886076676e-06
      ]
    },
    {
      "children": [
        67
      ],
      "name": "Bip01 L Finger1",
      "rotation": [
        -0.0031985840760171413,
        0.06788016110658646,
        0.04112650454044342,
        0.9968403577804565
      ],
      "scale": [
        1.0,
        4.648015305974695e-09,
        -8.983792376682231e-09
      ],
      "translation": [
        8.236907958984375,
        -0.8613950610160828,
        -2.45908260345459
      ]
    },
    {
      "children": [
        68
      ],
      "name": "Bip01 L Finger11",
      "rotation": [
        1.3939573939580896e-09,
        4.328588876223449e-10,
        0.11640219390392303,
        0.9932021498680115
      ],
      "scale": [
        1.0,
        1.3781894736553113e-08,
        8.32721669397074e-10
      ],
      "translation": [
        3.0103726387023926,
        -6.8983499659225345e-06,
        -4.78906827083847e-07
      ]
    },
    {
      "children": [
        69
      ],
      "name": "Bip01 L Finger12",
      "rotation": [
        2.093828443960888e-09,
        4.1444740972451655e-09,
        0.11640219390392303,
        0.9932021498680115
      ],
      "scale": [
        0.9999998807907104,
        -4.27766053689993e-08,
        -8.968076947724057e-09
      ],
      "translation": [
        3.0103812217712402,
        9.70251585385995e-06,
        1.3281123756314628e-06
      ]
    },
    {
      "name": "Bip01 L Finger1Nub",
      "rotation": [
        -4.0873224804727215e-09,
        -1.442069463841733e-09,
        5.360450305857967e-09,
        1.0
      ],
      "scale": [
        1.0,
        2.41324027427936e-09,
        2.124385778401461e-09
      ],
      "translation": [
        3.0103697776794434,
        -8.669086355439504e-07,
        -5.722590685763862e-07
      ]
    },
    {
      "children": [
        71
      ],
      "name": "Bip01 L Finger0",
      "rotation": [
        0.6828780770301819,
        0.2569224238395691,
        -0.13452887535095215,
        0.6705000996589661
      ],
      "scale": [
        0.9999999403953552,
        1.1404040378693026e-08,
        -6.36076968874022e-09
      ],
      "translation": [
        0.5431517362594604,
        0.007747667375952005,
        -2.5511608123779297
      ]
    },
    {
      "children": [
        72
      ],
      "name": "Bip01 L Finger01",
      "rotation": [
        -1.5936328923160659e-09,
        -9.4481835688498e-09,
        0.11640220880508423,
        0.9932021498680115
      ],
      "scale": [
        0.9999999403953552,
        1.710853955174283e-16,
        9.320473282059538e-09
      ],
      "translation": [
        3.7950148582458496,
        -6.599824473596527e-07,
        -3.4784154649969423e-06
      ]
    },
    {
      "children": [
        73
      ],
      "name": "Bip01 L Finger02",
      "rotation": [
        -2.2444563985146715e-09,
        1.3556341826870266e-08,
        0.11640220880508423,
        0.9932021498680115
      ],
      "scale": [
        0.9999999403953552,
        7.154586922908379e-10,
        -2.7472186303612034e-08
      ],
      "translation": [
        3.795017957687378,
        9.025300755638455e-07,
        -2.229249815854928e-07
      ]
    },
    {
      "name": "Bip01 L Finger0Nub",
      "rotation": [
        2.650047958852042e-10,
        -3.5111813456722984e-10,
        8.857303779308268e-10,
        1.0
      ],
      "scale": [
        1.0,
        -2.85567880453641e-09,
        -5.2391251337269296e-09
      ],
      "translation": [
        3.7950150966644287,
        -3.5401589570938086e-07,
        1.306287572333531e-06
      ]
    },
    {
      "children": [
        75
      ],
      "name": "Bip01 Ponytail1",
      "rotation": [
        1.9119768702308138e-12,
        -2.7727053293347126e-06,
        0.999677300453186,
        -0.025401558727025986
      ],
      "scale": [
        1.0000001192092896,
        -7.440185356699658e-09,
        -8.505960760502203e-15
      ],
      "translation": [
        16.320894241333008,
        -17.090185165405273,
        0.03138931095600128
      ]
    },
    {
      "children": [
        76
      ],
      "name": "Bip01 Ponytail11",
      "rotation": [
        1.8288253127596993e-13,
        3.7665068930436973e-07,
        -0.13579846918582916,
        0.9907364845275879
      ],
      "scale": [
        1.0,
        1.2664738591183777e-08,
        1.4413378598824612e-14
      ],
      "translation": [
        12.657041549682617,
        -0.009711670689284801,
        -2.6604929814766365e-08
      ]
    },
    {
      "children": [
        77
      ],
      "name": "Bip01 Ponytail12",
      "rotation": [
        6.5769336862493e-14,
        1.0159111241136998e-07,
        -0.036627888679504395,
        0.9993289709091187
      ],
      "scale": [
        1.0,
        -3.067133436118752e-09,
        1.1713539006482677e-14
      ],
      "translation": [
        12.65899658203125,
        -0.010053325444459915,
        -2.811876242958533e-08
      ]
    },
    {
      "children": [
        78
      ],
      "name": "Bip01 Ponytail13",
      "rotation": [
        5.5573689367819507e-14,
        -4.4103558138886e-08,
        0.015901191160082817,
        0.9998735785484314
      ],
      "scale": [
        1.0000001192092896,
        1.8953298930313167e-09,
        2.3697525468628286e-14
      ],
      "translation": [
        12.660056114196777,
        -0.010077489539980888,
        -2.7950287417866093e-08
      ]
    },
    {
      "children": [
        79
      ],
      "name": "Bip01 Ponytail14",
      "rotation": [
        1.9257306253100959e-13,
        -6.945389685597547e-08,
        0.025041062384843826,
        0.9996864199638367
      ],
      "scale": [
        1.0000001192092896,
        -7.364278631349919e-10,
        -3.781924817734014e-16
      ],
      "translation": [
        12.660247802734375,
        -0.010069399140775204,
        -2.8103087856834463e-08
      ]
    },
    {
      "name": "Bip01 Ponytail1Nub",
      "rotation": [
        0.7073882222175598,
        0.7068251967430115,
        9.80225195235107e-07,
        -9.810059964365792e-07
      ],
      "scale": [
        1.0,
        -1.0752130089053402e-11,
        8.28992907306314e-14
      ],
      "translation": [
        12.659744262695313,
        1.7390138964401558e-06,
        2.387056385888542e-10
      ]
    },
    {
      "name": "Bip01 HeadNub",
      "rotation": [
        2.336152782724324e-14,
        6.491757069512945e-15,
        -8.226206382744294e-10,
        1.0
      ],
      "scale": [
        1.0,
        -4.2676973066591017e-13,
        -1.672653240415191e-14
      ],
      "translation": [
        20.872730255126953,
        1.0451742582517909e-06,
        4.556327815041783e-10
      ]
    }
  ],
  "scene": 0,
  "scenes": [
    {
      "nodes": [
        0
      ]
    }
  ],
  "skins": [
    {
      "inverseBindMatrices": 4,
      "joints": [
        2,
        3,
        4,
        5,
        6,
        7,
        8,
        9,
        10,
        11,
        12,
        13,
        14,
        15,
        16,
        17,
        18,
        19,
        20,
        21,
        22,
        23,
        24,
        25,
        26,
        27,
        28,
        29,
        30,
        31,
        32,
        33,
        34,
        35,
        36,
        37,
        38,
        39,
        40,
        41,
        42,
        43,
        44,
        45,
        46,
        47,
        48,
        49,
        50,
        51,
        52,
        53,
        54,
        55,
        56,
        57,
        58,
        59,
        60,
        61,
        62,
        63,
        64,
        65,
        66,
        67,
        68,
        69,
        70,
        71,
        72,
        73,
        74,
        75,
        76,
        77,
        78,
        79,
        80
      ],
      "skeleton": 2
    }
  ]
}
