{
  "accessors": [
    {
      "bufferView": 0,
      "componentType": 5126,
      "count": 353,
      "max": [
        166.55528259277344,
        169.94573974609375,
        166.96795654296875
      ],
      "min": [
        -10.217632293701172,
        -10.186606407165527,
        -9.978139877319336
      ],
      "type": "VEC3"
    },
    {
      "bufferView": 1,
      "componentType": 5126,
      "count": 353,
      "type": "VEC3"
    },
    {
      "bufferView": 2,
      "componentType": 5126,
      "count": 353,
      "type": "VEC2"
    },
    {
      "bufferView": 3,
      "componentType": 5123,
      "count": 1407,
      "type": "SCALAR"
    },
    {
      "bufferView": 4,
      "componentType": 5126,
      "count": 76,
      "type": "MAT4"
    }
  ],
  "asset": {
    "generator": "gr2togltf (ANKA2 Project)",
    "version": "2.0"
  },
  "bufferViews": [
    {
      "buffer": 0,
      "byteLength": 4236,
      "target": 34962
    },
    {
      "buffer": 0,
      "byteLength": 4236,
      "byteOffset": 4236,
      "target": 34962
    },
    {
      "buffer": 0,
      "byteLength": 2824,
      "byteOffset": 8472,
      "target": 34962
    },
    {
      "buffer": 0,
      "byteLength": 2814,
      "byteOffset": 11296,
      "target": 34963
    },
    {
      "buffer": 0,
      "byteLength": 4864,
      "byteOffset": 14110
    }
  ],
  "buffers": [
    {
      "byteLength": 18974,
      "uri": "data:application/octet-stream;base64,"
    }
  ],
  "materials": [
    {
      "name": "default",
      "pbrMetallicRoughness": {
        "baseColorFactor": [
          0.8,
          0.8,
          0.8,
          1.0
        ],
        "metallicFactor": 0.0,
        "roughnessFactor": 0.8
      }
    }
  ],
  "meshes": [
    {
      "name": "hair_66_1",
      "primitives": [
        {
          "attributes": {
            "NORMAL": 1,
            "POSITION": 0,
            "TEXCOORD_0": 2
          },
          "indices": 3,
          "material": 0,
          "mode": 4
        }
      ]
    }
  ],
  "nodes": [
    {
      "children": [
        1,
        2
      ]
    },
    {
      "mesh": 0,
      "name": "hair_66_1",
      "skin": 0
    },
    {
      "children": [
        3
      ],
      "name": "Bip01",
      "rotation": [
        0.0,
        0.0,
        0.0,
        0.9999999403953552
      ],
      "scale": [
        0.9999997615814209,
        -5.117093408073606e-14,
        0.0
      ],
      "translation": [
        -3.637978807091713e-12,
        0.0,
        0.0
      ]
    },
    {
      "children": [
        4
      ],
      "name": "Bip01 Pelvis",
      "rotation": [
        -0.4999993145465851,
        -0.5,
        -0.5,
        0.5000006556510925
      ],
      "scale": [
        1.0,
        6.755036055564761e-20,
        -2.6671148450016795e-18
      ],
      "translation": [
        3.60000049113296e-05,
        1.000240445137024e-06,
        0.0
      ]
    },
    {
      "children": [
        5,
        8,
        11,
        14,
        17,
        22,
        27
      ],
      "name": "Bip01 Spine",
      "rotation": [
        2.1985990770190256e-06,
        0.0004582926048897207,
        -0.008512734435498714,
        0.999963641166687
      ],
      "scale": [
        1.0000001192092896,
        1.6053487428280278e-09,
        4.0812669216405695e-11
      ],
      "translation": [
        9.231704711914063,
        -0.0066817449405789375,
        1.2809410691261292e-05
      ]
    },
    {
      "children": [
        6
      ],
      "name": "F_01",
      "rotation": [
        -0.00045808419235982,
        -3.1571704312227666e-05,
        0.9976655840873718,
        0.06828777492046356
      ],
      "scale": [
        1.0,
        -1.676120797711178e-09,
        -5.2973549158341626e-11
      ],
      "translation": [
        2.9761505126953125,
        9.141227722167969,
        -0.0031199976801872253
      ]
    },
    {
      "children": [
        7
      ],
      "name": "F_02",
      "rotation": [
        9.767268204896162e-15,
        1.0429127573782055e-16,
        0.023484300822019577,
        0.9997242093086243
      ],
      "scale": [
        0.9999998807907104,
        9.224063735047139e-10,
        -2.5022994388227337e-16
      ],
      "translation": [
        19.174598693847656,
        0.0,
        0.0
      ]
    },
    {
      "name": "F_03",
      "rotation": [
        -7.105423545952739e-15,
        -7.105427357601002e-15,
        1.5273687381522905e-07,
        1.0
      ],
      "scale": [
        1.0000001192092896,
        -2.0428110429366458e-14,
        4.26325675337378e-14
      ],
      "translation": [
        15.030868530273438,
        -7.62939453125e-06,
        3.637978807091713e-12
      ]
    },
    {
      "children": [
        9
      ],
      "name": "L_01",
      "rotation": [
        0.1296996772289276,
        0.6951156258583069,
        0.692795991897583,
        -0.14151310920715332
      ],
      "scale": [
        1.0000001192092896,
        -1.8104467924828782e-10,
        1.6879775355249649e-09
      ],
      "translation": [
        3.6826705932617188,
        0.06954896450042725,
        10.391955375671387
      ]
    },
    {
      "children": [
        10
      ],
      "name": "L_02",
      "rotation": [
        5.191987553050063e-15,
        -4.016861052358019e-15,
        -0.03752869740128517,
        0.9992955327033997
      ],
      "scale": [
        1.0,
        2.9718375316178935e-08,
        6.5724886267486994e-15
      ],
      "translation": [
        19.448829650878906,
        3.814697265625e-06,
        1.8189894035458565e-12
      ]
    },
    {
      "name": "L_03",
      "rotation": [
        -3.552713678800501e-15,
        -3.552713678800501e-15,
        -7.450580596923828e-09,
        1.0
      ],
      "scale": [
        1.0,
        -1.4901161193847656e-08,
        -7.105427357601002e-15
      ],
      "translation": [
        16.961406707763672,
        0.0,
        0.0
      ]
    },
    {
      "children": [
        12
      ],
      "name": "B_01",
      "rotation": [
        -0.00044984163832850754,
        9.212752047460526e-05,
        0.9794315695762634,
        -0.2017761915922165
      ],
      "scale": [
        1.0,
        -3.111355439955332e-08,
        -2.486415587310553e-11
      ],
      "translation": [
        5.919456481933594,
        -6.957293510437012,
        -0.0004289969801902771
      ]
    },
    {
      "children": [
        13
      ],
      "name": "B_02",
      "rotation": [
        -1.947546094391902e-14,
        4.3252146617786785e-16,
        -0.08116262406110764,
        0.9967008829116821
      ],
      "scale": [
        0.9999999403953552,
        -2.940968357734164e-08,
        -2.299170350159312e-15
      ],
      "translation": [
        16.875198364257813,
        -0.000308990478515625,
        0.0
      ]
    },
    {
      "name": "B_03",
      "rotation": [
        -1.3677947663381929e-12,
        5.258016244624741e-13,
        -7.450580596923828e-09,
        1.0
      ],
      "scale": [
        1.0,
        2.944003654735849e-24,
        -4.547474050965727e-13
      ],
      "translation": [
        23.144187927246094,
        1.1444091796875e-05,
        -3.637978807091713e-12
      ]
    },
    {
      "children": [
        15
      ],
      "name": "R_01",
      "rotation": [
        0.1303357481956482,
        0.694985568523407,
        -0.692676305770874,
        0.1421511322259903
      ],
      "scale": [
        0.9999998807907104,
        3.3258714893236174e-08,
        -2.0445822812575898e-09
      ],
      "translation": [
        3.7016830444335938,
        0.06956279277801514,
        -10.318808555603027
      ]
    },
    {
      "children": [
        16
      ],
      "name": "R_02",
      "rotation": [
        -8.875526741103411e-16,
        7.0004249182946225e-15,
        -0.037528689950704575,
        0.9992955327033997
      ],
      "scale": [
        1.0000001192092896,
        5.917954126744007e-09,
        -2.8648295402475743e-16
      ],
      "translation": [
        19.44884490966797,
        3.814697265625e-06,
        0.0
      ]
    },
    {
      "name": "R_03",
      "rotation": [
        -3.552713678800501e-15,
        0.0,
        2.524354896707238e-29,
        1.0
      ],
      "scale": [
        1.0,
        7.573064690121713e-29,
        -1.4210854715202004e-14
      ],
      "translation": [
        16.96139144897461,
        0.0,
        0.0
      ]
    },
    {
      "children": [
        18
      ],
      "name": "Bip01 R Thigh",
      "rotation": [
        -0.001740758423693478,
        0.9993849992752075,
        -0.012853805907070637,
        0.032579343765974045
      ],
      "scale": [
        1.0,
        1.1999614635271882e-09,
        1.980700936599078e-09
      ],
      "translation": [
        -9.223106384277344,
        -0.15046727657318115,
        -8.036136627197266
      ]
    },
    {
      "children": [
        19
      ],
      "name": "Bip01 R Calf",
      "rotation": [
        -8.915102683859644e-11,
        1.8722257077996574e-09,
        -0.09983333200216293,
        0.9950041770935059
      ],
      "scale": [
        0.9999999403953552,
        1.1841605029871971e-08,
        -3.7426364229986575e-09
      ],
      "translation": [
        40.1383171081543,
        1.1920928955078125e-07,
        -1.9073486328125e-06
      ]
    },
    {
      "children": [
        20
      ],
      "name": "Bip01 R Foot",
      "rotation": [
        0.06932741403579712,
        0.03842362016439438,
        0.09007490426301956,
        0.9927758574485779
      ],
      "scale": [
        1.0,
        -2.0930452038214753e-08,
        6.653824158320276e-10
      ],
      "translation": [
        40.13832092285156,
        0.0,
        0.0
      ]
    },
    {
      "children": [
        21
      ],
      "name": "Bip01 R Toe0",
      "rotation": [
        1.5700922994638892e-16,
        1.5700922994638892e-16,
        0.7071067094802856,
        0.7071067690849304
      ],
      "scale": [
        1.0,
        1.7763568394002505e-15,
        -3.223900041478473e-16
      ],
      "translation": [
        13.162713050842285,
        12.053354263305664,
        0.0
      ]
    },
    {
      "name": "Bip01 R Toe0Nub",
      "rotation": [
        2.220446049250313e-16,
        0.0,
        8.881784197001252e-16,
        1.0
      ],
      "scale": [
        1.0,
        1.7763568394002505e-15,
        -3.223900041478473e-16
      ],
      "translation": [
        10.604896545410156,
        0.0,
        -9.5367431640625e-07
      ]
    },
    {
      "children": [
        23
      ],
      "name": "Bip01 L Thigh",
      "rotation": [
        -0.001752624288201332,
        0.9994144439697266,
        0.012854245491325855,
        -0.03166180104017258
      ],
      "scale": [
        1.0,
        1.353241185775289e-09,
        -4.2345256190401415e-09
      ],
      "translation": [
        -9.237846374511719,
        -0.15050005912780762,
        8.019189834594727
      ]
    },
    {
      "children": [
        24
      ],
      "name": "Bip01 L Calf",
      "rotation": [
        1.4934366243668507e-10,
        -8.716592031499104e-11,
        -0.09983333200216293,
        0.9950041770935059
      ],
      "scale": [
        0.9999999403953552,
        4.013304556227123e-19,
        7.306938165640986e-09
      ],
      "translation": [
        40.13832473754883,
        1.1920928955078125e-07,
        9.5367431640625e-07
      ]
    },
    {
      "children": [
        25
      ],
      "name": "Bip01 L Foot",
      "rotation": [
        -0.06932742148637772,
        -0.038423530757427216,
        0.09007491171360016,
        0.9927758574485779
      ],
      "scale": [
        1.0,
        -1.0743733902529584e-08,
        -2.4792043973320688e-09
      ],
      "translation": [
        40.13832092285156,
        0.0,
        -9.5367431640625e-07
      ]
    },
    {
      "children": [
        26
      ],
      "name": "Bip01 L Toe0",
      "rotation": [
        2.0247593968337495e-31,
        0.0,
        0.7071067094802856,
        0.7071067690849304
      ],
      "scale": [
        1.0,
        1.7763568394002505e-15,
        3.223949804664124e-16
      ],
      "translation": [
        13.162713050842285,
        12.05335521697998,
        0.0
      ]
    },
    {
      "name": "Bip01 L Toe0Nub",
      "rotation": [
        1.4317213213495546e-31,
        0.0,
        8.881784197001252e-16,
        1.0
      ],
      "scale": [
        1.0,
        1.7763568394002505e-15,
        -3.223949804664124e-16
      ],
      "translation": [
        10.604897499084473,
        0.0,
        0.0
      ]
    },
    {
      "children": [
        28
      ],
      "name": "Bip01 Spine1",
      "rotation": [
        2.8843483049038887e-13,
        -5.820777637666197e-09,
        0.0020979982800781727,
        0.9999977946281433
      ],
      "scale": [
        0.9999999403953552,
        -2.5010032933536763e-10,
        5.820904175335428e-11
      ],
      "translation": [
        8.398162841796875,
        -0.010102391242980957,
        -2.2351741790771484e-08
      ]
    },
    {
      "children": [
        29,
        31,
        33
      ],
      "name": "Bip01 Spine2",
      "rotation": [
        1.9958238620804147e-12,
        9.605651740685062e-08,
        -0.03463057801127434,
        0.9994001984596252
      ],
      "scale": [
        0.9999999403953552,
        4.1258116922904264e-09,
        2.9071935830904394e-11
      ],
      "translation": [
        12.686180114746094,
        -0.010077714920043945,
        -1.4901161193847656e-08
      ]
    },
    {
      "children": [
        30
      ],
      "name": "Bone07",
      "rotation": [
        -0.13934281468391418,
        0.09060375392436981,
        0.7841299176216125,
        0.5979253649711609
      ],
      "scale": [
        1.0,
        3.4742853038949306e-09,
        -2.4871781079127686e-08
      ],
      "translation": [
        4.191436767578125,
        3.242025375366211,
        -4.37860107421875
      ]
    },
    {
      "name": "Bone08",
      "rotation": [
        2.210817307002344e-09,
        4.145283227785512e-09,
        0.0,
        1.0
      ],
      "scale": [
        0.4212570786476135,
        -7.450580596923828e-09,
        5.820766091346741e-09
      ],
      "translation": [
        9.775655746459961,
        -7.62939453125e-06,
        9.5367431640625e-07
      ]
    },
    {
      "children": [
        32
      ],
      "name": "Bone05",
      "rotation": [
        0.11136426776647568,
        -0.07542812079191208,
        0.7880297899246216,
        0.6007642149925232
      ],
      "scale": [
        1.0,
        5.58142154716279e-09,
        9.101832176838798e-09
      ],
      "translation": [
        4.191429138183594,
        3.242015838623047,
        4.743300914764404
      ]
    },
    {
      "name": "Bone06",
      "rotation": [
        2.199477550117686e-17,
        -2.4871726900244084e-09,
        0.0,
        1.0
      ],
      "scale": [
        0.42125701904296875,
        -7.450580596923828e-09,
        3.958118277580525e-09
      ],
      "translation": [
        9.775650978088379,
        -7.62939453125e-06,
        0.0
      ]
    },
    {
      "children": [
        34,
        52,
        70
      ],
      "name": "Bip01 Neck",
      "rotation": [
        -3.473228571237996e-05,
        -0.0004580979875754565,
        0.13992178440093994,
        0.9901624321937561
      ],
      "scale": [
        0.9999998211860657,
        1.5687393783991865e-07,
        9.23705272271036e-08
      ],
      "translation": [
        14.33416748046875,
        -3.440769672393799,
        -3.1366944313049316e-06
      ]
    },
    {
      "children": [
        35,
        37
      ],
      "name": "Bip01 R Clavicle",
      "rotation": [
        -0.5792272090911865,
        0.08922635763883591,
        0.8029547333717346,
        0.10861968249082565
      ],
      "scale": [
        1.0000004768371582,
        -4.150250632051211e-08,
        -2.009054611562533e-07
      ],
      "translation": [
        -1.0674591064453125,
        1.0830707550048828,
        -2.8085217475891113
      ]
    },
    {
      "children": [
        36
      ],
      "name": "Bone09",
      "rotation": [
        -0.7176153063774109,
        0.16453255712985992,
        0.15742909908294678,
        0.658159077167511
      ],
      "scale": [
        1.0000001192092896,
        -6.18922655348797e-08,
        5.122929858103475e-10
      ],
      "translation": [
        5.556018829345703,
        -0.32675743103027344,
        -0.830352783203125
      ]
    },
    {
      "name": "Bone10",
      "rotation": [
        -1.4210854715202004e-14,
        -2.859934511434403e-13,
        -1.3883951931889808e-26,
        1.0
      ],
      "scale": [
        1.0,
        2.3022116657970009e-26,
        2.3803181647963356e-13
      ],
      "translation": [
        25.683956146240234,
        -1.52587890625e-05,
        0.0
      ]
    },
    {
      "children": [
        38
      ],
      "name": "Bip01 R UpperArm",
      "rotation": [
        -0.041233357042074203,
        -0.1171654760837555,
        0.009602322243154049,
        0.9922095537185669
      ],
      "scale": [
        1.0,
        2.2122206289054702e-09,
        -8.772184756367096e-09
      ],
      "translation": [
        11.362140655517578,
        -9.5367431640625e-07,
        -1.52587890625e-05
      ]
    },
    {
      "children": [
        39
      ],
      "name": "Bip01 R ForeArm",
      "rotation": [
        6.410615371876816e-10,
        2.444753714452171e-15,
        -0.043017107993364334,
        0.9990743398666382
      ],
      "scale": [
        1.0000001192092896,
        0.0,
        -2.9747166507831935e-08
      ],
      "translation": [
        24.08300018310547,
        -2.384185791015625e-07,
        0.0
      ]
    },
    {
      "children": [
        40,
        44,
        48
      ],
      "name": "Bip01 R Hand",
      "rotation": [
        0.7058847546577454,
        0.036477863788604736,
        -0.036448825150728226,
        0.7064471244812012
      ],
      "scale": [
        1.0,
        7.194338458305083e-09,
        -4.697594313540776e-09
      ],
      "translation": [
        24.082996368408203,
        4.76837158203125e-07,
        0.0
      ]
    },
    {
      "children": [
        41
      ],
      "name": "Bip01 R Finger2",
      "rotation": [
        0.08983667939901352,
        0.004974718671292067,
        0.055557481944561005,
        0.9943932890892029
      ],
      "scale": [
        0.9999998211860657,
        1.6825504189910134e-07,
        1.1205313654727433e-07
      ],
      "translation": [
        8.273906707763672,
        -0.6917953491210938,
        -1.205906867980957
      ]
    },
    {
      "children": [
        42
      ],
      "name": "Bip01 R Finger21",
      "rotation": [
        -7.3865327188116225e-09,
        2.2396993728391993e-16,
        0.1308388113975525,
        0.9914036393165588
      ],
      "scale": [
        1.0,
        -2.6637678729457548e-08,
        1.9328902922666202e-09
      ],
      "translation": [
        3.085590362548828,
        7.62939453125e-06,
        0.0
      ]
    },
    {
      "children": [
        43
      ],
      "name": "Bip01 R Finger22",
      "rotation": [
        -2.7184416939718403e-09,
        4.874123327169855e-10,
        0.1308387815952301,
        0.9914036393165588
      ],
      "scale": [
        1.0000001192092896,
        -1.3318844693799292e-08,
        1.6578962203084302e-08
      ],
      "translation": [
        3.0855979919433594,
        0.0,
        0.0
      ]
    },
    {
      "name": "Bip01 R Finger2Nub",
      "rotation": [
        -1.1102231569740545e-16,
        -7.450580596923828e-09,
        0.0,
        1.0
      ],
      "scale": [
        1.0,
        2.9802320611338473e-08,
        0.0
      ],
      "translation": [
        3.085601806640625,
        0.0,
        0.0
      ]
    },
    {
      "children": [
        45
      ],
      "name": "Bip01 R Finger1",
      "rotation": [
        0.00319846672937274,
        -0.06787998974323273,
        0.041126448661088943,
        0.9968403577804565
      ],
      "scale": [
        1.0000001192092896,
        2.6887548187914945e-07,
        -1.1320297943484547e-07
      ],
      "translation": [
        8.23690414428711,
        -0.86138916015625,
        2.45908260345459
      ]
    },
    {
      "children": [
        46
      ],
      "name": "Bip01 R Finger11",
      "rotation": [
        -1.7415754394178862e-09,
        4.4081422956310234e-09,
        0.1164020225405693,
        0.9932022094726563
      ],
      "scale": [
        0.9999999403953552,
        5.798942481760605e-08,
        1.7112178340994433e-09
      ],
      "translation": [
        3.0103683471679688,
        0.0,
        1.9073486328125e-06
      ]
    },
    {
      "children": [
        47
      ],
      "name": "Bip01 R Finger12",
      "rotation": [
        -2.774974694474963e-09,
        -1.1425122181663028e-08,
        0.1164020299911499,
        0.9932021498680115
      ],
      "scale": [
        0.9999999403953552,
        1.378187519662788e-08,
        3.028554906858716e-10
      ],
      "translation": [
        3.010387420654297,
        0.0,
        -3.814697265625e-06
      ]
    },
    {
      "name": "Bip01 R Finger1Nub",
      "rotation": [
        9.313225746154785e-10,
        0.0,
        3.4694473655439205e-18,
        1.0
      ],
      "scale": [
        1.0,
        -1.3877787807814457e-17,
        -7.450580596923828e-09
      ],
      "translation": [
        3.0103721618652344,
        7.62939453125e-06,
        9.5367431640625e-07
      ]
    },
    {
      "children": [
        49
      ],
      "name": "Bip01 R Finger0",
      "rotation": [
        -0.6828780770301819,
        -0.25692251324653625,
        -0.1345289945602417,
        0.6705000996589661
      ],
      "scale": [
        1.0000003576278687,
        1.7935022356141417e-07,
        4.017627759367315e-07
      ],
      "translation": [
        0.5431480407714844,
        0.00775146484375,
        2.5511600971221924
      ]
    },
    {
      "children": [
        50
      ],
      "name": "Bip01 R Finger01",
      "rotation": [
        -9.134459411086482e-09,
        0.0,
        0.1164020448923111,
        0.9932021498680115
      ],
      "scale": [
        0.9999998211860657,
        1.5212835435818306e-08,
        -2.7675779890046215e-08
      ],
      "translation": [
        3.7950172424316406,
        1.9073486328125e-06,
        -7.62939453125e-06
      ]
    },
    {
      "children": [
        51
      ],
      "name": "Bip01 R Finger02",
      "rotation": [
        5.3767617025357595e-09,
        -7.94197063669344e-09,
        0.1164020225405693,
        0.9932022094726563
      ],
      "scale": [
        1.0,
        -1.664380455679293e-08,
        4.257694641296439e-08
      ],
      "translation": [
        3.795013427734375,
        0.0,
        0.0
      ]
    },
    {
      "name": "Bip01 R Finger0Nub",
      "rotation": [
        -9.313225746154785e-10,
        -2.2351741790771484e-08,
        -1.3969838619232178e-09,
        1.0
      ],
      "scale": [
        1.0,
        9.313224635931761e-10,
        1.4901161193847656e-08
      ],
      "translation": [
        3.795013427734375,
        0.0,
        7.62939453125e-06
      ]
    },
    {
      "children": [
        53,
        55
      ],
      "name": "Bip01 L Clavicle",
      "rotation": [
        0.5799686312675476,
        -0.08928921073675156,
        0.8024171590805054,
        0.10858400911092758
      ],
      "scale": [
        1.0000005960464478,
        1.4763966937891837e-08,
        4.68561722755112e-08
      ],
      "translation": [
        -1.06243896484375,
        1.0819473266601563,
        2.8108510971069336
      ]
    },
    {
      "children": [
        54
      ],
      "name": "Bone01",
      "rotation": [
        0.7176153063774109,
        -0.16453473269939423,
        0.15742740035057068,
        0.6581589579582214
      ],
      "scale": [
        1.0,
        -1.159183682375442e-08,
        -1.5490126958894734e-09
      ],
      "translation": [
        5.556034088134766,
        -0.32680320739746094,
        0.830352783203125
      ]
    },
    {
      "name": "Bone02",
      "rotation": [
        0.0,
        -5.3290705182007514e-15,
        -1.5146129380243427e-28,
        1.0
      ],
      "scale": [
        1.0,
        2.0194839173657902e-28,
        -3.552713678800501e-15
      ],
      "translation": [
        25.683963775634766,
        -1.52587890625e-05,
        0.0
      ]
    },
    {
      "children": [
        56
      ],
      "name": "Bip01 L UpperArm",
      "rotation": [
        0.04123144596815109,
        0.11807678639888763,
        0.009625354781746864,
        0.9921014308929443
      ],
      "scale": [
        1.0,
        -2.0392452171336117e-09,
        7.00759343885693e-08
      ],
      "translation": [
        11.362140655517578,
        4.76837158203125e-07,
        0.0
      ]
    },
    {
      "children": [
        57
      ],
      "name": "Bip01 L ForeArm",
      "rotation": [
        -6.409479058611112e-10,
        2.444753714452171e-15,
        -0.043017104268074036,
        0.9990743398666382
      ],
      "scale": [
        1.0000001192092896,
        2.2997146409409197e-09,
        2.9747187824114008e-08
      ],
      "translation": [
        24.08300018310547,
        0.0,
        0.0
      ]
    },
    {
      "children": [
        58,
        62,
        66
      ],
      "name": "Bip01 L Hand",
      "rotation": [
        -0.7058847546577454,
        -0.036477863788604736,
        -0.03644883632659912,
        0.7064471244812012
      ],
      "scale": [
        1.0,
        -7.634824328306422e-09,
        -1.0802878591675835e-09
      ],
      "translation": [
        24.082996368408203,
        -4.76837158203125e-07,
        0.0
      ]
    },
    {
      "children": [
        59
      ],
      "name": "Bip01 L Finger2",
      "rotation": [
        -0.08983667939901352,
        -0.004974718671292067,
        0.0555574931204319,
        0.9943932890892029
      ],
      "scale": [
        0.9999998807907104,
        1.3771941098639218e-07,
        -1.2401669380324165e-07
      ],
      "translation": [
        8.273902893066406,
        -0.691802978515625,
        1.2059063911437988
      ]
    },
    {
      "children": [
        60
      ],
      "name": "Bip01 L Finger21",
      "rotation": [
        1.1810917577292912e-08,
        -2.3340454013975886e-09,
        0.1308387964963913,
        0.9914036393165588
      ],
      "scale": [
        1.0000001192092896,
        1.3318842917442453e-08,
        7.182544781159095e-09
      ],
      "translation": [
        3.0855979919433594,
        -7.62939453125e-06,
        -1.9073486328125e-06
      ]
    },
    {
      "children": [
        61
      ],
      "name": "Bip01 L Finger22",
      "rotation": [
        4.874123327169855e-10,
        -2.7184416939718403e-09,
        0.1308387815952301,
        0.9914036393165588
      ],
      "scale": [
        1.0000001192092896,
        1.5463118785419283e-08,
        9.383470889190448e-09
      ],
      "translation": [
        3.0855979919433594,
        0.0,
        0.0
      ]
    },
    {
      "name": "Bip01 L Finger2Nub",
      "rotation": [
        -1.862645149230957e-09,
        7.450580152834618e-09,
        -7.450580152834618e-09,
        1.0
      ],
      "scale": [
        1.0000001192092896,
        1.4901162970204496e-08,
        1.4901162970204496e-08
      ],
      "translation": [
        3.085601806640625,
        7.62939453125e-06,
        0.0
      ]
    },
    {
      "children": [
        63
      ],
      "name": "Bip01 L Finger1",
      "rotation": [
        -0.003198464633896947,
        0.06787997484207153,
        0.04112643003463745,
        0.9968403577804565
      ],
      "scale": [
        1.0000001192092896,
        2.685777928945754e-07,
        1.1088844331652581e-07
      ],
      "translation": [
        8.236907958984375,
        -0.8613967895507813,
        -2.459083080291748
      ]
    },
    {
      "children": [
        64
      ],
      "name": "Bip01 L Finger11",
      "rotation": [
        -7.616748121108685e-09,
        -5.98358118608644e-09,
        0.1164020374417305,
        0.9932021498680115
      ],
      "scale": [
        1.0,
        4.206110659765727e-08,
        -2.6620203819049948e-09
      ],
      "translation": [
        3.0103721618652344,
        0.0,
        0.0
      ]
    },
    {
      "children": [
        65
      ],
      "name": "Bip01 L Finger12",
      "rotation": [
        5.607678765784385e-09,
        7.588548678327811e-10,
        0.1164020299911499,
        0.9932021498680115
      ],
      "scale": [
        0.9999998211860657,
        2.8994712408803025e-08,
        -1.4699256034589325e-08
      ],
      "translation": [
        3.0103797912597656,
        7.62939453125e-06,
        1.9073486328125e-06
      ]
    },
    {
      "name": "Bip01 L Finger1Nub",
      "rotation": [
        -9.313225746154785e-10,
        -1.862645149230957e-09,
        -7.450580596923828e-09,
        1.0
      ],
      "scale": [
        1.0,
        1.4901161193847656e-08,
        3.725290076417309e-09
      ],
      "translation": [
        3.0103759765625,
        0.0,
        0.0
      ]
    },
    {
      "children": [
        67
      ],
      "name": "Bip01 L Finger0",
      "rotation": [
        0.6828780174255371,
        0.25692248344421387,
        -0.1345289945602417,
        0.6705000996589661
      ],
      "scale": [
        1.0000004768371582,
        1.4185344809902745e-07,
        -3.4762231848617375e-07
      ],
      "translation": [
        0.5431480407714844,
        0.00775146484375,
        -2.551161050796509
      ]
    },
    {
      "children": [
        68
      ],
      "name": "Bip01 L Finger01",
      "rotation": [
        1.1178218366043137e-16,
        -1.5667129815710723e-08,
        0.1164020448923111,
        0.9932021498680115
      ],
      "scale": [
        0.9999999403953552,
        -7.154796755060033e-10,
        -1.3189285219539215e-09
      ],
      "translation": [
        3.7950096130371094,
        0.0,
        1.52587890625e-05
      ]
    },
    {
      "children": [
        69
      ],
      "name": "Bip01 L Finger02",
      "rotation": [
        4.682687571033739e-09,
        2.2850244363326055e-08,
        0.1164020225405693,
        0.9932022094726563
      ],
      "scale": [
        1.0,
        -1.378187430844946e-08,
        -1.53049661832938e-08
      ],
      "translation": [
        3.7950172424316406,
        -1.9073486328125e-06,
        -7.62939453125e-06
      ]
    },
    {
      "name": "Bip01 L Finger0Nub",
      "rotation": [
        3.725290742551124e-09,
        -7.450581485102248e-09,
        2.7939679458910405e-09,
        1.0
      ],
      "scale": [
        0.9999998807907104,
        -5.587934559514451e-09,
        1.4901159417490817e-08
      ],
      "translation": [
        3.7950172424316406,
        0.0,
        0.0
      ]
    },
    {
      "children": [
        71,
        77
      ],
      "name": "Bip01 Head",
      "rotation": [
        -1.5619554005752434e-07,
        3.5345649962437165e-08,
        0.009768308140337467,
        0.9999522566795349
      ],
      "scale": [
        1.0000001192092896,
        -1.6155652815541544e-07,
        -9.256354616127282e-08
      ],
      "translation": [
        8.94873046875,
        -1.9073486328125e-06,
        0.0
      ]
    },
    {
      "children": [
        72
      ],
      "name": "Bip01 Ponytail1",
      "rotation": [
        1.9190846828331942e-12,
        -2.7727053293347126e-06,
        0.999677300453186,
        -0.0254015251994133
      ],
      "scale": [
        1.0,
        -3.026339845391135e-09,
        -6.196426157551935e-14
      ],
      "translation": [
        16.320892333984375,
        -17.09018325805664,
        0.031389594078063965
      ]
    },
    {
      "children": [
        73
      ],
      "name": "Bip01 Ponytail11",
      "rotation": [
        2.259137159028174e-13,
        3.766511156300112e-07,
        -0.1357986032962799,
        0.9907364845275879
      ],
      "scale": [
        1.0,
        7.634667095572645e-14,
        1.8100413068334806e-14
      ],
      "translation": [
        12.657058715820313,
        -0.00971221923828125,
        -2.6542693376541138e-08
      ]
    },
    {
      "children": [
        74
      ],
      "name": "Bip01 Ponytail12",
      "rotation": [
        -1.1420756647253366e-13,
        1.0159087793226718e-07,
        -0.03662780299782753,
        0.9993289709091187
      ],
      "scale": [
        0.9999999403953552,
        1.2963006223998264e-09,
        5.415502183655054e-15
      ],
      "translation": [
        12.65899658203125,
        -0.010051727294921875,
        -2.8405338525772095e-08
      ]
    },
    {
      "children": [
        75
      ],
      "name": "Bip01 Ponytail13",
      "rotation": [
        1.1420087152411856e-13,
        -4.410394183196331e-08,
        0.015901338309049606,
        0.9998735785484314
      ],
      "scale": [
        1.0,
        -1.2368874051152786e-16,
        -2.3944061184190228e-14
      ],
      "translation": [
        12.660064697265625,
        -0.010076522827148438,
        -2.7474015951156616e-08
      ]
    },
    {
      "children": [
        76
      ],
      "name": "Bip01 Ponytail14",
      "rotation": [
        1.1461095744333405e-13,
        -6.945341368691516e-08,
        0.0250408835709095,
        0.9996864199638367
      ],
      "scale": [
        0.9999999403953552,
        7.364481802163425e-10,
        2.4696443281786544e-14
      ],
      "translation": [
        12.660255432128906,
        -0.010068893432617188,
        -2.8405338525772095e-08
      ]
    },
    {
      "name": "Bip01 Ponytail1Nub",
      "rotation": [
        0.7073882222175598,
        0.7068251967430115,
        9.80225195235107e-07,
        -9.810059964365792e-07
      ],
      "scale": [
        0.9999999403953552,
        -6.1256266545458e-15,
        -8.242163868727934e-14
      ],
      "translation": [
        12.659751892089844,
        1.9073486328125e-06,
        4.656612873077393e-10
      ]
    },
    {
      "name": "Bip01 HeadNub",
      "rotation": [
        -2.842170943040401e-14,
        1.4210854715202004e-14,
        7.068194673745238e-28,
        1.0
      ],
      "scale": [
        0.9999999403953552,
        4.0389678347315804e-28,
        -2.842170943040401e-14
      ],
      "translation": [
        20.872726440429688,
        0.0,
        0.0
      ]
    }
  ],
  "scene": 0,
  "scenes": [
    {
      "nodes": [
        0
      ]
    }
  ],
  "skins": [
    {
      "inverseBindMatrices": 4,
      "joints": [
        2,
        3,
        4,
        5,
        6,
        7,
        8,
        9,
        10,
        11,
        12,
        13,
        14,
        15,
        16,
        17,
        18,
        19,
        20,
        21,
        22,
        23,
        24,
        25,
        26,
        27,
        28,
        29,
        30,
        31,
        32,
        33,
        34,
        35,
        36,
        37,
        38,
        39,
        40,
        41,
        42,
        43,
        44,
        45,
        46,
        47,
        48,
        49,
        50,
        51,
        52,
        53,
        54,
        55,
        56,
        57,
        58,
        59,
        60,
        61,
        62,
        63,
        64,
        65,
        66,
        67,
        68,
        69,
        70,
        71,
        72,
        73,
        74,
        75,
        76,
        77
      ],
      "skeleton": 2
    }
  ]
}
