{
  "accessors": [
    {
      "bufferView": 0,
      "componentType": 5126,
      "count": 973,
      "max": [
        28.676372528076172,
        32.533241271972656,
        200.44381713867188
      ],
      "min": [
        -28.676374435424805,
        -27.161378860473633,
        139.95822143554688
      ],
      "type": "VEC3"
    },
    {
      "bufferView": 1,
      "componentType": 5126,
      "count": 973,
      "type": "VEC3"
    },
    {
      "bufferView": 2,
      "componentType": 5126,
      "count": 973,
      "type": "VEC2"
    },
    {
      "bufferView": 3,
      "componentType": 5123,
      "count": 3450,
      "type": "SCALAR"
    },
    {
      "bufferView": 4,
      "componentType": 5126,
      "count": 7,
      "type": "MAT4"
    }
  ],
  "asset": {
    "generator": "gr2togltf (ANKA2 Project)",
    "version": "2.0"
  },
  "bufferViews": [
    {
      "buffer": 0,
      "byteLength": 11676,
      "target": 34962
    },
    {
      "buffer": 0,
      "byteLength": 11676,
      "byteOffset": 11676,
      "target": 34962
    },
    {
      "buffer": 0,
      "byteLength": 7784,
      "byteOffset": 23352,
      "target": 34962
    },
    {
      "buffer": 0,
      "byteLength": 6900,
      "byteOffset": 31136,
      "target": 34963
    },
    {
      "buffer": 0,
      "byteLength": 448,
      "byteOffset": 38036
    }
  ],
  "buffers": [
    {
      "byteLength": 38484,
      "uri": "data:application/octet-stream;base64,"
    }
  ],
  "materials": [
    {
      "name": "default",
      "pbrMetallicRoughness": {
        "baseColorFactor": [
          0.8,
          0.8,
          0.8,
          1.0
        ],
        "metallicFactor": 0.0,
        "roughnessFactor": 0.8
      }
    }
  ],
  "meshes": [
    {
      "name": "hair_34_1",
      "primitives": [
        {
          "attributes": {
            "NORMAL": 1,
            "POSITION": 0,
            "TEXCOORD_0": 2
          },
          "indices": 3,
          "material": 0,
          "mode": 4
        }
      ]
    }
  ],
  "nodes": [
    {
      "children": [
        1,
        2
      ]
    },
    {
      "mesh": 0,
      "name": "hair_34_1",
      "skin": 0
    },
    {
      "children": [
        3
      ],
      "name": "Bip01",
      "rotation": [
        0.0,
        0.0,
        0.0,
        0.9999999403953552
      ],
      "scale": [
        0.9999997615814209,
        -5.117093408073606e-14,
        0.0
      ],
      "translation": [
        -2.9802322387695313e-08,
        -4.656612873077393e-10,
        0.0
      ]
    },
    {
      "children": [
        4
      ],
      "name": "Bip01 Pelvis",
      "rotation": [
        -0.4999993145465851,
        -0.5,
        -0.5,
        0.5000006556510925
      ],
      "scale": [
        1.0,
        6.755036055564761e-20,
        -2.6671148450016795e-18
      ],
      "translation": [
        -0.4000000059604645,
        -2.4512410163879395e-06,
        0.0
      ]
    },
    {
      "children": [
        5
      ],
      "name": "Bip01 Spine",
      "rotation": [
        2.1985595139994984e-06,
        0.0004582926048897207,
        -0.008512725122272968,
        0.999963641166687
      ],
      "scale": [
        1.0000001192092896,
        1.6054216844807456e-09,
        3.915266028053921e-11
      ],
      "translation": [
        9.231704711914063,
        -0.006681759841740131,
        1.2809410691261292e-05
      ]
    },
    {
      "children": [
        6
      ],
      "name": "Bip01 Spine1",
      "rotation": [
        6.106153451791718e-14,
        -5.820778081755407e-09,
        0.0020980103872716427,
        0.9999977946281433
      ],
      "scale": [
        0.9999999403953552,
        -2.5010177262529965e-10,
        5.820904175335428e-11
      ],
      "translation": [
        8.398162841796875,
        -0.010102152824401855,
        -2.2351741790771484e-08
      ]
    },
    {
      "children": [
        7
      ],
      "name": "Bip01 Spine2",
      "rotation": [
        3.0829401531651257e-12,
        9.604191575363075e-08,
        -0.03463057428598404,
        0.9994001984596252
      ],
      "scale": [
        1.0,
        7.432711335297881e-09,
        5.8141182840421024e-11
      ],
      "translation": [
        12.686180114746094,
        -0.010077714920043945,
        -1.4901161193847656e-08
      ]
    },
    {
      "children": [
        8
      ],
      "name": "Bip01 Neck",
      "rotation": [
        -3.473228571237996e-05,
        -0.0004580979875754565,
        0.13992176949977875,
        0.9901624321937561
      ],
      "scale": [
        0.9999998807907104,
        1.2384214187477482e-07,
        9.231966657807789e-08
      ],
      "translation": [
        14.334159851074219,
        -3.4407706260681152,
        -3.1441450119018555e-06
      ]
    },
    {
      "name": "Bip01 Head",
      "rotation": [
        -1.5616936366313894e-07,
        3.535499715212609e-08,
        0.009768296964466572,
        0.9999522566795349
      ],
      "scale": [
        1.0000001192092896,
        -1.529429454194542e-07,
        -9.253432153855101e-08
      ],
      "translation": [
        8.94873046875,
        0.0,
        0.0
      ]
    }
  ],
  "scene": 0,
  "scenes": [
    {
      "nodes": [
        0
      ]
    }
  ],
  "skins": [
    {
      "inverseBindMatrices": 4,
      "joints": [
        2,
        3,
        4,
        5,
        6,
        7,
        8
      ],
      "skeleton": 2
    }
  ]
}
