{
  "accessors": [
    {
      "bufferView": 0,
      "componentType": 5126,
      "count": 355,
      "max": [
        182.886962890625,
        182.24404907226563,
        181.00881958007813
      ],
      "min": [
        -28.695707321166992,
        -33.32706069946289,
        -28.18392562866211
      ],
      "type": "VEC3"
    },
    {
      "bufferView": 1,
      "componentType": 5126,
      "count": 355,
      "type": "VEC3"
    },
    {
      "bufferView": 2,
      "componentType": 5126,
      "count": 355,
      "type": "VEC2"
    },
    {
      "bufferView": 3,
      "componentType": 5123,
      "count": 1584,
      "type": "SCALAR"
    },
    {
      "bufferView": 4,
      "componentType": 5126,
      "count": 7,
      "type": "MAT4"
    }
  ],
  "asset": {
    "generator": "gr2togltf (ANKA2 Project)",
    "version": "2.0"
  },
  "bufferViews": [
    {
      "buffer": 0,
      "byteLength": 4260,
      "target": 34962
    },
    {
      "buffer": 0,
      "byteLength": 4260,
      "byteOffset": 4260,
      "target": 34962
    },
    {
      "buffer": 0,
      "byteLength": 2840,
      "byteOffset": 8520,
      "target": 34962
    },
    {
      "buffer": 0,
      "byteLength": 3168,
      "byteOffset": 11360,
      "target": 34963
    },
    {
      "buffer": 0,
      "byteLength": 448,
      "byteOffset": 14528
    }
  ],
  "buffers": [
    {
      "byteLength": 14976,
      "uri": "data:application/octet-stream;base64,"
    }
  ],
  "materials": [
    {
      "name": "default",
      "pbrMetallicRoughness": {
        "baseColorFactor": [
          0.8,
          0.8,
          0.8,
          1.0
        ],
        "metallicFactor": 0.0,
        "roughnessFactor": 0.8
      }
    }
  ],
  "meshes": [
    {
      "name": "hair_40_1",
      "primitives": [
        {
          "attributes": {
            "NORMAL": 1,
            "POSITION": 0,
            "TEXCOORD_0": 2
          },
          "indices": 3,
          "material": 0,
          "mode": 4
        }
      ]
    }
  ],
  "nodes": [
    {
      "children": [
        1,
        2
      ]
    },
    {
      "mesh": 0,
      "name": "hair_40_1",
      "skin": 0
    },
    {
      "children": [
        3
      ],
      "name": "Bip01",
      "rotation": [
        0.0,
        0.0,
        0.0,
        0.9999999403953552
      ],
      "scale": [
        0.9999997615814209,
        -5.117093408073606e-14,
        0.0
      ],
      "translation": [
        0.0,
        1.862645149230957e-09,
        0.0
      ]
    },
    {
      "children": [
        4
      ],
      "name": "Bip01 Pelvis",
      "rotation": [
        -0.4999993145465851,
        -0.5,
        -0.5,
        0.5000006556510925
      ],
      "scale": [
        1.0,
        6.755036055564761e-20,
        -2.6671148450016795e-18
      ],
      "translation": [
        -0.43055400252342224,
        -0.013545999303460121,
        0.0
      ]
    },
    {
      "children": [
        5
      ],
      "name": "Bip01 Spine",
      "rotation": [
        2.198588617829955e-06,
        0.0004582926048897207,
        -0.008512725122272968,
        0.999963641166687
      ],
      "scale": [
        1.0000001192092896,
        1.6053682827532612e-09,
        4.014363841342572e-11
      ],
      "translation": [
        9.231704711914063,
        -0.006681759841740131,
        1.2809410691261292e-05
      ]
    },
    {
      "children": [
        6
      ],
      "name": "Bip01 Spine1",
      "rotation": [
        2.8843483049038887e-13,
        -5.820777637666197e-09,
        0.002098001539707184,
        0.9999977946281433
      ],
      "scale": [
        0.9999999403953552,
        -2.5010071791342625e-10,
        5.820904175335428e-11
      ],
      "translation": [
        8.398162841796875,
        -0.010102033615112305,
        -2.2351741790771484e-08
      ]
    },
    {
      "children": [
        7
      ],
      "name": "Bip01 Spine2",
      "rotation": [
        1.7687579916339513e-12,
        9.605651030142326e-08,
        -0.03463057801127434,
        0.9994001984596252
      ],
      "scale": [
        0.9999999403953552,
        4.1258116922904264e-09,
        2.9037402690668124e-11
      ],
      "translation": [
        12.686180114746094,
        -0.010077834129333496,
        -1.4901161193847656e-08
      ]
    },
    {
      "children": [
        8
      ],
      "name": "Bip01 Neck",
      "rotation": [
        -3.473228571237996e-05,
        -0.0004580979875754565,
        0.13992176949977875,
        0.9901624321937561
      ],
      "scale": [
        0.9999998807907104,
        1.4035805406820145e-07,
        9.231764863670833e-08
      ],
      "translation": [
        14.33416748046875,
        -3.440770149230957,
        -3.1366944313049316e-06
      ]
    },
    {
      "name": "Bip01 Head",
      "rotation": [
        -1.5619198734384554e-07,
        3.5344910997991974e-08,
        0.00976831465959549,
        0.9999522566795349
      ],
      "scale": [
        1.000000238418579,
        -1.6108998579511535e-07,
        -9.256361011011904e-08
      ],
      "translation": [
        8.948715209960938,
        -1.9073486328125e-06,
        0.0
      ]
    }
  ],
  "scene": 0,
  "scenes": [
    {
      "nodes": [
        0
      ]
    }
  ],
  "skins": [
    {
      "inverseBindMatrices": 4,
      "joints": [
        2,
        3,
        4,
        5,
        6,
        7,
        8
      ],
      "skeleton": 2
    }
  ]
}
