{
  "accessors": [
    {
      "bufferView": 0,
      "componentType": 5126,
      "count": 854,
      "max": [
        166.50869750976563,
        164.1309051513672,
        166.7833709716797
      ],
      "min": [
        -16.502334594726563,
        -14.900420188903809,
        -15.145337104797363
      ],
      "type": "VEC3"
    },
    {
      "bufferView": 1,
      "componentType": 5126,
      "count": 854,
      "type": "VEC3"
    },
    {
      "bufferView": 2,
      "componentType": 5126,
      "count": 854,
      "type": "VEC2"
    },
    {
      "bufferView": 3,
      "componentType": 5123,
      "count": 3210,
      "type": "SCALAR"
    },
    {
      "bufferView": 4,
      "componentType": 5126,
      "count": 7,
      "type": "MAT4"
    }
  ],
  "asset": {
    "generator": "gr2togltf (ANKA2 Project)",
    "version": "2.0"
  },
  "bufferViews": [
    {
      "buffer": 0,
      "byteLength": 10248,
      "target": 34962
    },
    {
      "buffer": 0,
      "byteLength": 10248,
      "byteOffset": 10248,
      "target": 34962
    },
    {
      "buffer": 0,
      "byteLength": 6832,
      "byteOffset": 20496,
      "target": 34962
    },
    {
      "buffer": 0,
      "byteLength": 6420,
      "byteOffset": 27328,
      "target": 34963
    },
    {
      "buffer": 0,
      "byteLength": 448,
      "byteOffset": 33748
    }
  ],
  "buffers": [
    {
      "byteLength": 34196,
      "uri": "data:application/octet-stream;base64,"
    }
  ],
  "materials": [
    {
      "name": "default",
      "pbrMetallicRoughness": {
        "baseColorFactor": [
          0.8,
          0.8,
          0.8,
          1.0
        ],
        "metallicFactor": 0.0,
        "roughnessFactor": 0.8
      }
    }
  ],
  "meshes": [
    {
      "name": "32-1",
      "primitives": [
        {
          "attributes": {
            "NORMAL": 1,
            "POSITION": 0,
            "TEXCOORD_0": 2
          },
          "indices": 3,
          "material": 0,
          "mode": 4
        }
      ]
    }
  ],
  "nodes": [
    {
      "children": [
        1,
        2
      ]
    },
    {
      "mesh": 0,
      "name": "32-1",
      "skin": 0
    },
    {
      "children": [
        3
      ],
      "name": "Bip01",
      "rotation": [
        0.0,
        0.0,
        0.0,
        0.9999999403953552
      ],
      "scale": [
        0.9999997615814209,
        -5.117093408073606e-14,
        0.0
      ],
      "translation": [
        0.0,
        0.0,
        0.0
      ]
    },
    {
      "children": [
        4
      ],
      "name": "Bip01 Pelvis",
      "rotation": [
        -0.4999993145465851,
        -0.5,
        -0.5,
        0.5000006556510925
      ],
      "scale": [
        1.0,
        6.755036055564761e-20,
        -2.6671148450016795e-18
      ],
      "translation": [
        -0.43055400252342224,
        -0.013545999303460121,
        0.0
      ]
    },
    {
      "children": [
        5
      ],
      "name": "Bip01 Spine",
      "rotation": [
        2.198598167524324e-06,
        0.0004582926048897207,
        -0.008512732572853565,
        0.999963641166687
      ],
      "scale": [
        1.0000001192092896,
        1.6053502971402622e-09,
        4.070528636379578e-11
      ],
      "translation": [
        9.231704711914063,
        -0.0066817402839660645,
        1.2808945029973984e-05
      ]
    },
    {
      "children": [
        6
      ],
      "name": "Bip01 Spine1",
      "rotation": [
        5.158072862061769e-13,
        -5.820777193576987e-09,
        0.00209799874573946,
        0.9999977946281433
      ],
      "scale": [
        0.9999999403953552,
        -2.5010038484651886e-10,
        5.820904175335428e-11
      ],
      "translation": [
        8.398155212402344,
        -0.010102272033691406,
        -2.9802322387695313e-08
      ]
    },
    {
      "children": [
        7
      ],
      "name": "Bip01 Spine2",
      "rotation": [
        1.768535838608809e-12,
        9.605651030142326e-08,
        -0.03463057428598404,
        0.9994001984596252
      ],
      "scale": [
        0.9999999403953552,
        4.1258112482012166e-09,
        2.903735238368732e-11
      ],
      "translation": [
        12.686180114746094,
        -0.01007765531539917,
        -1.4901161193847656e-08
      ]
    },
    {
      "children": [
        8
      ],
      "name": "Bip01 Neck",
      "rotation": [
        -3.473228571237996e-05,
        -0.0004580979875754565,
        0.13992176949977875,
        0.9901624321937561
      ],
      "scale": [
        0.9999998807907104,
        1.4035803985734674e-07,
        9.23186576073931e-08
      ],
      "translation": [
        14.33416748046875,
        -3.440769672393799,
        -3.1366944313049316e-06
      ]
    },
    {
      "name": "Bip01 Head",
      "rotation": [
        -1.5619554005752434e-07,
        3.5345621540727734e-08,
        0.009768322110176086,
        0.9999522566795349
      ],
      "scale": [
        1.000000238418579,
        -1.6108998579511535e-07,
        -9.256359589926433e-08
      ],
      "translation": [
        8.948715209960938,
        0.0,
        1.862645149230957e-09
      ]
    }
  ],
  "scene": 0,
  "scenes": [
    {
      "nodes": [
        0
      ]
    }
  ],
  "skins": [
    {
      "inverseBindMatrices": 4,
      "joints": [
        2,
        3,
        4,
        5,
        6,
        7,
        8
      ],
      "skeleton": 2
    }
  ]
}
