{
  "accessors": [
    {
      "bufferView": 0,
      "componentType": 5126,
      "count": 415,
      "max": [
        14.102275848388672,
        12.012954711914063,
        166.61595153808594
      ],
      "min": [
        -13.359107971191406,
        -10.39415168762207,
        143.8463134765625
      ],
      "type": "VEC3"
    },
    {
      "bufferView": 1,
      "componentType": 5126,
      "count": 415,
      "type": "VEC3"
    },
    {
      "bufferView": 2,
      "componentType": 5126,
      "count": 415,
      "type": "VEC2"
    },
    {
      "bufferView": 3,
      "componentType": 5123,
      "count": 1437,
      "type": "SCALAR"
    },
    {
      "bufferView": 4,
      "componentType": 5126,
      "count": 66,
      "type": "MAT4"
    }
  ],
  "asset": {
    "generator": "gr2togltf (ANKA2 Project)",
    "version": "2.0"
  },
  "bufferViews": [
    {
      "buffer": 0,
      "byteLength": 4980,
      "target": 34962
    },
    {
      "buffer": 0,
      "byteLength": 4980,
      "byteOffset": 4980,
      "target": 34962
    },
    {
      "buffer": 0,
      "byteLength": 3320,
      "byteOffset": 9960,
      "target": 34962
    },
    {
      "buffer": 0,
      "byteLength": 2874,
      "byteOffset": 13280,
      "target": 34963
    },
    {
      "buffer": 0,
      "byteLength": 4224,
      "byteOffset": 16154
    }
  ],
  "buffers": [
    {
      "byteLength": 20378,
      "uri": "data:application/octet-stream;base64,"
    }
  ],
  "materials": [
    {
      "name": "default",
      "pbrMetallicRoughness": {
        "baseColorFactor": [
          0.8,
          0.8,
          0.8,
          1.0
        ],
        "metallicFactor": 0.0,
        "roughnessFactor": 0.8
      }
    }
  ],
  "meshes": [
    {
      "name": "hair_25_1",
      "primitives": [
        {
          "attributes": {
            "NORMAL": 1,
            "POSITION": 0,
            "TEXCOORD_0": 2
          },
          "indices": 3,
          "material": 0,
          "mode": 4
        }
      ]
    }
  ],
  "nodes": [
    {
      "children": [
        1,
        2
      ]
    },
    {
      "mesh": 0,
      "name": "hair_25_1",
      "skin": 0
    },
    {
      "children": [
        3
      ],
      "name": "Bip01",
      "rotation": [
        0.0,
        0.0,
        0.0,
        1.0000001192092896
      ],
      "scale": [
        1.0,
        0.0,
        0.0
      ],
      "translation": [
        -8.940696716308594e-08,
        -3.725290298461914e-09,
        0.0
      ]
    },
    {
      "children": [
        4
      ],
      "name": "Bip01 Pelvis",
      "rotation": [
        -0.499999463558197,
        -0.5000001788139343,
        -0.5000001788139343,
        0.500000536441803
      ],
      "scale": [
        1.0,
        0.0,
        0.0
      ],
      "translation": [
        -0.43055400252342224,
        -0.013545999303460121,
        0.0
      ]
    },
    {
      "children": [
        5,
        6,
        9,
        21,
        23,
        24,
        25
      ],
      "name": "Bip01 Spine",
      "rotation": [
        2.1985990770190256e-06,
        0.0004582926630973816,
        -0.00851273350417614,
        0.9999637603759766
      ],
      "scale": [
        1.0,
        1.258899429146254e-09,
        1.1641532182693481e-10
      ],
      "translation": [
        9.231704711914063,
        -0.0066817449405789375,
        1.2808945029973984e-05
      ]
    },
    {
      "children": [
        8
      ],
      "name": "Bip01 L Thigh",
      "rotation": [
        -0.0017526240553706884,
        0.9994144439697266,
        0.01285424456000328,
        -0.03166180104017258
      ],
      "scale": [
        0.9999998807907104,
        1.6298145055770874e-09,
        -7.450580596923828e-09
      ],
      "translation": [
        -9.237846374511719,
        -0.15050005912780762,
        8.019189834594727
      ]
    },
    {
      "children": [
        7
      ],
      "name": "Bip01 R Thigh",
      "rotation": [
        -0.0017407580744475126,
        0.9993849992752075,
        -0.012853805907070637,
        0.032579340040683746
      ],
      "scale": [
        0.9999999403953552,
        2.3283064365386963e-09,
        -1.4901161193847656e-08
      ],
      "translation": [
        -9.223106384277344,
        -0.15046727657318115,
        -8.036136627197266
      ]
    },
    {
      "children": [
        26
      ],
      "name": "Bip01 R Calf",
      "rotation": [
        2.02709002361523e-10,
        6.682723818762781e-11,
        -0.09983331710100174,
        0.9950041770935059
      ],
      "scale": [
        1.0,
        2.9802322387695313e-08,
        1.734609816894661e-10
      ],
      "translation": [
        40.13832473754883,
        1.1920928955078125e-07,
        0.0
      ]
    },
    {
      "children": [
        27
      ],
      "name": "Bip01 L Calf",
      "rotation": [
        8.588251776409095e-10,
        -6.246891892658368e-11,
        -0.09983331710100174,
        0.9950041770935059
      ],
      "scale": [
        1.0000001192092896,
        1.4901161193847656e-08,
        7.497746423723584e-09
      ],
      "translation": [
        40.138336181640625,
        0.0,
        0.0
      ]
    },
    {
      "children": [
        10
      ],
      "name": "Bip01 Spine1",
      "rotation": [
        7.431832384739712e-13,
        -5.8207816344690855e-09,
        0.0020979992114007473,
        0.9999977946281433
      ],
      "scale": [
        1.0,
        -1.3969838619232178e-09,
        5.8200555486109806e-11
      ],
      "translation": [
        8.398162841796875,
        -0.010102391242980957,
        -2.2351741790771484e-08
      ]
    },
    {
      "children": [
        11,
        38,
        39
      ],
      "name": "Bip01 Spine2",
      "rotation": [
        4.041193595039072e-12,
        9.605648187971383e-08,
        -0.034630581736564636,
        0.9994001984596252
      ],
      "scale": [
        0.9999999403953552,
        7.450581485102248e-09,
        2.90896196020185e-11
      ],
      "translation": [
        12.686180114746094,
        -0.010077476501464844,
        -1.4901161193847656e-08
      ]
    },
    {
      "children": [
        12,
        14,
        20
      ],
      "name": "Bip01 Neck",
      "rotation": [
        -3.473227843642235e-05,
        -0.0004580979875754565,
        0.13992175459861755,
        0.9901624321937561
      ],
      "scale": [
        0.9999998807907104,
        1.5105506179224903e-07,
        9.231735020875931e-08
      ],
      "translation": [
        14.33416748046875,
        -3.4407691955566406,
        -3.129243850708008e-06
      ]
    },
    {
      "children": [
        13,
        16
      ],
      "name": "Bip01 L Clavicle",
      "rotation": [
        0.5799687504768372,
        -0.08928921073675156,
        0.8024172782897949,
        0.10858398675918579
      ],
      "scale": [
        1.0000007152557373,
        2.421438694000244e-08,
        2.9802322387695313e-08
      ],
      "translation": [
        -1.0624542236328125,
        1.0819473266601563,
        2.8108510971069336
      ]
    },
    {
      "children": [
        31
      ],
      "name": "Bone01",
      "rotation": [
        0.6697562336921692,
        -0.1308906376361847,
        0.14558129012584686,
        0.7163102030754089
      ],
      "scale": [
        0.9999999403953552,
        2.9802322387695313e-08,
        2.2351741790771484e-08
      ],
      "translation": [
        5.556034088134766,
        -0.32680320739746094,
        0.830352783203125
      ]
    },
    {
      "children": [
        15,
        18
      ],
      "name": "Bip01 R Clavicle",
      "rotation": [
        -0.5792272090911865,
        0.08922634273767471,
        0.8029548525810242,
        0.10861968249082565
      ],
      "scale": [
        1.0000003576278687,
        -4.470348358154297e-08,
        -1.7881393432617188e-07
      ],
      "translation": [
        -1.067474365234375,
        1.08306884765625,
        -2.8085217475891113
      ]
    },
    {
      "children": [
        32
      ],
      "name": "Bone09",
      "rotation": [
        -0.6614201068878174,
        0.20630475878715515,
        0.15911230444908142,
        0.7033101916313171
      ],
      "scale": [
        0.9999998807907104,
        -1.1920928955078125e-07,
        4.284083843231201e-08
      ],
      "translation": [
        5.556018829345703,
        -0.32675695419311523,
        -0.8303680419921875
      ]
    },
    {
      "children": [
        17
      ],
      "name": "Bip01 L UpperArm",
      "rotation": [
        0.04123144596815109,
        0.11807679384946823,
        0.009625355713069439,
        0.9921014308929443
      ],
      "scale": [
        1.000000238418579,
        0.0,
        4.470348358154297e-08
      ],
      "translation": [
        11.362140655517578,
        4.76837158203125e-07,
        0.0
      ]
    },
    {
      "children": [
        42
      ],
      "name": "Bip01 L ForeArm",
      "rotation": [
        6.099012961335859e-10,
        -7.48374873182911e-09,
        -0.043017104268074036,
        0.9990743398666382
      ],
      "scale": [
        0.9999998807907104,
        -1.4901161193847656e-08,
        1.490115053570662e-08
      ],
      "translation": [
        24.082992553710938,
        0.0,
        -7.62939453125e-06
      ]
    },
    {
      "children": [
        19
      ],
      "name": "Bip01 R UpperArm",
      "rotation": [
        -0.0412333607673645,
        -0.11716550588607788,
        0.009602324105799198,
        0.9922095537185669
      ],
      "scale": [
        1.0000001192092896,
        -1.862645149230957e-09,
        0.0
      ],
      "translation": [
        11.362144470214844,
        -4.76837158203125e-07,
        -1.52587890625e-05
      ]
    },
    {
      "children": [
        43
      ],
      "name": "Bip01 R ForeArm",
      "rotation": [
        3.2044566999900326e-10,
        7.4436812269595976e-09,
        -0.043017107993364334,
        0.9990743398666382
      ],
      "scale": [
        0.9999999403953552,
        -7.450580596923828e-09,
        -1.4901170075631853e-08
      ],
      "translation": [
        24.082996368408203,
        -2.384185791015625e-07,
        0.0
      ]
    },
    {
      "children": [
        33
      ],
      "name": "Bip01 Head",
      "rotation": [
        -1.561951279427376e-07,
        3.534555048645416e-08,
        0.00976832490414381,
        0.9999522566795349
      ],
      "scale": [
        1.000000238418579,
        -1.6018745441215287e-07,
        -9.256342536900775e-08
      ],
      "translation": [
        8.948715209960938,
        -1.9073486328125e-06,
        0.0
      ]
    },
    {
      "children": [
        22
      ],
      "name": "B_01",
      "rotation": [
        -0.036898016929626465,
        -0.01395343616604805,
        0.9908522367477417,
        -0.1290571093559265
      ],
      "scale": [
        1.0000001192092896,
        4.784669727087021e-08,
        0.0
      ],
      "translation": [
        5.919456481933594,
        -6.957294464111328,
        -0.00042866915464401245
      ]
    },
    {
      "children": [
        37
      ],
      "name": "B_02",
      "rotation": [
        -1.8213539565437031e-09,
        -1.8470512896939795e-09,
        -0.0811627134680748,
        0.9967008829116821
      ],
      "scale": [
        1.0,
        -1.6669792036060617e-17,
        -3.977568052704328e-09
      ],
      "translation": [
        16.875198364257813,
        -0.00030517578125,
        -4.76837158203125e-07
      ]
    },
    {
      "children": [
        28
      ],
      "name": "R_01",
      "rotation": [
        0.20674896240234375,
        0.692965030670166,
        -0.6817430853843689,
        0.11081857979297638
      ],
      "scale": [
        0.9999995827674866,
        2.9802322387695313e-08,
        1.4901161193847656e-08
      ],
      "translation": [
        3.7016830444335938,
        0.06956088542938232,
        -10.318808555603027
      ]
    },
    {
      "children": [
        29
      ],
      "name": "L_01",
      "rotation": [
        0.15459130704402924,
        0.673168420791626,
        0.7197554707527161,
        -0.06998541206121445
      ],
      "scale": [
        0.9999997615814209,
        -2.9802322387695313e-08,
        -1.5273690223693848e-07
      ],
      "translation": [
        3.6826858520507813,
        0.06954574584960938,
        10.391956329345703
      ]
    },
    {
      "children": [
        30
      ],
      "name": "F_01",
      "rotation": [
        -0.031803831458091736,
        -0.023337265476584435,
        0.9891655445098877,
        0.14140601456165314
      ],
      "scale": [
        0.9999995827674866,
        5.8906152844429016e-08,
        0.0
      ],
      "translation": [
        2.9761428833007813,
        9.141228675842285,
        -0.00312042236328125
      ]
    },
    {
      "children": [
        40
      ],
      "name": "Bip01 R Foot",
      "rotation": [
        0.06932739913463593,
        0.03842361271381378,
        0.09007489681243896,
        0.9927758574485779
      ],
      "scale": [
        1.0,
        -2.9802322387695313e-08,
        1.4901161193847656e-08
      ],
      "translation": [
        40.13832473754883,
        0.0,
        0.0
      ]
    },
    {
      "children": [
        41
      ],
      "name": "Bip01 L Foot",
      "rotation": [
        -0.06932740658521652,
        -0.038423530757427216,
        0.09007490426301956,
        0.9927758574485779
      ],
      "scale": [
        1.0000001192092896,
        -3.4458935260772705e-08,
        -7.450580596923828e-09
      ],
      "translation": [
        40.13832473754883,
        0.0,
        0.0
      ]
    },
    {
      "children": [
        44
      ],
      "name": "R_02",
      "rotation": [
        -1.0704714892284528e-09,
        1.8648288246936318e-08,
        -0.037528522312641144,
        0.9992955327033997
      ],
      "scale": [
        1.0000001192092896,
        1.3854332936109393e-16,
        7.387619405108126e-09
      ],
      "translation": [
        19.448829650878906,
        3.814697265625e-06,
        0.0
      ]
    },
    {
      "children": [
        45
      ],
      "name": "L_02",
      "rotation": [
        -1.721528697373742e-09,
        1.8683236291394678e-08,
        -0.03752852603793144,
        0.9992955327033997
      ],
      "scale": [
        1.0000001192092896,
        7.450580596923828e-09,
        -7.492552356325177e-09
      ],
      "translation": [
        19.448829650878906,
        3.814697265625e-06,
        0.0
      ]
    },
    {
      "children": [
        46
      ],
      "name": "F_02",
      "rotation": [
        1.3965985035113704e-09,
        -1.0935601382766613e-11,
        0.02348407544195652,
        0.9997242093086243
      ],
      "scale": [
        1.0000001192092896,
        2.60770320892334e-08,
        -8.746092738931566e-11
      ],
      "translation": [
        19.174591064453125,
        3.814697265625e-06,
        0.0
      ]
    },
    {
      "name": "Bone02",
      "rotation": [
        3.7252898543727042e-09,
        0.0,
        -1.8626449271863521e-09,
        1.0
      ],
      "scale": [
        1.0000001192092896,
        -3.725290742551124e-09,
        -3.725290742551124e-09
      ],
      "translation": [
        25.683963775634766,
        0.0,
        0.0
      ]
    },
    {
      "name": "Bone10",
      "rotation": [
        -3.725290298461914e-09,
        -4.656613428188905e-10,
        3.725290298461914e-09,
        1.0
      ],
      "scale": [
        1.0,
        7.450580596923828e-09,
        9.313225191043273e-10
      ],
      "translation": [
        25.6839599609375,
        0.0,
        1.9073486328125e-06
      ]
    },
    {
      "children": [
        34
      ],
      "name": "Bip01 Ponytail1",
      "rotation": [
        1.9119766533903793e-12,
        -2.772705101961037e-06,
        0.9996773600578308,
        -0.02540152333676815
      ],
      "scale": [
        1.0,
        7.808638718270755e-13,
        -5.684341886080802e-14
      ],
      "translation": [
        16.320892333984375,
        -17.09018325805664,
        0.031389594078063965
      ]
    },
    {
      "children": [
        35
      ],
      "name": "Bip01 Ponytail11",
      "rotation": [
        2.2591372945534455e-13,
        3.766511156300112e-07,
        -0.1357986330986023,
        0.9907364845275879
      ],
      "scale": [
        1.0,
        7.634667095572645e-14,
        0.0
      ],
      "translation": [
        12.657058715820313,
        -0.00971221923828125,
        -2.6542693376541138e-08
      ]
    },
    {
      "children": [
        36
      ],
      "name": "Bip01 Ponytail12",
      "rotation": [
        -4.443874183870553e-16,
        1.0159089214312189e-07,
        -0.03662780299782753,
        0.9993289709091187
      ],
      "scale": [
        0.9999999403953552,
        1.5110835903747407e-15,
        0.0
      ],
      "translation": [
        12.65899658203125,
        -0.010051727294921875,
        -2.8405338525772095e-08
      ]
    },
    {
      "children": [
        47
      ],
      "name": "Bip01 Ponytail13",
      "rotation": [
        5.551817234029718e-17,
        -4.410394538467699e-08,
        0.015901342034339905,
        0.9998735785484314
      ],
      "scale": [
        1.0,
        -1.2372900104630204e-16,
        -2.1316282072803006e-14
      ],
      "translation": [
        12.660064697265625,
        -0.010076522827148438,
        -2.7474015951156616e-08
      ]
    },
    {
      "name": "B_03",
      "rotation": [
        2.7755575615628914e-17,
        3.725290298461914e-09,
        3.725290298461914e-08,
        1.0
      ],
      "scale": [
        1.0000001192092896,
        7.450580596923828e-09,
        4.440892098500626e-16
      ],
      "translation": [
        23.144195556640625,
        1.1444091796875e-05,
        0.0
      ]
    },
    {
      "children": [
        48
      ],
      "name": "Bone07",
      "rotation": [
        -0.1429418921470642,
        0.06352420896291733,
        0.7351759076118469,
        0.6595821976661682
      ],
      "scale": [
        0.999999463558197,
        -7.450580596923828e-09,
        2.9802322387695313e-08
      ],
      "translation": [
        4.191444396972656,
        3.242025375366211,
        -4.37860107421875
      ]
    },
    {
      "children": [
        49
      ],
      "name": "Bone05",
      "rotation": [
        0.09463177621364594,
        -0.12054207175970078,
        0.7428730726242065,
        0.651654839515686
      ],
      "scale": [
        1.0000003576278687,
        -1.30385160446167e-08,
        -5.960464477539063e-08
      ],
      "translation": [
        4.191459655761719,
        3.2420148849487305,
        4.743302345275879
      ]
    },
    {
      "name": "Bip01 R Toe0",
      "rotation": [
        1.5700926965105832e-16,
        1.5700926965105832e-16,
        0.70710688829422,
        0.7071067094802856
      ],
      "scale": [
        1.0,
        1.7763568394002505e-15,
        -3.223900041478473e-16
      ],
      "translation": [
        13.162713050842285,
        12.05335521697998,
        0.0
      ]
    },
    {
      "name": "Bip01 L Toe0",
      "rotation": [
        2.02476010213036e-31,
        0.0,
        0.70710688829422,
        0.7071067094802856
      ],
      "scale": [
        1.0,
        1.7763568394002505e-15,
        3.223949804664124e-16
      ],
      "translation": [
        13.162713050842285,
        12.05335521697998,
        9.5367431640625e-07
      ]
    },
    {
      "children": [
        52,
        54,
        58
      ],
      "name": "Bip01 L Hand",
      "rotation": [
        -0.7058848142623901,
        -0.03647787123918533,
        -0.03644883260130882,
        0.7064470648765564
      ],
      "scale": [
        1.0,
        -1.4901161193847656e-08,
        -8.658389560878277e-10
      ],
      "translation": [
        24.082996368408203,
        4.76837158203125e-07,
        0.0
      ]
    },
    {
      "children": [
        50,
        56,
        60
      ],
      "name": "Bip01 R Hand",
      "rotation": [
        0.7058848142623901,
        0.03647787496447563,
        -0.03644884005188942,
        0.7064470648765564
      ],
      "scale": [
        1.0000001192092896,
        7.450580596923828e-09,
        -3.776222001761198e-09
      ],
      "translation": [
        24.082996368408203,
        4.76837158203125e-07,
        0.0
      ]
    },
    {
      "name": "R_03",
      "rotation": [
        9.31322685637781e-10,
        7.450580596923828e-09,
        -7.450580596923828e-09,
        1.0
      ],
      "scale": [
        0.9999999403953552,
        1.4901161193847656e-08,
        8.881784197001252e-16
      ],
      "translation": [
        16.96139907836914,
        -3.814697265625e-06,
        0.0
      ]
    },
    {
      "name": "L_03",
      "rotation": [
        9.313225746154785e-10,
        7.450580596923828e-09,
        -3.725290298461914e-09,
        1.0
      ],
      "scale": [
        1.0,
        7.450580596923828e-09,
        8.881784197001252e-16
      ],
      "translation": [
        16.961395263671875,
        -3.814697265625e-06,
        0.0
      ]
    },
    {
      "name": "F_03",
      "rotation": [
        3.469446951953614e-16,
        5.551115123125783e-17,
        -9.685754776000977e-08,
        1.0
      ],
      "scale": [
        1.0,
        1.2407709188295415e-24,
        -7.450580596923828e-09
      ],
      "translation": [
        15.030868530273438,
        -3.814697265625e-06,
        4.76837158203125e-07
      ]
    },
    {
      "name": "Bip01 Ponytail14",
      "rotation": [
        1.1472200685085088e-13,
        -6.945339237063308e-08,
        0.025040872395038605,
        0.9996864199638367
      ],
      "scale": [
        0.9999999403953552,
        -4.829969271283601e-16,
        2.842170943040401e-14
      ],
      "translation": [
        12.660255432128906,
        -0.010066986083984375,
        -2.8405338525772095e-08
      ]
    },
    {
      "name": "Bone08",
      "rotation": [
        -2.210820193582208e-09,
        8.359663183910016e-09,
        -8.290575448377524e-10,
        1.0
      ],
      "scale": [
        0.4212566018104553,
        -2.3283064365386963e-10,
        6.431946975027358e-09
      ],
      "translation": [
        9.775653839111328,
        -7.62939453125e-06,
        1.9073486328125e-06
      ]
    },
    {
      "name": "Bone06",
      "rotation": [
        1.182788835762949e-07,
        8.926188854729844e-08,
        4.0102266667986497e-16,
        1.0
      ],
      "scale": [
        0.42125657200813293,
        -8.723474586192371e-15,
        2.153683453798294e-09
      ],
      "translation": [
        9.77564811706543,
        0.0,
        0.0
      ]
    },
    {
      "children": [
        51
      ],
      "name": "Bip01 R Finger0",
      "rotation": [
        -0.6828780174255371,
        -0.25692248344421387,
        -0.1345290094614029,
        0.6705000996589661
      ],
      "scale": [
        1.0000004768371582,
        1.7881393432617188e-07,
        4.1350722312927246e-07
      ],
      "translation": [
        0.5431480407714844,
        0.00774383544921875,
        2.5511603355407715
      ]
    },
    {
      "children": [
        62
      ],
      "name": "Bip01 R Finger01",
      "rotation": [
        -7.3999353311648974e-09,
        -1.653439696269743e-08,
        0.11640210449695587,
        0.9932021498680115
      ],
      "scale": [
        0.9999998211860657,
        1.4901159417490817e-08,
        -1.3189307423999708e-09
      ],
      "translation": [
        3.7950172424316406,
        -1.9073486328125e-06,
        0.0
      ]
    },
    {
      "children": [
        53
      ],
      "name": "Bip01 L Finger0",
      "rotation": [
        0.6828780174255371,
        0.25692248344421387,
        -0.1345290094614029,
        0.6705000996589661
      ],
      "scale": [
        1.0000004768371582,
        1.7881393432617188e-07,
        -3.3527612686157227e-07
      ],
      "translation": [
        0.5431480407714844,
        0.00774383544921875,
        -2.5511605739593506
      ]
    },
    {
      "children": [
        63
      ],
      "name": "Bip01 L Finger01",
      "rotation": [
        -4.5672310378108705e-09,
        6.966303089939174e-09,
        0.11640208959579468,
        0.9932021498680115
      ],
      "scale": [
        0.9999999403953552,
        1.4901161193847656e-08,
        -1.4901161193847656e-08
      ],
      "translation": [
        3.795013427734375,
        0.0,
        7.62939453125e-06
      ]
    },
    {
      "children": [
        55
      ],
      "name": "Bip01 L Finger2",
      "rotation": [
        -0.08983667194843292,
        -0.004974723793566227,
        0.0555574856698513,
        0.9943932890892029
      ],
      "scale": [
        0.9999997615814209,
        1.6928788681980222e-07,
        -1.2648524716496468e-07
      ],
      "translation": [
        8.273906707763672,
        -0.6917953491210938,
        1.205906867980957
      ]
    },
    {
      "children": [
        64
      ],
      "name": "Bip01 L Finger21",
      "rotation": [
        -2.4370638840309766e-10,
        4.565075428786258e-09,
        0.1308387815952301,
        0.9914036393165588
      ],
      "scale": [
        1.0000001192092896,
        -2.9802322387695313e-08,
        -5.785724788154312e-09
      ],
      "translation": [
        3.0855941772460938,
        7.62939453125e-06,
        0.0
      ]
    },
    {
      "children": [
        57
      ],
      "name": "Bip01 R Finger2",
      "rotation": [
        0.08983668684959412,
        0.004974720533937216,
        0.055557504296302795,
        0.9943932890892029
      ],
      "scale": [
        0.9999997615814209,
        2.007582224905491e-07,
        1.0398071026429534e-07
      ],
      "translation": [
        8.273910522460938,
        -0.6917953491210938,
        -1.2059063911437988
      ]
    },
    {
      "children": [
        65
      ],
      "name": "Bip01 R Finger21",
      "rotation": [
        -3.936972969853514e-09,
        -2.3340458454867985e-09,
        0.1308388113975525,
        0.9914036393165588
      ],
      "scale": [
        1.0000001192092896,
        -2.9802322387695313e-08,
        -3.597745656946927e-09
      ],
      "translation": [
        3.085590362548828,
        0.0,
        0.0
      ]
    },
    {
      "children": [
        59
      ],
      "name": "Bip01 L Finger1",
      "rotation": [
        -0.0031984648667275906,
        0.06787998974323273,
        0.041126422584056854,
        0.9968403577804565
      ],
      "scale": [
        1.0000001192092896,
        2.4682231014594436e-07,
        1.043081283569336e-07
      ],
      "translation": [
        8.236907958984375,
        -0.8613967895507813,
        -2.459082841873169
      ]
    },
    {
      "children": [
        66
      ],
      "name": "Bip01 L Finger11",
      "rotation": [
        -6.207448333128696e-09,
        -9.19218923201015e-09,
        0.11640209704637527,
        0.9932021498680115
      ],
      "scale": [
        1.0,
        1.4901160305669237e-08,
        2.043861968559213e-08
      ],
      "translation": [
        3.0103721618652344,
        0.0,
        -9.5367431640625e-07
      ]
    },
    {
      "children": [
        61
      ],
      "name": "Bip01 R Finger1",
      "rotation": [
        0.0031984674278646708,
        -0.06787998974323273,
        0.04112643748521805,
        0.9968403577804565
      ],
      "scale": [
        1.0000001192092896,
        2.7662463253363967e-07,
        -1.1920928955078125e-07
      ],
      "translation": [
        8.236907958984375,
        -0.8613967895507813,
        2.45908260345459
      ]
    },
    {
      "children": [
        67
      ],
      "name": "Bip01 R Finger11",
      "rotation": [
        3.157928585295622e-09,
        2.7749760267425927e-09,
        0.11640209704637527,
        0.9932021498680115
      ],
      "scale": [
        1.0,
        2.9802322387695313e-08,
        -1.0124117544307865e-08
      ],
      "translation": [
        3.0103759765625,
        -7.62939453125e-06,
        0.0
      ]
    },
    {
      "name": "Bip01 R Finger02",
      "rotation": [
        -3.6999678876270536e-09,
        4.336317138697865e-10,
        0.11640210449695587,
        0.9932021498680115
      ],
      "scale": [
        0.9999999403953552,
        0.0,
        1.7227346216230899e-09
      ],
      "translation": [
        3.7950172424316406,
        1.9073486328125e-06,
        0.0
      ]
    },
    {
      "name": "Bip01 L Finger02",
      "rotation": [
        5.4344937439054775e-09,
        -4.3363165835863526e-10,
        0.11640210449695587,
        0.9932021498680115
      ],
      "scale": [
        1.0,
        0.0,
        2.7675783442759894e-08
      ],
      "translation": [
        3.795013427734375,
        1.9073486328125e-06,
        -7.62939453125e-06
      ]
    },
    {
      "name": "Bip01 L Finger22",
      "rotation": [
        2.3340458454867985e-09,
        -9.86126913460339e-09,
        0.1308388113975525,
        0.9914036393165588
      ],
      "scale": [
        1.0,
        2.9802322387695313e-08,
        9.638560172220423e-09
      ],
      "translation": [
        3.0856056213378906,
        -1.52587890625e-05,
        -1.9073486328125e-06
      ]
    },
    {
      "name": "Bip01 R Finger22",
      "rotation": [
        4.874125547615904e-10,
        3.693267025539626e-09,
        0.1308387815952301,
        0.9914036393165588
      ],
      "scale": [
        0.9999999403953552,
        2.9802322387695313e-08,
        7.195490425715434e-09
      ],
      "translation": [
        3.085590362548828,
        -1.52587890625e-05,
        1.9073486328125e-06
      ]
    },
    {
      "name": "Bip01 L Finger12",
      "rotation": [
        -2.3413437855168695e-09,
        -3.157927919161807e-09,
        0.11640210449695587,
        0.993202269077301
      ],
      "scale": [
        1.0,
        -1.4901161193847656e-08,
        9.173315440591523e-09
      ],
      "translation": [
        3.010395050048828,
        0.0,
        2.86102294921875e-06
      ]
    },
    {
      "name": "Bip01 R Finger12",
      "rotation": [
        2.124527886948613e-09,
        5.4415427719334275e-09,
        0.11640210449695587,
        0.993202269077301
      ],
      "scale": [
        1.0,
        -1.4901161193847656e-08,
        -1.203723787313038e-08
      ],
      "translation": [
        3.0103912353515625,
        0.0,
        -2.86102294921875e-06
      ]
    }
  ],
  "scene": 0,
  "scenes": [
    {
      "nodes": [
        0
      ]
    }
  ],
  "skins": [
    {
      "inverseBindMatrices": 4,
      "joints": [
        2,
        3,
        4,
        5,
        6,
        7,
        8,
        9,
        10,
        11,
        12,
        13,
        14,
        15,
        16,
        17,
        18,
        19,
        20,
        21,
        22,
        23,
        24,
        25,
        26,
        27,
        28,
        29,
        30,
        31,
        32,
        33,
        34,
        35,
        36,
        37,
        38,
        39,
        40,
        41,
        42,
        43,
        44,
        45,
        46,
        47,
        48,
        49,
        50,
        51,
        52,
        53,
        54,
        55,
        56,
        57,
        58,
        59,
        60,
        61,
        62,
        63,
        64,
        65,
        66,
        67
      ],
      "skeleton": 2
    }
  ]
}
