{
  "accessors": [
    {
      "bufferView": 0,
      "componentType": 5126,
      "count": 607,
      "max": [
        9.004901885986328,
        11.525762557983398,
        171.8513641357422
      ],
      "min": [
        -19.41348648071289,
        -12.193025588989258,
        141.2714080810547
      ],
      "type": "VEC3"
    },
    {
      "bufferView": 1,
      "componentType": 5126,
      "count": 607,
      "type": "VEC3"
    },
    {
      "bufferView": 2,
      "componentType": 5126,
      "count": 607,
      "type": "VEC2"
    },
    {
      "bufferView": 3,
      "componentType": 5123,
      "count": 2385,
      "type": "SCALAR"
    },
    {
      "bufferView": 4,
      "componentType": 5126,
      "count": 68,
      "type": "MAT4"
    }
  ],
  "asset": {
    "generator": "gr2togltf (ANKA2 Project)",
    "version": "2.0"
  },
  "bufferViews": [
    {
      "buffer": 0,
      "byteLength": 7284,
      "target": 34962
    },
    {
      "buffer": 0,
      "byteLength": 7284,
      "byteOffset": 7284,
      "target": 34962
    },
    {
      "buffer": 0,
      "byteLength": 4856,
      "byteOffset": 14568,
      "target": 34962
    },
    {
      "buffer": 0,
      "byteLength": 4770,
      "byteOffset": 19424,
      "target": 34963
    },
    {
      "buffer": 0,
      "byteLength": 4352,
      "byteOffset": 24194
    }
  ],
  "buffers": [
    {
      "byteLength": 28546,
      "uri": "data:application/octet-stream;base64,"
    }
  ],
  "materials": [
    {
      "name": "default",
      "pbrMetallicRoughness": {
        "baseColorFactor": [
          0.8,
          0.8,
          0.8,
          1.0
        ],
        "metallicFactor": 0.0,
        "roughnessFactor": 0.8
      }
    }
  ],
  "meshes": [
    {
      "name": "hair_71_1",
      "primitives": [
        {
          "attributes": {
            "NORMAL": 1,
            "POSITION": 0,
            "TEXCOORD_0": 2
          },
          "indices": 3,
          "material": 0,
          "mode": 4
        }
      ]
    }
  ],
  "nodes": [
    {
      "children": [
        1,
        2
      ]
    },
    {
      "mesh": 0,
      "name": "hair_71_1",
      "skin": 0
    },
    {
      "children": [
        3
      ],
      "name": "Bip01",
      "rotation": [
        0.0,
        0.0,
        0.0,
        1.0000001192092896
      ],
      "scale": [
        1.0,
        0.0,
        0.0
      ],
      "translation": [
        1.4551915228366852e-11,
        -1.3969838619232178e-09,
        0.0
      ]
    },
    {
      "children": [
        4
      ],
      "name": "Bip01 Pelvis",
      "rotation": [
        -0.499999463558197,
        -0.5000001788139343,
        -0.5000001788139343,
        0.500000536441803
      ],
      "scale": [
        1.0,
        0.0,
        2.2737367544323206e-13
      ],
      "translation": [
        6.359816325129941e-05,
        3.7373974919319153e-06,
        0.0
      ]
    },
    {
      "children": [
        5,
        6,
        9,
        21,
        23,
        24,
        25
      ],
      "name": "Bip01 Spine",
      "rotation": [
        2.1996265786583535e-06,
        0.00045840293751098216,
        -0.008512725122272968,
        0.999963641166687
      ],
      "scale": [
        1.0000001192092896,
        3.1221261131975098e-09,
        5.820766091346741e-11
      ],
      "translation": [
        9.231704711914063,
        -0.006681753322482109,
        1.2809410691261292e-05
      ]
    },
    {
      "children": [
        8
      ],
      "name": "Bip01 R Thigh",
      "rotation": [
        -0.0017406430561095476,
        0.9993850588798523,
        -0.0128540163859725,
        0.03257973492145538
      ],
      "scale": [
        1.0000001192092896,
        1.862645149230957e-09,
        0.0
      ],
      "translation": [
        -9.223114013671875,
        -0.1504669189453125,
        -8.036139488220215
      ]
    },
    {
      "children": [
        7
      ],
      "name": "Bip01 L Thigh",
      "rotation": [
        -0.001752511947415769,
        0.9994144439697266,
        0.012854449450969696,
        -0.031661972403526306
      ],
      "scale": [
        1.0,
        1.3969838619232178e-09,
        0.0
      ],
      "translation": [
        -9.23785400390625,
        -0.15049970149993896,
        8.019186973571777
      ]
    },
    {
      "children": [
        26
      ],
      "name": "Bip01 L Calf",
      "rotation": [
        -5.814446701890574e-10,
        1.9158084008097376e-09,
        -0.09983319044113159,
        0.9950041770935059
      ],
      "scale": [
        1.0,
        1.032756666904504e-17,
        -3.754200950112363e-09
      ],
      "translation": [
        40.13832473754883,
        -1.1920928955078125e-07,
        -9.5367431640625e-07
      ]
    },
    {
      "children": [
        27
      ],
      "name": "Bip01 R Calf",
      "rotation": [
        1.768740265362112e-09,
        -5.782291978562171e-09,
        -0.099833182990551,
        0.9950041770935059
      ],
      "scale": [
        1.0000001192092896,
        2.9802322387695313e-08,
        3.747509413898342e-09
      ],
      "translation": [
        40.138328552246094,
        0.0,
        0.0
      ]
    },
    {
      "children": [
        10
      ],
      "name": "Bip01 Spine1",
      "rotation": [
        -4.852682925632346e-13,
        -5.806227942883879e-09,
        0.0020978960674256086,
        0.9999977946281433
      ],
      "scale": [
        1.0,
        -2.3283064365386963e-09,
        -2.9101165921474603e-11
      ],
      "translation": [
        8.398162841796875,
        -0.010102152824401855,
        -3.725290298461914e-08
      ]
    },
    {
      "children": [
        11,
        38,
        39
      ],
      "name": "Bip01 Spine2",
      "rotation": [
        9.880249830090948e-13,
        9.60274277872486e-08,
        -0.03463052213191986,
        0.9994001984596252
      ],
      "scale": [
        1.0000001192092896,
        7.450581485102248e-09,
        8.72688588060555e-11
      ],
      "translation": [
        12.686180114746094,
        -0.010077834129333496,
        -2.2351741790771484e-08
      ]
    },
    {
      "children": [
        12,
        14,
        20
      ],
      "name": "Bip01 Neck",
      "rotation": [
        -3.4904463973362e-05,
        -0.0004581698449328542,
        0.13992182910442352,
        0.9901624321937561
      ],
      "scale": [
        1.0000001192092896,
        1.691617512733501e-09,
        -5.820766091346741e-11
      ],
      "translation": [
        14.334159851074219,
        -3.440770149230957,
        -3.419816493988037e-06
      ]
    },
    {
      "children": [
        13,
        16
      ],
      "name": "Bip01 R Clavicle",
      "rotation": [
        -0.579227089881897,
        0.08922641724348068,
        0.8029547929763794,
        0.10861968249082565
      ],
      "scale": [
        1.000000238418579,
        7.450580596923828e-09,
        -5.960464477539063e-08
      ],
      "translation": [
        -1.0674591064453125,
        1.0830726623535156,
        -2.8085203170776367
      ]
    },
    {
      "children": [
        31
      ],
      "name": "Bone09",
      "rotation": [
        -0.7098599076271057,
        0.1863297075033188,
        0.17373278737068176,
        0.6566560864448547
      ],
      "scale": [
        0.9999995231628418,
        2.9802322387695313e-08,
        -1.1175870895385742e-08
      ],
      "translation": [
        5.5560150146484375,
        -0.32675790786743164,
        -0.8303375244140625
      ]
    },
    {
      "children": [
        15,
        18
      ],
      "name": "Bip01 L Clavicle",
      "rotation": [
        0.5799686908721924,
        -0.0892895832657814,
        0.8024172782897949,
        0.10858382284641266
      ],
      "scale": [
        1.000000238418579,
        -1.30385160446167e-08,
        8.940696716308594e-08
      ],
      "translation": [
        -1.06243896484375,
        1.0819511413574219,
        2.8108510971069336
      ]
    },
    {
      "children": [
        32
      ],
      "name": "Bone01",
      "rotation": [
        0.7034853100776672,
        -0.21398688852787018,
        0.20264050364494324,
        0.6467261910438538
      ],
      "scale": [
        0.9999995231628418,
        5.960464477539063e-08,
        -5.960464477539063e-08
      ],
      "translation": [
        5.556034088134766,
        -0.3268098831176758,
        0.830352783203125
      ]
    },
    {
      "children": [
        17
      ],
      "name": "Bip01 R UpperArm",
      "rotation": [
        -0.041233502328395844,
        -0.11716581135988235,
        0.009602151811122894,
        0.9922095537185669
      ],
      "scale": [
        1.0,
        -1.862645149230957e-09,
        1.4901161193847656e-08
      ],
      "translation": [
        11.362140655517578,
        0.0,
        0.0
      ]
    },
    {
      "children": [
        42
      ],
      "name": "Bip01 R ForeArm",
      "rotation": [
        1.2199690146985631e-09,
        -2.9854856364863736e-08,
        -0.043017346411943436,
        0.9990743398666382
      ],
      "scale": [
        0.9999999403953552,
        4.4367826652174627e-16,
        2.985748182027237e-08
      ],
      "translation": [
        24.082996368408203,
        -2.384185791015625e-07,
        0.0
      ]
    },
    {
      "children": [
        19
      ],
      "name": "Bip01 L UpperArm",
      "rotation": [
        0.04123157262802124,
        0.1180773377418518,
        0.009625189006328583,
        0.9921013712882996
      ],
      "scale": [
        1.0000001192092896,
        1.862645149230957e-09,
        -1.4901161193847656e-08
      ],
      "translation": [
        11.362136840820313,
        -9.5367431640625e-07,
        1.52587890625e-05
      ]
    },
    {
      "children": [
        43
      ],
      "name": "Bip01 L ForeArm",
      "rotation": [
        -2.8945193464302577e-10,
        2.981479951813526e-08,
        -0.043017346411943436,
        0.9990743398666382
      ],
      "scale": [
        1.0,
        2.2183915973065274e-16,
        -2.9857467609417654e-08
      ],
      "translation": [
        24.082992553710938,
        -2.384185791015625e-07,
        0.0
      ]
    },
    {
      "children": [
        33
      ],
      "name": "Bip01 Head",
      "rotation": [
        6.209180392069413e-11,
        -2.6825711429978583e-08,
        0.009768244810402393,
        0.9999522566795349
      ],
      "scale": [
        1.0,
        1.4901161193847656e-08,
        2.7924329515371937e-11
      ],
      "translation": [
        8.94873046875,
        0.0,
        1.862645149230957e-09
      ]
    },
    {
      "children": [
        22
      ],
      "name": "B_01",
      "rotation": [
        -0.0001911860890686512,
        -0.000910862407181412,
        0.9792234897613525,
        -0.2027818113565445
      ],
      "scale": [
        0.9999998211860657,
        1.0698022379074246e-07,
        2.9569491744041443e-08
      ],
      "translation": [
        5.919464111328125,
        -6.9572954177856445,
        -0.0004273653030395508
      ]
    },
    {
      "children": [
        37
      ],
      "name": "B_02",
      "rotation": [
        -7.275925088118251e-12,
        -1.5223965751237634e-13,
        -0.002989096799865365,
        0.9999955296516418
      ],
      "scale": [
        1.000000238418579,
        -3.026798367500305e-08,
        -3.4797688276862193e-13
      ],
      "translation": [
        16.875198364257813,
        -0.000308990478515625,
        0.0
      ]
    },
    {
      "children": [
        28
      ],
      "name": "R_01",
      "rotation": [
        0.15164628624916077,
        0.6913433074951172,
        -0.6890617609024048,
        0.15569767355918884
      ],
      "scale": [
        0.9999996423721313,
        8.940696716308594e-08,
        6.094342097640038e-08
      ],
      "translation": [
        3.7016830444335938,
        0.0695641040802002,
        -10.318811416625977
      ]
    },
    {
      "children": [
        29
      ],
      "name": "L_01",
      "rotation": [
        0.15857550501823425,
        0.6876792311668396,
        0.687770664691925,
        -0.17006660997867584
      ],
      "scale": [
        0.9999999403953552,
        -2.9802322387695313e-08,
        4.98257577419281e-08
      ],
      "translation": [
        3.6826705932617188,
        0.0695488452911377,
        10.391952514648438
      ]
    },
    {
      "children": [
        30
      ],
      "name": "F_01",
      "rotation": [
        0.001869416912086308,
        0.002393665025010705,
        0.9894721508026123,
        0.14469210803508759
      ],
      "scale": [
        1.0,
        1.4744728105142713e-08,
        1.30385160446167e-08
      ],
      "translation": [
        2.9761505126953125,
        9.14123249053955,
        -0.0031204968690872192
      ]
    },
    {
      "children": [
        40
      ],
      "name": "Bip01 L Foot",
      "rotation": [
        -0.06932654231786728,
        -0.03842371329665184,
        0.09007466584444046,
        0.9927759170532227
      ],
      "scale": [
        1.0000001192092896,
        1.0244548320770264e-08,
        -7.450580596923828e-09
      ],
      "translation": [
        40.13832473754883,
        0.0,
        0.0
      ]
    },
    {
      "children": [
        41
      ],
      "name": "Bip01 R Foot",
      "rotation": [
        0.06932652741670609,
        0.038423802703619,
        0.09007465839385986,
        0.9927759170532227
      ],
      "scale": [
        0.9999999403953552,
        1.4901161193847656e-08,
        0.0
      ],
      "translation": [
        40.13832473754883,
        9.5367431640625e-07,
        0.0
      ]
    },
    {
      "children": [
        44
      ],
      "name": "R_02",
      "rotation": [
        5.819231208015196e-10,
        1.9100452774978294e-08,
        -0.022987892851233482,
        0.9997357130050659
      ],
      "scale": [
        1.0000001192092896,
        1.4901161193847656e-08,
        3.33351124481851e-11
      ],
      "translation": [
        19.448837280273438,
        3.814697265625e-06,
        -8.344650268554688e-07
      ]
    },
    {
      "children": [
        45
      ],
      "name": "L_02",
      "rotation": [
        1.1641532182693481e-10,
        1.9208412638249683e-08,
        -0.0003876239061355591,
        0.9999999403953552
      ],
      "scale": [
        1.000000238418579,
        5.820762968844484e-11,
        -1.3500311979441904e-13
      ],
      "translation": [
        19.448837280273438,
        7.62939453125e-06,
        -7.897615432739258e-07
      ]
    },
    {
      "children": [
        46
      ],
      "name": "F_02",
      "rotation": [
        1.1638319474815972e-10,
        -1.3669529917714751e-12,
        0.02348407171666622,
        0.9997242093086243
      ],
      "scale": [
        1.0000001192092896,
        -3.725290298461914e-09,
        -8.199455003854439e-12
      ],
      "translation": [
        19.174598693847656,
        3.814697265625e-06,
        3.5762786865234375e-07
      ]
    },
    {
      "name": "Bone10",
      "rotation": [
        2.3283067140944524e-10,
        8.731149830909501e-11,
        5.421012154897229e-20,
        1.0
      ],
      "scale": [
        1.0,
        5.421010862427522e-20,
        2.9103830456733704e-10
      ],
      "translation": [
        25.683956146240234,
        0.0,
        4.76837158203125e-07
      ]
    },
    {
      "name": "Bone02",
      "rotation": [
        -1.7462298274040222e-10,
        1.734723475976807e-18,
        -7.450580152834618e-09,
        1.0
      ],
      "scale": [
        1.0000001192092896,
        -1.4901161193847656e-08,
        -5.820766785236131e-11
      ],
      "translation": [
        25.683956146240234,
        -1.52587890625e-05,
        4.76837158203125e-07
      ]
    },
    {
      "children": [
        34
      ],
      "name": "Bip01 Ponytail1",
      "rotation": [
        1.933299874357086e-12,
        -2.772705101961037e-06,
        0.9996773600578308,
        -0.025401540100574493
      ],
      "scale": [
        1.0000001192092896,
        -3.7245093675863927e-09,
        0.0
      ],
      "translation": [
        16.320892333984375,
        -17.09018325805664,
        0.03138930723071098
      ]
    },
    {
      "children": [
        35
      ],
      "name": "Bip01 Ponytail11",
      "rotation": [
        -1.0757796156711866e-14,
        3.7665071772607917e-07,
        -0.13579846918582916,
        0.9907364845275879
      ],
      "scale": [
        1.0000001192092896,
        -5.960457016840337e-08,
        0.0
      ],
      "translation": [
        12.65704345703125,
        -0.00971221923828125,
        -2.6542693376541138e-08
      ]
    },
    {
      "children": [
        36
      ],
      "name": "Bip01 Ponytail12",
      "rotation": [
        -8.887748367741107e-16,
        1.0159114083307941e-07,
        -0.03662789240479469,
        0.9993289709091187
      ],
      "scale": [
        1.0,
        -7.4505792646561986e-09,
        -2.842170943040401e-14
      ],
      "translation": [
        12.658981323242188,
        -0.010051727294921875,
        -2.7939677238464355e-08
      ]
    },
    {
      "children": [
        47
      ],
      "name": "Bip01 Ponytail13",
      "rotation": [
        2.2840177015329144e-13,
        -4.4103785512561444e-08,
        0.01590128056704998,
        0.9998735785484314
      ],
      "scale": [
        1.0000001192092896,
        7.450580596923828e-09,
        4.263256414560601e-14
      ],
      "translation": [
        12.660064697265625,
        -0.010076522827148438,
        -2.7939677238464355e-08
      ]
    },
    {
      "name": "B_03",
      "rotation": [
        7.275957614183426e-12,
        4.365573874620665e-11,
        7.450578376477779e-09,
        1.0
      ],
      "scale": [
        1.0000003576278687,
        -1.4901166522918174e-08,
        -8.731149137020111e-11
      ],
      "translation": [
        23.144203186035156,
        7.62939453125e-06,
        1.564621925354004e-07
      ]
    },
    {
      "children": [
        48
      ],
      "name": "Bone07",
      "rotation": [
        -0.1367845982313156,
        0.09442248195409775,
        0.8003618121147156,
        0.5760167837142944
      ],
      "scale": [
        0.999998927116394,
        7.147900760173798e-08,
        5.960464477539063e-08
      ],
      "translation": [
        6.411918640136719,
        0.6133747100830078,
        -7.427073001861572
      ]
    },
    {
      "children": [
        49
      ],
      "name": "Bone05",
      "rotation": [
        0.11136477440595627,
        -0.07542746514081955,
        0.7880305051803589,
        0.6007633209228516
      ],
      "scale": [
        1.0,
        -8.102506399154663e-08,
        2.9802322387695313e-08
      ],
      "translation": [
        6.411918640136719,
        0.6133604049682617,
        1.694830060005188
      ]
    },
    {
      "name": "Bip01 L Toe0",
      "rotation": [
        -1.5454313384566376e-08,
        -1.5454313384566376e-08,
        0.70710688829422,
        0.7071067094802856
      ],
      "scale": [
        1.0000001192092896,
        1.7763570511584873e-15,
        -5.93340756200125e-16
      ],
      "translation": [
        13.162713050842285,
        12.05335521697998,
        0.0
      ]
    },
    {
      "name": "Bip01 R Toe0",
      "rotation": [
        1.80884907052814e-08,
        1.2820135175672931e-08,
        0.70710688829422,
        0.7071067094802856
      ],
      "scale": [
        0.9999999403953552,
        3.256750890848751e-16,
        -7.450578820566989e-09
      ],
      "translation": [
        13.162713050842285,
        12.053354263305664,
        0.0
      ]
    },
    {
      "children": [
        50,
        53,
        56,
        60
      ],
      "name": "Bip01 R Hand",
      "rotation": [
        0.7058849930763245,
        0.03647806867957115,
        -0.03644903376698494,
        0.7064470052719116
      ],
      "scale": [
        1.0,
        -2.2351741790771484e-08,
        -4.925823304802179e-09
      ],
      "translation": [
        24.08300018310547,
        -4.76837158203125e-07,
        0.0
      ]
    },
    {
      "children": [
        51,
        52,
        57,
        62
      ],
      "name": "Bip01 L Hand",
      "rotation": [
        -0.7058849930763245,
        -0.03647807613015175,
        -0.036449041217565536,
        0.7064470052719116
      ],
      "scale": [
        1.0000001192092896,
        -7.450580596923828e-09,
        6.599293556064367e-09
      ],
      "translation": [
        24.082996368408203,
        0.0,
        7.62939453125e-06
      ]
    },
    {
      "name": "R_03",
      "rotation": [
        0.0,
        2.3283064365386963e-10,
        0.0,
        1.0
      ],
      "scale": [
        1.0,
        0.0,
        -4.656612873077393e-10
      ],
      "translation": [
        16.961395263671875,
        -7.62939453125e-06,
        0.0
      ]
    },
    {
      "name": "L_03",
      "rotation": [
        -8.731149830909501e-11,
        -2.9103830456733704e-11,
        5.929231438573669e-21,
        1.0
      ],
      "scale": [
        1.0,
        1.6155871338926322e-27,
        -5.820766091346741e-11
      ],
      "translation": [
        16.961395263671875,
        0.0,
        0.0
      ]
    },
    {
      "name": "F_03",
      "rotation": [
        -2.9103816578945896e-11,
        1.1641530794914701e-10,
        -8.568167686462402e-08,
        1.0
      ],
      "scale": [
        0.9999999403953552,
        -7.450566386069113e-09,
        -2.3283067140944524e-10
      ],
      "translation": [
        15.030853271484375,
        -7.62939453125e-06,
        2.980232238769531e-07
      ]
    },
    {
      "name": "Bip01 Ponytail14",
      "rotation": [
        2.281113394963369e-13,
        -6.945360553345381e-08,
        0.02504095248878002,
        0.9996864199638367
      ],
      "scale": [
        1.0,
        -3.725290742551124e-09,
        -1.4210854715202004e-14
      ],
      "translation": [
        12.660255432128906,
        -0.010064125061035156,
        -2.7939677238464355e-08
      ]
    },
    {
      "name": "Bone08",
      "rotation": [
        2.210820193582208e-09,
        1.1054101634044855e-08,
        4.421640387164416e-09,
        1.0
      ],
      "scale": [
        0.42125657200813293,
        -3.725290298461914e-09,
        1.4901161193847656e-08
      ],
      "translation": [
        9.775651931762695,
        -7.62939453125e-06,
        0.0
      ]
    },
    {
      "name": "Bone06",
      "rotation": [
        1.5033575095912965e-07,
        8.345847390955896e-08,
        -1.3264898512943546e-08,
        1.0
      ],
      "scale": [
        0.42125651240348816,
        4.097818262494002e-08,
        4.470348358154297e-08
      ],
      "translation": [
        9.775646209716797,
        -7.62939453125e-06,
        0.0
      ]
    },
    {
      "name": "equip_right",
      "rotation": [
        9.685760460342863e-08,
        5.559996338888595e-07,
        -1.7881393432617188e-07,
        1.0
      ],
      "scale": [
        1.0000001192092896,
        1.1920921139108032e-07,
        -3.1664626476413105e-08
      ],
      "translation": [
        2.4170188903808594,
        -2.9430618286132813,
        -0.07772016525268555
      ]
    },
    {
      "name": "equip_left",
      "rotation": [
        -5.215408691583434e-07,
        -1.1171218829986174e-06,
        1.7881401959130017e-07,
        1.0
      ],
      "scale": [
        1.0,
        -2.0861754990164627e-07,
        1.5831801647436805e-08
      ],
      "translation": [
        -0.5002937316894531,
        -1.1329803466796875,
        0.26169729232788086
      ]
    },
    {
      "children": [
        55
      ],
      "name": "Bip01 L Finger0",
      "rotation": [
        0.6828781366348267,
        0.2569224536418915,
        -0.13452890515327454,
        0.6705000996589661
      ],
      "scale": [
        0.9999998807907104,
        2.9802322387695313e-08,
        -1.862645149230957e-08
      ],
      "translation": [
        0.5431442260742188,
        0.00774383544921875,
        -2.5511603355407715
      ]
    },
    {
      "children": [
        54
      ],
      "name": "Bip01 R Finger0",
      "rotation": [
        -0.6828779578208923,
        -0.2569223940372467,
        -0.13452889025211334,
        0.6705001592636108
      ],
      "scale": [
        1.0,
        -2.9802322387695313e-08,
        4.0978193283081055e-08
      ],
      "translation": [
        0.5431480407714844,
        0.00775146484375,
        2.551161289215088
      ]
    },
    {
      "children": [
        64
      ],
      "name": "Bip01 R Finger01",
      "rotation": [
        1.7632570958880933e-08,
        2.176617108773371e-08,
        0.11640223860740662,
        0.993202269077301
      ],
      "scale": [
        0.9999998807907104,
        1.4901160305669237e-08,
        -2.0473176931545822e-08
      ],
      "translation": [
        3.7950172424316406,
        0.0,
        7.62939453125e-06
      ]
    },
    {
      "children": [
        65
      ],
      "name": "Bip01 L Finger01",
      "rotation": [
        -1.2834429519159585e-08,
        1.4366236200658022e-08,
        0.11640223860740662,
        0.993202269077301
      ],
      "scale": [
        1.0,
        1.4901162970204496e-08,
        -2.807958310313552e-08
      ],
      "translation": [
        3.7950172424316406,
        -1.9073486328125e-06,
        1.52587890625e-05
      ]
    },
    {
      "children": [
        59
      ],
      "name": "Bip01 R Finger2",
      "rotation": [
        0.08983656764030457,
        0.0049746353179216385,
        0.0555575005710125,
        0.9943932890892029
      ],
      "scale": [
        0.9999998807907104,
        -3.230707079637796e-08,
        1.578155206516385e-08
      ],
      "translation": [
        8.273906707763672,
        -0.6917953491210938,
        -1.2059059143066406
      ]
    },
    {
      "children": [
        58
      ],
      "name": "Bip01 L Finger2",
      "rotation": [
        -0.08983656018972397,
        -0.004974637180566788,
        0.0555574893951416,
        0.9943932890892029
      ],
      "scale": [
        0.9999999403953552,
        -1.095759216696024e-08,
        -1.588341547176242e-08
      ],
      "translation": [
        8.273906707763672,
        -0.6917953491210938,
        1.2059063911437988
      ]
    },
    {
      "children": [
        66
      ],
      "name": "Bip01 L Finger21",
      "rotation": [
        -7.386533162900832e-09,
        0.0,
        0.13083875179290771,
        0.9914036393165588
      ],
      "scale": [
        1.0000001192092896,
        -2.9802322387695313e-08,
        1.9328894040882005e-09
      ],
      "translation": [
        3.085601806640625,
        0.0,
        -1.9073486328125e-06
      ]
    },
    {
      "children": [
        67
      ],
      "name": "Bip01 R Finger21",
      "rotation": [
        -4.874121661835318e-10,
        3.693267025539626e-09,
        0.1308387666940689,
        0.9914037585258484
      ],
      "scale": [
        1.0,
        5.960464477539063e-08,
        -7.450581485102248e-09
      ],
      "translation": [
        3.0856056213378906,
        7.62939453125e-06,
        1.9073486328125e-06
      ]
    },
    {
      "children": [
        61
      ],
      "name": "Bip01 R Finger1",
      "rotation": [
        0.0031985845416784286,
        -0.06788016110658646,
        0.041126515716314316,
        0.9968403577804565
      ],
      "scale": [
        1.0,
        -7.101334631443024e-09,
        2.9802322387695313e-08
      ],
      "translation": [
        8.23691177368164,
        -0.86138916015625,
        2.4590821266174316
      ]
    },
    {
      "children": [
        68
      ],
      "name": "Bip01 R Finger11",
      "rotation": [
        3.2522409765256555e-10,
        6.474942360057412e-09,
        0.11640222370624542,
        0.993202269077301
      ],
      "scale": [
        1.0,
        1.4901161193847656e-08,
        5.335555997021402e-09
      ],
      "translation": [
        3.010364532470703,
        0.0,
        1.9073486328125e-06
      ]
    },
    {
      "children": [
        63
      ],
      "name": "Bip01 L Finger1",
      "rotation": [
        -0.0031985880341380835,
        0.06788016855716705,
        0.04112650081515312,
        0.9968403577804565
      ],
      "scale": [
        1.0,
        -4.383764462545514e-08,
        0.0
      ],
      "translation": [
        8.23690414428711,
        -0.8613967895507813,
        -2.4590821266174316
      ]
    },
    {
      "children": [
        69
      ],
      "name": "Bip01 L Finger11",
      "rotation": [
        2.3920239122787734e-09,
        -2.5581592399959163e-09,
        0.11640220880508423,
        0.993202269077301
      ],
      "scale": [
        1.0,
        1.4901161193847656e-08,
        9.262750566563227e-09
      ],
      "translation": [
        3.0103721618652344,
        -7.62939453125e-06,
        -9.5367431640625e-07
      ]
    },
    {
      "name": "Bip01 R Finger02",
      "rotation": [
        -1.659212323090742e-08,
        -2.317547043162449e-08,
        0.11640224605798721,
        0.9932021498680115
      ],
      "scale": [
        1.0000001192092896,
        -2.042393159232118e-15,
        -1.2370815483109254e-08
      ],
      "translation": [
        3.7950172424316406,
        0.0,
        0.0
      ]
    },
    {
      "name": "Bip01 L Finger02",
      "rotation": [
        1.0117179094493167e-08,
        -7.183115879882962e-09,
        0.11640223860740662,
        0.9932021498680115
      ],
      "scale": [
        1.0000001192092896,
        -1.4901161193847656e-08,
        1.3178425462001542e-08
      ],
      "translation": [
        3.7950172424316406,
        3.814697265625e-06,
        0.0
      ]
    },
    {
      "name": "Bip01 L Finger22",
      "rotation": [
        1.4622364430394441e-09,
        -2.7184416939718403e-09,
        0.13083870708942413,
        0.9914036989212036
      ],
      "scale": [
        0.9999999403953552,
        2.9802322387695313e-08,
        2.402954280000813e-08
      ],
      "translation": [
        3.0855979919433594,
        0.0,
        -1.9073486328125e-06
      ]
    },
    {
      "name": "Bip01 R Finger22",
      "rotation": [
        -3.205853804644221e-09,
        -4.180678025988982e-09,
        0.13083867728710175,
        0.9914036989212036
      ],
      "scale": [
        1.0,
        -1.1102230246251565e-16,
        7.450581485102248e-09
      ],
      "translation": [
        3.085590362548828,
        -1.52587890625e-05,
        1.9073486328125e-06
      ]
    },
    {
      "name": "Bip01 R Finger12",
      "rotation": [
        -2.3413431193830547e-09,
        -3.5915588281199007e-09,
        0.11640222370624542,
        0.993202269077301
      ],
      "scale": [
        1.0,
        -2.9802322387695313e-08,
        8.311948462846885e-09
      ],
      "translation": [
        3.010387420654297,
        0.0,
        -1.9073486328125e-06
      ]
    },
    {
      "name": "Bip01 L Finger12",
      "rotation": [
        -6.634030658148049e-09,
        1.1995352489080346e-09,
        0.11640226095914841,
        0.9932021498680115
      ],
      "scale": [
        0.9999999403953552,
        -4.470348358154297e-08,
        -1.842454722122966e-08
      ],
      "translation": [
        3.0103797912597656,
        7.62939453125e-06,
        1.9073486328125e-06
      ]
    }
  ],
  "scene": 0,
  "scenes": [
    {
      "nodes": [
        0
      ]
    }
  ],
  "skins": [
    {
      "inverseBindMatrices": 4,
      "joints": [
        2,
        3,
        4,
        5,
        6,
        7,
        8,
        9,
        10,
        11,
        12,
        13,
        14,
        15,
        16,
        17,
        18,
        19,
        20,
        21,
        22,
        23,
        24,
        25,
        26,
        27,
        28,
        29,
        30,
        31,
        32,
        33,
        34,
        35,
        36,
        37,
        38,
        39,
        40,
        41,
        42,
        43,
        44,
        45,
        46,
        47,
        48,
        49,
        50,
        51,
        52,
        53,
        54,
        55,
        56,
        57,
        58,
        59,
        60,
        61,
        62,
        63,
        64,
        65,
        66,
        67,
        68,
        69
      ],
      "skeleton": 2
    }
  ]
}
