{
  "accessors": [
    {
      "bufferView": 0,
      "componentType": 5126,
      "count": 692,
      "max": [
        181.30496215820313,
        175.9156494140625,
        187.64541625976563
      ],
      "min": [
        -14.968366622924805,
        -11.72548770904541,
        -14.968366622924805
      ],
      "type": "VEC3"
    },
    {
      "bufferView": 1,
      "componentType": 5126,
      "count": 692,
      "type": "VEC3"
    },
    {
      "bufferView": 2,
      "componentType": 5126,
      "count": 692,
      "type": "VEC2"
    },
    {
      "bufferView": 3,
      "componentType": 5123,
      "count": 2604,
      "type": "SCALAR"
    },
    {
      "bufferView": 4,
      "componentType": 5126,
      "count": 78,
      "type": "MAT4"
    }
  ],
  "asset": {
    "generator": "gr2togltf (ANKA2 Project)",
    "version": "2.0"
  },
  "bufferViews": [
    {
      "buffer": 0,
      "byteLength": 8304,
      "target": 34962
    },
    {
      "buffer": 0,
      "byteLength": 8304,
      "byteOffset": 8304,
      "target": 34962
    },
    {
      "buffer": 0,
      "byteLength": 5536,
      "byteOffset": 16608,
      "target": 34962
    },
    {
      "buffer": 0,
      "byteLength": 5208,
      "byteOffset": 22144,
      "target": 34963
    },
    {
      "buffer": 0,
      "byteLength": 4992,
      "byteOffset": 27352
    }
  ],
  "buffers": [
    {
      "byteLength": 32344,
      "uri": "data:application/octet-stream;base64,"
    }
  ],
  "materials": [
    {
      "name": "default",
      "pbrMetallicRoughness": {
        "baseColorFactor": [
          0.8,
          0.8,
          0.8,
          1.0
        ],
        "metallicFactor": 0.0,
        "roughnessFactor": 0.8
      }
    }
  ],
  "meshes": [
    {
      "name": "hair_11_1",
      "primitives": [
        {
          "attributes": {
            "NORMAL": 1,
            "POSITION": 0,
            "TEXCOORD_0": 2
          },
          "indices": 3,
          "material": 0,
          "mode": 4
        }
      ]
    }
  ],
  "nodes": [
    {
      "children": [
        1,
        2
      ]
    },
    {
      "mesh": 0,
      "name": "hair_11_1",
      "skin": 0
    },
    {
      "children": [
        3
      ],
      "name": "Bip01",
      "rotation": [
        0.0,
        0.0,
        0.0,
        0.9999999403953552
      ],
      "scale": [
        0.9999997019767761,
        -1.3359980981751673e-13,
        0.0
      ],
      "translation": [
        0.0,
        1.862645149230957e-09,
        0.0
      ]
    },
    {
      "children": [
        4
      ],
      "name": "Bip01 Pelvis",
      "rotation": [
        -0.4999993145465851,
        -0.5,
        -0.5,
        0.5000006556510925
      ],
      "scale": [
        1.0,
        5.1399245505243465e-20,
        8.265705963650741e-14
      ],
      "translation": [
        -0.43055111169815063,
        -0.0135459303855896,
        0.0
      ]
    },
    {
      "children": [
        5,
        8,
        11,
        14,
        17,
        22,
        27
      ],
      "name": "Bip01 Spine",
      "rotation": [
        2.199636128352722e-06,
        0.00045840319944545627,
        -0.008512724190950394,
        0.999963641166687
      ],
      "scale": [
        1.0000001192092896,
        2.6206861125643854e-09,
        7.218286385279882e-11
      ],
      "translation": [
        9.231704711914063,
        -0.006681768223643303,
        1.2808945029973984e-05
      ]
    },
    {
      "children": [
        6
      ],
      "name": "F_01",
      "rotation": [
        -0.00045775185571983457,
        -3.195290992152877e-05,
        0.9976655840873718,
        0.06828778982162476
      ],
      "scale": [
        1.0000001192092896,
        2.028706447276818e-08,
        9.09400055260079e-11
      ],
      "translation": [
        2.9761505126953125,
        9.141229629516602,
        -0.00312042236328125
      ]
    },
    {
      "children": [
        7
      ],
      "name": "F_02",
      "rotation": [
        1.687073468122427e-14,
        3.1287062437012985e-16,
        0.023484067991375923,
        0.9997242093086243
      ],
      "scale": [
        1.0,
        2.798747011922842e-09,
        -1.6681832146184694e-16
      ],
      "translation": [
        19.174598693847656,
        0.0,
        3.499626473058015e-07
      ]
    },
    {
      "name": "F_03",
      "rotation": [
        2.6645354708586125e-15,
        -1.293710679981327e-21,
        -8.568167686462402e-08,
        1.0
      ],
      "scale": [
        0.9999999403953552,
        1.021405182655144e-14,
        -2.1308170559882076e-21
      ],
      "translation": [
        15.030853271484375,
        -5.7220458984375e-06,
        2.441702235955745e-07
      ]
    },
    {
      "children": [
        9
      ],
      "name": "L_01",
      "rotation": [
        0.12969964742660522,
        0.6951157450675964,
        0.6927958726882935,
        -0.14151298999786377
      ],
      "scale": [
        0.9999998807907104,
        6.23961255996619e-08,
        1.1750078687811083e-09
      ],
      "translation": [
        3.6826629638671875,
        0.0695488452911377,
        10.391953468322754
      ]
    },
    {
      "children": [
        10
      ],
      "name": "L_02",
      "rotation": [
        7.191209849821689e-10,
        1.914909653066843e-08,
        -0.03752853348851204,
        0.9992955327033997
      ],
      "scale": [
        1.0000001192092896,
        -1.7882392455703666e-08,
        -3.338219102050821e-15
      ],
      "translation": [
        19.44884490966797,
        0.0,
        -7.873040885897353e-07
      ]
    },
    {
      "name": "L_03",
      "rotation": [
        -3.552713678800501e-15,
        3.552713467042264e-15,
        -1.4901161193847656e-08,
        1.0
      ],
      "scale": [
        1.0,
        -1.5146128176537211e-28,
        -7.105428204633949e-15
      ],
      "translation": [
        16.961402893066406,
        0.0,
        3.637978807091713e-12
      ]
    },
    {
      "children": [
        12
      ],
      "name": "B_01",
      "rotation": [
        -0.00044977321522310376,
        9.218967898050323e-05,
        0.9794315099716187,
        -0.2017764002084732
      ],
      "scale": [
        0.9999999403953552,
        -2.3868989273978514e-07,
        -4.7516345025311324e-11
      ],
      "translation": [
        5.919456481933594,
        -6.9572954177856445,
        -0.00042724609375
      ]
    },
    {
      "children": [
        13
      ],
      "name": "B_02",
      "rotation": [
        -3.6432695476749846e-15,
        3.007028372641442e-16,
        -0.08116272836923599,
        0.9967008829116821
      ],
      "scale": [
        1.000000238418579,
        4.793907493194638e-10,
        -1.7683307787085423e-15
      ],
      "translation": [
        16.875205993652344,
        -0.000308990478515625,
        1.750777300912887e-11
      ]
    },
    {
      "name": "B_03",
      "rotation": [
        5.203615316418109e-13,
        -1.834421503588146e-12,
        2.2351738238057806e-08,
        1.0
      ],
      "scale": [
        1.0000001192092896,
        1.4901162970204496e-08,
        5.852873307538031e-12
      ],
      "translation": [
        23.144187927246094,
        1.1444091796875e-05,
        1.636697106732754e-07
      ]
    },
    {
      "children": [
        15
      ],
      "name": "R_01",
      "rotation": [
        0.1303357183933258,
        0.6949857473373413,
        -0.6926763653755188,
        0.1421509087085724
      ],
      "scale": [
        1.0,
        -4.9364675902552335e-08,
        4.844780132629012e-10
      ],
      "translation": [
        3.701690673828125,
        0.06956279277801514,
        -10.31881046295166
      ]
    },
    {
      "children": [
        16
      ],
      "name": "R_02",
      "rotation": [
        7.191460205113742e-10,
        1.914909653066843e-08,
        -0.03752853721380234,
        0.9992955327033997
      ],
      "scale": [
        1.0000001192092896,
        1.3347584371103949e-08,
        -5.938869018686909e-15
      ],
      "translation": [
        19.44884490966797,
        0.0,
        -7.873040885897353e-07
      ]
    },
    {
      "name": "R_03",
      "rotation": [
        1.27675647831893e-15,
        0.0,
        5.669938696671503e-31,
        1.0
      ],
      "scale": [
        0.9999999403953552,
        1.2818989709841442e-30,
        8.88178366760566e-16
      ],
      "translation": [
        16.961395263671875,
        -3.814697265625e-06,
        -4.547473508864641e-13
      ]
    },
    {
      "children": [
        18
      ],
      "name": "Bip01 R Thigh",
      "rotation": [
        -0.0017406422412022948,
        0.9993849396705627,
        -0.012854011729359627,
        0.032579731196165085
      ],
      "scale": [
        1.0000001192092896,
        9.05034935883009e-10,
        5.961324767156384e-09
      ],
      "translation": [
        -9.223114013671875,
        -0.1504669189453125,
        -8.036138534545898
      ]
    },
    {
      "children": [
        19
      ],
      "name": "Bip01 R Calf",
      "rotation": [
        1.476880062689645e-09,
        -3.883916299685097e-09,
        -0.09983320534229279,
        0.9950041770935059
      ],
      "scale": [
        1.0000001192092896,
        2.762541306822186e-09,
        1.6436933411578813e-11
      ],
      "translation": [
        40.138328552246094,
        0.0,
        9.5367431640625e-07
      ]
    },
    {
      "children": [
        20
      ],
      "name": "Bip01 R Foot",
      "rotation": [
        0.06932652741670609,
        0.038423802703619,
        0.09007467329502106,
        0.9927759170532227
      ],
      "scale": [
        0.9999999403953552,
        1.2885747580071438e-08,
        1.5653611740162887e-10
      ],
      "translation": [
        40.13832473754883,
        9.5367431640625e-07,
        -9.5367431640625e-07
      ]
    },
    {
      "children": [
        21
      ],
      "name": "Bip01 R Toe0",
      "rotation": [
        1.8088487152567723e-08,
        1.2820132511137672e-08,
        0.7071067690849304,
        0.7071067690849304
      ],
      "scale": [
        0.9999999403953552,
        -3.227037769152458e-15,
        -7.450578820566989e-09
      ],
      "translation": [
        13.162713050842285,
        12.053354263305664,
        9.5367431640625e-07
      ]
    },
    {
      "name": "Bip01 R Toe0Nub",
      "rotation": [
        -8.88178366760566e-16,
        -3.7252894102834944e-09,
        1.776356733521132e-15,
        1.0
      ],
      "scale": [
        1.0000001192092896,
        3.552713678800501e-15,
        -7.450577932388569e-09
      ],
      "translation": [
        10.604899406433105,
        0.0,
        -9.5367431640625e-07
      ]
    },
    {
      "children": [
        23
      ],
      "name": "Bip01 L Thigh",
      "rotation": [
        -0.0017525114817544818,
        0.9994144439697266,
        0.012854451313614845,
        -0.03166196867823601
      ],
      "scale": [
        1.0000001192092896,
        9.431764258494013e-10,
        3.040020901678986e-09
      ],
      "translation": [
        -9.23785400390625,
        -0.15049970149993896,
        8.019186973571777
      ]
    },
    {
      "children": [
        24
      ],
      "name": "Bip01 L Calf",
      "rotation": [
        -1.0447794851486947e-09,
        1.9622969915644717e-09,
        -0.09983319789171219,
        0.9950041770935059
      ],
      "scale": [
        1.0,
        -9.07904684765981e-09,
        -3.754200950112363e-09
      ],
      "translation": [
        40.13832473754883,
        -1.1920928955078125e-07,
        -9.5367431640625e-07
      ]
    },
    {
      "children": [
        25
      ],
      "name": "Bip01 L Foot",
      "rotation": [
        -0.06932654231786728,
        -0.03842370957136154,
        0.09007466584444046,
        0.9927759170532227
      ],
      "scale": [
        1.0,
        -6.275744368622327e-09,
        -7.355255071672673e-09
      ],
      "translation": [
        40.13832473754883,
        0.0,
        0.0
      ]
    },
    {
      "children": [
        26
      ],
      "name": "Bip01 L Toe0",
      "rotation": [
        -1.5454309831852697e-08,
        -1.5454309831852697e-08,
        0.7071067094802856,
        0.7071067690849304
      ],
      "scale": [
        1.0000001192092896,
        1.7763570511584873e-15,
        -5.933408091396842e-16
      ],
      "translation": [
        13.162713050842285,
        12.05335521697998,
        0.0
      ]
    },
    {
      "name": "Bip01 L Toe0Nub",
      "rotation": [
        1.3322676295501878e-15,
        -1.453142063389794e-16,
        1.776356733521132e-15,
        1.0
      ],
      "scale": [
        1.0000001192092896,
        -2.117582368135751e-22,
        1.5345693787823791e-15
      ],
      "translation": [
        10.604900360107422,
        0.0,
        0.0
      ]
    },
    {
      "children": [
        28
      ],
      "name": "Bip01 Spine1",
      "rotation": [
        -3.0525996769399655e-14,
        -5.80622572243783e-09,
        0.002097886987030506,
        0.9999977946281433
      ],
      "scale": [
        1.0,
        -9.313143589650963e-10,
        -2.910163256208964e-11
      ],
      "translation": [
        8.398162841796875,
        -0.010102033615112305,
        -2.9802322387695313e-08
      ]
    },
    {
      "children": [
        29,
        31,
        33
      ],
      "name": "Bip01 Spine2",
      "rotation": [
        9.88247136034237e-13,
        9.602741357639388e-08,
        -0.03463052213191986,
        0.9994001984596252
      ],
      "scale": [
        1.0000001192092896,
        6.613813940958835e-09,
        8.727295275345881e-11
      ],
      "translation": [
        12.686180114746094,
        -0.010077834129333496,
        -2.2351741790771484e-08
      ]
    },
    {
      "children": [
        30
      ],
      "name": "Bone07",
      "rotation": [
        -0.13934262096881866,
        0.09060362726449966,
        0.7841299176216125,
        0.5979254245758057
      ],
      "scale": [
        0.9999996423721313,
        -5.072509523529334e-09,
        -1.27580292996754e-08
      ],
      "translation": [
        4.1914215087890625,
        3.2420263290405273,
        -4.378602027893066
      ]
    },
    {
      "name": "Bone08",
      "rotation": [
        -5.865269717095052e-17,
        -6.632459914612809e-09,
        0.0,
        1.0
      ],
      "scale": [
        0.4212566018104553,
        7.450580596923828e-09,
        4.6566089872968064e-10
      ],
      "translation": [
        9.775653839111328,
        -7.62939453125e-06,
        0.0
      ]
    },
    {
      "children": [
        32
      ],
      "name": "Bone05",
      "rotation": [
        0.11136452853679657,
        -0.07542773336172104,
        0.7880298495292664,
        0.6007641553878784
      ],
      "scale": [
        1.0,
        -8.76014905060174e-09,
        -2.116897768189574e-09
      ],
      "translation": [
        4.191429138183594,
        3.242015838623047,
        4.743300437927246
      ]
    },
    {
      "name": "Bone06",
      "rotation": [
        1.1827885515458547e-07,
        1.0197410205137203e-07,
        2.4683048302758664e-16,
        1.0
      ],
      "scale": [
        0.42125654220581055,
        -9.763972399698395e-15,
        2.5611415210846644e-09
      ],
      "translation": [
        9.775649070739746,
        0.0,
        0.0
      ]
    },
    {
      "children": [
        34,
        53,
        72
      ],
      "name": "Bip01 Neck",
      "rotation": [
        -3.490446033538319e-05,
        -0.00045816993224434555,
        0.1399218589067459,
        0.9901624321937561
      ],
      "scale": [
        1.0,
        -2.0756235841190573e-08,
        6.587219051473747e-12
      ],
      "translation": [
        14.334159851074219,
        -3.440769672393799,
        -3.4421682357788086e-06
      ]
    },
    {
      "children": [
        35,
        37
      ],
      "name": "Bip01 R Clavicle",
      "rotation": [
        -0.579227089881897,
        0.08922643214464188,
        0.8029547929763794,
        0.10861968249082565
      ],
      "scale": [
        1.000000238418579,
        1.3151737476846392e-09,
        -6.08215486863628e-08
      ],
      "translation": [
        -1.067474365234375,
        1.0830726623535156,
        -2.8085200786590576
      ]
    },
    {
      "children": [
        36
      ],
      "name": "Bone09",
      "rotation": [
        -0.7176151275634766,
        0.1645326316356659,
        0.15742914378643036,
        0.6581592559814453
      ],
      "scale": [
        1.0,
        -8.141108054360302e-08,
        -2.4205455417813937e-09
      ],
      "translation": [
        5.556018829345703,
        -0.32675838470458984,
        -0.83038330078125
      ]
    },
    {
      "name": "Bone10",
      "rotation": [
        5.6843415472676226e-14,
        3.312905234430924e-13,
        -7.030326846585702e-27,
        1.0
      ],
      "scale": [
        1.0000001192092896,
        -1.3995023547344926e-25,
        -7.442935157087049e-13
      ],
      "translation": [
        25.683961868286133,
        -1.52587890625e-05,
        2.384185791015625e-07
      ]
    },
    {
      "children": [
        38
      ],
      "name": "Bip01 R UpperArm",
      "rotation": [
        -0.04123351350426674,
        -0.11716581135988235,
        0.009602156467735767,
        0.9922095537185669
      ],
      "scale": [
        1.0000001192092896,
        -4.730378755368747e-09,
        4.773719197714854e-08
      ],
      "translation": [
        11.362136840820313,
        0.0,
        0.0
      ]
    },
    {
      "children": [
        39
      ],
      "name": "Bip01 R ForeArm",
      "rotation": [
        2.8950894459534027e-10,
        -2.981479951813526e-08,
        -0.04301733896136284,
        0.9990743398666382
      ],
      "scale": [
        0.9999998807907104,
        2.8236331051090247e-09,
        2.985748182027237e-08
      ],
      "translation": [
        24.082996368408203,
        -2.384185791015625e-07,
        0.0
      ]
    },
    {
      "children": [
        40,
        41,
        45,
        49
      ],
      "name": "Bip01 R Hand",
      "rotation": [
        0.7058848142623901,
        0.03647807613015175,
        -0.03644903749227524,
        0.7064470648765564
      ],
      "scale": [
        1.0,
        -3.473360976613549e-08,
        6.37664365754631e-10
      ],
      "translation": [
        24.082996368408203,
        -4.76837158203125e-07,
        -7.62939453125e-06
      ]
    },
    {
      "name": "equip_right",
      "rotation": [
        -4.190953006855125e-08,
        6.631017868130584e-07,
        -1.8626454334480513e-07,
        1.0
      ],
      "scale": [
        1.0,
        1.490129974968113e-08,
        2.6077250581124645e-08
      ],
      "translation": [
        2.4170150756835938,
        -2.9430465698242188,
        -0.07772016525268555
      ]
    },
    {
      "children": [
        42
      ],
      "name": "Bip01 R Finger2",
      "rotation": [
        0.08983657509088516,
        0.004974632523953915,
        0.0555575005710125,
        0.9943932890892029
      ],
      "scale": [
        1.0000001192092896,
        -3.988501617868678e-08,
        1.609799582524829e-08
      ],
      "translation": [
        8.273906707763672,
        -0.6917953491210938,
        -1.2059059143066406
      ]
    },
    {
      "children": [
        43
      ],
      "name": "Bip01 R Finger21",
      "rotation": [
        -3.2058542487334307e-09,
        4.180678470078192e-09,
        0.13083870708942413,
        0.9914036393165588
      ],
      "scale": [
        0.9999999403953552,
        -2.1442581044084363e-09,
        9.128379829803634e-09
      ],
      "translation": [
        3.0855941772460938,
        1.52587890625e-05,
        -1.9073486328125e-06
      ]
    },
    {
      "children": [
        44
      ],
      "name": "Bip01 R Finger22",
      "rotation": [
        -7.3865327188116225e-09,
        1.1198496864195997e-16,
        0.13083870708942413,
        0.9914036393165588
      ],
      "scale": [
        0.9999999403953552,
        -1.5463111679991925e-08,
        1.9328887379543858e-09
      ],
      "translation": [
        3.0856094360351563,
        -1.52587890625e-05,
        1.9073486328125e-06
      ]
    },
    {
      "name": "Bip01 R Finger2Nub",
      "rotation": [
        -5.551115123125783e-17,
        -3.725290076417309e-09,
        -7.450580596923828e-09,
        1.0
      ],
      "scale": [
        1.0,
        1.4901161193847656e-08,
        -7.450581485102248e-09
      ],
      "translation": [
        3.0855941772460938,
        0.0,
        -1.9073486328125e-06
      ]
    },
    {
      "children": [
        46
      ],
      "name": "Bip01 R Finger1",
      "rotation": [
        0.0031985866371542215,
        -0.06788016110658646,
        0.04112652689218521,
        0.9968403577804565
      ],
      "scale": [
        1.0,
        -9.962183966649718e-09,
        1.5695651001124133e-08
      ],
      "translation": [
        8.23690414428711,
        -0.8613967895507813,
        2.4590835571289063
      ]
    },
    {
      "children": [
        47
      ],
      "name": "Bip01 R Finger11",
      "rotation": [
        -1.0840803255085518e-10,
        -4.913596196587378e-10,
        0.11640219390392303,
        0.9932021498680115
      ],
      "scale": [
        1.0000001192092896,
        1.3781894736553113e-08,
        -9.50800993493317e-10
      ],
      "translation": [
        3.0103607177734375,
        0.0,
        2.86102294921875e-06
      ]
    },
    {
      "children": [
        48
      ],
      "name": "Bip01 R Finger12",
      "rotation": [
        5.9835816301756495e-09,
        -3.049518859654654e-09,
        0.11640219390392303,
        0.9932021498680115
      ],
      "scale": [
        0.9999998807907104,
        -2.8994710632446186e-08,
        7.450580596923828e-09
      ],
      "translation": [
        3.0103836059570313,
        7.62939453125e-06,
        -1.9073486328125e-06
      ]
    },
    {
      "name": "Bip01 R Finger1Nub",
      "rotation": [
        8.381903171539307e-09,
        5.587935447692871e-09,
        7.450580596923828e-09,
        1.0
      ],
      "scale": [
        1.0,
        1.4901161193847656e-08,
        -3.725290298461914e-09
      ],
      "translation": [
        3.0103759765625,
        0.0,
        9.5367431640625e-07
      ]
    },
    {
      "children": [
        50
      ],
      "name": "Bip01 R Finger0",
      "rotation": [
        0.7935460209846497,
        0.43399131298065186,
        0.15641391277313232,
        -0.3968260586261749
      ],
      "scale": [
        0.9999998807907104,
        6.761231219343244e-08,
        4.552802579382842e-08
      ],
      "translation": [
        0.5431480407714844,
        0.00774383544921875,
        2.5511622428894043
      ]
    },
    {
      "children": [
        51
      ],
      "name": "Bip01 R Finger01",
      "rotation": [
        -1.184596332137744e-08,
        7.776841393081213e-09,
        0.09701371937990189,
        0.9952830672264099
      ],
      "scale": [
        1.0,
        -3.235162893133747e-08,
        -1.2023567030894355e-08
      ],
      "translation": [
        3.7950210571289063,
        0.0,
        -7.62939453125e-06
      ]
    },
    {
      "children": [
        52
      ],
      "name": "Bip01 R Finger02",
      "rotation": [
        -1.0348091272760485e-08,
        8.050379918245198e-09,
        0.11640216410160065,
        0.9932021498680115
      ],
      "scale": [
        1.0000001192092896,
        -4.349206861320454e-08,
        4.8202718261336486e-08
      ],
      "translation": [
        3.7950210571289063,
        -3.814697265625e-06,
        7.62939453125e-06
      ]
    },
    {
      "name": "Bip01 R Finger0Nub",
      "rotation": [
        1.1175869119028903e-08,
        -7.450580152834618e-09,
        -7.450580152834618e-09,
        1.0
      ],
      "scale": [
        1.0,
        -1.4901162970204496e-08,
        -1.4901162970204496e-08
      ],
      "translation": [
        3.7950172424316406,
        0.0,
        0.0
      ]
    },
    {
      "children": [
        54,
        56
      ],
      "name": "Bip01 L Clavicle",
      "rotation": [
        0.5799686312675476,
        -0.0892895832657814,
        0.8024171590805054,
        0.10858380049467087
      ],
      "scale": [
        1.000000238418579,
        -7.356630860044788e-10,
        4.165273992384755e-08
      ],
      "translation": [
        -1.06243896484375,
        1.0819511413574219,
        2.8108513355255127
      ]
    },
    {
      "children": [
        55
      ],
      "name": "Bone01",
      "rotation": [
        0.7176151871681213,
        -0.1645348221063614,
        0.15742738544940948,
        0.658159077167511
      ],
      "scale": [
        1.0000003576278687,
        1.0659855220751524e-08,
        3.4332758858113266e-09
      ],
      "translation": [
        5.556041717529297,
        -0.32680177688598633,
        0.8303375244140625
      ]
    },
    {
      "name": "Bone02",
      "rotation": [
        0.0,
        3.1086244689504383e-15,
        3.725290298461914e-09,
        1.0
      ],
      "scale": [
        1.0,
        7.450580596923828e-09,
        2.6645352591003757e-15
      ],
      "translation": [
        25.683956146240234,
        -1.52587890625e-05,
        2.384185791015625e-07
      ]
    },
    {
      "children": [
        57
      ],
      "name": "Bip01 L UpperArm",
      "rotation": [
        0.041231583803892136,
        0.11807733029127121,
        0.009625191800296307,
        0.9921013116836548
      ],
      "scale": [
        1.0,
        6.444792477466876e-10,
        -1.7402523866394404e-08
      ],
      "translation": [
        11.362140655517578,
        0.0,
        0.0
      ]
    },
    {
      "children": [
        58
      ],
      "name": "Bip01 L ForeArm",
      "rotation": [
        6.410084130159532e-10,
        2.9774735565979427e-08,
        -0.04301733896136284,
        0.9990743398666382
      ],
      "scale": [
        1.0,
        5.123319546385119e-09,
        -2.9857467609417654e-08
      ],
      "translation": [
        24.082992553710938,
        -2.384185791015625e-07,
        -7.62939453125e-06
      ]
    },
    {
      "children": [
        59,
        60,
        64,
        68
      ],
      "name": "Bip01 L Hand",
      "rotation": [
        -0.7058848142623901,
        -0.03647807240486145,
        -0.03644903376698494,
        0.7064470648765564
      ],
      "scale": [
        1.0,
        -3.812783422318944e-09,
        -1.5644369133482883e-09
      ],
      "translation": [
        24.08300018310547,
        0.0,
        7.62939453125e-06
      ]
    },
    {
      "name": "equip_left",
      "rotation": [
        -2.821908537953277e-07,
        -1.1189847555215238e-06,
        -2.086162567138672e-07,
        1.0
      ],
      "scale": [
        0.9999998211860657,
        -2.980304003585843e-08,
        -1.7696120124810477e-08
      ],
      "translation": [
        -0.5002861022949219,
        -1.1329727172851563,
        0.2617034912109375
      ]
    },
    {
      "children": [
        61
      ],
      "name": "Bip01 L Finger2",
      "rotation": [
        -0.08983656764030457,
        -0.004974633455276489,
        0.0555574856698513,
        0.9943932890892029
      ],
      "scale": [
        0.9999999403953552,
        -2.3961368000868788e-08,
        -5.01583130585459e-09
      ],
      "translation": [
        8.273910522460938,
        -0.691802978515625,
        1.2059059143066406
      ]
    },
    {
      "children": [
        62
      ],
      "name": "Bip01 L Finger21",
      "rotation": [
        -3.936972525764304e-09,
        -2.334044957308379e-09,
        0.13083870708942413,
        0.9914036393165588
      ],
      "scale": [
        1.0,
        -4.424507693556734e-08,
        -3.5977458789915318e-09
      ],
      "translation": [
        3.085601806640625,
        0.0,
        0.0
      ]
    },
    {
      "children": [
        63
      ],
      "name": "Bip01 L Finger22",
      "rotation": [
        9.74824443389366e-10,
        9.74824443389366e-10,
        0.13083870708942413,
        0.9914036393165588
      ],
      "scale": [
        0.9999999403953552,
        -3.092622335998385e-08,
        1.6578960426727463e-08
      ],
      "translation": [
        3.0856056213378906,
        0.0,
        -1.9073486328125e-06
      ]
    },
    {
      "name": "Bip01 L Finger2Nub",
      "rotation": [
        -1.862645149230957e-09,
        7.450580596923828e-09,
        -1.3877787807814457e-17,
        1.0
      ],
      "scale": [
        1.0,
        5.551115123125783e-17,
        0.0
      ],
      "translation": [
        3.085601806640625,
        -7.62939453125e-06,
        -1.9073486328125e-06
      ]
    },
    {
      "children": [
        65
      ],
      "name": "Bip01 L Finger1",
      "rotation": [
        -0.003198582911863923,
        0.06788016110658646,
        0.04112650081515312,
        0.9968403577804565
      ],
      "scale": [
        1.0,
        -4.172933287804881e-08,
        1.2735140053621308e-08
      ],
      "translation": [
        8.236907958984375,
        -0.8613967895507813,
        -2.4590823650360107
      ]
    },
    {
      "children": [
        66
      ],
      "name": "Bip01 L Finger11",
      "rotation": [
        -2.0667989542033638e-09,
        -5.33313304629246e-09,
        0.11640219390392303,
        0.9932021498680115
      ],
      "scale": [
        1.0,
        4.27766053689993e-08,
        -2.6620186055481554e-09
      ],
      "translation": [
        3.010364532470703,
        -7.62939453125e-06,
        -9.5367431640625e-07
      ]
    },
    {
      "children": [
        67
      ],
      "name": "Bip01 L Finger12",
      "rotation": [
        -4.567230149632451e-09,
        7.833564019676942e-09,
        0.11640222370624542,
        0.9932021498680115
      ],
      "scale": [
        1.0,
        -1.5212812343179394e-08,
        -1.3178426350179961e-08
      ],
      "translation": [
        3.0103912353515625,
        0.0,
        2.86102294921875e-06
      ]
    },
    {
      "name": "Bip01 L Finger1Nub",
      "rotation": [
        -2.7939679458910405e-09,
        5.587935447692871e-09,
        0.0,
        1.0
      ],
      "scale": [
        0.9999999403953552,
        -2.9802320611338473e-08,
        3.7252894102834944e-09
      ],
      "translation": [
        3.0103721618652344,
        0.0,
        -9.5367431640625e-07
      ]
    },
    {
      "children": [
        69
      ],
      "name": "Bip01 L Finger0",
      "rotation": [
        0.7935460209846497,
        0.43399131298065186,
        -0.1564139425754547,
        0.3968260884284973
      ],
      "scale": [
        0.9999998807907104,
        2.0034462977491785e-09,
        -4.351819171688476e-08
      ],
      "translation": [
        0.5431480407714844,
        0.00774383544921875,
        -2.551161050796509
      ]
    },
    {
      "children": [
        70
      ],
      "name": "Bip01 L Finger01",
      "rotation": [
        4.689871158092274e-09,
        3.1622876539572076e-10,
        0.09701374173164368,
        0.9952830672264099
      ],
      "scale": [
        1.0,
        -1.151038819813266e-08,
        2.9521832090040334e-08
      ],
      "translation": [
        3.7950172424316406,
        0.0,
        0.0
      ]
    },
    {
      "children": [
        71
      ],
      "name": "Bip01 L Finger02",
      "rotation": [
        -2.8327022949525826e-09,
        8.700828502128388e-09,
        0.11640217900276184,
        0.9932021498680115
      ],
      "scale": [
        1.0,
        -2.7563785920392547e-08,
        1.794282944445058e-08
      ],
      "translation": [
        3.795013427734375,
        0.0,
        -7.62939453125e-06
      ]
    },
    {
      "name": "Bip01 L Finger0Nub",
      "rotation": [
        3.725290298461914e-09,
        2.7755573961267688e-17,
        3.725290076417309e-09,
        1.0
      ],
      "scale": [
        1.0,
        7.450581485102248e-09,
        0.0
      ],
      "translation": [
        3.795013427734375,
        -3.814697265625e-06,
        7.62939453125e-06
      ]
    },
    {
      "children": [
        73,
        79
      ],
      "name": "Bip01 Head",
      "rotation": [
        -6.110875694353979e-12,
        -2.7123627788228077e-08,
        0.009768256917595863,
        0.9999522566795349
      ],
      "scale": [
        1.0000001192092896,
        1.5831384203579546e-08,
        1.5840585136997487e-12
      ],
      "translation": [
        8.948715209960938,
        0.0,
        1.862645149230957e-09
      ]
    },
    {
      "children": [
        74
      ],
      "name": "Bip01 Ponytail1",
      "rotation": [
        1.9261924954355747e-12,
        -2.7727053293347126e-06,
        0.999677300453186,
        -0.025401543825864792
      ],
      "scale": [
        1.0000001192092896,
        -4.413062359986952e-09,
        -2.2762621323425825e-14
      ],
      "translation": [
        16.320892333984375,
        -17.09018325805664,
        0.03138930723071098
      ]
    },
    {
      "children": [
        75
      ],
      "name": "Bip01 Ponytail11",
      "rotation": [
        -7.171864386818893e-15,
        3.766506608826603e-07,
        -0.13579846918582916,
        0.9907364845275879
      ],
      "scale": [
        1.0000001192092896,
        -1.603840082964325e-08,
        4.901162686961856e-14
      ],
      "translation": [
        12.65704345703125,
        -0.00971221923828125,
        -2.6542693376541138e-08
      ]
    },
    {
      "children": [
        76
      ],
      "name": "Bip01 Ponytail12",
      "rotation": [
        -8.887748367741107e-16,
        1.0159112662222469e-07,
        -0.03662789240479469,
        0.9993289709091187
      ],
      "scale": [
        1.0000001192092896,
        -7.430588144785588e-09,
        -1.9980932937390707e-14
      ],
      "translation": [
        12.658981323242188,
        -0.010051727294921875,
        -2.7939677238464355e-08
      ]
    },
    {
      "children": [
        77
      ],
      "name": "Bip01 Ponytail13",
      "rotation": [
        1.1475606435159408e-13,
        -4.41036256404459e-08,
        0.015901217237114906,
        0.9998735785484314
      ],
      "scale": [
        1.0000001192092896,
        9.342145723678641e-09,
        4.355889970551405e-14
      ],
      "translation": [
        12.660079956054688,
        -0.010073661804199219,
        -2.7939677238464355e-08
      ]
    },
    {
      "children": [
        78
      ],
      "name": "Bip01 Ponytail14",
      "rotation": [
        2.282223889038537e-13,
        -6.945380448541982e-08,
        0.02504103071987629,
        0.9996864199638367
      ],
      "scale": [
        1.0000001192092896,
        -8.177668320286102e-09,
        -1.851985023128798e-14
      ],
      "translation": [
        12.660247802734375,
        -0.010068893432617188,
        -2.7939677238464355e-08
      ]
    },
    {
      "name": "Bip01 Ponytail1Nub",
      "rotation": [
        0.7073882222175598,
        0.7068251967430115,
        9.80225195235107e-07,
        -9.810059964365792e-07
      ],
      "scale": [
        1.0,
        3.6709461859185666e-11,
        -8.242093395586722e-14
      ],
      "translation": [
        12.659751892089844,
        1.9073486328125e-06,
        0.0
      ]
    },
    {
      "name": "Bip01 HeadNub",
      "rotation": [
        5.684341886080802e-14,
        0.0,
        -1.6155873264856266e-27,
        1.0
      ],
      "scale": [
        1.0,
        -2.827277291719112e-27,
        -5.6843415472676226e-14
      ],
      "translation": [
        20.872726440429688,
        3.814697265625e-06,
        0.0
      ]
    }
  ],
  "scene": 0,
  "scenes": [
    {
      "nodes": [
        0
      ]
    }
  ],
  "skins": [
    {
      "inverseBindMatrices": 4,
      "joints": [
        2,
        3,
        4,
        5,
        6,
        7,
        8,
        9,
        10,
        11,
        12,
        13,
        14,
        15,
        16,
        17,
        18,
        19,
        20,
        21,
        22,
        23,
        24,
        25,
        26,
        27,
        28,
        29,
        30,
        31,
        32,
        33,
        34,
        35,
        36,
        37,
        38,
        39,
        40,
        41,
        42,
        43,
        44,
        45,
        46,
        47,
        48,
        49,
        50,
        51,
        52,
        53,
        54,
        55,
        56,
        57,
        58,
        59,
        60,
        61,
        62,
        63,
        64,
        65,
        66,
        67,
        68,
        69,
        70,
        71,
        72,
        73,
        74,
        75,
        76,
        77,
        78,
        79
      ],
      "skeleton": 2
    }
  ]
}
