{
  "accessors": [
    {
      "bufferView": 0,
      "componentType": 5126,
      "count": 342,
      "max": [
        160.0137481689453,
        160.57862854003906,
        163.3461456298828
      ],
      "min": [
        -10.007894515991211,
        -10.530763626098633,
        -10.306244850158691
      ],
      "type": "VEC3"
    },
    {
      "bufferView": 1,
      "componentType": 5126,
      "count": 342,
      "type": "VEC3"
    },
    {
      "bufferView": 2,
      "componentType": 5126,
      "count": 342,
      "type": "VEC2"
    },
    {
      "bufferView": 3,
      "componentType": 5123,
      "count": 1656,
      "type": "SCALAR"
    },
    {
      "bufferView": 4,
      "componentType": 5126,
      "count": 22,
      "type": "MAT4"
    }
  ],
  "asset": {
    "generator": "gr2togltf (ANKA2 Project)",
    "version": "2.0"
  },
  "bufferViews": [
    {
      "buffer": 0,
      "byteLength": 4104,
      "target": 34962
    },
    {
      "buffer": 0,
      "byteLength": 4104,
      "byteOffset": 4104,
      "target": 34962
    },
    {
      "buffer": 0,
      "byteLength": 2736,
      "byteOffset": 8208,
      "target": 34962
    },
    {
      "buffer": 0,
      "byteLength": 3312,
      "byteOffset": 10944,
      "target": 34963
    },
    {
      "buffer": 0,
      "byteLength": 1408,
      "byteOffset": 14256
    }
  ],
  "buffers": [
    {
      "byteLength": 15664,
      "uri": "data:application/octet-stream;base64,"
    }
  ],
  "materials": [
    {
      "name": "default",
      "pbrMetallicRoughness": {
        "baseColorFactor": [
          0.8,
          0.8,
          0.8,
          1.0
        ],
        "metallicFactor": 0.0,
        "roughnessFactor": 0.8
      }
    }
  ],
  "meshes": [
    {
      "name": "hair_46_1",
      "primitives": [
        {
          "attributes": {
            "NORMAL": 1,
            "POSITION": 0,
            "TEXCOORD_0": 2
          },
          "indices": 3,
          "material": 0,
          "mode": 4
        }
      ]
    }
  ],
  "nodes": [
    {
      "children": [
        1,
        2
      ]
    },
    {
      "mesh": 0,
      "name": "hair_46_1",
      "skin": 0
    },
    {
      "children": [
        3
      ],
      "name": "Bip01",
      "rotation": [
        0.0,
        0.0,
        0.0,
        0.9999999403953552
      ],
      "scale": [
        0.9999997615814209,
        -5.117093408073606e-14,
        0.0
      ],
      "translation": [
        0.0,
        1.862645149230957e-09,
        0.0
      ]
    },
    {
      "children": [
        4
      ],
      "name": "Bip01 Pelvis",
      "rotation": [
        -0.4999993145465851,
        -0.5,
        -0.5,
        0.5000006556510925
      ],
      "scale": [
        1.0,
        6.755036055564761e-20,
        -2.6671148450016795e-18
      ],
      "translation": [
        -0.43055400252342224,
        -0.013545999303460121,
        0.0
      ]
    },
    {
      "children": [
        5
      ],
      "name": "Bip01 Spine",
      "rotation": [
        2.198598167524324e-06,
        0.0004582926048897207,
        -0.008512732572853565,
        0.999963641166687
      ],
      "scale": [
        1.0000001192092896,
        1.6053502971402622e-09,
        4.070528636379578e-11
      ],
      "translation": [
        9.231704711914063,
        -0.0066817449405789375,
        1.2809410691261292e-05
      ]
    },
    {
      "children": [
        6
      ],
      "name": "Bip01 Spine1",
      "rotation": [
        5.158072862061769e-13,
        -5.820777193576987e-09,
        0.00209799874573946,
        0.9999977946281433
      ],
      "scale": [
        0.9999999403953552,
        -2.5010038484651886e-10,
        5.820904175335428e-11
      ],
      "translation": [
        8.398162841796875,
        -0.010102272033691406,
        -2.2351741790771484e-08
      ]
    },
    {
      "children": [
        7
      ],
      "name": "Bip01 Spine2",
      "rotation": [
        1.768535838608809e-12,
        9.605651030142326e-08,
        -0.03463057428598404,
        0.9994001984596252
      ],
      "scale": [
        0.9999999403953552,
        4.1258112482012166e-09,
        2.903735238368732e-11
      ],
      "translation": [
        12.686180114746094,
        -0.010077595710754395,
        -1.4901161193847656e-08
      ]
    },
    {
      "children": [
        8,
        14,
        19
      ],
      "name": "Bip01 Neck",
      "rotation": [
        -3.473228571237996e-05,
        -0.0004580979875754565,
        0.13992176949977875,
        0.9901624321937561
      ],
      "scale": [
        0.9999998807907104,
        1.4035803985734674e-07,
        9.23186576073931e-08
      ],
      "translation": [
        14.33416748046875,
        -3.440769672393799,
        -3.1366944313049316e-06
      ]
    },
    {
      "children": [
        9
      ],
      "name": "Bip01 Head",
      "rotation": [
        -1.5619554005752434e-07,
        3.5345621540727734e-08,
        0.009768322110176086,
        0.9999522566795349
      ],
      "scale": [
        1.000000238418579,
        -1.6108998579511535e-07,
        -9.256359589926433e-08
      ],
      "translation": [
        8.948715209960938,
        -1.9073486328125e-06,
        0.0
      ]
    },
    {
      "children": [
        10
      ],
      "name": "Bip01 Ponytail1",
      "rotation": [
        1.9190846828331942e-12,
        -2.7727053293347126e-06,
        0.999677300453186,
        -0.0254015251994133
      ],
      "scale": [
        1.0,
        -3.026339845391135e-09,
        -6.196426157551935e-14
      ],
      "translation": [
        16.320892333984375,
        -17.09018325805664,
        0.031389594078063965
      ]
    },
    {
      "children": [
        11
      ],
      "name": "Bip01 Ponytail11",
      "rotation": [
        2.259137159028174e-13,
        3.766511156300112e-07,
        -0.1357986032962799,
        0.9907364845275879
      ],
      "scale": [
        1.0,
        7.634667095572645e-14,
        1.8100413068334806e-14
      ],
      "translation": [
        12.657058715820313,
        -0.00971221923828125,
        -2.6542693376541138e-08
      ]
    },
    {
      "children": [
        12
      ],
      "name": "Bip01 Ponytail12",
      "rotation": [
        -1.1420756647253366e-13,
        1.0159087793226718e-07,
        -0.03662780299782753,
        0.9993289709091187
      ],
      "scale": [
        0.9999999403953552,
        1.2963006223998264e-09,
        5.415502183655054e-15
      ],
      "translation": [
        12.65899658203125,
        -0.010051727294921875,
        -2.8405338525772095e-08
      ]
    },
    {
      "children": [
        13
      ],
      "name": "Bip01 Ponytail13",
      "rotation": [
        1.1420087152411856e-13,
        -4.410394183196331e-08,
        0.015901338309049606,
        0.9998735785484314
      ],
      "scale": [
        1.0,
        -1.2368874051152786e-16,
        -2.3944061184190228e-14
      ],
      "translation": [
        12.660064697265625,
        -0.010076522827148438,
        -2.7474015951156616e-08
      ]
    },
    {
      "name": "Bip01 Ponytail14",
      "rotation": [
        1.1472200685085088e-13,
        -6.945339237063308e-08,
        0.025040876120328903,
        0.9996864199638367
      ],
      "scale": [
        0.9999999403953552,
        7.364490683947622e-10,
        3.90057215313936e-14
      ],
      "translation": [
        12.660255432128906,
        -0.010066986083984375,
        -2.8405338525772095e-08
      ]
    },
    {
      "children": [
        15
      ],
      "name": "Bip01 R Clavicle",
      "rotation": [
        -0.5792272090911865,
        0.08922632783651352,
        0.8029547333717346,
        0.10861966758966446
      ],
      "scale": [
        1.0000004768371582,
        -4.281842080899878e-08,
        -1.6650460565870162e-07
      ],
      "translation": [
        -1.067474365234375,
        1.08306884765625,
        -2.8085217475891113
      ]
    },
    {
      "children": [
        16
      ],
      "name": "Bip01 R UpperArm",
      "rotation": [
        -0.041233353316783905,
        -0.11716548353433609,
        0.0096023203805089,
        0.9922095537185669
      ],
      "scale": [
        1.0,
        1.3707346369074003e-10,
        -9.792978872269487e-09
      ],
      "translation": [
        11.362140655517578,
        -4.76837158203125e-07,
        -1.52587890625e-05
      ]
    },
    {
      "children": [
        17
      ],
      "name": "Bip01 R ForeArm",
      "rotation": [
        6.410615371876816e-10,
        2.444753714452171e-15,
        -0.043017107993364334,
        0.9990743398666382
      ],
      "scale": [
        1.0000001192092896,
        0.0,
        -2.9747166507831935e-08
      ],
      "translation": [
        24.08300018310547,
        -2.384185791015625e-07,
        0.0
      ]
    },
    {
      "children": [
        18
      ],
      "name": "Bip01 R Hand",
      "rotation": [
        0.7058847546577454,
        0.036477863788604736,
        -0.036448825150728226,
        0.7064471244812012
      ],
      "scale": [
        1.0,
        7.194338458305083e-09,
        -4.697594313540776e-09
      ],
      "translation": [
        24.082996368408203,
        4.76837158203125e-07,
        0.0
      ]
    },
    {
      "name": "equip_right",
      "rotation": [
        1.9278382978882291e-07,
        4.3539336047615507e-07,
        -2.086162567138672e-07,
        1.0
      ],
      "scale": [
        1.0000001192092896,
        -1.4196986414163199e-13,
        -9.310265336459622e-10
      ],
      "translation": [
        2.4170074462890625,
        -2.9430618286132813,
        -0.07772111892700195
      ]
    },
    {
      "children": [
        20
      ],
      "name": "Bip01 L Clavicle",
      "rotation": [
        0.5799686312675476,
        -0.08928920328617096,
        0.8024171590805054,
        0.1085839793086052
      ],
      "scale": [
        1.0000005960464478,
        2.2543934719010394e-08,
        1.2659322479180446e-08
      ],
      "translation": [
        -1.0624542236328125,
        1.081949234008789,
        2.8108510971069336
      ]
    },
    {
      "children": [
        21
      ],
      "name": "Bip01 L UpperArm",
      "rotation": [
        0.041231438517570496,
        0.11807678639888763,
        0.00962535385042429,
        0.9921014308929443
      ],
      "scale": [
        1.0,
        -3.4518038427577835e-10,
        7.065376905757148e-08
      ],
      "translation": [
        11.362140655517578,
        9.5367431640625e-07,
        0.0
      ]
    },
    {
      "children": [
        22
      ],
      "name": "Bip01 L ForeArm",
      "rotation": [
        -6.409479058611112e-10,
        2.444753714452171e-15,
        -0.043017104268074036,
        0.9990743398666382
      ],
      "scale": [
        1.0000001192092896,
        2.2997146409409197e-09,
        2.9747187824114008e-08
      ],
      "translation": [
        24.08300018310547,
        0.0,
        0.0
      ]
    },
    {
      "children": [
        23
      ],
      "name": "Bip01 L Hand",
      "rotation": [
        -0.7058847546577454,
        -0.036477863788604736,
        -0.03644883632659912,
        0.7064471244812012
      ],
      "scale": [
        1.0,
        -7.634824328306422e-09,
        -1.0802878591675835e-09
      ],
      "translation": [
        24.082996368408203,
        -4.76837158203125e-07,
        0.0
      ]
    },
    {
      "name": "equip_left",
      "rotation": [
        -5.215409260017623e-07,
        -8.782378699834226e-07,
        -1.937151523634384e-07,
        1.0
      ],
      "scale": [
        0.999999463558197,
        -9.901541392354218e-13,
        -6.969988822214113e-13
      ],
      "translation": [
        -0.5002975463867188,
        -1.132965087890625,
        0.2617034912109375
      ]
    }
  ],
  "scene": 0,
  "scenes": [
    {
      "nodes": [
        0
      ]
    }
  ],
  "skins": [
    {
      "inverseBindMatrices": 4,
      "joints": [
        2,
        3,
        4,
        5,
        6,
        7,
        8,
        9,
        10,
        11,
        12,
        13,
        14,
        15,
        16,
        17,
        18,
        19,
        20,
        21,
        22,
        23
      ],
      "skeleton": 2
    }
  ]
}
