{
  "accessors": [
    {
      "bufferView": 0,
      "componentType": 5126,
      "count": 947,
      "max": [
        173.8782958984375,
        174.15130615234375,
        173.69573974609375
      ],
      "min": [
        -22.28675079345703,
        -18.87741470336914,
        -17.64377784729004
      ],
      "type": "VEC3"
    },
    {
      "bufferView": 1,
      "componentType": 5126,
      "count": 947,
      "type": "VEC3"
    },
    {
      "bufferView": 2,
      "componentType": 5126,
      "count": 947,
      "type": "VEC2"
    },
    {
      "bufferView": 3,
      "componentType": 5123,
      "count": 3066,
      "type": "SCALAR"
    },
    {
      "bufferView": 4,
      "componentType": 5126,
      "count": 14,
      "type": "MAT4"
    }
  ],
  "asset": {
    "generator": "gr2togltf (ANKA2 Project)",
    "version": "2.0"
  },
  "bufferViews": [
    {
      "buffer": 0,
      "byteLength": 11364,
      "target": 34962
    },
    {
      "buffer": 0,
      "byteLength": 11364,
      "byteOffset": 11364,
      "target": 34962
    },
    {
      "buffer": 0,
      "byteLength": 7576,
      "byteOffset": 22728,
      "target": 34962
    },
    {
      "buffer": 0,
      "byteLength": 6132,
      "byteOffset": 30304,
      "target": 34963
    },
    {
      "buffer": 0,
      "byteLength": 896,
      "byteOffset": 36436
    }
  ],
  "buffers": [
    {
      "byteLength": 37332,
      "uri": "data:application/octet-stream;base64,"
    }
  ],
  "materials": [
    {
      "name": "default",
      "pbrMetallicRoughness": {
        "baseColorFactor": [
          0.8,
          0.8,
          0.8,
          1.0
        ],
        "metallicFactor": 0.0,
        "roughnessFactor": 0.8
      }
    }
  ],
  "meshes": [
    {
      "name": "hair_4_6",
      "primitives": [
        {
          "attributes": {
            "NORMAL": 1,
            "POSITION": 0,
            "TEXCOORD_0": 2
          },
          "indices": 3,
          "material": 0,
          "mode": 4
        }
      ]
    }
  ],
  "nodes": [
    {
      "children": [
        1,
        2
      ]
    },
    {
      "mesh": 0,
      "name": "hair_4_6",
      "skin": 0
    },
    {
      "children": [
        3
      ],
      "name": "Bip01",
      "rotation": [
        0.0,
        0.0,
        0.0,
        0.9999999403953552
      ],
      "scale": [
        0.9999997019767761,
        -1.3359980981751673e-13,
        0.0
      ],
      "translation": [
        0.0,
        0.0,
        0.0
      ]
    },
    {
      "children": [
        4
      ],
      "name": "Bip01 Pelvis",
      "rotation": [
        -0.4999993145465851,
        -0.5,
        -0.5,
        0.5000006556510925
      ],
      "scale": [
        1.0,
        5.1399245505243465e-20,
        8.265705963650741e-14
      ],
      "translation": [
        5.9008601965615526e-05,
        3.604218363761902e-06,
        0.0
      ]
    },
    {
      "children": [
        5
      ],
      "name": "Bip01 Spine",
      "rotation": [
        2.1996311261318624e-06,
        0.00045840314123779535,
        -0.008512724190950394,
        0.999963641166687
      ],
      "scale": [
        1.0000001192092896,
        2.6206941061701627e-09,
        7.201391566402648e-11
      ],
      "translation": [
        9.231704711914063,
        -0.006681768223643303,
        1.2808945029973984e-05
      ]
    },
    {
      "children": [
        6
      ],
      "name": "Bip01 Spine1",
      "rotation": [
        -2.578975715709225e-13,
        -5.80622616652704e-09,
        0.002097893273457885,
        0.9999977946281433
      ],
      "scale": [
        1.0,
        -1.3969715384476444e-09,
        -2.910163256208964e-11
      ],
      "translation": [
        8.398162841796875,
        -0.010102152824401855,
        -2.9802322387695313e-08
      ]
    },
    {
      "children": [
        7
      ],
      "name": "Bip01 Spine2",
      "rotation": [
        9.880249830090948e-13,
        9.602741357639388e-08,
        -0.03463052213191986,
        0.9994001984596252
      ],
      "scale": [
        1.0000001192092896,
        6.613813940958835e-09,
        8.727295275345881e-11
      ],
      "translation": [
        12.686180114746094,
        -0.010077595710754395,
        -2.2351741790771484e-08
      ]
    },
    {
      "children": [
        8
      ],
      "name": "Bip01 Neck",
      "rotation": [
        -3.4904456697404385e-05,
        -0.0004581699031405151,
        0.13992184400558472,
        0.9901624321937561
      ],
      "scale": [
        1.0000001192092896,
        -3.287567551524262e-08,
        1.0101365056913725e-11
      ],
      "translation": [
        14.334159851074219,
        -3.440770149230957,
        -3.4421682357788086e-06
      ]
    },
    {
      "children": [
        9,
        15
      ],
      "name": "Bip01 Head",
      "rotation": [
        4.679258282930254e-13,
        -2.7110132805319154e-08,
        0.009768250398337841,
        0.9999522566795349
      ],
      "scale": [
        1.0,
        1.6529259738717883e-08,
        2.8501383544932146e-11
      ],
      "translation": [
        8.94873046875,
        0.0,
        1.862645149230957e-09
      ]
    },
    {
      "children": [
        10
      ],
      "name": "Bip01 Ponytail1",
      "rotation": [
        1.9261924954355747e-12,
        -2.7727053293347126e-06,
        0.999677300453186,
        -0.025401543825864792
      ],
      "scale": [
        1.0000001192092896,
        -4.413062359986952e-09,
        -2.2762621323425825e-14
      ],
      "translation": [
        16.320892333984375,
        -17.09018325805664,
        0.03138930723071098
      ]
    },
    {
      "children": [
        11
      ],
      "name": "Bip01 Ponytail11",
      "rotation": [
        -7.171864386818893e-15,
        3.766506608826603e-07,
        -0.13579846918582916,
        0.9907364845275879
      ],
      "scale": [
        1.0000001192092896,
        -1.603840082964325e-08,
        4.901162686961856e-14
      ],
      "translation": [
        12.65704345703125,
        -0.00971221923828125,
        -2.6542693376541138e-08
      ]
    },
    {
      "children": [
        12
      ],
      "name": "Bip01 Ponytail12",
      "rotation": [
        -8.887748367741107e-16,
        1.0159112662222469e-07,
        -0.03662789240479469,
        0.9993289709091187
      ],
      "scale": [
        1.0000001192092896,
        -7.430588144785588e-09,
        -1.9980932937390707e-14
      ],
      "translation": [
        12.658981323242188,
        -0.010051727294921875,
        -2.7939677238464355e-08
      ]
    },
    {
      "children": [
        13
      ],
      "name": "Bip01 Ponytail13",
      "rotation": [
        1.1486710020658375e-13,
        -4.410374643271098e-08,
        0.015901261940598488,
        0.9998735785484314
      ],
      "scale": [
        1.0000001192092896,
        9.342151052749159e-09,
        2.873065961571733e-14
      ],
      "translation": [
        12.660064697265625,
        -0.010072708129882813,
        -2.7939677238464355e-08
      ]
    },
    {
      "children": [
        14
      ],
      "name": "Bip01 Ponytail14",
      "rotation": [
        2.284445148239417e-13,
        -6.94536907985821e-08,
        0.025040986016392708,
        0.9996864199638367
      ],
      "scale": [
        1.0000001192092896,
        -8.17767364935662e-09,
        -4.2631795039689904e-15
      ],
      "translation": [
        12.660255432128906,
        -0.010068893432617188,
        -2.7939677238464355e-08
      ]
    },
    {
      "name": "Bip01 Ponytail1Nub",
      "rotation": [
        0.7073882222175598,
        0.7068251967430115,
        9.80225195235107e-07,
        -9.810059964365792e-07
      ],
      "scale": [
        1.0,
        3.6709461859185666e-11,
        -8.242093395586722e-14
      ],
      "translation": [
        12.659751892089844,
        1.9073486328125e-06,
        0.0
      ]
    },
    {
      "name": "Bip01 HeadNub",
      "rotation": [
        5.684341886080802e-14,
        0.0,
        -1.6155873264856266e-27,
        1.0
      ],
      "scale": [
        1.0,
        -2.827277291719112e-27,
        -5.6843415472676226e-14
      ],
      "translation": [
        20.872726440429688,
        3.814697265625e-06,
        0.0
      ]
    }
  ],
  "scene": 0,
  "scenes": [
    {
      "nodes": [
        0
      ]
    }
  ],
  "skins": [
    {
      "inverseBindMatrices": 4,
      "joints": [
        2,
        3,
        4,
        5,
        6,
        7,
        8,
        9,
        10,
        11,
        12,
        13,
        14,
        15
      ],
      "skeleton": 2
    }
  ]
}
