{
  "accessors": [
    {
      "bufferView": 0,
      "componentType": 5126,
      "count": 473,
      "max": [
        12.399931907653809,
        13.400429725646973,
        168.91458129882813
      ],
      "min": [
        -12.399931907653809,
        -11.455602645874023,
        144.7011260986328
      ],
      "type": "VEC3"
    },
    {
      "bufferView": 1,
      "componentType": 5126,
      "count": 473,
      "type": "VEC3"
    },
    {
      "bufferView": 2,
      "componentType": 5126,
      "count": 473,
      "type": "VEC2"
    },
    {
      "bufferView": 3,
      "componentType": 5123,
      "count": 2304,
      "type": "SCALAR"
    },
    {
      "bufferView": 4,
      "componentType": 5126,
      "count": 17,
      "type": "MAT4"
    }
  ],
  "asset": {
    "generator": "gr2togltf (ANKA2 Project)",
    "version": "2.0"
  },
  "bufferViews": [
    {
      "buffer": 0,
      "byteLength": 5676,
      "target": 34962
    },
    {
      "buffer": 0,
      "byteLength": 5676,
      "byteOffset": 5676,
      "target": 34962
    },
    {
      "buffer": 0,
      "byteLength": 3784,
      "byteOffset": 11352,
      "target": 34962
    },
    {
      "buffer": 0,
      "byteLength": 4608,
      "byteOffset": 15136,
      "target": 34963
    },
    {
      "buffer": 0,
      "byteLength": 1088,
      "byteOffset": 19744
    }
  ],
  "buffers": [
    {
      "byteLength": 20832,
      "uri": "data:application/octet-stream;base64,"
    }
  ],
  "materials": [
    {
      "name": "default",
      "pbrMetallicRoughness": {
        "baseColorFactor": [
          0.8,
          0.8,
          0.8,
          1.0
        ],
        "metallicFactor": 0.0,
        "roughnessFactor": 0.8
      }
    }
  ],
  "meshes": [
    {
      "name": "hair_56_1",
      "primitives": [
        {
          "attributes": {
            "NORMAL": 1,
            "POSITION": 0,
            "TEXCOORD_0": 2
          },
          "indices": 3,
          "material": 0,
          "mode": 4
        }
      ]
    }
  ],
  "nodes": [
    {
      "children": [
        1,
        2
      ]
    },
    {
      "mesh": 0,
      "name": "hair_56_1",
      "skin": 0
    },
    {
      "children": [
        3
      ],
      "name": "Bip01",
      "rotation": [
        0.0,
        0.0,
        0.0,
        0.9999999403953552
      ],
      "scale": [
        0.9999997019767761,
        -1.3359980981751673e-13,
        0.0
      ],
      "translation": [
        -2.9802322387695313e-08,
        2.842170943040401e-14,
        0.0
      ]
    },
    {
      "children": [
        4
      ],
      "name": "Bip01 Pelvis",
      "rotation": [
        -0.4999993145465851,
        -0.5,
        -0.5,
        0.5000006556510925
      ],
      "scale": [
        1.0,
        5.1399245505243465e-20,
        8.265705963650741e-14
      ],
      "translation": [
        -0.3999806344509125,
        0.005859695374965668,
        0.0
      ]
    },
    {
      "children": [
        5
      ],
      "name": "Bip01 Spine",
      "rotation": [
        2.199636128352722e-06,
        0.00045840319944545627,
        -0.008512724190950394,
        0.999963641166687
      ],
      "scale": [
        1.0000001192092896,
        2.6206861125643854e-09,
        7.218286385279882e-11
      ],
      "translation": [
        9.231704711914063,
        -0.006681768223643303,
        1.2808945029973984e-05
      ]
    },
    {
      "children": [
        6
      ],
      "name": "Bip01 Spine1",
      "rotation": [
        -3.052426204592368e-14,
        -5.80622572243783e-09,
        0.0020978909451514482,
        0.9999977946281433
      ],
      "scale": [
        1.0,
        -1.3969715384476444e-09,
        -2.910163256208964e-11
      ],
      "translation": [
        8.398162841796875,
        -0.010102152824401855,
        -2.9802322387695313e-08
      ]
    },
    {
      "children": [
        7
      ],
      "name": "Bip01 Spine2",
      "rotation": [
        -1.0571222716637685e-12,
        9.602747041981274e-08,
        -0.03463052213191986,
        0.9994001984596252
      ],
      "scale": [
        1.0000001192092896,
        -8.188961175825682e-10,
        8.723841787849906e-11
      ],
      "translation": [
        12.686180114746094,
        -0.010077714920043945,
        -2.2351741790771484e-08
      ]
    },
    {
      "children": [
        8,
        9,
        14
      ],
      "name": "Bip01 Neck",
      "rotation": [
        -3.4904456697404385e-05,
        -0.00045816993224434555,
        0.1399218589067459,
        0.9901624321937561
      ],
      "scale": [
        1.0,
        -2.0756235841190573e-08,
        4.571118223523074e-12
      ],
      "translation": [
        14.334159851074219,
        -3.4407691955566406,
        -3.4421682357788086e-06
      ]
    },
    {
      "name": "Bip01 Head",
      "rotation": [
        -1.1490024209859229e-11,
        -2.7122478485352985e-08,
        0.009768249467015266,
        0.9999522566795349
      ],
      "scale": [
        1.0000001192092896,
        1.5831380650865867e-08,
        8.002747770019525e-13
      ],
      "translation": [
        8.948715209960938,
        0.0,
        1.862645149230957e-09
      ]
    },
    {
      "children": [
        10
      ],
      "name": "Bip01 R Clavicle",
      "rotation": [
        -0.579227089881897,
        0.08922643214464188,
        0.8029547929763794,
        0.10861968249082565
      ],
      "scale": [
        1.000000238418579,
        -5.84096726541361e-09,
        -5.8816443271325625e-08
      ],
      "translation": [
        -1.067474365234375,
        1.0830726623535156,
        -2.8085200786590576
      ]
    },
    {
      "children": [
        11
      ],
      "name": "Bip01 R UpperArm",
      "rotation": [
        -0.04123350605368614,
        -0.11716581135988235,
        0.009602152742445469,
        0.9922095537185669
      ],
      "scale": [
        1.0000001192092896,
        -3.2679559058834684e-09,
        4.7144315118430313e-08
      ],
      "translation": [
        11.362136840820313,
        4.76837158203125e-07,
        0.0
      ]
    },
    {
      "children": [
        12
      ],
      "name": "Bip01 R ForeArm",
      "rotation": [
        2.8950894459534027e-10,
        -2.981479951813526e-08,
        -0.04301733896136284,
        0.9990743398666382
      ],
      "scale": [
        0.9999998807907104,
        2.8236331051090247e-09,
        2.985748182027237e-08
      ],
      "translation": [
        24.082996368408203,
        -2.384185791015625e-07,
        0.0
      ]
    },
    {
      "children": [
        13
      ],
      "name": "Bip01 R Hand",
      "rotation": [
        0.7058848142623901,
        0.03647807613015175,
        -0.03644903749227524,
        0.7064470648765564
      ],
      "scale": [
        1.0,
        -3.473360976613549e-08,
        6.37664365754631e-10
      ],
      "translation": [
        24.082996368408203,
        -4.76837158203125e-07,
        -7.62939453125e-06
      ]
    },
    {
      "name": "equip_right",
      "rotation": [
        7.636845111846924e-08,
        6.668268497378449e-07,
        -1.8626448650138627e-07,
        1.0
      ],
      "scale": [
        1.0000003576278687,
        -1.4901166522918174e-08,
        1.3038847335167247e-08
      ],
      "translation": [
        2.4170188903808594,
        -2.9430618286132813,
        -0.07772684097290039
      ]
    },
    {
      "children": [
        15
      ],
      "name": "Bip01 L Clavicle",
      "rotation": [
        0.5799686312675476,
        -0.0892895832657814,
        0.8024171590805054,
        0.10858380049467087
      ],
      "scale": [
        1.000000238418579,
        -7.356630860044788e-10,
        4.165273992384755e-08
      ],
      "translation": [
        -1.06243896484375,
        1.0819511413574219,
        2.8108513355255127
      ]
    },
    {
      "children": [
        16
      ],
      "name": "Bip01 L UpperArm",
      "rotation": [
        0.04123158007860184,
        0.11807733029127121,
        0.009625189006328583,
        0.9921013116836548
      ],
      "scale": [
        1.0,
        4.032624012495489e-09,
        -1.7106218663798245e-08
      ],
      "translation": [
        11.362140655517578,
        4.76837158203125e-07,
        0.0
      ]
    },
    {
      "children": [
        17
      ],
      "name": "Bip01 L ForeArm",
      "rotation": [
        6.410084130159532e-10,
        2.9774735565979427e-08,
        -0.04301733896136284,
        0.9990743398666382
      ],
      "scale": [
        1.0,
        5.123319546385119e-09,
        -2.9857467609417654e-08
      ],
      "translation": [
        24.082992553710938,
        -2.384185791015625e-07,
        -7.62939453125e-06
      ]
    },
    {
      "children": [
        18
      ],
      "name": "Bip01 L Hand",
      "rotation": [
        -0.7058848142623901,
        -0.03647807240486145,
        -0.03644903376698494,
        0.7064470648765564
      ],
      "scale": [
        1.0,
        -3.812783422318944e-09,
        -1.5644369133482883e-09
      ],
      "translation": [
        24.08300018310547,
        0.0,
        7.62939453125e-06
      ]
    },
    {
      "name": "equip_left",
      "rotation": [
        -5.234035143075744e-07,
        -1.1166563353981473e-06,
        -1.7881393432617188e-07,
        1.0
      ],
      "scale": [
        0.9999998807907104,
        -2.980349123049564e-08,
        -1.862758125525943e-08
      ],
      "translation": [
        -0.5002899169921875,
        -1.1329803466796875,
        0.2617053985595703
      ]
    }
  ],
  "scene": 0,
  "scenes": [
    {
      "nodes": [
        0
      ]
    }
  ],
  "skins": [
    {
      "inverseBindMatrices": 4,
      "joints": [
        2,
        3,
        4,
        5,
        6,
        7,
        8,
        9,
        10,
        11,
        12,
        13,
        14,
        15,
        16,
        17,
        18
      ],
      "skeleton": 2
    }
  ]
}
