{
  "accessors": [
    {
      "bufferView": 0,
      "componentType": 5126,
      "count": 402,
      "max": [
        177.5887908935547,
        174.1993865966797,
        177.62628173828125
      ],
      "min": [
        -15.907590866088867,
        -16.40789031982422,
        -16.567190170288086
      ],
      "type": "VEC3"
    },
    {
      "bufferView": 1,
      "componentType": 5126,
      "count": 402,
      "type": "VEC3"
    },
    {
      "bufferView": 2,
      "componentType": 5126,
      "count": 402,
      "type": "VEC2"
    },
    {
      "bufferView": 3,
      "componentType": 5123,
      "count": 1764,
      "type": "SCALAR"
    },
    {
      "bufferView": 4,
      "componentType": 5126,
      "count": 12,
      "type": "MAT4"
    }
  ],
  "asset": {
    "generator": "gr2togltf (ANKA2 Project)",
    "version": "2.0"
  },
  "bufferViews": [
    {
      "buffer": 0,
      "byteLength": 4824,
      "target": 34962
    },
    {
      "buffer": 0,
      "byteLength": 4824,
      "byteOffset": 4824,
      "target": 34962
    },
    {
      "buffer": 0,
      "byteLength": 3216,
      "byteOffset": 9648,
      "target": 34962
    },
    {
      "buffer": 0,
      "byteLength": 3528,
      "byteOffset": 12864,
      "target": 34963
    },
    {
      "buffer": 0,
      "byteLength": 768,
      "byteOffset": 16392
    }
  ],
  "buffers": [
    {
      "byteLength": 17160,
      "uri": "data:application/octet-stream;base64,"
    }
  ],
  "materials": [
    {
      "name": "default",
      "pbrMetallicRoughness": {
        "baseColorFactor": [
          0.8,
          0.8,
          0.8,
          1.0
        ],
        "metallicFactor": 0.0,
        "roughnessFactor": 0.8
      }
    }
  ],
  "meshes": [
    {
      "name": "assassin_p_hair",
      "primitives": [
        {
          "attributes": {
            "NORMAL": 1,
            "POSITION": 0,
            "TEXCOORD_0": 2
          },
          "indices": 3,
          "material": 0,
          "mode": 4
        }
      ]
    }
  ],
  "nodes": [
    {
      "children": [
        1,
        2
      ]
    },
    {
      "mesh": 0,
      "name": "assassin_p_hair",
      "skin": 0
    },
    {
      "children": [
        3
      ],
      "name": "Bip01",
      "rotation": [
        0.0,
        0.0,
        0.0,
        0.9999999403953552
      ],
      "scale": [
        0.9999997615814209,
        -5.117093408073606e-14,
        0.0
      ],
      "translation": [
        0.0,
        1.862645149230957e-09,
        0.0
      ]
    },
    {
      "children": [
        4
      ],
      "name": "Bip01 Pelvis",
      "rotation": [
        -0.4999993145465851,
        -0.5,
        -0.5,
        0.5000006556510925
      ],
      "scale": [
        1.0,
        6.755036055564761e-20,
        -2.6671148450016795e-18
      ],
      "translation": [
        -0.43055400252342224,
        -0.013545999303460121,
        0.0
      ]
    },
    {
      "children": [
        5
      ],
      "name": "Bip01 Spine",
      "rotation": [
        2.1985908915667096e-06,
        0.0004582926048897207,
        -0.008512725122272968,
        0.999963641166687
      ],
      "scale": [
        1.0000001192092896,
        1.6053632867496503e-09,
        4.0205571510965044e-11
      ],
      "translation": [
        9.231704711914063,
        -0.006681759841740131,
        1.2809410691261292e-05
      ]
    },
    {
      "children": [
        6
      ],
      "name": "Bip01 Spine1",
      "rotation": [
        2.8843483049038887e-13,
        -5.820777637666197e-09,
        0.0020980010740458965,
        0.9999977946281433
      ],
      "scale": [
        0.9999999403953552,
        -2.50100662402275e-10,
        5.820904175335428e-11
      ],
      "translation": [
        8.398162841796875,
        -0.010102152824401855,
        -2.2351741790771484e-08
      ]
    },
    {
      "children": [
        7
      ],
      "name": "Bip01 Spine2",
      "rotation": [
        1.7687579916339513e-12,
        9.605651030142326e-08,
        -0.03463057801127434,
        0.9994001984596252
      ],
      "scale": [
        0.9999999403953552,
        4.1258116922904264e-09,
        2.9037402690668124e-11
      ],
      "translation": [
        12.686180114746094,
        -0.010077714920043945,
        -1.4901161193847656e-08
      ]
    },
    {
      "children": [
        8
      ],
      "name": "Bip01 Neck",
      "rotation": [
        -3.473228571237996e-05,
        -0.0004580979875754565,
        0.13992176949977875,
        0.9901624321937561
      ],
      "scale": [
        0.9999998807907104,
        1.4035805406820145e-07,
        9.23186576073931e-08
      ],
      "translation": [
        14.33416748046875,
        -3.440770149230957,
        -3.1366944313049316e-06
      ]
    },
    {
      "children": [
        9
      ],
      "name": "Bip01 Head",
      "rotation": [
        -1.5619198734384554e-07,
        3.5344910997991974e-08,
        0.00976831465959549,
        0.9999522566795349
      ],
      "scale": [
        1.000000238418579,
        -1.6108998579511535e-07,
        -9.256361011011904e-08
      ],
      "translation": [
        8.948715209960938,
        -1.9073486328125e-06,
        0.0
      ]
    },
    {
      "children": [
        10
      ],
      "name": "Bip01 Ponytail1",
      "rotation": [
        1.9190846828331942e-12,
        -2.7727053293347126e-06,
        0.999677300453186,
        -0.0254015251994133
      ],
      "scale": [
        1.0,
        -3.026339845391135e-09,
        -6.196426157551935e-14
      ],
      "translation": [
        16.320892333984375,
        -17.09018325805664,
        0.031389594078063965
      ]
    },
    {
      "children": [
        11
      ],
      "name": "Bip01 Ponytail11",
      "rotation": [
        2.259137159028174e-13,
        3.766511156300112e-07,
        -0.1357986032962799,
        0.9907364845275879
      ],
      "scale": [
        1.0,
        7.634667095572645e-14,
        1.8100413068334806e-14
      ],
      "translation": [
        12.657058715820313,
        -0.00971221923828125,
        -2.6542693376541138e-08
      ]
    },
    {
      "children": [
        12
      ],
      "name": "Bip01 Ponytail12",
      "rotation": [
        -1.1420756647253366e-13,
        1.0159087793226718e-07,
        -0.03662780299782753,
        0.9993289709091187
      ],
      "scale": [
        0.9999999403953552,
        1.2963006223998264e-09,
        5.415502183655054e-15
      ],
      "translation": [
        12.65899658203125,
        -0.010051727294921875,
        -2.8405338525772095e-08
      ]
    },
    {
      "children": [
        13
      ],
      "name": "Bip01 Ponytail13",
      "rotation": [
        1.1447846793785632e-13,
        -4.4103988017241136e-08,
        0.0159013532102108,
        0.9998735785484314
      ],
      "scale": [
        1.0,
        -1.236894022560179e-16,
        -2.4168696015867963e-14
      ],
      "translation": [
        12.660064697265625,
        -0.010076522827148438,
        -2.7474015951156616e-08
      ]
    },
    {
      "name": "Bip01 Ponytail14",
      "rotation": [
        8.884569876606535e-16,
        -6.945332842178686e-08,
        0.025040853768587112,
        0.9996864199638367
      ],
      "scale": [
        0.9999998807907104,
        1.472904020971555e-09,
        3.34754976288789e-14
      ],
      "translation": [
        12.660255432128906,
        -0.010069847106933594,
        -2.8405338525772095e-08
      ]
    }
  ],
  "scene": 0,
  "scenes": [
    {
      "nodes": [
        0
      ]
    }
  ],
  "skins": [
    {
      "inverseBindMatrices": 4,
      "joints": [
        2,
        3,
        4,
        5,
        6,
        7,
        8,
        9,
        10,
        11,
        12,
        13
      ],
      "skeleton": 2
    }
  ]
}
