{
  "accessors": [
    {
      "bufferView": 0,
      "componentType": 5126,
      "count": 699,
      "max": [
        181.98846435546875,
        181.45916748046875,
        181.8174285888672
      ],
      "min": [
        -20.49408531188965,
        -18.455751419067383,
        -18.943740844726563
      ],
      "type": "VEC3"
    },
    {
      "bufferView": 1,
      "componentType": 5126,
      "count": 699,
      "type": "VEC3"
    },
    {
      "bufferView": 2,
      "componentType": 5126,
      "count": 699,
      "type": "VEC2"
    },
    {
      "bufferView": 3,
      "componentType": 5123,
      "count": 3072,
      "type": "SCALAR"
    },
    {
      "bufferView": 4,
      "componentType": 5126,
      "count": 7,
      "type": "MAT4"
    }
  ],
  "asset": {
    "generator": "gr2togltf (ANKA2 Project)",
    "version": "2.0"
  },
  "bufferViews": [
    {
      "buffer": 0,
      "byteLength": 8388,
      "target": 34962
    },
    {
      "buffer": 0,
      "byteLength": 8388,
      "byteOffset": 8388,
      "target": 34962
    },
    {
      "buffer": 0,
      "byteLength": 5592,
      "byteOffset": 16776,
      "target": 34962
    },
    {
      "buffer": 0,
      "byteLength": 6144,
      "byteOffset": 22368,
      "target": 34963
    },
    {
      "buffer": 0,
      "byteLength": 448,
      "byteOffset": 28512
    }
  ],
  "buffers": [
    {
      "byteLength": 28960,
      "uri": "data:application/octet-stream;base64,"
    }
  ],
  "materials": [
    {
      "name": "default",
      "pbrMetallicRoughness": {
        "baseColorFactor": [
          0.8,
          0.8,
          0.8,
          1.0
        ],
        "metallicFactor": 0.0,
        "roughnessFactor": 0.8
      }
    }
  ],
  "meshes": [
    {
      "name": "hair_39_1",
      "primitives": [
        {
          "attributes": {
            "NORMAL": 1,
            "POSITION": 0,
            "TEXCOORD_0": 2
          },
          "indices": 3,
          "material": 0,
          "mode": 4
        }
      ]
    }
  ],
  "nodes": [
    {
      "children": [
        1,
        2
      ]
    },
    {
      "mesh": 0,
      "name": "hair_39_1",
      "skin": 0
    },
    {
      "children": [
        3
      ],
      "name": "Bip01",
      "rotation": [
        0.0,
        0.0,
        0.0,
        0.9999999403953552
      ],
      "scale": [
        0.9999997615814209,
        -5.117093408073606e-14,
        0.0
      ],
      "translation": [
        0.0,
        -4.656612873077393e-10,
        0.0
      ]
    },
    {
      "children": [
        4
      ],
      "name": "Bip01 Pelvis",
      "rotation": [
        -0.4999993145465851,
        -0.5,
        -0.5,
        0.5000006556510925
      ],
      "scale": [
        1.0,
        6.755036055564761e-20,
        -2.6671148450016795e-18
      ],
      "translation": [
        7.999999979801942e-06,
        -2.9997900128364563e-06,
        0.0
      ]
    },
    {
      "children": [
        5
      ],
      "name": "Bip01 Spine",
      "rotation": [
        2.198593620050815e-06,
        0.0004582926048897207,
        -0.008512726984918118,
        0.999963641166687
      ],
      "scale": [
        1.0000001192092896,
        1.6053582907460395e-09,
        4.035216952247289e-11
      ],
      "translation": [
        9.231704711914063,
        -0.006681759841740131,
        1.2809410691261292e-05
      ]
    },
    {
      "children": [
        6
      ],
      "name": "Bip01 Spine1",
      "rotation": [
        2.8843483049038887e-13,
        -5.820777637666197e-09,
        0.002098000142723322,
        0.9999977946281433
      ],
      "scale": [
        0.9999999403953552,
        -2.5010055137997256e-10,
        5.820904175335428e-11
      ],
      "translation": [
        8.398162841796875,
        -0.010102272033691406,
        -2.2351741790771484e-08
      ]
    },
    {
      "children": [
        7
      ],
      "name": "Bip01 Spine2",
      "rotation": [
        1.9960459066853398e-12,
        9.605651740685062e-08,
        -0.03463057428598404,
        0.9994001984596252
      ],
      "scale": [
        0.9999999403953552,
        1.1558521251231468e-08,
        2.907188552392359e-11
      ],
      "translation": [
        12.686180114746094,
        -0.010077953338623047,
        -1.4901161193847656e-08
      ]
    },
    {
      "children": [
        8
      ],
      "name": "Bip01 Neck",
      "rotation": [
        -3.473228571237996e-05,
        -0.0004580979875754565,
        0.13992176949977875,
        0.9901624321937561
      ],
      "scale": [
        0.9999998807907104,
        1.4035805406820145e-07,
        9.23186576073931e-08
      ],
      "translation": [
        14.33416748046875,
        -3.4407711029052734,
        -3.1366944313049316e-06
      ]
    },
    {
      "name": "Bip01 Head",
      "rotation": [
        -1.5619554005752434e-07,
        3.534563575158245e-08,
        0.009768318384885788,
        0.9999522566795349
      ],
      "scale": [
        1.000000238418579,
        -1.6853914530656766e-07,
        -9.256362432097376e-08
      ],
      "translation": [
        8.948715209960938,
        -1.9073486328125e-06,
        0.0
      ]
    }
  ],
  "scene": 0,
  "scenes": [
    {
      "nodes": [
        0
      ]
    }
  ],
  "skins": [
    {
      "inverseBindMatrices": 4,
      "joints": [
        2,
        3,
        4,
        5,
        6,
        7,
        8
      ],
      "skeleton": 2
    }
  ]
}
