{
  "accessors": [
    {
      "bufferView": 0,
      "componentType": 5126,
      "count": 509,
      "max": [
        170.1061553955078,
        169.68438720703125,
        168.90472412109375
      ],
      "min": [
        -13.016849517822266,
        -14.182392120361328,
        -14.755743980407715
      ],
      "type": "VEC3"
    },
    {
      "bufferView": 1,
      "componentType": 5126,
      "count": 509,
      "type": "VEC3"
    },
    {
      "bufferView": 2,
      "componentType": 5126,
      "count": 509,
      "type": "VEC2"
    },
    {
      "bufferView": 3,
      "componentType": 5123,
      "count": 2325,
      "type": "SCALAR"
    },
    {
      "bufferView": 4,
      "componentType": 5126,
      "count": 66,
      "type": "MAT4"
    }
  ],
  "asset": {
    "generator": "gr2togltf (ANKA2 Project)",
    "version": "2.0"
  },
  "bufferViews": [
    {
      "buffer": 0,
      "byteLength": 6108,
      "target": 34962
    },
    {
      "buffer": 0,
      "byteLength": 6108,
      "byteOffset": 6108,
      "target": 34962
    },
    {
      "buffer": 0,
      "byteLength": 4072,
      "byteOffset": 12216,
      "target": 34962
    },
    {
      "buffer": 0,
      "byteLength": 4650,
      "byteOffset": 16288,
      "target": 34963
    },
    {
      "buffer": 0,
      "byteLength": 4224,
      "byteOffset": 20938
    }
  ],
  "buffers": [
    {
      "byteLength": 25162,
      "uri": "data:application/octet-stream;base64,"
    }
  ],
  "materials": [
    {
      "name": "default",
      "pbrMetallicRoughness": {
        "baseColorFactor": [
          0.8,
          0.8,
          0.8,
          1.0
        ],
        "metallicFactor": 0.0,
        "roughnessFactor": 0.8
      }
    }
  ],
  "meshes": [
    {
      "name": "hair_25_3",
      "primitives": [
        {
          "attributes": {
            "NORMAL": 1,
            "POSITION": 0,
            "TEXCOORD_0": 2
          },
          "indices": 3,
          "material": 0,
          "mode": 4
        }
      ]
    }
  ],
  "nodes": [
    {
      "children": [
        1,
        2
      ]
    },
    {
      "mesh": 0,
      "name": "hair_25_3",
      "skin": 0
    },
    {
      "children": [
        3
      ],
      "name": "Bip01",
      "rotation": [
        0.0,
        0.0,
        0.0,
        0.9999999403953552
      ],
      "scale": [
        0.9999997615814209,
        -5.117093408073606e-14,
        0.0
      ],
      "translation": [
        0.0,
        1.862645149230957e-09,
        0.0
      ]
    },
    {
      "children": [
        4
      ],
      "name": "Bip01 Pelvis",
      "rotation": [
        -0.4999993145465851,
        -0.5,
        -0.5,
        0.5000006556510925
      ],
      "scale": [
        1.0,
        6.755036055564761e-20,
        -2.6671148450016795e-18
      ],
      "translation": [
        -0.43055400252342224,
        -0.013545999303460121,
        0.0
      ]
    },
    {
      "children": [
        5,
        8,
        11,
        14,
        27,
        49,
        65
      ],
      "name": "Bip01 Spine",
      "rotation": [
        2.1985990770190256e-06,
        0.0004582926048897207,
        -0.008512734435498714,
        0.999963641166687
      ],
      "scale": [
        1.0000001192092896,
        1.6053487428280278e-09,
        4.0812669216405695e-11
      ],
      "translation": [
        9.231704711914063,
        -0.0066817449405789375,
        1.2809410691261292e-05
      ]
    },
    {
      "children": [
        6
      ],
      "name": "R_01",
      "rotation": [
        0.20674894750118256,
        0.6929649114608765,
        -0.6817431449890137,
        0.11081858724355698
      ],
      "scale": [
        0.9999995827674866,
        1.593601695049074e-08,
        7.016122793856994e-09
      ],
      "translation": [
        3.7016830444335938,
        0.06956088542938232,
        -10.318808555603027
      ]
    },
    {
      "children": [
        7
      ],
      "name": "R_02",
      "rotation": [
        2.001137477947168e-09,
        1.8683232738681e-08,
        -0.03752851113677025,
        0.9992955327033997
      ],
      "scale": [
        1.0,
        5.917996759308153e-09,
        -7.213141639539344e-09
      ],
      "translation": [
        19.448837280273438,
        3.814697265625e-06,
        -9.5367431640625e-07
      ]
    },
    {
      "name": "R_03",
      "rotation": [
        2.7939677238464355e-09,
        3.725290298461914e-09,
        7.450580596923828e-09,
        1.0
      ],
      "scale": [
        1.0,
        1.4901161193847656e-08,
        -7.450580596923828e-09
      ],
      "translation": [
        16.96139907836914,
        -3.814697265625e-06,
        0.0
      ]
    },
    {
      "children": [
        9
      ],
      "name": "L_01",
      "rotation": [
        0.15459127724170685,
        0.6731683611869812,
        0.7197554707527161,
        -0.06998541951179504
      ],
      "scale": [
        0.9999997019767761,
        -8.99102570173227e-09,
        -1.553814854560187e-07
      ],
      "translation": [
        3.6826858520507813,
        0.06954562664031982,
        10.391956329345703
      ]
    },
    {
      "children": [
        10
      ],
      "name": "L_02",
      "rotation": [
        -1.7215280312399273e-09,
        1.868323096232416e-08,
        -0.037528518587350845,
        0.9992955327033997
      ],
      "scale": [
        1.0000001192092896,
        5.917995427040523e-09,
        -7.492556797217276e-09
      ],
      "translation": [
        19.448829650878906,
        3.814697265625e-06,
        0.0
      ]
    },
    {
      "name": "L_03",
      "rotation": [
        9.313225746154785e-10,
        7.450580596923828e-09,
        -3.725290298461914e-09,
        1.0
      ],
      "scale": [
        1.0,
        7.450580596923828e-09,
        8.881784197001252e-16
      ],
      "translation": [
        16.961395263671875,
        -3.814697265625e-06,
        0.0
      ]
    },
    {
      "children": [
        12
      ],
      "name": "F_01",
      "rotation": [
        -0.03180382400751114,
        -0.023337258026003838,
        0.9891654253005981,
        0.14140601456165314
      ],
      "scale": [
        0.9999995231628418,
        1.1690661949614878e-07,
        -4.720598134611009e-09
      ],
      "translation": [
        2.9761428833007813,
        9.141229629516602,
        -0.00312042236328125
      ]
    },
    {
      "children": [
        13
      ],
      "name": "F_02",
      "rotation": [
        -9.310657800298827e-10,
        -4.374248532834635e-11,
        0.023484060540795326,
        0.9997242093086243
      ],
      "scale": [
        1.0,
        2.697070300428095e-08,
        -4.373043593908221e-11
      ],
      "translation": [
        19.174591064453125,
        3.814697265625e-06,
        0.0
      ]
    },
    {
      "name": "F_03",
      "rotation": [
        -9.313219084816637e-10,
        -1.8626449271863521e-09,
        -9.31322503561205e-08,
        1.0
      ],
      "scale": [
        1.0,
        -7.450588590529605e-09,
        -1.1175871783564162e-08
      ],
      "translation": [
        15.030853271484375,
        -3.814697265625e-06,
        4.76837158203125e-07
      ]
    },
    {
      "children": [
        15
      ],
      "name": "Bip01 Spine1",
      "rotation": [
        2.8843483049038887e-13,
        -5.820777637666197e-09,
        0.0020979982800781727,
        0.9999977946281433
      ],
      "scale": [
        0.9999999403953552,
        -2.5010032933536763e-10,
        5.820904175335428e-11
      ],
      "translation": [
        8.398162841796875,
        -0.010102391242980957,
        -2.2351741790771484e-08
      ]
    },
    {
      "children": [
        16,
        20,
        22
      ],
      "name": "Bip01 Spine2",
      "rotation": [
        1.9958238620804147e-12,
        9.605651740685062e-08,
        -0.03463057801127434,
        0.9994001984596252
      ],
      "scale": [
        0.9999999403953552,
        4.1258116922904264e-09,
        2.9071935830904394e-11
      ],
      "translation": [
        12.686180114746094,
        -0.010077714920043945,
        -1.4901161193847656e-08
      ]
    },
    {
      "children": [
        17,
        24,
        43
      ],
      "name": "Bip01 Neck",
      "rotation": [
        -3.473228571237996e-05,
        -0.0004580979875754565,
        0.13992178440093994,
        0.9901624321937561
      ],
      "scale": [
        0.9999998211860657,
        1.5687393783991865e-07,
        9.23705272271036e-08
      ],
      "translation": [
        14.33416748046875,
        -3.440769672393799,
        -3.1366944313049316e-06
      ]
    },
    {
      "children": [
        18,
        31
      ],
      "name": "Bip01 R Clavicle",
      "rotation": [
        -0.5792272090911865,
        0.08922635763883591,
        0.8029547333717346,
        0.10861968249082565
      ],
      "scale": [
        1.0000004768371582,
        -4.150250632051211e-08,
        -2.009054611562533e-07
      ],
      "translation": [
        -1.0674591064453125,
        1.0830707550048828,
        -2.8085217475891113
      ]
    },
    {
      "children": [
        19
      ],
      "name": "Bone09",
      "rotation": [
        -0.6614199280738831,
        0.20630472898483276,
        0.15911227464675903,
        0.7033102512359619
      ],
      "scale": [
        0.9999998211860657,
        -9.152867619377503e-08,
        5.088920929097185e-08
      ],
      "translation": [
        5.556018829345703,
        -0.32675695419311523,
        -0.8303680419921875
      ]
    },
    {
      "name": "Bone10",
      "rotation": [
        0.0,
        -9.313225746154785e-10,
        0.0,
        1.0
      ],
      "scale": [
        1.0,
        0.0,
        -2.220446049250313e-16
      ],
      "translation": [
        25.6839599609375,
        -1.52587890625e-05,
        2.86102294921875e-06
      ]
    },
    {
      "children": [
        21
      ],
      "name": "Bone07",
      "rotation": [
        -0.1429418921470642,
        0.06352420896291733,
        0.7351759076118469,
        0.6595821976661682
      ],
      "scale": [
        0.999999463558197,
        -3.4933118620017467e-09,
        1.5905557759765543e-08
      ],
      "translation": [
        4.191444396972656,
        3.242025375366211,
        -4.378601551055908
      ]
    },
    {
      "name": "Bone08",
      "rotation": [
        -2.210819971537603e-09,
        8.359663183910016e-09,
        -8.290574893266012e-10,
        1.0
      ],
      "scale": [
        0.4212566018104553,
        -2.3283054650935497e-10,
        6.431946975027358e-09
      ],
      "translation": [
        9.775653839111328,
        -7.62939453125e-06,
        3.814697265625e-06
      ]
    },
    {
      "children": [
        23
      ],
      "name": "Bone05",
      "rotation": [
        0.09463176131248474,
        -0.12054207175970078,
        0.7428730726242065,
        0.651654839515686
      ],
      "scale": [
        1.0000003576278687,
        3.927875802389735e-09,
        -4.108985862671943e-08
      ],
      "translation": [
        4.191459655761719,
        3.2420148849487305,
        4.743301868438721
      ]
    },
    {
      "name": "Bone06",
      "rotation": [
        1.1827885515458547e-07,
        8.926186012558901e-08,
        4.0102266667986497e-16,
        1.0
      ],
      "scale": [
        0.42125657200813293,
        -8.723473739159424e-15,
        2.153706990526416e-09
      ],
      "translation": [
        9.77564811706543,
        0.0,
        0.0
      ]
    },
    {
      "children": [
        25,
        53
      ],
      "name": "Bip01 L Clavicle",
      "rotation": [
        0.5799686312675476,
        -0.08928921073675156,
        0.8024171590805054,
        0.10858400911092758
      ],
      "scale": [
        1.0000005960464478,
        1.4763966937891837e-08,
        4.68561722755112e-08
      ],
      "translation": [
        -1.06243896484375,
        1.0819473266601563,
        2.8108510971069336
      ]
    },
    {
      "children": [
        26
      ],
      "name": "Bone01",
      "rotation": [
        0.669756293296814,
        -0.1308906525373459,
        0.14558130502700806,
        0.7163101434707642
      ],
      "scale": [
        0.9999998807907104,
        1.823987405558114e-09,
        2.4053044000993395e-08
      ],
      "translation": [
        5.556034088134766,
        -0.32680273056030273,
        0.830352783203125
      ]
    },
    {
      "name": "Bone02",
      "rotation": [
        -3.725290298461914e-09,
        -9.313225746154785e-10,
        1.734723475976807e-18,
        1.0
      ],
      "scale": [
        1.0,
        0.0,
        -2.7939677238464355e-09
      ],
      "translation": [
        25.683956146240234,
        -1.52587890625e-05,
        1.9073486328125e-06
      ]
    },
    {
      "children": [
        28
      ],
      "name": "Bip01 R Thigh",
      "rotation": [
        -0.001740758423693478,
        0.9993849992752075,
        -0.012853805907070637,
        0.032579343765974045
      ],
      "scale": [
        1.0,
        1.1999614635271882e-09,
        1.980700936599078e-09
      ],
      "translation": [
        -9.223106384277344,
        -0.15046727657318115,
        -8.036136627197266
      ]
    },
    {
      "children": [
        29
      ],
      "name": "Bip01 R Calf",
      "rotation": [
        -8.915102683859644e-11,
        1.8722257077996574e-09,
        -0.09983333200216293,
        0.9950041770935059
      ],
      "scale": [
        0.9999999403953552,
        1.1841605029871971e-08,
        -3.7426364229986575e-09
      ],
      "translation": [
        40.1383171081543,
        1.1920928955078125e-07,
        -1.9073486328125e-06
      ]
    },
    {
      "children": [
        30
      ],
      "name": "Bip01 R Foot",
      "rotation": [
        0.06932741403579712,
        0.03842362016439438,
        0.09007490426301956,
        0.9927758574485779
      ],
      "scale": [
        1.0,
        -2.0930452038214753e-08,
        6.653824158320276e-10
      ],
      "translation": [
        40.13832092285156,
        0.0,
        0.0
      ]
    },
    {
      "name": "Bip01 R Toe0",
      "rotation": [
        1.5700922994638892e-16,
        1.5700922994638892e-16,
        0.7071067094802856,
        0.7071067690849304
      ],
      "scale": [
        1.0,
        1.7763568394002505e-15,
        -3.223900041478473e-16
      ],
      "translation": [
        13.162713050842285,
        12.053354263305664,
        0.0
      ]
    },
    {
      "children": [
        32
      ],
      "name": "Bip01 R UpperArm",
      "rotation": [
        -0.041233357042074203,
        -0.1171654760837555,
        0.009602322243154049,
        0.9922095537185669
      ],
      "scale": [
        1.0,
        2.2122206289054702e-09,
        -8.772184756367096e-09
      ],
      "translation": [
        11.362140655517578,
        -9.5367431640625e-07,
        -1.52587890625e-05
      ]
    },
    {
      "children": [
        33
      ],
      "name": "Bip01 R ForeArm",
      "rotation": [
        6.410615371876816e-10,
        2.444753714452171e-15,
        -0.043017107993364334,
        0.9990743398666382
      ],
      "scale": [
        1.0000001192092896,
        0.0,
        -2.9747166507831935e-08
      ],
      "translation": [
        24.08300018310547,
        -2.384185791015625e-07,
        0.0
      ]
    },
    {
      "children": [
        34,
        37,
        40
      ],
      "name": "Bip01 R Hand",
      "rotation": [
        0.7058847546577454,
        0.036477863788604736,
        -0.036448825150728226,
        0.7064471244812012
      ],
      "scale": [
        1.0,
        7.194338458305083e-09,
        -4.697594313540776e-09
      ],
      "translation": [
        24.082996368408203,
        4.76837158203125e-07,
        0.0
      ]
    },
    {
      "children": [
        35
      ],
      "name": "Bip01 R Finger2",
      "rotation": [
        0.08983667939901352,
        0.004974718671292067,
        0.055557481944561005,
        0.9943932890892029
      ],
      "scale": [
        0.9999998211860657,
        1.6825504189910134e-07,
        1.1205313654727433e-07
      ],
      "translation": [
        8.273906707763672,
        -0.6917953491210938,
        -1.205906867980957
      ]
    },
    {
      "children": [
        36
      ],
      "name": "Bip01 R Finger21",
      "rotation": [
        -7.3865327188116225e-09,
        2.2396993728391993e-16,
        0.1308388113975525,
        0.9914036393165588
      ],
      "scale": [
        1.0,
        -2.6637678729457548e-08,
        1.9328902922666202e-09
      ],
      "translation": [
        3.085590362548828,
        7.62939453125e-06,
        0.0
      ]
    },
    {
      "name": "Bip01 R Finger22",
      "rotation": [
        -2.7184416939718403e-09,
        4.874123327169855e-10,
        0.1308387815952301,
        0.9914036393165588
      ],
      "scale": [
        1.0000001192092896,
        -1.3318844693799292e-08,
        1.6578962203084302e-08
      ],
      "translation": [
        3.0855979919433594,
        0.0,
        0.0
      ]
    },
    {
      "children": [
        38
      ],
      "name": "Bip01 R Finger1",
      "rotation": [
        0.00319846672937274,
        -0.06787998974323273,
        0.041126448661088943,
        0.9968403577804565
      ],
      "scale": [
        1.0000001192092896,
        2.6887548187914945e-07,
        -1.1320297943484547e-07
      ],
      "translation": [
        8.23690414428711,
        -0.86138916015625,
        2.45908260345459
      ]
    },
    {
      "children": [
        39
      ],
      "name": "Bip01 R Finger11",
      "rotation": [
        -1.7415754394178862e-09,
        4.4081422956310234e-09,
        0.1164020225405693,
        0.9932022094726563
      ],
      "scale": [
        0.9999999403953552,
        5.798942481760605e-08,
        1.7112178340994433e-09
      ],
      "translation": [
        3.0103683471679688,
        0.0,
        1.9073486328125e-06
      ]
    },
    {
      "name": "Bip01 R Finger12",
      "rotation": [
        -2.774974694474963e-09,
        -1.1425122181663028e-08,
        0.1164020299911499,
        0.9932021498680115
      ],
      "scale": [
        0.9999999403953552,
        1.378187519662788e-08,
        3.028554906858716e-10
      ],
      "translation": [
        3.010387420654297,
        0.0,
        -3.814697265625e-06
      ]
    },
    {
      "children": [
        41
      ],
      "name": "Bip01 R Finger0",
      "rotation": [
        -0.6828780770301819,
        -0.25692251324653625,
        -0.1345289945602417,
        0.6705000996589661
      ],
      "scale": [
        1.0000003576278687,
        1.7935022356141417e-07,
        4.017627759367315e-07
      ],
      "translation": [
        0.5431480407714844,
        0.00775146484375,
        2.5511600971221924
      ]
    },
    {
      "children": [
        42
      ],
      "name": "Bip01 R Finger01",
      "rotation": [
        -9.134459411086482e-09,
        0.0,
        0.1164020448923111,
        0.9932021498680115
      ],
      "scale": [
        0.9999998211860657,
        1.5212835435818306e-08,
        -2.7675779890046215e-08
      ],
      "translation": [
        3.7950172424316406,
        1.9073486328125e-06,
        -7.62939453125e-06
      ]
    },
    {
      "name": "Bip01 R Finger02",
      "rotation": [
        5.3767617025357595e-09,
        -7.94197063669344e-09,
        0.1164020225405693,
        0.9932022094726563
      ],
      "scale": [
        1.0,
        -1.664380455679293e-08,
        4.257694641296439e-08
      ],
      "translation": [
        3.795013427734375,
        0.0,
        0.0
      ]
    },
    {
      "children": [
        44
      ],
      "name": "Bip01 Head",
      "rotation": [
        -1.5619554005752434e-07,
        3.5345649962437165e-08,
        0.009768308140337467,
        0.9999522566795349
      ],
      "scale": [
        1.0000001192092896,
        -1.6155652815541544e-07,
        -9.256354616127282e-08
      ],
      "translation": [
        8.94873046875,
        -1.9073486328125e-06,
        0.0
      ]
    },
    {
      "children": [
        45
      ],
      "name": "Bip01 Ponytail1",
      "rotation": [
        1.9190846828331942e-12,
        -2.7727053293347126e-06,
        0.999677300453186,
        -0.0254015251994133
      ],
      "scale": [
        1.0,
        -3.026339845391135e-09,
        -6.196426157551935e-14
      ],
      "translation": [
        16.320892333984375,
        -17.09018325805664,
        0.031389594078063965
      ]
    },
    {
      "children": [
        46
      ],
      "name": "Bip01 Ponytail11",
      "rotation": [
        2.259137159028174e-13,
        3.766511156300112e-07,
        -0.1357986032962799,
        0.9907364845275879
      ],
      "scale": [
        1.0,
        7.634667095572645e-14,
        1.8100413068334806e-14
      ],
      "translation": [
        12.657058715820313,
        -0.00971221923828125,
        -2.6542693376541138e-08
      ]
    },
    {
      "children": [
        47
      ],
      "name": "Bip01 Ponytail12",
      "rotation": [
        -1.1420756647253366e-13,
        1.0159087793226718e-07,
        -0.03662780299782753,
        0.9993289709091187
      ],
      "scale": [
        0.9999999403953552,
        1.2963006223998264e-09,
        5.415502183655054e-15
      ],
      "translation": [
        12.65899658203125,
        -0.010051727294921875,
        -2.8405338525772095e-08
      ]
    },
    {
      "children": [
        48
      ],
      "name": "Bip01 Ponytail13",
      "rotation": [
        1.1420087152411856e-13,
        -4.410394183196331e-08,
        0.015901338309049606,
        0.9998735785484314
      ],
      "scale": [
        1.0,
        -1.2368874051152786e-16,
        -2.3944061184190228e-14
      ],
      "translation": [
        12.660064697265625,
        -0.010076522827148438,
        -2.7474015951156616e-08
      ]
    },
    {
      "name": "Bip01 Ponytail14",
      "rotation": [
        1.1461095744333405e-13,
        -6.945341368691516e-08,
        0.0250408835709095,
        0.9996864199638367
      ],
      "scale": [
        0.9999999403953552,
        7.364481802163425e-10,
        2.4696443281786544e-14
      ],
      "translation": [
        12.660255432128906,
        -0.010068893432617188,
        -2.8405338525772095e-08
      ]
    },
    {
      "children": [
        50
      ],
      "name": "Bip01 L Thigh",
      "rotation": [
        -0.001752624288201332,
        0.9994144439697266,
        0.012854245491325855,
        -0.03166180104017258
      ],
      "scale": [
        1.0,
        1.353241185775289e-09,
        -4.2345256190401415e-09
      ],
      "translation": [
        -9.237846374511719,
        -0.15050005912780762,
        8.019189834594727
      ]
    },
    {
      "children": [
        51
      ],
      "name": "Bip01 L Calf",
      "rotation": [
        1.4934366243668507e-10,
        -8.716592031499104e-11,
        -0.09983333200216293,
        0.9950041770935059
      ],
      "scale": [
        0.9999999403953552,
        4.013304556227123e-19,
        7.306938165640986e-09
      ],
      "translation": [
        40.13832473754883,
        1.1920928955078125e-07,
        9.5367431640625e-07
      ]
    },
    {
      "children": [
        52
      ],
      "name": "Bip01 L Foot",
      "rotation": [
        -0.06932742148637772,
        -0.038423530757427216,
        0.09007491171360016,
        0.9927758574485779
      ],
      "scale": [
        1.0,
        -1.0743733902529584e-08,
        -2.4792043973320688e-09
      ],
      "translation": [
        40.13832092285156,
        0.0,
        -9.5367431640625e-07
      ]
    },
    {
      "name": "Bip01 L Toe0",
      "rotation": [
        2.0247593968337495e-31,
        0.0,
        0.7071067094802856,
        0.7071067690849304
      ],
      "scale": [
        1.0,
        1.7763568394002505e-15,
        3.223949804664124e-16
      ],
      "translation": [
        13.162713050842285,
        12.05335521697998,
        0.0
      ]
    },
    {
      "children": [
        54
      ],
      "name": "Bip01 L UpperArm",
      "rotation": [
        0.04123144596815109,
        0.11807678639888763,
        0.009625354781746864,
        0.9921014308929443
      ],
      "scale": [
        1.0,
        -2.0392452171336117e-09,
        7.00759343885693e-08
      ],
      "translation": [
        11.362140655517578,
        4.76837158203125e-07,
        0.0
      ]
    },
    {
      "children": [
        55
      ],
      "name": "Bip01 L ForeArm",
      "rotation": [
        -6.409479058611112e-10,
        2.444753714452171e-15,
        -0.043017104268074036,
        0.9990743398666382
      ],
      "scale": [
        1.0000001192092896,
        2.2997146409409197e-09,
        2.9747187824114008e-08
      ],
      "translation": [
        24.08300018310547,
        0.0,
        0.0
      ]
    },
    {
      "children": [
        56,
        59,
        62
      ],
      "name": "Bip01 L Hand",
      "rotation": [
        -0.7058847546577454,
        -0.036477863788604736,
        -0.03644883632659912,
        0.7064471244812012
      ],
      "scale": [
        1.0,
        -7.634824328306422e-09,
        -1.0802878591675835e-09
      ],
      "translation": [
        24.082996368408203,
        -4.76837158203125e-07,
        0.0
      ]
    },
    {
      "children": [
        57
      ],
      "name": "Bip01 L Finger2",
      "rotation": [
        -0.08983667939901352,
        -0.004974718671292067,
        0.0555574931204319,
        0.9943932890892029
      ],
      "scale": [
        0.9999998807907104,
        1.3771941098639218e-07,
        -1.2401669380324165e-07
      ],
      "translation": [
        8.273902893066406,
        -0.691802978515625,
        1.2059063911437988
      ]
    },
    {
      "children": [
        58
      ],
      "name": "Bip01 L Finger21",
      "rotation": [
        1.1810917577292912e-08,
        -2.3340454013975886e-09,
        0.1308387964963913,
        0.9914036393165588
      ],
      "scale": [
        1.0000001192092896,
        1.3318842917442453e-08,
        7.182544781159095e-09
      ],
      "translation": [
        3.0855979919433594,
        -7.62939453125e-06,
        -1.9073486328125e-06
      ]
    },
    {
      "name": "Bip01 L Finger22",
      "rotation": [
        4.874123327169855e-10,
        -2.7184416939718403e-09,
        0.1308387815952301,
        0.9914036393165588
      ],
      "scale": [
        1.0000001192092896,
        1.5463118785419283e-08,
        9.383470889190448e-09
      ],
      "translation": [
        3.0855979919433594,
        0.0,
        0.0
      ]
    },
    {
      "children": [
        60
      ],
      "name": "Bip01 L Finger1",
      "rotation": [
        -0.003198464633896947,
        0.06787997484207153,
        0.04112643003463745,
        0.9968403577804565
      ],
      "scale": [
        1.0000001192092896,
        2.685777928945754e-07,
        1.1088844331652581e-07
      ],
      "translation": [
        8.236907958984375,
        -0.8613967895507813,
        -2.459083080291748
      ]
    },
    {
      "children": [
        61
      ],
      "name": "Bip01 L Finger11",
      "rotation": [
        -7.616748121108685e-09,
        -5.98358118608644e-09,
        0.1164020374417305,
        0.9932021498680115
      ],
      "scale": [
        1.0,
        4.206110659765727e-08,
        -2.6620203819049948e-09
      ],
      "translation": [
        3.0103721618652344,
        0.0,
        0.0
      ]
    },
    {
      "name": "Bip01 L Finger12",
      "rotation": [
        5.607678765784385e-09,
        7.588548678327811e-10,
        0.1164020299911499,
        0.9932021498680115
      ],
      "scale": [
        0.9999998211860657,
        2.8994712408803025e-08,
        -1.4699256034589325e-08
      ],
      "translation": [
        3.0103797912597656,
        7.62939453125e-06,
        1.9073486328125e-06
      ]
    },
    {
      "children": [
        63
      ],
      "name": "Bip01 L Finger0",
      "rotation": [
        0.6828780174255371,
        0.25692248344421387,
        -0.1345289945602417,
        0.6705000996589661
      ],
      "scale": [
        1.0000004768371582,
        1.4185344809902745e-07,
        -3.4762231848617375e-07
      ],
      "translation": [
        0.5431480407714844,
        0.00775146484375,
        -2.551161050796509
      ]
    },
    {
      "children": [
        64
      ],
      "name": "Bip01 L Finger01",
      "rotation": [
        1.1178218366043137e-16,
        -1.5667129815710723e-08,
        0.1164020448923111,
        0.9932021498680115
      ],
      "scale": [
        0.9999999403953552,
        -7.154796755060033e-10,
        -1.3189285219539215e-09
      ],
      "translation": [
        3.7950096130371094,
        0.0,
        1.52587890625e-05
      ]
    },
    {
      "name": "Bip01 L Finger02",
      "rotation": [
        4.682687571033739e-09,
        2.2850244363326055e-08,
        0.1164020225405693,
        0.9932022094726563
      ],
      "scale": [
        1.0,
        -1.378187430844946e-08,
        -1.53049661832938e-08
      ],
      "translation": [
        3.7950172424316406,
        -1.9073486328125e-06,
        -7.62939453125e-06
      ]
    },
    {
      "children": [
        66
      ],
      "name": "B_01",
      "rotation": [
        -0.036898013204336166,
        -0.01395343616604805,
        0.9908522367477417,
        -0.1290571242570877
      ],
      "scale": [
        1.000000238418579,
        3.204065279760471e-08,
        1.5243664108766097e-08
      ],
      "translation": [
        5.919456481933594,
        -6.957294464111328,
        -0.00042866915464401245
      ]
    },
    {
      "children": [
        67
      ],
      "name": "B_02",
      "rotation": [
        -8.122187922232627e-10,
        -3.798037884195082e-09,
        -0.0811627209186554,
        0.9967008829116821
      ],
      "scale": [
        1.0000001192092896,
        -4.582018320320458e-09,
        -2.5227783750914057e-10
      ],
      "translation": [
        16.875198364257813,
        -0.00030517578125,
        0.0
      ]
    },
    {
      "name": "B_03",
      "rotation": [
        2.328307546761721e-10,
        1.8626449271863521e-09,
        4.09781861776537e-08,
        1.0
      ],
      "scale": [
        1.000000238418579,
        2.2351736461700966e-08,
        3.725291186640334e-09
      ],
      "translation": [
        23.144187927246094,
        1.1444091796875e-05,
        0.0
      ]
    }
  ],
  "scene": 0,
  "scenes": [
    {
      "nodes": [
        0
      ]
    }
  ],
  "skins": [
    {
      "inverseBindMatrices": 4,
      "joints": [
        2,
        3,
        4,
        5,
        6,
        7,
        8,
        9,
        10,
        11,
        12,
        13,
        14,
        15,
        16,
        17,
        18,
        19,
        20,
        21,
        22,
        23,
        24,
        25,
        26,
        27,
        28,
        29,
        30,
        31,
        32,
        33,
        34,
        35,
        36,
        37,
        38,
        39,
        40,
        41,
        42,
        43,
        44,
        45,
        46,
        47,
        48,
        49,
        50,
        51,
        52,
        53,
        54,
        55,
        56,
        57,
        58,
        59,
        60,
        61,
        62,
        63,
        64,
        65,
        66,
        67
      ],
      "skeleton": 2
    }
  ]
}
