{
  "accessors": [
    {
      "bufferView": 0,
      "componentType": 5126,
      "count": 217,
      "max": [
        26.6320743560791,
        20.45949363708496,
        210.29466247558594
      ],
      "min": [
        -29.07633399963379,
        -13.274711608886719,
        163.12413024902344
      ],
      "type": "VEC3"
    },
    {
      "bufferView": 1,
      "componentType": 5126,
      "count": 217,
      "type": "VEC3"
    },
    {
      "bufferView": 2,
      "componentType": 5126,
      "count": 217,
      "type": "VEC2"
    },
    {
      "bufferView": 3,
      "componentType": 5123,
      "count": 1044,
      "type": "SCALAR"
    },
    {
      "bufferView": 4,
      "componentType": 5126,
      "count": 12,
      "type": "MAT4"
    }
  ],
  "asset": {
    "generator": "gr2togltf (ANKA2 Project)",
    "version": "2.0"
  },
  "bufferViews": [
    {
      "buffer": 0,
      "byteLength": 2604,
      "target": 34962
    },
    {
      "buffer": 0,
      "byteLength": 2604,
      "byteOffset": 2604,
      "target": 34962
    },
    {
      "buffer": 0,
      "byteLength": 1736,
      "byteOffset": 5208,
      "target": 34962
    },
    {
      "buffer": 0,
      "byteLength": 2088,
      "byteOffset": 6944,
      "target": 34963
    },
    {
      "buffer": 0,
      "byteLength": 768,
      "byteOffset": 9032
    }
  ],
  "buffers": [
    {
      "byteLength": 9800,
      "uri": "data:application/octet-stream;base64,"
    }
  ],
  "materials": [
    {
      "name": "default",
      "pbrMetallicRoughness": {
        "baseColorFactor": [
          0.8,
          0.8,
          0.8,
          1.0
        ],
        "metallicFactor": 0.0,
        "roughnessFactor": 0.8
      }
    }
  ],
  "meshes": [
    {
      "name": "hair_47_1",
      "primitives": [
        {
          "attributes": {
            "NORMAL": 1,
            "POSITION": 0,
            "TEXCOORD_0": 2
          },
          "indices": 3,
          "material": 0,
          "mode": 4
        }
      ]
    }
  ],
  "nodes": [
    {
      "children": [
        1,
        2
      ]
    },
    {
      "mesh": 0,
      "name": "hair_47_1",
      "skin": 0
    },
    {
      "children": [
        3
      ],
      "name": "Bip01",
      "rotation": [
        0.0,
        0.0,
        0.0,
        0.9999999403953552
      ],
      "scale": [
        0.9999997019767761,
        -1.3359980981751673e-13,
        0.0
      ],
      "translation": [
        0.0,
        -3.725290298461914e-09,
        0.0
      ]
    },
    {
      "children": [
        4
      ],
      "name": "Bip01 Pelvis",
      "rotation": [
        -0.4999993145465851,
        -0.5,
        -0.5,
        0.5000006556510925
      ],
      "scale": [
        1.0,
        5.1399245505243465e-20,
        8.265705963650741e-14
      ],
      "translation": [
        -1.450891375541687,
        0.0,
        0.0
      ]
    },
    {
      "children": [
        5
      ],
      "name": "Bip01 Spine",
      "rotation": [
        -2.0804759515158366e-06,
        -6.936760428288835e-07,
        0.0003981590270996094,
        0.9999999403953552
      ],
      "scale": [
        1.0,
        -6.39742148145217e-11,
        1.156542089609516e-14
      ],
      "translation": [
        2.840728759765625,
        -0.718707799911499,
        5.904585123062134e-06
      ]
    },
    {
      "children": [
        6
      ],
      "name": "Bip01 Spine1",
      "rotation": [
        -8.440914389977114e-14,
        7.659852485630836e-08,
        -0.02761700190603733,
        0.9996185898780823
      ],
      "scale": [
        1.0,
        4.2866085681048105e-10,
        -3.3088291763634647e-15
      ],
      "translation": [
        15.780479431152344,
        -0.012592077255249023,
        -3.725290298461914e-08
      ]
    },
    {
      "children": [
        7
      ],
      "name": "Bip01 Spine2",
      "rotation": [
        -1.9644298327229325e-14,
        2.855335878848564e-07,
        -0.10294690728187561,
        0.9946868419647217
      ],
      "scale": [
        1.0,
        1.4585348040441204e-08,
        4.846188893432336e-15
      ],
      "translation": [
        15.835281372070313,
        -0.013475418090820313,
        -3.725290298461914e-08
      ]
    },
    {
      "children": [
        8,
        9
      ],
      "name": "Bip01 Neck",
      "rotation": [
        1.468840172646861e-14,
        -7.014887728473695e-07,
        0.2529163062572479,
        0.967488169670105
      ],
      "scale": [
        0.9999998807907104,
        -9.540871204194445e-09,
        -4.963165159887692e-14
      ],
      "translation": [
        18.435470581054688,
        -0.008853912353515625,
        -2.2351741790771484e-08
      ]
    },
    {
      "name": "Bip01 Head",
      "rotation": [
        6.042281746557882e-14,
        -8.242796667445873e-08,
        0.029718076810240746,
        0.9995583295822144
      ],
      "scale": [
        1.0000001192092896,
        1.06233173369219e-08,
        3.754104909966041e-14
      ],
      "translation": [
        11.440719604492188,
        3.814697265625e-06,
        -3.725290298461914e-09
      ]
    },
    {
      "children": [
        10
      ],
      "name": "Bip01 R Clavicle",
      "rotation": [
        -0.4834083318710327,
        0.19029393792152405,
        0.8352445960044861,
        0.18019743263721466
      ],
      "scale": [
        1.0,
        -7.3352843799057155e-09,
        -1.7152093079175756e-08
      ],
      "translation": [
        -1.18988037109375,
        -0.19192123413085938,
        -4.6038665771484375
      ]
    },
    {
      "children": [
        11
      ],
      "name": "Bip01 R UpperArm",
      "rotation": [
        -0.06301035732030869,
        -0.23521773517131805,
        -0.008127667009830475,
        0.9698640704154968
      ],
      "scale": [
        0.9999999403953552,
        1.4417199878380416e-08,
        5.5525490871843886e-09
      ],
      "translation": [
        19.847068786621094,
        0.0,
        -1.52587890625e-05
      ]
    },
    {
      "children": [
        12
      ],
      "name": "Bip01 R ForeArm",
      "rotation": [
        3.730896036557851e-09,
        2.2348931594251553e-08,
        -0.0007525759283453226,
        0.9999997019767761
      ],
      "scale": [
        1.0,
        -8.971468012930472e-11,
        -1.490117718105921e-08
      ],
      "translation": [
        27.864295959472656,
        -1.9073486328125e-06,
        -1.52587890625e-05
      ]
    },
    {
      "children": [
        13
      ],
      "name": "Bip01 R Hand",
      "rotation": [
        0.6610820293426514,
        0.04967533424496651,
        0.03803499788045883,
        0.7477006316184998
      ],
      "scale": [
        1.0000001192092896,
        6.233241034436787e-09,
        6.663312568377933e-09
      ],
      "translation": [
        25.69066619873047,
        1.9073486328125e-06,
        7.62939453125e-06
      ]
    },
    {
      "name": "equip_right",
      "rotation": [
        8.70611984282732e-07,
        2.7940059155184827e-09,
        -2.682209014892578e-07,
        1.0
      ],
      "scale": [
        1.0000001192092896,
        8.94070240065048e-08,
        9.317110416517949e-10
      ],
      "translation": [
        7.531383514404297,
        2.140899658203125,
        -2.0025784969329834
      ]
    }
  ],
  "scene": 0,
  "scenes": [
    {
      "nodes": [
        0
      ]
    }
  ],
  "skins": [
    {
      "inverseBindMatrices": 4,
      "joints": [
        2,
        3,
        4,
        5,
        6,
        7,
        8,
        9,
        10,
        11,
        12,
        13
      ],
      "skeleton": 2
    }
  ]
}
