{
  "accessors": [
    {
      "bufferView": 0,
      "componentType": 5126,
      "count": 628,
      "max": [
        9.308186531066895,
        14.972616195678711,
        192.6149139404297
      ],
      "min": [
        -9.252371788024902,
        -16.365413665771484,
        167.31036376953125
      ],
      "type": "VEC3"
    },
    {
      "bufferView": 1,
      "componentType": 5126,
      "count": 628,
      "type": "VEC3"
    },
    {
      "bufferView": 2,
      "componentType": 5126,
      "count": 628,
      "type": "VEC2"
    },
    {
      "bufferView": 3,
      "componentType": 5123,
      "count": 2040,
      "type": "SCALAR"
    },
    {
      "bufferView": 4,
      "componentType": 5126,
      "count": 12,
      "type": "MAT4"
    }
  ],
  "asset": {
    "generator": "gr2togltf (ANKA2 Project)",
    "version": "2.0"
  },
  "bufferViews": [
    {
      "buffer": 0,
      "byteLength": 7536,
      "target": 34962
    },
    {
      "buffer": 0,
      "byteLength": 7536,
      "byteOffset": 7536,
      "target": 34962
    },
    {
      "buffer": 0,
      "byteLength": 5024,
      "byteOffset": 15072,
      "target": 34962
    },
    {
      "buffer": 0,
      "byteLength": 4080,
      "byteOffset": 20096,
      "target": 34963
    },
    {
      "buffer": 0,
      "byteLength": 768,
      "byteOffset": 24176
    }
  ],
  "buffers": [
    {
      "byteLength": 24944,
      "uri": "data:application/octet-stream;base64,"
    }
  ],
  "materials": [
    {
      "name": "default",
      "pbrMetallicRoughness": {
        "baseColorFactor": [
          0.8,
          0.8,
          0.8,
          1.0
        ],
        "metallicFactor": 0.0,
        "roughnessFactor": 0.8
      }
    }
  ],
  "meshes": [
    {
      "name": "hair_86_1",
      "primitives": [
        {
          "attributes": {
            "NORMAL": 1,
            "POSITION": 0,
            "TEXCOORD_0": 2
          },
          "indices": 3,
          "material": 0,
          "mode": 4
        }
      ]
    }
  ],
  "nodes": [
    {
      "children": [
        1,
        2
      ]
    },
    {
      "mesh": 0,
      "name": "hair_86_1",
      "skin": 0
    },
    {
      "children": [
        3
      ],
      "name": "Bip01",
      "rotation": [
        0.0,
        0.0,
        0.0,
        1.0000001192092896
      ],
      "scale": [
        1.0,
        0.0,
        0.0
      ],
      "translation": [
        9.5367431640625e-07,
        -1.1175870895385742e-08,
        0.0
      ]
    },
    {
      "children": [
        4
      ],
      "name": "Bip01 Pelvis",
      "rotation": [
        -0.499999463558197,
        -0.5000001788139343,
        -0.5000001788139343,
        0.500000536441803
      ],
      "scale": [
        1.0,
        0.0,
        2.2737367544323206e-13
      ],
      "translation": [
        4.384584426879883,
        3.725290298461914e-09,
        0.0
      ]
    },
    {
      "children": [
        5
      ],
      "name": "Bip01 Spine",
      "rotation": [
        -2.0804759515158366e-06,
        -6.936760428288835e-07,
        0.0003981590853072703,
        0.9999999403953552
      ],
      "scale": [
        1.0,
        -6.397423563120341e-11,
        -1.1368683772161603e-13
      ],
      "translation": [
        2.840728759765625,
        -0.718707799911499,
        5.904585123062134e-06
      ]
    },
    {
      "children": [
        6
      ],
      "name": "Bip01 Spine1",
      "rotation": [
        -5.5976592447642276e-14,
        7.659905065793282e-08,
        -0.0276171937584877,
        0.9996185898780823
      ],
      "scale": [
        1.0000001192092896,
        6.479150889917196e-16,
        -1.4210854715202004e-14
      ],
      "translation": [
        15.780479431152344,
        -0.012591838836669922,
        -3.725290298461914e-08
      ]
    },
    {
      "children": [
        7
      ],
      "name": "Bip01 Spine2",
      "rotation": [
        -5.1789512077720506e-14,
        2.855335878848564e-07,
        -0.10294690728187561,
        0.9946868419647217
      ],
      "scale": [
        1.0,
        1.4901194944627605e-08,
        0.0
      ],
      "translation": [
        15.835281372070313,
        -0.013475894927978516,
        -3.3527612686157227e-08
      ]
    },
    {
      "children": [
        8
      ],
      "name": "Bip01 Neck",
      "rotation": [
        -1.0281880869714849e-13,
        -7.014887728473695e-07,
        0.2529163062572479,
        0.967488169670105
      ],
      "scale": [
        1.0,
        -5.960512794445094e-08,
        -1.1368683772161603e-13
      ],
      "translation": [
        18.435455322265625,
        -0.008853912353515625,
        -2.2351741790771484e-08
      ]
    },
    {
      "children": [
        9
      ],
      "name": "Bip01 Head",
      "rotation": [
        8.508066484409077e-14,
        -8.242848537065584e-08,
        0.029718253761529922,
        0.9995583295822144
      ],
      "scale": [
        1.0,
        1.862645149230957e-08,
        2.842170943040401e-14
      ],
      "translation": [
        11.440719604492188,
        3.814697265625e-06,
        -3.725290298461914e-09
      ]
    },
    {
      "children": [
        10
      ],
      "name": "Bip01 Ponytail1",
      "rotation": [
        1.9211455343226547e-12,
        -2.7697305995388888e-06,
        0.9986048936843872,
        0.05280369147658348
      ],
      "scale": [
        0.9999999403953552,
        -1.490277945492835e-08,
        -2.842170943040401e-14
      ],
      "translation": [
        9.20233154296875,
        -10.642353057861328,
        -2.568960189819336e-05
      ]
    },
    {
      "children": [
        11
      ],
      "name": "Bip01 Ponytail11",
      "rotation": [
        -1.22407861841492e-13,
        -4.491428455821733e-07,
        0.1619349718093872,
        0.9868014454841614
      ],
      "scale": [
        1.0,
        -1.2894382556052214e-13,
        -5.684341886080802e-14
      ],
      "translation": [
        13.133544921875,
        -0.009552001953125,
        -2.60770320892334e-08
      ]
    },
    {
      "children": [
        12
      ],
      "name": "Bip01 Ponytail12",
      "rotation": [
        1.2957663371102046e-13,
        4.4504281504487153e-07,
        -0.16045671701431274,
        0.9870429039001465
      ],
      "scale": [
        1.0000001192092896,
        1.254747851843832e-13,
        -5.684341886080802e-14
      ],
      "translation": [
        12.648147583007813,
        -0.0103302001953125,
        -3.3527612686157227e-08
      ]
    },
    {
      "children": [
        13
      ],
      "name": "Bip01 Ponytail13",
      "rotation": [
        -2.3161843536873006e-13,
        2.1424631313493592e-07,
        -0.077244833111763,
        0.9970121383666992
      ],
      "scale": [
        1.0,
        2.980233659855003e-08,
        8.526512829121202e-14
      ],
      "translation": [
        13.685089111328125,
        -0.010768890380859375,
        -2.60770320892334e-08
      ]
    },
    {
      "name": "Bip01 Ponytail14",
      "rotation": [
        -3.3316029276998175e-16,
        6.56676988342042e-08,
        -0.02367597632110119,
        0.9997196793556213
      ],
      "scale": [
        1.0,
        -7.450580152834618e-09,
        -5.684341886080802e-14
      ],
      "translation": [
        13.686233520507813,
        -0.01088714599609375,
        -3.3527612686157227e-08
      ]
    }
  ],
  "scene": 0,
  "scenes": [
    {
      "nodes": [
        0
      ]
    }
  ],
  "skins": [
    {
      "inverseBindMatrices": 4,
      "joints": [
        2,
        3,
        4,
        5,
        6,
        7,
        8,
        9,
        10,
        11,
        12,
        13
      ],
      "skeleton": 2
    }
  ]
}
