{
  "accessors": [
    {
      "bufferView": 0,
      "componentType": 5126,
      "count": 316,
      "max": [
        10.982439041137695,
        25.83592414855957,
        193.41156005859375
      ],
      "min": [
        -10.982439041137695,
        -10.907010078430176,
        165.1904754638672
      ],
      "type": "VEC3"
    },
    {
      "bufferView": 1,
      "componentType": 5126,
      "count": 316,
      "type": "VEC3"
    },
    {
      "bufferView": 2,
      "componentType": 5126,
      "count": 316,
      "type": "VEC2"
    },
    {
      "bufferView": 3,
      "componentType": 5123,
      "count": 1497,
      "type": "SCALAR"
    },
    {
      "bufferView": 4,
      "componentType": 5126,
      "count": 12,
      "type": "MAT4"
    }
  ],
  "asset": {
    "generator": "gr2togltf (ANKA2 Project)",
    "version": "2.0"
  },
  "bufferViews": [
    {
      "buffer": 0,
      "byteLength": 3792,
      "target": 34962
    },
    {
      "buffer": 0,
      "byteLength": 3792,
      "byteOffset": 3792,
      "target": 34962
    },
    {
      "buffer": 0,
      "byteLength": 2528,
      "byteOffset": 7584,
      "target": 34962
    },
    {
      "buffer": 0,
      "byteLength": 2994,
      "byteOffset": 10112,
      "target": 34963
    },
    {
      "buffer": 0,
      "byteLength": 768,
      "byteOffset": 13106
    }
  ],
  "buffers": [
    {
      "byteLength": 13874,
      "uri": "data:application/octet-stream;base64,"
    }
  ],
  "materials": [
    {
      "name": "default",
      "pbrMetallicRoughness": {
        "baseColorFactor": [
          0.8,
          0.8,
          0.8,
          1.0
        ],
        "metallicFactor": 0.0,
        "roughnessFactor": 0.8
      }
    }
  ],
  "meshes": [
    {
      "name": "hair_46_1",
      "primitives": [
        {
          "attributes": {
            "NORMAL": 1,
            "POSITION": 0,
            "TEXCOORD_0": 2
          },
          "indices": 3,
          "material": 0,
          "mode": 4
        }
      ]
    }
  ],
  "nodes": [
    {
      "children": [
        1,
        2
      ]
    },
    {
      "mesh": 0,
      "name": "hair_46_1",
      "skin": 0
    },
    {
      "children": [
        3
      ],
      "name": "Bip01",
      "rotation": [
        0.0,
        0.0,
        0.0,
        0.9999999403953552
      ],
      "scale": [
        0.9999997019767761,
        -1.3359980981751673e-13,
        0.0
      ],
      "translation": [
        -5.960464477539063e-08,
        -7.450580596923828e-09,
        0.0
      ]
    },
    {
      "children": [
        4
      ],
      "name": "Bip01 Pelvis",
      "rotation": [
        -0.4999993145465851,
        -0.5,
        -0.5,
        0.5000006556510925
      ],
      "scale": [
        1.0,
        5.1399245505243465e-20,
        8.265705963650741e-14
      ],
      "translation": [
        -1.4979456663131714,
        -0.09999705851078033,
        0.0
      ]
    },
    {
      "children": [
        5
      ],
      "name": "Bip01 Spine",
      "rotation": [
        -2.0804759515158366e-06,
        -6.936760428288835e-07,
        0.0003981590270996094,
        0.9999999403953552
      ],
      "scale": [
        1.0,
        -6.39742148145217e-11,
        1.156542089609516e-14
      ],
      "translation": [
        2.840728759765625,
        -0.718707799911499,
        5.90426498092711e-06
      ]
    },
    {
      "children": [
        6
      ],
      "name": "Bip01 Spine1",
      "rotation": [
        -8.463127659612268e-14,
        7.659848932917157e-08,
        -0.027616988867521286,
        0.9996185898780823
      ],
      "scale": [
        1.0,
        4.286624111227155e-10,
        1.0900091762619957e-14
      ],
      "translation": [
        15.780471801757813,
        -0.012591958045959473,
        -3.492482392175589e-08
      ]
    },
    {
      "children": [
        7
      ],
      "name": "Bip01 Spine2",
      "rotation": [
        -2.321598893218011e-14,
        2.855335878848564e-07,
        -0.10294690728187561,
        0.9946868419647217
      ],
      "scale": [
        1.0,
        1.4585348040441204e-08,
        8.335727466894823e-15
      ],
      "translation": [
        15.835311889648438,
        -0.013474464416503906,
        -3.737295628525317e-08
      ]
    },
    {
      "children": [
        8,
        9
      ],
      "name": "Bip01 Neck",
      "rotation": [
        2.937680345293722e-14,
        -7.014888296907884e-07,
        0.2529163062572479,
        0.967488169670105
      ],
      "scale": [
        1.0,
        -2.9170221793606288e-08,
        -4.771287125159354e-14
      ],
      "translation": [
        18.435470581054688,
        -0.00885772705078125,
        -2.4563632905483246e-08
      ]
    },
    {
      "name": "Bip01 Head",
      "rotation": [
        9.263351533322223e-14,
        -8.242790983103987e-08,
        0.02971806190907955,
        0.9995583295822144
      ],
      "scale": [
        1.0000001192092896,
        1.0623312007851382e-08,
        3.242065361834523e-14
      ],
      "translation": [
        11.440719604492188,
        0.0,
        0.0
      ]
    },
    {
      "children": [
        10
      ],
      "name": "Bip01 R Clavicle",
      "rotation": [
        -0.4834083020687103,
        0.19029393792152405,
        0.8352445960044861,
        0.18019741773605347
      ],
      "scale": [
        1.0,
        7.118758915680701e-09,
        4.870255310152061e-09
      ],
      "translation": [
        -1.1898956298828125,
        -0.191925048828125,
        -4.603867053985596
      ]
    },
    {
      "children": [
        11
      ],
      "name": "Bip01 R UpperArm",
      "rotation": [
        -0.07118095457553864,
        -0.23287542164325714,
        0.025725040584802628,
        0.9695568680763245
      ],
      "scale": [
        1.0,
        1.582411712774956e-08,
        3.000686987775225e-08
      ],
      "translation": [
        19.847057342529297,
        3.814697265625e-06,
        0.0
      ]
    },
    {
      "children": [
        12
      ],
      "name": "Bip01 R ForeArm",
      "rotation": [
        5.6070720982903666e-12,
        2.235453955279354e-08,
        -0.0007525666151195765,
        0.9999997019767761
      ],
      "scale": [
        1.0,
        3.7252865237036303e-09,
        -1.4895572775230903e-08
      ],
      "translation": [
        27.864295959472656,
        -9.5367431640625e-07,
        -7.62939453125e-06
      ]
    },
    {
      "children": [
        13
      ],
      "name": "Bip01 R Hand",
      "rotation": [
        0.6610820293426514,
        0.049675352871418,
        0.038034990429878235,
        0.7477006316184998
      ],
      "scale": [
        0.9999999403953552,
        3.478810484125461e-08,
        -4.591268254472425e-09
      ],
      "translation": [
        25.690662384033203,
        0.0,
        7.62939453125e-06
      ]
    },
    {
      "name": "equip_right",
      "rotation": [
        6.7148357629776e-07,
        1.5459957580787886e-07,
        -4.619359685875679e-07,
        1.0
      ],
      "scale": [
        0.9999998807907104,
        -4.1217116525382735e-13,
        7.451182781892385e-09
      ],
      "translation": [
        7.5313720703125,
        2.14093017578125,
        -2.002575397491455
      ]
    }
  ],
  "scene": 0,
  "scenes": [
    {
      "nodes": [
        0
      ]
    }
  ],
  "skins": [
    {
      "inverseBindMatrices": 4,
      "joints": [
        2,
        3,
        4,
        5,
        6,
        7,
        8,
        9,
        10,
        11,
        12,
        13
      ],
      "skeleton": 2
    }
  ]
}
