{
  "accessors": [
    {
      "bufferView": 0,
      "componentType": 5126,
      "count": 735,
      "max": [
        28.51314353942871,
        22.349180221557617,
        196.63919067382813
      ],
      "min": [
        -21.96569061279297,
        -15.88417911529541,
        164.39866638183594
      ],
      "type": "VEC3"
    },
    {
      "bufferView": 1,
      "componentType": 5126,
      "count": 735,
      "type": "VEC3"
    },
    {
      "bufferView": 2,
      "componentType": 5126,
      "count": 735,
      "type": "VEC2"
    },
    {
      "bufferView": 3,
      "componentType": 5123,
      "count": 2562,
      "type": "SCALAR"
    },
    {
      "bufferView": 4,
      "componentType": 5126,
      "count": 7,
      "type": "MAT4"
    }
  ],
  "asset": {
    "generator": "gr2togltf (ANKA2 Project)",
    "version": "2.0"
  },
  "bufferViews": [
    {
      "buffer": 0,
      "byteLength": 8820,
      "target": 34962
    },
    {
      "buffer": 0,
      "byteLength": 8820,
      "byteOffset": 8820,
      "target": 34962
    },
    {
      "buffer": 0,
      "byteLength": 5880,
      "byteOffset": 17640,
      "target": 34962
    },
    {
      "buffer": 0,
      "byteLength": 5124,
      "byteOffset": 23520,
      "target": 34963
    },
    {
      "buffer": 0,
      "byteLength": 448,
      "byteOffset": 28644
    }
  ],
  "buffers": [
    {
      "byteLength": 29092,
      "uri": "data:application/octet-stream;base64,"
    }
  ],
  "materials": [
    {
      "name": "default",
      "pbrMetallicRoughness": {
        "baseColorFactor": [
          0.8,
          0.8,
          0.8,
          1.0
        ],
        "metallicFactor": 0.0,
        "roughnessFactor": 0.8
      }
    }
  ],
  "meshes": [
    {
      "name": "hair_69_1_f",
      "primitives": [
        {
          "attributes": {
            "NORMAL": 1,
            "POSITION": 0,
            "TEXCOORD_0": 2
          },
          "indices": 3,
          "material": 0,
          "mode": 4
        }
      ]
    }
  ],
  "nodes": [
    {
      "children": [
        1,
        2
      ]
    },
    {
      "mesh": 0,
      "name": "hair_69_1_f",
      "skin": 0
    },
    {
      "children": [
        3
      ],
      "name": "Bip01",
      "rotation": [
        0.0,
        0.0,
        0.0,
        1.0000001192092896
      ],
      "scale": [
        1.0,
        0.0,
        0.0
      ],
      "translation": [
        -2.384185791015625e-07,
        -1.1175870895385742e-08,
        0.0
      ]
    },
    {
      "children": [
        4
      ],
      "name": "Bip01 Pelvis",
      "rotation": [
        -0.499999463558197,
        -0.5000001788139343,
        -0.5000001788139343,
        0.500000536441803
      ],
      "scale": [
        1.0,
        0.0,
        2.2737367544323206e-13
      ],
      "translation": [
        -1.4509726762771606,
        0.0,
        0.0
      ]
    },
    {
      "children": [
        5
      ],
      "name": "Bip01 Spine",
      "rotation": [
        -2.0804759515158366e-06,
        -6.936760428288835e-07,
        0.0003981590853072703,
        0.9999999403953552
      ],
      "scale": [
        1.0,
        -6.397423563120341e-11,
        -1.1368683772161603e-13
      ],
      "translation": [
        2.840728759765625,
        -0.718707799911499,
        5.904585123062134e-06
      ]
    },
    {
      "children": [
        6
      ],
      "name": "Bip01 Spine1",
      "rotation": [
        -5.5976592447642276e-14,
        7.65984680128895e-08,
        -0.02761698327958584,
        0.9996185898780823
      ],
      "scale": [
        1.0,
        6.479100067940361e-16,
        -1.4210854715202004e-14
      ],
      "translation": [
        15.780479431152344,
        -0.012591838836669922,
        -3.725290298461914e-08
      ]
    },
    {
      "children": [
        7
      ],
      "name": "Bip01 Spine2",
      "rotation": [
        -5.1789512077720506e-14,
        2.855335878848564e-07,
        -0.10294691473245621,
        0.9946868419647217
      ],
      "scale": [
        1.0,
        1.4901194944627605e-08,
        0.0
      ],
      "translation": [
        15.835281372070313,
        -0.01347494125366211,
        -3.725290298461914e-08
      ]
    },
    {
      "children": [
        8
      ],
      "name": "Bip01 Neck",
      "rotation": [
        1.468840172646861e-14,
        -7.014887728473695e-07,
        0.2529163062572479,
        0.967488169670105
      ],
      "scale": [
        1.0000001192092896,
        -5.960512794445094e-08,
        -2.2737367544323206e-13
      ],
      "translation": [
        18.43548583984375,
        -0.008853912353515625,
        -2.2351741790771484e-08
      ]
    },
    {
      "name": "Bip01 Head",
      "rotation": [
        9.24113758606071e-14,
        -8.242791693646723e-08,
        0.02971806190907955,
        0.9995583295822144
      ],
      "scale": [
        1.0,
        1.1175870007207322e-08,
        4.263256414560601e-14
      ],
      "translation": [
        11.440719604492188,
        0.0,
        -3.725290298461914e-09
      ]
    }
  ],
  "scene": 0,
  "scenes": [
    {
      "nodes": [
        0
      ]
    }
  ],
  "skins": [
    {
      "inverseBindMatrices": 4,
      "joints": [
        2,
        3,
        4,
        5,
        6,
        7,
        8
      ],
      "skeleton": 2
    }
  ]
}
