{
  "accessors": [
    {
      "bufferView": 0,
      "componentType": 5126,
      "count": 287,
      "max": [
        187.83570861816406,
        187.35775756835938,
        185.95010375976563
      ],
      "min": [
        -9.23829460144043,
        -7.421059608459473,
        -7.82898473739624
      ],
      "type": "VEC3"
    },
    {
      "bufferView": 1,
      "componentType": 5126,
      "count": 287,
      "type": "VEC3"
    },
    {
      "bufferView": 2,
      "componentType": 5126,
      "count": 287,
      "type": "VEC2"
    },
    {
      "bufferView": 3,
      "componentType": 5123,
      "count": 1296,
      "type": "SCALAR"
    },
    {
      "bufferView": 4,
      "componentType": 5126,
      "count": 9,
      "type": "MAT4"
    }
  ],
  "asset": {
    "generator": "gr2togltf (ANKA2 Project)",
    "version": "2.0"
  },
  "bufferViews": [
    {
      "buffer": 0,
      "byteLength": 3444,
      "target": 34962
    },
    {
      "buffer": 0,
      "byteLength": 3444,
      "byteOffset": 3444,
      "target": 34962
    },
    {
      "buffer": 0,
      "byteLength": 2296,
      "byteOffset": 6888,
      "target": 34962
    },
    {
      "buffer": 0,
      "byteLength": 2592,
      "byteOffset": 9184,
      "target": 34963
    },
    {
      "buffer": 0,
      "byteLength": 576,
      "byteOffset": 11776
    }
  ],
  "buffers": [
    {
      "byteLength": 12352,
      "uri": "data:application/octet-stream;base64,"
    }
  ],
  "materials": [
    {
      "name": "default",
      "pbrMetallicRoughness": {
        "baseColorFactor": [
          0.8,
          0.8,
          0.8,
          1.0
        ],
        "metallicFactor": 0.0,
        "roughnessFactor": 0.8
      }
    }
  ],
  "meshes": [
    {
      "name": "hair_70_1_f",
      "primitives": [
        {
          "attributes": {
            "NORMAL": 1,
            "POSITION": 0,
            "TEXCOORD_0": 2
          },
          "indices": 3,
          "material": 0,
          "mode": 4
        }
      ]
    }
  ],
  "nodes": [
    {
      "children": [
        1,
        2
      ]
    },
    {
      "mesh": 0,
      "name": "hair_70_1_f",
      "skin": 0
    },
    {
      "children": [
        3
      ],
      "name": "Bip01",
      "rotation": [
        0.0,
        0.0,
        0.0,
        1.0000001192092896
      ],
      "scale": [
        1.0,
        0.0,
        0.0
      ],
      "translation": [
        -2.384185791015625e-07,
        -1.1175870895385742e-08,
        0.0
      ]
    },
    {
      "children": [
        4
      ],
      "name": "Bip01 Pelvis",
      "rotation": [
        -0.499999463558197,
        -0.5000001788139343,
        -0.5000001788139343,
        0.500000536441803
      ],
      "scale": [
        1.0,
        0.0,
        2.2737367544323206e-13
      ],
      "translation": [
        -1.4509857892990112,
        0.0,
        0.0
      ]
    },
    {
      "children": [
        5
      ],
      "name": "Bip01 Spine",
      "rotation": [
        -2.0804759515158366e-06,
        -6.936760428288835e-07,
        0.0003981590853072703,
        0.9999999403953552
      ],
      "scale": [
        1.0,
        -6.397423563120341e-11,
        -1.1368683772161603e-13
      ],
      "translation": [
        2.840728759765625,
        -0.718707799911499,
        5.904585123062134e-06
      ]
    },
    {
      "children": [
        6
      ],
      "name": "Bip01 Spine1",
      "rotation": [
        -5.619872175586203e-14,
        7.659839695861592e-08,
        -0.027616960927844048,
        0.9996185898780823
      ],
      "scale": [
        1.0,
        6.479094244588848e-16,
        0.0
      ],
      "translation": [
        15.780479431152344,
        -0.012592077255249023,
        -3.725290298461914e-08
      ]
    },
    {
      "children": [
        7
      ],
      "name": "Bip01 Spine2",
      "rotation": [
        -5.1789512077720506e-14,
        2.855335878848564e-07,
        -0.10294690728187561,
        0.9946868419647217
      ],
      "scale": [
        1.0,
        1.4901194944627605e-08,
        0.0
      ],
      "translation": [
        15.835281372070313,
        -0.013474464416503906,
        -3.725290298461914e-08
      ]
    },
    {
      "children": [
        8
      ],
      "name": "Bip01 Neck",
      "rotation": [
        -5.875360690587444e-14,
        -7.014887728473695e-07,
        0.25291627645492554,
        0.967488169670105
      ],
      "scale": [
        1.0,
        -2.980280555675563e-08,
        -1.1368683772161603e-13
      ],
      "translation": [
        18.43548583984375,
        -0.008853912353515625,
        -2.2351741790771484e-08
      ]
    },
    {
      "children": [
        9
      ],
      "name": "Bip01 Head",
      "rotation": [
        1.1351493746716845e-13,
        -8.24279879907408e-08,
        0.029718071222305298,
        0.9995583295822144
      ],
      "scale": [
        1.0000001192092896,
        2.2351741790771484e-08,
        2.842170943040401e-14
      ],
      "translation": [
        11.440719604492188,
        0.0,
        -3.725290298461914e-09
      ]
    },
    {
      "children": [
        10
      ],
      "name": "Bip01 Ponytail1",
      "rotation": [
        1.9211455343226547e-12,
        -2.7697305995388888e-06,
        0.9986048936843872,
        0.05280379578471184
      ],
      "scale": [
        1.0,
        -1.6180785010477816e-12,
        2.842170943040401e-14
      ],
      "translation": [
        9.20233154296875,
        -10.642349243164063,
        -2.568960189819336e-05
      ]
    },
    {
      "name": "Bip01 Ponytail11",
      "rotation": [
        -1.440092552043408e-14,
        -4.4914295926901104e-07,
        0.1619349718093872,
        0.9868014454841614
      ],
      "scale": [
        1.0000001192092896,
        -2.980245028538775e-08,
        -2.2737367544323206e-13
      ],
      "translation": [
        13.133529663085938,
        -0.00954437255859375,
        -2.60770320892334e-08
      ]
    }
  ],
  "scene": 0,
  "scenes": [
    {
      "nodes": [
        0
      ]
    }
  ],
  "skins": [
    {
      "inverseBindMatrices": 4,
      "joints": [
        2,
        3,
        4,
        5,
        6,
        7,
        8,
        9,
        10
      ],
      "skeleton": 2
    }
  ]
}
