{
  "accessors": [
    {
      "bufferView": 0,
      "componentType": 5126,
      "count": 861,
      "max": [
        196.4199981689453,
        196.5608673095703,
        196.5608673095703
      ],
      "min": [
        -18.093769073486328,
        -19.23460578918457,
        -16.206369400024414
      ],
      "type": "VEC3"
    },
    {
      "bufferView": 1,
      "componentType": 5126,
      "count": 861,
      "type": "VEC3"
    },
    {
      "bufferView": 2,
      "componentType": 5126,
      "count": 861,
      "type": "VEC2"
    },
    {
      "bufferView": 3,
      "componentType": 5123,
      "count": 3666,
      "type": "SCALAR"
    },
    {
      "bufferView": 4,
      "componentType": 5126,
      "count": 88,
      "type": "MAT4"
    }
  ],
  "asset": {
    "generator": "gr2togltf (ANKA2 Project)",
    "version": "2.0"
  },
  "bufferViews": [
    {
      "buffer": 0,
      "byteLength": 10332,
      "target": 34962
    },
    {
      "buffer": 0,
      "byteLength": 10332,
      "byteOffset": 10332,
      "target": 34962
    },
    {
      "buffer": 0,
      "byteLength": 6888,
      "byteOffset": 20664,
      "target": 34962
    },
    {
      "buffer": 0,
      "byteLength": 7332,
      "byteOffset": 27552,
      "target": 34963
    },
    {
      "buffer": 0,
      "byteLength": 5632,
      "byteOffset": 34884
    }
  ],
  "buffers": [
    {
      "byteLength": 40516,
      "uri": "data:application/octet-stream;base64,"
    }
  ],
  "materials": [
    {
      "name": "default",
      "pbrMetallicRoughness": {
        "baseColorFactor": [
          0.8,
          0.8,
          0.8,
          1.0
        ],
        "metallicFactor": 0.0,
        "roughnessFactor": 0.8
      }
    }
  ],
  "meshes": [
    {
      "name": "hair_59_1",
      "primitives": [
        {
          "attributes": {
            "NORMAL": 1,
            "POSITION": 0,
            "TEXCOORD_0": 2
          },
          "indices": 3,
          "material": 0,
          "mode": 4
        }
      ]
    }
  ],
  "nodes": [
    {
      "children": [
        1,
        2
      ]
    },
    {
      "mesh": 0,
      "name": "hair_59_1",
      "skin": 0
    },
    {
      "children": [
        3
      ],
      "name": "Bip01",
      "rotation": [
        0.0,
        0.0,
        0.0,
        0.9999999403953552
      ],
      "scale": [
        0.9999997019767761,
        -1.3359980981751673e-13,
        0.0
      ],
      "translation": [
        0.0,
        -3.725290298461914e-09,
        0.0
      ]
    },
    {
      "children": [
        4,
        9,
        14
      ],
      "name": "Bip01 Pelvis",
      "rotation": [
        -0.4999993145465851,
        -0.5,
        -0.5,
        0.5000006556510925
      ],
      "scale": [
        1.0,
        5.1399245505243465e-20,
        8.265705963650741e-14
      ],
      "translation": [
        -1.4509729146957397,
        0.0,
        0.0
      ]
    },
    {
      "children": [
        5
      ],
      "name": "Bip01 R Thigh",
      "rotation": [
        -0.04179610311985016,
        0.9790621399879456,
        -0.18982774019241333,
        0.060463797301054
      ],
      "scale": [
        1.0,
        1.5440169143232652e-09,
        -1.3925354203081497e-09
      ],
      "translation": [
        1.52587890625e-05,
        -1.0311603546142578e-05,
        -10.699399948120117
      ]
    },
    {
      "children": [
        6
      ],
      "name": "Bip01 R Calf",
      "rotation": [
        4.192880265208032e-09,
        3.724807573490807e-09,
        -0.0005179690779186785,
        0.9999998807907104
      ],
      "scale": [
        0.9999999403953552,
        -5.711425998811137e-09,
        -7.447203742572128e-09
      ],
      "translation": [
        47.206119537353516,
        -9.5367431640625e-07,
        0.0
      ]
    },
    {
      "children": [
        7
      ],
      "name": "Bip01 R Foot",
      "rotation": [
        0.009553421288728714,
        0.06756113469600677,
        0.028910383582115173,
        0.9972504377365112
      ],
      "scale": [
        0.9999999403953552,
        -5.614305820245136e-08,
        -8.805144169343748e-09
      ],
      "translation": [
        44.07230758666992,
        7.152557373046875e-07,
        3.814697265625e-06
      ]
    },
    {
      "children": [
        8
      ],
      "name": "Bip01 R Toe0",
      "rotation": [
        1.508371738623282e-08,
        1.5911686190861474e-08,
        0.7057640552520752,
        0.7084468007087708
      ],
      "scale": [
        1.000000238418579,
        4.79055461966027e-10,
        -2.495677264846563e-08
      ],
      "translation": [
        13.616192817687988,
        14.995314598083496,
        -1.9073486328125e-06
      ]
    },
    {
      "name": "Bip01 R Toe0Nub",
      "rotation": [
        1.6370904631912708e-11,
        -8.08597633294994e-12,
        3.036637543584131e-20,
        1.0
      ],
      "scale": [
        0.9999999403953552,
        3.4557538040934114e-19,
        3.783469537665951e-09
      ],
      "translation": [
        11.541619300842285,
        1.4901161193847656e-08,
        0.0
      ]
    },
    {
      "children": [
        10
      ],
      "name": "Bip01 L Thigh",
      "rotation": [
        -0.04179628565907478,
        0.9790624976158142,
        0.18982629477977753,
        -0.06046249344944954
      ],
      "scale": [
        1.0,
        1.8411996371980877e-09,
        2.0201927242169404e-08
      ],
      "translation": [
        -1.52587890625e-05,
        1.9371509552001953e-05,
        10.69940185546875
      ]
    },
    {
      "children": [
        11
      ],
      "name": "Bip01 L Calf",
      "rotation": [
        -1.2107189917287542e-08,
        7.454437955800586e-09,
        -0.0005179680301807821,
        0.9999998807907104
      ],
      "scale": [
        1.000000238418579,
        -1.4155274175031707e-11,
        -4.827760587133856e-12
      ],
      "translation": [
        47.20613479614258,
        2.384185791015625e-07,
        0.0
      ]
    },
    {
      "children": [
        12
      ],
      "name": "Bip01 L Foot",
      "rotation": [
        -0.009553435258567333,
        -0.06756112724542618,
        0.02891038917005062,
        0.9972504377365112
      ],
      "scale": [
        1.0000001192092896,
        -6.369448612986162e-08,
        -1.071599164959025e-08
      ],
      "translation": [
        44.07231903076172,
        1.6689300537109375e-06,
        0.0
      ]
    },
    {
      "children": [
        13
      ],
      "name": "Bip01 L Toe0",
      "rotation": [
        -9.808895917728933e-09,
        -2.117682207369853e-08,
        0.7057642340660095,
        0.7084468603134155
      ],
      "scale": [
        1.000000238418579,
        4.72349714897291e-10,
        1.006024685779039e-08
      ],
      "translation": [
        13.616192817687988,
        14.995314598083496,
        0.0
      ]
    },
    {
      "name": "Bip01 L Toe0Nub",
      "rotation": [
        1.2732926692182733e-11,
        8.363087999896379e-12,
        1.1641532182693481e-10,
        1.0
      ],
      "scale": [
        0.9999999403953552,
        -2.3283062977608182e-10,
        3.7748435488538234e-09
      ],
      "translation": [
        11.541621208190918,
        0.0,
        1.9073486328125e-06
      ]
    },
    {
      "children": [
        15,
        18,
        21,
        24,
        27
      ],
      "name": "Bip01 Spine",
      "rotation": [
        -2.0804759515158366e-06,
        -6.936760428288835e-07,
        0.0003981590270996094,
        0.9999999403953552
      ],
      "scale": [
        1.0,
        -6.39742148145217e-11,
        1.156542089609516e-14
      ],
      "translation": [
        2.840728759765625,
        -0.718707799911499,
        5.904585123062134e-06
      ]
    },
    {
      "children": [
        16
      ],
      "name": "Bone11",
      "rotation": [
        2.887571959320212e-08,
        -7.171537959038687e-07,
        0.9923978447914124,
        -0.12307097762823105
      ],
      "scale": [
        1.0000009536743164,
        9.893632579860423e-10,
        3.465493002155831e-15
      ],
      "translation": [
        13.543373107910156,
        -9.46330738067627,
        -0.05017853528261185
      ]
    },
    {
      "children": [
        17
      ],
      "name": "Bone12",
      "rotation": [
        1.0100170300120226e-07,
        5.347721554471718e-08,
        0.0030555345583707094,
        0.9999953508377075
      ],
      "scale": [
        1.0,
        2.628186834829904e-10,
        -2.1175013917859933e-14
      ],
      "translation": [
        23.542457580566406,
        0.0,
        7.275957614183426e-12
      ]
    },
    {
      "name": "Bone13",
      "rotation": [
        4.884981308350689e-15,
        -1.7763568394002505e-15,
        7.450580596923828e-09,
        1.0
      ],
      "scale": [
        1.0,
        5.679798517591285e-29,
        3.552713678800501e-15
      ],
      "translation": [
        27.98424530029297,
        0.0,
        -3.637978807091713e-12
      ]
    },
    {
      "children": [
        19
      ],
      "name": "Bone09",
      "rotation": [
        -6.426876097975764e-08,
        1.6766820465363708e-07,
        0.9976951479911804,
        0.06785586476325989
      ],
      "scale": [
        1.0000008344650269,
        -2.7537931934773496e-09,
        -1.0588963855599244e-14
      ],
      "translation": [
        10.042915344238281,
        13.947978973388672,
        -0.0500946082174778
      ]
    },
    {
      "children": [
        20
      ],
      "name": "Bone10",
      "rotation": [
        1.0151204014744244e-13,
        -1.443336349418213e-14,
        -0.003593200584873557,
        0.9999935626983643
      ],
      "scale": [
        0.9999998807907104,
        -7.461836704081293e-11,
        -2.1031604463626202e-14
      ],
      "translation": [
        28.003341674804688,
        5.7220458984375e-06,
        3.587983883335255e-07
      ]
    },
    {
      "name": "Bone10-1",
      "rotation": [
        1.3322676295501878e-15,
        -1.4210854715202004e-14,
        1.467281283711082e-28,
        1.0
      ],
      "scale": [
        1.0,
        -3.9758589623138995e-28,
        2.1316282072803006e-14
      ],
      "translation": [
        26.25847625732422,
        -1.9073486328125e-06,
        3.445570655458141e-07
      ]
    },
    {
      "children": [
        22
      ],
      "name": "Bone14",
      "rotation": [
        0.08666560053825378,
        0.7017759680747986,
        0.7017751932144165,
        -0.08666658401489258
      ],
      "scale": [
        0.8054582476615906,
        1.3680931054693701e-08,
        5.88588761063491e-11
      ],
      "translation": [
        13.395828247070313,
        1.2645530700683594,
        14.345704078674316
      ]
    },
    {
      "children": [
        23
      ],
      "name": "Bone15",
      "rotation": [
        -1.817544920991454e-12,
        -7.247583880699154e-14,
        0.039844024926424026,
        0.9992058873176575
      ],
      "scale": [
        1.2162787914276123,
        -1.485384881760865e-08,
        -4.371348068783567e-20
      ],
      "translation": [
        23.612503051757813,
        0.0,
        4.0605664253234863e-07
      ]
    },
    {
      "name": "Bone16",
      "rotation": [
        -2.7124227343355845e-12,
        1.0849687467895386e-11,
        0.0,
        1.0
      ],
      "scale": [
        0.4486870765686035,
        -1.4901161193847656e-08,
        2.428814614707786e-11
      ],
      "translation": [
        25.08246612548828,
        0.0,
        2.5331974029541016e-06
      ]
    },
    {
      "children": [
        25
      ],
      "name": "Bone17",
      "rotation": [
        -0.08664769679307938,
        -0.7017776370048523,
        0.7017779350280762,
        -0.08664765954017639
      ],
      "scale": [
        0.805458664894104,
        1.1919430775719775e-08,
        -1.5652348937366528e-13
      ],
      "translation": [
        13.395820617675781,
        1.2645920515060425,
        -14.413758277893066
      ]
    },
    {
      "children": [
        26
      ],
      "name": "Bone18",
      "rotation": [
        1.5970674382970174e-07,
        6.30621199704251e-09,
        0.03984777629375458,
        0.9992057681083679
      ],
      "scale": [
        1.2162786722183228,
        4.0126253582261555e-17,
        -1.8175901062011945e-10
      ],
      "translation": [
        23.612510681152344,
        0.0,
        4.0605664253234863e-07
      ]
    },
    {
      "name": "Bone19",
      "rotation": [
        4.4391458597399444e-20,
        3.2549064138409634e-11,
        4.151322841039473e-09,
        1.0
      ],
      "scale": [
        0.4486871063709259,
        -3.725290742551124e-09,
        4.37606062497764e-11
      ],
      "translation": [
        25.082473754882813,
        -7.62939453125e-06,
        2.5331974029541016e-06
      ]
    },
    {
      "children": [
        28
      ],
      "name": "Bip01 Spine1",
      "rotation": [
        -8.440914389977114e-14,
        7.659846090746214e-08,
        -0.02761697955429554,
        0.9996185898780823
      ],
      "scale": [
        1.0,
        4.2866352134574015e-10,
        -3.3028535706788225e-15
      ],
      "translation": [
        15.780479431152344,
        -0.012591838836669922,
        -3.725290298461914e-08
      ]
    },
    {
      "children": [
        29
      ],
      "name": "Bip01 Spine2",
      "rotation": [
        -2.321598893218011e-14,
        2.855336163065658e-07,
        -0.10294691473245621,
        0.9946868419647217
      ],
      "scale": [
        1.0,
        1.4585348040441204e-08,
        1.1065720585126063e-14
      ],
      "translation": [
        15.835281372070313,
        -0.01347494125366211,
        -3.725290298461914e-08
      ]
    },
    {
      "children": [
        30,
        52,
        82
      ],
      "name": "Bip01 Neck",
      "rotation": [
        2.937680345293722e-14,
        -7.014888296907884e-07,
        0.2529163062572479,
        0.967488169670105
      ],
      "scale": [
        1.0,
        -2.9170221793606288e-08,
        -4.771287125159354e-14
      ],
      "translation": [
        18.43548583984375,
        -0.008853912353515625,
        -2.2351741790771484e-08
      ]
    },
    {
      "children": [
        31,
        33,
        37
      ],
      "name": "Bip01 R Clavicle",
      "rotation": [
        -0.4834083020687103,
        0.19029393792152405,
        0.8352445960044861,
        0.18019741773605347
      ],
      "scale": [
        1.0,
        7.118758915680701e-09,
        4.870255310152061e-09
      ],
      "translation": [
        -1.18988037109375,
        -0.19192123413085938,
        -4.6038665771484375
      ]
    },
    {
      "children": [
        32
      ],
      "name": "sh_bone03",
      "rotation": [
        -0.7829573154449463,
        0.1835324615240097,
        0.13405577838420868,
        0.5790705680847168
      ],
      "scale": [
        1.0000004768371582,
        -2.5560735750218555e-08,
        1.0657227322852236e-09
      ],
      "translation": [
        4.008125305175781,
        -1.2899589538574219,
        -3.587188720703125
      ]
    },
    {
      "name": "sh_bone04",
      "rotation": [
        7.105427357601002e-15,
        -6.7723608737299285e-15,
        1.7749372774885196e-28,
        1.0
      ],
      "scale": [
        0.9999999403953552,
        4.5122843778641875e-28,
        4.9960036108132044e-14
      ],
      "translation": [
        31.18185806274414,
        0.0,
        4.76837158203125e-07
      ]
    },
    {
      "children": [
        34
      ],
      "name": "Bone05",
      "rotation": [
        -0.16402961313724518,
        -0.4725876748561859,
        0.1254570484161377,
        0.8567472100257874
      ],
      "scale": [
        0.9009684920310974,
        6.834611809836133e-08,
        2.223538508872025e-08
      ],
      "translation": [
        5.758644104003906,
        8.408039093017578,
        -7.7870635986328125
      ]
    },
    {
      "children": [
        35
      ],
      "name": "Bone06",
      "rotation": [
        3.9382749150718155e-07,
        -9.245547438752055e-09,
        -0.021625928580760956,
        0.9997661113739014
      ],
      "scale": [
        1.1942291259765625,
        1.1448153207954301e-15,
        -1.7352073111709387e-09
      ],
      "translation": [
        39.82002258300781,
        -1.52587890625e-05,
        3.814697265625e-06
      ]
    },
    {
      "children": [
        36
      ],
      "name": "Bone07",
      "rotation": [
        1.7461972146026739e-10,
        1.8629660036850737e-09,
        -0.0061086141504347324,
        0.9999813437461853
      ],
      "scale": [
        1.0,
        -7.28189952781122e-10,
        2.7058149557751543e-12
      ],
      "translation": [
        30.00074005126953,
        6.866455078125e-05,
        1.9073486328125e-06
      ]
    },
    {
      "name": "Bone08",
      "rotation": [
        2.3283064365386963e-10,
        -9.313225746154785e-10,
        1.862645149230957e-09,
        1.0
      ],
      "scale": [
        1.0,
        3.725290298461914e-09,
        -1.862645149230957e-09
      ],
      "translation": [
        29.23509979248047,
        -5.7220458984375e-06,
        3.814697265625e-06
      ]
    },
    {
      "children": [
        38
      ],
      "name": "Bip01 R UpperArm",
      "rotation": [
        -0.07118095457553864,
        -0.23287542164325714,
        0.025725040584802628,
        0.9695568680763245
      ],
      "scale": [
        1.0,
        1.582411712774956e-08,
        3.000686987775225e-08
      ],
      "translation": [
        19.847068786621094,
        0.0,
        -1.52587890625e-05
      ]
    },
    {
      "children": [
        39
      ],
      "name": "Bip01 R ForeArm",
      "rotation": [
        5.6070720982903666e-12,
        2.235453955279354e-08,
        -0.0007525666151195765,
        0.9999997019767761
      ],
      "scale": [
        1.0,
        3.7252865237036303e-09,
        -1.4895572775230903e-08
      ],
      "translation": [
        27.864288330078125,
        -9.5367431640625e-07,
        -7.62939453125e-06
      ]
    },
    {
      "children": [
        40,
        44,
        48
      ],
      "name": "Bip01 R Hand",
      "rotation": [
        0.6610820293426514,
        0.049675352871418,
        0.038034990429878235,
        0.7477006316184998
      ],
      "scale": [
        0.9999999403953552,
        3.478810484125461e-08,
        -4.591268254472425e-09
      ],
      "translation": [
        25.690662384033203,
        0.0,
        0.0
      ]
    },
    {
      "children": [
        41
      ],
      "name": "Bip01 R Finger2",
      "rotation": [
        -0.028132770210504532,
        -0.005823914892971516,
        0.2920496463775635,
        0.9559715390205383
      ],
      "scale": [
        1.0,
        5.176795880856844e-09,
        1.1402381261405026e-08
      ],
      "translation": [
        11.659988403320313,
        -0.431396484375,
        -1.1205439567565918
      ]
    },
    {
      "children": [
        42
      ],
      "name": "Bip01 R Finger21",
      "rotation": [
        2.3161669804316887e-10,
        1.876678368262219e-09,
        0.10198190063238144,
        0.994786262512207
      ],
      "scale": [
        1.0,
        -2.497404061330144e-09,
        -3.874411902415886e-11
      ],
      "translation": [
        4.448204040527344,
        3.814697265625e-06,
        9.5367431640625e-07
      ]
    },
    {
      "children": [
        43
      ],
      "name": "Bip01 R Finger22",
      "rotation": [
        0.0,
        1.8551490343909904e-09,
        0.0896250382065773,
        0.9959755539894104
      ],
      "scale": [
        1.0,
        -4.020630051115859e-09,
        -2.9923841182721844e-11
      ],
      "translation": [
        3.6346359252929688,
        0.0,
        -9.5367431640625e-07
      ]
    },
    {
      "name": "Bip01 R Finger2Nub",
      "rotation": [
        -1.3877787807814457e-17,
        1.8626450382086546e-09,
        7.4505797087454084e-09,
        1.0
      ],
      "scale": [
        1.0000001192092896,
        -1.4901162970204496e-08,
        -2.498001805406602e-16
      ],
      "translation": [
        3.87054443359375,
        -3.814697265625e-06,
        0.0
      ]
    },
    {
      "children": [
        45
      ],
      "name": "Bip01 R Finger1",
      "rotation": [
        -0.07368870079517365,
        -0.03421925753355026,
        0.29757359623908997,
        0.9512354731559753
      ],
      "scale": [
        0.9999999403953552,
        -1.2231342338964168e-07,
        -1.5051156765366613e-08
      ],
      "translation": [
        11.491893768310547,
        -0.25464630126953125,
        4.704718112945557
      ]
    },
    {
      "children": [
        46
      ],
      "name": "Bip01 R Finger11",
      "rotation": [
        -2.8965621012844167e-09,
        6.560927356957791e-10,
        0.0949033722281456,
        0.9954864978790283
      ],
      "scale": [
        1.0000001192092896,
        -3.3704417035096412e-09,
        -3.731885911406607e-09
      ],
      "translation": [
        4.719993591308594,
        -3.814697265625e-06,
        -9.5367431640625e-07
      ]
    },
    {
      "children": [
        47
      ],
      "name": "Bip01 R Finger12",
      "rotation": [
        -5.419185655775038e-10,
        -3.1422677793102594e-09,
        0.08288811892271042,
        0.9965588450431824
      ],
      "scale": [
        1.0000001192092896,
        4.997657399030686e-09,
        6.865442436776448e-09
      ],
      "translation": [
        3.115997314453125,
        0.0,
        9.5367431640625e-07
      ]
    },
    {
      "name": "Bip01 R Finger1Nub",
      "rotation": [
        -1.1641532182693481e-09,
        -1.862645149230957e-09,
        -3.469447779134227e-18,
        1.0
      ],
      "scale": [
        0.9999999403953552,
        -8.271804153378014e-25,
        3.725290076417309e-09
      ],
      "translation": [
        3.9604110717773438,
        0.0,
        0.0
      ]
    },
    {
      "children": [
        49
      ],
      "name": "Bip01 R Finger0",
      "rotation": [
        -0.6359974145889282,
        -0.3162306547164917,
        -0.06964925676584244,
        0.7004672884941101
      ],
      "scale": [
        1.0,
        -3.218080379951971e-08,
        -4.425968569421457e-08
      ],
      "translation": [
        0.6864433288574219,
        2.5254974365234375,
        2.747166156768799
      ]
    },
    {
      "children": [
        50
      ],
      "name": "Bip01 R Finger01",
      "rotation": [
        -4.022627564381764e-09,
        -7.281983460671881e-09,
        0.2805599272251129,
        0.959836483001709
      ],
      "scale": [
        1.0000001192092896,
        -6.834036270220167e-08,
        3.1793079280362235e-09
      ],
      "translation": [
        5.109413146972656,
        3.814697265625e-06,
        -7.62939453125e-06
      ]
    },
    {
      "children": [
        51
      ],
      "name": "Bip01 R Finger02",
      "rotation": [
        -1.3909120522015428e-09,
        -4.336851364139527e-11,
        0.09313317388296127,
        0.9956536889076233
      ],
      "scale": [
        1.0,
        6.434323656417232e-19,
        1.727200604761947e-10
      ],
      "translation": [
        3.5312347412109375,
        2.384185791015625e-07,
        0.0
      ]
    },
    {
      "name": "Bip01 R Finger0Nub",
      "rotation": [
        9.313225746154785e-10,
        3.725290298461914e-09,
        -6.938894731087841e-18,
        1.0
      ],
      "scale": [
        1.0,
        0.0,
        -7.450580596923828e-09
      ],
      "translation": [
        5.245460510253906,
        1.9073486328125e-06,
        0.0
      ]
    },
    {
      "children": [
        53,
        55,
        59
      ],
      "name": "Bip01 L Clavicle",
      "rotation": [
        0.4834088087081909,
        -0.1902962625026703,
        0.8352440595626831,
        0.18019607663154602
      ],
      "scale": [
        1.0000001192092896,
        -6.5523479975126975e-09,
        1.5777928297211474e-08
      ],
      "translation": [
        -1.18988037109375,
        -0.19194793701171875,
        4.6038665771484375
      ]
    },
    {
      "children": [
        54
      ],
      "name": "sh_bone01",
      "rotation": [
        0.7829580307006836,
        -0.18353267014026642,
        0.13405285775661469,
        0.5790703296661377
      ],
      "scale": [
        1.0000007152557373,
        -3.912407109396554e-08,
        -1.2846223640394783e-08
      ],
      "translation": [
        4.008110046386719,
        -1.2900161743164063,
        3.5870819091796875
      ]
    },
    {
      "name": "sh_bone02",
      "rotation": [
        2.220446049250313e-15,
        5.551115123125783e-16,
        2.465190328815662e-30,
        1.0
      ],
      "scale": [
        1.0,
        1.5777218104420236e-30,
        2.886579864025407e-15
      ],
      "translation": [
        31.181861877441406,
        0.0,
        0.0
      ]
    },
    {
      "children": [
        56
      ],
      "name": "Bone01",
      "rotation": [
        0.16403114795684814,
        0.4725884795188904,
        0.12545494735240936,
        0.8567467331886292
      ],
      "scale": [
        0.9009681940078735,
        6.423370724206734e-09,
        -1.4693745775673506e-08
      ],
      "translation": [
        5.87957763671875,
        8.38813591003418,
        7.8505706787109375
      ]
    },
    {
      "children": [
        57
      ],
      "name": "Bone02",
      "rotation": [
        -2.730407844264704e-10,
        5.225113419195238e-13,
        -0.02162294089794159,
        0.9997662305831909
      ],
      "scale": [
        1.1942291259765625,
        -2.2895081386309357e-09,
        3.7124368024166188e-09
      ],
      "translation": [
        39.82002258300781,
        0.0,
        0.0
      ]
    },
    {
      "children": [
        58
      ],
      "name": "Bone03",
      "rotation": [
        1.2210224498154787e-10,
        9.320163529835668e-10,
        -0.0061086127534508705,
        0.9999813437461853
      ],
      "scale": [
        0.9999998807907104,
        3.521948954698928e-09,
        -1.85980042477496e-09
      ],
      "translation": [
        30.000747680664063,
        6.4849853515625e-05,
        1.9073486328125e-06
      ]
    },
    {
      "name": "Bone04",
      "rotation": [
        -3.469448192724533e-18,
        9.31322685637781e-10,
        1.862645371275562e-09,
        1.0
      ],
      "scale": [
        0.9999998807907104,
        -3.7252898543727042e-09,
        -1.8626450382086546e-09
      ],
      "translation": [
        29.23509979248047,
        -5.7220458984375e-06,
        1.9073486328125e-06
      ]
    },
    {
      "children": [
        60
      ],
      "name": "Bip01 L UpperArm",
      "rotation": [
        0.07826428860425949,
        0.24452172219753265,
        0.060846444219350815,
        0.9645628929138184
      ],
      "scale": [
        1.0000001192092896,
        8.04240762874997e-09,
        -8.280752972211758e-09
      ],
      "translation": [
        19.847068786621094,
        0.0,
        0.0
      ]
    },
    {
      "children": [
        61
      ],
      "name": "Bip01 L ForeArm",
      "rotation": [
        4.989350599338138e-10,
        1.514227321308681e-08,
        -0.03348296880722046,
        0.9994392991065979
      ],
      "scale": [
        1.0,
        4.515197534402918e-16,
        -2.9303667048452553e-08
      ],
      "translation": [
        27.864295959472656,
        0.0,
        -7.62939453125e-06
      ]
    },
    {
      "children": [
        62,
        66,
        70,
        74,
        78
      ],
      "name": "Bip01 L Hand",
      "rotation": [
        -0.7916519641876221,
        0.005645343568176031,
        0.026196429505944252,
        0.6103843450546265
      ],
      "scale": [
        1.0,
        -2.4153012923022743e-09,
        1.529113902165591e-08
      ],
      "translation": [
        26.83318328857422,
        9.5367431640625e-07,
        0.0
      ]
    },
    {
      "children": [
        63
      ],
      "name": "Bone24",
      "rotation": [
        0.9594858288764954,
        0.23988224565982819,
        0.14512695372104645,
        0.027956534177064896
      ],
      "scale": [
        0.2124832570552826,
        1.4549296878385576e-08,
        4.364212990992655e-09
      ],
      "translation": [
        13.973506927490234,
        0.0212860107421875,
        5.0472869873046875
      ]
    },
    {
      "children": [
        64
      ],
      "name": "Bone25",
      "rotation": [
        1.5430493931489764e-06,
        -2.2591221693346597e-07,
        -0.1710735708475113,
        0.9852582216262817
      ],
      "scale": [
        0.8113709688186646,
        4.434851419432562e-08,
        9.428088532104084e-09
      ],
      "translation": [
        24.451416015625,
        -1.52587890625e-05,
        -3.814697265625e-06
      ]
    },
    {
      "children": [
        65
      ],
      "name": "Bone26",
      "rotation": [
        -1.437853303087877e-08,
        1.1656733356346649e-08,
        -0.05949489027261734,
        0.9982286095619202
      ],
      "scale": [
        1.3532016277313232,
        1.5431783850772263e-08,
        -1.9252029304084317e-08
      ],
      "translation": [
        23.85125732421875,
        0.0,
        -3.814697265625e-06
      ]
    },
    {
      "name": "Bone27",
      "rotation": [
        5.859038587630039e-09,
        -8.152987618359475e-09,
        5.992135676535781e-09,
        1.0
      ],
      "scale": [
        0.7159862518310547,
        -8.58057358499309e-09,
        -9.812207935055994e-09
      ],
      "translation": [
        24.52044677734375,
        1.52587890625e-05,
        0.0
      ]
    },
    {
      "children": [
        67
      ],
      "name": "Bone20",
      "rotation": [
        0.9581796526908875,
        0.25360816717147827,
        0.12814176082611084,
        0.03397557511925697
      ],
      "scale": [
        0.2289295494556427,
        -1.2251320846701219e-08,
        7.661467904540586e-09
      ],
      "translation": [
        14.627593994140625,
        0.3095855712890625,
        1.1888961791992188
      ]
    },
    {
      "children": [
        68
      ],
      "name": "Bone21",
      "rotation": [
        1.541405822536035e-06,
        -1.5626838489879447e-07,
        -0.12655439972877502,
        0.9919596910476685
      ],
      "scale": [
        0.8113709688186646,
        -2.5600064290642877e-08,
        -1.8595044948277462e-10
      ],
      "translation": [
        24.451416015625,
        0.0,
        -3.814697265625e-06
      ]
    },
    {
      "children": [
        69
      ],
      "name": "Bone22",
      "rotation": [
        -1.409736771762482e-09,
        3.689437644283089e-09,
        -0.06595505028963089,
        0.9978225827217102
      ],
      "scale": [
        1.3532016277313232,
        -1.5690670096546455e-08,
        1.2505692481568076e-08
      ],
      "translation": [
        23.8511962890625,
        0.0,
        0.0
      ]
    },
    {
      "name": "Bone23",
      "rotation": [
        1.2206333166453476e-10,
        4.0764913666890834e-10,
        -1.7976407917785764e-08,
        1.0
      ],
      "scale": [
        0.7159861326217651,
        -4.060598968180784e-09,
        -5.935515634547528e-09
      ],
      "translation": [
        24.52044677734375,
        0.0,
        0.0
      ]
    },
    {
      "children": [
        71
      ],
      "name": "Bip01 L Finger2",
      "rotation": [
        -0.046775829046964645,
        -0.09146642684936523,
        0.2815311849117279,
        0.9540367126464844
      ],
      "scale": [
        0.9999999403953552,
        -6.49550955245104e-08,
        -1.3509870555594716e-08
      ],
      "translation": [
        14.496322631835938,
        -0.7662353515625,
        -2.584461212158203
      ]
    },
    {
      "children": [
        72
      ],
      "name": "Bip01 L Finger21",
      "rotation": [
        -1.6137517988568106e-08,
        4.405950715380413e-09,
        0.14005015790462494,
        0.9901444315910339
      ],
      "scale": [
        1.0,
        2.960528116721753e-16,
        5.794598134656326e-09
      ],
      "translation": [
        6.126617431640625,
        -3.814697265625e-06,
        0.0
      ]
    },
    {
      "children": [
        73
      ],
      "name": "Bip01 L Finger22",
      "rotation": [
        5.562810212467184e-09,
        6.192363843915416e-10,
        0.0947219580411911,
        0.9955037832260132
      ],
      "scale": [
        1.0000001192092896,
        -4.72941046325559e-08,
        -3.5462255354445915e-09
      ],
      "translation": [
        6.1266021728515625,
        -1.9073486328125e-06,
        -3.814697265625e-06
      ]
    },
    {
      "name": "Bip01 L Finger2Nub",
      "rotation": [
        -6.0535962909114005e-09,
        -9.313225746154785e-10,
        7.4505797087454084e-09,
        1.0
      ],
      "scale": [
        1.0000001192092896,
        1.4901162970204496e-08,
        9.313225746154785e-09
      ],
      "translation": [
        6.55322265625,
        0.0,
        1.9073486328125e-06
      ]
    },
    {
      "children": [
        75
      ],
      "name": "Bip01 L Finger1",
      "rotation": [
        -0.00252540223300457,
        0.0103805772960186,
        0.2603495419025421,
        0.9654552936553955
      ],
      "scale": [
        0.9999999403953552,
        -6.734294011323527e-09,
        -2.4797389031050443e-08
      ],
      "translation": [
        15.204154968261719,
        0.3554534912109375,
        -5.880039215087891
      ]
    },
    {
      "children": [
        76
      ],
      "name": "Bip01 L Finger11",
      "rotation": [
        2.419503659922828e-11,
        1.4280553628509551e-08,
        0.1432468742132187,
        0.9896869659423828
      ],
      "scale": [
        1.0,
        2.8579254518490416e-08,
        -4.624618199500219e-08
      ],
      "translation": [
        5.4831085205078125,
        3.814697265625e-06,
        0.0
      ]
    },
    {
      "children": [
        77
      ],
      "name": "Bip01 L Finger12",
      "rotation": [
        4.848708989868555e-09,
        -7.594718631764863e-09,
        0.09576985985040665,
        0.995403528213501
      ],
      "scale": [
        1.0,
        1.1364180707573723e-08,
        -1.6048341322516535e-08
      ],
      "translation": [
        5.053825378417969,
        -3.814697265625e-06,
        0.0
      ]
    },
    {
      "name": "Bip01 L Finger1Nub",
      "rotation": [
        -1.30385160446167e-08,
        0.0,
        -9.71445146547012e-17,
        1.0
      ],
      "scale": [
        1.0,
        -5.551115123125783e-17,
        1.4901161193847656e-08
      ],
      "translation": [
        6.538978576660156,
        0.0,
        0.0
      ]
    },
    {
      "children": [
        79
      ],
      "name": "Bip01 L Finger0",
      "rotation": [
        0.6419492959976196,
        0.36710938811302185,
        -0.010143228806555271,
        0.6730742454528809
      ],
      "scale": [
        1.0,
        -1.539798404337489e-07,
        -4.864381253355532e-08
      ],
      "translation": [
        2.7255325317382813,
        1.5828857421875,
        -4.528720855712891
      ]
    },
    {
      "children": [
        80
      ],
      "name": "Bip01 L Finger01",
      "rotation": [
        3.2692646367848965e-09,
        1.4123232583429512e-09,
        0.22189922630786896,
        0.9750695824623108
      ],
      "scale": [
        1.0000001192092896,
        -1.074454303306993e-09,
        -1.7323120715673213e-08
      ],
      "translation": [
        9.032466888427734,
        7.62939453125e-06,
        3.814697265625e-06
      ]
    },
    {
      "children": [
        81
      ],
      "name": "Bip01 L Finger02",
      "rotation": [
        6.4918466158303545e-09,
        6.213337622185122e-10,
        0.2522697448730469,
        0.9676569700241089
      ],
      "scale": [
        1.0000001192092896,
        -2.291791290076617e-08,
        1.6523734602813533e-09
      ],
      "translation": [
        5.888343811035156,
        0.0,
        0.0
      ]
    },
    {
      "name": "Bip01 L Finger0Nub",
      "rotation": [
        3.841705620288849e-09,
        -9.313225746154785e-10,
        -3.725290298461914e-09,
        1.0
      ],
      "scale": [
        0.9999999403953552,
        7.450580152834618e-09,
        2.7939677238464355e-09
      ],
      "translation": [
        6.949531555175781,
        0.0,
        3.814697265625e-06
      ]
    },
    {
      "children": [
        83,
        89
      ],
      "name": "Bip01 Head",
      "rotation": [
        9.263351533322223e-14,
        -8.242790983103987e-08,
        0.02971806190907955,
        0.9995583295822144
      ],
      "scale": [
        1.0000001192092896,
        1.0623312007851382e-08,
        3.242065361834523e-14
      ],
      "translation": [
        11.440719604492188,
        0.0,
        -3.725290298461914e-09
      ]
    },
    {
      "children": [
        84
      ],
      "name": "Bip01 Ponytail1",
      "rotation": [
        1.9211455343226547e-12,
        -2.7697305995388888e-06,
        0.9986048936843872,
        0.05280376225709915
      ],
      "scale": [
        0.9999999403953552,
        -7.41065075970937e-09,
        4.2824850789028104e-14
      ],
      "translation": [
        9.20233154296875,
        -10.642345428466797,
        -2.568960189819336e-05
      ]
    },
    {
      "children": [
        85
      ],
      "name": "Bip01 Ponytail11",
      "rotation": [
        -9.360602435315099e-14,
        -4.491429308473016e-07,
        0.1619349718093872,
        0.9868014454841614
      ],
      "scale": [
        1.0,
        -1.2894392042821223e-13,
        -1.437606679749806e-13
      ],
      "translation": [
        13.133529663085938,
        -0.009548187255859375,
        -2.60770320892334e-08
      ]
    },
    {
      "children": [
        86
      ],
      "name": "Bip01 Ponytail12",
      "rotation": [
        7.198701778719698e-15,
        4.4504281504487153e-07,
        -0.16045671701431274,
        0.9870429039001465
      ],
      "scale": [
        1.0000001192092896,
        9.387757238243921e-09,
        -4.3147671985885663e-14
      ],
      "translation": [
        12.64813232421875,
        -0.01031494140625,
        -3.3527612686157227e-08
      ]
    },
    {
      "children": [
        87
      ],
      "name": "Bip01 Ponytail13",
      "rotation": [
        -5.345040477388284e-15,
        2.1424627050237177e-07,
        -0.0772448405623436,
        0.9970121383666992
      ],
      "scale": [
        1.0000001192092896,
        -1.2819016959042528e-08,
        6.077535935448963e-14
      ],
      "translation": [
        13.685073852539063,
        -0.01076507568359375,
        -2.60770320892334e-08
      ]
    },
    {
      "children": [
        88
      ],
      "name": "Bip01 Ponytail14",
      "rotation": [
        -2.2832584889616314e-13,
        6.566769172877684e-08,
        -0.02367597445845604,
        0.9997196793556213
      ],
      "scale": [
        1.0,
        8.341737078865208e-09,
        2.9932826372701046e-14
      ],
      "translation": [
        13.686241149902344,
        -0.01088714599609375,
        -3.3527612686157227e-08
      ]
    },
    {
      "name": "Bip01 Ponytail1Nub",
      "rotation": [
        0.7073882222175598,
        0.7068251967430115,
        9.80225195235107e-07,
        -9.810059964365792e-07
      ],
      "scale": [
        1.0,
        2.8028607212959855e-10,
        -8.242163868727934e-14
      ],
      "translation": [
        13.686752319335938,
        0.0,
        -3.725290298461914e-09
      ]
    },
    {
      "name": "Bip01 HeadNub",
      "rotation": [
        -2.1316282072803006e-14,
        -2.1175826205712405e-22,
        7.450580596923828e-09,
        1.0
      ],
      "scale": [
        1.0,
        1.4901161193847656e-08,
        4.235164736271502e-22
      ],
      "translation": [
        22.007568359375,
        3.814697265625e-06,
        0.0
      ]
    }
  ],
  "scene": 0,
  "scenes": [
    {
      "nodes": [
        0
      ]
    }
  ],
  "skins": [
    {
      "inverseBindMatrices": 4,
      "joints": [
        2,
        3,
        4,
        5,
        6,
        7,
        8,
        9,
        10,
        11,
        12,
        13,
        14,
        15,
        16,
        17,
        18,
        19,
        20,
        21,
        22,
        23,
        24,
        25,
        26,
        27,
        28,
        29,
        30,
        31,
        32,
        33,
        34,
        35,
        36,
        37,
        38,
        39,
        40,
        41,
        42,
        43,
        44,
        45,
        46,
        47,
        48,
        49,
        50,
        51,
        52,
        53,
        54,
        55,
        56,
        57,
        58,
        59,
        60,
        61,
        62,
        63,
        64,
        65,
        66,
        67,
        68,
        69,
        70,
        71,
        72,
        73,
        74,
        75,
        76,
        77,
        78,
        79,
        80,
        81,
        82,
        83,
        84,
        85,
        86,
        87,
        88,
        89
      ],
      "skeleton": 2
    }
  ]
}
