{
  "accessors": [
    {
      "bufferView": 0,
      "componentType": 5126,
      "count": 335,
      "max": [
        10.522144317626953,
        15.09875774383545,
        198.93992614746094
      ],
      "min": [
        -10.522144317626953,
        -11.719094276428223,
        163.50697326660156
      ],
      "type": "VEC3"
    },
    {
      "bufferView": 1,
      "componentType": 5126,
      "count": 335,
      "type": "VEC3"
    },
    {
      "bufferView": 2,
      "componentType": 5126,
      "count": 335,
      "type": "VEC2"
    },
    {
      "bufferView": 3,
      "componentType": 5123,
      "count": 1542,
      "type": "SCALAR"
    },
    {
      "bufferView": 4,
      "componentType": 5126,
      "count": 12,
      "type": "MAT4"
    }
  ],
  "asset": {
    "generator": "gr2togltf (ANKA2 Project)",
    "version": "2.0"
  },
  "bufferViews": [
    {
      "buffer": 0,
      "byteLength": 4020,
      "target": 34962
    },
    {
      "buffer": 0,
      "byteLength": 4020,
      "byteOffset": 4020,
      "target": 34962
    },
    {
      "buffer": 0,
      "byteLength": 2680,
      "byteOffset": 8040,
      "target": 34962
    },
    {
      "buffer": 0,
      "byteLength": 3084,
      "byteOffset": 10720,
      "target": 34963
    },
    {
      "buffer": 0,
      "byteLength": 768,
      "byteOffset": 13804
    }
  ],
  "buffers": [
    {
      "byteLength": 14572,
      "uri": "data:application/octet-stream;base64,"
    }
  ],
  "materials": [
    {
      "name": "default",
      "pbrMetallicRoughness": {
        "baseColorFactor": [
          0.8,
          0.8,
          0.8,
          1.0
        ],
        "metallicFactor": 0.0,
        "roughnessFactor": 0.8
      }
    }
  ],
  "meshes": [
    {
      "name": "hair_45_1",
      "primitives": [
        {
          "attributes": {
            "NORMAL": 1,
            "POSITION": 0,
            "TEXCOORD_0": 2
          },
          "indices": 3,
          "material": 0,
          "mode": 4
        }
      ]
    }
  ],
  "nodes": [
    {
      "children": [
        1,
        2
      ]
    },
    {
      "mesh": 0,
      "name": "hair_45_1",
      "skin": 0
    },
    {
      "children": [
        3
      ],
      "name": "Bip01",
      "rotation": [
        0.0,
        0.0,
        0.0,
        0.9999999403953552
      ],
      "scale": [
        0.9999997615814209,
        -5.117093408073606e-14,
        0.0
      ],
      "translation": [
        0.0,
        -3.725290298461914e-09,
        0.0
      ]
    },
    {
      "children": [
        4
      ],
      "name": "Bip01 Pelvis",
      "rotation": [
        -0.4999993145465851,
        -0.5,
        -0.5,
        0.5000006556510925
      ],
      "scale": [
        1.0,
        6.755036055564761e-20,
        -2.6671148450016795e-18
      ],
      "translation": [
        -1.4509639739990234,
        0.0,
        0.0
      ]
    },
    {
      "children": [
        5
      ],
      "name": "Bip01 Spine",
      "rotation": [
        -2.0804759515158366e-06,
        -6.936760428288835e-07,
        0.00039815905620343983,
        0.9999999403953552
      ],
      "scale": [
        1.0,
        4.1697676561591734e-11,
        -1.8561090571423897e-14
      ],
      "translation": [
        2.840728759765625,
        -0.7187075614929199,
        5.934387445449829e-06
      ]
    },
    {
      "children": [
        6
      ],
      "name": "Bip01 Spine1",
      "rotation": [
        -5.5976592447642276e-14,
        7.659870959741966e-08,
        -0.027617070823907852,
        0.9996185898780823
      ],
      "scale": [
        1.0000001192092896,
        4.286526411600988e-10,
        1.7201377380316775e-14
      ],
      "translation": [
        15.780479431152344,
        -0.012591838836669922,
        -3.725290298461914e-08
      ]
    },
    {
      "children": [
        7
      ],
      "name": "Bip01 Spine2",
      "rotation": [
        1.1965163018365366e-13,
        2.855332468243432e-07,
        -0.10294679552316666,
        0.9946868419647217
      ],
      "scale": [
        0.9999999403953552,
        3.339428072176437e-14,
        -5.5284458109518264e-14
      ],
      "translation": [
        15.835281372070313,
        -0.013474464416503906,
        -3.725290298461914e-08
      ]
    },
    {
      "children": [
        8,
        9
      ],
      "name": "Bip01 Neck",
      "rotation": [
        -8.813041713507525e-14,
        -7.014893412815582e-07,
        0.25291651487350464,
        0.9674881100654602
      ],
      "scale": [
        0.9999998807907104,
        -3.553056515670505e-08,
        -1.4638751365605995e-13
      ],
      "translation": [
        18.435455322265625,
        -0.008853912353515625,
        -2.2351741790771484e-08
      ]
    },
    {
      "name": "Bip01 Head",
      "rotation": [
        1.0973850544633915e-13,
        -8.24274195565522e-08,
        0.02971786819398403,
        0.9995583295822144
      ],
      "scale": [
        1.000000238418579,
        -7.105169230747777e-10,
        -4.242175458569336e-14
      ],
      "translation": [
        11.440719604492188,
        0.0,
        -3.725290298461914e-09
      ]
    },
    {
      "children": [
        10
      ],
      "name": "Bip01 R Clavicle",
      "rotation": [
        -0.4834083020687103,
        0.19029390811920166,
        0.8352445363998413,
        0.18019770085811615
      ],
      "scale": [
        1.0000001192092896,
        1.1816322142976787e-08,
        6.474142821843998e-08
      ],
      "translation": [
        -1.18988037109375,
        -0.19192123413085938,
        -4.603867053985596
      ]
    },
    {
      "children": [
        11
      ],
      "name": "Bip01 R UpperArm",
      "rotation": [
        -0.07118096202611923,
        -0.23287495970726013,
        0.025725020095705986,
        0.969556987285614
      ],
      "scale": [
        0.9999999403953552,
        -1.3054362923980989e-08,
        -8.915628235683926e-10
      ],
      "translation": [
        19.847061157226563,
        0.0,
        0.0
      ]
    },
    {
      "children": [
        12
      ],
      "name": "Bip01 R ForeArm",
      "rotation": [
        -5.582328821418514e-09,
        -7.449177275020702e-09,
        -0.0007523263921029866,
        0.9999997019767761
      ],
      "scale": [
        0.9999998807907104,
        -1.1641541897144947e-10,
        -1.490674783610757e-08
      ],
      "translation": [
        27.864303588867188,
        0.0,
        0.0
      ]
    },
    {
      "children": [
        13
      ],
      "name": "Bip01 R Hand",
      "rotation": [
        0.6610820293426514,
        0.049675390124320984,
        0.03803454712033272,
        0.7477006912231445
      ],
      "scale": [
        1.0000001192092896,
        1.8253098588161265e-08,
        3.770594947383188e-09
      ],
      "translation": [
        25.69066619873047,
        -9.5367431640625e-07,
        0.0
      ]
    },
    {
      "name": "equip_right",
      "rotation": [
        5.094334483146667e-07,
        1.73225998878479e-07,
        -2.682208730675484e-07,
        1.0
      ],
      "scale": [
        1.0000001192092896,
        -1.262603709735119e-13,
        7.45087014308865e-09
      ],
      "translation": [
        7.531379699707031,
        2.14093017578125,
        -2.002574920654297
      ]
    }
  ],
  "scene": 0,
  "scenes": [
    {
      "nodes": [
        0
      ]
    }
  ],
  "skins": [
    {
      "inverseBindMatrices": 4,
      "joints": [
        2,
        3,
        4,
        5,
        6,
        7,
        8,
        9,
        10,
        11,
        12,
        13
      ],
      "skeleton": 2
    }
  ]
}
