{
  "accessors": [
    {
      "bufferView": 0,
      "componentType": 5126,
      "count": 819,
      "max": [
        187.83456420898438,
        187.18185424804688,
        189.54522705078125
      ],
      "min": [
        -11.088214874267578,
        -10.399028778076172,
        -9.671285629272461
      ],
      "type": "VEC3"
    },
    {
      "bufferView": 1,
      "componentType": 5126,
      "count": 819,
      "type": "VEC3"
    },
    {
      "bufferView": 2,
      "componentType": 5126,
      "count": 819,
      "type": "VEC2"
    },
    {
      "bufferView": 3,
      "componentType": 5123,
      "count": 3483,
      "type": "SCALAR"
    },
    {
      "bufferView": 4,
      "componentType": 5126,
      "count": 89,
      "type": "MAT4"
    }
  ],
  "asset": {
    "generator": "gr2togltf (ANKA2 Project)",
    "version": "2.0"
  },
  "bufferViews": [
    {
      "buffer": 0,
      "byteLength": 9828,
      "target": 34962
    },
    {
      "buffer": 0,
      "byteLength": 9828,
      "byteOffset": 9828,
      "target": 34962
    },
    {
      "buffer": 0,
      "byteLength": 6552,
      "byteOffset": 19656,
      "target": 34962
    },
    {
      "buffer": 0,
      "byteLength": 6966,
      "byteOffset": 26208,
      "target": 34963
    },
    {
      "buffer": 0,
      "byteLength": 5696,
      "byteOffset": 33174
    }
  ],
  "buffers": [
    {
      "byteLength": 38870,
      "uri": "data:application/octet-stream;base64,"
    }
  ],
  "materials": [
    {
      "name": "default",
      "pbrMetallicRoughness": {
        "baseColorFactor": [
          0.8,
          0.8,
          0.8,
          1.0
        ],
        "metallicFactor": 0.0,
        "roughnessFactor": 0.8
      }
    }
  ],
  "meshes": [
    {
      "name": "hair_8_1",
      "primitives": [
        {
          "attributes": {
            "NORMAL": 1,
            "POSITION": 0,
            "TEXCOORD_0": 2
          },
          "indices": 3,
          "material": 0,
          "mode": 4
        }
      ]
    }
  ],
  "nodes": [
    {
      "children": [
        1,
        2
      ]
    },
    {
      "mesh": 0,
      "name": "hair_8_1",
      "skin": 0
    },
    {
      "children": [
        3
      ],
      "name": "Bip01",
      "rotation": [
        0.0,
        0.0,
        0.0,
        0.9999999403953552
      ],
      "scale": [
        0.9999997019767761,
        -1.3359980981751673e-13,
        0.0
      ],
      "translation": [
        0.0,
        -3.725290298461914e-09,
        0.0
      ]
    },
    {
      "children": [
        4,
        9,
        14
      ],
      "name": "Bip01 Pelvis",
      "rotation": [
        -0.4999993145465851,
        -0.5,
        -0.5,
        0.5000006556510925
      ],
      "scale": [
        1.0,
        5.1399245505243465e-20,
        8.265705963650741e-14
      ],
      "translation": [
        -1.450762391090393,
        0.0,
        0.0
      ]
    },
    {
      "children": [
        5
      ],
      "name": "Bip01 R Thigh",
      "rotation": [
        -0.04179610311985016,
        0.9790621399879456,
        -0.18982772529125214,
        0.0604638010263443
      ],
      "scale": [
        1.0,
        2.6793833818317125e-09,
        -7.2475105916680604e-09
      ],
      "translation": [
        1.52587890625e-05,
        -1.0311603546142578e-05,
        -10.699399948120117
      ]
    },
    {
      "children": [
        6
      ],
      "name": "Bip01 R Calf",
      "rotation": [
        -3.490530087191246e-09,
        1.1178643788412046e-08,
        -0.0005179607542231679,
        0.9999998807907104
      ],
      "scale": [
        0.9999999403953552,
        -7.443500038561979e-09,
        -7.448653693842289e-09
      ],
      "translation": [
        47.206119537353516,
        -4.76837158203125e-07,
        0.0
      ]
    },
    {
      "children": [
        7
      ],
      "name": "Bip01 R Foot",
      "rotation": [
        0.00955344270914793,
        0.06756113469600677,
        0.028910372406244278,
        0.9972504377365112
      ],
      "scale": [
        1.0,
        -6.444641797997974e-08,
        -3.5949747623220674e-09
      ],
      "translation": [
        44.07231140136719,
        4.76837158203125e-07,
        3.814697265625e-06
      ]
    },
    {
      "children": [
        8
      ],
      "name": "Bip01 R Toe0",
      "rotation": [
        1.508371738623282e-08,
        1.5911686190861474e-08,
        0.7057640552520752,
        0.7084468007087708
      ],
      "scale": [
        1.000000238418579,
        4.79055461966027e-10,
        -2.495677264846563e-08
      ],
      "translation": [
        13.616192817687988,
        14.995314598083496,
        0.0
      ]
    },
    {
      "name": "Bip01 R Toe0Nub",
      "rotation": [
        1.6370904631912708e-11,
        -8.08597633294994e-12,
        3.036637543584131e-20,
        1.0
      ],
      "scale": [
        0.9999999403953552,
        3.4557538040934114e-19,
        3.783469537665951e-09
      ],
      "translation": [
        11.541619300842285,
        1.4901161193847656e-08,
        0.0
      ]
    },
    {
      "children": [
        10
      ],
      "name": "Bip01 L Thigh",
      "rotation": [
        -0.04179628565907478,
        0.9790624976158142,
        0.18982627987861633,
        -0.06046248972415924
      ],
      "scale": [
        1.0,
        2.4707529355794122e-09,
        8.584974509062704e-09
      ],
      "translation": [
        -1.52587890625e-05,
        1.9371509552001953e-05,
        10.69940185546875
      ]
    },
    {
      "children": [
        11
      ],
      "name": "Bip01 L Calf",
      "rotation": [
        -1.2341949684469e-08,
        3.729510034133909e-09,
        -0.0005179624422453344,
        0.9999998807907104
      ],
      "scale": [
        1.0000001192092896,
        3.711135398987153e-09,
        7.446236072183865e-09
      ],
      "translation": [
        47.20613098144531,
        0.0,
        0.0
      ]
    },
    {
      "children": [
        12
      ],
      "name": "Bip01 L Foot",
      "rotation": [
        -0.00955344270914793,
        -0.06756112724542618,
        0.028910376131534576,
        0.9972504377365112
      ],
      "scale": [
        1.0000001192092896,
        -6.05237673312331e-08,
        -4.313198243011129e-09
      ],
      "translation": [
        44.07231903076172,
        2.384185791015625e-07,
        0.0
      ]
    },
    {
      "children": [
        13
      ],
      "name": "Bip01 L Toe0",
      "rotation": [
        -9.808895917728933e-09,
        -2.117682207369853e-08,
        0.7057642340660095,
        0.7084468603134155
      ],
      "scale": [
        1.000000238418579,
        4.72349714897291e-10,
        1.006024685779039e-08
      ],
      "translation": [
        13.616192817687988,
        14.99531364440918,
        0.0
      ]
    },
    {
      "name": "Bip01 L Toe0Nub",
      "rotation": [
        1.2732926692182733e-11,
        8.363087999896379e-12,
        1.1641532182693481e-10,
        1.0
      ],
      "scale": [
        0.9999999403953552,
        -2.3283062977608182e-10,
        3.7748435488538234e-09
      ],
      "translation": [
        11.541620254516602,
        -1.4901161193847656e-08,
        1.9073486328125e-06
      ]
    },
    {
      "children": [
        15,
        18,
        21,
        24,
        27
      ],
      "name": "Bip01 Spine",
      "rotation": [
        -2.0804759515158366e-06,
        -6.936760428288835e-07,
        0.0003981590270996094,
        0.9999999403953552
      ],
      "scale": [
        1.0,
        -6.39742148145217e-11,
        1.156542089609516e-14
      ],
      "translation": [
        2.840728759765625,
        -0.718707799911499,
        5.904585123062134e-06
      ]
    },
    {
      "children": [
        16
      ],
      "name": "Bone11",
      "rotation": [
        -3.0276030571485535e-08,
        -7.244894959512749e-07,
        0.9923979043960571,
        -0.1230706050992012
      ],
      "scale": [
        1.000000238418579,
        2.9339325635646674e-08,
        -1.5284148458579588e-13
      ],
      "translation": [
        13.54339599609375,
        -9.463301658630371,
        -0.05013275891542435
      ]
    },
    {
      "children": [
        17
      ],
      "name": "Bone12",
      "rotation": [
        1.010016958957749e-07,
        5.347722265014454e-08,
        0.0030555345583707094,
        0.9999953508377075
      ],
      "scale": [
        1.0,
        2.628186834829904e-10,
        -6.877847392365664e-15
      ],
      "translation": [
        23.54247283935547,
        0.0,
        1.8189894035458565e-12
      ]
    },
    {
      "name": "Bone13",
      "rotation": [
        -4.440892098500626e-15,
        8.881784197001252e-16,
        -3.944304526105059e-31,
        1.0
      ],
      "scale": [
        1.0,
        3.3132158019282496e-29,
        -1.7763568394002505e-15
      ],
      "translation": [
        27.9842529296875,
        0.0,
        -1.8189894035458565e-12
      ]
    },
    {
      "children": [
        19
      ],
      "name": "Bone09",
      "rotation": [
        -9.89189530287149e-08,
        -4.2258076859980065e-07,
        0.9976951479911804,
        0.06785587966442108
      ],
      "scale": [
        1.000000238418579,
        -1.289355680000881e-07,
        -2.6590218027422452e-08
      ],
      "translation": [
        10.042915344238281,
        13.947978973388672,
        -0.0500946082174778
      ]
    },
    {
      "children": [
        20
      ],
      "name": "Bone10",
      "rotation": [
        -9.757134302715211e-15,
        -3.5048196831056642e-15,
        -0.003593204077333212,
        0.9999935626983643
      ],
      "scale": [
        0.9999999403953552,
        7.84141995779919e-09,
        -7.079712707871782e-15
      ],
      "translation": [
        28.00334930419922,
        3.814697265625e-06,
        3.5880111681763083e-07
      ]
    },
    {
      "name": "Bone10-1",
      "rotation": [
        7.105427357601002e-15,
        -3.552713678800501e-15,
        -1.8932661725304283e-29,
        1.0
      ],
      "scale": [
        1.0,
        0.0,
        -7.105427357601002e-15
      ],
      "translation": [
        26.258468627929688,
        -3.814697265625e-06,
        3.445547918090597e-07
      ]
    },
    {
      "children": [
        22
      ],
      "name": "Bone14",
      "rotation": [
        0.08666588366031647,
        0.7017756700515747,
        0.7017754912376404,
        -0.0866662934422493
      ],
      "scale": [
        0.8054580092430115,
        2.8088223302802362e-08,
        -1.6821766419053419e-12
      ],
      "translation": [
        13.395828247070313,
        1.2645530700683594,
        14.34572696685791
      ]
    },
    {
      "children": [
        23
      ],
      "name": "Bone15",
      "rotation": [
        5.072921638316075e-09,
        4.154453669968916e-09,
        0.03984406962990761,
        0.9992058873176575
      ],
      "scale": [
        1.2162786722183228,
        5.3437752001173067e-08,
        7.510762678464289e-09
      ],
      "translation": [
        23.612518310546875,
        0.0,
        4.0605664253234863e-07
      ]
    },
    {
      "name": "Bone16",
      "rotation": [
        -2.1699381874684676e-11,
        -2.1699378405237724e-11,
        4.1513246173963125e-09,
        1.0
      ],
      "scale": [
        0.44868704676628113,
        -1.862645149230957e-08,
        -1.947246010269854e-11
      ],
      "translation": [
        25.08246612548828,
        0.0,
        2.5369226932525635e-06
      ]
    },
    {
      "children": [
        25
      ],
      "name": "Bone17",
      "rotation": [
        -0.08664769679307938,
        -0.7017776370048523,
        0.7017779350280762,
        -0.08664765954017639
      ],
      "scale": [
        0.8054583072662354,
        1.1919430775719775e-08,
        -1.8318312632829153e-13
      ],
      "translation": [
        13.395820617675781,
        1.2645924091339111,
        -14.413712501525879
      ]
    },
    {
      "children": [
        26
      ],
      "name": "Bone18",
      "rotation": [
        1.5972229050476017e-07,
        6.351614345589951e-09,
        0.03984777629375458,
        0.9992057681083679
      ],
      "scale": [
        1.2162787914276123,
        1.1513812323436923e-17,
        -4.379838158818927e-11
      ],
      "translation": [
        23.612503051757813,
        0.0,
        4.0605664253234863e-07
      ]
    },
    {
      "name": "Bone19",
      "rotation": [
        -1.356211063591184e-11,
        -1.0849689202618862e-11,
        -8.302647458435786e-09,
        1.0
      ],
      "scale": [
        0.4486870765686035,
        -7.450581485102248e-09,
        4.815685177017581e-12
      ],
      "translation": [
        25.08245849609375,
        0.0,
        2.5369226932525635e-06
      ]
    },
    {
      "children": [
        28
      ],
      "name": "Bip01 Spine1",
      "rotation": [
        -8.440914389977114e-14,
        7.659860301600929e-08,
        -0.02761702984571457,
        0.9996185898780823
      ],
      "scale": [
        1.0,
        4.286575261414072e-10,
        -3.3108794196122938e-15
      ],
      "translation": [
        15.780479431152344,
        -0.012591958045959473,
        -3.725290298461914e-08
      ]
    },
    {
      "children": [
        29
      ],
      "name": "Bip01 Spine2",
      "rotation": [
        5.3575359074261794e-15,
        2.855335878848564e-07,
        -0.10294690728187561,
        0.9946868419647217
      ],
      "scale": [
        1.0000001192092896,
        1.6963637605726944e-08,
        1.706687193642458e-14
      ],
      "translation": [
        15.835281372070313,
        -0.013475418090820313,
        -3.725290298461914e-08
      ]
    },
    {
      "children": [
        30,
        53,
        83
      ],
      "name": "Bip01 Neck",
      "rotation": [
        2.937680345293722e-14,
        -7.014889433776261e-07,
        0.2529163658618927,
        0.967488169670105
      ],
      "scale": [
        0.9999999403953552,
        -6.3607559219747145e-09,
        -1.1159769533171729e-13
      ],
      "translation": [
        18.435470581054688,
        -0.008853912353515625,
        -2.2351741790771484e-08
      ]
    },
    {
      "children": [
        31,
        33,
        37
      ],
      "name": "Bip01 R Clavicle",
      "rotation": [
        -0.6840459108352661,
        0.17911027371883392,
        0.6840464472770691,
        0.17911219596862793
      ],
      "scale": [
        1.0000001192092896,
        1.3925777306474096e-13,
        -5.3066417633838153e-14
      ],
      "translation": [
        -1.18988037109375,
        -0.19192123413085938,
        -4.603867053985596
      ]
    },
    {
      "children": [
        32
      ],
      "name": "sh_bone03",
      "rotation": [
        -0.7829574346542358,
        0.1835317313671112,
        0.13405516743659973,
        0.5790708661079407
      ],
      "scale": [
        0.9999998211860657,
        6.787508510797124e-08,
        -1.572457364318325e-08
      ],
      "translation": [
        4.008126735687256,
        -1.2899513244628906,
        -3.5871429443359375
      ]
    },
    {
      "name": "sh_bone04",
      "rotation": [
        0.0,
        4.656612873077393e-10,
        -7.450580596923828e-09,
        1.0
      ],
      "scale": [
        1.0,
        4.470348358154297e-08,
        -9.313225746154785e-10
      ],
      "translation": [
        31.181854248046875,
        0.0,
        0.0
      ]
    },
    {
      "children": [
        34
      ],
      "name": "Bone05",
      "rotation": [
        -0.16402918100357056,
        -0.4725882411003113,
        0.1254563182592392,
        0.856747031211853
      ],
      "scale": [
        0.9009683132171631,
        1.9991066579905237e-09,
        -7.96008663428438e-08
      ],
      "translation": [
        5.758616924285889,
        8.408018112182617,
        -7.7870635986328125
      ]
    },
    {
      "children": [
        35
      ],
      "name": "Bone06",
      "rotation": [
        3.9276295638046577e-07,
        -7.504758592347116e-09,
        -0.021625928580760956,
        0.9997661113739014
      ],
      "scale": [
        1.1942291259765625,
        -5.154819238128994e-09,
        3.216894839397355e-08
      ],
      "translation": [
        39.82002258300781,
        -1.1444091796875e-05,
        1.52587890625e-05
      ]
    },
    {
      "children": [
        36
      ],
      "name": "Bone07",
      "rotation": [
        -8.402798457041172e-10,
        -2.979607849340482e-08,
        -0.0061086141504347324,
        0.9999813437461853
      ],
      "scale": [
        1.0,
        7.28189730736517e-10,
        -2.979898638955092e-08
      ],
      "translation": [
        30.000747680664063,
        6.4849853515625e-05,
        0.0
      ]
    },
    {
      "name": "Bone08",
      "rotation": [
        0.0,
        7.450580596923828e-09,
        -3.725290298461914e-09,
        1.0
      ],
      "scale": [
        1.0,
        -5.551115123125783e-17,
        -1.4901161193847656e-08
      ],
      "translation": [
        29.235103607177734,
        -3.814697265625e-06,
        0.0
      ]
    },
    {
      "children": [
        38
      ],
      "name": "Bip01 R UpperArm",
      "rotation": [
        -0.04206804558634758,
        -0.46252399682998657,
        0.07168915122747421,
        0.8827018141746521
      ],
      "scale": [
        1.0000001192092896,
        2.7414546188708755e-09,
        7.4416227846541e-08
      ],
      "translation": [
        19.847068786621094,
        0.0,
        0.0
      ]
    },
    {
      "children": [
        39
      ],
      "name": "Bip01 R ForeArm",
      "rotation": [
        -5.587933671336032e-09,
        1.4902557410323425e-08,
        -0.000752570282202214,
        0.9999997019767761
      ],
      "scale": [
        1.0,
        3.66227492776261e-09,
        -5.623972641755071e-12
      ],
      "translation": [
        27.86431121826172,
        0.0,
        -7.62939453125e-06
      ]
    },
    {
      "children": [
        40,
        41,
        45,
        49
      ],
      "name": "Bip01 R Hand",
      "rotation": [
        0.6610820293426514,
        0.049675360321998596,
        0.03803497180342674,
        0.7477006316184998
      ],
      "scale": [
        1.0,
        6.141398500858486e-09,
        -8.260697903494929e-09
      ],
      "translation": [
        25.69066619873047,
        -9.5367431640625e-07,
        0.0
      ]
    },
    {
      "name": "equip_right",
      "rotation": [
        5.077149580756668e-07,
        2.0181458637580363e-07,
        -4.7037127615112695e-07,
        1.0
      ],
      "scale": [
        0.5860722661018372,
        -2.5331962660857243e-07,
        1.8626909792374136e-08
      ],
      "translation": [
        7.531394958496094,
        2.1409149169921875,
        -2.002577781677246
      ]
    },
    {
      "children": [
        42
      ],
      "name": "Bip01 R Finger2",
      "rotation": [
        -0.028132770210504532,
        -0.005823913495987654,
        0.29204970598220825,
        0.9559715390205383
      ],
      "scale": [
        1.0,
        -1.0620600399136038e-08,
        1.3789295039146054e-08
      ],
      "translation": [
        11.659984588623047,
        -0.4314117431640625,
        -1.1205434799194336
      ]
    },
    {
      "children": [
        43
      ],
      "name": "Bip01 R Finger21",
      "rotation": [
        5.726875085265704e-10,
        9.724718808001853e-10,
        0.10198187828063965,
        0.994786262512207
      ],
      "scale": [
        1.0000001192092896,
        -1.708861319116295e-08,
        1.8179960870057243e-09
      ],
      "translation": [
        4.448204040527344,
        -3.814697265625e-06,
        9.5367431640625e-07
      ]
    },
    {
      "children": [
        44
      ],
      "name": "Bip01 R Finger22",
      "rotation": [
        2.318936292988738e-10,
        3.7729006585607294e-09,
        0.0896250382065773,
        0.9959755539894104
      ],
      "scale": [
        1.0,
        1.0641139525091603e-08,
        2.3285734451761186e-11
      ],
      "translation": [
        3.6346435546875,
        0.0,
        0.0
      ]
    },
    {
      "name": "Bip01 R Finger2Nub",
      "rotation": [
        0.0,
        9.313225191043273e-10,
        7.4505797087454084e-09,
        1.0
      ],
      "scale": [
        1.0000001192092896,
        -1.4901162970204496e-08,
        -1.862645371275562e-09
      ],
      "translation": [
        3.8705596923828125,
        -3.814697265625e-06,
        0.0
      ]
    },
    {
      "children": [
        46
      ],
      "name": "Bip01 R Finger1",
      "rotation": [
        -0.07368870079517365,
        -0.03421925753355026,
        0.29757359623908997,
        0.9512354731559753
      ],
      "scale": [
        0.9999999403953552,
        -7.220811681918349e-08,
        1.9305890219811772e-10
      ],
      "translation": [
        11.491889953613281,
        -0.2546539306640625,
        4.704717636108398
      ]
    },
    {
      "children": [
        47
      ],
      "name": "Bip01 R Finger11",
      "rotation": [
        -5.490576882039022e-10,
        3.4858907427270935e-10,
        0.0949033722281456,
        0.9954864978790283
      ],
      "scale": [
        1.0000001192092896,
        2.6019873998577762e-18,
        -2.927043940559315e-09
      ],
      "translation": [
        4.7199859619140625,
        0.0,
        0.0
      ]
    },
    {
      "children": [
        48
      ],
      "name": "Bip01 R Finger12",
      "rotation": [
        -5.416971871063936e-10,
        -1.7983389222209212e-09,
        0.08288811892271042,
        0.9965588450431824
      ],
      "scale": [
        0.9999999403953552,
        -4.849374235504911e-09,
        3.956079908107313e-09
      ],
      "translation": [
        3.115997314453125,
        -3.814697265625e-06,
        -9.5367431640625e-07
      ]
    },
    {
      "name": "Bip01 R Finger1Nub",
      "rotation": [
        -2.561137080192566e-09,
        1.862645149230957e-09,
        -2.818924821281699e-18,
        1.0
      ],
      "scale": [
        1.0000001192092896,
        5.2041708415207276e-18,
        -1.862645371275562e-09
      ],
      "translation": [
        3.960418701171875,
        3.814697265625e-06,
        0.0
      ]
    },
    {
      "children": [
        50
      ],
      "name": "Bip01 R Finger0",
      "rotation": [
        -0.6359974145889282,
        -0.3162306845188141,
        -0.06964927911758423,
        0.7004672884941101
      ],
      "scale": [
        1.0,
        -5.997337382268597e-08,
        -3.045444074700754e-08
      ],
      "translation": [
        0.6864356994628906,
        2.5254974365234375,
        2.7471656799316406
      ]
    },
    {
      "children": [
        51
      ],
      "name": "Bip01 R Finger01",
      "rotation": [
        -2.530502474229479e-09,
        2.530502252184874e-09,
        0.2805599272251129,
        0.959836483001709
      ],
      "scale": [
        1.0,
        9.35443069915152e-17,
        6.277652619957053e-09
      ],
      "translation": [
        5.109405517578125,
        3.814697265625e-06,
        0.0
      ]
    },
    {
      "children": [
        52
      ],
      "name": "Bip01 R Finger02",
      "rotation": [
        2.2014974287998257e-09,
        3.882572929825301e-09,
        0.09313316643238068,
        0.9956536889076233
      ],
      "scale": [
        1.0,
        1.4642662193864453e-08,
        7.3213310969322265e-09
      ],
      "translation": [
        3.5312271118164063,
        9.5367431640625e-07,
        0.0
      ]
    },
    {
      "name": "Bip01 R Finger0Nub",
      "rotation": [
        0.0,
        3.725290076417309e-09,
        3.7252898543727042e-09,
        1.0
      ],
      "scale": [
        1.0000001192092896,
        -7.450581485102248e-09,
        -7.450581485102248e-09
      ],
      "translation": [
        5.245460510253906,
        0.0,
        -7.62939453125e-06
      ]
    },
    {
      "children": [
        54,
        56,
        60
      ],
      "name": "Bip01 L Clavicle",
      "rotation": [
        0.6840463876724243,
        -0.17911218106746674,
        0.6840459704399109,
        0.17911028861999512
      ],
      "scale": [
        1.0000001192092896,
        -9.086650296129609e-14,
        3.6965934057265476e-14
      ],
      "translation": [
        -1.18988037109375,
        -0.19194793701171875,
        4.603867053985596
      ]
    },
    {
      "children": [
        55
      ],
      "name": "sh_bone01",
      "rotation": [
        0.782957911491394,
        -0.18353284895420074,
        0.13405270874500275,
        0.5790704488754272
      ],
      "scale": [
        1.000000238418579,
        2.567131573982806e-08,
        2.0535239286800788e-08
      ],
      "translation": [
        4.008134365081787,
        -1.2900123596191406,
        3.587066650390625
      ]
    },
    {
      "name": "sh_bone02",
      "rotation": [
        0.0,
        0.0,
        7.450581485102248e-09,
        1.0
      ],
      "scale": [
        0.9999999403953552,
        1.4901159417490817e-08,
        0.0
      ],
      "translation": [
        31.181861877441406,
        1.52587890625e-05,
        0.0
      ]
    },
    {
      "children": [
        57
      ],
      "name": "Bone01",
      "rotation": [
        0.16403111815452576,
        0.4725884795188904,
        0.12545493245124817,
        0.8567467331886292
      ],
      "scale": [
        0.9009684920310974,
        2.7103075339596217e-08,
        -1.5082548543432495e-09
      ],
      "translation": [
        5.879575252532959,
        8.388139724731445,
        7.8505401611328125
      ]
    },
    {
      "children": [
        58
      ],
      "name": "Bone02",
      "rotation": [
        -2.9400033518811597e-09,
        -6.802490570834152e-09,
        -0.02162294089794159,
        0.9997662305831909
      ],
      "scale": [
        1.194229245185852,
        1.2310174213325809e-08,
        1.3406813437200071e-08
      ],
      "translation": [
        39.820045471191406,
        3.814697265625e-06,
        -7.62939453125e-06
      ]
    },
    {
      "children": [
        59
      ],
      "name": "Bone03",
      "rotation": [
        -8.402797901929659e-10,
        -1.490657197678047e-08,
        -0.006108611822128296,
        0.9999813437461853
      ],
      "scale": [
        1.0000001192092896,
        4.65626559531529e-09,
        -2.982285707275878e-08
      ],
      "translation": [
        30.000751495361328,
        6.866455078125e-05,
        7.62939453125e-06
      ]
    },
    {
      "name": "Bone04",
      "rotation": [
        -9.313225746154785e-10,
        -1.4901161193847656e-08,
        -1.862645149230957e-09,
        1.0
      ],
      "scale": [
        1.0,
        -3.725290298461914e-09,
        0.0
      ],
      "translation": [
        29.23509979248047,
        -3.814697265625e-06,
        0.0
      ]
    },
    {
      "children": [
        61
      ],
      "name": "Bip01 L UpperArm",
      "rotation": [
        0.05658837407827377,
        0.473710298538208,
        0.10345793515443802,
        0.8727501034736633
      ],
      "scale": [
        1.0,
        -6.272069086321608e-09,
        1.2297185492116114e-08
      ],
      "translation": [
        19.847064971923828,
        0.0,
        0.0
      ]
    },
    {
      "children": [
        62
      ],
      "name": "Bip01 L ForeArm",
      "rotation": [
        -3.2242664094184192e-09,
        1.5017539212180964e-08,
        -0.03348296880722046,
        0.9994392991065979
      ],
      "scale": [
        1.0,
        4.440892098500626e-16,
        -2.9802322387695313e-08
      ],
      "translation": [
        27.864288330078125,
        4.76837158203125e-07,
        0.0
      ]
    },
    {
      "children": [
        63,
        67,
        71,
        75,
        79
      ],
      "name": "Bip01 L Hand",
      "rotation": [
        -0.7916519641876221,
        0.005645343568176031,
        0.026196429505944252,
        0.6103843450546265
      ],
      "scale": [
        1.0,
        -2.4153012923022743e-09,
        1.529113902165591e-08
      ],
      "translation": [
        26.83319854736328,
        0.0,
        0.0
      ]
    },
    {
      "children": [
        64
      ],
      "name": "Bone24",
      "rotation": [
        0.9594858288764954,
        0.23988230526447296,
        0.14512690901756287,
        0.027956301346421242
      ],
      "scale": [
        0.21248319745063782,
        -1.1553755729920567e-09,
        2.818733690901354e-09
      ],
      "translation": [
        13.973487854003906,
        0.0212554931640625,
        5.047313690185547
      ]
    },
    {
      "children": [
        65
      ],
      "name": "Bone25",
      "rotation": [
        1.5314492429752136e-06,
        -2.244848928967258e-07,
        -0.1710735708475113,
        0.9852582216262817
      ],
      "scale": [
        0.8113709688186646,
        -3.802329562319073e-09,
        -1.013636286018027e-08
      ],
      "translation": [
        24.451446533203125,
        3.0517578125e-05,
        0.0
      ]
    },
    {
      "children": [
        66
      ],
      "name": "Bone26",
      "rotation": [
        -8.494169811967822e-09,
        1.585284614691318e-08,
        -0.05949492007493973,
        0.9982286095619202
      ],
      "scale": [
        1.3532013893127441,
        -7.07978431435663e-09,
        -1.4418869653809452e-08
      ],
      "translation": [
        23.85125732421875,
        1.52587890625e-05,
        0.0
      ]
    },
    {
      "name": "Bone27",
      "rotation": [
        5.859038143540829e-09,
        4.8917914163837395e-09,
        2.1697278339510937e-19,
        1.0
      ],
      "scale": [
        0.7159862518310547,
        -2.9802322387695313e-08,
        -4.4566789147992836e-10
      ],
      "translation": [
        24.52044677734375,
        1.52587890625e-05,
        3.814697265625e-06
      ]
    },
    {
      "children": [
        68
      ],
      "name": "Bone20",
      "rotation": [
        0.958179771900177,
        0.25360798835754395,
        0.12814150750637054,
        0.03397470340132713
      ],
      "scale": [
        0.22892946004867554,
        -4.409536291660743e-09,
        -3.6322487240170176e-09
      ],
      "translation": [
        14.627593994140625,
        0.30959320068359375,
        1.1888847351074219
      ]
    },
    {
      "children": [
        69
      ],
      "name": "Bone21",
      "rotation": [
        1.5522118701483123e-06,
        -1.527706814385965e-07,
        -0.12655436992645264,
        0.9919596910476685
      ],
      "scale": [
        0.8113710880279541,
        -1.2800198234685922e-08,
        -4.443845291746129e-09
      ],
      "translation": [
        24.451446533203125,
        4.57763671875e-05,
        3.814697265625e-06
      ]
    },
    {
      "children": [
        70
      ],
      "name": "Bone22",
      "rotation": [
        -2.0542645362553458e-09,
        1.3178276248027032e-08,
        -0.0659550353884697,
        0.9978225827217102
      ],
      "scale": [
        1.3532013893127441,
        -3.738837150990548e-08,
        1.2869636911716498e-08
      ],
      "translation": [
        23.85125732421875,
        -7.62939453125e-06,
        3.814697265625e-06
      ]
    },
    {
      "name": "Bone23",
      "rotation": [
        9.765062092270682e-10,
        -5.707091244033791e-09,
        1.7976407917785764e-08,
        1.0
      ],
      "scale": [
        0.7159861922264099,
        4.060602964983673e-09,
        -6.309752720312645e-09
      ],
      "translation": [
        24.520477294921875,
        0.0,
        7.62939453125e-06
      ]
    },
    {
      "children": [
        72
      ],
      "name": "Bip01 L Finger2",
      "rotation": [
        -0.046775829046964645,
        -0.09146642684936523,
        0.2815311849117279,
        0.9540367126464844
      ],
      "scale": [
        0.9999999403953552,
        -6.49550955245104e-08,
        -1.3509870555594716e-08
      ],
      "translation": [
        14.496315002441406,
        -0.7662353515625,
        -2.5844573974609375
      ]
    },
    {
      "children": [
        73
      ],
      "name": "Bip01 L Finger21",
      "rotation": [
        -1.6137517988568106e-08,
        4.405950715380413e-09,
        0.14005015790462494,
        0.9901444315910339
      ],
      "scale": [
        1.0,
        2.960528116721753e-16,
        5.794598134656326e-09
      ],
      "translation": [
        6.126609802246094,
        0.0,
        0.0
      ]
    },
    {
      "children": [
        74
      ],
      "name": "Bip01 L Finger22",
      "rotation": [
        5.562810212467184e-09,
        6.192363843915416e-10,
        0.0947219580411911,
        0.9955037832260132
      ],
      "scale": [
        1.0000001192092896,
        -4.72941046325559e-08,
        -3.5462255354445915e-09
      ],
      "translation": [
        6.126617431640625,
        0.0,
        0.0
      ]
    },
    {
      "name": "Bip01 L Finger2Nub",
      "rotation": [
        -6.0535962909114005e-09,
        -9.313225746154785e-10,
        7.4505797087454084e-09,
        1.0
      ],
      "scale": [
        1.0000001192092896,
        1.4901162970204496e-08,
        9.313225746154785e-09
      ],
      "translation": [
        6.55322265625,
        0.0,
        1.9073486328125e-06
      ]
    },
    {
      "children": [
        76
      ],
      "name": "Bip01 L Finger1",
      "rotation": [
        -0.00252540223300457,
        0.0103805772960186,
        0.2603495419025421,
        0.9654552936553955
      ],
      "scale": [
        0.9999999403953552,
        -6.734294011323527e-09,
        -2.4797389031050443e-08
      ],
      "translation": [
        15.204147338867188,
        0.3554534912109375,
        -5.880035400390625
      ]
    },
    {
      "children": [
        77
      ],
      "name": "Bip01 L Finger11",
      "rotation": [
        2.419503659922828e-11,
        1.4280553628509551e-08,
        0.1432468742132187,
        0.9896869659423828
      ],
      "scale": [
        1.0,
        2.8579254518490416e-08,
        -4.624618199500219e-08
      ],
      "translation": [
        5.4831085205078125,
        3.814697265625e-06,
        3.814697265625e-06
      ]
    },
    {
      "children": [
        78
      ],
      "name": "Bip01 L Finger12",
      "rotation": [
        4.848708989868555e-09,
        -7.594718631764863e-09,
        0.09576985985040665,
        0.995403528213501
      ],
      "scale": [
        1.0,
        1.1364180707573723e-08,
        -1.6048341322516535e-08
      ],
      "translation": [
        5.053825378417969,
        -5.7220458984375e-06,
        -3.814697265625e-06
      ]
    },
    {
      "name": "Bip01 L Finger1Nub",
      "rotation": [
        -1.30385160446167e-08,
        0.0,
        -9.71445146547012e-17,
        1.0
      ],
      "scale": [
        1.0,
        -5.551115123125783e-17,
        1.4901161193847656e-08
      ],
      "translation": [
        6.538978576660156,
        3.814697265625e-06,
        -3.814697265625e-06
      ]
    },
    {
      "children": [
        80
      ],
      "name": "Bip01 L Finger0",
      "rotation": [
        0.6419492959976196,
        0.36710938811302185,
        -0.010143228806555271,
        0.6730742454528809
      ],
      "scale": [
        1.0,
        -1.539798404337489e-07,
        -4.864381253355532e-08
      ],
      "translation": [
        2.72552490234375,
        1.5828857421875,
        -4.528717041015625
      ]
    },
    {
      "children": [
        81
      ],
      "name": "Bip01 L Finger01",
      "rotation": [
        3.2692646367848965e-09,
        1.4123232583429512e-09,
        0.22189922630786896,
        0.9750695824623108
      ],
      "scale": [
        1.0000001192092896,
        -1.074454303306993e-09,
        -1.7323120715673213e-08
      ],
      "translation": [
        9.032466888427734,
        7.62939453125e-06,
        0.0
      ]
    },
    {
      "children": [
        82
      ],
      "name": "Bip01 L Finger02",
      "rotation": [
        6.4918466158303545e-09,
        6.213337622185122e-10,
        0.2522697448730469,
        0.9676569700241089
      ],
      "scale": [
        1.0000001192092896,
        -2.291791290076617e-08,
        1.6523734602813533e-09
      ],
      "translation": [
        5.888336181640625,
        0.0,
        0.0
      ]
    },
    {
      "name": "Bip01 L Finger0Nub",
      "rotation": [
        3.841705620288849e-09,
        -9.313225746154785e-10,
        -3.725290298461914e-09,
        1.0
      ],
      "scale": [
        0.9999999403953552,
        7.450580152834618e-09,
        2.7939677238464355e-09
      ],
      "translation": [
        6.94952392578125,
        0.0,
        0.0
      ]
    },
    {
      "children": [
        84,
        90
      ],
      "name": "Bip01 Head",
      "rotation": [
        6.464352843163837e-14,
        -8.242791693646723e-08,
        0.029718054458498955,
        0.9995583295822144
      ],
      "scale": [
        1.0000001192092896,
        2.9039254556550986e-08,
        1.2309119381322814e-13
      ],
      "translation": [
        11.440719604492188,
        0.0,
        -3.725290298461914e-09
      ]
    },
    {
      "children": [
        85
      ],
      "name": "Bip01 Ponytail1",
      "rotation": [
        1.9211455343226547e-12,
        -2.7697305995388888e-06,
        0.9986048936843872,
        0.052803751081228256
      ],
      "scale": [
        0.9999999403953552,
        -1.4819683258338046e-08,
        5.141144400391123e-15
      ],
      "translation": [
        9.20233154296875,
        -10.642349243164063,
        -2.568960189819336e-05
      ]
    },
    {
      "children": [
        86
      ],
      "name": "Bip01 Ponytail11",
      "rotation": [
        -7.200463099030219e-14,
        -4.491429024255922e-07,
        0.1619349718093872,
        0.9868014454841614
      ],
      "scale": [
        1.0,
        2.8239183436085113e-08,
        -8.379621053034719e-14
      ],
      "translation": [
        13.133529663085938,
        -0.009548187255859375,
        -2.60770320892334e-08
      ]
    },
    {
      "children": [
        87
      ],
      "name": "Bip01 Ponytail12",
      "rotation": [
        6.478831685551023e-14,
        4.4504284346658096e-07,
        -0.16045670211315155,
        0.9870429039001465
      ],
      "scale": [
        1.0,
        -1.8879960705930898e-08,
        -9.669533647090403e-14
      ],
      "translation": [
        12.64813232421875,
        -0.01032257080078125,
        -3.3527612686157227e-08
      ]
    },
    {
      "children": [
        88
      ],
      "name": "Bip01 Ponytail13",
      "rotation": [
        -1.781680229715507e-15,
        2.1424627050237177e-07,
        -0.0772448405623436,
        0.9970121383666992
      ],
      "scale": [
        1.0000001192092896,
        -1.2819016959042528e-08,
        2.9409515865360183e-14
      ],
      "translation": [
        13.685073852539063,
        -0.010768890380859375,
        -2.60770320892334e-08
      ]
    },
    {
      "children": [
        89
      ],
      "name": "Bip01 Ponytail14",
      "rotation": [
        -1.1438503681564238e-13,
        6.566768462334949e-08,
        -0.02367597445845604,
        0.9997196793556213
      ],
      "scale": [
        1.0,
        8.341737078865208e-09,
        1.3117336450846123e-15
      ],
      "translation": [
        13.686241149902344,
        -0.010883331298828125,
        -3.3527612686157227e-08
      ]
    },
    {
      "name": "Bip01 Ponytail1Nub",
      "rotation": [
        0.7073882222175598,
        0.7068251967430115,
        9.80225195235107e-07,
        -9.810059964365792e-07
      ],
      "scale": [
        1.0,
        2.8028607212959855e-10,
        -8.242305492636715e-14
      ],
      "translation": [
        13.686752319335938,
        0.0,
        -3.725290298461914e-09
      ]
    },
    {
      "name": "Bip01 HeadNub",
      "rotation": [
        -2.1316282072803006e-14,
        -2.1175826205712405e-22,
        7.450580596923828e-09,
        1.0
      ],
      "scale": [
        1.0,
        1.4901161193847656e-08,
        4.235164736271502e-22
      ],
      "translation": [
        22.007568359375,
        3.814697265625e-06,
        0.0
      ]
    }
  ],
  "scene": 0,
  "scenes": [
    {
      "nodes": [
        0
      ]
    }
  ],
  "skins": [
    {
      "inverseBindMatrices": 4,
      "joints": [
        2,
        3,
        4,
        5,
        6,
        7,
        8,
        9,
        10,
        11,
        12,
        13,
        14,
        15,
        16,
        17,
        18,
        19,
        20,
        21,
        22,
        23,
        24,
        25,
        26,
        27,
        28,
        29,
        30,
        31,
        32,
        33,
        34,
        35,
        36,
        37,
        38,
        39,
        40,
        41,
        42,
        43,
        44,
        45,
        46,
        47,
        48,
        49,
        50,
        51,
        52,
        53,
        54,
        55,
        56,
        57,
        58,
        59,
        60,
        61,
        62,
        63,
        64,
        65,
        66,
        67,
        68,
        69,
        70,
        71,
        72,
        73,
        74,
        75,
        76,
        77,
        78,
        79,
        80,
        81,
        82,
        83,
        84,
        85,
        86,
        87,
        88,
        89,
        90
      ],
      "skeleton": 2
    }
  ]
}
