{
  "accessors": [
    {
      "bufferView": 0,
      "componentType": 5126,
      "count": 374,
      "max": [
        20.265525817871094,
        14.10738754272461,
        201.12950134277344
      ],
      "min": [
        -20.265525817871094,
        -21.983230590820313,
        166.76194763183594
      ],
      "type": "VEC3"
    },
    {
      "bufferView": 1,
      "componentType": 5126,
      "count": 374,
      "type": "VEC3"
    },
    {
      "bufferView": 2,
      "componentType": 5126,
      "count": 374,
      "type": "VEC2"
    },
    {
      "bufferView": 3,
      "componentType": 5123,
      "count": 1512,
      "type": "SCALAR"
    },
    {
      "bufferView": 4,
      "componentType": 5126,
      "count": 12,
      "type": "MAT4"
    }
  ],
  "asset": {
    "generator": "gr2togltf (ANKA2 Project)",
    "version": "2.0"
  },
  "bufferViews": [
    {
      "buffer": 0,
      "byteLength": 4488,
      "target": 34962
    },
    {
      "buffer": 0,
      "byteLength": 4488,
      "byteOffset": 4488,
      "target": 34962
    },
    {
      "buffer": 0,
      "byteLength": 2992,
      "byteOffset": 8976,
      "target": 34962
    },
    {
      "buffer": 0,
      "byteLength": 3024,
      "byteOffset": 11968,
      "target": 34963
    },
    {
      "buffer": 0,
      "byteLength": 768,
      "byteOffset": 14992
    }
  ],
  "buffers": [
    {
      "byteLength": 15760,
      "uri": "data:application/octet-stream;base64,"
    }
  ],
  "materials": [
    {
      "name": "default",
      "pbrMetallicRoughness": {
        "baseColorFactor": [
          0.8,
          0.8,
          0.8,
          1.0
        ],
        "metallicFactor": 0.0,
        "roughnessFactor": 0.8
      }
    }
  ],
  "meshes": [
    {
      "name": "hair_53_1",
      "primitives": [
        {
          "attributes": {
            "NORMAL": 1,
            "POSITION": 0,
            "TEXCOORD_0": 2
          },
          "indices": 3,
          "material": 0,
          "mode": 4
        }
      ]
    }
  ],
  "nodes": [
    {
      "children": [
        1,
        2
      ]
    },
    {
      "mesh": 0,
      "name": "hair_53_1",
      "skin": 0
    },
    {
      "children": [
        3
      ],
      "name": "Bip01",
      "rotation": [
        0.0,
        0.0,
        0.0,
        0.9999999403953552
      ],
      "scale": [
        0.9999997615814209,
        -5.117093408073606e-14,
        0.0
      ],
      "translation": [
        0.0,
        -3.725290298461914e-09,
        0.0
      ]
    },
    {
      "children": [
        4
      ],
      "name": "Bip01 Pelvis",
      "rotation": [
        -0.4999993145465851,
        -0.5,
        -0.5,
        0.5000006556510925
      ],
      "scale": [
        1.0,
        6.755036055564761e-20,
        -2.6671148450016795e-18
      ],
      "translation": [
        -1.4509639739990234,
        0.0,
        0.0
      ]
    },
    {
      "children": [
        5
      ],
      "name": "Bip01 Spine",
      "rotation": [
        -2.0804759515158366e-06,
        -6.936760428288835e-07,
        0.00039815905620343983,
        0.9999999403953552
      ],
      "scale": [
        1.0,
        4.1697676561591734e-11,
        -1.8561090571423897e-14
      ],
      "translation": [
        2.840728759765625,
        -0.7187075614929199,
        5.934387445449829e-06
      ]
    },
    {
      "children": [
        6
      ],
      "name": "Bip01 Spine1",
      "rotation": [
        -5.619872175586203e-14,
        7.659880907340266e-08,
        -0.02761710435152054,
        0.9996185898780823
      ],
      "scale": [
        1.0000001192092896,
        4.2864864435721017e-10,
        2.992406254631228e-15
      ],
      "translation": [
        15.780479431152344,
        -0.012591958045959473,
        -3.725290298461914e-08
      ]
    },
    {
      "children": [
        7
      ],
      "name": "Bip01 Spine2",
      "rotation": [
        9.107811212031094e-14,
        2.855332468243432e-07,
        -0.10294681042432785,
        0.9946868419647217
      ],
      "scale": [
        0.9999998807907104,
        -1.6963582538664923e-08,
        -6.517389980562754e-14
      ],
      "translation": [
        15.835281372070313,
        -0.01347494125366211,
        -3.3527612686157227e-08
      ]
    },
    {
      "children": [
        8,
        9
      ],
      "name": "Bip01 Neck",
      "rotation": [
        4.406520856753762e-14,
        -7.014893412815582e-07,
        0.252916544675827,
        0.9674881100654602
      ],
      "scale": [
        0.9999997615814209,
        -1.5901282068853106e-08,
        1.7059800905380902e-14
      ],
      "translation": [
        18.435470581054688,
        -0.008853912353515625,
        -2.2351741790771484e-08
      ]
    },
    {
      "name": "Bip01 Head",
      "rotation": [
        1.0996064491895427e-13,
        -8.242750482168049e-08,
        0.029717901721596718,
        0.9995583295822144
      ],
      "scale": [
        1.0000003576278687,
        2.4753341598682255e-09,
        -2.3875310907993386e-14
      ],
      "translation": [
        11.440719604492188,
        0.0,
        -3.725290298461914e-09
      ]
    },
    {
      "children": [
        10
      ],
      "name": "Bip01 R Clavicle",
      "rotation": [
        -0.48340827226638794,
        0.19029389321804047,
        0.8352445363998413,
        0.18019770085811615
      ],
      "scale": [
        1.0,
        4.8757911486063676e-08,
        1.455589568877258e-07
      ],
      "translation": [
        -1.18988037109375,
        -0.19192123413085938,
        -4.603867053985596
      ]
    },
    {
      "children": [
        11
      ],
      "name": "Bip01 R UpperArm",
      "rotation": [
        -0.07118098437786102,
        -0.23287495970726013,
        0.025725042447447777,
        0.969556987285614
      ],
      "scale": [
        1.0,
        -1.6450760753627947e-08,
        6.138487407270077e-08
      ],
      "translation": [
        19.847068786621094,
        -7.62939453125e-06,
        -1.52587890625e-05
      ]
    },
    {
      "children": [
        12
      ],
      "name": "Bip01 R ForeArm",
      "rotation": [
        -5.582328821418514e-09,
        -7.449177275020702e-09,
        -0.0007523263921029866,
        0.9999997019767761
      ],
      "scale": [
        0.9999998807907104,
        -1.1641541897144947e-10,
        -1.490674783610757e-08
      ],
      "translation": [
        27.864303588867188,
        0.0,
        0.0
      ]
    },
    {
      "children": [
        13
      ],
      "name": "Bip01 R Hand",
      "rotation": [
        0.6610820293426514,
        0.049675390124320984,
        0.03803454712033272,
        0.7477006912231445
      ],
      "scale": [
        1.0000001192092896,
        1.8253098588161265e-08,
        3.770594947383188e-09
      ],
      "translation": [
        25.69066619873047,
        -1.9073486328125e-06,
        0.0
      ]
    },
    {
      "name": "equip_right",
      "rotation": [
        3.59490400114737e-07,
        2.9336655416045687e-07,
        -2.8312206268310547e-07,
        1.0
      ],
      "scale": [
        1.0,
        -2.8248586738006953e-13,
        -7.264310397658846e-08
      ],
      "translation": [
        7.531360626220703,
        2.14093017578125,
        -2.002613067626953
      ]
    }
  ],
  "scene": 0,
  "scenes": [
    {
      "nodes": [
        0
      ]
    }
  ],
  "skins": [
    {
      "inverseBindMatrices": 4,
      "joints": [
        2,
        3,
        4,
        5,
        6,
        7,
        8,
        9,
        10,
        11,
        12,
        13
      ],
      "skeleton": 2
    }
  ]
}
