{
  "accessors": [
    {
      "bufferView": 0,
      "componentType": 5126,
      "count": 349,
      "max": [
        194.94134521484375,
        190.10775756835938,
        190.0889892578125
      ],
      "min": [
        -11.032203674316406,
        -9.563158988952637,
        -9.452112197875977
      ],
      "type": "VEC3"
    },
    {
      "bufferView": 1,
      "componentType": 5126,
      "count": 349,
      "type": "VEC3"
    },
    {
      "bufferView": 2,
      "componentType": 5126,
      "count": 349,
      "type": "VEC2"
    },
    {
      "bufferView": 3,
      "componentType": 5123,
      "count": 1455,
      "type": "SCALAR"
    },
    {
      "bufferView": 4,
      "componentType": 5126,
      "count": 88,
      "type": "MAT4"
    }
  ],
  "asset": {
    "generator": "gr2togltf (ANKA2 Project)",
    "version": "2.0"
  },
  "bufferViews": [
    {
      "buffer": 0,
      "byteLength": 4188,
      "target": 34962
    },
    {
      "buffer": 0,
      "byteLength": 4188,
      "byteOffset": 4188,
      "target": 34962
    },
    {
      "buffer": 0,
      "byteLength": 2792,
      "byteOffset": 8376,
      "target": 34962
    },
    {
      "buffer": 0,
      "byteLength": 2910,
      "byteOffset": 11168,
      "target": 34963
    },
    {
      "buffer": 0,
      "byteLength": 5632,
      "byteOffset": 14078
    }
  ],
  "buffers": [
    {
      "byteLength": 19710,
      "uri": "data:application/octet-stream;base64,"
    }
  ],
  "materials": [
    {
      "name": "default",
      "pbrMetallicRoughness": {
        "baseColorFactor": [
          0.8,
          0.8,
          0.8,
          1.0
        ],
        "metallicFactor": 0.0,
        "roughnessFactor": 0.8
      }
    }
  ],
  "meshes": [
    {
      "name": "hair_66_1",
      "primitives": [
        {
          "attributes": {
            "NORMAL": 1,
            "POSITION": 0,
            "TEXCOORD_0": 2
          },
          "indices": 3,
          "material": 0,
          "mode": 4
        }
      ]
    }
  ],
  "nodes": [
    {
      "children": [
        1,
        2
      ]
    },
    {
      "mesh": 0,
      "name": "hair_66_1",
      "skin": 0
    },
    {
      "children": [
        3
      ],
      "name": "Bip01",
      "rotation": [
        0.0,
        0.0,
        0.0,
        0.9999999403953552
      ],
      "scale": [
        0.9999997019767761,
        -1.3359980981751673e-13,
        0.0
      ],
      "translation": [
        0.0,
        -3.725290298461914e-09,
        0.0
      ]
    },
    {
      "children": [
        4,
        9,
        14
      ],
      "name": "Bip01 Pelvis",
      "rotation": [
        -0.4999993145465851,
        -0.5,
        -0.5,
        0.5000006556510925
      ],
      "scale": [
        1.0,
        5.1399245505243465e-20,
        8.265705963650741e-14
      ],
      "translation": [
        -1.4508460760116577,
        0.0,
        0.0
      ]
    },
    {
      "children": [
        5
      ],
      "name": "Bip01 R Thigh",
      "rotation": [
        -0.04179610311985016,
        0.9790621399879456,
        -0.18982774019241333,
        0.060463797301054
      ],
      "scale": [
        1.0,
        1.5440169143232652e-09,
        -1.3925354203081497e-09
      ],
      "translation": [
        1.52587890625e-05,
        -1.0311603546142578e-05,
        -10.699399948120117
      ]
    },
    {
      "children": [
        6
      ],
      "name": "Bip01 R Calf",
      "rotation": [
        4.192880265208032e-09,
        3.724807573490807e-09,
        -0.0005179690779186785,
        0.9999998807907104
      ],
      "scale": [
        0.9999999403953552,
        -5.711425998811137e-09,
        -7.447203742572128e-09
      ],
      "translation": [
        47.206119537353516,
        -9.5367431640625e-07,
        0.0
      ]
    },
    {
      "children": [
        7
      ],
      "name": "Bip01 R Foot",
      "rotation": [
        0.009553421288728714,
        0.06756113469600677,
        0.028910383582115173,
        0.9972504377365112
      ],
      "scale": [
        0.9999999403953552,
        -5.614305820245136e-08,
        -8.805144169343748e-09
      ],
      "translation": [
        44.07230758666992,
        7.152557373046875e-07,
        3.814697265625e-06
      ]
    },
    {
      "children": [
        8
      ],
      "name": "Bip01 R Toe0",
      "rotation": [
        1.508371738623282e-08,
        1.5911686190861474e-08,
        0.7057640552520752,
        0.7084468007087708
      ],
      "scale": [
        1.000000238418579,
        4.79055461966027e-10,
        -2.495677264846563e-08
      ],
      "translation": [
        13.616192817687988,
        14.995314598083496,
        -1.9073486328125e-06
      ]
    },
    {
      "name": "Bip01 R Toe0Nub",
      "rotation": [
        1.6370904631912708e-11,
        -8.08597633294994e-12,
        3.036637543584131e-20,
        1.0
      ],
      "scale": [
        0.9999999403953552,
        3.4557538040934114e-19,
        3.783469537665951e-09
      ],
      "translation": [
        11.541619300842285,
        1.4901161193847656e-08,
        0.0
      ]
    },
    {
      "children": [
        10
      ],
      "name": "Bip01 L Thigh",
      "rotation": [
        -0.04179628565907478,
        0.9790624976158142,
        0.18982629477977753,
        -0.06046249344944954
      ],
      "scale": [
        1.0,
        1.8411996371980877e-09,
        2.0201927242169404e-08
      ],
      "translation": [
        -1.52587890625e-05,
        1.9371509552001953e-05,
        10.69940185546875
      ]
    },
    {
      "children": [
        11
      ],
      "name": "Bip01 L Calf",
      "rotation": [
        -1.2107189917287542e-08,
        7.454437955800586e-09,
        -0.0005179680301807821,
        0.9999998807907104
      ],
      "scale": [
        1.000000238418579,
        -1.4155274175031707e-11,
        -4.827760587133856e-12
      ],
      "translation": [
        47.20613479614258,
        2.384185791015625e-07,
        0.0
      ]
    },
    {
      "children": [
        12
      ],
      "name": "Bip01 L Foot",
      "rotation": [
        -0.009553435258567333,
        -0.06756112724542618,
        0.02891038917005062,
        0.9972504377365112
      ],
      "scale": [
        1.0000001192092896,
        -6.369448612986162e-08,
        -1.071599164959025e-08
      ],
      "translation": [
        44.07231903076172,
        1.6689300537109375e-06,
        0.0
      ]
    },
    {
      "children": [
        13
      ],
      "name": "Bip01 L Toe0",
      "rotation": [
        -9.808895917728933e-09,
        -2.117682207369853e-08,
        0.7057642340660095,
        0.7084468603134155
      ],
      "scale": [
        1.000000238418579,
        4.72349714897291e-10,
        1.006024685779039e-08
      ],
      "translation": [
        13.616192817687988,
        14.995314598083496,
        0.0
      ]
    },
    {
      "name": "Bip01 L Toe0Nub",
      "rotation": [
        1.2732926692182733e-11,
        8.363087999896379e-12,
        1.1641532182693481e-10,
        1.0
      ],
      "scale": [
        0.9999999403953552,
        -2.3283062977608182e-10,
        3.7748435488538234e-09
      ],
      "translation": [
        11.541621208190918,
        0.0,
        1.9073486328125e-06
      ]
    },
    {
      "children": [
        15,
        18,
        21,
        24,
        27
      ],
      "name": "Bip01 Spine",
      "rotation": [
        -2.0804759515158366e-06,
        -6.936760428288835e-07,
        0.0003981590270996094,
        0.9999999403953552
      ],
      "scale": [
        1.0,
        -6.39742148145217e-11,
        1.156542089609516e-14
      ],
      "translation": [
        2.840728759765625,
        -0.718707799911499,
        5.904585123062134e-06
      ]
    },
    {
      "children": [
        16
      ],
      "name": "Bone11",
      "rotation": [
        6.153543807840833e-08,
        -4.961988793183991e-07,
        0.9923979043960571,
        -0.1230708584189415
      ],
      "scale": [
        1.0000001192092896,
        1.098952040479162e-10,
        5.997315139080403e-16
      ],
      "translation": [
        13.543373107910156,
        -9.46330738067627,
        -0.05017900839447975
      ]
    },
    {
      "children": [
        17
      ],
      "name": "Bone12",
      "rotation": [
        -1.5098963678200454e-14,
        -1.4197219178817104e-14,
        0.0030554858967661858,
        0.9999953508377075
      ],
      "scale": [
        1.0000001192092896,
        -7.289024495094054e-09,
        1.196710779542435e-16
      ],
      "translation": [
        23.54247283935547,
        0.0,
        0.0
      ]
    },
    {
      "name": "Bone13",
      "rotation": [
        1.2434497875801753e-14,
        6.617444900424221e-23,
        7.450580596923828e-09,
        1.0
      ],
      "scale": [
        1.0,
        2.256949153578792e-36,
        -5.293955920339377e-23
      ],
      "translation": [
        27.9842529296875,
        3.814697265625e-06,
        3.637978807091713e-12
      ]
    },
    {
      "children": [
        19
      ],
      "name": "Bone09",
      "rotation": [
        1.73600284369968e-07,
        1.5149014132020966e-07,
        0.9976951479911804,
        0.06785581260919571
      ],
      "scale": [
        1.0000001192092896,
        -8.070292878414875e-09,
        -3.4697566271991304e-14
      ],
      "translation": [
        10.042915344238281,
        13.947978973388672,
        -0.050095003098249435
      ]
    },
    {
      "children": [
        20
      ],
      "name": "Bone10",
      "rotation": [
        -9.744369516200089e-15,
        -7.140484357221963e-15,
        -0.003592998720705509,
        0.9999935626983643
      ],
      "scale": [
        1.0000001192092896,
        3.7333247604465214e-11,
        -1.4350901448635135e-14
      ],
      "translation": [
        28.00334930419922,
        5.7220458984375e-06,
        0.0
      ]
    },
    {
      "name": "Bone10-1",
      "rotation": [
        -5.773159728050814e-14,
        -7.105427357601002e-15,
        -3.725290298461914e-09,
        1.0
      ],
      "scale": [
        1.0,
        -7.450580596923828e-09,
        -1.4210854715202004e-14
      ],
      "translation": [
        26.25847625732422,
        -1.9073486328125e-06,
        -3.637978807091713e-12
      ]
    },
    {
      "children": [
        22
      ],
      "name": "Bone14",
      "rotation": [
        0.08666575700044632,
        0.701775848865509,
        0.701775312423706,
        -0.08666671067476273
      ],
      "scale": [
        0.8054580092430115,
        7.858964146123526e-09,
        2.963487441554058e-11
      ],
      "translation": [
        13.395828247070313,
        1.2645529508590698,
        14.345704078674316
      ]
    },
    {
      "children": [
        23
      ],
      "name": "Bone15",
      "rotation": [
        -1.555932683042216e-12,
        -6.633184019416705e-12,
        0.03984395042061806,
        0.9992058873176575
      ],
      "scale": [
        1.2162789106369019,
        1.9599845302309404e-08,
        1.3131844570080098e-11
      ],
      "translation": [
        23.612510681152344,
        0.0,
        3.725290298461914e-09
      ]
    },
    {
      "name": "Bone16",
      "rotation": [
        -1.357709959014046e-19,
        1.0849696141512766e-11,
        -4.151324173307103e-09,
        1.0
      ],
      "scale": [
        0.44868701696395874,
        -1.1175870895385742e-08,
        -4.81568127388976e-12
      ],
      "translation": [
        25.08246612548828,
        0.0,
        2.998858690261841e-06
      ]
    },
    {
      "children": [
        25
      ],
      "name": "Bone17",
      "rotation": [
        -0.0866476371884346,
        -0.7017777562141418,
        0.701777994632721,
        -0.08664760738611221
      ],
      "scale": [
        0.8054590821266174,
        -1.2286900386015986e-08,
        2.9737670659280013e-12
      ],
      "translation": [
        13.395820617675781,
        1.264591932296753,
        -14.413758277893066
      ]
    },
    {
      "children": [
        26
      ],
      "name": "Bone18",
      "rotation": [
        -2.5450848026298267e-12,
        -5.2503678488191596e-11,
        0.03984794765710831,
        0.9992057681083679
      ],
      "scale": [
        1.2162790298461914,
        1.4853839047646034e-08,
        -1.2737011445551616e-10
      ],
      "translation": [
        23.612518310546875,
        0.0,
        -3.725290298461914e-09
      ]
    },
    {
      "name": "Bone19",
      "rotation": [
        1.0849696141512766e-11,
        -1.0849696141512766e-11,
        -8.302649234792625e-09,
        1.0
      ],
      "scale": [
        0.44868698716163635,
        -7.450581485102248e-09,
        4.815680406528022e-12
      ],
      "translation": [
        25.08246612548828,
        0.0,
        3.0025839805603027e-06
      ]
    },
    {
      "children": [
        28
      ],
      "name": "Bip01 Spine1",
      "rotation": [
        -8.440914389977114e-14,
        7.659865985942815e-08,
        -0.02761705219745636,
        0.9996185898780823
      ],
      "scale": [
        1.0000001192092896,
        4.286548616061481e-10,
        -3.295177758110804e-15
      ],
      "translation": [
        15.780479431152344,
        -0.012592077255249023,
        -3.725290298461914e-08
      ]
    },
    {
      "children": [
        29
      ],
      "name": "Bip01 Spine2",
      "rotation": [
        5.3575359074261794e-15,
        2.855335878848564e-07,
        -0.10294689983129501,
        0.9946868419647217
      ],
      "scale": [
        1.0000001192092896,
        1.6963639382083784e-08,
        8.187289178053243e-15
      ],
      "translation": [
        15.835281372070313,
        -0.013475418090820313,
        -3.725290298461914e-08
      ]
    },
    {
      "children": [
        30,
        52,
        82
      ],
      "name": "Bip01 Neck",
      "rotation": [
        0.0,
        -7.014888296907884e-07,
        0.2529163062572479,
        0.967488169670105
      ],
      "scale": [
        1.0,
        -3.2350353507126783e-08,
        -1.0704649921469342e-13
      ],
      "translation": [
        18.435470581054688,
        -0.008853912353515625,
        -2.2351741790771484e-08
      ]
    },
    {
      "children": [
        31,
        33,
        37
      ],
      "name": "Bip01 R Clavicle",
      "rotation": [
        -0.4834083318710327,
        0.19029393792152405,
        0.8352445960044861,
        0.18019743263721466
      ],
      "scale": [
        1.0,
        -7.3352843799057155e-09,
        -2.4128130604594844e-08
      ],
      "translation": [
        -1.1898956298828125,
        -0.19192123413085938,
        -4.6038665771484375
      ]
    },
    {
      "children": [
        32
      ],
      "name": "sh_bone03",
      "rotation": [
        -0.7829572558403015,
        0.1835324764251709,
        0.13405589759349823,
        0.5790706872940063
      ],
      "scale": [
        1.0000001192092896,
        -2.348888905601143e-08,
        2.6717352774596748e-09
      ],
      "translation": [
        4.008125305175781,
        -1.2899627685546875,
        -3.587188720703125
      ]
    },
    {
      "name": "sh_bone04",
      "rotation": [
        7.105427357601002e-15,
        -1.1368683772161603e-13,
        -1.3126645462877636e-27,
        1.0
      ],
      "scale": [
        1.0,
        6.664296927307108e-27,
        8.526512829121202e-14
      ],
      "translation": [
        31.181865692138672,
        0.0,
        0.0
      ]
    },
    {
      "children": [
        34
      ],
      "name": "Bone05",
      "rotation": [
        -0.16402973234653473,
        -0.4725874960422516,
        0.12545709311962128,
        0.8567472696304321
      ],
      "scale": [
        0.900968074798584,
        3.6499930189393126e-08,
        -7.279196356790862e-09
      ],
      "translation": [
        5.758636474609375,
        8.408039093017578,
        -7.787078857421875
      ]
    },
    {
      "children": [
        35
      ],
      "name": "Bone06",
      "rotation": [
        1.0158460184150897e-10,
        -2.5440602957615965e-09,
        -0.021625809371471405,
        0.9997661113739014
      ],
      "scale": [
        1.194229006767273,
        2.577394742075967e-09,
        1.3808669763193393e-09
      ],
      "translation": [
        39.820037841796875,
        -7.62939453125e-06,
        3.814697265625e-06
      ]
    },
    {
      "children": [
        36
      ],
      "name": "Bone07",
      "rotation": [
        4.11397166333316e-11,
        -2.794271480865973e-09,
        -0.00610846234485507,
        0.9999813437461853
      ],
      "scale": [
        0.9999997615814209,
        6.31569019304834e-09,
        5.587935003603661e-09
      ],
      "translation": [
        30.00074005126953,
        6.4849853515625e-05,
        3.814697265625e-06
      ]
    },
    {
      "name": "Bone08",
      "rotation": [
        -1.1641532182693481e-10,
        -1.8626450382086546e-09,
        3.725290076417309e-09,
        1.0
      ],
      "scale": [
        1.0000001192092896,
        -4.458239333260394e-16,
        -3.725290742551124e-09
      ],
      "translation": [
        29.235107421875,
        -5.7220458984375e-06,
        1.9073486328125e-06
      ]
    },
    {
      "children": [
        38
      ],
      "name": "Bip01 R UpperArm",
      "rotation": [
        -0.07118099182844162,
        -0.23287540674209595,
        0.025725072249770164,
        0.9695568680763245
      ],
      "scale": [
        1.0000001192092896,
        -6.394881069127223e-09,
        4.514819096357314e-08
      ],
      "translation": [
        19.847068786621094,
        0.0,
        -1.52587890625e-05
      ]
    },
    {
      "children": [
        39
      ],
      "name": "Bip01 R ForeArm",
      "rotation": [
        5.6070720982903666e-12,
        2.235453955279354e-08,
        -0.0007525666151195765,
        0.9999997019767761
      ],
      "scale": [
        1.0,
        3.7252865237036303e-09,
        -1.4895572775230903e-08
      ],
      "translation": [
        27.864288330078125,
        -9.5367431640625e-07,
        -7.62939453125e-06
      ]
    },
    {
      "children": [
        40,
        44,
        48
      ],
      "name": "Bip01 R Hand",
      "rotation": [
        0.6610820293426514,
        0.049675352871418,
        0.038034990429878235,
        0.7477006316184998
      ],
      "scale": [
        0.9999999403953552,
        3.478810484125461e-08,
        -4.591268254472425e-09
      ],
      "translation": [
        25.690662384033203,
        0.0,
        0.0
      ]
    },
    {
      "children": [
        41
      ],
      "name": "Bip01 R Finger2",
      "rotation": [
        -0.028132770210504532,
        -0.005823914892971516,
        0.2920496463775635,
        0.9559715390205383
      ],
      "scale": [
        1.0,
        5.176795880856844e-09,
        1.1402381261405026e-08
      ],
      "translation": [
        11.659988403320313,
        -0.431396484375,
        -1.1205430030822754
      ]
    },
    {
      "children": [
        42
      ],
      "name": "Bip01 R Finger21",
      "rotation": [
        2.3161669804316887e-10,
        1.876678368262219e-09,
        0.10198190063238144,
        0.994786262512207
      ],
      "scale": [
        1.0,
        -2.497404061330144e-09,
        -3.874411902415886e-11
      ],
      "translation": [
        4.448204040527344,
        3.814697265625e-06,
        9.5367431640625e-07
      ]
    },
    {
      "children": [
        43
      ],
      "name": "Bip01 R Finger22",
      "rotation": [
        0.0,
        1.8551490343909904e-09,
        0.0896250382065773,
        0.9959755539894104
      ],
      "scale": [
        1.0,
        -4.020630051115859e-09,
        -2.9923841182721844e-11
      ],
      "translation": [
        3.6346359252929688,
        0.0,
        -9.5367431640625e-07
      ]
    },
    {
      "name": "Bip01 R Finger2Nub",
      "rotation": [
        -1.3877787807814457e-17,
        1.8626450382086546e-09,
        7.4505797087454084e-09,
        1.0
      ],
      "scale": [
        1.0000001192092896,
        -1.4901162970204496e-08,
        -2.498001805406602e-16
      ],
      "translation": [
        3.87054443359375,
        -3.814697265625e-06,
        0.0
      ]
    },
    {
      "children": [
        45
      ],
      "name": "Bip01 R Finger1",
      "rotation": [
        -0.07368870079517365,
        -0.03421925753355026,
        0.29757359623908997,
        0.9512354731559753
      ],
      "scale": [
        0.9999999403953552,
        -1.2231342338964168e-07,
        -1.5051156765366613e-08
      ],
      "translation": [
        11.491893768310547,
        -0.25464630126953125,
        4.704718112945557
      ]
    },
    {
      "children": [
        46
      ],
      "name": "Bip01 R Finger11",
      "rotation": [
        -2.8965621012844167e-09,
        6.560927356957791e-10,
        0.0949033722281456,
        0.9954864978790283
      ],
      "scale": [
        1.0000001192092896,
        -3.3704417035096412e-09,
        -3.731885911406607e-09
      ],
      "translation": [
        4.719993591308594,
        -3.814697265625e-06,
        -9.5367431640625e-07
      ]
    },
    {
      "children": [
        47
      ],
      "name": "Bip01 R Finger12",
      "rotation": [
        -5.419185655775038e-10,
        -3.1422677793102594e-09,
        0.08288811892271042,
        0.9965588450431824
      ],
      "scale": [
        1.0000001192092896,
        4.997657399030686e-09,
        6.865442436776448e-09
      ],
      "translation": [
        3.115997314453125,
        0.0,
        9.5367431640625e-07
      ]
    },
    {
      "name": "Bip01 R Finger1Nub",
      "rotation": [
        -1.1641532182693481e-09,
        -1.862645149230957e-09,
        -3.469447779134227e-18,
        1.0
      ],
      "scale": [
        0.9999999403953552,
        -8.271804153378014e-25,
        3.725290076417309e-09
      ],
      "translation": [
        3.9604110717773438,
        0.0,
        0.0
      ]
    },
    {
      "children": [
        49
      ],
      "name": "Bip01 R Finger0",
      "rotation": [
        -0.6359974145889282,
        -0.3162306547164917,
        -0.06964925676584244,
        0.7004672884941101
      ],
      "scale": [
        1.0,
        -3.218080379951971e-08,
        -4.425968569421457e-08
      ],
      "translation": [
        0.6864471435546875,
        2.5254974365234375,
        2.747166633605957
      ]
    },
    {
      "children": [
        50
      ],
      "name": "Bip01 R Finger01",
      "rotation": [
        -4.022627564381764e-09,
        -7.281983460671881e-09,
        0.2805599272251129,
        0.959836483001709
      ],
      "scale": [
        1.0000001192092896,
        -6.834036270220167e-08,
        3.1793079280362235e-09
      ],
      "translation": [
        5.109413146972656,
        3.814697265625e-06,
        -7.62939453125e-06
      ]
    },
    {
      "children": [
        51
      ],
      "name": "Bip01 R Finger02",
      "rotation": [
        -1.3909120522015428e-09,
        -4.336851364139527e-11,
        0.09313317388296127,
        0.9956536889076233
      ],
      "scale": [
        1.0,
        6.434323656417232e-19,
        1.727200604761947e-10
      ],
      "translation": [
        3.5312347412109375,
        2.384185791015625e-07,
        0.0
      ]
    },
    {
      "name": "Bip01 R Finger0Nub",
      "rotation": [
        9.313225746154785e-10,
        3.725290298461914e-09,
        -6.938894731087841e-18,
        1.0
      ],
      "scale": [
        1.0,
        0.0,
        -7.450580596923828e-09
      ],
      "translation": [
        5.245460510253906,
        1.9073486328125e-06,
        0.0
      ]
    },
    {
      "children": [
        53,
        55,
        59
      ],
      "name": "Bip01 L Clavicle",
      "rotation": [
        0.4834088087081909,
        -0.1902962327003479,
        0.8352440595626831,
        0.18019607663154602
      ],
      "scale": [
        1.0000001192092896,
        -1.2979469055096615e-08,
        4.347586823882921e-08
      ],
      "translation": [
        -1.1898956298828125,
        -0.19194793701171875,
        4.6038665771484375
      ]
    },
    {
      "children": [
        54
      ],
      "name": "sh_bone01",
      "rotation": [
        0.782957911491394,
        -0.18353264033794403,
        0.1340528279542923,
        0.5790703892707825
      ],
      "scale": [
        1.0,
        4.499883488051637e-08,
        1.1115445452958284e-08
      ],
      "translation": [
        4.0081024169921875,
        -1.2900161743164063,
        3.58709716796875
      ]
    },
    {
      "name": "sh_bone02",
      "rotation": [
        -4.235164736271502e-22,
        6.661338147750939e-16,
        -1.862645149230957e-09,
        1.0
      ],
      "scale": [
        1.0,
        -3.786533548767072e-29,
        9.325872559818368e-15
      ],
      "translation": [
        31.181861877441406,
        0.0,
        0.0
      ]
    },
    {
      "children": [
        56
      ],
      "name": "Bone01",
      "rotation": [
        0.16403093934059143,
        0.4725886285305023,
        0.12545479834079742,
        0.8567466735839844
      ],
      "scale": [
        0.9009680151939392,
        9.594103289600753e-09,
        -5.473359721008819e-08
      ],
      "translation": [
        5.879570007324219,
        8.388134002685547,
        7.8505859375
      ]
    },
    {
      "children": [
        57
      ],
      "name": "Bone02",
      "rotation": [
        1.1637845548362336e-10,
        2.071794341987343e-12,
        -0.02162281423807144,
        0.9997662305831909
      ],
      "scale": [
        1.1942291259765625,
        2.5770376943512474e-09,
        1.0957626299379353e-11
      ],
      "translation": [
        39.82002258300781,
        0.0,
        1.9073486328125e-06
      ]
    },
    {
      "children": [
        58
      ],
      "name": "Bone03",
      "rotation": [
        8.796841727276572e-11,
        9.320162419612643e-10,
        -0.006108459550887346,
        0.9999813437461853
      ],
      "scale": [
        0.9999999403953552,
        2.9968407755376347e-09,
        9.315653137775826e-09
      ],
      "translation": [
        30.000732421875,
        6.866455078125e-05,
        1.9073486328125e-06
      ]
    },
    {
      "name": "Bone04",
      "rotation": [
        1.7462298274040222e-10,
        -9.313225191043273e-10,
        0.0,
        1.0
      ],
      "scale": [
        1.0,
        1.3010426069826053e-18,
        1.862645371275562e-09
      ],
      "translation": [
        29.23509979248047,
        -5.7220458984375e-06,
        1.9073486328125e-06
      ]
    },
    {
      "children": [
        60
      ],
      "name": "Bip01 L UpperArm",
      "rotation": [
        0.07826431095600128,
        0.24452170729637146,
        0.0608464740216732,
        0.9645628929138184
      ],
      "scale": [
        1.0,
        2.611893368253959e-09,
        2.900654472171027e-08
      ],
      "translation": [
        19.847057342529297,
        0.0,
        0.0
      ]
    },
    {
      "children": [
        61
      ],
      "name": "Bip01 L ForeArm",
      "rotation": [
        4.989350599338138e-10,
        1.514227321308681e-08,
        -0.03348296880722046,
        0.9994392991065979
      ],
      "scale": [
        1.0,
        4.515197534402918e-16,
        -2.9303667048452553e-08
      ],
      "translation": [
        27.864295959472656,
        -4.76837158203125e-07,
        -7.62939453125e-06
      ]
    },
    {
      "children": [
        62,
        66,
        70,
        74,
        78
      ],
      "name": "Bip01 L Hand",
      "rotation": [
        -0.7916519641876221,
        0.005645343568176031,
        0.026196429505944252,
        0.6103843450546265
      ],
      "scale": [
        1.0,
        -2.4153012923022743e-09,
        1.529113902165591e-08
      ],
      "translation": [
        26.83318328857422,
        9.5367431640625e-07,
        0.0
      ]
    },
    {
      "children": [
        63
      ],
      "name": "Bone24",
      "rotation": [
        0.9594857692718506,
        0.23988209664821625,
        0.14512714743614197,
        0.02795644849538803
      ],
      "scale": [
        0.2124830186367035,
        5.41137024079319e-10,
        1.1067619709592691e-08
      ],
      "translation": [
        13.973506927490234,
        0.0212860107421875,
        5.0472869873046875
      ]
    },
    {
      "children": [
        64
      ],
      "name": "Bone25",
      "rotation": [
        1.4914920711817103e-06,
        -2.5261263658649113e-07,
        -0.17107336223125458,
        0.9852582812309265
      ],
      "scale": [
        0.8113710284233093,
        -2.0092935315574323e-08,
        4.579964851814111e-09
      ],
      "translation": [
        24.451416015625,
        1.52587890625e-05,
        -3.814697265625e-06
      ]
    },
    {
      "children": [
        65
      ],
      "name": "Bone26",
      "rotation": [
        1.6635016919508416e-08,
        -9.38918054416149e-10,
        -0.05949483811855316,
        0.9982286095619202
      ],
      "scale": [
        1.3532021045684814,
        -3.7307241740336394e-08,
        -2.593510117776532e-08
      ],
      "translation": [
        23.8511962890625,
        1.52587890625e-05,
        0.0
      ]
    },
    {
      "name": "Bone27",
      "rotation": [
        1.1718078951616917e-08,
        3.261195535841921e-09,
        -1.7976407917785764e-08,
        1.0
      ],
      "scale": [
        0.7159860134124756,
        -4.060602964983673e-09,
        -9.179934035152826e-10
      ],
      "translation": [
        24.52044677734375,
        -3.0517578125e-05,
        -3.814697265625e-06
      ]
    },
    {
      "children": [
        67
      ],
      "name": "Bone20",
      "rotation": [
        0.9581796526908875,
        0.2536081075668335,
        0.12814192473888397,
        0.03397578373551369
      ],
      "scale": [
        0.22892999649047852,
        -1.1997773441407844e-08,
        -1.0609388922944163e-08
      ],
      "translation": [
        14.627593994140625,
        0.3095855712890625,
        1.188894271850586
      ]
    },
    {
      "children": [
        68
      ],
      "name": "Bone21",
      "rotation": [
        1.4816407656326191e-06,
        -1.8964408354804618e-07,
        -0.1265542209148407,
        0.9919596910476685
      ],
      "scale": [
        0.8113710880279541,
        5.877797804032525e-08,
        -9.923309951531678e-10
      ],
      "translation": [
        24.45147705078125,
        3.0517578125e-05,
        0.0
      ]
    },
    {
      "children": [
        69
      ],
      "name": "Bone22",
      "rotation": [
        9.47528189243485e-09,
        1.607705746309307e-09,
        -0.06595506519079208,
        0.9978225827217102
      ],
      "scale": [
        1.353202223777771,
        -7.845336824630067e-09,
        4.4503956075914175e-10
      ],
      "translation": [
        23.85125732421875,
        7.62939453125e-06,
        3.814697265625e-06
      ]
    },
    {
      "name": "Bone23",
      "rotation": [
        -4.63840610365196e-09,
        -1.630597878943263e-09,
        -1.0917862606497581e-17,
        1.0
      ],
      "scale": [
        0.7159860134124756,
        -8.094198040305953e-18,
        1.3903196371956028e-09
      ],
      "translation": [
        24.52044677734375,
        -1.52587890625e-05,
        0.0
      ]
    },
    {
      "children": [
        71
      ],
      "name": "Bip01 L Finger2",
      "rotation": [
        -0.046775829046964645,
        -0.09146642684936523,
        0.2815311849117279,
        0.9540367126464844
      ],
      "scale": [
        0.9999999403953552,
        -6.49550955245104e-08,
        -1.3509870555594716e-08
      ],
      "translation": [
        14.496322631835938,
        -0.7662353515625,
        -2.5844573974609375
      ]
    },
    {
      "children": [
        72
      ],
      "name": "Bip01 L Finger21",
      "rotation": [
        -1.6137517988568106e-08,
        4.405950715380413e-09,
        0.14005015790462494,
        0.9901444315910339
      ],
      "scale": [
        1.0,
        2.960528116721753e-16,
        5.794598134656326e-09
      ],
      "translation": [
        6.126617431640625,
        -3.814697265625e-06,
        -1.9073486328125e-06
      ]
    },
    {
      "children": [
        73
      ],
      "name": "Bip01 L Finger22",
      "rotation": [
        5.562810212467184e-09,
        6.192363843915416e-10,
        0.0947219580411911,
        0.9955037832260132
      ],
      "scale": [
        1.0000001192092896,
        -4.72941046325559e-08,
        -3.5462255354445915e-09
      ],
      "translation": [
        6.1266021728515625,
        -5.7220458984375e-06,
        -1.9073486328125e-06
      ]
    },
    {
      "name": "Bip01 L Finger2Nub",
      "rotation": [
        -6.0535962909114005e-09,
        -9.313225746154785e-10,
        7.4505797087454084e-09,
        1.0
      ],
      "scale": [
        1.0000001192092896,
        1.4901162970204496e-08,
        9.313225746154785e-09
      ],
      "translation": [
        6.55322265625,
        0.0,
        1.9073486328125e-06
      ]
    },
    {
      "children": [
        75
      ],
      "name": "Bip01 L Finger1",
      "rotation": [
        -0.00252540223300457,
        0.0103805772960186,
        0.2603495419025421,
        0.9654552936553955
      ],
      "scale": [
        0.9999999403953552,
        -6.734294011323527e-09,
        -2.4797389031050443e-08
      ],
      "translation": [
        15.204154968261719,
        0.3554534912109375,
        -5.880043029785156
      ]
    },
    {
      "children": [
        76
      ],
      "name": "Bip01 L Finger11",
      "rotation": [
        2.419503659922828e-11,
        1.4280553628509551e-08,
        0.1432468742132187,
        0.9896869659423828
      ],
      "scale": [
        1.0,
        2.8579254518490416e-08,
        -4.624618199500219e-08
      ],
      "translation": [
        5.4831085205078125,
        3.814697265625e-06,
        0.0
      ]
    },
    {
      "children": [
        77
      ],
      "name": "Bip01 L Finger12",
      "rotation": [
        4.848708989868555e-09,
        -7.594718631764863e-09,
        0.09576985985040665,
        0.995403528213501
      ],
      "scale": [
        1.0,
        1.1364180707573723e-08,
        -1.6048341322516535e-08
      ],
      "translation": [
        5.0538330078125,
        -7.62939453125e-06,
        -3.814697265625e-06
      ]
    },
    {
      "name": "Bip01 L Finger1Nub",
      "rotation": [
        -1.30385160446167e-08,
        0.0,
        -9.71445146547012e-17,
        1.0
      ],
      "scale": [
        1.0,
        -5.551115123125783e-17,
        1.4901161193847656e-08
      ],
      "translation": [
        6.538970947265625,
        0.0,
        -3.814697265625e-06
      ]
    },
    {
      "children": [
        79
      ],
      "name": "Bip01 L Finger0",
      "rotation": [
        0.6419492959976196,
        0.36710938811302185,
        -0.010143228806555271,
        0.6730742454528809
      ],
      "scale": [
        1.0,
        -1.539798404337489e-07,
        -4.864381253355532e-08
      ],
      "translation": [
        2.7255325317382813,
        1.5828857421875,
        -4.528717041015625
      ]
    },
    {
      "children": [
        80
      ],
      "name": "Bip01 L Finger01",
      "rotation": [
        3.2692646367848965e-09,
        1.4123232583429512e-09,
        0.22189922630786896,
        0.9750695824623108
      ],
      "scale": [
        1.0000001192092896,
        -1.074454303306993e-09,
        -1.7323120715673213e-08
      ],
      "translation": [
        9.032470703125,
        0.0,
        3.814697265625e-06
      ]
    },
    {
      "children": [
        81
      ],
      "name": "Bip01 L Finger02",
      "rotation": [
        6.4918466158303545e-09,
        6.213337622185122e-10,
        0.2522697448730469,
        0.9676569700241089
      ],
      "scale": [
        1.0000001192092896,
        -2.291791290076617e-08,
        1.6523734602813533e-09
      ],
      "translation": [
        5.888343811035156,
        0.0,
        0.0
      ]
    },
    {
      "name": "Bip01 L Finger0Nub",
      "rotation": [
        3.841705620288849e-09,
        -9.313225746154785e-10,
        -3.725290298461914e-09,
        1.0
      ],
      "scale": [
        0.9999999403953552,
        7.450580152834618e-09,
        2.7939677238464355e-09
      ],
      "translation": [
        6.949531555175781,
        0.0,
        3.814697265625e-06
      ]
    },
    {
      "children": [
        83,
        89
      ],
      "name": "Bip01 Head",
      "rotation": [
        1.1729136271173418e-13,
        -8.242811588843324e-08,
        0.029718119651079178,
        0.9995583295822144
      ],
      "scale": [
        1.0,
        3.311319218823883e-08,
        6.819406015356674e-14
      ],
      "translation": [
        11.440719604492188,
        3.814697265625e-06,
        -3.725290298461914e-09
      ]
    },
    {
      "children": [
        84
      ],
      "name": "Bip01 Ponytail1",
      "rotation": [
        1.9353763383578304e-12,
        -2.7697305995388888e-06,
        0.9986048936843872,
        0.05280369892716408
      ],
      "scale": [
        0.9999999403953552,
        -1.4819683258338046e-08,
        6.7279454305912284e-15
      ],
      "translation": [
        9.20233154296875,
        -10.642349243164063,
        -2.568960189819336e-05
      ]
    },
    {
      "children": [
        85
      ],
      "name": "Bip01 Ponytail11",
      "rotation": [
        -3.6002315495151094e-13,
        -4.491429024255922e-07,
        0.1619349718093872,
        0.9868014454841614
      ],
      "scale": [
        1.0,
        1.9049236854584706e-08,
        -1.3492581617952082e-13
      ],
      "translation": [
        13.133529663085938,
        -0.009552001953125,
        -2.60770320892334e-08
      ]
    },
    {
      "children": [
        86
      ],
      "name": "Bip01 Ponytail12",
      "rotation": [
        3.815312052835723e-13,
        4.4504284346658096e-07,
        -0.16045671701431274,
        0.9870429039001465
      ],
      "scale": [
        1.0000001192092896,
        1.254739584802267e-13,
        -2.0582590265407624e-13
      ],
      "translation": [
        12.648155212402344,
        -0.0103302001953125,
        -3.3527612686157227e-08
      ]
    },
    {
      "children": [
        87
      ],
      "name": "Bip01 Ponytail13",
      "rotation": [
        -3.492093224831405e-13,
        2.1424625629151706e-07,
        -0.0772448256611824,
        0.9970121383666992
      ],
      "scale": [
        0.9999999403953552,
        1.472335142693737e-08,
        1.1432892935321626e-13
      ],
      "translation": [
        13.685089111328125,
        -0.010768890380859375,
        -2.60770320892334e-08
      ]
    },
    {
      "children": [
        88
      ],
      "name": "Bip01 Ponytail14",
      "rotation": [
        -3.3316029276998175e-16,
        6.56676988342042e-08,
        -0.02367597632110119,
        0.9997196793556213
      ],
      "scale": [
        1.0000001192092896,
        -1.0263832450618793e-08,
        -6.327594291631947e-14
      ],
      "translation": [
        13.686225891113281,
        -0.01088714599609375,
        -3.3527612686157227e-08
      ]
    },
    {
      "name": "Bip01 Ponytail1Nub",
      "rotation": [
        0.7073882222175598,
        0.7068251967430115,
        9.80225195235107e-07,
        -9.810059964365792e-07
      ],
      "scale": [
        1.0,
        -1.8537507640026263e-10,
        -8.242235019495503e-14
      ],
      "translation": [
        13.686767578125,
        0.0,
        0.0
      ]
    },
    {
      "name": "Bip01 HeadNub",
      "rotation": [
        -2.1316282072803006e-14,
        -2.1175826205712405e-22,
        7.450580596923828e-09,
        1.0
      ],
      "scale": [
        1.0,
        1.4901161193847656e-08,
        4.235164736271502e-22
      ],
      "translation": [
        22.007568359375,
        3.814697265625e-06,
        0.0
      ]
    }
  ],
  "scene": 0,
  "scenes": [
    {
      "nodes": [
        0
      ]
    }
  ],
  "skins": [
    {
      "inverseBindMatrices": 4,
      "joints": [
        2,
        3,
        4,
        5,
        6,
        7,
        8,
        9,
        10,
        11,
        12,
        13,
        14,
        15,
        16,
        17,
        18,
        19,
        20,
        21,
        22,
        23,
        24,
        25,
        26,
        27,
        28,
        29,
        30,
        31,
        32,
        33,
        34,
        35,
        36,
        37,
        38,
        39,
        40,
        41,
        42,
        43,
        44,
        45,
        46,
        47,
        48,
        49,
        50,
        51,
        52,
        53,
        54,
        55,
        56,
        57,
        58,
        59,
        60,
        61,
        62,
        63,
        64,
        65,
        66,
        67,
        68,
        69,
        70,
        71,
        72,
        73,
        74,
        75,
        76,
        77,
        78,
        79,
        80,
        81,
        82,
        83,
        84,
        85,
        86,
        87,
        88,
        89
      ],
      "skeleton": 2
    }
  ]
}
