{
  "accessors": [
    {
      "bufferView": 0,
      "componentType": 5126,
      "count": 813,
      "max": [
        12.685235023498535,
        18.748249053955078,
        193.0614013671875
      ],
      "min": [
        -13.69651985168457,
        -13.184014320373535,
        167.19224548339844
      ],
      "type": "VEC3"
    },
    {
      "bufferView": 1,
      "componentType": 5126,
      "count": 813,
      "type": "VEC3"
    },
    {
      "bufferView": 2,
      "componentType": 5126,
      "count": 813,
      "type": "VEC2"
    },
    {
      "bufferView": 3,
      "componentType": 5123,
      "count": 3264,
      "type": "SCALAR"
    },
    {
      "bufferView": 4,
      "componentType": 5126,
      "count": 88,
      "type": "MAT4"
    }
  ],
  "asset": {
    "generator": "gr2togltf (ANKA2 Project)",
    "version": "2.0"
  },
  "bufferViews": [
    {
      "buffer": 0,
      "byteLength": 9756,
      "target": 34962
    },
    {
      "buffer": 0,
      "byteLength": 9756,
      "byteOffset": 9756,
      "target": 34962
    },
    {
      "buffer": 0,
      "byteLength": 6504,
      "byteOffset": 19512,
      "target": 34962
    },
    {
      "buffer": 0,
      "byteLength": 6528,
      "byteOffset": 26016,
      "target": 34963
    },
    {
      "buffer": 0,
      "byteLength": 5632,
      "byteOffset": 32544
    }
  ],
  "buffers": [
    {
      "byteLength": 38176,
      "uri": "data:application/octet-stream;base64,"
    }
  ],
  "materials": [
    {
      "name": "default",
      "pbrMetallicRoughness": {
        "baseColorFactor": [
          0.8,
          0.8,
          0.8,
          1.0
        ],
        "metallicFactor": 0.0,
        "roughnessFactor": 0.8
      }
    }
  ],
  "meshes": [
    {
      "name": "hair_84_1",
      "primitives": [
        {
          "attributes": {
            "NORMAL": 1,
            "POSITION": 0,
            "TEXCOORD_0": 2
          },
          "indices": 3,
          "material": 0,
          "mode": 4
        }
      ]
    }
  ],
  "nodes": [
    {
      "children": [
        1,
        2
      ]
    },
    {
      "mesh": 0,
      "name": "hair_84_1",
      "skin": 0
    },
    {
      "children": [
        3
      ],
      "name": "Bip01",
      "rotation": [
        0.0,
        0.0,
        0.0,
        1.0000001192092896
      ],
      "scale": [
        1.0,
        0.0,
        0.0
      ],
      "translation": [
        1.430511474609375e-06,
        -1.1175870895385742e-08,
        0.0
      ]
    },
    {
      "children": [
        4,
        5,
        8
      ],
      "name": "Bip01 Pelvis",
      "rotation": [
        -0.499999463558197,
        -0.5000001788139343,
        -0.5000001788139343,
        0.500000536441803
      ],
      "scale": [
        1.0,
        0.0,
        2.2737367544323206e-13
      ],
      "translation": [
        6.330038070678711,
        0.0,
        0.0
      ]
    },
    {
      "children": [
        7
      ],
      "name": "Bip01 R Thigh",
      "rotation": [
        -0.04179610684514046,
        0.9790621399879456,
        -0.18982774019241333,
        0.0604638010263443
      ],
      "scale": [
        1.0000001192092896,
        3.725290298461914e-09,
        -1.4901161193847656e-08
      ],
      "translation": [
        1.52587890625e-05,
        -1.0311603546142578e-05,
        -10.699399948120117
      ]
    },
    {
      "children": [
        6
      ],
      "name": "Bip01 L Thigh",
      "rotation": [
        -0.04179628565907478,
        0.979062557220459,
        0.18982629477977753,
        -0.060462500900030136
      ],
      "scale": [
        1.0,
        3.725290298461914e-09,
        7.450580596923828e-09
      ],
      "translation": [
        -1.52587890625e-05,
        1.9371509552001953e-05,
        10.69940185546875
      ]
    },
    {
      "children": [
        43
      ],
      "name": "Bip01 L Calf",
      "rotation": [
        -4.656611540809763e-09,
        7.959541879765109e-12,
        -0.0005179690779186785,
        0.9999998807907104
      ],
      "scale": [
        1.0,
        -1.979060471057892e-09,
        1.109513522723482e-11
      ],
      "translation": [
        47.20612335205078,
        -4.76837158203125e-07,
        1.9073486328125e-06
      ]
    },
    {
      "children": [
        42
      ],
      "name": "Bip01 R Calf",
      "rotation": [
        -3.4886000754852375e-09,
        3.256284564906453e-12,
        -0.0005179681465961039,
        0.9999998807907104
      ],
      "scale": [
        1.0000001192092896,
        -3.6088749766349792e-09,
        -1.4898263067664175e-08
      ],
      "translation": [
        47.20612335205078,
        0.0,
        1.9073486328125e-06
      ]
    },
    {
      "children": [
        9,
        25,
        26,
        31,
        32
      ],
      "name": "Bip01 Spine",
      "rotation": [
        -2.0804759515158366e-06,
        -6.936760428288835e-07,
        0.0003981590853072703,
        0.9999999403953552
      ],
      "scale": [
        1.0,
        -6.397423563120341e-11,
        -1.1368683772161603e-13
      ],
      "translation": [
        2.840728759765625,
        -0.718707799911499,
        5.904585123062134e-06
      ]
    },
    {
      "children": [
        10
      ],
      "name": "Bip01 Spine1",
      "rotation": [
        -5.5976592447642276e-14,
        7.659902223622339e-08,
        -0.027617184445261955,
        0.9996185898780823
      ],
      "scale": [
        1.0000001192092896,
        6.479148242939236e-16,
        -1.4210854715202004e-14
      ],
      "translation": [
        15.780479431152344,
        -0.012591958045959473,
        -3.725290298461914e-08
      ]
    },
    {
      "children": [
        11
      ],
      "name": "Bip01 Spine2",
      "rotation": [
        -5.000366846931101e-14,
        2.855335878848564e-07,
        -0.10294690728187561,
        0.9946868419647217
      ],
      "scale": [
        1.0,
        1.4901194944627605e-08,
        0.0
      ],
      "translation": [
        15.835281372070313,
        -0.013475418090820313,
        -3.3527612686157227e-08
      ]
    },
    {
      "children": [
        12,
        14,
        41
      ],
      "name": "Bip01 Neck",
      "rotation": [
        -1.0281880869714849e-13,
        -7.014887728473695e-07,
        0.2529163062572479,
        0.967488169670105
      ],
      "scale": [
        1.0,
        -5.960512794445094e-08,
        -1.1368683772161603e-13
      ],
      "translation": [
        18.435455322265625,
        -0.008853912353515625,
        -2.2351741790771484e-08
      ]
    },
    {
      "children": [
        13,
        23,
        34
      ],
      "name": "Bip01 R Clavicle",
      "rotation": [
        -0.48340827226638794,
        0.19029393792152405,
        0.8352445960044861,
        0.18019740283489227
      ],
      "scale": [
        1.0,
        0.0,
        0.0
      ],
      "translation": [
        -1.18988037109375,
        -0.19192123413085938,
        -4.6038665771484375
      ]
    },
    {
      "children": [
        27
      ],
      "name": "Bone05",
      "rotation": [
        -0.16402973234653473,
        -0.472587525844574,
        0.12545710802078247,
        0.8567472100257874
      ],
      "scale": [
        0.900968074798584,
        2.9802322387695313e-08,
        2.9802322387695313e-08
      ],
      "translation": [
        5.758636474609375,
        8.408035278320313,
        -7.787078857421875
      ]
    },
    {
      "children": [
        15,
        16,
        24
      ],
      "name": "Bip01 L Clavicle",
      "rotation": [
        0.4834088683128357,
        -0.1902962625026703,
        0.8352440595626831,
        0.1801961064338684
      ],
      "scale": [
        1.0000001192092896,
        0.0,
        2.9802322387695313e-08
      ],
      "translation": [
        -1.18988037109375,
        -0.19194793701171875,
        4.6038665771484375
      ]
    },
    {
      "children": [
        28
      ],
      "name": "Bone01",
      "rotation": [
        0.16403093934059143,
        0.47258859872817993,
        0.12545476853847504,
        0.8567467331886292
      ],
      "scale": [
        0.9009679555892944,
        2.9802322387695313e-08,
        0.0
      ],
      "translation": [
        5.879570007324219,
        8.388134002685547,
        7.8505859375
      ]
    },
    {
      "children": [
        17
      ],
      "name": "Bip01 L UpperArm",
      "rotation": [
        0.07826441526412964,
        0.24452164769172668,
        0.06084655597805977,
        0.9645628929138184
      ],
      "scale": [
        1.0,
        -2.2351741790771484e-08,
        2.9802322387695313e-08
      ],
      "translation": [
        19.847064971923828,
        0.0,
        0.0
      ]
    },
    {
      "children": [
        18
      ],
      "name": "Bip01 L ForeArm",
      "rotation": [
        -3.2242661873738143e-09,
        2.991033909438556e-08,
        -0.03348296135663986,
        0.9994392991065979
      ],
      "scale": [
        1.0,
        -7.4505797087454084e-09,
        -2.983573565984443e-08
      ],
      "translation": [
        27.864295959472656,
        4.76837158203125e-07,
        0.0
      ]
    },
    {
      "children": [
        19,
        21,
        63,
        67,
        70
      ],
      "name": "Bip01 L Hand",
      "rotation": [
        -0.7916522026062012,
        0.0056453486904501915,
        0.026196448132395744,
        0.6103842854499817
      ],
      "scale": [
        1.0,
        7.450580596923828e-09,
        2.3283064365386963e-08
      ],
      "translation": [
        26.83319091796875,
        -9.5367431640625e-07,
        0.0
      ]
    },
    {
      "children": [
        20
      ],
      "name": "Bone20",
      "rotation": [
        0.9581796526908875,
        0.2536081373691559,
        0.12814189493656158,
        0.03397578001022339
      ],
      "scale": [
        0.22892999649047852,
        -1.3504177331924438e-08,
        -1.4901161193847656e-08
      ],
      "translation": [
        14.627586364746094,
        0.30957794189453125,
        1.1888923645019531
      ]
    },
    {
      "children": [
        39
      ],
      "name": "Bone21",
      "rotation": [
        1.4898434983479092e-06,
        -1.8839070037302008e-07,
        -0.1265542209148407,
        0.9919596910476685
      ],
      "scale": [
        0.8113710880279541,
        4.470347292340193e-08,
        -5.6719642316238605e-09
      ],
      "translation": [
        24.45147705078125,
        0.0,
        0.0
      ]
    },
    {
      "children": [
        22
      ],
      "name": "Bone24",
      "rotation": [
        0.9594858884811401,
        0.23988209664821625,
        0.14512713253498077,
        0.027956444770097733
      ],
      "scale": [
        0.21248303353786469,
        4.656612873077393e-10,
        2.9802322387695313e-08
      ],
      "translation": [
        13.973495483398438,
        0.0212860107421875,
        5.0472869873046875
      ]
    },
    {
      "children": [
        40
      ],
      "name": "Bone25",
      "rotation": [
        1.4824807976765442e-06,
        -2.593182841792441e-07,
        -0.17107336223125458,
        0.9852582812309265
      ],
      "scale": [
        0.8113710880279541,
        -5.960463411724959e-08,
        -6.7800236536186276e-09
      ],
      "translation": [
        24.451416015625,
        1.52587890625e-05,
        0.0
      ]
    },
    {
      "children": [
        44
      ],
      "name": "sh_bone03",
      "rotation": [
        -0.7829574346542358,
        0.1835324913263321,
        0.13405591249465942,
        0.5790706276893616
      ],
      "scale": [
        1.0,
        -2.9802322387695313e-08,
        1.4901161193847656e-08
      ],
      "translation": [
        4.008125305175781,
        -1.2899627685546875,
        -3.5872039794921875
      ]
    },
    {
      "children": [
        45
      ],
      "name": "sh_bone01",
      "rotation": [
        0.782957911491394,
        -0.18353264033794403,
        0.1340528279542923,
        0.5790703892707825
      ],
      "scale": [
        1.0,
        2.9802322387695313e-08,
        1.4901161193847656e-08
      ],
      "translation": [
        4.008110046386719,
        -1.2900161743164063,
        3.5870819091796875
      ]
    },
    {
      "children": [
        38
      ],
      "name": "Bone17",
      "rotation": [
        -0.086647629737854,
        -0.7017777562141418,
        0.701777994632721,
        -0.08664759248495102
      ],
      "scale": [
        0.8054590225219727,
        0.0,
        2.9558577807620168e-12
      ],
      "translation": [
        13.395820617675781,
        1.264591932296753,
        -14.413758277893066
      ]
    },
    {
      "children": [
        37
      ],
      "name": "Bone14",
      "rotation": [
        0.08666574954986572,
        0.701775848865509,
        0.7017754316329956,
        -0.08666669577360153
      ],
      "scale": [
        0.8054580092430115,
        -1.4901161193847656e-08,
        2.9103830456733704e-11
      ],
      "translation": [
        13.395828247070313,
        1.2645529508590698,
        14.345704078674316
      ]
    },
    {
      "children": [
        29
      ],
      "name": "Bone06",
      "rotation": [
        -1.4793857111561337e-11,
        -2.546132193970152e-09,
        -0.021625807508826256,
        0.9997661709785461
      ],
      "scale": [
        1.194229006767273,
        7.450580596923828e-09,
        1.3699077427986595e-09
      ],
      "translation": [
        39.820037841796875,
        -7.62939453125e-06,
        3.814697265625e-06
      ]
    },
    {
      "children": [
        30
      ],
      "name": "Bone02",
      "rotation": [
        -9.446936982682175e-11,
        -8.462449074819745e-10,
        -0.021622810512781143,
        0.9997662305831909
      ],
      "scale": [
        1.194229006767273,
        -3.725290298461914e-09,
        -2.0256272215135596e-09
      ],
      "translation": [
        39.82002258300781,
        0.0,
        1.9073486328125e-06
      ]
    },
    {
      "children": [
        46
      ],
      "name": "Bone07",
      "rotation": [
        -1.277910693930906e-10,
        -1.8633219411867685e-09,
        -0.006108465138822794,
        0.9999813437461853
      ],
      "scale": [
        0.9999998211860657,
        2.7939677238464355e-09,
        3.7224454629836146e-09
      ],
      "translation": [
        30.00074005126953,
        6.866455078125e-05,
        1.9073486328125e-06
      ]
    },
    {
      "children": [
        47
      ],
      "name": "Bone03",
      "rotation": [
        -1.1377897755904254e-11,
        -1.4222502299141015e-12,
        -0.006108464673161507,
        0.9999813437461853
      ],
      "scale": [
        0.9999999403953552,
        -3.725290298461914e-09,
        3.7223069071501413e-09
      ],
      "translation": [
        30.000732421875,
        6.866455078125e-05,
        1.9073486328125e-06
      ]
    },
    {
      "children": [
        35
      ],
      "name": "Bone09",
      "rotation": [
        1.7360032700253214e-07,
        1.514901839527738e-07,
        0.9976952075958252,
        0.0678558275103569
      ],
      "scale": [
        1.0000001192092896,
        -1.4901054612437292e-08,
        -2.842170943040401e-14
      ],
      "translation": [
        10.042915344238281,
        13.947978973388672,
        -0.050095003098249435
      ]
    },
    {
      "children": [
        33
      ],
      "name": "Bone11",
      "rotation": [
        6.153542386755362e-08,
        -4.96198936161818e-07,
        0.9923979043960571,
        -0.12307087332010269
      ],
      "scale": [
        1.0000001192092896,
        -4.0190066094574834e-20,
        -2.4424940423071334e-15
      ],
      "translation": [
        13.543373107910156,
        -9.46330738067627,
        -0.05017900839447975
      ]
    },
    {
      "children": [
        48
      ],
      "name": "Bone12",
      "rotation": [
        -1.5098960290068665e-14,
        -1.419721748475121e-14,
        0.003055485663935542,
        0.9999953508377075
      ],
      "scale": [
        1.0000001192092896,
        -7.450580596923828e-09,
        1.1966881478808755e-16
      ],
      "translation": [
        23.54247283935547,
        0.0,
        0.0
      ]
    },
    {
      "children": [
        36
      ],
      "name": "Bip01 R UpperArm",
      "rotation": [
        -0.07118108868598938,
        -0.23287539184093475,
        0.025725165382027626,
        0.9695568680763245
      ],
      "scale": [
        1.0,
        0.0,
        5.960464477539063e-08
      ],
      "translation": [
        19.847061157226563,
        3.814697265625e-06,
        -1.52587890625e-05
      ]
    },
    {
      "children": [
        54
      ],
      "name": "Bone10",
      "rotation": [
        -9.744369516200089e-15,
        -7.140484357221963e-15,
        -0.003592998255044222,
        0.9999935626983643
      ],
      "scale": [
        1.0000001192092896,
        0.0,
        -1.435090314270103e-14
      ],
      "translation": [
        28.00334930419922,
        5.7220458984375e-06,
        0.0
      ]
    },
    {
      "children": [
        57
      ],
      "name": "Bip01 R ForeArm",
      "rotation": [
        -1.8514308974815208e-09,
        1.4905365830486517e-08,
        -0.0007525687105953693,
        0.9999997019767761
      ],
      "scale": [
        0.9999998807907104,
        4.441727484744856e-16,
        -2.9796714429153326e-08
      ],
      "translation": [
        27.864288330078125,
        -9.5367431640625e-07,
        0.0
      ]
    },
    {
      "children": [
        55
      ],
      "name": "Bone15",
      "rotation": [
        -1.5559325746219987e-12,
        -6.633184019416705e-12,
        0.03984394297003746,
        0.9992059469223022
      ],
      "scale": [
        1.2162789106369019,
        1.4901161193847656e-08,
        1.3131845437441836e-11
      ],
      "translation": [
        23.612510681152344,
        0.0,
        3.725290298461914e-09
      ]
    },
    {
      "children": [
        56
      ],
      "name": "Bone18",
      "rotation": [
        -2.5450848026298267e-12,
        -5.25036854270855e-11,
        0.03984794765710831,
        0.9992057681083679
      ],
      "scale": [
        1.216279149055481,
        7.450580596923828e-09,
        -1.2737011445551616e-10
      ],
      "translation": [
        23.612518310546875,
        0.0,
        -3.725290298461914e-09
      ]
    },
    {
      "children": [
        58
      ],
      "name": "Bone22",
      "rotation": [
        1.803600824246132e-08,
        5.801432223506708e-09,
        -0.06595508009195328,
        0.9978225827217102
      ],
      "scale": [
        1.353202223777771,
        -1.4901161193847656e-08,
        -9.05339803125571e-09
      ],
      "translation": [
        23.85125732421875,
        0.0,
        3.814697265625e-06
      ]
    },
    {
      "children": [
        59
      ],
      "name": "Bone26",
      "rotation": [
        2.4436126455640306e-09,
        -9.668181810695842e-10,
        -0.059494856745004654,
        0.9982286095619202
      ],
      "scale": [
        1.353201985359192,
        7.450580596923828e-09,
        -2.2185016046449846e-09
      ],
      "translation": [
        23.85125732421875,
        0.0,
        3.814697265625e-06
      ]
    },
    {
      "children": [
        49,
        62
      ],
      "name": "Bip01 Head",
      "rotation": [
        8.508066484409077e-14,
        -8.242848537065584e-08,
        0.029718253761529922,
        0.9995583295822144
      ],
      "scale": [
        1.0,
        1.862645149230957e-08,
        2.842170943040401e-14
      ],
      "translation": [
        11.440719604492188,
        3.814697265625e-06,
        -3.725290298461914e-09
      ]
    },
    {
      "children": [
        61
      ],
      "name": "Bip01 R Foot",
      "rotation": [
        0.009553413838148117,
        0.06756114214658737,
        0.028910387307405472,
        0.9972504377365112
      ],
      "scale": [
        0.9999999403953552,
        -5.960464477539063e-08,
        -1.4901161193847656e-08
      ],
      "translation": [
        44.07230758666992,
        -7.152557373046875e-07,
        -1.9073486328125e-06
      ]
    },
    {
      "children": [
        60
      ],
      "name": "Bip01 L Foot",
      "rotation": [
        -0.00955344270914793,
        -0.06756113469600677,
        0.02891038917005062,
        0.9972504377365112
      ],
      "scale": [
        1.0000001192092896,
        -6.007030606269836e-08,
        0.0
      ],
      "translation": [
        44.07231903076172,
        1.6689300537109375e-06,
        0.0
      ]
    },
    {
      "name": "sh_bone04",
      "rotation": [
        1.4210854715202004e-14,
        -1.2212453270876722e-13,
        -1.1485814780017932e-27,
        1.0
      ],
      "scale": [
        1.0,
        9.289626019882635e-27,
        8.260059303211165e-14
      ],
      "translation": [
        31.181865692138672,
        0.0,
        4.76837158203125e-07
      ]
    },
    {
      "name": "sh_bone02",
      "rotation": [
        -8.271804153378014e-25,
        4.44089183380283e-16,
        -9.313224635931761e-10,
        1.0
      ],
      "scale": [
        1.0000001192092896,
        1.862645371275562e-09,
        2.6645354708586125e-15
      ],
      "translation": [
        31.181861877441406,
        0.0,
        0.0
      ]
    },
    {
      "name": "Bone08",
      "rotation": [
        1.3877792770898132e-17,
        -1.862645149230957e-09,
        5.587936335871291e-09,
        1.0
      ],
      "scale": [
        0.9999998807907104,
        -3.725290298461914e-09,
        3.725290076417309e-09
      ],
      "translation": [
        29.23509979248047,
        -3.814697265625e-06,
        3.814697265625e-06
      ]
    },
    {
      "name": "Bone04",
      "rotation": [
        -5.8207657444020455e-11,
        1.862645149230957e-09,
        1.862645149230957e-09,
        1.0
      ],
      "scale": [
        0.9999999403953552,
        3.725290076417309e-09,
        0.0
      ],
      "translation": [
        29.23509979248047,
        -7.62939453125e-06,
        1.9073486328125e-06
      ]
    },
    {
      "name": "Bone13",
      "rotation": [
        1.2434497875801753e-14,
        6.617444900424221e-23,
        7.450580596923828e-09,
        1.0
      ],
      "scale": [
        1.0,
        2.256949153578792e-36,
        -5.293955920339377e-23
      ],
      "translation": [
        27.9842529296875,
        3.814697265625e-06,
        3.637978807091713e-12
      ]
    },
    {
      "children": [
        50
      ],
      "name": "Bip01 Ponytail1",
      "rotation": [
        1.9211455343226547e-12,
        -2.7697305995388888e-06,
        0.9986048936843872,
        0.05280369147658348
      ],
      "scale": [
        0.9999999403953552,
        -1.490277945492835e-08,
        -2.842170943040401e-14
      ],
      "translation": [
        9.20233154296875,
        -10.642345428466797,
        -2.568960189819336e-05
      ]
    },
    {
      "children": [
        51
      ],
      "name": "Bip01 Ponytail11",
      "rotation": [
        -1.22407861841492e-13,
        -4.491428455821733e-07,
        0.1619349718093872,
        0.9868014454841614
      ],
      "scale": [
        1.0,
        -1.2894382556052214e-13,
        -5.684341886080802e-14
      ],
      "translation": [
        13.133544921875,
        -0.009552001953125,
        -2.60770320892334e-08
      ]
    },
    {
      "children": [
        52
      ],
      "name": "Bip01 Ponytail12",
      "rotation": [
        1.2957663371102046e-13,
        4.4504281504487153e-07,
        -0.16045673191547394,
        0.9870429039001465
      ],
      "scale": [
        1.0000001192092896,
        1.254747851843832e-13,
        -5.684341886080802e-14
      ],
      "translation": [
        12.648147583007813,
        -0.01032257080078125,
        -3.3527612686157227e-08
      ]
    },
    {
      "children": [
        53
      ],
      "name": "Bip01 Ponytail13",
      "rotation": [
        -2.334001047987755e-13,
        2.1424631313493592e-07,
        -0.077244833111763,
        0.9970121383666992
      ],
      "scale": [
        0.9999998807907104,
        1.490117540470237e-08,
        5.684341886080802e-14
      ],
      "translation": [
        13.685089111328125,
        -0.010772705078125,
        -2.60770320892334e-08
      ]
    },
    {
      "children": [
        66
      ],
      "name": "Bip01 Ponytail14",
      "rotation": [
        -6.663205855399635e-16,
        6.56676988342042e-08,
        -0.02367597632110119,
        0.9997196793556213
      ],
      "scale": [
        1.0,
        -7.450580152834618e-09,
        -2.842170943040401e-14
      ],
      "translation": [
        13.686225891113281,
        -0.01088714599609375,
        -3.3527612686157227e-08
      ]
    },
    {
      "name": "Bone10-1",
      "rotation": [
        -5.773159728050814e-14,
        -7.105427357601002e-15,
        -3.725290298461914e-09,
        1.0
      ],
      "scale": [
        1.0,
        -7.450580596923828e-09,
        -1.4210854715202004e-14
      ],
      "translation": [
        26.25847625732422,
        -1.9073486328125e-06,
        -3.637978807091713e-12
      ]
    },
    {
      "name": "Bone16",
      "rotation": [
        -1.357709959014046e-19,
        1.0849695274151028e-11,
        -4.1513246173963125e-09,
        1.0
      ],
      "scale": [
        0.44868701696395874,
        -1.1175870895385742e-08,
        -4.815680840208891e-12
      ],
      "translation": [
        25.08246612548828,
        0.0,
        2.998858690261841e-06
      ]
    },
    {
      "name": "Bone19",
      "rotation": [
        1.0849697008874504e-11,
        -1.0849697008874504e-11,
        -8.302649234792625e-09,
        1.0
      ],
      "scale": [
        0.44868698716163635,
        -7.450581485102248e-09,
        4.815681707570629e-12
      ],
      "translation": [
        25.08246612548828,
        0.0,
        3.0025839805603027e-06
      ]
    },
    {
      "children": [
        75,
        78,
        79
      ],
      "name": "Bip01 R Hand",
      "rotation": [
        0.6610820889472961,
        0.049675352871418,
        0.03803499415516853,
        0.7477006316184998
      ],
      "scale": [
        1.0,
        3.5390257835388184e-08,
        -4.6566128730773926e-09
      ],
      "translation": [
        25.69066619873047,
        0.0,
        -7.62939453125e-06
      ]
    },
    {
      "name": "Bone23",
      "rotation": [
        -1.2450457553825345e-08,
        -4.891793636829789e-09,
        -3.854946866372317e-17,
        1.0
      ],
      "scale": [
        0.7159860134124756,
        -1.3587332269267077e-16,
        4.170959133631413e-09
      ],
      "translation": [
        24.52044677734375,
        -1.52587890625e-05,
        0.0
      ]
    },
    {
      "name": "Bone27",
      "rotation": [
        -2.9295197379042293e-09,
        8.152993280496901e-10,
        -1.1984273129428402e-08,
        1.0
      ],
      "scale": [
        0.7159860134124756,
        -1.2641176994065972e-08,
        8.618065372445471e-09
      ],
      "translation": [
        24.520416259765625,
        -3.0517578125e-05,
        3.814697265625e-06
      ]
    },
    {
      "children": [
        73
      ],
      "name": "Bip01 L Toe0",
      "rotation": [
        -4.50417569908268e-09,
        -2.640892837746378e-08,
        0.7057641744613647,
        0.7084468603134155
      ],
      "scale": [
        1.0000001192092896,
        6.984905986939793e-10,
        2.4961385847177553e-08
      ],
      "translation": [
        13.616190910339355,
        14.995311737060547,
        0.0
      ]
    },
    {
      "children": [
        74
      ],
      "name": "Bip01 R Toe0",
      "rotation": [
        9.784761445530421e-09,
        2.1149505258222234e-08,
        0.7057641744613647,
        0.7084468603134155
      ],
      "scale": [
        1.0000001192092896,
        4.6566059341834887e-10,
        -1.0055648758111602e-08
      ],
      "translation": [
        13.616190910339355,
        14.995311737060547,
        -1.9073486328125e-06
      ]
    },
    {
      "name": "Bip01 HeadNub",
      "rotation": [
        -2.1316282072803006e-14,
        1.4210854715202004e-14,
        7.450580596923828e-09,
        1.0
      ],
      "scale": [
        1.0,
        1.4901161193847656e-08,
        -2.8421707736338113e-14
      ],
      "translation": [
        22.007553100585938,
        3.814697265625e-06,
        0.0
      ]
    },
    {
      "children": [
        64
      ],
      "name": "Bip01 L Finger0",
      "rotation": [
        0.6419492363929749,
        0.36710938811302185,
        -0.01014320645481348,
        0.6730742454528809
      ],
      "scale": [
        1.0,
        -1.7881393432617188e-07,
        -2.9802322387695313e-08
      ],
      "translation": [
        2.7255172729492188,
        1.5828857421875,
        -4.528717041015625
      ]
    },
    {
      "children": [
        65
      ],
      "name": "Bip01 L Finger01",
      "rotation": [
        2.465988524491536e-09,
        2.7635471688824964e-09,
        0.2218993455171585,
        0.9750697016716003
      ],
      "scale": [
        1.000000238418579,
        3.599943296262225e-17,
        -6.880972680534114e-09
      ],
      "translation": [
        9.032466888427734,
        0.0,
        -3.814697265625e-06
      ]
    },
    {
      "children": [
        84
      ],
      "name": "Bip01 L Finger02",
      "rotation": [
        1.2178266395324044e-08,
        2.2563007018305825e-09,
        0.25226977467536926,
        0.9676569700241089
      ],
      "scale": [
        1.0,
        -2.9802322387695313e-08,
        1.016203010628658e-09
      ],
      "translation": [
        5.888336181640625,
        0.0,
        0.0
      ]
    },
    {
      "name": "Bip01 Ponytail1Nub",
      "rotation": [
        0.7073883414268494,
        0.7068251967430115,
        9.80225195235107e-07,
        -9.810061101234169e-07
      ],
      "scale": [
        1.0,
        -2.328367776360807e-10,
        0.0
      ],
      "translation": [
        13.686767578125,
        0.0,
        0.0
      ]
    },
    {
      "children": [
        68
      ],
      "name": "Bip01 L Finger2",
      "rotation": [
        -0.046775829046964645,
        -0.09146642684936523,
        0.28153127431869507,
        0.9540367126464844
      ],
      "scale": [
        0.9999999403953552,
        2.0489096641540527e-08,
        0.0
      ],
      "translation": [
        14.496318817138672,
        -0.7662353515625,
        -2.584461212158203
      ]
    },
    {
      "children": [
        69
      ],
      "name": "Bip01 L Finger21",
      "rotation": [
        -1.2418612804765417e-08,
        -1.0760626834027676e-09,
        0.14005009829998016,
        0.9901444315910339
      ],
      "scale": [
        0.9999999403953552,
        5.52198479980187e-17,
        5.072832376384895e-09
      ],
      "translation": [
        6.126617431640625,
        -3.814697265625e-06,
        0.0
      ]
    },
    {
      "children": [
        85
      ],
      "name": "Bip01 L Finger22",
      "rotation": [
        -5.651028534003899e-09,
        1.8992394323902317e-09,
        0.09472198784351349,
        0.9955037236213684
      ],
      "scale": [
        1.0,
        -4.470348358154297e-08,
        -2.5986297558233673e-09
      ],
      "translation": [
        6.126609802246094,
        5.7220458984375e-06,
        1.9073486328125e-06
      ]
    },
    {
      "children": [
        71
      ],
      "name": "Bip01 L Finger1",
      "rotation": [
        -0.0025254106149077415,
        0.010380571708083153,
        0.2603495717048645,
        0.9654553532600403
      ],
      "scale": [
        0.9999998807907104,
        4.083631210960448e-10,
        -3.3527612686157227e-08
      ],
      "translation": [
        15.204151153564453,
        0.3554534912109375,
        -5.880043029785156
      ]
    },
    {
      "children": [
        72
      ],
      "name": "Bip01 L Finger11",
      "rotation": [
        -7.216090835981959e-09,
        3.5868148451356774e-09,
        0.14324688911437988,
        0.9896869659423828
      ],
      "scale": [
        1.0,
        -2.9802322387695313e-08,
        -5.734150043679165e-09
      ],
      "translation": [
        5.483116149902344,
        0.0,
        0.0
      ]
    },
    {
      "children": [
        86
      ],
      "name": "Bip01 L Finger12",
      "rotation": [
        1.0410958317663699e-08,
        7.416332881149401e-09,
        0.09576984494924545,
        0.995403528213501
      ],
      "scale": [
        1.0,
        1.4901161193847656e-08,
        -1.703194740798608e-08
      ],
      "translation": [
        5.0538330078125,
        -5.7220458984375e-06,
        -7.62939453125e-06
      ]
    },
    {
      "name": "Bip01 L Toe0Nub",
      "rotation": [
        1.2732925824820995e-11,
        8.220979452744359e-12,
        1.1641532182693481e-10,
        1.0
      ],
      "scale": [
        0.9999999403953552,
        -2.3283064365386963e-10,
        3.774559331759519e-09
      ],
      "translation": [
        11.541621208190918,
        0.0,
        1.9073486328125e-06
      ]
    },
    {
      "name": "Bip01 R Toe0Nub",
      "rotation": [
        1.6370906366636184e-11,
        -8.08597633294994e-12,
        3.036637543584131e-20,
        1.0
      ],
      "scale": [
        0.9999999403953552,
        3.455754062587353e-19,
        3.783469537665951e-09
      ],
      "translation": [
        11.541620254516602,
        1.4901161193847656e-08,
        0.0
      ]
    },
    {
      "children": [
        76
      ],
      "name": "Bip01 R Finger0",
      "rotation": [
        -0.6359974145889282,
        -0.3162306547164917,
        -0.06964924931526184,
        0.7004673480987549
      ],
      "scale": [
        0.9999998807907104,
        2.9802322387695313e-08,
        -4.7963112592697144e-08
      ],
      "translation": [
        0.6864433288574219,
        2.5254974365234375,
        2.7471656799316406
      ]
    },
    {
      "children": [
        77
      ],
      "name": "Bip01 R Finger01",
      "rotation": [
        -7.426671499999316e-10,
        -3.0530864503219846e-09,
        0.28056004643440247,
        0.959836483001709
      ],
      "scale": [
        1.0,
        -2.9802322387695313e-08,
        9.456959659814856e-09
      ],
      "translation": [
        5.109405517578125,
        0.0,
        0.0
      ]
    },
    {
      "children": [
        87
      ],
      "name": "Bip01 R Finger02",
      "rotation": [
        2.7818241044030856e-09,
        2.6021099164275086e-10,
        0.09313315898180008,
        0.9956536889076233
      ],
      "scale": [
        1.0000001192092896,
        -2.9802322387695313e-08,
        0.0
      ],
      "translation": [
        3.5312347412109375,
        -1.430511474609375e-06,
        -7.62939453125e-06
      ]
    },
    {
      "children": [
        80
      ],
      "name": "Bip01 R Finger1",
      "rotation": [
        -0.07368869334459305,
        -0.03421925753355026,
        0.29757362604141235,
        0.9512354731559753
      ],
      "scale": [
        0.9999999403953552,
        -7.35744833946228e-08,
        -9.313225746154785e-09
      ],
      "translation": [
        11.491889953613281,
        -0.2546539306640625,
        4.70471715927124
      ]
    },
    {
      "children": [
        82
      ],
      "name": "Bip01 R Finger2",
      "rotation": [
        -0.02813277207314968,
        -0.005823913961648941,
        0.29204970598220825,
        0.9559715390205383
      ],
      "scale": [
        1.0,
        4.409230314195156e-08,
        9.313225746154785e-09
      ],
      "translation": [
        11.659976959228516,
        -0.43140411376953125,
        -1.1205439567565918
      ]
    },
    {
      "children": [
        81
      ],
      "name": "Bip01 R Finger11",
      "rotation": [
        -3.2210341061045256e-09,
        -3.200527620705884e-10,
        0.0949033796787262,
        0.9954864978790283
      ],
      "scale": [
        1.0000001192092896,
        1.4901161193847656e-08,
        -1.888487588530552e-09
      ],
      "translation": [
        4.719993591308594,
        -3.814697265625e-06,
        9.5367431640625e-07
      ]
    },
    {
      "children": [
        88
      ],
      "name": "Bip01 R Finger12",
      "rotation": [
        2.551880928791661e-09,
        -3.365090206486343e-09,
        0.08288811892271042,
        0.9965588450431824
      ],
      "scale": [
        1.0000001192092896,
        9.296545261629549e-17,
        5.908452394010055e-09
      ],
      "translation": [
        3.115997314453125,
        0.0,
        0.0
      ]
    },
    {
      "children": [
        83
      ],
      "name": "Bip01 R Finger21",
      "rotation": [
        3.2659472348761653e-10,
        9.502113540449386e-10,
        0.10198187828063965,
        0.994786262512207
      ],
      "scale": [
        1.0,
        -2.9802322387695313e-08,
        1.8239011412291006e-09
      ],
      "translation": [
        4.448204040527344,
        3.814697265625e-06,
        1.9073486328125e-06
      ]
    },
    {
      "children": [
        89
      ],
      "name": "Bip01 R Finger22",
      "rotation": [
        3.8031747195965693e-10,
        2.824458444905531e-09,
        0.0896250531077385,
        0.9959755539894104
      ],
      "scale": [
        1.0,
        -1.0352602944645182e-17,
        -1.892568990413679e-09
      ],
      "translation": [
        3.6346359252929688,
        0.0,
        0.0
      ]
    },
    {
      "name": "Bip01 L Finger0Nub",
      "rotation": [
        1.979060026968682e-09,
        1.1641532182693481e-09,
        3.725290076417309e-09,
        1.0
      ],
      "scale": [
        1.0,
        7.450581485102248e-09,
        -4.656616203746466e-10
      ],
      "translation": [
        6.94952392578125,
        0.0,
        0.0
      ]
    },
    {
      "name": "Bip01 L Finger2Nub",
      "rotation": [
        7.4505797087454084e-09,
        -9.313224857976365e-09,
        -1.4901159417490817e-08,
        1.0
      ],
      "scale": [
        1.0000001192092896,
        2.980232594040899e-08,
        1.1175872671742582e-08
      ],
      "translation": [
        6.55322265625,
        -3.814697265625e-06,
        0.0
      ]
    },
    {
      "name": "Bip01 L Finger1Nub",
      "rotation": [
        -1.862645149230957e-09,
        -3.725290298461914e-09,
        -7.450580596923828e-09,
        1.0
      ],
      "scale": [
        1.0,
        -1.4901161193847656e-08,
        -7.450580596923828e-09
      ],
      "translation": [
        6.538978576660156,
        7.62939453125e-06,
        -3.814697265625e-06
      ]
    },
    {
      "name": "Bip01 R Finger0Nub",
      "rotation": [
        1.862645371275562e-09,
        3.725290298461914e-09,
        7.450580596923828e-09,
        1.0
      ],
      "scale": [
        1.0,
        2.7755578924351364e-17,
        -7.450580596923828e-09
      ],
      "translation": [
        5.245452880859375,
        0.0,
        0.0
      ]
    },
    {
      "name": "Bip01 R Finger1Nub",
      "rotation": [
        -1.3969838619232178e-09,
        -4.656612873077393e-10,
        8.673618413859801e-19,
        1.0
      ],
      "scale": [
        0.9999999403953552,
        -1.734723475976807e-18,
        2.7939677238464355e-09
      ],
      "translation": [
        3.9604110717773438,
        -1.9073486328125e-06,
        9.5367431640625e-07
      ]
    },
    {
      "name": "Bip01 R Finger2Nub",
      "rotation": [
        2.7755575615628914e-17,
        9.313225191043273e-10,
        1.4901159417490817e-08,
        1.0
      ],
      "scale": [
        1.0000001192092896,
        -3.469446538363308e-18,
        -1.862645371275562e-09
      ],
      "translation": [
        3.8705520629882813,
        0.0,
        0.0
      ]
    }
  ],
  "scene": 0,
  "scenes": [
    {
      "nodes": [
        0
      ]
    }
  ],
  "skins": [
    {
      "inverseBindMatrices": 4,
      "joints": [
        2,
        3,
        4,
        5,
        6,
        7,
        8,
        9,
        10,
        11,
        12,
        13,
        14,
        15,
        16,
        17,
        18,
        19,
        20,
        21,
        22,
        23,
        24,
        25,
        26,
        27,
        28,
        29,
        30,
        31,
        32,
        33,
        34,
        35,
        36,
        37,
        38,
        39,
        40,
        41,
        42,
        43,
        44,
        45,
        46,
        47,
        48,
        49,
        50,
        51,
        52,
        53,
        54,
        55,
        56,
        57,
        58,
        59,
        60,
        61,
        62,
        63,
        64,
        65,
        66,
        67,
        68,
        69,
        70,
        71,
        72,
        73,
        74,
        75,
        76,
        77,
        78,
        79,
        80,
        81,
        82,
        83,
        84,
        85,
        86,
        87,
        88,
        89
      ],
      "skeleton": 2
    }
  ]
}
