{
  "accessors": [
    {
      "bufferView": 0,
      "componentType": 5126,
      "count": 254,
      "max": [
        16.3022518157959,
        21.624664306640625,
        214.17738342285156
      ],
      "min": [
        -16.236967086791992,
        -10.399491310119629,
        168.12171936035156
      ],
      "type": "VEC3"
    },
    {
      "bufferView": 1,
      "componentType": 5126,
      "count": 254,
      "type": "VEC3"
    },
    {
      "bufferView": 2,
      "componentType": 5126,
      "count": 254,
      "type": "VEC2"
    },
    {
      "bufferView": 3,
      "componentType": 5123,
      "count": 825,
      "type": "SCALAR"
    },
    {
      "bufferView": 4,
      "componentType": 5126,
      "count": 46,
      "type": "MAT4"
    }
  ],
  "asset": {
    "generator": "gr2togltf (ANKA2 Project)",
    "version": "2.0"
  },
  "bufferViews": [
    {
      "buffer": 0,
      "byteLength": 3048,
      "target": 34962
    },
    {
      "buffer": 0,
      "byteLength": 3048,
      "byteOffset": 3048,
      "target": 34962
    },
    {
      "buffer": 0,
      "byteLength": 2032,
      "byteOffset": 6096,
      "target": 34962
    },
    {
      "buffer": 0,
      "byteLength": 1650,
      "byteOffset": 8128,
      "target": 34963
    },
    {
      "buffer": 0,
      "byteLength": 2944,
      "byteOffset": 9778
    }
  ],
  "buffers": [
    {
      "byteLength": 12722,
      "uri": "data:application/octet-stream;base64,"
    }
  ],
  "materials": [
    {
      "name": "default",
      "pbrMetallicRoughness": {
        "baseColorFactor": [
          0.8,
          0.8,
          0.8,
          1.0
        ],
        "metallicFactor": 0.0,
        "roughnessFactor": 0.8
      }
    }
  ],
  "meshes": [
    {
      "name": "hair_68_1",
      "primitives": [
        {
          "attributes": {
            "NORMAL": 1,
            "POSITION": 0,
            "TEXCOORD_0": 2
          },
          "indices": 3,
          "material": 0,
          "mode": 4
        }
      ]
    }
  ],
  "nodes": [
    {
      "children": [
        1,
        2
      ]
    },
    {
      "mesh": 0,
      "name": "hair_68_1",
      "skin": 0
    },
    {
      "children": [
        3
      ],
      "name": "Bip01",
      "rotation": [
        0.0,
        0.0,
        0.0,
        1.0000001192092896
      ],
      "scale": [
        1.0,
        0.0,
        0.0
      ],
      "translation": [
        2.384185791015625e-07,
        -1.1175870895385742e-08,
        0.0
      ]
    },
    {
      "children": [
        4,
        5,
        8
      ],
      "name": "Bip01 Pelvis",
      "rotation": [
        -0.499999463558197,
        -0.5000001788139343,
        -0.5000001788139343,
        0.500000536441803
      ],
      "scale": [
        1.0,
        0.0,
        2.2737367544323206e-13
      ],
      "translation": [
        0.4945114254951477,
        0.0,
        0.0
      ]
    },
    {
      "children": [
        7
      ],
      "name": "Bip01 R Thigh",
      "rotation": [
        -0.04179610684514046,
        0.9790621399879456,
        -0.18982774019241333,
        0.0604638010263443
      ],
      "scale": [
        1.0000001192092896,
        3.725290298461914e-09,
        -1.4901161193847656e-08
      ],
      "translation": [
        1.52587890625e-05,
        -1.0311603546142578e-05,
        -10.699399948120117
      ]
    },
    {
      "children": [
        6
      ],
      "name": "Bip01 L Thigh",
      "rotation": [
        -0.04179628565907478,
        0.979062557220459,
        0.18982629477977753,
        -0.060462500900030136
      ],
      "scale": [
        1.0,
        3.725290298461914e-09,
        7.450580596923828e-09
      ],
      "translation": [
        -1.52587890625e-05,
        1.9371509552001953e-05,
        10.69940185546875
      ]
    },
    {
      "children": [
        19
      ],
      "name": "Bip01 L Calf",
      "rotation": [
        -4.656611540809763e-09,
        7.959541879765109e-12,
        -0.0005179690779186785,
        0.9999998807907104
      ],
      "scale": [
        1.0,
        -1.979060471057892e-09,
        1.109513522723482e-11
      ],
      "translation": [
        47.20612335205078,
        -4.76837158203125e-07,
        1.9073486328125e-06
      ]
    },
    {
      "children": [
        18
      ],
      "name": "Bip01 R Calf",
      "rotation": [
        -3.4886000754852375e-09,
        3.256284564906453e-12,
        -0.0005179681465961039,
        0.9999998807907104
      ],
      "scale": [
        1.0000001192092896,
        -3.6088749766349792e-09,
        -1.4898263067664175e-08
      ],
      "translation": [
        47.20612335205078,
        0.0,
        1.9073486328125e-06
      ]
    },
    {
      "children": [
        9
      ],
      "name": "Bip01 Spine",
      "rotation": [
        -2.0804759515158366e-06,
        -6.936760428288835e-07,
        0.0003981590853072703,
        0.9999999403953552
      ],
      "scale": [
        1.0,
        -6.397423563120341e-11,
        -1.1368683772161603e-13
      ],
      "translation": [
        2.840728759765625,
        -0.718707799911499,
        5.904585123062134e-06
      ]
    },
    {
      "children": [
        10
      ],
      "name": "Bip01 Spine1",
      "rotation": [
        -5.5976592447642276e-14,
        7.659873801912909e-08,
        -0.0276170801371336,
        0.9996185898780823
      ],
      "scale": [
        1.0000001192092896,
        6.479123890742002e-16,
        -1.4210854715202004e-14
      ],
      "translation": [
        15.780479431152344,
        -0.012592196464538574,
        -3.725290298461914e-08
      ]
    },
    {
      "children": [
        11
      ],
      "name": "Bip01 Spine2",
      "rotation": [
        -2.5001834234655504e-14,
        2.855335878848564e-07,
        -0.10294691473245621,
        0.9946868419647217
      ],
      "scale": [
        1.0,
        1.4901194944627605e-08,
        5.684341886080802e-14
      ],
      "translation": [
        15.835281372070313,
        -0.01347494125366211,
        -3.725290298461914e-08
      ]
    },
    {
      "children": [
        12,
        14,
        21
      ],
      "name": "Bip01 Neck",
      "rotation": [
        -7.344201202047485e-14,
        -7.014887728473695e-07,
        0.2529163062572479,
        0.967488169670105
      ],
      "scale": [
        1.0,
        -5.960512794445094e-08,
        -1.1368683772161603e-13
      ],
      "translation": [
        18.435455322265625,
        -0.00885009765625,
        -2.2351741790771484e-08
      ]
    },
    {
      "children": [
        13
      ],
      "name": "Bip01 L Clavicle",
      "rotation": [
        0.4834088683128357,
        -0.1902962625026703,
        0.8352440595626831,
        0.1801961064338684
      ],
      "scale": [
        1.000000238418579,
        0.0,
        5.960464477539063e-08
      ],
      "translation": [
        -1.1898956298828125,
        -0.19195175170898438,
        4.603867053985596
      ]
    },
    {
      "children": [
        16
      ],
      "name": "Bip01 L UpperArm",
      "rotation": [
        0.07826431095600128,
        0.24452164769172668,
        0.060846488922834396,
        0.9645628929138184
      ],
      "scale": [
        1.0,
        2.2351741790771484e-08,
        2.9802322387695313e-08
      ],
      "translation": [
        19.847064971923828,
        -3.814697265625e-06,
        0.0
      ]
    },
    {
      "children": [
        15
      ],
      "name": "Bip01 R Clavicle",
      "rotation": [
        -0.48340827226638794,
        0.19029393792152405,
        0.8352445960044861,
        0.18019741773605347
      ],
      "scale": [
        1.000000238418579,
        0.0,
        -2.9802322387695313e-08
      ],
      "translation": [
        -1.1898956298828125,
        -0.191925048828125,
        -4.603867053985596
      ]
    },
    {
      "children": [
        17
      ],
      "name": "Bip01 R UpperArm",
      "rotation": [
        -0.07118101418018341,
        -0.23287539184093475,
        0.025725100189447403,
        0.9695568680763245
      ],
      "scale": [
        1.0,
        7.450580596923828e-09,
        -2.9802322387695313e-08
      ],
      "translation": [
        19.847068786621094,
        0.0,
        0.0
      ]
    },
    {
      "children": [
        20
      ],
      "name": "Bip01 L ForeArm",
      "rotation": [
        -3.2242661873738143e-09,
        2.991033909438556e-08,
        -0.03348296135663986,
        0.9994392991065979
      ],
      "scale": [
        1.0,
        -7.4505797087454084e-09,
        -2.983573565984443e-08
      ],
      "translation": [
        27.864295959472656,
        0.0,
        -7.62939453125e-06
      ]
    },
    {
      "children": [
        26
      ],
      "name": "Bip01 R ForeArm",
      "rotation": [
        -1.8514308974815208e-09,
        1.4905365830486517e-08,
        -0.0007525687105953693,
        0.9999997019767761
      ],
      "scale": [
        0.9999998807907104,
        4.441727484744856e-16,
        -2.9796714429153326e-08
      ],
      "translation": [
        27.864288330078125,
        -1.9073486328125e-06,
        0.0
      ]
    },
    {
      "children": [
        27
      ],
      "name": "Bip01 R Foot",
      "rotation": [
        0.009553413838148117,
        0.06756114214658737,
        0.028910387307405472,
        0.9972504377365112
      ],
      "scale": [
        0.9999999403953552,
        -5.960464477539063e-08,
        -1.4901161193847656e-08
      ],
      "translation": [
        44.07230758666992,
        -7.152557373046875e-07,
        -1.9073486328125e-06
      ]
    },
    {
      "children": [
        28
      ],
      "name": "Bip01 L Foot",
      "rotation": [
        -0.00955344270914793,
        -0.06756113469600677,
        0.02891038917005062,
        0.9972504377365112
      ],
      "scale": [
        1.0000001192092896,
        -6.007030606269836e-08,
        0.0
      ],
      "translation": [
        44.07231903076172,
        1.6689300537109375e-06,
        0.0
      ]
    },
    {
      "children": [
        29,
        31,
        34
      ],
      "name": "Bip01 L Hand",
      "rotation": [
        -0.7916522026062012,
        0.0056453486904501915,
        0.026196448132395744,
        0.6103842854499817
      ],
      "scale": [
        1.0,
        7.450580596923828e-09,
        2.3283064365386963e-08
      ],
      "translation": [
        26.83319091796875,
        -9.5367431640625e-07,
        0.0
      ]
    },
    {
      "children": [
        22
      ],
      "name": "Bip01 Head",
      "rotation": [
        8.085995387803122e-14,
        -8.242820115356153e-08,
        0.029718149453401566,
        0.9995583295822144
      ],
      "scale": [
        1.0000001192092896,
        4.0978193283081055e-08,
        5.684341886080802e-14
      ],
      "translation": [
        11.440719604492188,
        0.0,
        -3.725290298461914e-09
      ]
    },
    {
      "children": [
        23
      ],
      "name": "Bip01 Ponytail1",
      "rotation": [
        1.9211455343226547e-12,
        -2.7697305995388888e-06,
        0.9986048936843872,
        0.05280369147658348
      ],
      "scale": [
        0.9999999403953552,
        -1.490277945492835e-08,
        -2.842170943040401e-14
      ],
      "translation": [
        9.20233154296875,
        -10.642345428466797,
        -2.568960189819336e-05
      ]
    },
    {
      "children": [
        24
      ],
      "name": "Bip01 Ponytail11",
      "rotation": [
        -1.22407861841492e-13,
        -4.491428455821733e-07,
        0.1619349718093872,
        0.9868014454841614
      ],
      "scale": [
        1.0,
        -1.2894382556052214e-13,
        -5.684341886080802e-14
      ],
      "translation": [
        13.133544921875,
        -0.009552001953125,
        -2.60770320892334e-08
      ]
    },
    {
      "children": [
        25
      ],
      "name": "Bip01 Ponytail12",
      "rotation": [
        1.2957663371102046e-13,
        4.4504281504487153e-07,
        -0.16045673191547394,
        0.9870429039001465
      ],
      "scale": [
        1.0000001192092896,
        1.254747851843832e-13,
        -5.684341886080802e-14
      ],
      "translation": [
        12.648155212402344,
        -0.0103302001953125,
        -3.3527612686157227e-08
      ]
    },
    {
      "children": [
        30
      ],
      "name": "Bip01 Ponytail13",
      "rotation": [
        -2.334001047987755e-13,
        2.1424631313493592e-07,
        -0.077244833111763,
        0.9970121383666992
      ],
      "scale": [
        0.9999998807907104,
        1.490117540470237e-08,
        5.684341886080802e-14
      ],
      "translation": [
        13.685089111328125,
        -0.010772705078125,
        -2.60770320892334e-08
      ]
    },
    {
      "children": [
        35,
        37,
        38
      ],
      "name": "Bip01 R Hand",
      "rotation": [
        0.6610820889472961,
        0.049675352871418,
        0.03803499415516853,
        0.7477006316184998
      ],
      "scale": [
        1.0,
        3.5390257835388184e-08,
        -4.6566128730773926e-09
      ],
      "translation": [
        25.69066619873047,
        9.5367431640625e-07,
        0.0
      ]
    },
    {
      "name": "Bip01 R Toe0",
      "rotation": [
        9.784761445530421e-09,
        2.1149505258222234e-08,
        0.7057641744613647,
        0.7084468603134155
      ],
      "scale": [
        1.0000001192092896,
        4.6566059341834887e-10,
        -1.0055648758111602e-08
      ],
      "translation": [
        13.616190910339355,
        14.995311737060547,
        -1.9073486328125e-06
      ]
    },
    {
      "name": "Bip01 L Toe0",
      "rotation": [
        -4.50417569908268e-09,
        -2.640892837746378e-08,
        0.7057641744613647,
        0.7084468603134155
      ],
      "scale": [
        1.0000001192092896,
        6.984905986939793e-10,
        2.4961385847177553e-08
      ],
      "translation": [
        13.616190910339355,
        14.995311737060547,
        0.0
      ]
    },
    {
      "children": [
        33
      ],
      "name": "Bip01 L Finger0",
      "rotation": [
        0.6419492363929749,
        0.36710938811302185,
        -0.01014320645481348,
        0.6730742454528809
      ],
      "scale": [
        1.0,
        -1.7881393432617188e-07,
        -2.9802322387695313e-08
      ],
      "translation": [
        2.7255210876464844,
        1.5828857421875,
        -4.528720855712891
      ]
    },
    {
      "name": "Bip01 Ponytail14",
      "rotation": [
        -6.663205855399635e-16,
        6.56676988342042e-08,
        -0.02367597632110119,
        0.9997196793556213
      ],
      "scale": [
        1.0,
        -7.450580152834618e-09,
        -2.842170943040401e-14
      ],
      "translation": [
        13.686225891113281,
        -0.01088714599609375,
        -3.3527612686157227e-08
      ]
    },
    {
      "children": [
        32
      ],
      "name": "Bip01 L Finger2",
      "rotation": [
        -0.046775829046964645,
        -0.09146642684936523,
        0.28153127431869507,
        0.9540367126464844
      ],
      "scale": [
        0.9999999403953552,
        2.0489096641540527e-08,
        0.0
      ],
      "translation": [
        14.496318817138672,
        -0.7662353515625,
        -2.584461212158203
      ]
    },
    {
      "children": [
        42
      ],
      "name": "Bip01 L Finger21",
      "rotation": [
        -1.2418612804765417e-08,
        -1.0760626834027676e-09,
        0.14005009829998016,
        0.9901444315910339
      ],
      "scale": [
        0.9999999403953552,
        5.52198479980187e-17,
        5.072832376384895e-09
      ],
      "translation": [
        6.126617431640625,
        -3.814697265625e-06,
        0.0
      ]
    },
    {
      "children": [
        43
      ],
      "name": "Bip01 L Finger01",
      "rotation": [
        2.465988524491536e-09,
        2.7635471688824964e-09,
        0.2218993455171585,
        0.9750697016716003
      ],
      "scale": [
        1.000000238418579,
        3.599943296262225e-17,
        -6.880972680534114e-09
      ],
      "translation": [
        9.032466888427734,
        7.62939453125e-06,
        0.0
      ]
    },
    {
      "children": [
        36
      ],
      "name": "Bip01 L Finger1",
      "rotation": [
        -0.0025254106149077415,
        0.010380571708083153,
        0.2603495717048645,
        0.9654553532600403
      ],
      "scale": [
        0.9999998807907104,
        4.083631210960448e-10,
        -3.3527612686157227e-08
      ],
      "translation": [
        15.204151153564453,
        0.3554534912109375,
        -5.880046844482422
      ]
    },
    {
      "children": [
        40
      ],
      "name": "Bip01 R Finger0",
      "rotation": [
        -0.6359974145889282,
        -0.3162306547164917,
        -0.06964924931526184,
        0.7004673480987549
      ],
      "scale": [
        0.9999998807907104,
        2.9802322387695313e-08,
        -4.7963112592697144e-08
      ],
      "translation": [
        0.6864433288574219,
        2.5254974365234375,
        2.7471656799316406
      ]
    },
    {
      "children": [
        44
      ],
      "name": "Bip01 L Finger11",
      "rotation": [
        -7.216090835981959e-09,
        3.5868148451356774e-09,
        0.14324688911437988,
        0.9896869659423828
      ],
      "scale": [
        1.0,
        -2.9802322387695313e-08,
        -5.734150043679165e-09
      ],
      "translation": [
        5.483116149902344,
        3.814697265625e-06,
        0.0
      ]
    },
    {
      "children": [
        41
      ],
      "name": "Bip01 R Finger1",
      "rotation": [
        -0.07368869334459305,
        -0.03421925753355026,
        0.29757362604141235,
        0.9512354731559753
      ],
      "scale": [
        0.9999999403953552,
        -7.35744833946228e-08,
        -9.313225746154785e-09
      ],
      "translation": [
        11.491889953613281,
        -0.2546539306640625,
        4.70471715927124
      ]
    },
    {
      "children": [
        39
      ],
      "name": "Bip01 R Finger2",
      "rotation": [
        -0.02813277207314968,
        -0.005823913961648941,
        0.29204970598220825,
        0.9559715390205383
      ],
      "scale": [
        1.0,
        4.409230314195156e-08,
        9.313225746154785e-09
      ],
      "translation": [
        11.659976959228516,
        -0.43140411376953125,
        -1.1205439567565918
      ]
    },
    {
      "children": [
        45
      ],
      "name": "Bip01 R Finger21",
      "rotation": [
        3.2659472348761653e-10,
        9.502113540449386e-10,
        0.10198187828063965,
        0.994786262512207
      ],
      "scale": [
        1.0,
        -2.9802322387695313e-08,
        1.8239011412291006e-09
      ],
      "translation": [
        4.448204040527344,
        3.814697265625e-06,
        0.0
      ]
    },
    {
      "children": [
        46
      ],
      "name": "Bip01 R Finger01",
      "rotation": [
        -7.426671499999316e-10,
        -3.0530864503219846e-09,
        0.28056004643440247,
        0.959836483001709
      ],
      "scale": [
        1.0,
        -2.9802322387695313e-08,
        9.456959659814856e-09
      ],
      "translation": [
        5.109405517578125,
        -3.814697265625e-06,
        0.0
      ]
    },
    {
      "children": [
        47
      ],
      "name": "Bip01 R Finger11",
      "rotation": [
        -3.2210341061045256e-09,
        -3.200527620705884e-10,
        0.0949033796787262,
        0.9954864978790283
      ],
      "scale": [
        1.0000001192092896,
        1.4901161193847656e-08,
        -1.888487588530552e-09
      ],
      "translation": [
        4.719993591308594,
        -3.814697265625e-06,
        0.0
      ]
    },
    {
      "name": "Bip01 L Finger22",
      "rotation": [
        -5.651028534003899e-09,
        1.8992394323902317e-09,
        0.09472198784351349,
        0.9955037236213684
      ],
      "scale": [
        1.0,
        -4.470348358154297e-08,
        -2.5986297558233673e-09
      ],
      "translation": [
        6.126609802246094,
        1.9073486328125e-06,
        1.9073486328125e-06
      ]
    },
    {
      "name": "Bip01 L Finger02",
      "rotation": [
        1.2178266395324044e-08,
        2.2563007018305825e-09,
        0.25226977467536926,
        0.9676569700241089
      ],
      "scale": [
        1.0,
        -2.9802322387695313e-08,
        1.016203010628658e-09
      ],
      "translation": [
        5.888336181640625,
        3.814697265625e-06,
        0.0
      ]
    },
    {
      "name": "Bip01 L Finger12",
      "rotation": [
        1.0410958317663699e-08,
        7.416332881149401e-09,
        0.09576984494924545,
        0.995403528213501
      ],
      "scale": [
        1.0,
        1.4901161193847656e-08,
        -1.703194740798608e-08
      ],
      "translation": [
        5.0538330078125,
        -5.7220458984375e-06,
        -3.814697265625e-06
      ]
    },
    {
      "name": "Bip01 R Finger22",
      "rotation": [
        3.8031747195965693e-10,
        2.824458444905531e-09,
        0.0896250531077385,
        0.9959755539894104
      ],
      "scale": [
        1.0,
        -1.0352602944645182e-17,
        -1.892568990413679e-09
      ],
      "translation": [
        3.6346359252929688,
        0.0,
        -9.5367431640625e-07
      ]
    },
    {
      "name": "Bip01 R Finger02",
      "rotation": [
        2.7818241044030856e-09,
        2.6021099164275086e-10,
        0.09313315898180008,
        0.9956536889076233
      ],
      "scale": [
        1.0000001192092896,
        -2.9802322387695313e-08,
        0.0
      ],
      "translation": [
        3.5312347412109375,
        -1.430511474609375e-06,
        -7.62939453125e-06
      ]
    },
    {
      "name": "Bip01 R Finger12",
      "rotation": [
        2.551880928791661e-09,
        -3.365090206486343e-09,
        0.08288811892271042,
        0.9965588450431824
      ],
      "scale": [
        1.0000001192092896,
        9.296545261629549e-17,
        5.908452394010055e-09
      ],
      "translation": [
        3.115997314453125,
        3.814697265625e-06,
        -9.5367431640625e-07
      ]
    }
  ],
  "scene": 0,
  "scenes": [
    {
      "nodes": [
        0
      ]
    }
  ],
  "skins": [
    {
      "inverseBindMatrices": 4,
      "joints": [
        2,
        3,
        4,
        5,
        6,
        7,
        8,
        9,
        10,
        11,
        12,
        13,
        14,
        15,
        16,
        17,
        18,
        19,
        20,
        21,
        22,
        23,
        24,
        25,
        26,
        27,
        28,
        29,
        30,
        31,
        32,
        33,
        34,
        35,
        36,
        37,
        38,
        39,
        40,
        41,
        42,
        43,
        44,
        45,
        46,
        47
      ],
      "skeleton": 2
    }
  ]
}
