{
  "accessors": [
    {
      "bufferView": 0,
      "componentType": 5126,
      "count": 853,
      "max": [
        200.56849670410156,
        199.16470336914063,
        200.8773956298828
      ],
      "min": [
        -12.851202011108398,
        -12.32530403137207,
        -12.66610050201416
      ],
      "type": "VEC3"
    },
    {
      "bufferView": 1,
      "componentType": 5126,
      "count": 853,
      "type": "VEC3"
    },
    {
      "bufferView": 2,
      "componentType": 5126,
      "count": 853,
      "type": "VEC2"
    },
    {
      "bufferView": 3,
      "componentType": 5123,
      "count": 4038,
      "type": "SCALAR"
    },
    {
      "bufferView": 4,
      "componentType": 5126,
      "count": 88,
      "type": "MAT4"
    }
  ],
  "asset": {
    "generator": "gr2togltf (ANKA2 Project)",
    "version": "2.0"
  },
  "bufferViews": [
    {
      "buffer": 0,
      "byteLength": 10236,
      "target": 34962
    },
    {
      "buffer": 0,
      "byteLength": 10236,
      "byteOffset": 10236,
      "target": 34962
    },
    {
      "buffer": 0,
      "byteLength": 6824,
      "byteOffset": 20472,
      "target": 34962
    },
    {
      "buffer": 0,
      "byteLength": 8076,
      "byteOffset": 27296,
      "target": 34963
    },
    {
      "buffer": 0,
      "byteLength": 5632,
      "byteOffset": 35372
    }
  ],
  "buffers": [
    {
      "byteLength": 41004,
      "uri": "data:application/octet-stream;base64,"
    }
  ],
  "materials": [
    {
      "name": "default",
      "pbrMetallicRoughness": {
        "baseColorFactor": [
          0.8,
          0.8,
          0.8,
          1.0
        ],
        "metallicFactor": 0.0,
        "roughnessFactor": 0.8
      }
    }
  ],
  "meshes": [
    {
      "name": "hair_12_1",
      "primitives": [
        {
          "attributes": {
            "NORMAL": 1,
            "POSITION": 0,
            "TEXCOORD_0": 2
          },
          "indices": 3,
          "material": 0,
          "mode": 4
        }
      ]
    }
  ],
  "nodes": [
    {
      "children": [
        1,
        2
      ]
    },
    {
      "mesh": 0,
      "name": "hair_12_1",
      "skin": 0
    },
    {
      "children": [
        3
      ],
      "name": "Bip01",
      "rotation": [
        0.0,
        0.0,
        0.0,
        0.9999999403953552
      ],
      "scale": [
        0.9999997019767761,
        -1.3359980981751673e-13,
        0.0
      ],
      "translation": [
        0.0,
        -3.725290298461914e-09,
        0.0
      ]
    },
    {
      "children": [
        4,
        9,
        14
      ],
      "name": "Bip01 Pelvis",
      "rotation": [
        -0.4999993145465851,
        -0.5,
        -0.5,
        0.5000006556510925
      ],
      "scale": [
        1.0,
        5.1399245505243465e-20,
        8.265705963650741e-14
      ],
      "translation": [
        -1.4509836435317993,
        0.0,
        0.0
      ]
    },
    {
      "children": [
        5
      ],
      "name": "Bip01 R Thigh",
      "rotation": [
        -0.04179610311985016,
        0.9790621399879456,
        -0.18982774019241333,
        0.060463797301054
      ],
      "scale": [
        1.0,
        1.5440169143232652e-09,
        -1.3925354203081497e-09
      ],
      "translation": [
        1.52587890625e-05,
        -1.0311603546142578e-05,
        -10.699399948120117
      ]
    },
    {
      "children": [
        6
      ],
      "name": "Bip01 R Calf",
      "rotation": [
        4.192880265208032e-09,
        3.724807573490807e-09,
        -0.0005179690779186785,
        0.9999998807907104
      ],
      "scale": [
        0.9999999403953552,
        -5.711425998811137e-09,
        -7.447203742572128e-09
      ],
      "translation": [
        47.206119537353516,
        -9.5367431640625e-07,
        0.0
      ]
    },
    {
      "children": [
        7
      ],
      "name": "Bip01 R Foot",
      "rotation": [
        0.009553421288728714,
        0.06756113469600677,
        0.028910383582115173,
        0.9972504377365112
      ],
      "scale": [
        0.9999999403953552,
        -5.614305820245136e-08,
        -8.805144169343748e-09
      ],
      "translation": [
        44.07230758666992,
        7.152557373046875e-07,
        3.814697265625e-06
      ]
    },
    {
      "children": [
        8
      ],
      "name": "Bip01 R Toe0",
      "rotation": [
        1.508371738623282e-08,
        1.5911686190861474e-08,
        0.7057640552520752,
        0.7084468007087708
      ],
      "scale": [
        1.000000238418579,
        4.79055461966027e-10,
        -2.495677264846563e-08
      ],
      "translation": [
        13.616192817687988,
        14.995314598083496,
        -1.9073486328125e-06
      ]
    },
    {
      "name": "Bip01 R Toe0Nub",
      "rotation": [
        1.6370904631912708e-11,
        -8.08597633294994e-12,
        3.036637543584131e-20,
        1.0
      ],
      "scale": [
        0.9999999403953552,
        3.4557538040934114e-19,
        3.783469537665951e-09
      ],
      "translation": [
        11.541619300842285,
        1.4901161193847656e-08,
        0.0
      ]
    },
    {
      "children": [
        10
      ],
      "name": "Bip01 L Thigh",
      "rotation": [
        -0.04179628565907478,
        0.9790624976158142,
        0.18982629477977753,
        -0.06046249344944954
      ],
      "scale": [
        1.0,
        1.8411996371980877e-09,
        2.0201927242169404e-08
      ],
      "translation": [
        -1.52587890625e-05,
        1.9371509552001953e-05,
        10.69940185546875
      ]
    },
    {
      "children": [
        11
      ],
      "name": "Bip01 L Calf",
      "rotation": [
        -1.2107189917287542e-08,
        7.454437955800586e-09,
        -0.0005179680301807821,
        0.9999998807907104
      ],
      "scale": [
        1.000000238418579,
        -1.4155274175031707e-11,
        -4.827760587133856e-12
      ],
      "translation": [
        47.20613479614258,
        2.384185791015625e-07,
        0.0
      ]
    },
    {
      "children": [
        12
      ],
      "name": "Bip01 L Foot",
      "rotation": [
        -0.009553435258567333,
        -0.06756112724542618,
        0.02891038917005062,
        0.9972504377365112
      ],
      "scale": [
        1.0000001192092896,
        -6.369448612986162e-08,
        -1.071599164959025e-08
      ],
      "translation": [
        44.07231903076172,
        1.6689300537109375e-06,
        0.0
      ]
    },
    {
      "children": [
        13
      ],
      "name": "Bip01 L Toe0",
      "rotation": [
        -9.808895917728933e-09,
        -2.117682207369853e-08,
        0.7057642340660095,
        0.7084468603134155
      ],
      "scale": [
        1.000000238418579,
        4.72349714897291e-10,
        1.006024685779039e-08
      ],
      "translation": [
        13.616192817687988,
        14.995314598083496,
        0.0
      ]
    },
    {
      "name": "Bip01 L Toe0Nub",
      "rotation": [
        1.2732926692182733e-11,
        8.363087999896379e-12,
        1.1641532182693481e-10,
        1.0
      ],
      "scale": [
        0.9999999403953552,
        -2.3283062977608182e-10,
        3.7748435488538234e-09
      ],
      "translation": [
        11.541621208190918,
        0.0,
        1.9073486328125e-06
      ]
    },
    {
      "children": [
        15,
        18,
        21,
        24,
        27
      ],
      "name": "Bip01 Spine",
      "rotation": [
        -2.0804759515158366e-06,
        -6.936760428288835e-07,
        0.0003981590270996094,
        0.9999999403953552
      ],
      "scale": [
        1.0,
        -6.39742148145217e-11,
        1.156542089609516e-14
      ],
      "translation": [
        2.840728759765625,
        -0.718707799911499,
        5.904585123062134e-06
      ]
    },
    {
      "children": [
        16
      ],
      "name": "Bone11",
      "rotation": [
        -5.7788923868429265e-08,
        -7.279012947947194e-07,
        0.9923979043960571,
        -0.12307050824165344
      ],
      "scale": [
        1.0000001192092896,
        1.466988841514194e-08,
        -1.5237316345739077e-14
      ],
      "translation": [
        13.543403625488281,
        -9.463299751281738,
        -0.050122469663619995
      ]
    },
    {
      "children": [
        17
      ],
      "name": "Bone12",
      "rotation": [
        1.010016958957749e-07,
        5.347721909743086e-08,
        0.003055534791201353,
        0.9999953508377075
      ],
      "scale": [
        1.0,
        3.6422490024001775e-10,
        -6.971493660948205e-15
      ],
      "translation": [
        23.542457580566406,
        -3.814697265625e-06,
        2.2737367544323206e-12
      ]
    },
    {
      "name": "Bone13",
      "rotation": [
        0.0,
        1.7763568394002505e-15,
        1.5777219985211197e-30,
        1.0
      ],
      "scale": [
        0.9999999403953552,
        -6.310887241768095e-30,
        -3.552713678800501e-15
      ],
      "translation": [
        27.9842529296875,
        -3.814697265625e-06,
        -1.8189894035458565e-12
      ]
    },
    {
      "children": [
        19
      ],
      "name": "Bone09",
      "rotation": [
        -1.2089212475530076e-07,
        -6.648734824921121e-07,
        0.9976951479911804,
        0.06785585731267929
      ],
      "scale": [
        1.0000001192092896,
        -8.070202284216066e-09,
        9.456038653921778e-15
      ],
      "translation": [
        10.042915344238281,
        13.947978973388672,
        -0.050087280571460724
      ]
    },
    {
      "children": [
        20
      ],
      "name": "Bone10",
      "rotation": [
        2.553127702230647e-17,
        7.10538161782185e-15,
        -0.0035932075697928667,
        0.9999935626983643
      ],
      "scale": [
        0.9999999403953552,
        4.283409182903597e-10,
        -1.4210854715202004e-14
      ],
      "translation": [
        28.00334930419922,
        1.9073486328125e-06,
        3.587992978282273e-07
      ]
    },
    {
      "name": "Bone10-1",
      "rotation": [
        0.0,
        7.105427357601002e-15,
        0.0,
        1.0
      ],
      "scale": [
        1.0,
        0.0,
        -1.4210854715202004e-14
      ],
      "translation": [
        26.25847625732422,
        -1.9073486328125e-06,
        3.445566107984632e-07
      ]
    },
    {
      "children": [
        22
      ],
      "name": "Bone14",
      "rotation": [
        0.08666596561670303,
        0.7017757296562195,
        0.7017754912376404,
        -0.08666621893644333
      ],
      "scale": [
        0.8054579496383667,
        2.8041075239571e-08,
        -8.68189808239661e-12
      ],
      "translation": [
        13.395828247070313,
        1.2645530700683594,
        14.345734596252441
      ]
    },
    {
      "children": [
        23
      ],
      "name": "Bone15",
      "rotation": [
        1.271831077953589e-11,
        -5.393002125604618e-13,
        0.03984404727816582,
        0.9992058873176575
      ],
      "scale": [
        1.2162786722183228,
        -1.5215787375896252e-23,
        -2.543532441959262e-12
      ],
      "translation": [
        23.612510681152344,
        0.0,
        4.0605664253234863e-07
      ]
    },
    {
      "name": "Bone16",
      "rotation": [
        -1.3562111503273577e-11,
        2.1699378405237724e-11,
        8.302647458435786e-09,
        1.0
      ],
      "scale": [
        0.4486871063709259,
        -7.450580596923828e-09,
        1.9472458367975065e-11
      ],
      "translation": [
        25.08245849609375,
        0.0,
        2.5294721126556396e-06
      ]
    },
    {
      "children": [
        25
      ],
      "name": "Bone17",
      "rotation": [
        0.08664769679307938,
        0.7017778754234314,
        -0.7017778754234314,
        0.08664769679307938
      ],
      "scale": [
        0.8054581880569458,
        3.181192909096353e-08,
        -8.905357970956287e-15
      ],
      "translation": [
        13.395820617675781,
        1.2645925283432007,
        -14.413697242736816
      ]
    },
    {
      "children": [
        26
      ],
      "name": "Bone18",
      "rotation": [
        1.5971613720466848e-07,
        6.298967125673016e-09,
        0.03984776884317398,
        0.9992057681083679
      ],
      "scale": [
        1.2162786722183228,
        -2.4346741511749315e-08,
        -1.7116494333002663e-10
      ],
      "translation": [
        23.61248779296875,
        3.814697265625e-06,
        4.023313522338867e-07
      ]
    },
    {
      "name": "Bone19",
      "rotation": [
        -3.6032452771904447e-19,
        0.0,
        -8.302647458435786e-09,
        1.0
      ],
      "scale": [
        0.4486870765686035,
        -7.450581485102248e-09,
        2.9103830456733704e-11
      ],
      "translation": [
        25.08246612548828,
        -7.62939453125e-06,
        2.5331974029541016e-06
      ]
    },
    {
      "children": [
        28
      ],
      "name": "Bip01 Spine1",
      "rotation": [
        -8.418701797968317e-14,
        7.659845380203478e-08,
        -0.02761697769165039,
        0.9996185898780823
      ],
      "scale": [
        1.0,
        4.286637433903451e-10,
        -3.2969364102675407e-15
      ],
      "translation": [
        15.780479431152344,
        -0.012591958045959473,
        -3.725290298461914e-08
      ]
    },
    {
      "children": [
        29
      ],
      "name": "Bip01 Spine2",
      "rotation": [
        -2.5001834234655504e-14,
        2.855335878848564e-07,
        -0.10294690728187561,
        0.9946868419647217
      ],
      "scale": [
        1.0,
        1.4585348040441204e-08,
        1.1973704329198889e-14
      ],
      "translation": [
        15.835281372070313,
        -0.013475418090820313,
        -3.725290298461914e-08
      ]
    },
    {
      "children": [
        30,
        52,
        82
      ],
      "name": "Bip01 Neck",
      "rotation": [
        1.468840172646861e-14,
        -7.014887728473695e-07,
        0.2529163062572479,
        0.967488169670105
      ],
      "scale": [
        1.0,
        -2.9170221793606288e-08,
        -1.61399702196946e-13
      ],
      "translation": [
        18.43548583984375,
        -0.008853912353515625,
        -2.2351741790771484e-08
      ]
    },
    {
      "children": [
        31,
        33,
        37
      ],
      "name": "Bip01 R Clavicle",
      "rotation": [
        -0.4834083020687103,
        0.19029393792152405,
        0.8352445960044861,
        0.18019741773605347
      ],
      "scale": [
        1.0,
        7.118758915680701e-09,
        1.382236103353307e-09
      ],
      "translation": [
        -1.18988037109375,
        -0.191925048828125,
        -4.6038665771484375
      ]
    },
    {
      "children": [
        32
      ],
      "name": "sh_bone03",
      "rotation": [
        -0.7829573154449463,
        0.18353186547756195,
        0.13405536115169525,
        0.5790708661079407
      ],
      "scale": [
        0.9999999403953552,
        7.569013860120322e-09,
        -1.1464421634244104e-09
      ],
      "translation": [
        4.0081329345703125,
        -1.2899589538574219,
        -3.5871124267578125
      ]
    },
    {
      "name": "sh_bone04",
      "rotation": [
        3.552713678800501e-15,
        -1.723066134218243e-13,
        8.72480161174439e-28,
        1.0
      ],
      "scale": [
        1.0,
        0.0,
        1.4654943925052066e-13
      ],
      "translation": [
        31.181867599487305,
        -1.52587890625e-05,
        0.0
      ]
    },
    {
      "children": [
        34
      ],
      "name": "Bone05",
      "rotation": [
        -0.16402921080589294,
        -0.4725882411003113,
        0.125456303358078,
        0.856747031211853
      ],
      "scale": [
        0.9009684324264526,
        -2.9740322204929726e-08,
        8.723931799181628e-09
      ],
      "translation": [
        5.7586212158203125,
        8.40802001953125,
        -7.7870330810546875
      ]
    },
    {
      "children": [
        35
      ],
      "name": "Bone06",
      "rotation": [
        3.93725827052549e-07,
        -6.692302267907735e-09,
        -0.021625932306051254,
        0.9997661113739014
      ],
      "scale": [
        1.194229245185852,
        1.717601350037512e-08,
        -3.0941613715640415e-09
      ],
      "translation": [
        39.820037841796875,
        -1.52587890625e-05,
        3.814697265625e-06
      ]
    },
    {
      "children": [
        36
      ],
      "name": "Bone07",
      "rotation": [
        5.649985479472264e-10,
        -2.793204778583913e-09,
        -0.006108613219112158,
        0.9999813437461853
      ],
      "scale": [
        0.9999998211860657,
        3.318885832825913e-09,
        5.59646862186014e-09
      ],
      "translation": [
        30.00074005126953,
        6.866455078125e-05,
        1.9073486328125e-06
      ]
    },
    {
      "name": "Bone08",
      "rotation": [
        1.1641533570472262e-10,
        -9.313225746154785e-10,
        3.725290298461914e-09,
        1.0
      ],
      "scale": [
        0.9999999403953552,
        -4.445228907190568e-16,
        1.8626450382086546e-09
      ],
      "translation": [
        29.235095977783203,
        -3.814697265625e-06,
        1.9073486328125e-06
      ]
    },
    {
      "children": [
        38
      ],
      "name": "Bip01 R UpperArm",
      "rotation": [
        -0.07118093967437744,
        -0.23287540674209595,
        0.025725025683641434,
        0.9695568680763245
      ],
      "scale": [
        1.0000001192092896,
        -8.867747425256312e-09,
        7.703235382905405e-08
      ],
      "translation": [
        19.847068786621094,
        0.0,
        0.0
      ]
    },
    {
      "children": [
        39
      ],
      "name": "Bip01 R ForeArm",
      "rotation": [
        5.6070720982903666e-12,
        2.235453955279354e-08,
        -0.0007525666151195765,
        0.9999997019767761
      ],
      "scale": [
        1.0,
        3.7252865237036303e-09,
        -1.4895572775230903e-08
      ],
      "translation": [
        27.864288330078125,
        -9.5367431640625e-07,
        -7.62939453125e-06
      ]
    },
    {
      "children": [
        40,
        44,
        48
      ],
      "name": "Bip01 R Hand",
      "rotation": [
        0.6610820293426514,
        0.049675352871418,
        0.038034990429878235,
        0.7477006316184998
      ],
      "scale": [
        0.9999999403953552,
        3.478810484125461e-08,
        -4.591268254472425e-09
      ],
      "translation": [
        25.690662384033203,
        -9.5367431640625e-07,
        0.0
      ]
    },
    {
      "children": [
        41
      ],
      "name": "Bip01 R Finger2",
      "rotation": [
        -0.028132770210504532,
        -0.005823914892971516,
        0.2920496463775635,
        0.9559715390205383
      ],
      "scale": [
        1.0,
        5.176795880856844e-09,
        1.1402381261405026e-08
      ],
      "translation": [
        11.659988403320313,
        -0.431396484375,
        -1.1205434799194336
      ]
    },
    {
      "children": [
        42
      ],
      "name": "Bip01 R Finger21",
      "rotation": [
        2.3161669804316887e-10,
        1.876678368262219e-09,
        0.10198190063238144,
        0.994786262512207
      ],
      "scale": [
        1.0,
        -2.497404061330144e-09,
        -3.874411902415886e-11
      ],
      "translation": [
        4.448204040527344,
        3.814697265625e-06,
        0.0
      ]
    },
    {
      "children": [
        43
      ],
      "name": "Bip01 R Finger22",
      "rotation": [
        0.0,
        1.8551490343909904e-09,
        0.0896250382065773,
        0.9959755539894104
      ],
      "scale": [
        1.0,
        -4.020630051115859e-09,
        -2.9923841182721844e-11
      ],
      "translation": [
        3.6346359252929688,
        0.0,
        -9.5367431640625e-07
      ]
    },
    {
      "name": "Bip01 R Finger2Nub",
      "rotation": [
        -1.3877787807814457e-17,
        1.8626450382086546e-09,
        7.4505797087454084e-09,
        1.0
      ],
      "scale": [
        1.0000001192092896,
        -1.4901162970204496e-08,
        -2.498001805406602e-16
      ],
      "translation": [
        3.87054443359375,
        -3.814697265625e-06,
        9.5367431640625e-07
      ]
    },
    {
      "children": [
        45
      ],
      "name": "Bip01 R Finger1",
      "rotation": [
        -0.07368870079517365,
        -0.03421925753355026,
        0.29757359623908997,
        0.9512354731559753
      ],
      "scale": [
        0.9999999403953552,
        -1.2231342338964168e-07,
        -1.5051156765366613e-08
      ],
      "translation": [
        11.491893768310547,
        -0.25464630126953125,
        4.704718112945557
      ]
    },
    {
      "children": [
        46
      ],
      "name": "Bip01 R Finger11",
      "rotation": [
        -2.8965621012844167e-09,
        6.560927356957791e-10,
        0.0949033722281456,
        0.9954864978790283
      ],
      "scale": [
        1.0000001192092896,
        -3.3704417035096412e-09,
        -3.731885911406607e-09
      ],
      "translation": [
        4.719993591308594,
        -3.814697265625e-06,
        -9.5367431640625e-07
      ]
    },
    {
      "children": [
        47
      ],
      "name": "Bip01 R Finger12",
      "rotation": [
        -5.419185655775038e-10,
        -3.1422677793102594e-09,
        0.08288811892271042,
        0.9965588450431824
      ],
      "scale": [
        1.0000001192092896,
        4.997657399030686e-09,
        6.865442436776448e-09
      ],
      "translation": [
        3.115997314453125,
        0.0,
        9.5367431640625e-07
      ]
    },
    {
      "name": "Bip01 R Finger1Nub",
      "rotation": [
        -1.1641532182693481e-09,
        -1.862645149230957e-09,
        -3.469447779134227e-18,
        1.0
      ],
      "scale": [
        0.9999999403953552,
        -8.271804153378014e-25,
        3.725290076417309e-09
      ],
      "translation": [
        3.9604110717773438,
        0.0,
        0.0
      ]
    },
    {
      "children": [
        49
      ],
      "name": "Bip01 R Finger0",
      "rotation": [
        -0.6359974145889282,
        -0.3162306547164917,
        -0.06964925676584244,
        0.7004672884941101
      ],
      "scale": [
        1.0,
        -3.218080379951971e-08,
        -4.425968569421457e-08
      ],
      "translation": [
        0.6864433288574219,
        2.5254974365234375,
        2.747166633605957
      ]
    },
    {
      "children": [
        50
      ],
      "name": "Bip01 R Finger01",
      "rotation": [
        -4.022627564381764e-09,
        -7.281983460671881e-09,
        0.2805599272251129,
        0.959836483001709
      ],
      "scale": [
        1.0000001192092896,
        -6.834036270220167e-08,
        3.1793079280362235e-09
      ],
      "translation": [
        5.109413146972656,
        3.814697265625e-06,
        -7.62939453125e-06
      ]
    },
    {
      "children": [
        51
      ],
      "name": "Bip01 R Finger02",
      "rotation": [
        -1.3909120522015428e-09,
        -4.336851364139527e-11,
        0.09313317388296127,
        0.9956536889076233
      ],
      "scale": [
        1.0,
        6.434323656417232e-19,
        1.727200604761947e-10
      ],
      "translation": [
        3.5312347412109375,
        2.384185791015625e-07,
        0.0
      ]
    },
    {
      "name": "Bip01 R Finger0Nub",
      "rotation": [
        9.313225746154785e-10,
        3.725290298461914e-09,
        -6.938894731087841e-18,
        1.0
      ],
      "scale": [
        1.0,
        0.0,
        -7.450580596923828e-09
      ],
      "translation": [
        5.245460510253906,
        1.9073486328125e-06,
        0.0
      ]
    },
    {
      "children": [
        53,
        55,
        59
      ],
      "name": "Bip01 L Clavicle",
      "rotation": [
        0.4834088087081909,
        -0.1902962327003479,
        0.8352440595626831,
        0.18019607663154602
      ],
      "scale": [
        1.0000001192092896,
        -4.952546817094117e-09,
        1.4299180506327502e-08
      ],
      "translation": [
        -1.18988037109375,
        -0.19195175170898438,
        4.6038665771484375
      ]
    },
    {
      "children": [
        54
      ],
      "name": "sh_bone01",
      "rotation": [
        0.782957911491394,
        -0.1835326850414276,
        0.1340528428554535,
        0.5790703892707825
      ],
      "scale": [
        1.0000001192092896,
        -2.863106907113888e-08,
        6.513518613360247e-09
      ],
      "translation": [
        4.0081329345703125,
        -1.2900123596191406,
        3.5870819091796875
      ]
    },
    {
      "name": "sh_bone02",
      "rotation": [
        -1.7763568394002505e-15,
        1.1102230246251565e-16,
        -6.310887994084479e-30,
        1.0
      ],
      "scale": [
        1.0,
        2.68212707775144e-29,
        7.771561172376096e-15
      ],
      "translation": [
        31.181861877441406,
        0.0,
        -9.5367431640625e-07
      ]
    },
    {
      "children": [
        56
      ],
      "name": "Bone01",
      "rotation": [
        0.16403113305568695,
        0.4725884795188904,
        0.12545491755008698,
        0.8567467331886292
      ],
      "scale": [
        0.9009684920310974,
        3.16166648417493e-08,
        2.6095591465491452e-08
      ],
      "translation": [
        5.87957763671875,
        8.388153076171875,
        7.8505706787109375
      ]
    },
    {
      "children": [
        57
      ],
      "name": "Bone02",
      "rotation": [
        -1.1638808666836198e-10,
        2.517241623478661e-12,
        -0.02162293717265129,
        0.9997662305831909
      ],
      "scale": [
        1.1942293643951416,
        4.866561376104528e-09,
        -6.588171495533853e-19
      ],
      "translation": [
        39.82002258300781,
        0.0,
        0.0
      ]
    },
    {
      "children": [
        58
      ],
      "name": "Bone03",
      "rotation": [
        5.689090257915419e-12,
        -9.313051996251431e-10,
        -0.0061086141504347324,
        0.9999813437461853
      ],
      "scale": [
        1.0,
        7.28189952781122e-10,
        -1.862506149308274e-09
      ],
      "translation": [
        30.000747680664063,
        6.866455078125e-05,
        0.0
      ]
    },
    {
      "name": "Bone04",
      "rotation": [
        -1.7462299661819003e-10,
        -6.505214068888792e-19,
        -3.725290742551124e-09,
        1.0
      ],
      "scale": [
        0.9999999403953552,
        1.0587911840678754e-22,
        -2.6020854207603638e-18
      ],
      "translation": [
        29.235095977783203,
        -5.7220458984375e-06,
        1.9073486328125e-06
      ]
    },
    {
      "children": [
        60
      ],
      "name": "Bip01 L UpperArm",
      "rotation": [
        0.0782642811536789,
        0.24452172219753265,
        0.06084642931818962,
        0.9645628929138184
      ],
      "scale": [
        1.0,
        5.609074982260154e-09,
        -3.5082436955491403e-09
      ],
      "translation": [
        19.847068786621094,
        -3.814697265625e-06,
        0.0
      ]
    },
    {
      "children": [
        61
      ],
      "name": "Bip01 L ForeArm",
      "rotation": [
        4.989350599338138e-10,
        1.514227321308681e-08,
        -0.03348296880722046,
        0.9994392991065979
      ],
      "scale": [
        1.0,
        4.515197534402918e-16,
        -2.9303667048452553e-08
      ],
      "translation": [
        27.864295959472656,
        0.0,
        -7.62939453125e-06
      ]
    },
    {
      "children": [
        62,
        66,
        70,
        74,
        78
      ],
      "name": "Bip01 L Hand",
      "rotation": [
        -0.7916519641876221,
        0.005645343568176031,
        0.026196429505944252,
        0.6103843450546265
      ],
      "scale": [
        1.0,
        -2.4153012923022743e-09,
        1.529113902165591e-08
      ],
      "translation": [
        26.83318328857422,
        0.0,
        0.0
      ]
    },
    {
      "children": [
        63
      ],
      "name": "Bone24",
      "rotation": [
        0.9594858288764954,
        0.23988227546215057,
        0.14512695372104645,
        0.027956534177064896
      ],
      "scale": [
        0.21248316764831543,
        -6.642653094246498e-10,
        -5.762237353934552e-09
      ],
      "translation": [
        13.973503112792969,
        0.02126312255859375,
        5.047325134277344
      ]
    },
    {
      "children": [
        64
      ],
      "name": "Bone25",
      "rotation": [
        1.5386642644443782e-06,
        -2.2259786192080355e-07,
        -0.1710735708475113,
        0.9852582216262817
      ],
      "scale": [
        0.8113709688186646,
        4.162652889050378e-09,
        1.164734353409358e-08
      ],
      "translation": [
        24.451446533203125,
        0.0,
        3.814697265625e-06
      ]
    },
    {
      "children": [
        65
      ],
      "name": "Bone26",
      "rotation": [
        9.679188117672766e-09,
        2.107017493813146e-08,
        -0.05949491262435913,
        0.9982286095619202
      ],
      "scale": [
        1.3532015085220337,
        2.3147663341660518e-08,
        -1.2298624341156028e-08
      ],
      "translation": [
        23.851318359375,
        1.52587890625e-05,
        0.0
      ]
    },
    {
      "name": "Bone27",
      "rotation": [
        -2.9295197379042293e-09,
        1.630597656898658e-09,
        7.052716603172485e-17,
        1.0
      ],
      "scale": [
        0.7159861922264099,
        -9.613527820677015e-18,
        -1.4428835903856907e-08
      ],
      "translation": [
        24.520416259765625,
        -1.52587890625e-05,
        0.0
      ]
    },
    {
      "children": [
        67
      ],
      "name": "Bone20",
      "rotation": [
        0.958179771900177,
        0.25360792875289917,
        0.12814144790172577,
        0.033974599093198776
      ],
      "scale": [
        0.22892940044403076,
        -1.7197567814264403e-09,
        4.3476466871084085e-09
      ],
      "translation": [
        14.62759780883789,
        0.3095855712890625,
        1.1888904571533203
      ]
    },
    {
      "children": [
        68
      ],
      "name": "Bone21",
      "rotation": [
        1.5224547951220302e-06,
        -1.5735879799194663e-07,
        -0.12655436992645264,
        0.9919596910476685
      ],
      "scale": [
        0.8113711476325989,
        -1.280014583215916e-08,
        -1.0489624280296539e-08
      ],
      "translation": [
        24.451446533203125,
        1.52587890625e-05,
        -3.814697265625e-06
      ]
    },
    {
      "children": [
        69
      ],
      "name": "Bone22",
      "rotation": [
        1.6169012795330673e-08,
        2.1352210666236715e-08,
        -0.06595505028963089,
        0.9978225827217102
      ],
      "scale": [
        1.3532013893127441,
        -4.523371188724923e-08,
        -2.781888497338514e-09
      ],
      "translation": [
        23.85125732421875,
        -7.62939453125e-06,
        -3.814697265625e-06
      ]
    },
    {
      "name": "Bone23",
      "rotation": [
        1.513584990675554e-08,
        -6.522389295327002e-09,
        1.7976407917785764e-08,
        1.0
      ],
      "scale": [
        0.7159862518310547,
        4.0606007445376235e-09,
        2.767309492668346e-09
      ],
      "translation": [
        24.52044677734375,
        0.0,
        0.0
      ]
    },
    {
      "children": [
        71
      ],
      "name": "Bip01 L Finger2",
      "rotation": [
        -0.046775829046964645,
        -0.09146642684936523,
        0.2815311849117279,
        0.9540367126464844
      ],
      "scale": [
        0.9999999403953552,
        -6.49550955245104e-08,
        -1.3509870555594716e-08
      ],
      "translation": [
        14.496322631835938,
        -0.7662353515625,
        -2.584461212158203
      ]
    },
    {
      "children": [
        72
      ],
      "name": "Bip01 L Finger21",
      "rotation": [
        -1.6137517988568106e-08,
        4.405950715380413e-09,
        0.14005015790462494,
        0.9901444315910339
      ],
      "scale": [
        1.0,
        2.960528116721753e-16,
        5.794598134656326e-09
      ],
      "translation": [
        6.126617431640625,
        -3.814697265625e-06,
        0.0
      ]
    },
    {
      "children": [
        73
      ],
      "name": "Bip01 L Finger22",
      "rotation": [
        5.562810212467184e-09,
        6.192363843915416e-10,
        0.0947219580411911,
        0.9955037832260132
      ],
      "scale": [
        1.0000001192092896,
        -4.72941046325559e-08,
        -3.5462255354445915e-09
      ],
      "translation": [
        6.1266021728515625,
        -1.9073486328125e-06,
        -3.814697265625e-06
      ]
    },
    {
      "name": "Bip01 L Finger2Nub",
      "rotation": [
        -6.0535962909114005e-09,
        -9.313225746154785e-10,
        7.4505797087454084e-09,
        1.0
      ],
      "scale": [
        1.0000001192092896,
        1.4901162970204496e-08,
        9.313225746154785e-09
      ],
      "translation": [
        6.55322265625,
        0.0,
        1.9073486328125e-06
      ]
    },
    {
      "children": [
        75
      ],
      "name": "Bip01 L Finger1",
      "rotation": [
        -0.00252540223300457,
        0.0103805772960186,
        0.2603495419025421,
        0.9654552936553955
      ],
      "scale": [
        0.9999999403953552,
        -6.734294011323527e-09,
        -2.4797389031050443e-08
      ],
      "translation": [
        15.204154968261719,
        0.3554534912109375,
        -5.880039215087891
      ]
    },
    {
      "children": [
        76
      ],
      "name": "Bip01 L Finger11",
      "rotation": [
        2.419503659922828e-11,
        1.4280553628509551e-08,
        0.1432468742132187,
        0.9896869659423828
      ],
      "scale": [
        1.0,
        2.8579254518490416e-08,
        -4.624618199500219e-08
      ],
      "translation": [
        5.4831085205078125,
        3.814697265625e-06,
        0.0
      ]
    },
    {
      "children": [
        77
      ],
      "name": "Bip01 L Finger12",
      "rotation": [
        4.848708989868555e-09,
        -7.594718631764863e-09,
        0.09576985985040665,
        0.995403528213501
      ],
      "scale": [
        1.0,
        1.1364180707573723e-08,
        -1.6048341322516535e-08
      ],
      "translation": [
        5.053825378417969,
        -3.814697265625e-06,
        0.0
      ]
    },
    {
      "name": "Bip01 L Finger1Nub",
      "rotation": [
        -1.30385160446167e-08,
        0.0,
        -9.71445146547012e-17,
        1.0
      ],
      "scale": [
        1.0,
        -5.551115123125783e-17,
        1.4901161193847656e-08
      ],
      "translation": [
        6.538970947265625,
        0.0,
        0.0
      ]
    },
    {
      "children": [
        79
      ],
      "name": "Bip01 L Finger0",
      "rotation": [
        0.6419492959976196,
        0.36710938811302185,
        -0.010143228806555271,
        0.6730742454528809
      ],
      "scale": [
        1.0,
        -1.539798404337489e-07,
        -4.864381253355532e-08
      ],
      "translation": [
        2.7255325317382813,
        1.5828857421875,
        -4.528720855712891
      ]
    },
    {
      "children": [
        80
      ],
      "name": "Bip01 L Finger01",
      "rotation": [
        3.2692646367848965e-09,
        1.4123232583429512e-09,
        0.22189922630786896,
        0.9750695824623108
      ],
      "scale": [
        1.0000001192092896,
        -1.074454303306993e-09,
        -1.7323120715673213e-08
      ],
      "translation": [
        9.032466888427734,
        7.62939453125e-06,
        3.814697265625e-06
      ]
    },
    {
      "children": [
        81
      ],
      "name": "Bip01 L Finger02",
      "rotation": [
        6.4918466158303545e-09,
        6.213337622185122e-10,
        0.2522697448730469,
        0.9676569700241089
      ],
      "scale": [
        1.0000001192092896,
        -2.291791290076617e-08,
        1.6523734602813533e-09
      ],
      "translation": [
        5.888343811035156,
        0.0,
        0.0
      ]
    },
    {
      "name": "Bip01 L Finger0Nub",
      "rotation": [
        3.841705620288849e-09,
        -9.313225746154785e-10,
        -3.725290298461914e-09,
        1.0
      ],
      "scale": [
        0.9999999403953552,
        7.450580152834618e-09,
        2.7939677238464355e-09
      ],
      "translation": [
        6.949531555175781,
        1.9073486328125e-06,
        3.814697265625e-06
      ]
    },
    {
      "children": [
        83,
        89
      ],
      "name": "Bip01 Head",
      "rotation": [
        8.88570900886565e-14,
        -8.242790983103987e-08,
        0.029718047007918358,
        0.9995583295822144
      ],
      "scale": [
        1.0000001192092896,
        1.0623306678780864e-08,
        3.341092322511202e-14
      ],
      "translation": [
        11.440719604492188,
        0.0,
        -3.725290298461914e-09
      ]
    },
    {
      "children": [
        84
      ],
      "name": "Bip01 Ponytail1",
      "rotation": [
        1.9211455343226547e-12,
        -2.7697305995388888e-06,
        0.9986048936843872,
        0.05280376225709915
      ],
      "scale": [
        0.9999999403953552,
        -7.41065075970937e-09,
        4.2824850789028104e-14
      ],
      "translation": [
        9.20233154296875,
        -10.642349243164063,
        -2.568960189819336e-05
      ]
    },
    {
      "children": [
        85
      ],
      "name": "Bip01 Ponytail11",
      "rotation": [
        -8.640555989886806e-14,
        -4.491429024255922e-07,
        0.1619349718093872,
        0.9868014454841614
      ],
      "scale": [
        1.0,
        -1.2894389332315792e-13,
        -2.0060408683578862e-13
      ],
      "translation": [
        13.133529663085938,
        -0.00954437255859375,
        -2.60770320892334e-08
      ]
    },
    {
      "children": [
        86
      ],
      "name": "Bip01 Ponytail12",
      "rotation": [
        7.198701778719698e-15,
        4.4504281504487153e-07,
        -0.16045671701431274,
        0.9870429039001465
      ],
      "scale": [
        1.0000001192092896,
        9.387757238243921e-09,
        -4.3147671985885663e-14
      ],
      "translation": [
        12.64813232421875,
        -0.01031494140625,
        -3.3527612686157227e-08
      ]
    },
    {
      "children": [
        87
      ],
      "name": "Bip01 Ponytail13",
      "rotation": [
        -3.563360459431014e-15,
        2.1424627050237177e-07,
        -0.077244833111763,
        0.9970121383666992
      ],
      "scale": [
        1.0000001192092896,
        1.9043229215753854e-09,
        6.02821490099624e-14
      ],
      "translation": [
        13.685073852539063,
        -0.010772705078125,
        -2.60770320892334e-08
      ]
    },
    {
      "children": [
        88
      ],
      "name": "Bip01 Ponytail14",
      "rotation": [
        -2.2832584889616314e-13,
        6.566769172877684e-08,
        -0.02367597445845604,
        0.9997196793556213
      ],
      "scale": [
        1.0,
        8.341737078865208e-09,
        2.9932826372701046e-14
      ],
      "translation": [
        13.686241149902344,
        -0.010885238647460938,
        -3.3527612686157227e-08
      ]
    },
    {
      "name": "Bip01 Ponytail1Nub",
      "rotation": [
        0.7073882222175598,
        0.7068251967430115,
        9.80225195235107e-07,
        -9.810059964365792e-07
      ],
      "scale": [
        1.0,
        2.8028607212959855e-10,
        -8.242163868727934e-14
      ],
      "translation": [
        13.686752319335938,
        0.0,
        -3.725290298461914e-09
      ]
    },
    {
      "name": "Bip01 HeadNub",
      "rotation": [
        -2.1316282072803006e-14,
        -2.1175826205712405e-22,
        7.450580596923828e-09,
        1.0
      ],
      "scale": [
        1.0,
        1.4901161193847656e-08,
        4.235164736271502e-22
      ],
      "translation": [
        22.007568359375,
        0.0,
        0.0
      ]
    }
  ],
  "scene": 0,
  "scenes": [
    {
      "nodes": [
        0
      ]
    }
  ],
  "skins": [
    {
      "inverseBindMatrices": 4,
      "joints": [
        2,
        3,
        4,
        5,
        6,
        7,
        8,
        9,
        10,
        11,
        12,
        13,
        14,
        15,
        16,
        17,
        18,
        19,
        20,
        21,
        22,
        23,
        24,
        25,
        26,
        27,
        28,
        29,
        30,
        31,
        32,
        33,
        34,
        35,
        36,
        37,
        38,
        39,
        40,
        41,
        42,
        43,
        44,
        45,
        46,
        47,
        48,
        49,
        50,
        51,
        52,
        53,
        54,
        55,
        56,
        57,
        58,
        59,
        60,
        61,
        62,
        63,
        64,
        65,
        66,
        67,
        68,
        69,
        70,
        71,
        72,
        73,
        74,
        75,
        76,
        77,
        78,
        79,
        80,
        81,
        82,
        83,
        84,
        85,
        86,
        87,
        88,
        89
      ],
      "skeleton": 2
    }
  ]
}
