{
  "accessors": [
    {
      "bufferView": 0,
      "componentType": 5126,
      "count": 344,
      "max": [
        204.18814086914063,
        203.06312561035156,
        204.18814086914063
      ],
      "min": [
        -21.99272918701172,
        -19.044994354248047,
        -11.08436107635498
      ],
      "type": "VEC3"
    },
    {
      "bufferView": 1,
      "componentType": 5126,
      "count": 344,
      "type": "VEC3"
    },
    {
      "bufferView": 2,
      "componentType": 5126,
      "count": 344,
      "type": "VEC2"
    },
    {
      "bufferView": 3,
      "componentType": 5123,
      "count": 1164,
      "type": "SCALAR"
    },
    {
      "bufferView": 4,
      "componentType": 5126,
      "count": 14,
      "type": "MAT4"
    }
  ],
  "asset": {
    "generator": "gr2togltf (ANKA2 Project)",
    "version": "2.0"
  },
  "bufferViews": [
    {
      "buffer": 0,
      "byteLength": 4128,
      "target": 34962
    },
    {
      "buffer": 0,
      "byteLength": 4128,
      "byteOffset": 4128,
      "target": 34962
    },
    {
      "buffer": 0,
      "byteLength": 2752,
      "byteOffset": 8256,
      "target": 34962
    },
    {
      "buffer": 0,
      "byteLength": 2328,
      "byteOffset": 11008,
      "target": 34963
    },
    {
      "buffer": 0,
      "byteLength": 896,
      "byteOffset": 13336
    }
  ],
  "buffers": [
    {
      "byteLength": 14232,
      "uri": "data:application/octet-stream;base64,"
    }
  ],
  "materials": [
    {
      "name": "default",
      "pbrMetallicRoughness": {
        "baseColorFactor": [
          0.8,
          0.8,
          0.8,
          1.0
        ],
        "metallicFactor": 0.0,
        "roughnessFactor": 0.8
      }
    }
  ],
  "meshes": [
    {
      "name": "hair_6_1",
      "primitives": [
        {
          "attributes": {
            "NORMAL": 1,
            "POSITION": 0,
            "TEXCOORD_0": 2
          },
          "indices": 3,
          "material": 0,
          "mode": 4
        }
      ]
    }
  ],
  "nodes": [
    {
      "children": [
        1,
        2
      ]
    },
    {
      "mesh": 0,
      "name": "hair_6_1",
      "skin": 0
    },
    {
      "children": [
        3
      ],
      "name": "Bip01",
      "rotation": [
        0.0,
        0.0,
        0.0,
        0.9999999403953552
      ],
      "scale": [
        0.9999997019767761,
        -1.3359980981751673e-13,
        0.0
      ],
      "translation": [
        0.0,
        -3.725290298461914e-09,
        0.0
      ]
    },
    {
      "children": [
        4
      ],
      "name": "Bip01 Pelvis",
      "rotation": [
        -0.4999993145465851,
        -0.5,
        -0.5,
        0.5000006556510925
      ],
      "scale": [
        1.0,
        5.1399245505243465e-20,
        8.265705963650741e-14
      ],
      "translation": [
        -1.4507766962051392,
        0.0,
        0.0
      ]
    },
    {
      "children": [
        5
      ],
      "name": "Bip01 Spine",
      "rotation": [
        -2.0804759515158366e-06,
        -6.936760428288835e-07,
        0.0003981590270996094,
        0.9999999403953552
      ],
      "scale": [
        1.0,
        -6.39742148145217e-11,
        1.156542089609516e-14
      ],
      "translation": [
        2.840728759765625,
        -0.718707799911499,
        5.904585123062134e-06
      ]
    },
    {
      "children": [
        6
      ],
      "name": "Bip01 Spine1",
      "rotation": [
        -8.440914389977114e-14,
        7.65985674888725e-08,
        -0.027617018669843674,
        0.9996185898780823
      ],
      "scale": [
        1.0,
        4.286588584090367e-10,
        -3.2970528772977882e-15
      ],
      "translation": [
        15.780479431152344,
        -0.012592077255249023,
        -3.725290298461914e-08
      ]
    },
    {
      "children": [
        7
      ],
      "name": "Bip01 Spine2",
      "rotation": [
        -2.321598893218011e-14,
        2.855335878848564e-07,
        -0.10294690728187561,
        0.9946868419647217
      ],
      "scale": [
        1.0,
        1.4585348040441204e-08,
        -1.7021694587149826e-15
      ],
      "translation": [
        15.835281372070313,
        -0.013475418090820313,
        -3.725290298461914e-08
      ]
    },
    {
      "children": [
        8
      ],
      "name": "Bip01 Neck",
      "rotation": [
        4.4065205179405834e-14,
        -7.014889433776261e-07,
        0.2529163658618927,
        0.967488169670105
      ],
      "scale": [
        0.9999999403953552,
        -6.3607559219747145e-09,
        -1.2455199361032648e-14
      ],
      "translation": [
        18.435470581054688,
        -0.008853912353515625,
        -2.2351741790771484e-08
      ]
    },
    {
      "children": [
        9,
        15
      ],
      "name": "Bip01 Head",
      "rotation": [
        6.175567463006029e-14,
        -8.242790272561251e-08,
        0.02971804328262806,
        0.9995583295822144
      ],
      "scale": [
        1.0000001192092896,
        2.1601827882022917e-08,
        1.5236626522106833e-13
      ],
      "translation": [
        11.440719604492188,
        3.814697265625e-06,
        -3.725290298461914e-09
      ]
    },
    {
      "children": [
        10
      ],
      "name": "Bip01 Ponytail1",
      "rotation": [
        1.9353763383578304e-12,
        -2.7697305995388888e-06,
        0.9986048936843872,
        0.05280376970767975
      ],
      "scale": [
        0.9999999403953552,
        -7.41065075970937e-09,
        1.723901783042686e-14
      ],
      "translation": [
        9.20233154296875,
        -10.642353057861328,
        -2.568960189819336e-05
      ]
    },
    {
      "children": [
        11
      ],
      "name": "Bip01 Ponytail11",
      "rotation": [
        -7.920509544458512e-14,
        -4.491429308473016e-07,
        0.1619349718093872,
        0.9868014454841614
      ],
      "scale": [
        1.0,
        -1.2894392042821223e-13,
        -1.5284411377606416e-13
      ],
      "translation": [
        13.133529663085938,
        -0.009552001953125,
        -2.60770320892334e-08
      ]
    },
    {
      "children": [
        12
      ],
      "name": "Bip01 Ponytail12",
      "rotation": [
        7.198701948126288e-14,
        4.4504281504487153e-07,
        -0.16045673191547394,
        0.9870428442955017
      ],
      "scale": [
        1.0000001192092896,
        9.387751909173403e-09,
        -8.355214984505713e-14
      ],
      "translation": [
        12.64813232421875,
        -0.01032257080078125,
        -3.3527612686157227e-08
      ]
    },
    {
      "children": [
        13
      ],
      "name": "Bip01 Ponytail13",
      "rotation": [
        -7.126720918862028e-15,
        2.1424624208066234e-07,
        -0.07724481076002121,
        0.9970121383666992
      ],
      "scale": [
        1.0,
        1.1085116824460783e-08,
        1.0297899279186964e-13
      ],
      "translation": [
        13.685089111328125,
        -0.010768890380859375,
        -2.60770320892334e-08
      ]
    },
    {
      "children": [
        14
      ],
      "name": "Bip01 Ponytail14",
      "rotation": [
        1.1327450208289264e-13,
        6.566772015048628e-08,
        -0.023675983771681786,
        0.9997196793556213
      ],
      "scale": [
        1.0000001192092896,
        -1.0263833338797212e-08,
        -5.4111368299547893e-14
      ],
      "translation": [
        13.686233520507813,
        -0.010885238647460938,
        -3.3527612686157227e-08
      ]
    },
    {
      "name": "Bip01 Ponytail1Nub",
      "rotation": [
        0.7073882222175598,
        0.7068251967430115,
        9.802253089219448e-07,
        -9.810062238102546e-07
      ],
      "scale": [
        1.0,
        4.745549092577406e-11,
        -5.371711105442434e-13
      ],
      "translation": [
        13.686752319335938,
        0.0,
        -3.725290298461914e-09
      ]
    },
    {
      "name": "Bip01 HeadNub",
      "rotation": [
        -2.1316282072803006e-14,
        -2.1175826205712405e-22,
        7.450580596923828e-09,
        1.0
      ],
      "scale": [
        1.0,
        1.4901161193847656e-08,
        4.235164736271502e-22
      ],
      "translation": [
        22.007568359375,
        3.814697265625e-06,
        0.0
      ]
    }
  ],
  "scene": 0,
  "scenes": [
    {
      "nodes": [
        0
      ]
    }
  ],
  "skins": [
    {
      "inverseBindMatrices": 4,
      "joints": [
        2,
        3,
        4,
        5,
        6,
        7,
        8,
        9,
        10,
        11,
        12,
        13,
        14,
        15
      ],
      "skeleton": 2
    }
  ]
}
