{
  "accessors": [
    {
      "bufferView": 0,
      "componentType": 5126,
      "count": 197,
      "max": [
        181.92124938964844,
        179.92892456054688,
        177.73947143554688
      ],
      "min": [
        -9.534309387207031,
        -9.404476165771484,
        -8.228113174438477
      ],
      "type": "VEC3"
    },
    {
      "bufferView": 1,
      "componentType": 5126,
      "count": 197,
      "type": "VEC3"
    },
    {
      "bufferView": 2,
      "componentType": 5126,
      "count": 197,
      "type": "VEC2"
    },
    {
      "bufferView": 3,
      "componentType": 5123,
      "count": 1032,
      "type": "SCALAR"
    },
    {
      "bufferView": 4,
      "componentType": 5126,
      "count": 2211,
      "max": [
        181.92124938964844,
        179.92892456054688,
        177.73947143554688
      ],
      "min": [
        -61.24839782714844,
        -61.24839782714844,
        -60.94966125488281
      ],
      "type": "VEC3"
    },
    {
      "bufferView": 5,
      "componentType": 5126,
      "count": 2211,
      "type": "VEC3"
    },
    {
      "bufferView": 6,
      "componentType": 5126,
      "count": 2211,
      "type": "VEC2"
    },
    {
      "bufferView": 7,
      "componentType": 5123,
      "count": 9195,
      "type": "SCALAR"
    },
    {
      "bufferView": 8,
      "componentType": 5126,
      "count": 62,
      "type": "MAT4"
    }
  ],
  "asset": {
    "generator": "gr2togltf (ANKA2 Project)",
    "version": "2.0"
  },
  "bufferViews": [
    {
      "buffer": 0,
      "byteLength": 2364,
      "target": 34962
    },
    {
      "buffer": 0,
      "byteLength": 2364,
      "byteOffset": 2364,
      "target": 34962
    },
    {
      "buffer": 0,
      "byteLength": 1576,
      "byteOffset": 4728,
      "target": 34962
    },
    {
      "buffer": 0,
      "byteLength": 2064,
      "byteOffset": 6304,
      "target": 34963
    },
    {
      "buffer": 0,
      "byteLength": 26532,
      "byteOffset": 8368,
      "target": 34962
    },
    {
      "buffer": 0,
      "byteLength": 26532,
      "byteOffset": 34900,
      "target": 34962
    },
    {
      "buffer": 0,
      "byteLength": 17688,
      "byteOffset": 61432,
      "target": 34962
    },
    {
      "buffer": 0,
      "byteLength": 18390,
      "byteOffset": 79120,
      "target": 34963
    },
    {
      "buffer": 0,
      "byteLength": 3968,
      "byteOffset": 97510
    }
  ],
  "buffers": [
    {
      "byteLength": 101478,
      "uri": "data:application/octet-stream;base64,"
    }
  ],
  "materials": [
    {
      "name": "default",
      "pbrMetallicRoughness": {
        "baseColorFactor": [
          0.8,
          0.8,
          0.8,
          1.0
        ],
        "metallicFactor": 0.0,
        "roughnessFactor": 0.8
      }
    }
  ],
  "meshes": [
    {
      "name": "sura_face",
      "primitives": [
        {
          "attributes": {
            "NORMAL": 1,
            "POSITION": 0,
            "TEXCOORD_0": 2
          },
          "indices": 3,
          "material": 0,
          "mode": 4
        }
      ]
    },
    {
      "name": "warrior_christmas_2016",
      "primitives": [
        {
          "attributes": {
            "NORMAL": 5,
            "POSITION": 4,
            "TEXCOORD_0": 6
          },
          "indices": 7,
          "material": 0,
          "mode": 4
        }
      ]
    }
  ],
  "nodes": [
    {
      "children": [
        1,
        2,
        3
      ]
    },
    {
      "mesh": 0,
      "name": "sura_face",
      "skin": 0
    },
    {
      "mesh": 1,
      "name": "warrior_christmas_2016",
      "skin": 0
    },
    {
      "children": [
        4
      ],
      "name": "Bip01",
      "rotation": [
        0.0,
        0.0,
        0.0,
        0.9999999403953552
      ],
      "scale": [
        0.9999997615814209,
        -5.117093408073606e-14,
        0.0
      ],
      "translation": [
        0.0,
        -3.725290298461914e-09,
        0.0
      ]
    },
    {
      "children": [
        5,
        29,
        51
      ],
      "name": "Bip01 Pelvis",
      "rotation": [
        -0.4999993145465851,
        -0.5,
        -0.5,
        0.5000006556510925
      ],
      "scale": [
        1.0,
        6.755036055564761e-20,
        -2.6671148450016795e-18
      ],
      "translation": [
        -1.4509639739990234,
        0.0,
        0.0
      ]
    },
    {
      "children": [
        6,
        22,
        24,
        26,
        28
      ],
      "name": "Bip01 Spine",
      "rotation": [
        -2.0804759515158366e-06,
        -6.936760428288835e-07,
        0.00039815905620343983,
        0.9999999403953552
      ],
      "scale": [
        1.0,
        4.1697676561591734e-11,
        -1.8561090571423897e-14
      ],
      "translation": [
        2.840728759765625,
        -0.7187075614929199,
        5.934387445449829e-06
      ]
    },
    {
      "children": [
        7
      ],
      "name": "Bip01 Spine1",
      "rotation": [
        -5.5976592447642276e-14,
        7.659878775712059e-08,
        -0.02761709690093994,
        0.9996185898780823
      ],
      "scale": [
        1.0000001192092896,
        4.2864953253562987e-10,
        2.9943965702990388e-15
      ],
      "translation": [
        15.780479431152344,
        -0.012591958045959473,
        -3.725290298461914e-08
      ]
    },
    {
      "children": [
        8
      ],
      "name": "Bip01 Spine2",
      "rotation": [
        8.750641812722837e-14,
        2.855332184026338e-07,
        -0.10294679552316666,
        0.9946868419647217
      ],
      "scale": [
        0.9999998807907104,
        -2.378270469449717e-09,
        -7.17217355384464e-15
      ],
      "translation": [
        15.835281372070313,
        -0.01347494125366211,
        -3.3527612686157227e-08
      ]
    },
    {
      "children": [
        9,
        11,
        45
      ],
      "name": "Bip01 Neck",
      "rotation": [
        1.468840172646861e-14,
        -7.014892844381393e-07,
        0.25291651487350464,
        0.9674881100654602
      ],
      "scale": [
        0.9999998807907104,
        -3.553056515670505e-08,
        -1.150132777644891e-13
      ],
      "translation": [
        18.435470581054688,
        -0.008853912353515625,
        -2.2351741790771484e-08
      ]
    },
    {
      "children": [
        10,
        33
      ],
      "name": "Bip01 R Clavicle",
      "rotation": [
        -0.48340827226638794,
        0.19029389321804047,
        0.8352445363998413,
        0.18019770085811615
      ],
      "scale": [
        1.0,
        4.8757911486063676e-08,
        1.455589568877258e-07
      ],
      "translation": [
        -1.18988037109375,
        -0.19192123413085938,
        -4.603867053985596
      ]
    },
    {
      "name": "sh_bone03",
      "rotation": [
        -0.7829574942588806,
        0.18353192508220673,
        0.13405509293079376,
        0.5790707468986511
      ],
      "scale": [
        0.9999998211860657,
        -3.977292806212063e-08,
        -7.545986946411176e-09
      ],
      "translation": [
        4.0081329345703125,
        -1.2899589538574219,
        -3.587127685546875
      ]
    },
    {
      "children": [
        12,
        13
      ],
      "name": "Bip01 L Clavicle",
      "rotation": [
        0.4834088087081909,
        -0.1902962028980255,
        0.8352439999580383,
        0.1801963597536087
      ],
      "scale": [
        1.0000001192092896,
        3.668715820026591e-08,
        -1.2987726449864567e-07
      ],
      "translation": [
        -1.18988037109375,
        -0.19194793701171875,
        4.603867053985596
      ]
    },
    {
      "name": "sh_bone01",
      "rotation": [
        0.782957911491394,
        -0.18353264033794403,
        0.1340528279542923,
        0.5790703892707825
      ],
      "scale": [
        0.9999999403953552,
        2.375575292035137e-08,
        -5.25683541141575e-09
      ],
      "translation": [
        4.0081329345703125,
        -1.2900123596191406,
        3.5870819091796875
      ]
    },
    {
      "children": [
        14
      ],
      "name": "Bip01 L UpperArm",
      "rotation": [
        0.07826390862464905,
        0.24452190101146698,
        0.06084657460451126,
        0.9645628333091736
      ],
      "scale": [
        1.0000001192092896,
        -1.202444011028092e-08,
        -5.7676967202269225e-08
      ],
      "translation": [
        19.847064971923828,
        -3.814697265625e-06,
        0.0
      ]
    },
    {
      "children": [
        15
      ],
      "name": "Bip01 L ForeArm",
      "rotation": [
        -3.0418694230149868e-09,
        -2.243276142621653e-08,
        -0.03348308801651001,
        0.9994392991065979
      ],
      "scale": [
        0.9999999403953552,
        3.989256924796791e-09,
        1.4560582961564705e-08
      ],
      "translation": [
        27.864288330078125,
        -4.76837158203125e-07,
        0.0
      ]
    },
    {
      "children": [
        16,
        19,
        55,
        58,
        61
      ],
      "name": "Bip01 L Hand",
      "rotation": [
        -0.7916519045829773,
        0.005645383149385452,
        0.026196792721748352,
        0.610384464263916
      ],
      "scale": [
        0.9999999403953552,
        -3.5233753692409664e-08,
        -5.338662845133513e-09
      ],
      "translation": [
        26.83319854736328,
        9.5367431640625e-07,
        0.0
      ]
    },
    {
      "children": [
        17
      ],
      "name": "Bone24",
      "rotation": [
        0.9594858288764954,
        0.23988212645053864,
        0.14512717723846436,
        0.02795642428100109
      ],
      "scale": [
        0.2124830037355423,
        9.213971807753296e-10,
        -7.627449782887652e-09
      ],
      "translation": [
        13.973495483398438,
        0.0212554931640625,
        5.047325134277344
      ]
    },
    {
      "children": [
        18
      ],
      "name": "Bone25",
      "rotation": [
        1.4738112668055692e-06,
        -2.5722783902892843e-07,
        -0.17107336223125458,
        0.9852582812309265
      ],
      "scale": [
        0.8113709092140198,
        7.759989855283655e-15,
        5.331250996221115e-09
      ],
      "translation": [
        24.451416015625,
        1.52587890625e-05,
        -3.814697265625e-06
      ]
    },
    {
      "name": "Bone26",
      "rotation": [
        -6.546898578818627e-09,
        -1.156220341691494e-09,
        -0.05949483811855316,
        0.9982286095619202
      ],
      "scale": [
        1.353202223777771,
        1.4795672242939872e-08,
        -4.5252876446078005e-10
      ],
      "translation": [
        23.85125732421875,
        1.52587890625e-05,
        3.814697265625e-06
      ]
    },
    {
      "children": [
        20
      ],
      "name": "Bone20",
      "rotation": [
        0.9581798315048218,
        0.2536078095436096,
        0.12814150750637054,
        0.03397436439990997
      ],
      "scale": [
        0.22892899811267853,
        1.102195046343013e-08,
        1.0196826494279776e-08
      ],
      "translation": [
        14.62759017944336,
        0.3095855712890625,
        1.1888885498046875
      ]
    },
    {
      "children": [
        21
      ],
      "name": "Bone21",
      "rotation": [
        1.5144973986025434e-06,
        -1.8591569528325635e-07,
        -0.1265542209148407,
        0.9919596910476685
      ],
      "scale": [
        0.8113710880279541,
        4.381279339327193e-08,
        1.4550921356715207e-08
      ],
      "translation": [
        24.451446533203125,
        0.0,
        3.814697265625e-06
      ]
    },
    {
      "name": "Bone22",
      "rotation": [
        2.03696970402234e-08,
        -1.1127748722472575e-09,
        -0.06595508754253387,
        0.9978225827217102
      ],
      "scale": [
        1.353201985359192,
        2.2616857719981454e-08,
        -3.094337897024957e-09
      ],
      "translation": [
        23.85125732421875,
        7.62939453125e-06,
        -3.814697265625e-06
      ]
    },
    {
      "children": [
        23
      ],
      "name": "Bone17",
      "rotation": [
        -0.0866476371884346,
        -0.7017777562141418,
        0.701777994632721,
        -0.08664760738611221
      ],
      "scale": [
        0.8054580092430115,
        -1.2286900386015986e-08,
        -9.606002625284216e-12
      ],
      "translation": [
        13.395820617675781,
        1.2645930051803589,
        -14.4136962890625
      ]
    },
    {
      "name": "Bone18",
      "rotation": [
        2.0791833966332662e-12,
        -6.488225321593655e-12,
        0.03984794765710831,
        0.9992057681083679
      ],
      "scale": [
        1.2162787914276123,
        1.010736649931232e-08,
        1.3131844570080098e-11
      ],
      "translation": [
        23.612510681152344,
        0.0,
        0.0
      ]
    },
    {
      "children": [
        25
      ],
      "name": "Bone14",
      "rotation": [
        0.08666607737541199,
        0.701775848865509,
        0.701775312423706,
        -0.08666636049747467
      ],
      "scale": [
        0.8054580092430115,
        -1.207656818991154e-08,
        -2.2137125466059615e-11
      ],
      "translation": [
        13.395828247070313,
        1.2645530700683594,
        14.345733642578125
      ]
    },
    {
      "name": "Bone15",
      "rotation": [
        4.62398695721955e-12,
        4.6015451865555335e-11,
        0.03984395042061806,
        0.9992058873176575
      ],
      "scale": [
        1.2162790298461914,
        4.745997372879174e-09,
        1.4050204055759963e-10
      ],
      "translation": [
        23.612503051757813,
        3.814697265625e-06,
        -3.725290298461914e-09
      ]
    },
    {
      "children": [
        27
      ],
      "name": "Bone11",
      "rotation": [
        6.153520359930553e-08,
        -4.96198936161818e-07,
        0.9923979640007019,
        -0.12307038903236389
      ],
      "scale": [
        1.0,
        -2.4419914568278244e-20,
        -1.4427910296067707e-14
      ],
      "translation": [
        13.543403625488281,
        -9.463300704956055,
        -0.05012200400233269
      ]
    },
    {
      "name": "Bone12",
      "rotation": [
        -1.688616592745735e-14,
        -3.609687232415193e-15,
        0.0030554896220564842,
        0.9999953508377075
      ],
      "scale": [
        1.0000001192092896,
        1.6141793457435938e-10,
        -7.116149947680294e-15
      ],
      "translation": [
        23.542465209960938,
        0.0,
        0.0
      ]
    },
    {
      "name": "Bone09",
      "rotation": [
        1.0888795287655739e-07,
        -7.999861963980948e-07,
        0.9976951479911804,
        0.06785581260919571
      ],
      "scale": [
        1.0000001192092896,
        6.693024801052161e-09,
        -2.0446806140578255e-14
      ],
      "translation": [
        10.042915344238281,
        13.947978973388672,
        -0.05008700117468834
      ]
    },
    {
      "children": [
        30
      ],
      "name": "Bip01 R Thigh",
      "rotation": [
        -0.04179591313004494,
        0.9790621399879456,
        -0.18982775509357452,
        0.060463715344667435
      ],
      "scale": [
        1.0,
        1.0411094208961913e-10,
        -9.618622343054994e-09
      ],
      "translation": [
        1.52587890625e-05,
        -1.0311603546142578e-05,
        -10.699400901794434
      ]
    },
    {
      "children": [
        31
      ],
      "name": "Bip01 R Calf",
      "rotation": [
        -1.7697052712151162e-08,
        3.72094888234642e-09,
        -0.0005178478895686567,
        0.9999998807907104
      ],
      "scale": [
        1.0000001192092896,
        1.91027793583487e-09,
        7.423569314823908e-09
      ],
      "translation": [
        47.20613479614258,
        -4.76837158203125e-07,
        -1.9073486328125e-06
      ]
    },
    {
      "children": [
        32
      ],
      "name": "Bip01 R Foot",
      "rotation": [
        0.00955335982143879,
        0.0675608441233635,
        0.028910256922245026,
        0.9972504377365112
      ],
      "scale": [
        0.9999999403953552,
        1.1338007865902e-08,
        -4.402362030475615e-09
      ],
      "translation": [
        44.07231521606445,
        1.6689300537109375e-06,
        1.9073486328125e-06
      ]
    },
    {
      "name": "Bip01 R Toe0",
      "rotation": [
        -5.918808554383759e-09,
        5.859043916700557e-09,
        0.7057639956474304,
        0.7084468603134155
      ],
      "scale": [
        1.0000003576278687,
        7.25242976784557e-10,
        -1.1058930660112765e-08
      ],
      "translation": [
        13.616192817687988,
        14.99531364440918,
        0.0
      ]
    },
    {
      "children": [
        34
      ],
      "name": "Bip01 R UpperArm",
      "rotation": [
        -0.07118096947669983,
        -0.23287495970726013,
        0.02572503313422203,
        0.969556987285614
      ],
      "scale": [
        1.0,
        -1.8565078363508292e-08,
        5.733017260922679e-08
      ],
      "translation": [
        19.847068786621094,
        0.0,
        -1.52587890625e-05
      ]
    },
    {
      "children": [
        35
      ],
      "name": "Bip01 R ForeArm",
      "rotation": [
        -5.582328821418514e-09,
        -7.449177275020702e-09,
        -0.0007523263921029866,
        0.9999997019767761
      ],
      "scale": [
        0.9999998807907104,
        -1.1641541897144947e-10,
        -1.490674783610757e-08
      ],
      "translation": [
        27.864303588867188,
        9.5367431640625e-07,
        0.0
      ]
    },
    {
      "children": [
        36,
        39,
        42,
        64
      ],
      "name": "Bip01 R Hand",
      "rotation": [
        0.6610820293426514,
        0.049675390124320984,
        0.03803454712033272,
        0.7477006912231445
      ],
      "scale": [
        1.0000001192092896,
        1.8253098588161265e-08,
        3.770594947383188e-09
      ],
      "translation": [
        25.69066619873047,
        0.0,
        0.0
      ]
    },
    {
      "children": [
        37
      ],
      "name": "Bip01 R Finger2",
      "rotation": [
        -0.02813258022069931,
        -0.005823913495987654,
        0.2920498549938202,
        0.9559714794158936
      ],
      "scale": [
        1.0000001192092896,
        -8.317120148149115e-08,
        1.345527067542207e-07
      ],
      "translation": [
        11.659976959228516,
        -0.431396484375,
        -1.1205425262451172
      ]
    },
    {
      "children": [
        38
      ],
      "name": "Bip01 R Finger21",
      "rotation": [
        6.602595553628632e-11,
        9.294349179178596e-10,
        0.10198190808296204,
        0.994786262512207
      ],
      "scale": [
        1.0000001192092896,
        -2.918241648330877e-08,
        1.8357115827427606e-09
      ],
      "translation": [
        4.4481964111328125,
        3.814697265625e-06,
        0.0
      ]
    },
    {
      "name": "Bip01 R Finger22",
      "rotation": [
        3.988332997195698e-10,
        1.9177512911028316e-09,
        0.08962506800889969,
        0.9959755539894104
      ],
      "scale": [
        1.000000238418579,
        -2.9323539152414924e-08,
        3.748577004358822e-09
      ],
      "translation": [
        3.6346435546875,
        0.0,
        0.0
      ]
    },
    {
      "children": [
        40
      ],
      "name": "Bip01 R Finger1",
      "rotation": [
        -0.0736888200044632,
        -0.0342194028198719,
        0.2975735366344452,
        0.9512355327606201
      ],
      "scale": [
        1.0000001192092896,
        -4.5351868038778775e-08,
        7.604993612631006e-08
      ],
      "translation": [
        11.491886138916016,
        -0.2546539306640625,
        4.70471715927124
      ]
    },
    {
      "children": [
        41
      ],
      "name": "Bip01 R Finger11",
      "rotation": [
        -3.1920615040093026e-09,
        -1.6814007131049635e-10,
        0.09490345418453217,
        0.9954864978790283
      ],
      "scale": [
        1.0,
        2.6511841735845207e-18,
        -1.5915320172865677e-09
      ],
      "translation": [
        4.720001220703125,
        0.0,
        0.0
      ]
    },
    {
      "name": "Bip01 R Finger12",
      "rotation": [
        1.7018439990579282e-09,
        3.859782979342974e-11,
        0.08288828283548355,
        0.9965588450431824
      ],
      "scale": [
        1.0,
        -9.84705117446083e-09,
        -3.930486158765234e-09
      ],
      "translation": [
        3.1159896850585938,
        0.0,
        0.0
      ]
    },
    {
      "children": [
        43
      ],
      "name": "Bip01 R Finger0",
      "rotation": [
        -0.6359974145889282,
        -0.31623077392578125,
        -0.06964928656816483,
        0.7004671692848206
      ],
      "scale": [
        0.9999996423721313,
        2.5889721655403264e-07,
        -4.902256733885224e-08
      ],
      "translation": [
        0.6864433288574219,
        2.5254974365234375,
        2.747166633605957
      ]
    },
    {
      "children": [
        44
      ],
      "name": "Bip01 R Finger01",
      "rotation": [
        -2.6163140542934116e-09,
        -7.739245688753726e-09,
        0.2805600166320801,
        0.959836483001709
      ],
      "scale": [
        0.9999999403953552,
        3.210207566439749e-08,
        -2.8289914411061545e-08
      ],
      "translation": [
        5.109405517578125,
        0.0,
        0.0
      ]
    },
    {
      "name": "Bip01 R Finger02",
      "rotation": [
        4.751503190902895e-09,
        3.9909946458749346e-09,
        0.09313330799341202,
        0.9956536293029785
      ],
      "scale": [
        1.0,
        -1.4642661305686033e-08,
        7.06225034008412e-09
      ],
      "translation": [
        3.5312347412109375,
        0.0,
        0.0
      ]
    },
    {
      "children": [
        46
      ],
      "name": "Bip01 Head",
      "rotation": [
        8.197066479363399e-14,
        -8.242743376740691e-08,
        0.02971789427101612,
        0.9995583295822144
      ],
      "scale": [
        1.0000003576278687,
        2.4753279426192876e-09,
        6.0067028052348224e-15
      ],
      "translation": [
        11.440719604492188,
        0.0,
        -3.725290298461914e-09
      ]
    },
    {
      "children": [
        47
      ],
      "name": "Bip01 Ponytail1",
      "rotation": [
        1.9211455343226547e-12,
        -2.7697305995388888e-06,
        0.9986048936843872,
        0.0528036430478096
      ],
      "scale": [
        1.0,
        -5.164391581047312e-09,
        -8.464603529819564e-16
      ],
      "translation": [
        9.20233154296875,
        -10.642356872558594,
        -2.551451325416565e-05
      ]
    },
    {
      "children": [
        48
      ],
      "name": "Bip01 Ponytail11",
      "rotation": [
        -5.0403241015585173e-14,
        -4.49142362413113e-07,
        0.16193482279777527,
        0.9868014454841614
      ],
      "scale": [
        0.9999998807907104,
        1.8379806121515685e-08,
        -7.129272351505747e-14
      ],
      "translation": [
        13.133544921875,
        -0.009552001953125,
        -2.60770320892334e-08
      ]
    },
    {
      "children": [
        49
      ],
      "name": "Bip01 Ponytail12",
      "rotation": [
        -7.198701948126288e-14,
        4.4504281504487153e-07,
        -0.16045673191547394,
        0.9870428442955017
      ],
      "scale": [
        1.0000001192092896,
        1.2547481228943752e-13,
        1.502508377047504e-14
      ],
      "translation": [
        12.64813232421875,
        -0.01032257080078125,
        -3.3527612686157227e-08
      ]
    },
    {
      "children": [
        50
      ],
      "name": "Bip01 Ponytail13",
      "rotation": [
        -1.1402753470179244e-13,
        2.142466684063038e-07,
        -0.07724497467279434,
        0.9970121383666992
      ],
      "scale": [
        0.9999999403953552,
        -5.5425175560230855e-09,
        1.563802222209667e-14
      ],
      "translation": [
        13.685089111328125,
        -0.010772705078125,
        -2.60770320892334e-08
      ]
    },
    {
      "name": "Bip01 Ponytail14",
      "rotation": [
        -8.88427447386618e-16,
        6.566772015048628e-08,
        -0.023675985634326935,
        0.9997196793556213
      ],
      "scale": [
        1.0,
        4.0826408369484e-16,
        1.112496799868766e-14
      ],
      "translation": [
        13.686225891113281,
        -0.01088714599609375,
        -3.3527612686157227e-08
      ]
    },
    {
      "children": [
        52
      ],
      "name": "Bip01 L Thigh",
      "rotation": [
        -0.041796110570430756,
        0.9790624976158142,
        0.1898263394832611,
        -0.06046232953667641
      ],
      "scale": [
        0.9999999403953552,
        4.873649483982945e-09,
        -4.042969958817366e-09
      ],
      "translation": [
        -1.52587890625e-05,
        1.9371509552001953e-05,
        10.699402809143066
      ]
    },
    {
      "children": [
        53
      ],
      "name": "Bip01 L Calf",
      "rotation": [
        1.6998562557546393e-08,
        3.722275376816242e-09,
        -0.0005178461433388293,
        0.9999998807907104
      ],
      "scale": [
        1.0,
        1.8009117530581875e-09,
        -7.439005855758296e-09
      ],
      "translation": [
        47.20613098144531,
        0.0,
        0.0
      ]
    },
    {
      "children": [
        54
      ],
      "name": "Bip01 L Foot",
      "rotation": [
        -0.009553331881761551,
        -0.06756076216697693,
        0.02891029417514801,
        0.9972504377365112
      ],
      "scale": [
        1.0,
        1.260025062066461e-08,
        2.1382398074365483e-09
      ],
      "translation": [
        44.07231140136719,
        7.152557373046875e-07,
        0.0
      ]
    },
    {
      "name": "Bip01 L Toe0",
      "rotation": [
        5.902042854444289e-09,
        -5.875719910619637e-09,
        0.7057639956474304,
        0.7084468603134155
      ],
      "scale": [
        1.0000003576278687,
        7.185539940834929e-10,
        1.1058968851784812e-08
      ],
      "translation": [
        13.616191864013672,
        14.995314598083496,
        0.0
      ]
    },
    {
      "children": [
        56
      ],
      "name": "Bip01 L Finger2",
      "rotation": [
        -0.04677574336528778,
        -0.09146618843078613,
        0.2815312147140503,
        0.9540367722511292
      ],
      "scale": [
        0.9999997615814209,
        2.2819379807970108e-07,
        -1.6412140979582546e-08
      ],
      "translation": [
        14.496315002441406,
        -0.7662353515625,
        -2.584461212158203
      ]
    },
    {
      "children": [
        57
      ],
      "name": "Bip01 L Finger21",
      "rotation": [
        -3.097071488156189e-09,
        -4.936798969623624e-09,
        0.14005009829998016,
        0.9901444315910339
      ],
      "scale": [
        0.9999998807907104,
        -9.956356796016557e-17,
        2.26707408401694e-09
      ],
      "translation": [
        6.126609802246094,
        3.814697265625e-06,
        -1.9073486328125e-06
      ]
    },
    {
      "name": "Bip01 L Finger22",
      "rotation": [
        1.0463136135285822e-08,
        -3.753510391391046e-09,
        0.09472176432609558,
        0.9955037832260132
      ],
      "scale": [
        1.0,
        -2.9267535950339152e-08,
        5.445719430952067e-09
      ],
      "translation": [
        6.126609802246094,
        7.62939453125e-06,
        0.0
      ]
    },
    {
      "children": [
        59
      ],
      "name": "Bip01 L Finger1",
      "rotation": [
        -0.002525363815948367,
        0.010380610823631287,
        0.26034945249557495,
        0.9654553532600403
      ],
      "scale": [
        1.0000001192092896,
        -2.5645862322676294e-08,
        -2.5888937216222985e-07
      ],
      "translation": [
        15.204154968261719,
        0.3554534912109375,
        -5.880039215087891
      ]
    },
    {
      "children": [
        60
      ],
      "name": "Bip01 L Finger11",
      "rotation": [
        -4.4509373964274346e-09,
        -4.187155511203855e-09,
        0.14324702322483063,
        0.9896869659423828
      ],
      "scale": [
        1.0,
        1.690026607548134e-08,
        -7.012780134374452e-09
      ],
      "translation": [
        5.4831085205078125,
        0.0,
        0.0
      ]
    },
    {
      "name": "Bip01 L Finger12",
      "rotation": [
        -2.2108548325405764e-09,
        1.1659658127882722e-08,
        0.09577001631259918,
        0.9954034686088562
      ],
      "scale": [
        0.9999998211860657,
        -1.1364198471142117e-08,
        -6.166729793477543e-09
      ],
      "translation": [
        5.053825378417969,
        0.0,
        0.0
      ]
    },
    {
      "children": [
        62
      ],
      "name": "Bip01 L Finger0",
      "rotation": [
        0.6419492959976196,
        0.3671092391014099,
        -0.010143117047846317,
        0.6730743050575256
      ],
      "scale": [
        1.0000004768371582,
        -6.059868695729165e-08,
        -1.9829917619063053e-07
      ],
      "translation": [
        2.72552490234375,
        1.5828857421875,
        -4.528717041015625
      ]
    },
    {
      "children": [
        63
      ],
      "name": "Bip01 L Finger01",
      "rotation": [
        -4.722098267961883e-09,
        4.009721443765102e-09,
        0.2218993753194809,
        0.9750695824623108
      ],
      "scale": [
        1.0000001192092896,
        3.69369098380531e-17,
        -4.0546623836235085e-09
      ],
      "translation": [
        9.032470703125,
        0.0,
        3.814697265625e-06
      ]
    },
    {
      "name": "Bip01 L Finger02",
      "rotation": [
        1.1570745250821801e-08,
        1.9428945119415175e-09,
        0.25226956605911255,
        0.9676569700241089
      ],
      "scale": [
        1.0,
        -1.6735661745315156e-08,
        3.5101535011961005e-09
      ],
      "translation": [
        5.888336181640625,
        0.0,
        -3.814697265625e-06
      ]
    },
    {
      "name": "equip_right",
      "rotation": [
        9.671783800513367e-07,
        3.129242145405442e-07,
        -4.768370445162873e-07,
        1.0
      ],
      "scale": [
        1.0000007152557373,
        2.9802132317513497e-08,
        -3.7242973149886893e-09
      ],
      "translation": [
        7.5313873291015625,
        2.1409149169921875,
        -2.0025787353515625
      ]
    }
  ],
  "scene": 0,
  "scenes": [
    {
      "nodes": [
        0
      ]
    }
  ],
  "skins": [
    {
      "inverseBindMatrices": 8,
      "joints": [
        3,
        4,
        5,
        6,
        7,
        8,
        9,
        10,
        11,
        12,
        13,
        14,
        15,
        16,
        17,
        18,
        19,
        20,
        21,
        22,
        23,
        24,
        25,
        26,
        27,
        28,
        29,
        30,
        31,
        32,
        33,
        34,
        35,
        36,
        37,
        38,
        39,
        40,
        41,
        42,
        43,
        44,
        45,
        46,
        47,
        48,
        49,
        50,
        51,
        52,
        53,
        54,
        55,
        56,
        57,
        58,
        59,
        60,
        61,
        62,
        63,
        64
      ],
      "skeleton": 3
    }
  ]
}
