{
  "accessors": [
    {
      "bufferView": 0,
      "componentType": 5126,
      "count": 197,
      "max": [
        181.9212646484375,
        179.92892456054688,
        177.73948669433594
      ],
      "min": [
        -9.534313201904297,
        -9.40447998046875,
        -8.22811508178711
      ],
      "type": "VEC3"
    },
    {
      "bufferView": 1,
      "componentType": 5126,
      "count": 197,
      "type": "VEC3"
    },
    {
      "bufferView": 2,
      "componentType": 5126,
      "count": 197,
      "type": "VEC2"
    },
    {
      "bufferView": 3,
      "componentType": 5123,
      "count": 1032,
      "type": "SCALAR"
    },
    {
      "bufferView": 4,
      "componentType": 5126,
      "count": 887,
      "max": [
        181.9212646484375,
        179.92892456054688,
        177.73948669433594
      ],
      "min": [
        -61.205780029296875,
        -62.451576232910156,
        -59.61226272583008
      ],
      "type": "VEC3"
    },
    {
      "bufferView": 5,
      "componentType": 5126,
      "count": 887,
      "type": "VEC3"
    },
    {
      "bufferView": 6,
      "componentType": 5126,
      "count": 887,
      "type": "VEC2"
    },
    {
      "bufferView": 7,
      "componentType": 5123,
      "count": 3840,
      "type": "SCALAR"
    },
    {
      "bufferView": 8,
      "componentType": 5126,
      "count": 43,
      "type": "MAT4"
    }
  ],
  "asset": {
    "generator": "gr2togltf (ANKA2 Project)",
    "version": "2.0"
  },
  "bufferViews": [
    {
      "buffer": 0,
      "byteLength": 2364,
      "target": 34962
    },
    {
      "buffer": 0,
      "byteLength": 2364,
      "byteOffset": 2364,
      "target": 34962
    },
    {
      "buffer": 0,
      "byteLength": 1576,
      "byteOffset": 4728,
      "target": 34962
    },
    {
      "buffer": 0,
      "byteLength": 2064,
      "byteOffset": 6304,
      "target": 34963
    },
    {
      "buffer": 0,
      "byteLength": 10644,
      "byteOffset": 8368,
      "target": 34962
    },
    {
      "buffer": 0,
      "byteLength": 10644,
      "byteOffset": 19012,
      "target": 34962
    },
    {
      "buffer": 0,
      "byteLength": 7096,
      "byteOffset": 29656,
      "target": 34962
    },
    {
      "buffer": 0,
      "byteLength": 7680,
      "byteOffset": 36752,
      "target": 34963
    },
    {
      "buffer": 0,
      "byteLength": 2752,
      "byteOffset": 44432
    }
  ],
  "buffers": [
    {
      "byteLength": 47184,
      "uri": "data:application/octet-stream;base64,"
    }
  ],
  "materials": [
    {
      "name": "default",
      "pbrMetallicRoughness": {
        "baseColorFactor": [
          0.8,
          0.8,
          0.8,
          1.0
        ],
        "metallicFactor": 0.0,
        "roughnessFactor": 0.8
      }
    }
  ],
  "meshes": [
    {
      "name": "face",
      "primitives": [
        {
          "attributes": {
            "NORMAL": 1,
            "POSITION": 0,
            "TEXCOORD_0": 2
          },
          "indices": 3,
          "material": 0,
          "mode": 4
        }
      ]
    },
    {
      "name": "body",
      "primitives": [
        {
          "attributes": {
            "NORMAL": 5,
            "POSITION": 4,
            "TEXCOORD_0": 6
          },
          "indices": 7,
          "material": 0,
          "mode": 4
        }
      ]
    }
  ],
  "nodes": [
    {
      "children": [
        1,
        2,
        3
      ]
    },
    {
      "mesh": 0,
      "name": "face",
      "skin": 0
    },
    {
      "mesh": 1,
      "name": "body",
      "skin": 0
    },
    {
      "children": [
        4
      ],
      "name": "Bip01",
      "rotation": [
        0.0,
        0.0,
        0.0,
        0.9999999403953552
      ],
      "scale": [
        0.9999997019767761,
        -1.3359980981751673e-13,
        0.0
      ],
      "translation": [
        0.0,
        -3.725290298461914e-09,
        0.0
      ]
    },
    {
      "children": [
        5,
        9,
        29
      ],
      "name": "Bip01 Pelvis",
      "rotation": [
        -0.4999993145465851,
        -0.5,
        -0.5,
        0.5000006556510925
      ],
      "scale": [
        1.0,
        5.1399245505243465e-20,
        8.265705963650741e-14
      ],
      "translation": [
        -1.4509845972061157,
        0.0,
        0.0
      ]
    },
    {
      "children": [
        6
      ],
      "name": "Bip01 R Thigh",
      "rotation": [
        -0.04179610311985016,
        0.9790621399879456,
        -0.18982774019241333,
        0.060463797301054
      ],
      "scale": [
        1.0,
        1.5440169143232652e-09,
        -1.3925354203081497e-09
      ],
      "translation": [
        1.52587890625e-05,
        -1.0311603546142578e-05,
        -10.699399948120117
      ]
    },
    {
      "children": [
        7
      ],
      "name": "Bip01 R Calf",
      "rotation": [
        4.192880265208032e-09,
        3.724807573490807e-09,
        -0.0005179690779186785,
        0.9999998807907104
      ],
      "scale": [
        0.9999999403953552,
        -5.711425998811137e-09,
        -7.447203742572128e-09
      ],
      "translation": [
        47.206119537353516,
        -9.5367431640625e-07,
        0.0
      ]
    },
    {
      "children": [
        8
      ],
      "name": "Bip01 R Foot",
      "rotation": [
        0.009553421288728714,
        0.06756113469600677,
        0.028910383582115173,
        0.9972504377365112
      ],
      "scale": [
        0.9999999403953552,
        -5.614305820245136e-08,
        -8.805144169343748e-09
      ],
      "translation": [
        44.07230758666992,
        7.152557373046875e-07,
        3.814697265625e-06
      ]
    },
    {
      "name": "Bip01 R Toe0",
      "rotation": [
        1.508371738623282e-08,
        1.5911686190861474e-08,
        0.7057640552520752,
        0.7084468007087708
      ],
      "scale": [
        1.000000238418579,
        4.79055461966027e-10,
        -2.495677264846563e-08
      ],
      "translation": [
        13.616192817687988,
        14.995314598083496,
        -1.9073486328125e-06
      ]
    },
    {
      "children": [
        10
      ],
      "name": "Bip01 Spine",
      "rotation": [
        -2.0804759515158366e-06,
        -6.936760428288835e-07,
        0.0003981590270996094,
        0.9999999403953552
      ],
      "scale": [
        1.0,
        -6.39742148145217e-11,
        1.156542089609516e-14
      ],
      "translation": [
        2.840728759765625,
        -0.718707799911499,
        5.904585123062134e-06
      ]
    },
    {
      "children": [
        11
      ],
      "name": "Bip01 Spine1",
      "rotation": [
        -8.440914389977114e-14,
        7.659841116947064e-08,
        -0.027616960927844048,
        0.9996185898780823
      ],
      "scale": [
        1.0,
        4.286657417917894e-10,
        -3.3087127093332173e-15
      ],
      "translation": [
        15.780479431152344,
        -0.012592077255249023,
        -3.725290298461914e-08
      ]
    },
    {
      "children": [
        12
      ],
      "name": "Bip01 Spine2",
      "rotation": [
        -2.321598893218011e-14,
        2.855335878848564e-07,
        -0.10294690728187561,
        0.9946868419647217
      ],
      "scale": [
        1.0,
        1.4585348040441204e-08,
        1.8522062681346207e-14
      ],
      "translation": [
        15.835281372070313,
        -0.013475418090820313,
        -3.725290298461914e-08
      ]
    },
    {
      "children": [
        13,
        23,
        33
      ],
      "name": "Bip01 Neck",
      "rotation": [
        -5.875360690587444e-14,
        -7.014886591605318e-07,
        0.25291627645492554,
        0.967488169670105
      ],
      "scale": [
        1.0,
        -3.553047633886308e-08,
        3.943541456927213e-14
      ],
      "translation": [
        18.43548583984375,
        -0.00885772705078125,
        -2.2351741790771484e-08
      ]
    },
    {
      "children": [
        14,
        44
      ],
      "name": "Bip01 R Clavicle",
      "rotation": [
        -0.4834083020687103,
        0.19029392302036285,
        0.8352445960044861,
        0.18019740283489227
      ],
      "scale": [
        1.0000001192092896,
        -6.069820202014853e-10,
        -3.396074887973555e-08
      ],
      "translation": [
        -1.18988037109375,
        -0.191925048828125,
        -4.603867053985596
      ]
    },
    {
      "children": [
        15
      ],
      "name": "Bip01 R UpperArm",
      "rotation": [
        -0.07118093222379684,
        -0.23287540674209595,
        0.02572501264512539,
        0.9695568680763245
      ],
      "scale": [
        1.0000001192092896,
        -1.1714652359273714e-08,
        7.203853158443962e-08
      ],
      "translation": [
        19.847068786621094,
        0.0,
        0.0
      ]
    },
    {
      "children": [
        16
      ],
      "name": "Bip01 R ForeArm",
      "rotation": [
        5.6070720982903666e-12,
        2.235453955279354e-08,
        -0.0007525666151195765,
        0.9999997019767761
      ],
      "scale": [
        1.0,
        3.7252865237036303e-09,
        -1.4895572775230903e-08
      ],
      "translation": [
        27.864288330078125,
        -9.5367431640625e-07,
        -7.62939453125e-06
      ]
    },
    {
      "children": [
        17,
        20,
        43
      ],
      "name": "Bip01 R Hand",
      "rotation": [
        0.6610820293426514,
        0.049675352871418,
        0.038034990429878235,
        0.7477006316184998
      ],
      "scale": [
        0.9999999403953552,
        3.478810484125461e-08,
        -4.591268254472425e-09
      ],
      "translation": [
        25.690662384033203,
        0.0,
        0.0
      ]
    },
    {
      "children": [
        18
      ],
      "name": "Bip01 R Finger2",
      "rotation": [
        -0.028132770210504532,
        -0.005823914892971516,
        0.2920496463775635,
        0.9559715390205383
      ],
      "scale": [
        1.0,
        5.176795880856844e-09,
        1.1402381261405026e-08
      ],
      "translation": [
        11.659988403320313,
        -0.431396484375,
        -1.1205439567565918
      ]
    },
    {
      "children": [
        19
      ],
      "name": "Bip01 R Finger21",
      "rotation": [
        2.3161669804316887e-10,
        1.876678368262219e-09,
        0.10198190063238144,
        0.994786262512207
      ],
      "scale": [
        1.0,
        -2.497404061330144e-09,
        -3.874411902415886e-11
      ],
      "translation": [
        4.448204040527344,
        3.814697265625e-06,
        9.5367431640625e-07
      ]
    },
    {
      "name": "Bip01 R Finger22",
      "rotation": [
        0.0,
        1.8551490343909904e-09,
        0.0896250382065773,
        0.9959755539894104
      ],
      "scale": [
        1.0,
        -4.020630051115859e-09,
        -2.9923841182721844e-11
      ],
      "translation": [
        3.6346359252929688,
        0.0,
        -9.5367431640625e-07
      ]
    },
    {
      "children": [
        21
      ],
      "name": "Bip01 R Finger0",
      "rotation": [
        -0.6359974145889282,
        -0.3162306547164917,
        -0.06964925676584244,
        0.7004672884941101
      ],
      "scale": [
        1.0,
        -3.218080379951971e-08,
        -4.425968569421457e-08
      ],
      "translation": [
        0.6864433288574219,
        2.5254974365234375,
        2.747166156768799
      ]
    },
    {
      "children": [
        22
      ],
      "name": "Bip01 R Finger01",
      "rotation": [
        -4.022627564381764e-09,
        -7.281983460671881e-09,
        0.2805599272251129,
        0.959836483001709
      ],
      "scale": [
        1.0000001192092896,
        -6.834036270220167e-08,
        3.1793079280362235e-09
      ],
      "translation": [
        5.109413146972656,
        3.814697265625e-06,
        -7.62939453125e-06
      ]
    },
    {
      "name": "Bip01 R Finger02",
      "rotation": [
        -1.3909120522015428e-09,
        -4.336851364139527e-11,
        0.09313317388296127,
        0.9956536889076233
      ],
      "scale": [
        1.0,
        6.434323656417232e-19,
        1.727200604761947e-10
      ],
      "translation": [
        3.5312347412109375,
        2.384185791015625e-07,
        0.0
      ]
    },
    {
      "children": [
        24
      ],
      "name": "Bip01 Head",
      "rotation": [
        1.490577680816202e-13,
        -8.242793114732194e-08,
        0.029718054458498955,
        0.9995583295822144
      ],
      "scale": [
        1.0000001192092896,
        1.7705517052490904e-08,
        1.790616808473866e-14
      ],
      "translation": [
        11.440719604492188,
        0.0,
        -3.725290298461914e-09
      ]
    },
    {
      "children": [
        25
      ],
      "name": "Bip01 Ponytail1",
      "rotation": [
        1.9069149471279134e-12,
        -2.7697305995388888e-06,
        0.9986048936843872,
        0.05280379205942154
      ],
      "scale": [
        1.0,
        -7.41065075970937e-09,
        5.321739956262034e-14
      ],
      "translation": [
        9.20233154296875,
        -10.642349243164063,
        -2.568960189819336e-05
      ]
    },
    {
      "children": [
        26
      ],
      "name": "Bip01 Ponytail11",
      "rotation": [
        -1.4400927214499974e-14,
        -4.491429876907205e-07,
        0.1619349718093872,
        0.9868014454841614
      ],
      "scale": [
        1.0000001192092896,
        9.859291161262718e-09,
        -2.737999172004735e-13
      ],
      "translation": [
        13.133529663085938,
        -0.009548187255859375,
        -2.60770320892334e-08
      ]
    },
    {
      "children": [
        27
      ],
      "name": "Bip01 Ponytail12",
      "rotation": [
        7.198701778719698e-15,
        4.450428718882904e-07,
        -0.16045673191547394,
        0.9870428442955017
      ],
      "scale": [
        1.0,
        9.387751909173403e-09,
        -9.568187171390963e-14
      ],
      "translation": [
        12.64813232421875,
        -0.01032257080078125,
        -3.3527612686157227e-08
      ]
    },
    {
      "children": [
        28
      ],
      "name": "Bip01 Ponytail13",
      "rotation": [
        -5.345040477388284e-15,
        2.1424622786980763e-07,
        -0.0772448256611824,
        0.9970121383666992
      ],
      "scale": [
        1.0,
        5.54256374130091e-09,
        9.928612565348466e-14
      ],
      "translation": [
        13.685089111328125,
        -0.010772705078125,
        -2.60770320892334e-08
      ]
    },
    {
      "name": "Bip01 Ponytail14",
      "rotation": [
        1.1327450208289264e-13,
        6.566772015048628e-08,
        -0.023675983771681786,
        0.9997196793556213
      ],
      "scale": [
        1.0000001192092896,
        -1.0263833338797212e-08,
        -5.36488713696881e-14
      ],
      "translation": [
        13.686233520507813,
        -0.01088714599609375,
        -3.3527612686157227e-08
      ]
    },
    {
      "children": [
        30
      ],
      "name": "Bip01 L Thigh",
      "rotation": [
        -0.04179628565907478,
        0.9790624976158142,
        0.18982629477977753,
        -0.06046249344944954
      ],
      "scale": [
        1.0,
        1.8411996371980877e-09,
        2.0201927242169404e-08
      ],
      "translation": [
        -1.52587890625e-05,
        1.9371509552001953e-05,
        10.69940185546875
      ]
    },
    {
      "children": [
        31
      ],
      "name": "Bip01 L Calf",
      "rotation": [
        -1.2107189917287542e-08,
        7.454437955800586e-09,
        -0.0005179680301807821,
        0.9999998807907104
      ],
      "scale": [
        1.000000238418579,
        -1.4155274175031707e-11,
        -4.827760587133856e-12
      ],
      "translation": [
        47.20613479614258,
        2.384185791015625e-07,
        0.0
      ]
    },
    {
      "children": [
        32
      ],
      "name": "Bip01 L Foot",
      "rotation": [
        -0.009553435258567333,
        -0.06756112724542618,
        0.02891038917005062,
        0.9972504377365112
      ],
      "scale": [
        1.0000001192092896,
        -6.369448612986162e-08,
        -1.071599164959025e-08
      ],
      "translation": [
        44.07231903076172,
        1.6689300537109375e-06,
        0.0
      ]
    },
    {
      "name": "Bip01 L Toe0",
      "rotation": [
        -9.808895917728933e-09,
        -2.117682207369853e-08,
        0.7057642340660095,
        0.7084468603134155
      ],
      "scale": [
        1.000000238418579,
        4.72349714897291e-10,
        1.006024685779039e-08
      ],
      "translation": [
        13.616192817687988,
        14.995314598083496,
        0.0
      ]
    },
    {
      "children": [
        34,
        45
      ],
      "name": "Bip01 L Clavicle",
      "rotation": [
        0.4834088087081909,
        -0.1902962476015091,
        0.8352440595626831,
        0.18019606173038483
      ],
      "scale": [
        1.000000238418579,
        -4.650813067996751e-09,
        4.8342108982524223e-08
      ],
      "translation": [
        -1.18988037109375,
        -0.19195175170898438,
        4.603867053985596
      ]
    },
    {
      "children": [
        35
      ],
      "name": "Bip01 L UpperArm",
      "rotation": [
        0.0782642662525177,
        0.24452170729637146,
        0.06084641441702843,
        0.9645628929138184
      ],
      "scale": [
        1.0000001192092896,
        3.847087981512232e-09,
        4.9457087314408454e-09
      ],
      "translation": [
        19.847068786621094,
        0.0,
        0.0
      ]
    },
    {
      "children": [
        36
      ],
      "name": "Bip01 L ForeArm",
      "rotation": [
        4.989350599338138e-10,
        1.514227321308681e-08,
        -0.03348296880722046,
        0.9994392991065979
      ],
      "scale": [
        1.0,
        4.515197534402918e-16,
        -2.9303667048452553e-08
      ],
      "translation": [
        27.864295959472656,
        0.0,
        -7.62939453125e-06
      ]
    },
    {
      "children": [
        37,
        40
      ],
      "name": "Bip01 L Hand",
      "rotation": [
        -0.7916519641876221,
        0.005645343568176031,
        0.026196429505944252,
        0.6103843450546265
      ],
      "scale": [
        1.0,
        -2.4153012923022743e-09,
        1.529113902165591e-08
      ],
      "translation": [
        26.83318328857422,
        9.5367431640625e-07,
        0.0
      ]
    },
    {
      "children": [
        38
      ],
      "name": "Bip01 L Finger2",
      "rotation": [
        -0.046775829046964645,
        -0.09146642684936523,
        0.2815311849117279,
        0.9540367126464844
      ],
      "scale": [
        0.9999999403953552,
        -6.49550955245104e-08,
        -1.3509870555594716e-08
      ],
      "translation": [
        14.496322631835938,
        -0.7662353515625,
        -2.584461212158203
      ]
    },
    {
      "children": [
        39
      ],
      "name": "Bip01 L Finger21",
      "rotation": [
        -1.6137517988568106e-08,
        4.405950715380413e-09,
        0.14005015790462494,
        0.9901444315910339
      ],
      "scale": [
        1.0,
        2.960528116721753e-16,
        5.794598134656326e-09
      ],
      "translation": [
        6.126617431640625,
        -3.814697265625e-06,
        0.0
      ]
    },
    {
      "name": "Bip01 L Finger22",
      "rotation": [
        5.562810212467184e-09,
        6.192363843915416e-10,
        0.0947219580411911,
        0.9955037832260132
      ],
      "scale": [
        1.0000001192092896,
        -4.72941046325559e-08,
        -3.5462255354445915e-09
      ],
      "translation": [
        6.1266021728515625,
        -1.9073486328125e-06,
        -3.814697265625e-06
      ]
    },
    {
      "children": [
        41
      ],
      "name": "Bip01 L Finger0",
      "rotation": [
        0.6419492959976196,
        0.36710938811302185,
        -0.010143228806555271,
        0.6730742454528809
      ],
      "scale": [
        1.0,
        -1.539798404337489e-07,
        -4.864381253355532e-08
      ],
      "translation": [
        2.7255325317382813,
        1.5828857421875,
        -4.528720855712891
      ]
    },
    {
      "children": [
        42
      ],
      "name": "Bip01 L Finger01",
      "rotation": [
        3.2692646367848965e-09,
        1.4123232583429512e-09,
        0.22189922630786896,
        0.9750695824623108
      ],
      "scale": [
        1.0000001192092896,
        -1.074454303306993e-09,
        -1.7323120715673213e-08
      ],
      "translation": [
        9.032466888427734,
        7.62939453125e-06,
        3.814697265625e-06
      ]
    },
    {
      "name": "Bip01 L Finger02",
      "rotation": [
        6.4918466158303545e-09,
        6.213337622185122e-10,
        0.2522697448730469,
        0.9676569700241089
      ],
      "scale": [
        1.0000001192092896,
        -2.291791290076617e-08,
        1.6523734602813533e-09
      ],
      "translation": [
        5.888343811035156,
        0.0,
        0.0
      ]
    },
    {
      "name": "equip_right",
      "rotation": [
        5.094334483146667e-07,
        1.73225998878479e-07,
        -2.682208730675484e-07,
        1.0
      ],
      "scale": [
        1.0000001192092896,
        -1.2561505384044852e-13,
        7.45087103126707e-09
      ],
      "translation": [
        7.531375885009766,
        2.14093017578125,
        -2.0025744438171387
      ]
    },
    {
      "name": "sh_bone03",
      "rotation": [
        -0.7829573154449463,
        0.18353186547756195,
        0.13405536115169525,
        0.5790708661079407
      ],
      "scale": [
        0.9999999403953552,
        3.432907647038519e-08,
        -5.227851929134886e-09
      ],
      "translation": [
        4.0081329345703125,
        -1.2899589538574219,
        -3.5871124267578125
      ]
    },
    {
      "name": "sh_bone01",
      "rotation": [
        0.782957911491394,
        -0.1835326850414276,
        0.1340528428554535,
        0.5790703892707825
      ],
      "scale": [
        1.0000001192092896,
        -1.8732744244687183e-09,
        3.2458129517465295e-09
      ],
      "translation": [
        4.0081329345703125,
        -1.290008544921875,
        3.5870819091796875
      ]
    }
  ],
  "scene": 0,
  "scenes": [
    {
      "nodes": [
        0
      ]
    }
  ],
  "skins": [
    {
      "inverseBindMatrices": 8,
      "joints": [
        3,
        4,
        5,
        6,
        7,
        8,
        9,
        10,
        11,
        12,
        13,
        14,
        15,
        16,
        17,
        18,
        19,
        20,
        21,
        22,
        23,
        24,
        25,
        26,
        27,
        28,
        29,
        30,
        31,
        32,
        33,
        34,
        35,
        36,
        37,
        38,
        39,
        40,
        41,
        42,
        43,
        44,
        45
      ],
      "skeleton": 3
    }
  ]
}
