{
  "accessors": [
    {
      "bufferView": 0,
      "componentType": 5126,
      "count": 197,
      "max": [
        179.9289093017578,
        177.89251708984375,
        182.65960693359375
      ],
      "min": [
        -9.121792793273926,
        -9.534292221069336,
        -9.461098670959473
      ],
      "type": "VEC3"
    },
    {
      "bufferView": 1,
      "componentType": 5126,
      "count": 197,
      "type": "VEC3"
    },
    {
      "bufferView": 2,
      "componentType": 5126,
      "count": 197,
      "type": "VEC2"
    },
    {
      "bufferView": 3,
      "componentType": 5123,
      "count": 1032,
      "type": "SCALAR"
    },
    {
      "bufferView": 4,
      "componentType": 5126,
      "count": 1507,
      "max": [
        179.9289093017578,
        177.89251708984375,
        182.65960693359375
      ],
      "min": [
        -62.34568786621094,
        -60.48766326904297,
        -60.48766326904297
      ],
      "type": "VEC3"
    },
    {
      "bufferView": 5,
      "componentType": 5126,
      "count": 1507,
      "type": "VEC3"
    },
    {
      "bufferView": 6,
      "componentType": 5126,
      "count": 1507,
      "type": "VEC2"
    },
    {
      "bufferView": 7,
      "componentType": 5123,
      "count": 6123,
      "type": "SCALAR"
    },
    {
      "bufferView": 8,
      "componentType": 5126,
      "count": 425,
      "max": [
        179.9289093017578,
        178.0179901123047,
        182.65960693359375
      ],
      "min": [
        -62.34568786621094,
        -60.48766326904297,
        -60.48766326904297
      ],
      "type": "VEC3"
    },
    {
      "bufferView": 9,
      "componentType": 5126,
      "count": 425,
      "type": "VEC3"
    },
    {
      "bufferView": 10,
      "componentType": 5126,
      "count": 425,
      "type": "VEC2"
    },
    {
      "bufferView": 11,
      "componentType": 5123,
      "count": 1350,
      "type": "SCALAR"
    },
    {
      "bufferView": 12,
      "componentType": 5126,
      "count": 101,
      "max": [
        179.9289093017578,
        178.0179901123047,
        182.65960693359375
      ],
      "min": [
        -62.34568786621094,
        -60.48766326904297,
        -60.48766326904297
      ],
      "type": "VEC3"
    },
    {
      "bufferView": 13,
      "componentType": 5126,
      "count": 101,
      "type": "VEC3"
    },
    {
      "bufferView": 14,
      "componentType": 5126,
      "count": 101,
      "type": "VEC2"
    },
    {
      "bufferView": 15,
      "componentType": 5123,
      "count": 363,
      "type": "SCALAR"
    },
    {
      "bufferView": 16,
      "componentType": 5126,
      "count": 89,
      "type": "MAT4"
    }
  ],
  "asset": {
    "generator": "gr2togltf (ANKA2 Project)",
    "version": "2.0"
  },
  "bufferViews": [
    {
      "buffer": 0,
      "byteLength": 2364,
      "target": 34962
    },
    {
      "buffer": 0,
      "byteLength": 2364,
      "byteOffset": 2364,
      "target": 34962
    },
    {
      "buffer": 0,
      "byteLength": 1576,
      "byteOffset": 4728,
      "target": 34962
    },
    {
      "buffer": 0,
      "byteLength": 2064,
      "byteOffset": 6304,
      "target": 34963
    },
    {
      "buffer": 0,
      "byteLength": 18084,
      "byteOffset": 8368,
      "target": 34962
    },
    {
      "buffer": 0,
      "byteLength": 18084,
      "byteOffset": 26452,
      "target": 34962
    },
    {
      "buffer": 0,
      "byteLength": 12056,
      "byteOffset": 44536,
      "target": 34962
    },
    {
      "buffer": 0,
      "byteLength": 12246,
      "byteOffset": 56592,
      "target": 34963
    },
    {
      "buffer": 0,
      "byteLength": 5100,
      "byteOffset": 68838,
      "target": 34962
    },
    {
      "buffer": 0,
      "byteLength": 5100,
      "byteOffset": 73938,
      "target": 34962
    },
    {
      "buffer": 0,
      "byteLength": 3400,
      "byteOffset": 79038,
      "target": 34962
    },
    {
      "buffer": 0,
      "byteLength": 2700,
      "byteOffset": 82438,
      "target": 34963
    },
    {
      "buffer": 0,
      "byteLength": 1212,
      "byteOffset": 85138,
      "target": 34962
    },
    {
      "buffer": 0,
      "byteLength": 1212,
      "byteOffset": 86350,
      "target": 34962
    },
    {
      "buffer": 0,
      "byteLength": 808,
      "byteOffset": 87562,
      "target": 34962
    },
    {
      "buffer": 0,
      "byteLength": 726,
      "byteOffset": 88370,
      "target": 34963
    },
    {
      "buffer": 0,
      "byteLength": 5696,
      "byteOffset": 89096
    }
  ],
  "buffers": [
    {
      "byteLength": 94792,
      "uri": "data:application/octet-stream;base64,"
    }
  ],
  "materials": [
    {
      "name": "default",
      "pbrMetallicRoughness": {
        "baseColorFactor": [
          0.8,
          0.8,
          0.8,
          1.0
        ],
        "metallicFactor": 0.0,
        "roughnessFactor": 0.8
      }
    }
  ],
  "meshes": [
    {
      "name": "sura_face",
      "primitives": [
        {
          "attributes": {
            "NORMAL": 1,
            "POSITION": 0,
            "TEXCOORD_0": 2
          },
          "indices": 3,
          "material": 0,
          "mode": 4
        }
      ]
    },
    {
      "name": "sura_ramadan_2019_model",
      "primitives": [
        {
          "attributes": {
            "NORMAL": 5,
            "POSITION": 4,
            "TEXCOORD_0": 6
          },
          "indices": 7,
          "material": 0,
          "mode": 4
        }
      ]
    },
    {
      "name": "body1",
      "primitives": [
        {
          "attributes": {
            "NORMAL": 9,
            "POSITION": 8,
            "TEXCOORD_0": 10
          },
          "indices": 11,
          "material": 0,
          "mode": 4
        }
      ]
    },
    {
      "name": "body2",
      "primitives": [
        {
          "attributes": {
            "NORMAL": 13,
            "POSITION": 12,
            "TEXCOORD_0": 14
          },
          "indices": 15,
          "material": 0,
          "mode": 4
        }
      ]
    }
  ],
  "nodes": [
    {
      "children": [
        1,
        2,
        3,
        4,
        5
      ]
    },
    {
      "mesh": 0,
      "name": "sura_face",
      "skin": 0
    },
    {
      "mesh": 1,
      "name": "sura_ramadan_2019_model",
      "skin": 0
    },
    {
      "mesh": 2,
      "name": "body1",
      "skin": 0
    },
    {
      "mesh": 3,
      "name": "body2",
      "skin": 0
    },
    {
      "children": [
        6
      ],
      "name": "Bip01",
      "rotation": [
        0.0,
        0.0,
        0.0,
        0.9999999403953552
      ],
      "scale": [
        0.9999997019767761,
        -1.3359980981751673e-13,
        0.0
      ],
      "translation": [
        0.0,
        -3.725290298461914e-09,
        0.0
      ]
    },
    {
      "children": [
        7,
        16,
        21
      ],
      "name": "Bip01 Pelvis",
      "rotation": [
        -0.4999993145465851,
        -0.5,
        -0.5,
        0.5000006556510925
      ],
      "scale": [
        1.0,
        5.1399245505243465e-20,
        8.265705963650741e-14
      ],
      "translation": [
        -1.4508966207504272,
        0.0,
        0.0
      ]
    },
    {
      "children": [
        8,
        26,
        29,
        32,
        35
      ],
      "name": "Bip01 Spine",
      "rotation": [
        -2.0804759515158366e-06,
        -6.936760428288835e-07,
        0.0003981590270996094,
        0.9999999403953552
      ],
      "scale": [
        1.0,
        -6.39742148145217e-11,
        1.156542089609516e-14
      ],
      "translation": [
        2.840728759765625,
        -0.718707799911499,
        5.904585123062134e-06
      ]
    },
    {
      "children": [
        9
      ],
      "name": "Bip01 Spine1",
      "rotation": [
        -8.440914389977114e-14,
        7.659859591058193e-08,
        -0.02761702798306942,
        0.9996185898780823
      ],
      "scale": [
        1.0,
        4.286577481860121e-10,
        -3.3049620474427752e-15
      ],
      "translation": [
        15.780479431152344,
        -0.012592077255249023,
        -3.725290298461914e-08
      ]
    },
    {
      "children": [
        10
      ],
      "name": "Bip01 Spine2",
      "rotation": [
        3.571690604950786e-15,
        2.855335878848564e-07,
        -0.10294690728187561,
        0.9946868419647217
      ],
      "scale": [
        1.0000001192092896,
        1.6963637605726944e-08,
        1.7942905597726974e-14
      ],
      "translation": [
        15.835281372070313,
        -0.013475418090820313,
        -3.725290298461914e-08
      ]
    },
    {
      "children": [
        11,
        56,
        86
      ],
      "name": "Bip01 Neck",
      "rotation": [
        -2.937680345293722e-14,
        -7.014888296907884e-07,
        0.2529163062572479,
        0.967488169670105
      ],
      "scale": [
        1.0,
        -6.360741711119999e-09,
        -5.14096347415359e-14
      ],
      "translation": [
        18.435470581054688,
        -0.008853912353515625,
        -2.2351741790771484e-08
      ]
    },
    {
      "children": [
        12,
        38,
        40
      ],
      "name": "Bip01 R Clavicle",
      "rotation": [
        -0.4834083020687103,
        0.19029393792152405,
        0.8352445960044861,
        0.18019741773605347
      ],
      "scale": [
        1.0000001192092896,
        1.0259402216661329e-09,
        -4.734992842259089e-08
      ],
      "translation": [
        -1.18988037109375,
        -0.191925048828125,
        -4.603867053985596
      ]
    },
    {
      "children": [
        13
      ],
      "name": "Bip01 R UpperArm",
      "rotation": [
        -0.07118099182844162,
        -0.23287540674209595,
        0.02572506107389927,
        0.9695568680763245
      ],
      "scale": [
        1.0000001192092896,
        -1.8765637932460777e-09,
        4.3568167740204444e-08
      ],
      "translation": [
        19.847068786621094,
        0.0,
        -1.52587890625e-05
      ]
    },
    {
      "children": [
        14
      ],
      "name": "Bip01 R ForeArm",
      "rotation": [
        5.6070720982903666e-12,
        2.235453955279354e-08,
        -0.0007525666151195765,
        0.9999997019767761
      ],
      "scale": [
        1.0,
        3.7252865237036303e-09,
        -1.4895572775230903e-08
      ],
      "translation": [
        27.864288330078125,
        0.0,
        -7.62939453125e-06
      ]
    },
    {
      "children": [
        15,
        44,
        48,
        52
      ],
      "name": "Bip01 R Hand",
      "rotation": [
        0.6610820293426514,
        0.049675352871418,
        0.038034990429878235,
        0.7477006316184998
      ],
      "scale": [
        0.9999999403953552,
        3.478810484125461e-08,
        -4.591268254472425e-09
      ],
      "translation": [
        25.690662384033203,
        0.0,
        0.0
      ]
    },
    {
      "name": "equip_right",
      "rotation": [
        7.627526201758883e-07,
        2.0209675710702868e-07,
        -4.693860660154314e-07,
        1.0
      ],
      "scale": [
        1.0000014305114746,
        -1.4901143430279262e-08,
        1.8635091247887203e-09
      ],
      "translation": [
        7.531429290771484,
        2.14093017578125,
        -2.002593994140625
      ]
    },
    {
      "children": [
        17
      ],
      "name": "Bip01 R Thigh",
      "rotation": [
        -0.04179610311985016,
        0.9790621399879456,
        -0.18982774019241333,
        0.060463797301054
      ],
      "scale": [
        1.0,
        1.5440169143232652e-09,
        -1.3925354203081497e-09
      ],
      "translation": [
        1.52587890625e-05,
        -1.0311603546142578e-05,
        -10.699399948120117
      ]
    },
    {
      "children": [
        18
      ],
      "name": "Bip01 R Calf",
      "rotation": [
        4.192880265208032e-09,
        3.724807573490807e-09,
        -0.0005179690779186785,
        0.9999998807907104
      ],
      "scale": [
        0.9999999403953552,
        -5.711425998811137e-09,
        -7.447203742572128e-09
      ],
      "translation": [
        47.206119537353516,
        -9.5367431640625e-07,
        0.0
      ]
    },
    {
      "children": [
        19
      ],
      "name": "Bip01 R Foot",
      "rotation": [
        0.009553421288728714,
        0.06756113469600677,
        0.028910383582115173,
        0.9972504377365112
      ],
      "scale": [
        0.9999999403953552,
        -5.614305820245136e-08,
        -8.805144169343748e-09
      ],
      "translation": [
        44.07230758666992,
        7.152557373046875e-07,
        3.814697265625e-06
      ]
    },
    {
      "children": [
        20
      ],
      "name": "Bip01 R Toe0",
      "rotation": [
        1.508371738623282e-08,
        1.5911686190861474e-08,
        0.7057640552520752,
        0.7084468007087708
      ],
      "scale": [
        1.000000238418579,
        4.79055461966027e-10,
        -2.495677264846563e-08
      ],
      "translation": [
        13.616192817687988,
        14.995314598083496,
        -1.9073486328125e-06
      ]
    },
    {
      "name": "Bip01 R Toe0Nub",
      "rotation": [
        1.6370904631912708e-11,
        -8.08597633294994e-12,
        3.036637543584131e-20,
        1.0
      ],
      "scale": [
        0.9999999403953552,
        3.4557538040934114e-19,
        3.783469537665951e-09
      ],
      "translation": [
        11.541619300842285,
        1.4901161193847656e-08,
        0.0
      ]
    },
    {
      "children": [
        22
      ],
      "name": "Bip01 L Thigh",
      "rotation": [
        -0.04179628565907478,
        0.9790624976158142,
        0.18982629477977753,
        -0.06046249344944954
      ],
      "scale": [
        1.0,
        1.8411996371980877e-09,
        2.0201927242169404e-08
      ],
      "translation": [
        -1.52587890625e-05,
        1.9371509552001953e-05,
        10.69940185546875
      ]
    },
    {
      "children": [
        23
      ],
      "name": "Bip01 L Calf",
      "rotation": [
        -1.2107189917287542e-08,
        7.454437955800586e-09,
        -0.0005179680301807821,
        0.9999998807907104
      ],
      "scale": [
        1.000000238418579,
        -1.4155274175031707e-11,
        -4.827760587133856e-12
      ],
      "translation": [
        47.20613479614258,
        2.384185791015625e-07,
        0.0
      ]
    },
    {
      "children": [
        24
      ],
      "name": "Bip01 L Foot",
      "rotation": [
        -0.009553435258567333,
        -0.06756112724542618,
        0.02891038917005062,
        0.9972504377365112
      ],
      "scale": [
        1.0000001192092896,
        -6.369448612986162e-08,
        -1.071599164959025e-08
      ],
      "translation": [
        44.07231903076172,
        1.6689300537109375e-06,
        0.0
      ]
    },
    {
      "children": [
        25
      ],
      "name": "Bip01 L Toe0",
      "rotation": [
        -9.808895917728933e-09,
        -2.117682207369853e-08,
        0.7057642340660095,
        0.7084468603134155
      ],
      "scale": [
        1.000000238418579,
        4.72349714897291e-10,
        1.006024685779039e-08
      ],
      "translation": [
        13.616192817687988,
        14.995314598083496,
        0.0
      ]
    },
    {
      "name": "Bip01 L Toe0Nub",
      "rotation": [
        1.2732926692182733e-11,
        8.363087999896379e-12,
        1.1641532182693481e-10,
        1.0
      ],
      "scale": [
        0.9999999403953552,
        -2.3283062977608182e-10,
        3.7748435488538234e-09
      ],
      "translation": [
        11.541621208190918,
        0.0,
        1.9073486328125e-06
      ]
    },
    {
      "children": [
        27
      ],
      "name": "Bone11",
      "rotation": [
        2.887571959320212e-08,
        -7.171537959038687e-07,
        0.9923978447914124,
        -0.12307097762823105
      ],
      "scale": [
        1.0000009536743164,
        9.893632579860423e-10,
        3.465493002155831e-15
      ],
      "translation": [
        13.543373107910156,
        -9.46330738067627,
        -0.05017853528261185
      ]
    },
    {
      "children": [
        28
      ],
      "name": "Bone12",
      "rotation": [
        1.0100170300120226e-07,
        5.347721554471718e-08,
        0.0030555345583707094,
        0.9999953508377075
      ],
      "scale": [
        1.0,
        2.628186834829904e-10,
        -2.1175013917859933e-14
      ],
      "translation": [
        23.542457580566406,
        0.0,
        7.275957614183426e-12
      ]
    },
    {
      "name": "Bone13",
      "rotation": [
        4.884981308350689e-15,
        -1.7763568394002505e-15,
        7.450580596923828e-09,
        1.0
      ],
      "scale": [
        1.0,
        5.679798517591285e-29,
        3.552713678800501e-15
      ],
      "translation": [
        27.98424530029297,
        0.0,
        -3.637978807091713e-12
      ]
    },
    {
      "children": [
        30
      ],
      "name": "Bone09",
      "rotation": [
        -6.426876097975764e-08,
        1.6766820465363708e-07,
        0.9976951479911804,
        0.06785586476325989
      ],
      "scale": [
        1.0000008344650269,
        -2.7537931934773496e-09,
        -1.0588963855599244e-14
      ],
      "translation": [
        10.042915344238281,
        13.947978973388672,
        -0.0500946082174778
      ]
    },
    {
      "children": [
        31
      ],
      "name": "Bone10",
      "rotation": [
        1.0151204014744244e-13,
        -1.443336349418213e-14,
        -0.003593200584873557,
        0.9999935626983643
      ],
      "scale": [
        0.9999998807907104,
        -7.461836704081293e-11,
        -2.1031604463626202e-14
      ],
      "translation": [
        28.003341674804688,
        5.7220458984375e-06,
        3.587983883335255e-07
      ]
    },
    {
      "name": "Bone10-1",
      "rotation": [
        1.3322676295501878e-15,
        -1.4210854715202004e-14,
        1.467281283711082e-28,
        1.0
      ],
      "scale": [
        1.0,
        -3.9758589623138995e-28,
        2.1316282072803006e-14
      ],
      "translation": [
        26.25847625732422,
        -1.9073486328125e-06,
        3.445570655458141e-07
      ]
    },
    {
      "children": [
        33
      ],
      "name": "Bone14",
      "rotation": [
        0.08666560053825378,
        0.7017759680747986,
        0.7017751932144165,
        -0.08666658401489258
      ],
      "scale": [
        0.8054582476615906,
        1.3680931054693701e-08,
        5.88588761063491e-11
      ],
      "translation": [
        13.395828247070313,
        1.2645530700683594,
        14.345704078674316
      ]
    },
    {
      "children": [
        34
      ],
      "name": "Bone15",
      "rotation": [
        -1.817544920991454e-12,
        -7.247583880699154e-14,
        0.039844024926424026,
        0.9992058873176575
      ],
      "scale": [
        1.2162787914276123,
        -1.485384881760865e-08,
        -4.371348068783567e-20
      ],
      "translation": [
        23.612503051757813,
        0.0,
        4.0605664253234863e-07
      ]
    },
    {
      "name": "Bone16",
      "rotation": [
        -2.7124227343355845e-12,
        1.0849687467895386e-11,
        0.0,
        1.0
      ],
      "scale": [
        0.4486870765686035,
        -1.4901161193847656e-08,
        2.428814614707786e-11
      ],
      "translation": [
        25.08246612548828,
        0.0,
        2.5331974029541016e-06
      ]
    },
    {
      "children": [
        36
      ],
      "name": "Bone17",
      "rotation": [
        -0.08664769679307938,
        -0.7017776370048523,
        0.7017779350280762,
        -0.08664765954017639
      ],
      "scale": [
        0.805458664894104,
        1.1919430775719775e-08,
        -1.5652348937366528e-13
      ],
      "translation": [
        13.395820617675781,
        1.2645920515060425,
        -14.413758277893066
      ]
    },
    {
      "children": [
        37
      ],
      "name": "Bone18",
      "rotation": [
        1.5970674382970174e-07,
        6.30621199704251e-09,
        0.03984777629375458,
        0.9992057681083679
      ],
      "scale": [
        1.2162786722183228,
        4.0126253582261555e-17,
        -1.8175901062011945e-10
      ],
      "translation": [
        23.612510681152344,
        0.0,
        4.0605664253234863e-07
      ]
    },
    {
      "name": "Bone19",
      "rotation": [
        4.4391458597399444e-20,
        3.2549064138409634e-11,
        4.151322841039473e-09,
        1.0
      ],
      "scale": [
        0.4486871063709259,
        -3.725290742551124e-09,
        4.37606062497764e-11
      ],
      "translation": [
        25.082473754882813,
        -7.62939453125e-06,
        2.5331974029541016e-06
      ]
    },
    {
      "children": [
        39
      ],
      "name": "sh_bone03",
      "rotation": [
        -0.7829573154449463,
        0.1835324615240097,
        0.13405577838420868,
        0.5790705680847168
      ],
      "scale": [
        1.0000005960464478,
        -4.598405567435293e-08,
        5.168196537397307e-09
      ],
      "translation": [
        4.008125305175781,
        -1.2899627685546875,
        -3.587188720703125
      ]
    },
    {
      "name": "sh_bone04",
      "rotation": [
        1.7763568394002505e-15,
        -7.444045380111675e-14,
        7.553343167491188e-29,
        1.0
      ],
      "scale": [
        1.0,
        0.0,
        -6.38378239159465e-14
      ],
      "translation": [
        31.181865692138672,
        -1.52587890625e-05,
        4.76837158203125e-07
      ]
    },
    {
      "children": [
        41
      ],
      "name": "Bone05",
      "rotation": [
        -0.1640295833349228,
        -0.47258761525154114,
        0.1254570186138153,
        0.8567472100257874
      ],
      "scale": [
        0.9009685516357422,
        1.3288353528650987e-08,
        3.1313053483472686e-08
      ],
      "translation": [
        5.758644104003906,
        8.408039093017578,
        -7.7870635986328125
      ]
    },
    {
      "children": [
        42
      ],
      "name": "Bone06",
      "rotation": [
        3.9396221040988166e-07,
        -8.399375417411648e-09,
        -0.021625924855470657,
        0.9997661113739014
      ],
      "scale": [
        1.194229245185852,
        1.230981450106583e-08,
        -3.4329852294234797e-09
      ],
      "translation": [
        39.820037841796875,
        -1.52587890625e-05,
        5.7220458984375e-06
      ]
    },
    {
      "children": [
        43
      ],
      "name": "Bone07",
      "rotation": [
        2.853438041405809e-10,
        9.323719574183542e-10,
        -0.006108616478741169,
        0.9999813437461853
      ],
      "scale": [
        0.9999998807907104,
        3.521949398788138e-09,
        1.8681949320864533e-09
      ],
      "translation": [
        30.00074005126953,
        6.866455078125e-05,
        3.814697265625e-06
      ]
    },
    {
      "name": "Bone08",
      "rotation": [
        1.7462298274040222e-10,
        -1.862645149230957e-09,
        0.0,
        1.0
      ],
      "scale": [
        1.0,
        7.450580596923828e-09,
        0.0
      ],
      "translation": [
        29.23509979248047,
        -7.62939453125e-06,
        3.814697265625e-06
      ]
    },
    {
      "children": [
        45
      ],
      "name": "Bip01 R Finger2",
      "rotation": [
        -0.028132770210504532,
        -0.005823914892971516,
        0.2920496463775635,
        0.9559715390205383
      ],
      "scale": [
        1.0,
        5.176795880856844e-09,
        1.1402381261405026e-08
      ],
      "translation": [
        11.659988403320313,
        -0.431396484375,
        -1.1205434799194336
      ]
    },
    {
      "children": [
        46
      ],
      "name": "Bip01 R Finger21",
      "rotation": [
        2.3161669804316887e-10,
        1.876678368262219e-09,
        0.10198190063238144,
        0.994786262512207
      ],
      "scale": [
        1.0,
        -2.497404061330144e-09,
        -3.874411902415886e-11
      ],
      "translation": [
        4.448204040527344,
        3.814697265625e-06,
        1.9073486328125e-06
      ]
    },
    {
      "children": [
        47
      ],
      "name": "Bip01 R Finger22",
      "rotation": [
        0.0,
        1.8551490343909904e-09,
        0.0896250382065773,
        0.9959755539894104
      ],
      "scale": [
        1.0,
        -4.020630051115859e-09,
        -2.9923841182721844e-11
      ],
      "translation": [
        3.6346359252929688,
        0.0,
        -1.9073486328125e-06
      ]
    },
    {
      "name": "Bip01 R Finger2Nub",
      "rotation": [
        -1.3877787807814457e-17,
        1.8626450382086546e-09,
        7.4505797087454084e-09,
        1.0
      ],
      "scale": [
        1.0000001192092896,
        -1.4901162970204496e-08,
        -2.498001805406602e-16
      ],
      "translation": [
        3.87054443359375,
        -3.814697265625e-06,
        0.0
      ]
    },
    {
      "children": [
        49
      ],
      "name": "Bip01 R Finger1",
      "rotation": [
        -0.07368870079517365,
        -0.03421925753355026,
        0.29757359623908997,
        0.9512354731559753
      ],
      "scale": [
        0.9999999403953552,
        -1.2231342338964168e-07,
        -1.5051156765366613e-08
      ],
      "translation": [
        11.491893768310547,
        -0.25464630126953125,
        4.704718112945557
      ]
    },
    {
      "children": [
        50
      ],
      "name": "Bip01 R Finger11",
      "rotation": [
        -2.8965621012844167e-09,
        6.560927356957791e-10,
        0.0949033722281456,
        0.9954864978790283
      ],
      "scale": [
        1.0000001192092896,
        -3.3704417035096412e-09,
        -3.731885911406607e-09
      ],
      "translation": [
        4.719993591308594,
        -3.814697265625e-06,
        0.0
      ]
    },
    {
      "children": [
        51
      ],
      "name": "Bip01 R Finger12",
      "rotation": [
        -5.419185655775038e-10,
        -3.1422677793102594e-09,
        0.08288811892271042,
        0.9965588450431824
      ],
      "scale": [
        1.0000001192092896,
        4.997657399030686e-09,
        6.865442436776448e-09
      ],
      "translation": [
        3.115997314453125,
        0.0,
        9.5367431640625e-07
      ]
    },
    {
      "name": "Bip01 R Finger1Nub",
      "rotation": [
        -1.1641532182693481e-09,
        -1.862645149230957e-09,
        -3.469447779134227e-18,
        1.0
      ],
      "scale": [
        0.9999999403953552,
        -8.271804153378014e-25,
        3.725290076417309e-09
      ],
      "translation": [
        3.9604110717773438,
        0.0,
        9.5367431640625e-07
      ]
    },
    {
      "children": [
        53
      ],
      "name": "Bip01 R Finger0",
      "rotation": [
        -0.6359974145889282,
        -0.3162306547164917,
        -0.06964925676584244,
        0.7004672884941101
      ],
      "scale": [
        1.0,
        -3.218080379951971e-08,
        -4.425968569421457e-08
      ],
      "translation": [
        0.6864471435546875,
        2.5254974365234375,
        2.747166633605957
      ]
    },
    {
      "children": [
        54
      ],
      "name": "Bip01 R Finger01",
      "rotation": [
        -4.022627564381764e-09,
        -7.281983460671881e-09,
        0.2805599272251129,
        0.959836483001709
      ],
      "scale": [
        1.0000001192092896,
        -6.834036270220167e-08,
        3.1793079280362235e-09
      ],
      "translation": [
        5.109413146972656,
        3.814697265625e-06,
        -7.62939453125e-06
      ]
    },
    {
      "children": [
        55
      ],
      "name": "Bip01 R Finger02",
      "rotation": [
        -1.3909120522015428e-09,
        -4.336851364139527e-11,
        0.09313317388296127,
        0.9956536889076233
      ],
      "scale": [
        1.0,
        6.434323656417232e-19,
        1.727200604761947e-10
      ],
      "translation": [
        3.5312347412109375,
        2.384185791015625e-07,
        0.0
      ]
    },
    {
      "name": "Bip01 R Finger0Nub",
      "rotation": [
        9.313225746154785e-10,
        3.725290298461914e-09,
        -6.938894731087841e-18,
        1.0
      ],
      "scale": [
        1.0,
        0.0,
        -7.450580596923828e-09
      ],
      "translation": [
        5.245460510253906,
        3.814697265625e-06,
        0.0
      ]
    },
    {
      "children": [
        57,
        59,
        63
      ],
      "name": "Bip01 L Clavicle",
      "rotation": [
        0.4834088087081909,
        -0.1902962625026703,
        0.8352440595626831,
        0.18019607663154602
      ],
      "scale": [
        1.000000238418579,
        -1.9072009749265817e-08,
        6.084380999027417e-08
      ],
      "translation": [
        -1.18988037109375,
        -0.19195175170898438,
        4.603867053985596
      ]
    },
    {
      "children": [
        58
      ],
      "name": "sh_bone01",
      "rotation": [
        0.7829577922821045,
        -0.18353262543678284,
        0.1340528279542923,
        0.5790703296661377
      ],
      "scale": [
        1.0000007152557373,
        -4.152011001679057e-08,
        -1.2371571322944419e-08
      ],
      "translation": [
        4.0081024169921875,
        -1.2900161743164063,
        3.58709716796875
      ]
    },
    {
      "name": "sh_bone02",
      "rotation": [
        -1.7763568394002505e-15,
        -2.7755575615628914e-15,
        -1.6566079009641248e-29,
        1.0
      ],
      "scale": [
        1.0,
        2.68212707775144e-29,
        1.9984014443252818e-15
      ],
      "translation": [
        31.18186378479004,
        0.0,
        4.76837158203125e-07
      ]
    },
    {
      "children": [
        60
      ],
      "name": "Bone01",
      "rotation": [
        0.16403111815452576,
        0.4725884795188904,
        0.12545493245124817,
        0.8567467331886292
      ],
      "scale": [
        0.9009681344032288,
        5.957587756455496e-09,
        4.6989143243081344e-08
      ],
      "translation": [
        5.879570007324219,
        8.388134002685547,
        7.8505859375
      ]
    },
    {
      "children": [
        61
      ],
      "name": "Bone02",
      "rotation": [
        -2.1085731771730565e-10,
        -8.437276433070906e-10,
        -0.02162293717265129,
        0.9997662305831909
      ],
      "scale": [
        1.194229245185852,
        -1.5796902870423981e-18,
        -2.0256272215135596e-09
      ],
      "translation": [
        39.820037841796875,
        0.0,
        0.0
      ]
    },
    {
      "children": [
        62
      ],
      "name": "Bone03",
      "rotation": [
        -1.7067255594915842e-11,
        9.313051996251431e-10,
        -0.006108610425144434,
        0.9999813437461853
      ],
      "scale": [
        1.0,
        6.721835088541184e-09,
        5.587657447847505e-09
      ],
      "translation": [
        30.000747680664063,
        6.866455078125e-05,
        1.9073486328125e-06
      ]
    },
    {
      "name": "Bone04",
      "rotation": [
        0.0,
        -4.336809206929901e-19,
        -1.862645149230957e-09,
        1.0
      ],
      "scale": [
        1.0,
        -3.7252898543727042e-09,
        -1.734723475976807e-18
      ],
      "translation": [
        29.235111236572266,
        -7.62939453125e-06,
        3.814697265625e-06
      ]
    },
    {
      "children": [
        64
      ],
      "name": "Bip01 L UpperArm",
      "rotation": [
        0.07826431095600128,
        0.24452170729637146,
        0.06084646284580231,
        0.9645628929138184
      ],
      "scale": [
        1.0,
        -1.3595741421568164e-08,
        3.493877542837254e-08
      ],
      "translation": [
        19.847061157226563,
        0.0,
        0.0
      ]
    },
    {
      "children": [
        65
      ],
      "name": "Bip01 L ForeArm",
      "rotation": [
        4.989350599338138e-10,
        1.514227321308681e-08,
        -0.03348296880722046,
        0.9994392991065979
      ],
      "scale": [
        1.0,
        4.515197534402918e-16,
        -2.9303667048452553e-08
      ],
      "translation": [
        27.864295959472656,
        -4.76837158203125e-07,
        -7.62939453125e-06
      ]
    },
    {
      "children": [
        66,
        70,
        74,
        78,
        82
      ],
      "name": "Bip01 L Hand",
      "rotation": [
        -0.7916519641876221,
        0.005645343568176031,
        0.026196429505944252,
        0.6103843450546265
      ],
      "scale": [
        1.0,
        -2.4153012923022743e-09,
        1.529113902165591e-08
      ],
      "translation": [
        26.83318328857422,
        9.5367431640625e-07,
        0.0
      ]
    },
    {
      "children": [
        67
      ],
      "name": "Bone24",
      "rotation": [
        0.9594858288764954,
        0.23988224565982819,
        0.14512695372104645,
        0.027956534177064896
      ],
      "scale": [
        0.2124832570552826,
        1.4549296878385576e-08,
        4.364212990992655e-09
      ],
      "translation": [
        13.973506927490234,
        0.0212860107421875,
        5.04728889465332
      ]
    },
    {
      "children": [
        68
      ],
      "name": "Bone25",
      "rotation": [
        1.5430493931489764e-06,
        -2.2591221693346597e-07,
        -0.1710735708475113,
        0.9852582216262817
      ],
      "scale": [
        0.8113709688186646,
        4.434851419432562e-08,
        9.428088532104084e-09
      ],
      "translation": [
        24.451416015625,
        1.52587890625e-05,
        3.814697265625e-06
      ]
    },
    {
      "children": [
        69
      ],
      "name": "Bone26",
      "rotation": [
        -1.437853303087877e-08,
        1.1656733356346649e-08,
        -0.05949489027261734,
        0.9982286095619202
      ],
      "scale": [
        1.3532016277313232,
        1.5431783850772263e-08,
        -1.9252029304084317e-08
      ],
      "translation": [
        23.85125732421875,
        0.0,
        0.0
      ]
    },
    {
      "name": "Bone27",
      "rotation": [
        5.859038587630039e-09,
        -8.152987618359475e-09,
        5.992135676535781e-09,
        1.0
      ],
      "scale": [
        0.7159862518310547,
        -8.58057358499309e-09,
        -9.812207935055994e-09
      ],
      "translation": [
        24.520477294921875,
        1.52587890625e-05,
        3.814697265625e-06
      ]
    },
    {
      "children": [
        71
      ],
      "name": "Bone20",
      "rotation": [
        0.9581796526908875,
        0.25360816717147827,
        0.12814176082611084,
        0.03397557511925697
      ],
      "scale": [
        0.2289295494556427,
        -1.2251320846701219e-08,
        7.661467904540586e-09
      ],
      "translation": [
        14.627593994140625,
        0.3095855712890625,
        1.1888961791992188
      ]
    },
    {
      "children": [
        72
      ],
      "name": "Bone21",
      "rotation": [
        1.541405822536035e-06,
        -1.5626838489879447e-07,
        -0.12655439972877502,
        0.9919596910476685
      ],
      "scale": [
        0.8113709688186646,
        -2.5600064290642877e-08,
        -1.8595044948277462e-10
      ],
      "translation": [
        24.451416015625,
        0.0,
        0.0
      ]
    },
    {
      "children": [
        73
      ],
      "name": "Bone22",
      "rotation": [
        -1.409736771762482e-09,
        3.689437644283089e-09,
        -0.06595505028963089,
        0.9978225827217102
      ],
      "scale": [
        1.3532016277313232,
        -1.5690670096546455e-08,
        1.2505692481568076e-08
      ],
      "translation": [
        23.8511962890625,
        1.52587890625e-05,
        0.0
      ]
    },
    {
      "name": "Bone23",
      "rotation": [
        1.2206333166453476e-10,
        4.0764913666890834e-10,
        -1.7976407917785764e-08,
        1.0
      ],
      "scale": [
        0.7159861326217651,
        -4.060598968180784e-09,
        -5.935515634547528e-09
      ],
      "translation": [
        24.52044677734375,
        -1.52587890625e-05,
        0.0
      ]
    },
    {
      "children": [
        75
      ],
      "name": "Bip01 L Finger2",
      "rotation": [
        -0.046775829046964645,
        -0.09146642684936523,
        0.2815311849117279,
        0.9540367126464844
      ],
      "scale": [
        0.9999999403953552,
        -6.49550955245104e-08,
        -1.3509870555594716e-08
      ],
      "translation": [
        14.496322631835938,
        -0.7662353515625,
        -2.5844593048095703
      ]
    },
    {
      "children": [
        76
      ],
      "name": "Bip01 L Finger21",
      "rotation": [
        -1.6137517988568106e-08,
        4.405950715380413e-09,
        0.14005015790462494,
        0.9901444315910339
      ],
      "scale": [
        1.0,
        2.960528116721753e-16,
        5.794598134656326e-09
      ],
      "translation": [
        6.126617431640625,
        -3.814697265625e-06,
        -1.9073486328125e-06
      ]
    },
    {
      "children": [
        77
      ],
      "name": "Bip01 L Finger22",
      "rotation": [
        5.562810212467184e-09,
        6.192363843915416e-10,
        0.0947219580411911,
        0.9955037832260132
      ],
      "scale": [
        1.0000001192092896,
        -4.72941046325559e-08,
        -3.5462255354445915e-09
      ],
      "translation": [
        6.1266021728515625,
        -1.9073486328125e-06,
        -1.9073486328125e-06
      ]
    },
    {
      "name": "Bip01 L Finger2Nub",
      "rotation": [
        -6.0535962909114005e-09,
        -9.313225746154785e-10,
        7.4505797087454084e-09,
        1.0
      ],
      "scale": [
        1.0000001192092896,
        1.4901162970204496e-08,
        9.313225746154785e-09
      ],
      "translation": [
        6.55322265625,
        0.0,
        0.0
      ]
    },
    {
      "children": [
        79
      ],
      "name": "Bip01 L Finger1",
      "rotation": [
        -0.00252540223300457,
        0.0103805772960186,
        0.2603495419025421,
        0.9654552936553955
      ],
      "scale": [
        0.9999999403953552,
        -6.734294011323527e-09,
        -2.4797389031050443e-08
      ],
      "translation": [
        15.204154968261719,
        0.3554534912109375,
        -5.880041122436523
      ]
    },
    {
      "children": [
        80
      ],
      "name": "Bip01 L Finger11",
      "rotation": [
        2.419503659922828e-11,
        1.4280553628509551e-08,
        0.1432468742132187,
        0.9896869659423828
      ],
      "scale": [
        1.0,
        2.8579254518490416e-08,
        -4.624618199500219e-08
      ],
      "translation": [
        5.4831085205078125,
        3.814697265625e-06,
        0.0
      ]
    },
    {
      "children": [
        81
      ],
      "name": "Bip01 L Finger12",
      "rotation": [
        4.848708989868555e-09,
        -7.594718631764863e-09,
        0.09576985985040665,
        0.995403528213501
      ],
      "scale": [
        1.0,
        1.1364180707573723e-08,
        -1.6048341322516535e-08
      ],
      "translation": [
        5.0538330078125,
        -7.62939453125e-06,
        -3.814697265625e-06
      ]
    },
    {
      "name": "Bip01 L Finger1Nub",
      "rotation": [
        -1.30385160446167e-08,
        0.0,
        -9.71445146547012e-17,
        1.0
      ],
      "scale": [
        1.0,
        -5.551115123125783e-17,
        1.4901161193847656e-08
      ],
      "translation": [
        6.538970947265625,
        0.0,
        0.0
      ]
    },
    {
      "children": [
        83
      ],
      "name": "Bip01 L Finger0",
      "rotation": [
        0.6419492959976196,
        0.36710938811302185,
        -0.010143228806555271,
        0.6730742454528809
      ],
      "scale": [
        1.0,
        -1.539798404337489e-07,
        -4.864381253355532e-08
      ],
      "translation": [
        2.7255325317382813,
        1.5828857421875,
        -4.528718948364258
      ]
    },
    {
      "children": [
        84
      ],
      "name": "Bip01 L Finger01",
      "rotation": [
        3.2692646367848965e-09,
        1.4123232583429512e-09,
        0.22189922630786896,
        0.9750695824623108
      ],
      "scale": [
        1.0000001192092896,
        -1.074454303306993e-09,
        -1.7323120715673213e-08
      ],
      "translation": [
        9.032470703125,
        0.0,
        3.814697265625e-06
      ]
    },
    {
      "children": [
        85
      ],
      "name": "Bip01 L Finger02",
      "rotation": [
        6.4918466158303545e-09,
        6.213337622185122e-10,
        0.2522697448730469,
        0.9676569700241089
      ],
      "scale": [
        1.0000001192092896,
        -2.291791290076617e-08,
        1.6523734602813533e-09
      ],
      "translation": [
        5.888343811035156,
        0.0,
        0.0
      ]
    },
    {
      "name": "Bip01 L Finger0Nub",
      "rotation": [
        3.841705620288849e-09,
        -9.313225746154785e-10,
        -3.725290298461914e-09,
        1.0
      ],
      "scale": [
        0.9999999403953552,
        7.450580152834618e-09,
        2.7939677238464355e-09
      ],
      "translation": [
        6.949531555175781,
        -1.9073486328125e-06,
        3.814697265625e-06
      ]
    },
    {
      "children": [
        87,
        93
      ],
      "name": "Bip01 Head",
      "rotation": [
        8.996780100425927e-14,
        -8.24280732558691e-08,
        0.029718108475208282,
        0.9995583295822144
      ],
      "scale": [
        1.0000001192092896,
        3.008307825069778e-09,
        8.292294666678232e-14
      ],
      "translation": [
        11.440719604492188,
        0.0,
        -3.725290298461914e-09
      ]
    },
    {
      "children": [
        88
      ],
      "name": "Bip01 Ponytail1",
      "rotation": [
        1.9353763383578304e-12,
        -2.7697305995388888e-06,
        0.9986048936843872,
        0.05280369892716408
      ],
      "scale": [
        0.9999999403953552,
        -1.4819683258338046e-08,
        6.7279454305912284e-15
      ],
      "translation": [
        9.20233154296875,
        -10.642349243164063,
        -2.568960189819336e-05
      ]
    },
    {
      "children": [
        89
      ],
      "name": "Bip01 Ponytail11",
      "rotation": [
        -3.6002315495151094e-13,
        -4.491429024255922e-07,
        0.1619349718093872,
        0.9868014454841614
      ],
      "scale": [
        1.0,
        1.9049236854584706e-08,
        -1.3492581617952082e-13
      ],
      "translation": [
        13.133529663085938,
        -0.009548187255859375,
        -2.60770320892334e-08
      ]
    },
    {
      "children": [
        90
      ],
      "name": "Bip01 Ponytail12",
      "rotation": [
        3.7433250943408325e-13,
        4.4504284346658096e-07,
        -0.16045673191547394,
        0.9870428442955017
      ],
      "scale": [
        1.0000001192092896,
        1.25473985585281e-13,
        -2.0156951466027834e-13
      ],
      "translation": [
        12.648155212402344,
        -0.0103302001953125,
        -3.3527612686157227e-08
      ]
    },
    {
      "children": [
        91
      ],
      "name": "Bip01 Ponytail13",
      "rotation": [
        -3.492093224831405e-13,
        2.142462847132265e-07,
        -0.0772448405623436,
        0.9970121383666992
      ],
      "scale": [
        0.9999999403953552,
        1.4140569615304736e-14,
        8.874332339944488e-14
      ],
      "translation": [
        13.685089111328125,
        -0.010768890380859375,
        -2.60770320892334e-08
      ]
    },
    {
      "children": [
        92
      ],
      "name": "Bip01 Ponytail14",
      "rotation": [
        -5.552671546166362e-16,
        6.56676988342042e-08,
        -0.02367597632110119,
        0.9997196793556213
      ],
      "scale": [
        1.0000001192092896,
        -1.0263832450618793e-08,
        -3.4654845318263586e-14
      ],
      "translation": [
        13.686225891113281,
        -0.01088714599609375,
        -3.3527612686157227e-08
      ]
    },
    {
      "name": "Bip01 Ponytail1Nub",
      "rotation": [
        0.7073882222175598,
        0.7068251967430115,
        9.80225195235107e-07,
        -9.810059964365792e-07
      ],
      "scale": [
        1.0,
        -1.8537507640026263e-10,
        -8.242093395586722e-14
      ],
      "translation": [
        13.686767578125,
        0.0,
        0.0
      ]
    },
    {
      "name": "Bip01 HeadNub",
      "rotation": [
        -2.1316282072803006e-14,
        -2.1175826205712405e-22,
        7.450580596923828e-09,
        1.0
      ],
      "scale": [
        1.0,
        1.4901161193847656e-08,
        4.235164736271502e-22
      ],
      "translation": [
        22.007568359375,
        3.814697265625e-06,
        0.0
      ]
    }
  ],
  "scene": 0,
  "scenes": [
    {
      "nodes": [
        0
      ]
    }
  ],
  "skins": [
    {
      "inverseBindMatrices": 16,
      "joints": [
        5,
        6,
        7,
        8,
        9,
        10,
        11,
        12,
        13,
        14,
        15,
        16,
        17,
        18,
        19,
        20,
        21,
        22,
        23,
        24,
        25,
        26,
        27,
        28,
        29,
        30,
        31,
        32,
        33,
        34,
        35,
        36,
        37,
        38,
        39,
        40,
        41,
        42,
        43,
        44,
        45,
        46,
        47,
        48,
        49,
        50,
        51,
        52,
        53,
        54,
        55,
        56,
        57,
        58,
        59,
        60,
        61,
        62,
        63,
        64,
        65,
        66,
        67,
        68,
        69,
        70,
        71,
        72,
        73,
        74,
        75,
        76,
        77,
        78,
        79,
        80,
        81,
        82,
        83,
        84,
        85,
        86,
        87,
        88,
        89,
        90,
        91,
        92,
        93
      ],
      "skeleton": 5
    }
  ]
}
