{
  "accessors": [
    {
      "bufferView": 0,
      "componentType": 5126,
      "count": 197,
      "max": [
        181.92124938964844,
        179.92892456054688,
        177.73947143554688
      ],
      "min": [
        -9.534296035766602,
        -9.404464721679688,
        -8.22810173034668
      ],
      "type": "VEC3"
    },
    {
      "bufferView": 1,
      "componentType": 5126,
      "count": 197,
      "type": "VEC3"
    },
    {
      "bufferView": 2,
      "componentType": 5126,
      "count": 197,
      "type": "VEC2"
    },
    {
      "bufferView": 3,
      "componentType": 5123,
      "count": 1032,
      "type": "SCALAR"
    },
    {
      "bufferView": 4,
      "componentType": 5126,
      "count": 1104,
      "max": [
        181.92124938964844,
        179.92892456054688,
        177.73947143554688
      ],
      "min": [
        -57.93352127075195,
        -57.86503219604492,
        -58.26401901245117
      ],
      "type": "VEC3"
    },
    {
      "bufferView": 5,
      "componentType": 5126,
      "count": 1104,
      "type": "VEC3"
    },
    {
      "bufferView": 6,
      "componentType": 5126,
      "count": 1104,
      "type": "VEC2"
    },
    {
      "bufferView": 7,
      "componentType": 5123,
      "count": 4503,
      "type": "SCALAR"
    },
    {
      "bufferView": 8,
      "componentType": 5126,
      "count": 79,
      "type": "MAT4"
    }
  ],
  "asset": {
    "generator": "gr2togltf (ANKA2 Project)",
    "version": "2.0"
  },
  "bufferViews": [
    {
      "buffer": 0,
      "byteLength": 2364,
      "target": 34962
    },
    {
      "buffer": 0,
      "byteLength": 2364,
      "byteOffset": 2364,
      "target": 34962
    },
    {
      "buffer": 0,
      "byteLength": 1576,
      "byteOffset": 4728,
      "target": 34962
    },
    {
      "buffer": 0,
      "byteLength": 2064,
      "byteOffset": 6304,
      "target": 34963
    },
    {
      "buffer": 0,
      "byteLength": 13248,
      "byteOffset": 8368,
      "target": 34962
    },
    {
      "buffer": 0,
      "byteLength": 13248,
      "byteOffset": 21616,
      "target": 34962
    },
    {
      "buffer": 0,
      "byteLength": 8832,
      "byteOffset": 34864,
      "target": 34962
    },
    {
      "buffer": 0,
      "byteLength": 9006,
      "byteOffset": 43696,
      "target": 34963
    },
    {
      "buffer": 0,
      "byteLength": 5056,
      "byteOffset": 52702
    }
  ],
  "buffers": [
    {
      "byteLength": 57758,
      "uri": "data:application/octet-stream;base64,"
    }
  ],
  "materials": [
    {
      "name": "default",
      "pbrMetallicRoughness": {
        "baseColorFactor": [
          0.8,
          0.8,
          0.8,
          1.0
        ],
        "metallicFactor": 0.0,
        "roughnessFactor": 0.8
      }
    }
  ],
  "meshes": [
    {
      "name": "Sura_face",
      "primitives": [
        {
          "attributes": {
            "NORMAL": 1,
            "POSITION": 0,
            "TEXCOORD_0": 2
          },
          "indices": 3,
          "material": 0,
          "mode": 4
        }
      ]
    },
    {
      "name": "sura_halloween2",
      "primitives": [
        {
          "attributes": {
            "NORMAL": 5,
            "POSITION": 4,
            "TEXCOORD_0": 6
          },
          "indices": 7,
          "material": 0,
          "mode": 4
        }
      ]
    }
  ],
  "nodes": [
    {
      "children": [
        1,
        2,
        3
      ]
    },
    {
      "mesh": 0,
      "name": "Sura_face",
      "skin": 0
    },
    {
      "mesh": 1,
      "name": "sura_halloween2",
      "skin": 0
    },
    {
      "children": [
        4
      ],
      "name": "Bip01",
      "rotation": [
        0.0,
        0.0,
        0.0,
        0.9999999403953552
      ],
      "scale": [
        0.9999997019767761,
        -1.3359980981751673e-13,
        0.0
      ],
      "translation": [
        0.0,
        -3.725290298461914e-09,
        0.0
      ]
    },
    {
      "children": [
        5,
        73,
        77
      ],
      "name": "Bip01 Pelvis",
      "rotation": [
        -0.4999993145465851,
        -0.5,
        -0.5,
        0.5000006556510925
      ],
      "scale": [
        1.0,
        5.1399245505243465e-20,
        8.265705963650741e-14
      ],
      "translation": [
        -1.4509390592575073,
        0.0,
        0.0
      ]
    },
    {
      "children": [
        6,
        9,
        12,
        15,
        18
      ],
      "name": "Bip01 Spine",
      "rotation": [
        -2.0804759515158366e-06,
        -6.936760428288835e-07,
        0.0003981590270996094,
        0.9999999403953552
      ],
      "scale": [
        1.0,
        -6.39742148145217e-11,
        1.156542089609516e-14
      ],
      "translation": [
        2.840728759765625,
        -0.718707799911499,
        5.904585123062134e-06
      ]
    },
    {
      "children": [
        7
      ],
      "name": "Bone17",
      "rotation": [
        0.08664769679307938,
        0.7017778754234314,
        -0.7017778754234314,
        0.08664769679307938
      ],
      "scale": [
        0.8054581880569458,
        3.181192909096353e-08,
        -8.905357970956287e-15
      ],
      "translation": [
        13.395820617675781,
        1.2645925283432007,
        -14.413697242736816
      ]
    },
    {
      "children": [
        8
      ],
      "name": "Bone18",
      "rotation": [
        1.5971613720466848e-07,
        6.298967125673016e-09,
        0.03984776884317398,
        0.9992057681083679
      ],
      "scale": [
        1.2162786722183228,
        -2.4346741511749315e-08,
        -1.7116494333002663e-10
      ],
      "translation": [
        23.61248779296875,
        3.814697265625e-06,
        4.023313522338867e-07
      ]
    },
    {
      "name": "Bone19",
      "rotation": [
        -3.6032452771904447e-19,
        0.0,
        -8.302647458435786e-09,
        1.0
      ],
      "scale": [
        0.4486870765686035,
        -7.450581485102248e-09,
        2.9103830456733704e-11
      ],
      "translation": [
        25.08246612548828,
        -7.62939453125e-06,
        2.5331974029541016e-06
      ]
    },
    {
      "children": [
        10
      ],
      "name": "Bone14",
      "rotation": [
        0.08666596561670303,
        0.7017757296562195,
        0.7017754912376404,
        -0.08666621893644333
      ],
      "scale": [
        0.8054579496383667,
        2.8041075239571e-08,
        -8.68189808239661e-12
      ],
      "translation": [
        13.395828247070313,
        1.2645530700683594,
        14.345734596252441
      ]
    },
    {
      "children": [
        11
      ],
      "name": "Bone15",
      "rotation": [
        1.271831077953589e-11,
        -5.393002125604618e-13,
        0.03984404727816582,
        0.9992058873176575
      ],
      "scale": [
        1.2162786722183228,
        -1.5215787375896252e-23,
        -2.543532441959262e-12
      ],
      "translation": [
        23.612510681152344,
        0.0,
        4.0605664253234863e-07
      ]
    },
    {
      "name": "Bone16",
      "rotation": [
        -1.3562111503273577e-11,
        2.1699378405237724e-11,
        8.302647458435786e-09,
        1.0
      ],
      "scale": [
        0.4486871063709259,
        -7.450580596923828e-09,
        1.9472458367975065e-11
      ],
      "translation": [
        25.08245849609375,
        0.0,
        2.5294721126556396e-06
      ]
    },
    {
      "children": [
        13
      ],
      "name": "Bone11",
      "rotation": [
        -5.7788923868429265e-08,
        -7.279012947947194e-07,
        0.9923979043960571,
        -0.12307050824165344
      ],
      "scale": [
        1.0,
        1.102720623147313e-10,
        -1.5237316345739077e-14
      ],
      "translation": [
        13.543403625488281,
        -9.463299751281738,
        -0.050122469663619995
      ]
    },
    {
      "children": [
        14
      ],
      "name": "Bone12",
      "rotation": [
        1.0100170300120226e-07,
        5.347722265014454e-08,
        0.0030555380508303642,
        0.9999953508377075
      ],
      "scale": [
        1.0000001192092896,
        7.611855146194557e-09,
        -1.2680841314884669e-15
      ],
      "translation": [
        23.542457580566406,
        0.0,
        2.7284841053187847e-12
      ]
    },
    {
      "name": "Bone13",
      "rotation": [
        4.440892627896218e-16,
        3.552713678800501e-15,
        1.1044054177726934e-29,
        1.0
      ],
      "scale": [
        0.9999999403953552,
        -2.524354746243961e-29,
        0.0
      ],
      "translation": [
        27.9842529296875,
        0.0,
        -2.7284841053187847e-12
      ]
    },
    {
      "children": [
        16
      ],
      "name": "Bone09",
      "rotation": [
        -1.2089211054444604e-07,
        -6.648734824921121e-07,
        0.9976951479911804,
        0.06785586476325989
      ],
      "scale": [
        1.0,
        2.028007617524072e-13,
        1.8353121960016337e-14
      ],
      "translation": [
        10.042915344238281,
        13.947978973388672,
        -0.050087280571460724
      ]
    },
    {
      "children": [
        17
      ],
      "name": "Bone10",
      "rotation": [
        0.0,
        1.42107632356437e-14,
        -0.0035932001192122698,
        0.9999935626983643
      ],
      "scale": [
        0.9999999403953552,
        4.2834003011194e-10,
        -3.6761229910836635e-19
      ],
      "translation": [
        28.00334930419922,
        3.814697265625e-06,
        3.587992978282273e-07
      ]
    },
    {
      "name": "Bone10-1",
      "rotation": [
        -8.881784197001252e-16,
        1.4210854715202004e-14,
        -3.7865323450608567e-29,
        1.0
      ],
      "scale": [
        1.0,
        1.0097419586828951e-28,
        0.0
      ],
      "translation": [
        26.258468627929688,
        -1.9073486328125e-06,
        3.4455297281965613e-07
      ]
    },
    {
      "children": [
        19
      ],
      "name": "Bip01 Spine1",
      "rotation": [
        -8.440914389977114e-14,
        7.659861012143665e-08,
        -0.027617033571004868,
        0.9996185898780823
      ],
      "scale": [
        1.0,
        4.286570820521973e-10,
        -3.301036685006962e-15
      ],
      "translation": [
        15.780479431152344,
        -0.012592077255249023,
        -3.725290298461914e-08
      ]
    },
    {
      "children": [
        20
      ],
      "name": "Bip01 Spine2",
      "rotation": [
        5.3575359074261794e-15,
        2.855335878848564e-07,
        -0.10294690728187561,
        0.9946868419647217
      ],
      "scale": [
        1.0000001192092896,
        1.6963637605726944e-08,
        1.5611681191502955e-14
      ],
      "translation": [
        15.835281372070313,
        -0.013475418090820313,
        -3.725290298461914e-08
      ]
    },
    {
      "children": [
        21,
        40,
        67
      ],
      "name": "Bip01 Neck",
      "rotation": [
        -2.937680345293722e-14,
        -7.014888296907884e-07,
        0.2529163062572479,
        0.967488169670105
      ],
      "scale": [
        1.0,
        -6.360741711119999e-09,
        -5.14096347415359e-14
      ],
      "translation": [
        18.435470581054688,
        -0.008853912353515625,
        -2.2351741790771484e-08
      ]
    },
    {
      "children": [
        22,
        24,
        28
      ],
      "name": "Bip01 R Clavicle",
      "rotation": [
        -0.4834083020687103,
        0.19029393792152405,
        0.8352445960044861,
        0.18019741773605347
      ],
      "scale": [
        1.0000001192092896,
        1.0259402216661329e-09,
        -4.734992842259089e-08
      ],
      "translation": [
        -1.18988037109375,
        -0.191925048828125,
        -4.603867053985596
      ]
    },
    {
      "children": [
        23
      ],
      "name": "sh_bone03",
      "rotation": [
        -0.7829573154449463,
        0.18353186547756195,
        0.13405536115169525,
        0.5790708661079407
      ],
      "scale": [
        0.9999999403953552,
        4.460135016870481e-08,
        2.9853293170845063e-09
      ],
      "translation": [
        4.0081329345703125,
        -1.2899627685546875,
        -3.587127685546875
      ]
    },
    {
      "name": "sh_bone04",
      "rotation": [
        7.105426934084528e-15,
        8.282263763703668e-14,
        8.96145795738075e-28,
        1.0
      ],
      "scale": [
        1.0000001192092896,
        -1.1233379290347208e-27,
        8.659740947328937e-14
      ],
      "translation": [
        31.18187141418457,
        -1.52587890625e-05,
        -4.76837158203125e-07
      ]
    },
    {
      "children": [
        25
      ],
      "name": "Bone05",
      "rotation": [
        -0.16402921080589294,
        -0.4725882411003113,
        0.1254563331604004,
        0.856747031211853
      ],
      "scale": [
        0.9009683728218079,
        -3.1923079291118484e-08,
        8.723931799181628e-09
      ],
      "translation": [
        5.7586212158203125,
        8.40802001953125,
        -7.7870635986328125
      ]
    },
    {
      "children": [
        26
      ],
      "name": "Bone06",
      "rotation": [
        3.935763572826545e-07,
        -1.0093782698561427e-08,
        -0.021625928580760956,
        0.9997661113739014
      ],
      "scale": [
        1.1942291259765625,
        1.230981627742267e-08,
        -4.8405970204390414e-11
      ],
      "translation": [
        39.820037841796875,
        -1.1444091796875e-05,
        3.814697265625e-06
      ]
    },
    {
      "children": [
        27
      ],
      "name": "Bone07",
      "rotation": [
        3.492394706761104e-10,
        -1.8618994124253163e-09,
        -0.0061086127534508705,
        0.9999813437461853
      ],
      "scale": [
        0.9999998807907104,
        3.521948954698928e-09,
        5.827960943699528e-12
      ],
      "translation": [
        30.00074005126953,
        6.4849853515625e-05,
        1.9073486328125e-06
      ]
    },
    {
      "name": "Bone08",
      "rotation": [
        5.820766785236131e-11,
        -9.31322685637781e-10,
        1.862645371275562e-09,
        1.0
      ],
      "scale": [
        0.9999998807907104,
        -3.7252898543727042e-09,
        1.8626450382086546e-09
      ],
      "translation": [
        29.235103607177734,
        -3.814697265625e-06,
        1.9073486328125e-06
      ]
    },
    {
      "children": [
        29
      ],
      "name": "Bip01 R UpperArm",
      "rotation": [
        -0.07118099182844162,
        -0.23287540674209595,
        0.02572506107389927,
        0.9695568680763245
      ],
      "scale": [
        1.0000001192092896,
        -1.8765637932460777e-09,
        4.3568167740204444e-08
      ],
      "translation": [
        19.847068786621094,
        0.0,
        -1.52587890625e-05
      ]
    },
    {
      "children": [
        30
      ],
      "name": "Bip01 R ForeArm",
      "rotation": [
        5.6070720982903666e-12,
        2.235453955279354e-08,
        -0.0007525666151195765,
        0.9999997019767761
      ],
      "scale": [
        1.0,
        3.7252865237036303e-09,
        -1.4895572775230903e-08
      ],
      "translation": [
        27.864288330078125,
        0.0,
        -7.62939453125e-06
      ]
    },
    {
      "children": [
        31,
        34,
        37,
        81
      ],
      "name": "Bip01 R Hand",
      "rotation": [
        0.6610820293426514,
        0.049675352871418,
        0.038034990429878235,
        0.7477006316184998
      ],
      "scale": [
        0.9999999403953552,
        3.478810484125461e-08,
        -4.591268254472425e-09
      ],
      "translation": [
        25.690662384033203,
        0.0,
        0.0
      ]
    },
    {
      "children": [
        32
      ],
      "name": "Bip01 R Finger2",
      "rotation": [
        -0.028132770210504532,
        -0.005823914892971516,
        0.2920496463775635,
        0.9559715390205383
      ],
      "scale": [
        1.0,
        5.176795880856844e-09,
        1.1402381261405026e-08
      ],
      "translation": [
        11.659988403320313,
        -0.431396484375,
        -1.1205434799194336
      ]
    },
    {
      "children": [
        33
      ],
      "name": "Bip01 R Finger21",
      "rotation": [
        2.3161669804316887e-10,
        1.876678368262219e-09,
        0.10198190063238144,
        0.994786262512207
      ],
      "scale": [
        1.0,
        -2.497404061330144e-09,
        -3.874411902415886e-11
      ],
      "translation": [
        4.448204040527344,
        3.814697265625e-06,
        1.9073486328125e-06
      ]
    },
    {
      "name": "Bip01 R Finger22",
      "rotation": [
        0.0,
        1.8551490343909904e-09,
        0.0896250382065773,
        0.9959755539894104
      ],
      "scale": [
        1.0,
        -4.020630051115859e-09,
        -2.9923841182721844e-11
      ],
      "translation": [
        3.6346359252929688,
        0.0,
        -1.9073486328125e-06
      ]
    },
    {
      "children": [
        35
      ],
      "name": "Bip01 R Finger1",
      "rotation": [
        -0.07368870079517365,
        -0.03421925753355026,
        0.29757359623908997,
        0.9512354731559753
      ],
      "scale": [
        0.9999999403953552,
        -1.2231342338964168e-07,
        -1.5051156765366613e-08
      ],
      "translation": [
        11.491893768310547,
        -0.25464630126953125,
        4.704718112945557
      ]
    },
    {
      "children": [
        36
      ],
      "name": "Bip01 R Finger11",
      "rotation": [
        -2.8965621012844167e-09,
        6.560927356957791e-10,
        0.0949033722281456,
        0.9954864978790283
      ],
      "scale": [
        1.0000001192092896,
        -3.3704417035096412e-09,
        -3.731885911406607e-09
      ],
      "translation": [
        4.719993591308594,
        -3.814697265625e-06,
        0.0
      ]
    },
    {
      "name": "Bip01 R Finger12",
      "rotation": [
        -5.419185655775038e-10,
        -3.1422677793102594e-09,
        0.08288811892271042,
        0.9965588450431824
      ],
      "scale": [
        1.0000001192092896,
        4.997657399030686e-09,
        6.865442436776448e-09
      ],
      "translation": [
        3.115997314453125,
        0.0,
        9.5367431640625e-07
      ]
    },
    {
      "children": [
        38
      ],
      "name": "Bip01 R Finger0",
      "rotation": [
        -0.6359974145889282,
        -0.3162306547164917,
        -0.06964925676584244,
        0.7004672884941101
      ],
      "scale": [
        1.0,
        -3.218080379951971e-08,
        -4.425968569421457e-08
      ],
      "translation": [
        0.6864471435546875,
        2.5254974365234375,
        2.747166633605957
      ]
    },
    {
      "children": [
        39
      ],
      "name": "Bip01 R Finger01",
      "rotation": [
        -4.022627564381764e-09,
        -7.281983460671881e-09,
        0.2805599272251129,
        0.959836483001709
      ],
      "scale": [
        1.0000001192092896,
        -6.834036270220167e-08,
        3.1793079280362235e-09
      ],
      "translation": [
        5.109413146972656,
        3.814697265625e-06,
        -7.62939453125e-06
      ]
    },
    {
      "name": "Bip01 R Finger02",
      "rotation": [
        -1.3909120522015428e-09,
        -4.336851364139527e-11,
        0.09313317388296127,
        0.9956536889076233
      ],
      "scale": [
        1.0,
        6.434323656417232e-19,
        1.727200604761947e-10
      ],
      "translation": [
        3.5312347412109375,
        2.384185791015625e-07,
        0.0
      ]
    },
    {
      "children": [
        41,
        43,
        47
      ],
      "name": "Bip01 L Clavicle",
      "rotation": [
        0.4834088087081909,
        -0.1902962625026703,
        0.8352440595626831,
        0.18019607663154602
      ],
      "scale": [
        1.000000238418579,
        -1.9072009749265817e-08,
        6.084380999027417e-08
      ],
      "translation": [
        -1.18988037109375,
        -0.19195175170898438,
        4.603867053985596
      ]
    },
    {
      "children": [
        42
      ],
      "name": "sh_bone01",
      "rotation": [
        0.782957911491394,
        -0.18353265523910522,
        0.1340528279542923,
        0.5790703892707825
      ],
      "scale": [
        1.0,
        -3.826020389396945e-09,
        -2.5826853988775156e-09
      ],
      "translation": [
        4.008125305175781,
        -1.290008544921875,
        3.58709716796875
      ]
    },
    {
      "name": "sh_bone02",
      "rotation": [
        3.552713678800501e-15,
        -8.881784197001252e-16,
        -9.313225746154785e-10,
        1.0
      ],
      "scale": [
        1.0,
        1.862645149230957e-09,
        2.6645352591003757e-15
      ],
      "translation": [
        31.181865692138672,
        0.0,
        4.76837158203125e-07
      ]
    },
    {
      "children": [
        44
      ],
      "name": "Bone01",
      "rotation": [
        0.16403116285800934,
        0.4725884795188904,
        0.12545491755008698,
        0.8567467331886292
      ],
      "scale": [
        0.9009685516357422,
        1.7804506313723323e-08,
        4.14756442523867e-08
      ],
      "translation": [
        5.879570007324219,
        8.38814926147461,
        7.8505706787109375
      ]
    },
    {
      "children": [
        45
      ],
      "name": "Bone02",
      "rotation": [
        -9.445961374199285e-11,
        -8.508337923096576e-10,
        -0.02162294089794159,
        0.9997662305831909
      ],
      "scale": [
        1.194229245185852,
        2.2895081386309357e-09,
        -2.036584900722005e-09
      ],
      "translation": [
        39.820037841796875,
        0.0,
        0.0
      ]
    },
    {
      "children": [
        46
      ],
      "name": "Bone03",
      "rotation": [
        -1.0503495989633294e-10,
        -2.133388951608417e-12,
        -0.006108613684773445,
        0.9999813437461853
      ],
      "scale": [
        1.0000001192092896,
        7.653087941150716e-09,
        -3.73084052540662e-09
      ],
      "translation": [
        30.000747680664063,
        6.866455078125e-05,
        1.9073486328125e-06
      ]
    },
    {
      "name": "Bone04",
      "rotation": [
        -2.9103830456733704e-10,
        9.313225746154785e-10,
        -3.725290298461914e-09,
        1.0
      ],
      "scale": [
        1.0,
        -7.4505797087454084e-09,
        -1.862645149230957e-09
      ],
      "translation": [
        29.235107421875,
        -3.814697265625e-06,
        1.9073486328125e-06
      ]
    },
    {
      "children": [
        48
      ],
      "name": "Bip01 L UpperArm",
      "rotation": [
        0.07826431095600128,
        0.24452170729637146,
        0.06084646284580231,
        0.9645628929138184
      ],
      "scale": [
        1.0,
        -1.3595741421568164e-08,
        3.493877542837254e-08
      ],
      "translation": [
        19.847061157226563,
        0.0,
        0.0
      ]
    },
    {
      "children": [
        49
      ],
      "name": "Bip01 L ForeArm",
      "rotation": [
        4.989350599338138e-10,
        1.514227321308681e-08,
        -0.03348296880722046,
        0.9994392991065979
      ],
      "scale": [
        1.0,
        4.515197534402918e-16,
        -2.9303667048452553e-08
      ],
      "translation": [
        27.864295959472656,
        -4.76837158203125e-07,
        -7.62939453125e-06
      ]
    },
    {
      "children": [
        50,
        54,
        58,
        61,
        64
      ],
      "name": "Bip01 L Hand",
      "rotation": [
        -0.7916519641876221,
        0.005645343568176031,
        0.026196429505944252,
        0.6103843450546265
      ],
      "scale": [
        1.0,
        -2.4153012923022743e-09,
        1.529113902165591e-08
      ],
      "translation": [
        26.83318328857422,
        9.5367431640625e-07,
        0.0
      ]
    },
    {
      "children": [
        51
      ],
      "name": "Bone24",
      "rotation": [
        0.9594858288764954,
        0.23988227546215057,
        0.14512695372104645,
        0.027956534177064896
      ],
      "scale": [
        0.21248316764831543,
        -6.642653094246498e-10,
        -5.762237353934552e-09
      ],
      "translation": [
        13.973503112792969,
        0.02126312255859375,
        5.047325134277344
      ]
    },
    {
      "children": [
        52
      ],
      "name": "Bone25",
      "rotation": [
        1.5386642644443782e-06,
        -2.2259786192080355e-07,
        -0.1710735708475113,
        0.9852582216262817
      ],
      "scale": [
        0.8113709688186646,
        4.162652889050378e-09,
        1.164734353409358e-08
      ],
      "translation": [
        24.451446533203125,
        3.0517578125e-05,
        0.0
      ]
    },
    {
      "children": [
        53
      ],
      "name": "Bone26",
      "rotation": [
        9.679188117672766e-09,
        2.107017493813146e-08,
        -0.05949491262435913,
        0.9982286095619202
      ],
      "scale": [
        1.3532015085220337,
        2.3147663341660518e-08,
        -1.2298624341156028e-08
      ],
      "translation": [
        23.851318359375,
        1.52587890625e-05,
        0.0
      ]
    },
    {
      "name": "Bone27",
      "rotation": [
        -2.9295197379042293e-09,
        1.630597656898658e-09,
        7.052716603172485e-17,
        1.0
      ],
      "scale": [
        0.7159861922264099,
        -9.613527820677015e-18,
        -1.4428835903856907e-08
      ],
      "translation": [
        24.520416259765625,
        0.0,
        0.0
      ]
    },
    {
      "children": [
        55
      ],
      "name": "Bone20",
      "rotation": [
        0.958179771900177,
        0.25360792875289917,
        0.12814144790172577,
        0.033974599093198776
      ],
      "scale": [
        0.22892940044403076,
        -1.7197567814264403e-09,
        4.3476466871084085e-09
      ],
      "translation": [
        14.62759780883789,
        0.3095855712890625,
        1.1888904571533203
      ]
    },
    {
      "children": [
        56
      ],
      "name": "Bone21",
      "rotation": [
        1.5224547951220302e-06,
        -1.5735879799194663e-07,
        -0.12655436992645264,
        0.9919596910476685
      ],
      "scale": [
        0.8113711476325989,
        -1.280014583215916e-08,
        -1.0489624280296539e-08
      ],
      "translation": [
        24.451446533203125,
        1.52587890625e-05,
        0.0
      ]
    },
    {
      "children": [
        57
      ],
      "name": "Bone22",
      "rotation": [
        1.6169012795330673e-08,
        2.1352210666236715e-08,
        -0.06595505028963089,
        0.9978225827217102
      ],
      "scale": [
        1.3532013893127441,
        -4.523371188724923e-08,
        -2.781888497338514e-09
      ],
      "translation": [
        23.85125732421875,
        -7.62939453125e-06,
        -3.814697265625e-06
      ]
    },
    {
      "name": "Bone23",
      "rotation": [
        1.513584990675554e-08,
        -6.522389295327002e-09,
        1.7976407917785764e-08,
        1.0
      ],
      "scale": [
        0.7159862518310547,
        4.0606007445376235e-09,
        2.767309492668346e-09
      ],
      "translation": [
        24.52044677734375,
        1.52587890625e-05,
        0.0
      ]
    },
    {
      "children": [
        59
      ],
      "name": "Bip01 L Finger2",
      "rotation": [
        -0.046775829046964645,
        -0.09146642684936523,
        0.2815311849117279,
        0.9540367126464844
      ],
      "scale": [
        0.9999999403953552,
        -6.49550955245104e-08,
        -1.3509870555594716e-08
      ],
      "translation": [
        14.496322631835938,
        -0.7662353515625,
        -2.5844593048095703
      ]
    },
    {
      "children": [
        60
      ],
      "name": "Bip01 L Finger21",
      "rotation": [
        -1.6137517988568106e-08,
        4.405950715380413e-09,
        0.14005015790462494,
        0.9901444315910339
      ],
      "scale": [
        1.0,
        2.960528116721753e-16,
        5.794598134656326e-09
      ],
      "translation": [
        6.126617431640625,
        -3.814697265625e-06,
        -1.9073486328125e-06
      ]
    },
    {
      "name": "Bip01 L Finger22",
      "rotation": [
        5.562810212467184e-09,
        6.192363843915416e-10,
        0.0947219580411911,
        0.9955037832260132
      ],
      "scale": [
        1.0000001192092896,
        -4.72941046325559e-08,
        -3.5462255354445915e-09
      ],
      "translation": [
        6.1266021728515625,
        -1.9073486328125e-06,
        -1.9073486328125e-06
      ]
    },
    {
      "children": [
        62
      ],
      "name": "Bip01 L Finger1",
      "rotation": [
        -0.00252540223300457,
        0.0103805772960186,
        0.2603495419025421,
        0.9654552936553955
      ],
      "scale": [
        0.9999999403953552,
        -6.734294011323527e-09,
        -2.4797389031050443e-08
      ],
      "translation": [
        15.204154968261719,
        0.3554534912109375,
        -5.880041122436523
      ]
    },
    {
      "children": [
        63
      ],
      "name": "Bip01 L Finger11",
      "rotation": [
        2.419503659922828e-11,
        1.4280553628509551e-08,
        0.1432468742132187,
        0.9896869659423828
      ],
      "scale": [
        1.0,
        2.8579254518490416e-08,
        -4.624618199500219e-08
      ],
      "translation": [
        5.4831085205078125,
        3.814697265625e-06,
        0.0
      ]
    },
    {
      "name": "Bip01 L Finger12",
      "rotation": [
        4.848708989868555e-09,
        -7.594718631764863e-09,
        0.09576985985040665,
        0.995403528213501
      ],
      "scale": [
        1.0,
        1.1364180707573723e-08,
        -1.6048341322516535e-08
      ],
      "translation": [
        5.0538330078125,
        -7.62939453125e-06,
        -3.814697265625e-06
      ]
    },
    {
      "children": [
        65
      ],
      "name": "Bip01 L Finger0",
      "rotation": [
        0.6419492959976196,
        0.36710938811302185,
        -0.010143228806555271,
        0.6730742454528809
      ],
      "scale": [
        1.0,
        -1.539798404337489e-07,
        -4.864381253355532e-08
      ],
      "translation": [
        2.7255325317382813,
        1.5828857421875,
        -4.528718948364258
      ]
    },
    {
      "children": [
        66
      ],
      "name": "Bip01 L Finger01",
      "rotation": [
        3.2692646367848965e-09,
        1.4123232583429512e-09,
        0.22189922630786896,
        0.9750695824623108
      ],
      "scale": [
        1.0000001192092896,
        -1.074454303306993e-09,
        -1.7323120715673213e-08
      ],
      "translation": [
        9.032470703125,
        0.0,
        3.814697265625e-06
      ]
    },
    {
      "name": "Bip01 L Finger02",
      "rotation": [
        6.4918466158303545e-09,
        6.213337622185122e-10,
        0.2522697448730469,
        0.9676569700241089
      ],
      "scale": [
        1.0000001192092896,
        -2.291791290076617e-08,
        1.6523734602813533e-09
      ],
      "translation": [
        5.888343811035156,
        0.0,
        0.0
      ]
    },
    {
      "children": [
        68
      ],
      "name": "Bip01 Head",
      "rotation": [
        8.996780100425927e-14,
        -8.24280732558691e-08,
        0.029718108475208282,
        0.9995583295822144
      ],
      "scale": [
        1.0000001192092896,
        3.008307825069778e-09,
        8.292294666678232e-14
      ],
      "translation": [
        11.440719604492188,
        0.0,
        -3.725290298461914e-09
      ]
    },
    {
      "children": [
        69
      ],
      "name": "Bip01 Ponytail1",
      "rotation": [
        1.9353763383578304e-12,
        -2.7697305995388888e-06,
        0.9986048936843872,
        0.05280369892716408
      ],
      "scale": [
        0.9999999403953552,
        -1.4819683258338046e-08,
        6.7279454305912284e-15
      ],
      "translation": [
        9.20233154296875,
        -10.642349243164063,
        -2.568960189819336e-05
      ]
    },
    {
      "children": [
        70
      ],
      "name": "Bip01 Ponytail11",
      "rotation": [
        -3.6002315495151094e-13,
        -4.491429024255922e-07,
        0.1619349718093872,
        0.9868014454841614
      ],
      "scale": [
        1.0,
        1.9049236854584706e-08,
        -1.3492581617952082e-13
      ],
      "translation": [
        13.133529663085938,
        -0.009548187255859375,
        -2.60770320892334e-08
      ]
    },
    {
      "children": [
        71
      ],
      "name": "Bip01 Ponytail12",
      "rotation": [
        3.815312052835723e-13,
        4.4504284346658096e-07,
        -0.16045671701431274,
        0.9870429039001465
      ],
      "scale": [
        1.0000001192092896,
        1.254739584802267e-13,
        -2.0582590265407624e-13
      ],
      "translation": [
        12.648155212402344,
        -0.0103302001953125,
        -3.3527612686157227e-08
      ]
    },
    {
      "children": [
        72
      ],
      "name": "Bip01 Ponytail13",
      "rotation": [
        -3.492093224831405e-13,
        2.1424625629151706e-07,
        -0.0772448256611824,
        0.9970121383666992
      ],
      "scale": [
        0.9999999403953552,
        1.472335142693737e-08,
        1.1432892935321626e-13
      ],
      "translation": [
        13.685089111328125,
        -0.010768890380859375,
        -2.60770320892334e-08
      ]
    },
    {
      "name": "Bip01 Ponytail14",
      "rotation": [
        -3.3316029276998175e-16,
        6.56676988342042e-08,
        -0.02367597632110119,
        0.9997196793556213
      ],
      "scale": [
        1.0000001192092896,
        -1.0263832450618793e-08,
        -6.327594291631947e-14
      ],
      "translation": [
        13.686225891113281,
        -0.01088714599609375,
        -3.3527612686157227e-08
      ]
    },
    {
      "children": [
        74
      ],
      "name": "Bip01 R Thigh",
      "rotation": [
        -0.052143044769763947,
        0.9973017573356628,
        -0.003941881470382214,
        0.05152444913983345
      ],
      "scale": [
        1.0,
        1.3321287184453467e-08,
        -8.874790680124534e-09
      ],
      "translation": [
        1.52587890625e-05,
        -1.0311603546142578e-05,
        -10.699399948120117
      ]
    },
    {
      "children": [
        75
      ],
      "name": "Bip01 R Calf",
      "rotation": [
        -2.328305881427184e-10,
        1.271231384047944e-13,
        -0.0005459897220134735,
        0.9999998211860657
      ],
      "scale": [
        1.0,
        0.0,
        0.0
      ],
      "translation": [
        47.206119537353516,
        0.0,
        0.0
      ]
    },
    {
      "children": [
        76
      ],
      "name": "Bip01 R Foot",
      "rotation": [
        0.06180825084447861,
        0.054871682077646255,
        0.04869339242577553,
        0.9953882694244385
      ],
      "scale": [
        1.0,
        -9.242313581125927e-10,
        -3.5782790064331493e-09
      ],
      "translation": [
        44.07231140136719,
        9.5367431640625e-07,
        -1.9073486328125e-06
      ]
    },
    {
      "name": "Bip01 R Toe0",
      "rotation": [
        1.5006010656293256e-08,
        1.5882665849176192e-08,
        0.7057640552520752,
        0.7084468007087708
      ],
      "scale": [
        1.0000001192092896,
        4.5895912070825773e-10,
        4.751866899965762e-09
      ],
      "translation": [
        13.616190910339355,
        14.99531364440918,
        0.0
      ]
    },
    {
      "children": [
        78
      ],
      "name": "Bip01 L Thigh",
      "rotation": [
        -0.052142977714538574,
        0.9973018169403076,
        0.0039404211565852165,
        -0.051523055881261826
      ],
      "scale": [
        0.9999999403953552,
        -4.20121004651719e-09,
        -4.949381793295515e-09
      ],
      "translation": [
        -1.52587890625e-05,
        1.9371509552001953e-05,
        10.69940185546875
      ]
    },
    {
      "children": [
        79
      ],
      "name": "Bip01 L Calf",
      "rotation": [
        2.307966318060295e-10,
        -1.2712053631958042e-13,
        -0.0005459897220134735,
        0.9999998211860657
      ],
      "scale": [
        1.0000001192092896,
        7.45057615603173e-09,
        7.450578376477779e-09
      ],
      "translation": [
        47.20612335205078,
        0.0,
        1.9073486328125e-06
      ]
    },
    {
      "children": [
        80
      ],
      "name": "Bip01 L Foot",
      "rotation": [
        -0.06180824711918831,
        -0.05487160012125969,
        0.048693399876356125,
        0.9953882694244385
      ],
      "scale": [
        1.0,
        6.91785917439347e-09,
        5.598912444781945e-09
      ],
      "translation": [
        44.07231903076172,
        1.9073486328125e-06,
        0.0
      ]
    },
    {
      "name": "Bip01 L Toe0",
      "rotation": [
        -1.2375220848070967e-08,
        -1.8523461875474823e-08,
        0.7057642340660095,
        0.7084468603134155
      ],
      "scale": [
        1.0,
        2.1944362993409072e-10,
        2.703287149685707e-09
      ],
      "translation": [
        13.616189956665039,
        14.995311737060547,
        1.9073486328125e-06
      ]
    },
    {
      "name": "equip_right",
      "rotation": [
        5.094334483146667e-07,
        1.73225998878479e-07,
        -2.682208730675484e-07,
        1.0
      ],
      "scale": [
        1.0000001192092896,
        -1.2561505384044852e-13,
        7.45087103126707e-09
      ],
      "translation": [
        7.531379699707031,
        2.14093017578125,
        -2.002574920654297
      ]
    }
  ],
  "scene": 0,
  "scenes": [
    {
      "nodes": [
        0
      ]
    }
  ],
  "skins": [
    {
      "inverseBindMatrices": 8,
      "joints": [
        3,
        4,
        5,
        6,
        7,
        8,
        9,
        10,
        11,
        12,
        13,
        14,
        15,
        16,
        17,
        18,
        19,
        20,
        21,
        22,
        23,
        24,
        25,
        26,
        27,
        28,
        29,
        30,
        31,
        32,
        33,
        34,
        35,
        36,
        37,
        38,
        39,
        40,
        41,
        42,
        43,
        44,
        45,
        46,
        47,
        48,
        49,
        50,
        51,
        52,
        53,
        54,
        55,
        56,
        57,
        58,
        59,
        60,
        61,
        62,
        63,
        64,
        65,
        66,
        67,
        68,
        69,
        70,
        71,
        72,
        73,
        74,
        75,
        76,
        77,
        78,
        79,
        80,
        81
      ],
      "skeleton": 3
    }
  ]
}
