{
  "accessors": [
    {
      "bufferView": 0,
      "componentType": 5126,
      "count": 197,
      "max": [
        9.461098670959473,
        9.081801414489746,
        182.65960693359375
      ],
      "min": [
        -9.461098670959473,
        -9.53429889678955,
        163.52040100097656
      ],
      "type": "VEC3"
    },
    {
      "bufferView": 1,
      "componentType": 5126,
      "count": 197,
      "type": "VEC3"
    },
    {
      "bufferView": 2,
      "componentType": 5126,
      "count": 197,
      "type": "VEC2"
    },
    {
      "bufferView": 3,
      "componentType": 5123,
      "count": 1032,
      "type": "SCALAR"
    },
    {
      "bufferView": 4,
      "componentType": 5126,
      "count": 1018,
      "max": [
        167.09669494628906,
        165.39779663085938,
        182.65960693359375
      ],
      "min": [
        -60.001495361328125,
        -59.49650192260742,
        -56.628395080566406
      ],
      "type": "VEC3"
    },
    {
      "bufferView": 5,
      "componentType": 5126,
      "count": 1018,
      "type": "VEC3"
    },
    {
      "bufferView": 6,
      "componentType": 5126,
      "count": 1018,
      "type": "VEC2"
    },
    {
      "bufferView": 7,
      "componentType": 5123,
      "count": 4041,
      "type": "SCALAR"
    },
    {
      "bufferView": 8,
      "componentType": 5126,
      "count": 57,
      "type": "MAT4"
    }
  ],
  "asset": {
    "generator": "gr2togltf (ANKA2 Project)",
    "version": "2.0"
  },
  "bufferViews": [
    {
      "buffer": 0,
      "byteLength": 2364,
      "target": 34962
    },
    {
      "buffer": 0,
      "byteLength": 2364,
      "byteOffset": 2364,
      "target": 34962
    },
    {
      "buffer": 0,
      "byteLength": 1576,
      "byteOffset": 4728,
      "target": 34962
    },
    {
      "buffer": 0,
      "byteLength": 2064,
      "byteOffset": 6304,
      "target": 34963
    },
    {
      "buffer": 0,
      "byteLength": 12216,
      "byteOffset": 8368,
      "target": 34962
    },
    {
      "buffer": 0,
      "byteLength": 12216,
      "byteOffset": 20584,
      "target": 34962
    },
    {
      "buffer": 0,
      "byteLength": 8144,
      "byteOffset": 32800,
      "target": 34962
    },
    {
      "buffer": 0,
      "byteLength": 8082,
      "byteOffset": 40944,
      "target": 34963
    },
    {
      "buffer": 0,
      "byteLength": 3648,
      "byteOffset": 49026
    }
  ],
  "buffers": [
    {
      "byteLength": 52674,
      "uri": "data:application/octet-stream;base64,"
    }
  ],
  "materials": [
    {
      "name": "default",
      "pbrMetallicRoughness": {
        "baseColorFactor": [
          0.8,
          0.8,
          0.8,
          1.0
        ],
        "metallicFactor": 0.0,
        "roughnessFactor": 0.8
      }
    }
  ],
  "meshes": [
    {
      "name": "sura_face",
      "primitives": [
        {
          "attributes": {
            "NORMAL": 1,
            "POSITION": 0,
            "TEXCOORD_0": 2
          },
          "indices": 3,
          "material": 0,
          "mode": 4
        }
      ]
    },
    {
      "name": "sura_carnival",
      "primitives": [
        {
          "attributes": {
            "NORMAL": 5,
            "POSITION": 4,
            "TEXCOORD_0": 6
          },
          "indices": 7,
          "material": 0,
          "mode": 4
        }
      ]
    }
  ],
  "nodes": [
    {
      "children": [
        1,
        2,
        3
      ]
    },
    {
      "mesh": 0,
      "name": "sura_face",
      "skin": 0
    },
    {
      "mesh": 1,
      "name": "sura_carnival",
      "skin": 0
    },
    {
      "children": [
        4
      ],
      "name": "Bip01",
      "rotation": [
        0.0,
        0.0,
        0.0,
        0.9999999403953552
      ],
      "scale": [
        0.9999997019767761,
        -1.3359980981751673e-13,
        0.0
      ],
      "translation": [
        0.0,
        0.0,
        0.0
      ]
    },
    {
      "children": [
        5,
        51,
        55
      ],
      "name": "Bip01 Pelvis",
      "rotation": [
        -0.4999993145465851,
        -0.5,
        -0.5,
        0.5000006556510925
      ],
      "scale": [
        1.0,
        5.1399245505243465e-20,
        8.265705963650741e-14
      ],
      "translation": [
        -1.4565091133117676,
        2.6747584342956543e-06,
        0.0
      ]
    },
    {
      "children": [
        6,
        8,
        10
      ],
      "name": "Bip01 Spine",
      "rotation": [
        -2.0804759515158366e-06,
        -6.936760428288835e-07,
        0.0003981590270996094,
        0.9999999403953552
      ],
      "scale": [
        1.0,
        -6.39742148145217e-11,
        1.156542089609516e-14
      ],
      "translation": [
        2.840728759765625,
        -0.718707799911499,
        5.904585123062134e-06
      ]
    },
    {
      "children": [
        7
      ],
      "name": "Bone11",
      "rotation": [
        -5.7788923868429265e-08,
        -7.279012947947194e-07,
        0.9923979043960571,
        -0.12307050824165344
      ],
      "scale": [
        1.0000001192092896,
        1.466988841514194e-08,
        -1.5237316345739077e-14
      ],
      "translation": [
        13.543403625488281,
        -9.463299751281738,
        -0.050122469663619995
      ]
    },
    {
      "name": "Bone12",
      "rotation": [
        1.010016958957749e-07,
        5.347721909743086e-08,
        0.003055534791201353,
        0.9999953508377075
      ],
      "scale": [
        1.0,
        3.6422490024001775e-10,
        -6.971493660948205e-15
      ],
      "translation": [
        23.542457580566406,
        -3.814697265625e-06,
        2.2737367544323206e-12
      ]
    },
    {
      "children": [
        9
      ],
      "name": "Bone09",
      "rotation": [
        -1.2089212475530076e-07,
        -6.648734824921121e-07,
        0.9976951479911804,
        0.06785585731267929
      ],
      "scale": [
        1.0000001192092896,
        -8.070202284216066e-09,
        9.456038653921778e-15
      ],
      "translation": [
        10.042915344238281,
        13.947978973388672,
        -0.050087280571460724
      ]
    },
    {
      "name": "Bone10",
      "rotation": [
        2.553127702230647e-17,
        7.10538161782185e-15,
        -0.0035932075697928667,
        0.9999935626983643
      ],
      "scale": [
        0.9999999403953552,
        4.283409182903597e-10,
        -1.4210854715202004e-14
      ],
      "translation": [
        28.00334930419922,
        1.9073486328125e-06,
        3.587992978282273e-07
      ]
    },
    {
      "children": [
        11
      ],
      "name": "Bip01 Spine1",
      "rotation": [
        -8.440914389977114e-14,
        7.659849643459893e-08,
        -0.027616992592811584,
        0.9996185898780823
      ],
      "scale": [
        1.0,
        4.286619670335057e-10,
        -3.3009200062184777e-15
      ],
      "translation": [
        15.780479431152344,
        -0.012591958045959473,
        -3.725290298461914e-08
      ]
    },
    {
      "children": [
        12
      ],
      "name": "Bip01 Spine2",
      "rotation": [
        -2.321598893218011e-14,
        2.855335878848564e-07,
        -0.10294690728187561,
        0.9946868419647217
      ],
      "scale": [
        1.0,
        1.4585348040441204e-08,
        6.880536721973196e-15
      ],
      "translation": [
        15.835281372070313,
        -0.01347494125366211,
        -3.725290298461914e-08
      ]
    },
    {
      "children": [
        13,
        19,
        32
      ],
      "name": "Bip01 Neck",
      "rotation": [
        2.937680345293722e-14,
        -7.014888296907884e-07,
        0.2529163062572479,
        0.967488169670105
      ],
      "scale": [
        1.0,
        -2.9170221793606288e-08,
        -4.771287125159354e-14
      ],
      "translation": [
        18.435470581054688,
        -0.008853912353515625,
        -2.2351741790771484e-08
      ]
    },
    {
      "children": [
        14
      ],
      "name": "Bip01 Head",
      "rotation": [
        9.263351533322223e-14,
        -8.242790983103987e-08,
        0.02971806190907955,
        0.9995583295822144
      ],
      "scale": [
        1.0000001192092896,
        1.0623312007851382e-08,
        3.242065361834523e-14
      ],
      "translation": [
        11.440719604492188,
        0.0,
        -3.725290298461914e-09
      ]
    },
    {
      "children": [
        15
      ],
      "name": "Bip01 Ponytail1",
      "rotation": [
        1.9069149471279134e-12,
        -2.7697305995388888e-06,
        0.9986048936843872,
        0.052803732454776764
      ],
      "scale": [
        0.9999999403953552,
        -1.3696563883058843e-08,
        1.2579311710662032e-14
      ],
      "translation": [
        9.20233154296875,
        -10.642345428466797,
        -2.568960189819336e-05
      ]
    },
    {
      "children": [
        16
      ],
      "name": "Bip01 Ponytail11",
      "rotation": [
        -1.9441250638432134e-13,
        -4.4914287400388275e-07,
        0.16193494200706482,
        0.9868014454841614
      ],
      "scale": [
        0.9999998807907104,
        -1.289442050312825e-13,
        -5.994018486849689e-14
      ],
      "translation": [
        13.133529663085938,
        -0.009548187255859375,
        -2.60770320892334e-08
      ]
    },
    {
      "children": [
        17
      ],
      "name": "Bip01 Ponytail12",
      "rotation": [
        1.943649505665307e-13,
        4.4504281504487153e-07,
        -0.16045670211315155,
        0.9870429039001465
      ],
      "scale": [
        1.0000001192092896,
        3.765547873513242e-08,
        4.085165365708132e-15
      ],
      "translation": [
        12.648139953613281,
        -0.0103302001953125,
        -3.3527612686157227e-08
      ]
    },
    {
      "children": [
        18
      ],
      "name": "Bip01 Ponytail13",
      "rotation": [
        -2.298367388336303e-13,
        2.1424625629151706e-07,
        -0.0772448256611824,
        0.9970121383666992
      ],
      "scale": [
        0.9999999403953552,
        1.472335142693737e-08,
        3.959206145440555e-14
      ],
      "translation": [
        13.685089111328125,
        -0.010768890380859375,
        -2.60770320892334e-08
      ]
    },
    {
      "name": "Bip01 Ponytail14",
      "rotation": [
        1.1338555149040946e-13,
        6.566769172877684e-08,
        -0.02367597632110119,
        0.9997196793556213
      ],
      "scale": [
        1.0000001192092896,
        -1.0263832450618793e-08,
        -5.47667007501796e-14
      ],
      "translation": [
        13.686225891113281,
        -0.01088714599609375,
        -3.3527612686157227e-08
      ]
    },
    {
      "children": [
        20
      ],
      "name": "Bip01 R Clavicle",
      "rotation": [
        -0.4834083020687103,
        0.19029393792152405,
        0.8352445960044861,
        0.18019741773605347
      ],
      "scale": [
        1.0,
        7.118758915680701e-09,
        4.870255310152061e-09
      ],
      "translation": [
        -1.18988037109375,
        -0.19192123413085938,
        -4.6038665771484375
      ]
    },
    {
      "children": [
        21
      ],
      "name": "Bip01 R UpperArm",
      "rotation": [
        -0.07118095457553864,
        -0.23287542164325714,
        0.025725040584802628,
        0.9695568680763245
      ],
      "scale": [
        1.0,
        1.582411712774956e-08,
        3.000686987775225e-08
      ],
      "translation": [
        19.847068786621094,
        3.814697265625e-06,
        -1.52587890625e-05
      ]
    },
    {
      "children": [
        22
      ],
      "name": "Bip01 R ForeArm",
      "rotation": [
        5.6070720982903666e-12,
        2.235453955279354e-08,
        -0.0007525666151195765,
        0.9999997019767761
      ],
      "scale": [
        1.0,
        3.7252865237036303e-09,
        -1.4895572775230903e-08
      ],
      "translation": [
        27.864288330078125,
        0.0,
        -7.62939453125e-06
      ]
    },
    {
      "children": [
        23,
        26,
        29,
        59
      ],
      "name": "Bip01 R Hand",
      "rotation": [
        0.6610820293426514,
        0.049675352871418,
        0.038034990429878235,
        0.7477006316184998
      ],
      "scale": [
        0.9999999403953552,
        3.478810484125461e-08,
        -4.591268254472425e-09
      ],
      "translation": [
        25.690662384033203,
        0.0,
        0.0
      ]
    },
    {
      "children": [
        24
      ],
      "name": "Bip01 R Finger2",
      "rotation": [
        -0.028132770210504532,
        -0.005823914892971516,
        0.2920496463775635,
        0.9559715390205383
      ],
      "scale": [
        1.0,
        5.176795880856844e-09,
        1.1402381261405026e-08
      ],
      "translation": [
        11.659988403320313,
        -0.431396484375,
        -1.1205439567565918
      ]
    },
    {
      "children": [
        25
      ],
      "name": "Bip01 R Finger21",
      "rotation": [
        2.3161669804316887e-10,
        1.876678368262219e-09,
        0.10198190063238144,
        0.994786262512207
      ],
      "scale": [
        1.0,
        -2.497404061330144e-09,
        -3.874411902415886e-11
      ],
      "translation": [
        4.448204040527344,
        3.814697265625e-06,
        9.5367431640625e-07
      ]
    },
    {
      "name": "Bip01 R Finger22",
      "rotation": [
        0.0,
        1.8551490343909904e-09,
        0.0896250382065773,
        0.9959755539894104
      ],
      "scale": [
        1.0,
        -4.020630051115859e-09,
        -2.9923841182721844e-11
      ],
      "translation": [
        3.6346359252929688,
        0.0,
        -9.5367431640625e-07
      ]
    },
    {
      "children": [
        27
      ],
      "name": "Bip01 R Finger0",
      "rotation": [
        -0.6359974145889282,
        -0.3162306547164917,
        -0.06964925676584244,
        0.7004672884941101
      ],
      "scale": [
        1.0,
        -3.218080379951971e-08,
        -4.425968569421457e-08
      ],
      "translation": [
        0.6864471435546875,
        2.5254974365234375,
        2.747166156768799
      ]
    },
    {
      "children": [
        28
      ],
      "name": "Bip01 R Finger01",
      "rotation": [
        -4.022627564381764e-09,
        -7.281983460671881e-09,
        0.2805599272251129,
        0.959836483001709
      ],
      "scale": [
        1.0000001192092896,
        -6.834036270220167e-08,
        3.1793079280362235e-09
      ],
      "translation": [
        5.109413146972656,
        0.0,
        -7.62939453125e-06
      ]
    },
    {
      "name": "Bip01 R Finger02",
      "rotation": [
        -1.3909120522015428e-09,
        -4.336851364139527e-11,
        0.09313317388296127,
        0.9956536889076233
      ],
      "scale": [
        1.0,
        6.434323656417232e-19,
        1.727200604761947e-10
      ],
      "translation": [
        3.5312347412109375,
        2.384185791015625e-07,
        0.0
      ]
    },
    {
      "children": [
        30
      ],
      "name": "Bip01 R Finger1",
      "rotation": [
        -0.07368870079517365,
        -0.03421925753355026,
        0.29757359623908997,
        0.9512354731559753
      ],
      "scale": [
        0.9999999403953552,
        -1.2231342338964168e-07,
        -1.5051156765366613e-08
      ],
      "translation": [
        11.491893768310547,
        -0.25464630126953125,
        4.704718112945557
      ]
    },
    {
      "children": [
        31
      ],
      "name": "Bip01 R Finger11",
      "rotation": [
        -2.8965621012844167e-09,
        6.560927356957791e-10,
        0.0949033722281456,
        0.9954864978790283
      ],
      "scale": [
        1.0000001192092896,
        -3.3704417035096412e-09,
        -3.731885911406607e-09
      ],
      "translation": [
        4.719993591308594,
        -3.814697265625e-06,
        -9.5367431640625e-07
      ]
    },
    {
      "name": "Bip01 R Finger12",
      "rotation": [
        -5.419185655775038e-10,
        -3.1422677793102594e-09,
        0.08288811892271042,
        0.9965588450431824
      ],
      "scale": [
        1.0000001192092896,
        4.997657399030686e-09,
        6.865442436776448e-09
      ],
      "translation": [
        3.115997314453125,
        0.0,
        0.0
      ]
    },
    {
      "children": [
        33
      ],
      "name": "Bip01 L Clavicle",
      "rotation": [
        0.4834088087081909,
        -0.1902962625026703,
        0.8352440595626831,
        0.18019607663154602
      ],
      "scale": [
        1.0000001192092896,
        -6.5523479975126975e-09,
        1.5777928297211474e-08
      ],
      "translation": [
        -1.18988037109375,
        -0.19194793701171875,
        4.6038665771484375
      ]
    },
    {
      "children": [
        34
      ],
      "name": "Bip01 L UpperArm",
      "rotation": [
        0.07826428860425949,
        0.24452172219753265,
        0.060846444219350815,
        0.9645628929138184
      ],
      "scale": [
        1.0000001192092896,
        8.04240762874997e-09,
        -8.280752972211758e-09
      ],
      "translation": [
        19.847068786621094,
        0.0,
        0.0
      ]
    },
    {
      "children": [
        35
      ],
      "name": "Bip01 L ForeArm",
      "rotation": [
        4.989350599338138e-10,
        1.514227321308681e-08,
        -0.03348296880722046,
        0.9994392991065979
      ],
      "scale": [
        1.0,
        4.515197534402918e-16,
        -2.9303667048452553e-08
      ],
      "translation": [
        27.864295959472656,
        0.0,
        -7.62939453125e-06
      ]
    },
    {
      "children": [
        36,
        39,
        42,
        45,
        48
      ],
      "name": "Bip01 L Hand",
      "rotation": [
        -0.7916519641876221,
        0.005645343568176031,
        0.026196429505944252,
        0.6103843450546265
      ],
      "scale": [
        1.0,
        -2.4153012923022743e-09,
        1.529113902165591e-08
      ],
      "translation": [
        26.83318328857422,
        0.0,
        0.0
      ]
    },
    {
      "children": [
        37
      ],
      "name": "Bone20",
      "rotation": [
        0.958179771900177,
        0.25360792875289917,
        0.12814144790172577,
        0.033974599093198776
      ],
      "scale": [
        0.22892940044403076,
        -1.7197567814264403e-09,
        4.3476466871084085e-09
      ],
      "translation": [
        14.62759780883789,
        0.3095855712890625,
        1.1888904571533203
      ]
    },
    {
      "children": [
        38
      ],
      "name": "Bone21",
      "rotation": [
        1.5224547951220302e-06,
        -1.5735879799194663e-07,
        -0.12655436992645264,
        0.9919596910476685
      ],
      "scale": [
        0.8113711476325989,
        -1.280014583215916e-08,
        -1.0489624280296539e-08
      ],
      "translation": [
        24.451446533203125,
        1.52587890625e-05,
        0.0
      ]
    },
    {
      "name": "Bone22",
      "rotation": [
        1.6169012795330673e-08,
        2.1352210666236715e-08,
        -0.06595505028963089,
        0.9978225827217102
      ],
      "scale": [
        1.3532013893127441,
        -4.523371188724923e-08,
        -2.781888497338514e-09
      ],
      "translation": [
        23.85125732421875,
        -7.62939453125e-06,
        -3.814697265625e-06
      ]
    },
    {
      "children": [
        40
      ],
      "name": "Bip01 L Finger2",
      "rotation": [
        -0.046775829046964645,
        -0.09146642684936523,
        0.2815311849117279,
        0.9540367126464844
      ],
      "scale": [
        0.9999999403953552,
        -6.49550955245104e-08,
        -1.3509870555594716e-08
      ],
      "translation": [
        14.496322631835938,
        -0.7662353515625,
        -2.5844573974609375
      ]
    },
    {
      "children": [
        41
      ],
      "name": "Bip01 L Finger21",
      "rotation": [
        -1.6137517988568106e-08,
        4.405950715380413e-09,
        0.14005015790462494,
        0.9901444315910339
      ],
      "scale": [
        1.0,
        2.960528116721753e-16,
        5.794598134656326e-09
      ],
      "translation": [
        6.126617431640625,
        -3.814697265625e-06,
        -1.9073486328125e-06
      ]
    },
    {
      "name": "Bip01 L Finger22",
      "rotation": [
        5.562810212467184e-09,
        6.192363843915416e-10,
        0.0947219580411911,
        0.9955037832260132
      ],
      "scale": [
        1.0000001192092896,
        -4.72941046325559e-08,
        -3.5462255354445915e-09
      ],
      "translation": [
        6.1266021728515625,
        -1.9073486328125e-06,
        0.0
      ]
    },
    {
      "children": [
        43
      ],
      "name": "Bone24",
      "rotation": [
        0.9594858288764954,
        0.23988227546215057,
        0.14512695372104645,
        0.027956534177064896
      ],
      "scale": [
        0.21248316764831543,
        -6.642653094246498e-10,
        -5.762237353934552e-09
      ],
      "translation": [
        13.973503112792969,
        0.02126312255859375,
        5.047325134277344
      ]
    },
    {
      "children": [
        44
      ],
      "name": "Bone25",
      "rotation": [
        1.5386642644443782e-06,
        -2.2259786192080355e-07,
        -0.1710735708475113,
        0.9852582216262817
      ],
      "scale": [
        0.8113709688186646,
        4.162652889050378e-09,
        1.164734353409358e-08
      ],
      "translation": [
        24.451446533203125,
        0.0,
        3.814697265625e-06
      ]
    },
    {
      "name": "Bone26",
      "rotation": [
        9.679188117672766e-09,
        2.107017493813146e-08,
        -0.05949491262435913,
        0.9982286095619202
      ],
      "scale": [
        1.3532015085220337,
        2.3147663341660518e-08,
        -1.2298624341156028e-08
      ],
      "translation": [
        23.851318359375,
        1.52587890625e-05,
        0.0
      ]
    },
    {
      "children": [
        46
      ],
      "name": "Bip01 L Finger0",
      "rotation": [
        0.6419492959976196,
        0.36710938811302185,
        -0.010143228806555271,
        0.6730742454528809
      ],
      "scale": [
        1.0,
        -1.539798404337489e-07,
        -4.864381253355532e-08
      ],
      "translation": [
        2.7255325317382813,
        1.5828857421875,
        -4.528717041015625
      ]
    },
    {
      "children": [
        47
      ],
      "name": "Bip01 L Finger01",
      "rotation": [
        3.2692646367848965e-09,
        1.4123232583429512e-09,
        0.22189922630786896,
        0.9750695824623108
      ],
      "scale": [
        1.0000001192092896,
        -1.074454303306993e-09,
        -1.7323120715673213e-08
      ],
      "translation": [
        9.032466888427734,
        7.62939453125e-06,
        3.814697265625e-06
      ]
    },
    {
      "name": "Bip01 L Finger02",
      "rotation": [
        6.4918466158303545e-09,
        6.213337622185122e-10,
        0.2522697448730469,
        0.9676569700241089
      ],
      "scale": [
        1.0000001192092896,
        -2.291791290076617e-08,
        1.6523734602813533e-09
      ],
      "translation": [
        5.888343811035156,
        0.0,
        0.0
      ]
    },
    {
      "children": [
        49
      ],
      "name": "Bip01 L Finger1",
      "rotation": [
        -0.00252540223300457,
        0.0103805772960186,
        0.2603495419025421,
        0.9654552936553955
      ],
      "scale": [
        0.9999999403953552,
        -6.734294011323527e-09,
        -2.4797389031050443e-08
      ],
      "translation": [
        15.204154968261719,
        0.3554534912109375,
        -5.880039215087891
      ]
    },
    {
      "children": [
        50
      ],
      "name": "Bip01 L Finger11",
      "rotation": [
        2.419503659922828e-11,
        1.4280553628509551e-08,
        0.1432468742132187,
        0.9896869659423828
      ],
      "scale": [
        1.0,
        2.8579254518490416e-08,
        -4.624618199500219e-08
      ],
      "translation": [
        5.4831085205078125,
        3.814697265625e-06,
        0.0
      ]
    },
    {
      "name": "Bip01 L Finger12",
      "rotation": [
        4.848708989868555e-09,
        -7.594718631764863e-09,
        0.09576985985040665,
        0.995403528213501
      ],
      "scale": [
        1.0,
        1.1364180707573723e-08,
        -1.6048341322516535e-08
      ],
      "translation": [
        5.053825378417969,
        -3.814697265625e-06,
        0.0
      ]
    },
    {
      "children": [
        52
      ],
      "name": "Bip01 R Thigh",
      "rotation": [
        -0.04179610311985016,
        0.9790621399879456,
        -0.18982774019241333,
        0.060463797301054
      ],
      "scale": [
        1.0,
        1.5440169143232652e-09,
        -1.3925354203081497e-09
      ],
      "translation": [
        1.52587890625e-05,
        -1.0311603546142578e-05,
        -10.699399948120117
      ]
    },
    {
      "children": [
        53
      ],
      "name": "Bip01 R Calf",
      "rotation": [
        4.192880265208032e-09,
        3.724807573490807e-09,
        -0.0005179690779186785,
        0.9999998807907104
      ],
      "scale": [
        0.9999999403953552,
        -5.711425998811137e-09,
        -7.447203742572128e-09
      ],
      "translation": [
        47.206119537353516,
        -9.5367431640625e-07,
        0.0
      ]
    },
    {
      "children": [
        54
      ],
      "name": "Bip01 R Foot",
      "rotation": [
        0.009553421288728714,
        0.06756113469600677,
        0.028910383582115173,
        0.9972504377365112
      ],
      "scale": [
        0.9999999403953552,
        -5.614305820245136e-08,
        -8.805144169343748e-09
      ],
      "translation": [
        44.07230758666992,
        7.152557373046875e-07,
        3.814697265625e-06
      ]
    },
    {
      "name": "Bip01 R Toe0",
      "rotation": [
        1.508371738623282e-08,
        1.5911686190861474e-08,
        0.7057640552520752,
        0.7084468007087708
      ],
      "scale": [
        1.000000238418579,
        4.79055461966027e-10,
        -2.495677264846563e-08
      ],
      "translation": [
        13.616192817687988,
        14.995314598083496,
        -1.9073486328125e-06
      ]
    },
    {
      "children": [
        56
      ],
      "name": "Bip01 L Thigh",
      "rotation": [
        -0.04179628565907478,
        0.9790624976158142,
        0.18982629477977753,
        -0.06046249344944954
      ],
      "scale": [
        1.0,
        1.8411996371980877e-09,
        2.0201927242169404e-08
      ],
      "translation": [
        -1.52587890625e-05,
        1.9371509552001953e-05,
        10.69940185546875
      ]
    },
    {
      "children": [
        57
      ],
      "name": "Bip01 L Calf",
      "rotation": [
        -1.2107189917287542e-08,
        7.454437955800586e-09,
        -0.0005179680301807821,
        0.9999998807907104
      ],
      "scale": [
        1.000000238418579,
        -1.4155274175031707e-11,
        -4.827760587133856e-12
      ],
      "translation": [
        47.20613479614258,
        2.384185791015625e-07,
        0.0
      ]
    },
    {
      "children": [
        58
      ],
      "name": "Bip01 L Foot",
      "rotation": [
        -0.009553435258567333,
        -0.06756112724542618,
        0.02891038917005062,
        0.9972504377365112
      ],
      "scale": [
        1.0000001192092896,
        -6.369448612986162e-08,
        -1.071599164959025e-08
      ],
      "translation": [
        44.07231903076172,
        1.6689300537109375e-06,
        0.0
      ]
    },
    {
      "name": "Bip01 L Toe0",
      "rotation": [
        -9.808895917728933e-09,
        -2.117682207369853e-08,
        0.7057642340660095,
        0.7084468603134155
      ],
      "scale": [
        1.000000238418579,
        4.72349714897291e-10,
        1.006024685779039e-08
      ],
      "translation": [
        13.616192817687988,
        14.995314598083496,
        0.0
      ]
    },
    {
      "name": "equip_right",
      "rotation": [
        5.094334483146667e-07,
        1.73225998878479e-07,
        -2.682208730675484e-07,
        1.0
      ],
      "scale": [
        1.0000001192092896,
        -1.2561505384044852e-13,
        7.45087103126707e-09
      ],
      "translation": [
        7.531379699707031,
        2.14093017578125,
        -2.002575397491455
      ]
    }
  ],
  "scene": 0,
  "scenes": [
    {
      "nodes": [
        0
      ]
    }
  ],
  "skins": [
    {
      "inverseBindMatrices": 8,
      "joints": [
        3,
        4,
        5,
        6,
        7,
        8,
        9,
        10,
        11,
        12,
        13,
        14,
        15,
        16,
        17,
        18,
        19,
        20,
        21,
        22,
        23,
        24,
        25,
        26,
        27,
        28,
        29,
        30,
        31,
        32,
        33,
        34,
        35,
        36,
        37,
        38,
        39,
        40,
        41,
        42,
        43,
        44,
        45,
        46,
        47,
        48,
        49,
        50,
        51,
        52,
        53,
        54,
        55,
        56,
        57,
        58,
        59
      ],
      "skeleton": 3
    }
  ]
}
