{
  "accessors": [
    {
      "bufferView": 0,
      "componentType": 5126,
      "count": 197,
      "max": [
        181.9212646484375,
        179.92893981933594,
        177.73948669433594
      ],
      "min": [
        -9.534280776977539,
        -9.404449462890625,
        -8.228082656860352
      ],
      "type": "VEC3"
    },
    {
      "bufferView": 1,
      "componentType": 5126,
      "count": 197,
      "type": "VEC3"
    },
    {
      "bufferView": 2,
      "componentType": 5126,
      "count": 197,
      "type": "VEC2"
    },
    {
      "bufferView": 3,
      "componentType": 5123,
      "count": 1032,
      "type": "SCALAR"
    },
    {
      "bufferView": 4,
      "componentType": 5126,
      "count": 1123,
      "max": [
        181.9212646484375,
        179.92893981933594,
        177.73948669433594
      ],
      "min": [
        -65.09466552734375,
        -65.171630859375,
        -63.19261169433594
      ],
      "type": "VEC3"
    },
    {
      "bufferView": 5,
      "componentType": 5126,
      "count": 1123,
      "type": "VEC3"
    },
    {
      "bufferView": 6,
      "componentType": 5126,
      "count": 1123,
      "type": "VEC2"
    },
    {
      "bufferView": 7,
      "componentType": 5123,
      "count": 4968,
      "type": "SCALAR"
    },
    {
      "bufferView": 8,
      "componentType": 5126,
      "count": 45,
      "type": "MAT4"
    }
  ],
  "asset": {
    "generator": "gr2togltf (ANKA2 Project)",
    "version": "2.0"
  },
  "bufferViews": [
    {
      "buffer": 0,
      "byteLength": 2364,
      "target": 34962
    },
    {
      "buffer": 0,
      "byteLength": 2364,
      "byteOffset": 2364,
      "target": 34962
    },
    {
      "buffer": 0,
      "byteLength": 1576,
      "byteOffset": 4728,
      "target": 34962
    },
    {
      "buffer": 0,
      "byteLength": 2064,
      "byteOffset": 6304,
      "target": 34963
    },
    {
      "buffer": 0,
      "byteLength": 13476,
      "byteOffset": 8368,
      "target": 34962
    },
    {
      "buffer": 0,
      "byteLength": 13476,
      "byteOffset": 21844,
      "target": 34962
    },
    {
      "buffer": 0,
      "byteLength": 8984,
      "byteOffset": 35320,
      "target": 34962
    },
    {
      "buffer": 0,
      "byteLength": 9936,
      "byteOffset": 44304,
      "target": 34963
    },
    {
      "buffer": 0,
      "byteLength": 2880,
      "byteOffset": 54240
    }
  ],
  "buffers": [
    {
      "byteLength": 57120,
      "uri": "data:application/octet-stream;base64,"
    }
  ],
  "materials": [
    {
      "name": "default",
      "pbrMetallicRoughness": {
        "baseColorFactor": [
          0.8,
          0.8,
          0.8,
          1.0
        ],
        "metallicFactor": 0.0,
        "roughnessFactor": 0.8
      }
    }
  ],
  "meshes": [
    {
      "name": "sura_face",
      "primitives": [
        {
          "attributes": {
            "NORMAL": 1,
            "POSITION": 0,
            "TEXCOORD_0": 2
          },
          "indices": 3,
          "material": 0,
          "mode": 4
        }
      ]
    },
    {
      "name": "sura_easter_day_2016",
      "primitives": [
        {
          "attributes": {
            "NORMAL": 5,
            "POSITION": 4,
            "TEXCOORD_0": 6
          },
          "indices": 7,
          "material": 0,
          "mode": 4
        }
      ]
    }
  ],
  "nodes": [
    {
      "children": [
        1,
        2,
        3
      ]
    },
    {
      "mesh": 0,
      "name": "sura_face",
      "skin": 0
    },
    {
      "mesh": 1,
      "name": "sura_easter_day_2016",
      "skin": 0
    },
    {
      "children": [
        4
      ],
      "name": "Bip01",
      "rotation": [
        0.0,
        0.0,
        0.0,
        0.9999999403953552
      ],
      "scale": [
        0.9999997019767761,
        -1.3359980981751673e-13,
        0.0
      ],
      "translation": [
        0.0,
        -3.725290298461914e-09,
        0.0
      ]
    },
    {
      "children": [
        5,
        39,
        43
      ],
      "name": "Bip01 Pelvis",
      "rotation": [
        -0.4999993145465851,
        -0.5,
        -0.5,
        0.5000006556510925
      ],
      "scale": [
        1.0,
        5.1399245505243465e-20,
        8.265705963650741e-14
      ],
      "translation": [
        -1.4508916139602661,
        0.0,
        0.0
      ]
    },
    {
      "children": [
        6
      ],
      "name": "Bip01 Spine",
      "rotation": [
        -2.0804759515158366e-06,
        -6.936760428288835e-07,
        0.0003981590270996094,
        0.9999999403953552
      ],
      "scale": [
        1.0,
        -6.39742148145217e-11,
        1.156542089609516e-14
      ],
      "translation": [
        2.840728759765625,
        -0.718707799911499,
        5.904585123062134e-06
      ]
    },
    {
      "children": [
        7
      ],
      "name": "Bip01 Spine1",
      "rotation": [
        -8.440914389977114e-14,
        7.659852485630836e-08,
        -0.02761700190603733,
        0.9996185898780823
      ],
      "scale": [
        1.0,
        4.2866085681048105e-10,
        -3.3088291763634647e-15
      ],
      "translation": [
        15.780479431152344,
        -0.012592077255249023,
        -3.725290298461914e-08
      ]
    },
    {
      "children": [
        8
      ],
      "name": "Bip01 Spine2",
      "rotation": [
        -1.9644298327229325e-14,
        2.855335878848564e-07,
        -0.10294690728187561,
        0.9946868419647217
      ],
      "scale": [
        1.0,
        1.4585348040441204e-08,
        4.846188893432336e-15
      ],
      "translation": [
        15.835281372070313,
        -0.013475418090820313,
        -3.725290298461914e-08
      ]
    },
    {
      "children": [
        9,
        15,
        26
      ],
      "name": "Bip01 Neck",
      "rotation": [
        1.468840172646861e-14,
        -7.014887728473695e-07,
        0.2529163062572479,
        0.967488169670105
      ],
      "scale": [
        0.9999998807907104,
        -9.540871204194445e-09,
        -4.963165159887692e-14
      ],
      "translation": [
        18.435470581054688,
        -0.008853912353515625,
        -2.2351741790771484e-08
      ]
    },
    {
      "children": [
        10
      ],
      "name": "Bip01 Head",
      "rotation": [
        6.042281746557882e-14,
        -8.242796667445873e-08,
        0.029718076810240746,
        0.9995583295822144
      ],
      "scale": [
        1.0000001192092896,
        1.06233173369219e-08,
        3.754104909966041e-14
      ],
      "translation": [
        11.440719604492188,
        3.814697265625e-06,
        -3.725290298461914e-09
      ]
    },
    {
      "children": [
        11
      ],
      "name": "Bip01 Ponytail1",
      "rotation": [
        1.9211455343226547e-12,
        -2.7697305995388888e-06,
        0.9986048936843872,
        0.05280371382832527
      ],
      "scale": [
        0.9999999403953552,
        -1.4819683258338046e-08,
        -4.476070393239634e-14
      ],
      "translation": [
        9.20233154296875,
        -10.642353057861328,
        -2.568960189819336e-05
      ]
    },
    {
      "children": [
        12
      ],
      "name": "Bip01 Ponytail11",
      "rotation": [
        -3.6002315495151094e-13,
        -4.4914287400388275e-07,
        0.1619349718093872,
        0.9868014454841614
      ],
      "scale": [
        1.0,
        -1.2894469292226013e-13,
        -2.0993612664249595e-13
      ],
      "translation": [
        13.133529663085938,
        -0.009548187255859375,
        -2.60770320892334e-08
      ]
    },
    {
      "children": [
        13
      ],
      "name": "Bip01 Ponytail12",
      "rotation": [
        3.5273639478056174e-13,
        4.450428718882904e-07,
        -0.16045673191547394,
        0.9870428442955017
      ],
      "scale": [
        1.000000238418579,
        3.765547518241874e-08,
        8.171446104401209e-14
      ],
      "translation": [
        12.648139953613281,
        -0.0103302001953125,
        -3.3527612686157227e-08
      ]
    },
    {
      "children": [
        14
      ],
      "name": "Bip01 Ponytail13",
      "rotation": [
        -3.4564595651799535e-13,
        2.142462989240812e-07,
        -0.0772448405623436,
        0.9970121383666992
      ],
      "scale": [
        0.9999999403953552,
        1.4140578085634209e-14,
        3.552238323910502e-14
      ],
      "translation": [
        13.685089111328125,
        -0.01076507568359375,
        -2.60770320892334e-08
      ]
    },
    {
      "name": "Bip01 Ponytail14",
      "rotation": [
        -5.552671546166362e-16,
        6.566768462334949e-08,
        -0.02367597632110119,
        0.9997196793556213
      ],
      "scale": [
        1.0000001192092896,
        -1.0263832450618793e-08,
        -3.44022465408652e-14
      ],
      "translation": [
        13.686241149902344,
        -0.01088714599609375,
        -3.3527612686157227e-08
      ]
    },
    {
      "children": [
        16
      ],
      "name": "Bip01 L Clavicle",
      "rotation": [
        0.4834088087081909,
        -0.1902962327003479,
        0.8352440595626831,
        0.18019607663154602
      ],
      "scale": [
        1.0000001192092896,
        -6.5523479975126975e-09,
        1.5777928297211474e-08
      ],
      "translation": [
        -1.18988037109375,
        -0.19194793701171875,
        4.6038665771484375
      ]
    },
    {
      "children": [
        17
      ],
      "name": "Bip01 L UpperArm",
      "rotation": [
        0.06968292593955994,
        0.24710412323474884,
        0.027146629989147186,
        0.9660987854003906
      ],
      "scale": [
        1.0000001192092896,
        1.645584468690231e-08,
        2.9585297767198426e-08
      ],
      "translation": [
        19.847068786621094,
        3.814697265625e-06,
        0.0
      ]
    },
    {
      "children": [
        18
      ],
      "name": "Bip01 L ForeArm",
      "rotation": [
        5.085866394693994e-09,
        -2.9972710535730585e-08,
        -0.03348298743367195,
        0.9994392991065979
      ],
      "scale": [
        1.0,
        -1.1967733470896746e-08,
        2.983573565984443e-08
      ],
      "translation": [
        27.864295959472656,
        -9.5367431640625e-07,
        0.0
      ]
    },
    {
      "children": [
        19,
        22,
        23
      ],
      "name": "Bip01 L Hand",
      "rotation": [
        -0.7471452951431274,
        0.00745897414162755,
        0.025738831609487534,
        0.6641203165054321
      ],
      "scale": [
        1.0,
        -4.467974878963332e-09,
        4.310374279725693e-10
      ],
      "translation": [
        26.83319854736328,
        0.0,
        -7.62939453125e-06
      ]
    },
    {
      "children": [
        20
      ],
      "name": "Bip01 L Finger0",
      "rotation": [
        0.6419492959976196,
        0.3671094477176666,
        -0.010143228806555271,
        0.6730741858482361
      ],
      "scale": [
        1.0000001192092896,
        -1.4557546990090486e-07,
        2.4993749292434586e-09
      ],
      "translation": [
        2.7255210876464844,
        1.5828857421875,
        -4.528717041015625
      ]
    },
    {
      "children": [
        21
      ],
      "name": "Bip01 L Finger01",
      "rotation": [
        3.737184783858538e-09,
        1.5026946353913218e-09,
        0.35544314980506897,
        0.9346978664398193
      ],
      "scale": [
        0.9999999403953552,
        4.938620179473219e-09,
        1.0837400976626554e-09
      ],
      "translation": [
        9.032463073730469,
        0.0,
        3.814697265625e-06
      ]
    },
    {
      "name": "Bip01 L Finger02",
      "rotation": [
        -2.4677599963496277e-09,
        7.734261009417764e-10,
        0.31915557384490967,
        0.9477023482322693
      ],
      "scale": [
        1.000000238418579,
        1.3245823993202066e-08,
        -6.841355815190298e-10
      ],
      "translation": [
        5.888336181640625,
        0.0,
        0.0
      ]
    },
    {
      "name": "Bone20",
      "rotation": [
        0.958179771900177,
        0.25360792875289917,
        0.12814149260520935,
        0.03397460654377937
      ],
      "scale": [
        0.22892940044403076,
        -3.845602725149888e-10,
        -3.016651817233651e-09
      ],
      "translation": [
        14.627582550048828,
        0.3095855712890625,
        1.1888866424560547
      ]
    },
    {
      "children": [
        24
      ],
      "name": "Bip01 L Finger2",
      "rotation": [
        -0.04677582532167435,
        -0.09146642684936523,
        0.2815311849117279,
        0.9540367126464844
      ],
      "scale": [
        1.0000001192092896,
        -9.171799320029095e-09,
        -4.500343209201674e-08
      ],
      "translation": [
        14.496322631835938,
        -0.7662353515625,
        -2.5844593048095703
      ]
    },
    {
      "children": [
        25
      ],
      "name": "Bip01 L Finger21",
      "rotation": [
        1.0070841938158992e-09,
        -1.483662637191685e-09,
        0.14005015790462494,
        0.9901444315910339
      ],
      "scale": [
        1.0,
        1.6530737667608264e-08,
        -6.945455321982763e-09
      ],
      "translation": [
        6.1266021728515625,
        0.0,
        0.0
      ]
    },
    {
      "name": "Bip01 L Finger22",
      "rotation": [
        7.373831767409911e-09,
        1.381880920803269e-08,
        0.09472191333770752,
        0.9955037832260132
      ],
      "scale": [
        1.0,
        -5.8535071900678304e-08,
        -2.2312347525144105e-08
      ],
      "translation": [
        6.126609802246094,
        -5.7220458984375e-06,
        0.0
      ]
    },
    {
      "children": [
        27
      ],
      "name": "Bip01 R Clavicle",
      "rotation": [
        -0.4834083318710327,
        0.19029393792152405,
        0.8352445960044861,
        0.18019743263721466
      ],
      "scale": [
        1.0,
        -7.3352843799057155e-09,
        -1.7152093079175756e-08
      ],
      "translation": [
        -1.18988037109375,
        -0.19192123413085938,
        -4.6038665771484375
      ]
    },
    {
      "children": [
        28
      ],
      "name": "Bip01 R UpperArm",
      "rotation": [
        -0.06301035732030869,
        -0.23521773517131805,
        -0.008127667009830475,
        0.9698640704154968
      ],
      "scale": [
        0.9999999403953552,
        1.4417199878380416e-08,
        5.5525490871843886e-09
      ],
      "translation": [
        19.847068786621094,
        0.0,
        -1.52587890625e-05
      ]
    },
    {
      "children": [
        29
      ],
      "name": "Bip01 R ForeArm",
      "rotation": [
        3.730896036557851e-09,
        2.2348931594251553e-08,
        -0.0007525759283453226,
        0.9999997019767761
      ],
      "scale": [
        1.0,
        -8.971468012930472e-11,
        -1.490117718105921e-08
      ],
      "translation": [
        27.864295959472656,
        -1.9073486328125e-06,
        -1.52587890625e-05
      ]
    },
    {
      "children": [
        30,
        33,
        36,
        47
      ],
      "name": "Bip01 R Hand",
      "rotation": [
        0.6610820293426514,
        0.04967533424496651,
        0.03803499788045883,
        0.7477006316184998
      ],
      "scale": [
        1.0000001192092896,
        6.233241034436787e-09,
        6.663312568377933e-09
      ],
      "translation": [
        25.69066619873047,
        1.9073486328125e-06,
        7.62939453125e-06
      ]
    },
    {
      "children": [
        31
      ],
      "name": "Bip01 R Finger0",
      "rotation": [
        -0.6119646430015564,
        -0.4533196985721588,
        -0.1057795062661171,
        0.6393834352493286
      ],
      "scale": [
        1.0,
        -1.6984190054358805e-08,
        -2.885128758123301e-08
      ],
      "translation": [
        0.6864433288574219,
        2.5254974365234375,
        2.7471656799316406
      ]
    },
    {
      "children": [
        32
      ],
      "name": "Bip01 R Finger01",
      "rotation": [
        -3.593365160980966e-09,
        -9.82603887145217e-10,
        0.26376575231552124,
        0.9645867943763733
      ],
      "scale": [
        1.0,
        -2.0981151038768076e-08,
        0.0
      ],
      "translation": [
        5.109413146972656,
        -3.814697265625e-06,
        0.0
      ]
    },
    {
      "name": "Bip01 R Finger02",
      "rotation": [
        -1.507601377070955e-09,
        3.882572485736091e-09,
        0.09313315898180008,
        0.9956536889076233
      ],
      "scale": [
        1.0000001192092896,
        1.1054082094119622e-08,
        8.012212227015425e-09
      ],
      "translation": [
        3.5312347412109375,
        1.9073486328125e-06,
        0.0
      ]
    },
    {
      "children": [
        34
      ],
      "name": "Bip01 R Finger2",
      "rotation": [
        -0.028132766485214233,
        -0.005823913030326366,
        0.29204970598220825,
        0.9559715390205383
      ],
      "scale": [
        1.0,
        -1.0733065103352146e-08,
        9.769001607651262e-09
      ],
      "translation": [
        11.659984588623047,
        -0.4314117431640625,
        -1.1205437183380127
      ]
    },
    {
      "children": [
        35
      ],
      "name": "Bip01 R Finger21",
      "rotation": [
        -1.101157276472975e-09,
        -4.92458643308602e-11,
        0.10198187828063965,
        0.994786262512207
      ],
      "scale": [
        1.0000001192092896,
        1.2093803292145822e-08,
        -9.166074149691283e-11
      ],
      "translation": [
        4.4481964111328125,
        0.0,
        0.0
      ]
    },
    {
      "name": "Bip01 R Finger22",
      "rotation": [
        2.006385280139966e-09,
        -1.3978335156039634e-10,
        0.0896250531077385,
        0.9959755539894104
      ],
      "scale": [
        1.0000001192092896,
        2.1282282602896885e-08,
        8.950928193085517e-11
      ],
      "translation": [
        3.6346359252929688,
        0.0,
        0.0
      ]
    },
    {
      "children": [
        37
      ],
      "name": "Bip01 R Finger1",
      "rotation": [
        -0.07368870824575424,
        -0.03421926125884056,
        0.2975735664367676,
        0.9512354731559753
      ],
      "scale": [
        0.9999999403953552,
        2.4132239317964377e-08,
        1.9833235054278475e-09
      ],
      "translation": [
        11.491893768310547,
        -0.2546539306640625,
        4.704718112945557
      ]
    },
    {
      "children": [
        38
      ],
      "name": "Bip01 R Finger11",
      "rotation": [
        1.2096005308492863e-09,
        1.364213408905357e-09,
        0.094903364777565,
        0.9954864978790283
      ],
      "scale": [
        1.0000001192092896,
        -1.8003184720782883e-08,
        6.238771166344748e-10
      ],
      "translation": [
        4.720001220703125,
        3.814697265625e-06,
        -2.384185791015625e-07
      ]
    },
    {
      "name": "Bip01 R Finger12",
      "rotation": [
        -8.005016205459015e-09,
        8.605716694809473e-10,
        0.08288813382387161,
        0.9965588450431824
      ],
      "scale": [
        0.9999999403953552,
        4.849372459148071e-09,
        1.1796169596678396e-09
      ],
      "translation": [
        3.1159820556640625,
        0.0,
        0.0
      ]
    },
    {
      "children": [
        40
      ],
      "name": "Bip01 L Thigh",
      "rotation": [
        -0.021883172914385796,
        0.993114173412323,
        0.10292008519172668,
        -0.051505934447050095
      ],
      "scale": [
        0.9999999403953552,
        1.027865126346228e-09,
        7.369427734715828e-09
      ],
      "translation": [
        -1.52587890625e-05,
        1.9371509552001953e-05,
        10.69940185546875
      ]
    },
    {
      "children": [
        41
      ],
      "name": "Bip01 L Calf",
      "rotation": [
        3.4428520034879284e-09,
        2.1832027297108425e-09,
        -0.05445706099271774,
        0.9985161423683167
      ],
      "scale": [
        1.0,
        2.6458323150213026e-17,
        -1.0166259833965796e-08
      ],
      "translation": [
        47.20612716674805,
        0.0,
        0.0
      ]
    },
    {
      "children": [
        42
      ],
      "name": "Bip01 L Foot",
      "rotation": [
        0.027119291946291924,
        -0.0516340546309948,
        0.07160209119319916,
        0.9957266449928284
      ],
      "scale": [
        1.0000001192092896,
        2.1655717219459802e-08,
        -2.2589816683904473e-09
      ],
      "translation": [
        44.07231140136719,
        0.0,
        0.0
      ]
    },
    {
      "name": "Bip01 L Toe0",
      "rotation": [
        -1.117146286588877e-08,
        -1.9711972498726027e-08,
        0.7057642340660095,
        0.7084468603134155
      ],
      "scale": [
        1.0000001192092896,
        -2.2613702577167771e-10,
        3.805781911836448e-09
      ],
      "translation": [
        13.616193771362305,
        14.99531364440918,
        1.9073486328125e-06
      ]
    },
    {
      "children": [
        44
      ],
      "name": "Bip01 R Thigh",
      "rotation": [
        -0.02188309095799923,
        0.9931139349937439,
        -0.10292147845029831,
        0.051507361233234406
      ],
      "scale": [
        1.0,
        6.4699974267057314e-09,
        2.5317119511925057e-09
      ],
      "translation": [
        1.52587890625e-05,
        -1.0311603546142578e-05,
        -10.699399948120117
      ]
    },
    {
      "children": [
        45
      ],
      "name": "Bip01 R Calf",
      "rotation": [
        4.33129018762024e-11,
        -1.9137682549796864e-09,
        -0.054457057267427444,
        0.9985161423683167
      ],
      "scale": [
        0.9999998807907104,
        1.2964306961293914e-08,
        -3.817139049289153e-09
      ],
      "translation": [
        47.20611572265625,
        0.0,
        1.9073486328125e-06
      ]
    },
    {
      "children": [
        46
      ],
      "name": "Bip01 R Foot",
      "rotation": [
        -0.027119293808937073,
        0.051634132862091064,
        0.07160208374261856,
        0.9957266449928284
      ],
      "scale": [
        0.9999999403953552,
        -1.5678774945016016e-10,
        -6.261924312411793e-09
      ],
      "translation": [
        44.07230758666992,
        -9.5367431640625e-07,
        0.0
      ]
    },
    {
      "name": "Bip01 R Toe0",
      "rotation": [
        1.380616154733616e-08,
        1.7076272840199636e-08,
        0.7057640552520752,
        0.7084468007087708
      ],
      "scale": [
        1.0000001192092896,
        1.3397272007054095e-11,
        3.6476035525367934e-09
      ],
      "translation": [
        13.616194725036621,
        14.99531364440918,
        1.9073486328125e-06
      ]
    },
    {
      "name": "equip_right",
      "rotation": [
        8.70611984282732e-07,
        2.7940059155184827e-09,
        -2.682209014892578e-07,
        1.0
      ],
      "scale": [
        1.0000001192092896,
        8.94070240065048e-08,
        9.317110416517949e-10
      ],
      "translation": [
        7.531383514404297,
        2.140899658203125,
        -2.0025784969329834
      ]
    }
  ],
  "scene": 0,
  "scenes": [
    {
      "nodes": [
        0
      ]
    }
  ],
  "skins": [
    {
      "inverseBindMatrices": 8,
      "joints": [
        3,
        4,
        5,
        6,
        7,
        8,
        9,
        10,
        11,
        12,
        13,
        14,
        15,
        16,
        17,
        18,
        19,
        20,
        21,
        22,
        23,
        24,
        25,
        26,
        27,
        28,
        29,
        30,
        31,
        32,
        33,
        34,
        35,
        36,
        37,
        38,
        39,
        40,
        41,
        42,
        43,
        44,
        45,
        46,
        47
      ],
      "skeleton": 3
    }
  ]
}
