{
  "accessors": [
    {
      "bufferView": 0,
      "componentType": 5126,
      "count": 1106,
      "max": [
        166.45294189453125,
        164.58843994140625,
        166.45294189453125
      ],
      "min": [
        -58.20798873901367,
        -59.11940383911133,
        -57.36612319946289
      ],
      "type": "VEC3"
    },
    {
      "bufferView": 1,
      "componentType": 5126,
      "count": 1106,
      "type": "VEC3"
    },
    {
      "bufferView": 2,
      "componentType": 5126,
      "count": 1106,
      "type": "VEC2"
    },
    {
      "bufferView": 3,
      "componentType": 5123,
      "count": 2913,
      "type": "SCALAR"
    },
    {
      "bufferView": 4,
      "componentType": 5126,
      "count": 29,
      "max": [
        166.45294189453125,
        164.58843994140625,
        166.45294189453125
      ],
      "min": [
        -58.20798873901367,
        -59.11940383911133,
        -57.36612319946289
      ],
      "type": "VEC3"
    },
    {
      "bufferView": 5,
      "componentType": 5126,
      "count": 29,
      "type": "VEC3"
    },
    {
      "bufferView": 6,
      "componentType": 5126,
      "count": 29,
      "type": "VEC2"
    },
    {
      "bufferView": 7,
      "componentType": 5123,
      "count": 69,
      "type": "SCALAR"
    },
    {
      "bufferView": 8,
      "componentType": 5126,
      "count": 116,
      "max": [
        166.45294189453125,
        164.58843994140625,
        166.45294189453125
      ],
      "min": [
        -60.944644927978516,
        -59.11940383911133,
        -57.36612319946289
      ],
      "type": "VEC3"
    },
    {
      "bufferView": 9,
      "componentType": 5126,
      "count": 116,
      "type": "VEC3"
    },
    {
      "bufferView": 10,
      "componentType": 5126,
      "count": 116,
      "type": "VEC2"
    },
    {
      "bufferView": 11,
      "componentType": 5123,
      "count": 312,
      "type": "SCALAR"
    },
    {
      "bufferView": 12,
      "componentType": 5126,
      "count": 195,
      "max": [
        179.9289093017578,
        177.89248657226563,
        177.89248657226563
      ],
      "min": [
        -60.944644927978516,
        -59.11940383911133,
        -57.36612319946289
      ],
      "type": "VEC3"
    },
    {
      "bufferView": 13,
      "componentType": 5126,
      "count": 195,
      "type": "VEC3"
    },
    {
      "bufferView": 14,
      "componentType": 5126,
      "count": 195,
      "type": "VEC2"
    },
    {
      "bufferView": 15,
      "componentType": 5123,
      "count": 594,
      "type": "SCALAR"
    },
    {
      "bufferView": 16,
      "componentType": 5126,
      "count": 91,
      "type": "MAT4"
    }
  ],
  "asset": {
    "generator": "gr2togltf (ANKA2 Project)",
    "version": "2.0"
  },
  "bufferViews": [
    {
      "buffer": 0,
      "byteLength": 13272,
      "target": 34962
    },
    {
      "buffer": 0,
      "byteLength": 13272,
      "byteOffset": 13272,
      "target": 34962
    },
    {
      "buffer": 0,
      "byteLength": 8848,
      "byteOffset": 26544,
      "target": 34962
    },
    {
      "buffer": 0,
      "byteLength": 5826,
      "byteOffset": 35392,
      "target": 34963
    },
    {
      "buffer": 0,
      "byteLength": 348,
      "byteOffset": 41218,
      "target": 34962
    },
    {
      "buffer": 0,
      "byteLength": 348,
      "byteOffset": 41566,
      "target": 34962
    },
    {
      "buffer": 0,
      "byteLength": 232,
      "byteOffset": 41914,
      "target": 34962
    },
    {
      "buffer": 0,
      "byteLength": 138,
      "byteOffset": 42146,
      "target": 34963
    },
    {
      "buffer": 0,
      "byteLength": 1392,
      "byteOffset": 42284,
      "target": 34962
    },
    {
      "buffer": 0,
      "byteLength": 1392,
      "byteOffset": 43676,
      "target": 34962
    },
    {
      "buffer": 0,
      "byteLength": 928,
      "byteOffset": 45068,
      "target": 34962
    },
    {
      "buffer": 0,
      "byteLength": 624,
      "byteOffset": 45996,
      "target": 34963
    },
    {
      "buffer": 0,
      "byteLength": 2340,
      "byteOffset": 46620,
      "target": 34962
    },
    {
      "buffer": 0,
      "byteLength": 2340,
      "byteOffset": 48960,
      "target": 34962
    },
    {
      "buffer": 0,
      "byteLength": 1560,
      "byteOffset": 51300,
      "target": 34962
    },
    {
      "buffer": 0,
      "byteLength": 1188,
      "byteOffset": 52860,
      "target": 34963
    },
    {
      "buffer": 0,
      "byteLength": 5824,
      "byteOffset": 54048
    }
  ],
  "buffers": [
    {
      "byteLength": 59872,
      "uri": "data:application/octet-stream;base64,"
    }
  ],
  "materials": [
    {
      "name": "default",
      "pbrMetallicRoughness": {
        "baseColorFactor": [
          0.8,
          0.8,
          0.8,
          1.0
        ],
        "metallicFactor": 0.0,
        "roughnessFactor": 0.8
      }
    }
  ],
  "meshes": [
    {
      "name": "surabody",
      "primitives": [
        {
          "attributes": {
            "NORMAL": 1,
            "POSITION": 0,
            "TEXCOORD_0": 2
          },
          "indices": 3,
          "material": 0,
          "mode": 4
        }
      ]
    },
    {
      "name": "cloak",
      "primitives": [
        {
          "attributes": {
            "NORMAL": 5,
            "POSITION": 4,
            "TEXCOORD_0": 6
          },
          "indices": 7,
          "material": 0,
          "mode": 4
        }
      ]
    },
    {
      "name": "armer",
      "primitives": [
        {
          "attributes": {
            "NORMAL": 9,
            "POSITION": 8,
            "TEXCOORD_0": 10
          },
          "indices": 11,
          "material": 0,
          "mode": 4
        }
      ]
    },
    {
      "name": "face",
      "primitives": [
        {
          "attributes": {
            "NORMAL": 13,
            "POSITION": 12,
            "TEXCOORD_0": 14
          },
          "indices": 15,
          "material": 0,
          "mode": 4
        }
      ]
    }
  ],
  "nodes": [
    {
      "children": [
        1,
        2,
        3,
        4,
        5
      ]
    },
    {
      "mesh": 0,
      "name": "surabody",
      "skin": 0
    },
    {
      "mesh": 1,
      "name": "cloak",
      "skin": 0
    },
    {
      "mesh": 2,
      "name": "armer",
      "skin": 0
    },
    {
      "mesh": 3,
      "name": "face",
      "skin": 0
    },
    {
      "children": [
        6,
        17
      ],
      "name": "Bip01",
      "rotation": [
        0.0,
        0.0,
        1.2687824124668623e-08,
        1.0
      ],
      "scale": [
        0.9999997019767761,
        -1.3359980981751673e-13,
        0.0
      ],
      "translation": [
        0.0,
        0.0,
        0.0
      ]
    },
    {
      "children": [
        7,
        18,
        23
      ],
      "name": "Bip01 Pelvis",
      "rotation": [
        -0.4999993145465851,
        -0.5,
        -0.5,
        0.5000006556510925
      ],
      "scale": [
        1.0,
        5.1399245505243465e-20,
        8.265705963650741e-14
      ],
      "translation": [
        -1.4509786367416382,
        -7.380840383319764e-10,
        0.0
      ]
    },
    {
      "children": [
        8,
        28,
        31,
        34,
        37
      ],
      "name": "Bip01 Spine",
      "rotation": [
        -2.0804759515158366e-06,
        -6.936760428288835e-07,
        0.0003981590270996094,
        0.9999999403953552
      ],
      "scale": [
        1.0,
        -6.39742148145217e-11,
        -1.017592517952963e-13
      ],
      "translation": [
        2.840728759765625,
        -0.718707799911499,
        5.903612418478588e-06
      ]
    },
    {
      "children": [
        9
      ],
      "name": "Bip01 Spine1",
      "rotation": [
        3.065384792245822e-14,
        7.659842538032535e-08,
        -0.027616962790489197,
        0.9996185898780823
      ],
      "scale": [
        1.0,
        6.479076774534311e-16,
        -1.111445462574634e-14
      ],
      "translation": [
        15.78048038482666,
        -0.012592102400958538,
        -3.381911284350281e-08
      ]
    },
    {
      "children": [
        10
      ],
      "name": "Bip01 Spine2",
      "rotation": [
        3.571690604950786e-14,
        2.855335878848564e-07,
        -0.10294690728187561,
        0.9946868419647217
      ],
      "scale": [
        1.0,
        3.339435187253194e-14,
        3.870359165537157e-14
      ],
      "translation": [
        15.835285186767578,
        -0.013475056737661362,
        -3.6739695730148014e-08
      ]
    },
    {
      "children": [
        11,
        58,
        88
      ],
      "name": "Bip01 Neck",
      "rotation": [
        0.0,
        -7.014885454736941e-07,
        0.25291621685028076,
        0.967488169670105
      ],
      "scale": [
        0.9999999403953552,
        -4.816410941951843e-13,
        7.868690779250925e-14
      ],
      "translation": [
        18.435462951660156,
        -0.008855495601892471,
        -2.3244870916983018e-08
      ]
    },
    {
      "children": [
        12,
        40,
        42
      ],
      "name": "Bip01 R Clavicle",
      "rotation": [
        -0.4834083318710327,
        0.19029387831687927,
        0.8352445960044861,
        0.18019737303256989
      ],
      "scale": [
        0.9999999403953552,
        2.8892799264212954e-08,
        3.121929026406178e-08
      ],
      "translation": [
        -1.1898937225341797,
        -0.19192562997341156,
        -4.603867053985596
      ]
    },
    {
      "children": [
        13
      ],
      "name": "Bip01 R UpperArm",
      "rotation": [
        -0.07118093222379684,
        -0.23287536203861237,
        0.025725016370415688,
        0.9695568680763245
      ],
      "scale": [
        0.9999999403953552,
        -1.2309581798319869e-08,
        1.2823059591937636e-07
      ],
      "translation": [
        19.847063064575195,
        -1.4058755368751008e-06,
        3.402477943836857e-07
      ]
    },
    {
      "children": [
        14,
        15
      ],
      "name": "Bip01 R ForeArm",
      "rotation": [
        2.080724703645842e-09,
        1.0400569294688466e-08,
        -0.0007525683031417429,
        0.9999997019767761
      ],
      "scale": [
        1.0000001192092896,
        -1.9790584726564475e-09,
        2.2109328257080563e-10
      ],
      "translation": [
        27.86429786682129,
        -7.863859536882956e-07,
        -3.850376288028201e-06
      ]
    },
    {
      "name": "armer",
      "rotation": [
        0.4678674340248108,
        0.07372692972421646,
        0.8806600570678711,
        0.01011178269982338
      ],
      "scale": [
        0.9103876948356628,
        1.1524061704903943e-08,
        -3.078109767074011e-09
      ],
      "translation": [
        15.649123191833496,
        -0.22922711074352264,
        -4.291151523590088
      ]
    },
    {
      "children": [
        16,
        46,
        50,
        54
      ],
      "name": "Bip01 R Hand",
      "rotation": [
        0.6610820293426514,
        0.0496753454208374,
        0.03803499415516853,
        0.7477006316184998
      ],
      "scale": [
        0.9999999403953552,
        3.159049910550493e-08,
        -2.3839650253876243e-09
      ],
      "translation": [
        25.69066619873047,
        -1.657597294979496e-07,
        -1.5470526477656676e-06
      ]
    },
    {
      "name": "equip_right",
      "rotation": [
        5.141518499840458e-07,
        2.0052236493484088e-07,
        -2.3148416516960424e-07,
        1.0
      ],
      "scale": [
        1.0,
        -2.4089770178647996e-08,
        -2.987184055669445e-09
      ],
      "translation": [
        7.531377792358398,
        2.1409225463867188,
        -2.002574920654297
      ]
    },
    {
      "name": "Bip01 Footsteps",
      "rotation": [
        0.0,
        0.0,
        0.7071062326431274,
        0.7071072459220886
      ],
      "scale": [
        1.0,
        0.0,
        0.0
      ],
      "translation": [
        9.091539077132893e-09,
        -5.897526911269324e-10,
        -103.90562438964844
      ]
    },
    {
      "children": [
        19
      ],
      "name": "Bip01 R Thigh",
      "rotation": [
        -0.04179610311985016,
        0.9790621399879456,
        -0.18982774019241333,
        0.060463797301054
      ],
      "scale": [
        1.0,
        -2.141019361801e-09,
        -2.224379613835481e-08
      ],
      "translation": [
        1.4768439541512635e-05,
        -1.0294143976352643e-05,
        -10.699400901794434
      ]
    },
    {
      "children": [
        20
      ],
      "name": "Bip01 R Calf",
      "rotation": [
        1.6937840019437544e-09,
        1.1401234401020588e-09,
        -0.0005179664003662765,
        0.9999998807907104
      ],
      "scale": [
        1.0,
        -1.1641525521355334e-09,
        -6.048159306715206e-09
      ],
      "translation": [
        47.20612716674805,
        -2.6420343601785135e-07,
        -1.4631382327934261e-08
      ]
    },
    {
      "children": [
        21
      ],
      "name": "Bip01 R Foot",
      "rotation": [
        0.009553422220051289,
        0.06756114214658737,
        0.028910377994179726,
        0.9972504377365112
      ],
      "scale": [
        1.0,
        -1.0567090313884364e-08,
        -1.2593477372035977e-09
      ],
      "translation": [
        44.07231521606445,
        5.783259666714002e-07,
        1.1226218248339137e-06
      ]
    },
    {
      "children": [
        22
      ],
      "name": "Bip01 R Toe0",
      "rotation": [
        1.2266000659622023e-08,
        1.8640811560999282e-08,
        0.7057642340660095,
        0.708446741104126
      ],
      "scale": [
        1.0,
        6.698382733899555e-12,
        -7.21934512171174e-09
      ],
      "translation": [
        13.616192817687988,
        14.99531078338623,
        -1.515267399554432e-06
      ]
    },
    {
      "name": "Bip01 R Toe0Nub",
      "rotation": [
        2.6853533285908782e-11,
        3.0319833310699096e-09,
        3.376948026767579e-11,
        1.0
      ],
      "scale": [
        0.9999999403953552,
        4.49115744594053e-12,
        1.32921638140715e-08
      ],
      "translation": [
        11.541619300842285,
        -6.231352323027295e-09,
        5.633860951093084e-07
      ]
    },
    {
      "children": [
        24
      ],
      "name": "Bip01 L Thigh",
      "rotation": [
        -0.04179627075791359,
        0.9790624380111694,
        0.18982639908790588,
        -0.060462575405836105
      ],
      "scale": [
        1.0,
        4.571750089610305e-09,
        5.561375804319368e-09
      ],
      "translation": [
        -1.4907423974364065e-05,
        1.9391998648643494e-05,
        10.699400901794434
      ]
    },
    {
      "children": [
        25
      ],
      "name": "Bip01 L Calf",
      "rotation": [
        -9.638911002696204e-09,
        4.281066612321638e-10,
        -0.0005179686122573912,
        0.9999998807907104
      ],
      "scale": [
        1.0000001192092896,
        2.910381491361136e-09,
        7.852515970796503e-09
      ],
      "translation": [
        47.20612716674805,
        -4.791658625435957e-07,
        9.205090236719116e-07
      ]
    },
    {
      "children": [
        26
      ],
      "name": "Bip01 L Foot",
      "rotation": [
        -0.00955334771424532,
        -0.06756121665239334,
        0.028910350054502487,
        0.9972504377365112
      ],
      "scale": [
        1.0,
        -8.016677099931258e-09,
        5.555107041033125e-09
      ],
      "translation": [
        44.07231521606445,
        6.079773129386012e-07,
        -5.580066044785781e-07
      ]
    },
    {
      "children": [
        27
      ],
      "name": "Bip01 L Toe0",
      "rotation": [
        -1.6363957300313814e-08,
        -1.4480115773096713e-08,
        0.7057642340660095,
        0.7084468603134155
      ],
      "scale": [
        0.9999999403953552,
        2.2613660943804348e-10,
        -4.4612566973967205e-09
      ],
      "translation": [
        13.616192817687988,
        14.995311737060547,
        1.0295971151208505e-06
      ]
    },
    {
      "name": "Bip01 L Toe0Nub",
      "rotation": [
        -2.8904757060077557e-11,
        1.447147823796513e-08,
        -4.9353063302781663e-11,
        1.0
      ],
      "scale": [
        1.0,
        -2.4810205973002653e-11,
        1.6444996475684093e-09
      ],
      "translation": [
        11.541620254516602,
        3.382404800689187e-09,
        -7.642159971510409e-07
      ]
    },
    {
      "children": [
        29
      ],
      "name": "Bone11",
      "rotation": [
        -5.778893807928398e-08,
        -7.279014084815572e-07,
        0.9923979043960571,
        -0.12307050824165344
      ],
      "scale": [
        1.0,
        1.456003673183659e-08,
        -3.742029269456805e-14
      ],
      "translation": [
        13.543408393859863,
        -9.463300704956055,
        -0.0501224659383297
      ]
    },
    {
      "children": [
        30
      ],
      "name": "Bone12",
      "rotation": [
        1.0100171010662962e-07,
        5.347722265014454e-08,
        0.0030555431731045246,
        0.9999953508377075
      ],
      "scale": [
        0.9999999403953552,
        4.6563106148589384e-10,
        -1.0439321085906669e-14
      ],
      "translation": [
        23.542463302612305,
        -2.61921468336368e-06,
        2.7943409305203337e-12
      ]
    },
    {
      "name": "Bone13",
      "rotation": [
        3.3268643077555217e-16,
        -1.3637450679360522e-15,
        -5.342304376654283e-10,
        1.0
      ],
      "scale": [
        1.0,
        -7.771561172376096e-15,
        4.0313156696029136e-16
      ],
      "translation": [
        27.984251022338867,
        -1.2490477274695877e-06,
        -3.042977328449048e-12
      ]
    },
    {
      "children": [
        32
      ],
      "name": "Bone09",
      "rotation": [
        -1.2089211054444604e-07,
        -6.64873539335531e-07,
        0.9976951479911804,
        0.06785586476325989
      ],
      "scale": [
        1.0,
        -1.4763736899681135e-08,
        2.960044725606667e-15
      ],
      "translation": [
        10.042916297912598,
        13.947977066040039,
        -0.050087280571460724
      ]
    },
    {
      "children": [
        33
      ],
      "name": "Bone10",
      "rotation": [
        1.3947641556183335e-15,
        -7.331127333209909e-16,
        -0.0035931975580751896,
        0.9999935626983643
      ],
      "scale": [
        1.0,
        8.885740473006996e-30,
        1.5075332253065447e-16
      ],
      "translation": [
        28.00334930419922,
        5.532684099307517e-06,
        3.587989283460047e-07
      ]
    },
    {
      "name": "Bone10-1",
      "rotation": [
        1.7531263255470908e-15,
        -3.060522103150577e-15,
        0.0,
        1.0
      ],
      "scale": [
        1.0,
        -1.509903313490213e-14,
        -4.5140981915165e-15
      ],
      "translation": [
        26.25847625732422,
        -3.2724542506912258e-06,
        3.4455749187145557e-07
      ]
    },
    {
      "children": [
        35
      ],
      "name": "Bone14",
      "rotation": [
        0.08666596561670303,
        0.7017757296562195,
        0.7017754912376404,
        -0.08666621148586273
      ],
      "scale": [
        0.8054579496383667,
        4.249454477189829e-08,
        -3.6404681352797397e-11
      ],
      "translation": [
        13.395831108093262,
        1.2645530700683594,
        14.345734596252441
      ]
    },
    {
      "children": [
        36
      ],
      "name": "Bone15",
      "rotation": [
        -2.2400271741662703e-12,
        2.2342057023894135e-11,
        0.03984403982758522,
        0.9992058873176575
      ],
      "scale": [
        1.2162786722183228,
        7.426923964715115e-09,
        5.151013296456064e-11
      ],
      "translation": [
        23.612512588500977,
        2.2486941020360973e-07,
        4.053679276694311e-07
      ]
    },
    {
      "name": "Bone16",
      "rotation": [
        7.578099606164734e-12,
        2.932862286364468e-11,
        1.81772268348368e-08,
        1.0
      ],
      "scale": [
        0.44868704676628113,
        2.333206516880182e-09,
        3.002028486909225e-11
      ],
      "translation": [
        25.082462310791016,
        5.719289219996426e-06,
        2.530227448005462e-06
      ]
    },
    {
      "children": [
        38
      ],
      "name": "Bone17",
      "rotation": [
        0.08664768934249878,
        0.7017778754234314,
        -0.7017778754234314,
        0.08664768934249878
      ],
      "scale": [
        0.8054581880569458,
        2.6329129099167403e-08,
        1.492115133706895e-12
      ],
      "translation": [
        13.39582347869873,
        1.2645926475524902,
        -14.413697242736816
      ]
    },
    {
      "children": [
        39
      ],
      "name": "Bone18",
      "rotation": [
        1.5972865696767258e-07,
        6.377813832614265e-09,
        0.03984779864549637,
        0.9992057681083679
      ],
      "scale": [
        1.2162786722183228,
        2.9707678095292067e-08,
        6.665522626035647e-13
      ],
      "translation": [
        23.612506866455078,
        -1.2938130566908512e-08,
        4.0588119532003475e-07
      ]
    },
    {
      "name": "Bone19",
      "rotation": [
        -5.972550470682847e-13,
        9.161886527220275e-12,
        3.973693596392991e-10,
        1.0
      ],
      "scale": [
        0.44868704676628113,
        -6.925272355573497e-09,
        1.107749569156935e-11
      ],
      "translation": [
        25.082456588745117,
        -1.8440118765283842e-06,
        2.5311653644166654e-06
      ]
    },
    {
      "children": [
        41
      ],
      "name": "sh_bone03",
      "rotation": [
        -0.7829573154449463,
        0.18353186547756195,
        0.13405536115169525,
        0.5790708661079407
      ],
      "scale": [
        0.9999998807907104,
        9.110992849059585e-09,
        -5.473396402777553e-09
      ],
      "translation": [
        4.008127212524414,
        -1.289960503578186,
        -3.5871121883392334
      ]
    },
    {
      "name": "sh_bone04",
      "rotation": [
        7.401246838165988e-15,
        -6.876109111351308e-14,
        2.29105501931004e-11,
        1.0
      ],
      "scale": [
        1.0,
        8.237473203553947e-13,
        -3.394267018060754e-14
      ],
      "translation": [
        31.181861877441406,
        -5.342695203580661e-06,
        -1.4759748978576681e-08
      ]
    },
    {
      "children": [
        43
      ],
      "name": "Bone05",
      "rotation": [
        -0.16402921080589294,
        -0.4725882411003113,
        0.125456303358078,
        0.856747031211853
      ],
      "scale": [
        0.9009684324264526,
        -2.0724801430560547e-08,
        -3.12489163434293e-08
      ],
      "translation": [
        5.7586188316345215,
        8.4080171585083,
        -7.787039756774902
      ]
    },
    {
      "children": [
        44
      ],
      "name": "Bone06",
      "rotation": [
        3.936585244446178e-07,
        -8.480022906098839e-09,
        -0.021625928580760956,
        0.9997661113739014
      ],
      "scale": [
        1.1942291259765625,
        -1.1165417035385872e-08,
        -2.875534699242621e-09
      ],
      "translation": [
        39.82003402709961,
        -1.1246715985180344e-05,
        3.4112811135855736e-06
      ]
    },
    {
      "children": [
        45
      ],
      "name": "Bone07",
      "rotation": [
        5.869337238451067e-10,
        5.777796574513161e-10,
        -0.006108613684773445,
        0.9999813437461853
      ],
      "scale": [
        1.0,
        -1.293380122775797e-18,
        -5.2653777171673966e-11
      ],
      "translation": [
        30.0007381439209,
        6.70507361064665e-05,
        2.7708088055078406e-06
      ]
    },
    {
      "name": "Bone08",
      "rotation": [
        -4.854068536008782e-12,
        3.4688990568909617e-10,
        -6.227139914827262e-10,
        1.0
      ],
      "scale": [
        0.9999999403953552,
        -2.3899680012817726e-09,
        -5.922785595302571e-10
      ],
      "translation": [
        29.235097885131836,
        -4.67877771370695e-06,
        3.522557562973816e-06
      ]
    },
    {
      "children": [
        47
      ],
      "name": "Bip01 R Finger2",
      "rotation": [
        -0.028132770210504532,
        -0.005823914427310228,
        0.29204970598220825,
        0.9559715390205383
      ],
      "scale": [
        0.9999999403953552,
        2.250159525374329e-08,
        9.075596274499276e-09
      ],
      "translation": [
        11.6599760055542,
        -0.4314073622226715,
        -1.1205439567565918
      ]
    },
    {
      "children": [
        48
      ],
      "name": "Bip01 R Finger21",
      "rotation": [
        1.9717316668277363e-10,
        8.228836501089631e-10,
        0.10198190063238144,
        0.994786262512207
      ],
      "scale": [
        1.0000001192092896,
        -1.2436727718159541e-18,
        6.483695247361254e-10
      ],
      "translation": [
        4.448204517364502,
        1.3736817550125124e-07,
        1.3603763591163442e-06
      ]
    },
    {
      "children": [
        49
      ],
      "name": "Bip01 R Finger22",
      "rotation": [
        3.5390279595759466e-10,
        -1.3790815711622884e-10,
        0.0896250382065773,
        0.9959755539894104
      ],
      "scale": [
        0.9999999403953552,
        2.7862227010535096e-19,
        -6.248091488636476e-10
      ],
      "translation": [
        3.6346383094787598,
        1.1608691465880838e-06,
        -8.559500770388695e-07
      ]
    },
    {
      "name": "Bip01 R Finger2Nub",
      "rotation": [
        -4.7915118053798444e-12,
        7.024744119732418e-10,
        3.43513173461929e-09,
        1.0
      ],
      "scale": [
        1.0,
        -8.403683970925613e-09,
        -1.1394676313614127e-09
      ],
      "translation": [
        3.870556354522705,
        -7.460703841388749e-07,
        1.5789622409556614e-07
      ]
    },
    {
      "children": [
        51
      ],
      "name": "Bip01 R Finger1",
      "rotation": [
        -0.07368869334459305,
        -0.03421926125884056,
        0.2975735664367676,
        0.9512354731559753
      ],
      "scale": [
        0.9999998807907104,
        8.66933902443634e-09,
        -1.5853061086090747e-09
      ],
      "translation": [
        11.491890907287598,
        -0.2546527087688446,
        4.704717636108398
      ]
    },
    {
      "children": [
        52
      ],
      "name": "Bip01 R Finger11",
      "rotation": [
        -1.9287513808308177e-09,
        8.151104791132013e-10,
        0.0949033796787262,
        0.9954864978790283
      ],
      "scale": [
        1.0,
        1.4632742129094822e-08,
        -1.964016949074221e-09
      ],
      "translation": [
        4.719994068145752,
        -3.223403837182559e-06,
        -6.842694801889593e-07
      ]
    },
    {
      "children": [
        53
      ],
      "name": "Bip01 R Finger12",
      "rotation": [
        1.9748831459054372e-09,
        -2.1027497520975658e-09,
        0.08288812637329102,
        0.9965588450431824
      ],
      "scale": [
        0.9999999403953552,
        -1.4696405870040508e-08,
        3.5831393407903533e-09
      ],
      "translation": [
        3.1159932613372803,
        1.3794557389701367e-06,
        4.114073135497165e-07
      ]
    },
    {
      "name": "Bip01 R Finger1Nub",
      "rotation": [
        -1.3192342773749033e-09,
        -4.9245052480273444e-11,
        7.938882440328143e-09,
        1.0
      ],
      "scale": [
        1.0,
        3.59729224186367e-09,
        1.0535814443102254e-09
      ],
      "translation": [
        3.96041202545166,
        1.246025590262434e-06,
        -1.33363073473447e-07
      ]
    },
    {
      "children": [
        55
      ],
      "name": "Bip01 R Finger0",
      "rotation": [
        -0.6359974145889282,
        -0.3162306547164917,
        -0.06964925676584244,
        0.7004672884941101
      ],
      "scale": [
        0.9999999403953552,
        -1.0167504882474532e-07,
        -2.4160234701753325e-08
      ],
      "translation": [
        0.6864407658576965,
        2.5254945755004883,
        2.7471659183502197
      ]
    },
    {
      "children": [
        56
      ],
      "name": "Bip01 R Finger01",
      "rotation": [
        -9.343364970604284e-10,
        1.8129534540278769e-09,
        0.2805599272251129,
        0.959836483001709
      ],
      "scale": [
        1.0,
        4.084717126460357e-18,
        -9.365772601910294e-10
      ],
      "translation": [
        5.109416961669922,
        -3.8540446212209645e-07,
        6.892752821840986e-07
      ]
    },
    {
      "children": [
        57
      ],
      "name": "Bip01 R Finger02",
      "rotation": [
        4.43198755473162e-10,
        -1.564634644068974e-09,
        0.09313315898180008,
        0.9956536889076233
      ],
      "scale": [
        1.0,
        2.2108164188239243e-08,
        -4.5982888607909445e-09
      ],
      "translation": [
        3.5312283039093018,
        8.005666529697919e-08,
        4.562290996545926e-06
      ]
    },
    {
      "name": "Bip01 R Finger0Nub",
      "rotation": [
        3.82486375904989e-10,
        -2.529081388757959e-10,
        3.268802173383989e-10,
        1.0
      ],
      "scale": [
        0.9999999403953552,
        3.4666081116796477e-09,
        2.855069514140496e-09
      ],
      "translation": [
        5.24545431137085,
        4.430150113421405e-07,
        -4.696272753790254e-06
      ]
    },
    {
      "children": [
        59,
        61,
        65
      ],
      "name": "Bip01 L Clavicle",
      "rotation": [
        0.4834088385105133,
        -0.1902962177991867,
        0.8352440595626831,
        0.18019603192806244
      ],
      "scale": [
        1.0,
        1.2141147642807937e-08,
        -1.493873824642833e-08
      ],
      "translation": [
        -1.1898936033248901,
        -0.1919509470462799,
        4.603865623474121
      ]
    },
    {
      "children": [
        60
      ],
      "name": "sh_bone01",
      "rotation": [
        0.782957911491394,
        -0.18353267014026642,
        0.1340528428554535,
        0.5790703892707825
      ],
      "scale": [
        0.9999999403953552,
        1.6597519802985516e-08,
        3.847940632795144e-09
      ],
      "translation": [
        4.008136749267578,
        -1.290008544921875,
        3.5870816707611084
      ]
    },
    {
      "name": "sh_bone02",
      "rotation": [
        1.4948612153689264e-15,
        1.7806025920483626e-15,
        -1.0471992162308652e-09,
        1.0
      ],
      "scale": [
        1.0,
        6.439293542825908e-15,
        -1.3888782295469818e-15
      ],
      "translation": [
        31.181861877441406,
        1.3281472774906433e-06,
        1.7884082126329304e-07
      ]
    },
    {
      "children": [
        62
      ],
      "name": "Bone01",
      "rotation": [
        0.16403113305568695,
        0.4725884795188904,
        0.12545493245124817,
        0.8567467331886292
      ],
      "scale": [
        0.9009685516357422,
        2.3215047662006327e-08,
        5.518670320725505e-08
      ],
      "translation": [
        5.879578590393066,
        8.388154029846191,
        7.850566387176514
      ]
    },
    {
      "children": [
        63
      ],
      "name": "Bone02",
      "rotation": [
        2.0921263332862594e-10,
        -1.71996505926586e-09,
        -0.02162293717265129,
        0.9997662305831909
      ],
      "scale": [
        1.194229245185852,
        7.4436137253997e-09,
        -5.072813835660384e-10
      ],
      "translation": [
        39.820037841796875,
        -1.3125005580150173e-06,
        -7.234536951727932e-07
      ]
    },
    {
      "children": [
        64
      ],
      "name": "Bone03",
      "rotation": [
        -3.649045041825838e-12,
        -1.286662221211543e-09,
        -0.0061086141504347324,
        0.9999813437461853
      ],
      "scale": [
        1.0,
        9.31253074654137e-10,
        1.0705845099323597e-09
      ],
      "translation": [
        30.0007381439209,
        6.766480510123074e-05,
        3.0082590001256904e-06
      ]
    },
    {
      "name": "Bone04",
      "rotation": [
        -1.3415196731259016e-10,
        7.47581607729586e-10,
        1.9188059474650743e-10,
        1.0
      ],
      "scale": [
        1.0,
        -1.7773100768891936e-09,
        -2.1124151317053474e-09
      ],
      "translation": [
        29.23509979248047,
        -6.244589258130873e-06,
        2.785146989481291e-06
      ]
    },
    {
      "children": [
        66
      ],
      "name": "Bip01 L UpperArm",
      "rotation": [
        0.07826419919729233,
        0.24452170729637146,
        0.060846488922834396,
        0.9645628929138184
      ],
      "scale": [
        1.0,
        -1.3508949514573487e-09,
        -4.051058866139101e-08
      ],
      "translation": [
        19.84706687927246,
        6.567312880179088e-07,
        -4.2918503595501534e-07
      ]
    },
    {
      "children": [
        67
      ],
      "name": "Bip01 L ForeArm",
      "rotation": [
        4.386139451639792e-09,
        1.067488586414811e-08,
        -0.03348296880722046,
        0.9994392991065979
      ],
      "scale": [
        1.0,
        -1.8359370310309995e-16,
        -6.580061295835549e-08
      ],
      "translation": [
        27.864299774169922,
        1.3042028967902297e-07,
        -1.7437305643852596e-07
      ]
    },
    {
      "children": [
        68,
        72,
        76,
        80,
        84
      ],
      "name": "Bip01 L Hand",
      "rotation": [
        -0.7916519641876221,
        0.005645344965159893,
        0.026196444407105446,
        0.6103843450546265
      ],
      "scale": [
        1.0000001192092896,
        2.5734856023973407e-08,
        1.1572321767516769e-08
      ],
      "translation": [
        26.83319091796875,
        -5.28167447555461e-07,
        4.9551213123777416e-06
      ]
    },
    {
      "children": [
        69
      ],
      "name": "Bone24",
      "rotation": [
        0.9594858288764954,
        0.23988227546215057,
        0.14512695372104645,
        0.027956543490290642
      ],
      "scale": [
        0.21248316764831543,
        -5.522654333844912e-09,
        1.218627865284816e-09
      ],
      "translation": [
        13.973489761352539,
        0.021260634064674377,
        5.0473246574401855
      ]
    },
    {
      "children": [
        70
      ],
      "name": "Bone25",
      "rotation": [
        1.5283139873645268e-06,
        -2.2501326668589172e-07,
        -0.1710735708475113,
        0.9852582216262817
      ],
      "scale": [
        0.8113710880279541,
        2.4255600195033367e-08,
        -1.3482588379076788e-09
      ],
      "translation": [
        24.451454162597656,
        1.4554277186107356e-05,
        2.17638626054395e-06
      ]
    },
    {
      "children": [
        71
      ],
      "name": "Bone26",
      "rotation": [
        2.7113600253869663e-09,
        1.544278127596499e-08,
        -0.059494923800230026,
        0.9982286095619202
      ],
      "scale": [
        1.3532013893127441,
        2.2511558839255486e-08,
        -5.667863067770895e-09
      ],
      "translation": [
        23.851228713989258,
        7.043245204840787e-06,
        -3.897639544447884e-08
      ]
    },
    {
      "name": "Bone27",
      "rotation": [
        4.654528318326356e-09,
        -2.820575772943812e-09,
        2.6116793172548114e-09,
        1.0
      ],
      "scale": [
        0.7159861922264099,
        -3.5948224397230888e-09,
        3.243575630307305e-09
      ],
      "translation": [
        24.52042579650879,
        -7.311821718758438e-06,
        -1.4475192529062042e-06
      ]
    },
    {
      "children": [
        73
      ],
      "name": "Bone20",
      "rotation": [
        0.958179771900177,
        0.25360792875289917,
        0.12814147770404816,
        0.03397459536790848
      ],
      "scale": [
        0.22892937064170837,
        3.736428055844954e-09,
        1.174958130789605e-09
      ],
      "translation": [
        14.627588272094727,
        0.30957961082458496,
        1.1888889074325562
      ]
    },
    {
      "children": [
        74
      ],
      "name": "Bone21",
      "rotation": [
        1.531321231595939e-06,
        -1.5751588477996847e-07,
        -0.12655439972877502,
        0.9919596910476685
      ],
      "scale": [
        0.8113710880279541,
        -1.2800140503088642e-08,
        -2.6835826894000547e-09
      ],
      "translation": [
        24.451448440551758,
        1.1729195648513269e-05,
        5.77711034566164e-08
      ]
    },
    {
      "children": [
        75
      ],
      "name": "Bone22",
      "rotation": [
        -1.553081774297027e-09,
        1.2518230896318983e-08,
        -0.06595505028963089,
        0.9978225827217102
      ],
      "scale": [
        1.3532015085220337,
        6.9261845148105294e-09,
        -4.425059429991052e-09
      ],
      "translation": [
        23.851240158081055,
        -2.3982195216376567e-06,
        1.7434331311960705e-06
      ]
    },
    {
      "name": "Bone23",
      "rotation": [
        1.1668097599226712e-08,
        -7.284995939826899e-10,
        -2.7508972877399174e-09,
        1.0
      ],
      "scale": [
        0.7159861922264099,
        -1.3104671126029643e-08,
        4.307505907519271e-09
      ],
      "translation": [
        24.520462036132813,
        9.0021048890776e-06,
        7.197598961283802e-08
      ]
    },
    {
      "children": [
        77
      ],
      "name": "Bip01 L Finger2",
      "rotation": [
        -0.046775832772254944,
        -0.09146642684936523,
        0.2815311849117279,
        0.9540367126464844
      ],
      "scale": [
        0.9999999403953552,
        -7.202080354318241e-08,
        -1.6426366045152463e-08
      ],
      "translation": [
        14.496316909790039,
        -0.7662379145622253,
        -2.5844593048095703
      ]
    },
    {
      "children": [
        78
      ],
      "name": "Bip01 L Finger21",
      "rotation": [
        1.9815227236819055e-09,
        -8.850130628346164e-10,
        0.14005015790462494,
        0.9901444315910339
      ],
      "scale": [
        1.0000001192092896,
        -1.134783274326387e-17,
        -1.6751298126393976e-09
      ],
      "translation": [
        6.126608371734619,
        -2.7057999432145152e-06,
        2.2916589159649448e-07
      ]
    },
    {
      "children": [
        79
      ],
      "name": "Bip01 L Finger22",
      "rotation": [
        9.693710723013282e-09,
        -3.4712150931426322e-09,
        0.0947219580411911,
        0.9955037832260132
      ],
      "scale": [
        0.9999999403953552,
        -1.1240967268122404e-08,
        3.877991705536488e-09
      ],
      "translation": [
        6.126611709594727,
        1.856588482951338e-06,
        8.642289230920142e-07
      ]
    },
    {
      "name": "Bip01 L Finger2Nub",
      "rotation": [
        -6.9164487470629865e-09,
        -2.642903673688579e-09,
        1.123099480082601e-08,
        1.0
      ],
      "scale": [
        1.0,
        3.325472874848856e-08,
        -3.809050408420944e-09
      ],
      "translation": [
        6.553220272064209,
        -8.381026077586284e-07,
        -2.4962980660347966e-07
      ]
    },
    {
      "children": [
        81
      ],
      "name": "Bip01 L Finger1",
      "rotation": [
        -0.0025254127103835344,
        0.010380575433373451,
        0.2603495419025421,
        0.9654552936553955
      ],
      "scale": [
        0.9999998807907104,
        -6.940157337709252e-09,
        -5.4679150096603735e-09
      ],
      "translation": [
        15.204148292541504,
        0.3554520010948181,
        -5.880040168762207
      ]
    },
    {
      "children": [
        82
      ],
      "name": "Bip01 L Finger11",
      "rotation": [
        5.2878061929106934e-09,
        5.871699126913654e-09,
        0.1432468593120575,
        0.9896869659423828
      ],
      "scale": [
        1.0,
        -1.142941525097426e-16,
        -6.4117378073547115e-09
      ],
      "translation": [
        5.483109474182129,
        1.6413066532550147e-06,
        4.014394505702512e-07
      ]
    },
    {
      "children": [
        83
      ],
      "name": "Bip01 L Finger12",
      "rotation": [
        -3.112022639584211e-09,
        1.4531386094418508e-09,
        0.09576984494924545,
        0.995403528213501
      ],
      "scale": [
        0.9999999403953552,
        3.2636400248975406e-09,
        1.4190198349695038e-08
      ],
      "translation": [
        5.0538330078125,
        -3.3153380627481965e-06,
        2.2962333332543494e-06
      ]
    },
    {
      "name": "Bip01 L Finger1Nub",
      "rotation": [
        3.648244595311212e-09,
        5.717685436223974e-09,
        -1.806525068426268e-10,
        1.0
      ],
      "scale": [
        1.0,
        1.1775179442619077e-10,
        -2.7764874843683174e-09
      ],
      "translation": [
        6.538975715637207,
        -1.201911800308153e-06,
        -1.7887225567392306e-07
      ]
    },
    {
      "children": [
        85
      ],
      "name": "Bip01 L Finger0",
      "rotation": [
        0.6419492959976196,
        0.36710938811302185,
        -0.010143239982426167,
        0.6730742454528809
      ],
      "scale": [
        0.9999998807907104,
        -9.644737986036489e-08,
        4.260984809434376e-08
      ],
      "translation": [
        2.725522756576538,
        1.5828860998153687,
        -4.528717994689941
      ]
    },
    {
      "children": [
        86
      ],
      "name": "Bip01 L Finger01",
      "rotation": [
        -2.255289066610544e-09,
        3.369711398804043e-09,
        0.22189922630786896,
        0.9750695824623108
      ],
      "scale": [
        1.0,
        5.266041114282416e-08,
        -4.66488359052164e-09
      ],
      "translation": [
        9.032465934753418,
        -2.7858768589794636e-06,
        -3.8283721437437634e-07
      ]
    },
    {
      "children": [
        87
      ],
      "name": "Bip01 L Finger02",
      "rotation": [
        -3.0143272322646908e-09,
        -1.5296236499651172e-09,
        0.25226980447769165,
        0.9676569104194641
      ],
      "scale": [
        1.0,
        3.0911735393601703e-09,
        3.1832589342251083e-10
      ],
      "translation": [
        5.888330936431885,
        -2.9476118470483925e-06,
        -1.8751925381366163e-06
      ]
    },
    {
      "name": "Bip01 L Finger0Nub",
      "rotation": [
        -3.5527289443670895e-10,
        -3.4212846444781064e-10,
        5.488702825573455e-10,
        1.0
      ],
      "scale": [
        1.0,
        -5.527797775073395e-09,
        -1.232197122114087e-10
      ],
      "translation": [
        6.949531078338623,
        -6.688606504212657e-07,
        3.4443812069184787e-07
      ]
    },
    {
      "children": [
        89,
        95
      ],
      "name": "Bip01 Head",
      "rotation": [
        1.15736359298374e-13,
        -8.242802351787759e-08,
        0.029718084260821342,
        0.9995583295822144
      ],
      "scale": [
        1.0000001192092896,
        -3.896314382245691e-09,
        -2.4234623978284554e-14
      ],
      "translation": [
        11.440712928771973,
        -6.059523229851038e-07,
        -1.3542280630218784e-09
      ]
    },
    {
      "children": [
        90
      ],
      "name": "Bip01 Ponytail1",
      "rotation": [
        1.9069149471279134e-12,
        -2.7697308269125642e-06,
        0.9986048936843872,
        0.052803825587034225
      ],
      "scale": [
        1.0,
        -1.6180794768297369e-12,
        -8.127606389556757e-15
      ],
      "translation": [
        9.20233154296875,
        -10.642351150512695,
        -2.5693354473332874e-05
      ]
    },
    {
      "children": [
        91
      ],
      "name": "Bip01 Ponytail11",
      "rotation": [
        1.0800694648545328e-13,
        -4.491429308473016e-07,
        0.1619350165128708,
        0.9868014454841614
      ],
      "scale": [
        1.0,
        -9.190073591014425e-09,
        7.615287659365824e-14
      ],
      "translation": [
        13.133529663085938,
        -0.009546484798192978,
        -2.5409473636273106e-08
      ]
    },
    {
      "children": [
        92
      ],
      "name": "Bip01 Ponytail12",
      "rotation": [
        -2.1596106183192042e-14,
        4.450429003099998e-07,
        -0.16045674681663513,
        0.9870428442955017
      ],
      "scale": [
        1.0,
        1.2547550346832248e-13,
        -1.4026648766096717e-13
      ],
      "translation": [
        12.648130416870117,
        -0.010330787859857082,
        -2.850240932161796e-08
      ]
    },
    {
      "children": [
        93
      ],
      "name": "Bip01 Ponytail13",
      "rotation": [
        -2.4943522792500623e-14,
        2.1424624208066234e-07,
        -0.0772448256611824,
        0.9970121383666992
      ],
      "scale": [
        1.0,
        -9.180773474781745e-09,
        -5.5928155715586486e-14
      ],
      "translation": [
        13.685096740722656,
        -0.010766367428004742,
        -2.6270569719599735e-08
      ]
    },
    {
      "children": [
        94
      ],
      "name": "Bip01 Ponytail14",
      "rotation": [
        8.428955640014599e-14,
        6.566760646364855e-08,
        -0.0236759465187788,
        0.9997196793556213
      ],
      "scale": [
        1.0,
        -2.8216011749293557e-09,
        -1.4230491268259963e-15
      ],
      "translation": [
        13.686217308044434,
        -0.010887288488447666,
        -3.019495053990795e-08
      ]
    },
    {
      "name": "Bip01 Ponytail1Nub",
      "rotation": [
        0.7073882222175598,
        0.7068251967430115,
        9.80225195235107e-07,
        -9.810059964365792e-07
      ],
      "scale": [
        0.9999999403953552,
        -6.125618184216327e-15,
        -1.4447803034240564e-13
      ],
      "translation": [
        13.686758041381836,
        8.904464152692526e-07,
        -2.1890176338246192e-09
      ]
    },
    {
      "name": "Bip01 HeadNub",
      "rotation": [
        2.675858395539271e-15,
        -1.0157697030504717e-14,
        0.0,
        1.0
      ],
      "scale": [
        1.0,
        -6.142308883738679e-13,
        1.3304145755714796e-14
      ],
      "translation": [
        22.007564544677734,
        1.816135863919044e-06,
        -3.818331484328752e-10
      ]
    }
  ],
  "scene": 0,
  "scenes": [
    {
      "nodes": [
        0
      ]
    }
  ],
  "skins": [
    {
      "inverseBindMatrices": 16,
      "joints": [
        5,
        6,
        7,
        8,
        9,
        10,
        11,
        12,
        13,
        14,
        15,
        16,
        17,
        18,
        19,
        20,
        21,
        22,
        23,
        24,
        25,
        26,
        27,
        28,
        29,
        30,
        31,
        32,
        33,
        34,
        35,
        36,
        37,
        38,
        39,
        40,
        41,
        42,
        43,
        44,
        45,
        46,
        47,
        48,
        49,
        50,
        51,
        52,
        53,
        54,
        55,
        56,
        57,
        58,
        59,
        60,
        61,
        62,
        63,
        64,
        65,
        66,
        67,
        68,
        69,
        70,
        71,
        72,
        73,
        74,
        75,
        76,
        77,
        78,
        79,
        80,
        81,
        82,
        83,
        84,
        85,
        86,
        87,
        88,
        89,
        90,
        91,
        92,
        93,
        94,
        95
      ],
      "skeleton": 5
    }
  ]
}
