{
  "accessors": [
    {
      "bufferView": 0,
      "componentType": 5126,
      "count": 3011,
      "max": [
        183.1401824951172,
        183.1402130126953,
        169.53289794921875
      ],
      "min": [
        -59.77155303955078,
        -60.9349479675293,
        -60.65315628051758
      ],
      "type": "VEC3"
    },
    {
      "bufferView": 1,
      "componentType": 5126,
      "count": 3011,
      "type": "VEC3"
    },
    {
      "bufferView": 2,
      "componentType": 5126,
      "count": 3011,
      "type": "VEC2"
    },
    {
      "bufferView": 3,
      "componentType": 5123,
      "count": 9768,
      "type": "SCALAR"
    },
    {
      "bufferView": 4,
      "componentType": 5126,
      "count": 197,
      "max": [
        183.1401824951172,
        183.1402130126953,
        177.73947143554688
      ],
      "min": [
        -59.77155303955078,
        -60.9349479675293,
        -60.65315628051758
      ],
      "type": "VEC3"
    },
    {
      "bufferView": 5,
      "componentType": 5126,
      "count": 197,
      "type": "VEC3"
    },
    {
      "bufferView": 6,
      "componentType": 5126,
      "count": 197,
      "type": "VEC2"
    },
    {
      "bufferView": 7,
      "componentType": 5123,
      "count": 1032,
      "type": "SCALAR"
    },
    {
      "bufferView": 8,
      "componentType": 5126,
      "count": 69,
      "type": "MAT4"
    }
  ],
  "asset": {
    "generator": "gr2togltf (ANKA2 Project)",
    "version": "2.0"
  },
  "bufferViews": [
    {
      "buffer": 0,
      "byteLength": 36132,
      "target": 34962
    },
    {
      "buffer": 0,
      "byteLength": 36132,
      "byteOffset": 36132,
      "target": 34962
    },
    {
      "buffer": 0,
      "byteLength": 24088,
      "byteOffset": 72264,
      "target": 34962
    },
    {
      "buffer": 0,
      "byteLength": 19536,
      "byteOffset": 96352,
      "target": 34963
    },
    {
      "buffer": 0,
      "byteLength": 2364,
      "byteOffset": 115888,
      "target": 34962
    },
    {
      "buffer": 0,
      "byteLength": 2364,
      "byteOffset": 118252,
      "target": 34962
    },
    {
      "buffer": 0,
      "byteLength": 1576,
      "byteOffset": 120616,
      "target": 34962
    },
    {
      "buffer": 0,
      "byteLength": 2064,
      "byteOffset": 122192,
      "target": 34963
    },
    {
      "buffer": 0,
      "byteLength": 4416,
      "byteOffset": 124256
    }
  ],
  "buffers": [
    {
      "byteLength": 128672,
      "uri": "data:application/octet-stream;base64,"
    }
  ],
  "materials": [
    {
      "name": "default",
      "pbrMetallicRoughness": {
        "baseColorFactor": [
          0.8,
          0.8,
          0.8,
          1.0
        ],
        "metallicFactor": 0.0,
        "roughnessFactor": 0.8
      }
    }
  ],
  "meshes": [
    {
      "name": "pwahuang1",
      "primitives": [
        {
          "attributes": {
            "NORMAL": 1,
            "POSITION": 0,
            "TEXCOORD_0": 2
          },
          "indices": 3,
          "material": 0,
          "mode": 4
        }
      ]
    },
    {
      "name": "sura_face",
      "primitives": [
        {
          "attributes": {
            "NORMAL": 5,
            "POSITION": 4,
            "TEXCOORD_0": 6
          },
          "indices": 7,
          "material": 0,
          "mode": 4
        }
      ]
    }
  ],
  "nodes": [
    {
      "children": [
        1,
        2,
        3
      ]
    },
    {
      "mesh": 0,
      "name": "pwahuang1",
      "skin": 0
    },
    {
      "mesh": 1,
      "name": "sura_face",
      "skin": 0
    },
    {
      "children": [
        4
      ],
      "name": "Bip01",
      "rotation": [
        0.0,
        0.0,
        0.0,
        0.9999999403953552
      ],
      "scale": [
        0.9999997615814209,
        -5.117093408073606e-14,
        0.0
      ],
      "translation": [
        0.0,
        -3.725290298461914e-09,
        0.0
      ]
    },
    {
      "children": [
        5,
        36,
        58
      ],
      "name": "Bip01 Pelvis",
      "rotation": [
        -0.4999993145465851,
        -0.5,
        -0.5,
        0.5000006556510925
      ],
      "scale": [
        1.0,
        6.755036055564761e-20,
        -2.6671148450016795e-18
      ],
      "translation": [
        -1.4509639739990234,
        0.0,
        0.0
      ]
    },
    {
      "children": [
        6,
        22,
        24,
        26,
        28
      ],
      "name": "Bip01 Spine",
      "rotation": [
        -2.0804759515158366e-06,
        -6.936760428288835e-07,
        0.00039815905620343983,
        0.9999999403953552
      ],
      "scale": [
        1.0,
        4.1697676561591734e-11,
        -1.8561090571423897e-14
      ],
      "translation": [
        2.840728759765625,
        -0.7187075614929199,
        5.934387445449829e-06
      ]
    },
    {
      "children": [
        7
      ],
      "name": "Bip01 Spine1",
      "rotation": [
        -5.5976592447642276e-14,
        7.659859591058193e-08,
        -0.02761702798306942,
        0.9996185898780823
      ],
      "scale": [
        1.0,
        4.286577481860121e-10,
        2.972028124227947e-15
      ],
      "translation": [
        15.780479431152344,
        -0.012591958045959473,
        -3.725290298461914e-08
      ]
    },
    {
      "children": [
        8
      ],
      "name": "Bip01 Spine2",
      "rotation": [
        1.1965163018365366e-13,
        2.855332468243432e-07,
        -0.10294681042432785,
        0.9946868419647217
      ],
      "scale": [
        0.9999998807907104,
        -1.6963582538664923e-08,
        -3.8252895588532926e-14
      ],
      "translation": [
        15.835281372070313,
        -0.013473987579345703,
        -3.725290298461914e-08
      ]
    },
    {
      "children": [
        9,
        11,
        52
      ],
      "name": "Bip01 Neck",
      "rotation": [
        -4.406520856753762e-14,
        -7.014892844381393e-07,
        0.25291651487350464,
        0.9674881100654602
      ],
      "scale": [
        0.9999998211860657,
        -3.871072351557814e-08,
        -3.739457338615762e-15
      ],
      "translation": [
        18.435470581054688,
        -0.008853912353515625,
        -2.2351741790771484e-08
      ]
    },
    {
      "children": [
        10,
        30,
        40
      ],
      "name": "Bip01 R Clavicle",
      "rotation": [
        -0.48340824246406555,
        0.19029392302036285,
        0.8352445363998413,
        0.18019771575927734
      ],
      "scale": [
        1.0000001192092896,
        5.733378927175181e-08,
        1.1567311730686924e-07
      ],
      "translation": [
        -1.18988037109375,
        -0.191925048828125,
        -4.603867053985596
      ]
    },
    {
      "name": "sh_bone03",
      "rotation": [
        -0.7829573154449463,
        0.18353183567523956,
        0.13405533134937286,
        0.5790708661079407
      ],
      "scale": [
        0.9999998211860657,
        -6.490199488951021e-10,
        2.364272999599848e-09
      ],
      "translation": [
        4.0081329345703125,
        -1.2899589538574219,
        -3.5871124267578125
      ]
    },
    {
      "children": [
        12,
        13,
        33
      ],
      "name": "Bip01 L Clavicle",
      "rotation": [
        0.4834088087081909,
        -0.1902962028980255,
        0.8352439999580383,
        0.1801963597536087
      ],
      "scale": [
        1.0000001192092896,
        3.723581443182411e-08,
        -9.869143724472451e-08
      ],
      "translation": [
        -1.18988037109375,
        -0.19194793701171875,
        4.603867053985596
      ]
    },
    {
      "name": "sh_bone01",
      "rotation": [
        0.782957911491394,
        -0.18353267014026642,
        0.1340528130531311,
        0.5790703892707825
      ],
      "scale": [
        1.000000238418579,
        -5.36820010665906e-09,
        -4.679628906600897e-11
      ],
      "translation": [
        4.0081329345703125,
        -1.2900123596191406,
        3.5870819091796875
      ]
    },
    {
      "children": [
        14
      ],
      "name": "Bip01 L UpperArm",
      "rotation": [
        0.07826385647058487,
        0.24452190101146698,
        0.06084652990102768,
        0.9645628929138184
      ],
      "scale": [
        1.0000001192092896,
        -1.6649714495997614e-08,
        -6.237009841925101e-08
      ],
      "translation": [
        19.847068786621094,
        0.0,
        0.0
      ]
    },
    {
      "children": [
        15
      ],
      "name": "Bip01 L ForeArm",
      "rotation": [
        -3.0418694230149868e-09,
        -2.243276142621653e-08,
        -0.03348308801651001,
        0.9994392991065979
      ],
      "scale": [
        0.9999999403953552,
        3.989256924796791e-09,
        1.4560582961564705e-08
      ],
      "translation": [
        27.864288330078125,
        -4.76837158203125e-07,
        0.0
      ]
    },
    {
      "children": [
        16,
        19,
        62,
        65,
        68
      ],
      "name": "Bip01 L Hand",
      "rotation": [
        -0.7916519045829773,
        0.005645383149385452,
        0.026196792721748352,
        0.610384464263916
      ],
      "scale": [
        0.9999999403953552,
        -3.5233753692409664e-08,
        -5.338662845133513e-09
      ],
      "translation": [
        26.83319854736328,
        0.0,
        0.0
      ]
    },
    {
      "children": [
        17
      ],
      "name": "Bone24",
      "rotation": [
        0.9594858288764954,
        0.23988227546215057,
        0.14512696862220764,
        0.027956532314419746
      ],
      "scale": [
        0.21248315274715424,
        -2.0785222432095907e-09,
        -1.3914617902344162e-08
      ],
      "translation": [
        13.973495483398438,
        0.0212554931640625,
        5.047325134277344
      ]
    },
    {
      "children": [
        18
      ],
      "name": "Bone25",
      "rotation": [
        1.5203623888737638e-06,
        -2.2709444635893306e-07,
        -0.1710735708475113,
        0.9852582216262817
      ],
      "scale": [
        0.8113709092140198,
        -3.802300252431223e-09,
        -6.224524229381245e-10
      ],
      "translation": [
        24.451446533203125,
        1.52587890625e-05,
        3.814697265625e-06
      ]
    },
    {
      "name": "Bone26",
      "rotation": [
        -3.5930343145196275e-09,
        1.6704365890518602e-08,
        -0.05949489027261734,
        0.9982286095619202
      ],
      "scale": [
        1.3532017469406128,
        4.502312833665201e-08,
        1.102251356854822e-08
      ],
      "translation": [
        23.85125732421875,
        1.52587890625e-05,
        0.0
      ]
    },
    {
      "children": [
        20
      ],
      "name": "Bone20",
      "rotation": [
        0.958179771900177,
        0.25360792875289917,
        0.12814149260520935,
        0.03397460654377937
      ],
      "scale": [
        0.22892938554286957,
        3.3111251518391782e-09,
        -1.4663666114689278e-10
      ],
      "translation": [
        14.62759017944336,
        0.3095855712890625,
        1.1888885498046875
      ]
    },
    {
      "children": [
        21
      ],
      "name": "Bone21",
      "rotation": [
        1.5367965033874498e-06,
        -1.5736142700006894e-07,
        -0.12655439972877502,
        0.9919596910476685
      ],
      "scale": [
        0.8113710880279541,
        2.1650139458984086e-09,
        -2.8919893146905906e-09
      ],
      "translation": [
        24.451446533203125,
        3.0517578125e-05,
        0.0
      ]
    },
    {
      "name": "Bone22",
      "rotation": [
        6.77030165263659e-09,
        2.5788555291228477e-08,
        -0.06595508009195328,
        0.9978225827217102
      ],
      "scale": [
        1.3532015085220337,
        2.9543038237989094e-08,
        7.025249826320135e-11
      ],
      "translation": [
        23.85125732421875,
        0.0,
        3.814697265625e-06
      ]
    },
    {
      "children": [
        23
      ],
      "name": "Bone17",
      "rotation": [
        0.08664767444133759,
        0.7017778754234314,
        -0.7017778754234314,
        0.08664768189191818
      ],
      "scale": [
        0.8054581880569458,
        -8.060991874003776e-09,
        3.0121929256443636e-11
      ],
      "translation": [
        13.395820617675781,
        1.2645926475524902,
        -14.4136962890625
      ]
    },
    {
      "name": "Bone18",
      "rotation": [
        1.5972132416663953e-07,
        6.305747035639797e-09,
        0.03984777629375458,
        0.9992057681083679
      ],
      "scale": [
        1.2162786722183228,
        -9.49290424046012e-09,
        -1.8430347525910662e-10
      ],
      "translation": [
        23.61248779296875,
        0.0,
        4.023313522338867e-07
      ]
    },
    {
      "children": [
        25
      ],
      "name": "Bone14",
      "rotation": [
        0.08666595071554184,
        0.7017757296562195,
        0.7017754912376404,
        -0.08666620403528214
      ],
      "scale": [
        0.8054579496383667,
        -6.3957767970634904e-09,
        -2.1273031947099952e-11
      ],
      "translation": [
        13.395828247070313,
        1.264553189277649,
        14.345733642578125
      ]
    },
    {
      "name": "Bone15",
      "rotation": [
        2.933332396426458e-11,
        -7.49435756508543e-12,
        0.03984404727816582,
        0.9992058873176575
      ],
      "scale": [
        1.2162786722183228,
        0.0,
        8.044781854565919e-12
      ],
      "translation": [
        23.612510681152344,
        0.0,
        4.0605664253234863e-07
      ]
    },
    {
      "children": [
        27
      ],
      "name": "Bone11",
      "rotation": [
        -5.7788923868429265e-08,
        -7.279013516381383e-07,
        0.9923979043960571,
        -0.12307050079107285
      ],
      "scale": [
        1.0000001192092896,
        2.2012196232434889e-10,
        -9.207249830720139e-15
      ],
      "translation": [
        13.543403625488281,
        -9.463300704956055,
        -0.0501224659383297
      ]
    },
    {
      "name": "Bone12",
      "rotation": [
        1.0100170300120226e-07,
        5.347722265014454e-08,
        0.0030555345583707094,
        0.9999953508377075
      ],
      "scale": [
        1.0,
        2.628186834829904e-10,
        -6.964690292315858e-15
      ],
      "translation": [
        23.542465209960938,
        0.0,
        2.7284841053187847e-12
      ]
    },
    {
      "children": [
        29
      ],
      "name": "Bone09",
      "rotation": [
        -1.2089212475530076e-07,
        -6.648734824921121e-07,
        0.9976951479911804,
        0.06785585731267929
      ],
      "scale": [
        1.0000001192092896,
        -8.070202284216066e-09,
        -5.937036886421998e-15
      ],
      "translation": [
        10.042915344238281,
        13.947978973388672,
        -0.050087276846170425
      ]
    },
    {
      "name": "Bone10",
      "rotation": [
        3.578222076007064e-15,
        7.098999224564289e-15,
        -0.0035932043101638556,
        0.9999935626983643
      ],
      "scale": [
        0.9999998807907104,
        -7.5250055076026e-09,
        -1.4198088234620987e-14
      ],
      "translation": [
        28.00334930419922,
        3.814697265625e-06,
        3.587992978282273e-07
      ]
    },
    {
      "children": [
        31
      ],
      "name": "Bone05",
      "rotation": [
        -0.16402921080589294,
        -0.4725882411003113,
        0.125456303358078,
        0.856747031211853
      ],
      "scale": [
        0.9009684920310974,
        -2.5704204986709556e-08,
        2.8275469077243542e-08
      ],
      "translation": [
        5.7586212158203125,
        8.40802001953125,
        -7.78704833984375
      ]
    },
    {
      "children": [
        32
      ],
      "name": "Bone06",
      "rotation": [
        3.935325025850034e-07,
        -8.391670469620749e-09,
        -0.021625932306051254,
        0.9997661113739014
      ],
      "scale": [
        1.194229006767273,
        1.4887223009907302e-08,
        4.013811061298611e-09
      ],
      "translation": [
        39.82002258300781,
        -1.1444091796875e-05,
        5.7220458984375e-06
      ]
    },
    {
      "name": "Bone07",
      "rotation": [
        1.0503497377412074e-10,
        -1.8618995234476188e-09,
        -0.0061086188070476055,
        0.9999813437461853
      ],
      "scale": [
        0.9999998211860657,
        3.220653743696289e-10,
        3.728134245761794e-09
      ],
      "translation": [
        30.000732421875,
        6.4849853515625e-05,
        3.814697265625e-06
      ]
    },
    {
      "children": [
        34
      ],
      "name": "Bone01",
      "rotation": [
        0.16403114795684814,
        0.4725884795188904,
        0.12545491755008698,
        0.8567467331886292
      ],
      "scale": [
        0.900968611240387,
        -1.0081532053618503e-08,
        1.0304290753992973e-09
      ],
      "translation": [
        5.87957763671875,
        8.388153076171875,
        7.850555419921875
      ]
    },
    {
      "children": [
        35
      ],
      "name": "Bone02",
      "rotation": [
        2.5112187329590085e-10,
        8.482395896791672e-10,
        -0.02162294089794159,
        0.9997662305831909
      ],
      "scale": [
        1.194229245185852,
        1.7176734701251917e-08,
        -1.6868095809030592e-09
      ],
      "translation": [
        39.82002258300781,
        0.0,
        0.0
      ]
    },
    {
      "name": "Bone03",
      "rotation": [
        0.0,
        0.0,
        -0.006108615547418594,
        0.9999813437461853
      ],
      "scale": [
        0.9999997615814209,
        1.1900125329589173e-10,
        0.0
      ],
      "translation": [
        30.000732421875,
        6.866455078125e-05,
        1.9073486328125e-06
      ]
    },
    {
      "children": [
        37
      ],
      "name": "Bip01 R Thigh",
      "rotation": [
        -0.04179591313004494,
        0.9790621399879456,
        -0.18982775509357452,
        0.060463715344667435
      ],
      "scale": [
        1.0,
        1.0411094208961913e-10,
        -9.618622343054994e-09
      ],
      "translation": [
        1.52587890625e-05,
        -1.0311603546142578e-05,
        -10.699400901794434
      ]
    },
    {
      "children": [
        38
      ],
      "name": "Bip01 R Calf",
      "rotation": [
        -1.7697052712151162e-08,
        3.72094888234642e-09,
        -0.0005178478895686567,
        0.9999998807907104
      ],
      "scale": [
        1.0000001192092896,
        1.91027793583487e-09,
        7.423569314823908e-09
      ],
      "translation": [
        47.20613479614258,
        -4.76837158203125e-07,
        -1.9073486328125e-06
      ]
    },
    {
      "children": [
        39
      ],
      "name": "Bip01 R Foot",
      "rotation": [
        0.00955335982143879,
        0.0675608441233635,
        0.028910256922245026,
        0.9972504377365112
      ],
      "scale": [
        0.9999999403953552,
        1.1338007865902e-08,
        -4.402362030475615e-09
      ],
      "translation": [
        44.07231521606445,
        1.6689300537109375e-06,
        1.9073486328125e-06
      ]
    },
    {
      "name": "Bip01 R Toe0",
      "rotation": [
        -5.918808554383759e-09,
        5.859043916700557e-09,
        0.7057639956474304,
        0.7084468603134155
      ],
      "scale": [
        1.0000003576278687,
        7.25242976784557e-10,
        -1.1058930660112765e-08
      ],
      "translation": [
        13.616192817687988,
        14.99531364440918,
        0.0
      ]
    },
    {
      "children": [
        41
      ],
      "name": "Bip01 R UpperArm",
      "rotation": [
        -0.07118091732263565,
        -0.23287498950958252,
        0.0257249865680933,
        0.969556987285614
      ],
      "scale": [
        1.0,
        -3.3902914253758354e-08,
        3.5592460534417114e-08
      ],
      "translation": [
        19.847068786621094,
        0.0,
        0.0
      ]
    },
    {
      "children": [
        42
      ],
      "name": "Bip01 R ForeArm",
      "rotation": [
        -5.582328821418514e-09,
        -7.449177275020702e-09,
        -0.0007523263921029866,
        0.9999997019767761
      ],
      "scale": [
        0.9999998807907104,
        -1.1641541897144947e-10,
        -1.490674783610757e-08
      ],
      "translation": [
        27.864303588867188,
        0.0,
        0.0
      ]
    },
    {
      "children": [
        43,
        46,
        49,
        71
      ],
      "name": "Bip01 R Hand",
      "rotation": [
        0.6610820293426514,
        0.049675390124320984,
        0.03803454712033272,
        0.7477006912231445
      ],
      "scale": [
        1.0000001192092896,
        1.8253098588161265e-08,
        3.770594947383188e-09
      ],
      "translation": [
        25.69066619873047,
        -9.5367431640625e-07,
        0.0
      ]
    },
    {
      "children": [
        44
      ],
      "name": "Bip01 R Finger2",
      "rotation": [
        -0.02813258022069931,
        -0.005823913495987654,
        0.2920498549938202,
        0.9559714794158936
      ],
      "scale": [
        1.0000001192092896,
        -8.317120148149115e-08,
        1.345527067542207e-07
      ],
      "translation": [
        11.659976959228516,
        -0.431396484375,
        -1.1205425262451172
      ]
    },
    {
      "children": [
        45
      ],
      "name": "Bip01 R Finger21",
      "rotation": [
        6.602595553628632e-11,
        9.294349179178596e-10,
        0.10198190808296204,
        0.994786262512207
      ],
      "scale": [
        1.0000001192092896,
        -2.918241648330877e-08,
        1.8357115827427606e-09
      ],
      "translation": [
        4.4481964111328125,
        3.814697265625e-06,
        0.0
      ]
    },
    {
      "name": "Bip01 R Finger22",
      "rotation": [
        3.988332997195698e-10,
        1.9177512911028316e-09,
        0.08962506800889969,
        0.9959755539894104
      ],
      "scale": [
        1.000000238418579,
        -2.9323539152414924e-08,
        3.748577004358822e-09
      ],
      "translation": [
        3.6346435546875,
        0.0,
        0.0
      ]
    },
    {
      "children": [
        47
      ],
      "name": "Bip01 R Finger1",
      "rotation": [
        -0.0736888200044632,
        -0.0342194028198719,
        0.2975735366344452,
        0.9512355327606201
      ],
      "scale": [
        1.0000001192092896,
        -4.5351868038778775e-08,
        7.604993612631006e-08
      ],
      "translation": [
        11.491886138916016,
        -0.2546539306640625,
        4.70471715927124
      ]
    },
    {
      "children": [
        48
      ],
      "name": "Bip01 R Finger11",
      "rotation": [
        -3.1920615040093026e-09,
        -1.6814007131049635e-10,
        0.09490345418453217,
        0.9954864978790283
      ],
      "scale": [
        1.0,
        2.6511841735845207e-18,
        -1.5915320172865677e-09
      ],
      "translation": [
        4.720001220703125,
        0.0,
        0.0
      ]
    },
    {
      "name": "Bip01 R Finger12",
      "rotation": [
        1.7018439990579282e-09,
        3.859782979342974e-11,
        0.08288828283548355,
        0.9965588450431824
      ],
      "scale": [
        1.0,
        -9.84705117446083e-09,
        -3.930486158765234e-09
      ],
      "translation": [
        3.1159896850585938,
        0.0,
        0.0
      ]
    },
    {
      "children": [
        50
      ],
      "name": "Bip01 R Finger0",
      "rotation": [
        -0.6359974145889282,
        -0.31623077392578125,
        -0.06964928656816483,
        0.7004671692848206
      ],
      "scale": [
        0.9999996423721313,
        2.5889721655403264e-07,
        -4.902256733885224e-08
      ],
      "translation": [
        0.6864433288574219,
        2.5254974365234375,
        2.747166633605957
      ]
    },
    {
      "children": [
        51
      ],
      "name": "Bip01 R Finger01",
      "rotation": [
        -2.6163140542934116e-09,
        -7.739245688753726e-09,
        0.2805600166320801,
        0.959836483001709
      ],
      "scale": [
        0.9999999403953552,
        3.210207566439749e-08,
        -2.8289914411061545e-08
      ],
      "translation": [
        5.109405517578125,
        -3.814697265625e-06,
        0.0
      ]
    },
    {
      "name": "Bip01 R Finger02",
      "rotation": [
        4.751503190902895e-09,
        3.9909946458749346e-09,
        0.09313330799341202,
        0.9956536293029785
      ],
      "scale": [
        1.0,
        -1.4642661305686033e-08,
        7.06225034008412e-09
      ],
      "translation": [
        3.5312347412109375,
        0.0,
        0.0
      ]
    },
    {
      "children": [
        53
      ],
      "name": "Bip01 Head",
      "rotation": [
        5.553568130541031e-14,
        -8.242729165885976e-08,
        0.029717812314629555,
        0.9995583295822144
      ],
      "scale": [
        1.0000003576278687,
        -1.0658148807962675e-09,
        -9.465606060467605e-14
      ],
      "translation": [
        11.440719604492188,
        0.0,
        -3.725290298461914e-09
      ]
    },
    {
      "children": [
        54
      ],
      "name": "Bip01 Ponytail1",
      "rotation": [
        1.9211455343226547e-12,
        -2.7697305995388888e-06,
        0.9986048936843872,
        0.0528036430478096
      ],
      "scale": [
        1.0,
        -5.164391581047312e-09,
        -8.464603529819564e-16
      ],
      "translation": [
        9.20233154296875,
        -10.642353057861328,
        -2.551451325416565e-05
      ]
    },
    {
      "children": [
        55
      ],
      "name": "Bip01 Ponytail11",
      "rotation": [
        -5.0403241015585173e-14,
        -4.49142362413113e-07,
        0.16193482279777527,
        0.9868014454841614
      ],
      "scale": [
        0.9999998807907104,
        1.8379806121515685e-08,
        -7.129272351505747e-14
      ],
      "translation": [
        13.133544921875,
        -0.009548187255859375,
        -2.60770320892334e-08
      ]
    },
    {
      "children": [
        56
      ],
      "name": "Bip01 Ponytail12",
      "rotation": [
        -7.198701948126288e-14,
        4.4504281504487153e-07,
        -0.16045673191547394,
        0.9870428442955017
      ],
      "scale": [
        1.0000001192092896,
        1.2547481228943752e-13,
        1.502508377047504e-14
      ],
      "translation": [
        12.64813232421875,
        -0.01032257080078125,
        -3.3527612686157227e-08
      ]
    },
    {
      "children": [
        57
      ],
      "name": "Bip01 Ponytail13",
      "rotation": [
        -1.1402753470179244e-13,
        2.142466684063038e-07,
        -0.07724497467279434,
        0.9970121383666992
      ],
      "scale": [
        0.9999999403953552,
        -5.5425175560230855e-09,
        1.563802222209667e-14
      ],
      "translation": [
        13.685089111328125,
        -0.010772705078125,
        -2.60770320892334e-08
      ]
    },
    {
      "name": "Bip01 Ponytail14",
      "rotation": [
        -8.88427447386618e-16,
        6.566738619540047e-08,
        -0.023675868287682533,
        0.9997196793556213
      ],
      "scale": [
        1.0,
        4.0825741331038036e-16,
        9.483224176363905e-15
      ],
      "translation": [
        13.686225891113281,
        -0.010885238647460938,
        -3.3527612686157227e-08
      ]
    },
    {
      "children": [
        59
      ],
      "name": "Bip01 L Thigh",
      "rotation": [
        -0.041796110570430756,
        0.9790624976158142,
        0.1898263394832611,
        -0.06046232953667641
      ],
      "scale": [
        0.9999999403953552,
        4.873649483982945e-09,
        -4.042969958817366e-09
      ],
      "translation": [
        -1.52587890625e-05,
        1.9371509552001953e-05,
        10.699402809143066
      ]
    },
    {
      "children": [
        60
      ],
      "name": "Bip01 L Calf",
      "rotation": [
        1.6998562557546393e-08,
        3.722275376816242e-09,
        -0.0005178461433388293,
        0.9999998807907104
      ],
      "scale": [
        1.0,
        1.8009117530581875e-09,
        -7.439005855758296e-09
      ],
      "translation": [
        47.20613098144531,
        0.0,
        0.0
      ]
    },
    {
      "children": [
        61
      ],
      "name": "Bip01 L Foot",
      "rotation": [
        -0.009553331881761551,
        -0.06756076216697693,
        0.02891029417514801,
        0.9972504377365112
      ],
      "scale": [
        1.0,
        1.260025062066461e-08,
        2.1382398074365483e-09
      ],
      "translation": [
        44.07231140136719,
        7.152557373046875e-07,
        0.0
      ]
    },
    {
      "name": "Bip01 L Toe0",
      "rotation": [
        5.902042854444289e-09,
        -5.875719910619637e-09,
        0.7057639956474304,
        0.7084468603134155
      ],
      "scale": [
        1.0000003576278687,
        7.185539940834929e-10,
        1.1058968851784812e-08
      ],
      "translation": [
        13.616191864013672,
        14.995314598083496,
        0.0
      ]
    },
    {
      "children": [
        63
      ],
      "name": "Bip01 L Finger2",
      "rotation": [
        -0.04677574336528778,
        -0.09146618843078613,
        0.2815312147140503,
        0.9540367722511292
      ],
      "scale": [
        0.9999997615814209,
        2.2819379807970108e-07,
        -1.6412140979582546e-08
      ],
      "translation": [
        14.496315002441406,
        -0.7662353515625,
        -2.5844573974609375
      ]
    },
    {
      "children": [
        64
      ],
      "name": "Bip01 L Finger21",
      "rotation": [
        -3.097071488156189e-09,
        -4.936798969623624e-09,
        0.14005009829998016,
        0.9901444315910339
      ],
      "scale": [
        0.9999998807907104,
        -9.956356796016557e-17,
        2.26707408401694e-09
      ],
      "translation": [
        6.126609802246094,
        0.0,
        -1.9073486328125e-06
      ]
    },
    {
      "name": "Bip01 L Finger22",
      "rotation": [
        1.0463136135285822e-08,
        -3.753510391391046e-09,
        0.09472176432609558,
        0.9955037832260132
      ],
      "scale": [
        1.0,
        -2.9267535950339152e-08,
        5.445719430952067e-09
      ],
      "translation": [
        6.126609802246094,
        7.62939453125e-06,
        1.9073486328125e-06
      ]
    },
    {
      "children": [
        66
      ],
      "name": "Bip01 L Finger1",
      "rotation": [
        -0.002525363815948367,
        0.010380610823631287,
        0.26034945249557495,
        0.9654553532600403
      ],
      "scale": [
        1.0000001192092896,
        -2.5645862322676294e-08,
        -2.5888937216222985e-07
      ],
      "translation": [
        15.204154968261719,
        0.3554534912109375,
        -5.880039215087891
      ]
    },
    {
      "children": [
        67
      ],
      "name": "Bip01 L Finger11",
      "rotation": [
        -4.4509373964274346e-09,
        -4.187155511203855e-09,
        0.14324702322483063,
        0.9896869659423828
      ],
      "scale": [
        1.0,
        1.690026607548134e-08,
        -7.012780134374452e-09
      ],
      "translation": [
        5.4831085205078125,
        0.0,
        0.0
      ]
    },
    {
      "name": "Bip01 L Finger12",
      "rotation": [
        -2.2108548325405764e-09,
        1.1659658127882722e-08,
        0.09577001631259918,
        0.9954034686088562
      ],
      "scale": [
        0.9999998211860657,
        -1.1364198471142117e-08,
        -6.166729793477543e-09
      ],
      "translation": [
        5.0538330078125,
        0.0,
        0.0
      ]
    },
    {
      "children": [
        69
      ],
      "name": "Bip01 L Finger0",
      "rotation": [
        0.6419492959976196,
        0.3671092391014099,
        -0.010143117047846317,
        0.6730743050575256
      ],
      "scale": [
        1.0000004768371582,
        -6.059868695729165e-08,
        -1.9829917619063053e-07
      ],
      "translation": [
        2.72552490234375,
        1.5828857421875,
        -4.528717041015625
      ]
    },
    {
      "children": [
        70
      ],
      "name": "Bip01 L Finger01",
      "rotation": [
        -4.722098267961883e-09,
        4.009721443765102e-09,
        0.2218993753194809,
        0.9750695824623108
      ],
      "scale": [
        1.0000001192092896,
        3.69369098380531e-17,
        -4.0546623836235085e-09
      ],
      "translation": [
        9.032470703125,
        0.0,
        7.62939453125e-06
      ]
    },
    {
      "name": "Bip01 L Finger02",
      "rotation": [
        1.1570745250821801e-08,
        1.9428945119415175e-09,
        0.25226956605911255,
        0.9676569700241089
      ],
      "scale": [
        1.0,
        -1.6735661745315156e-08,
        3.5101535011961005e-09
      ],
      "translation": [
        5.888336181640625,
        -3.814697265625e-06,
        0.0
      ]
    },
    {
      "name": "equip_right",
      "rotation": [
        5.094334483146667e-07,
        1.73225998878479e-07,
        -2.682208730675484e-07,
        1.0
      ],
      "scale": [
        1.0000001192092896,
        -1.262603709735119e-13,
        7.45087014308865e-09
      ],
      "translation": [
        7.531379699707031,
        2.14093017578125,
        -2.002574920654297
      ]
    }
  ],
  "scene": 0,
  "scenes": [
    {
      "nodes": [
        0
      ]
    }
  ],
  "skins": [
    {
      "inverseBindMatrices": 8,
      "joints": [
        3,
        4,
        5,
        6,
        7,
        8,
        9,
        10,
        11,
        12,
        13,
        14,
        15,
        16,
        17,
        18,
        19,
        20,
        21,
        22,
        23,
        24,
        25,
        26,
        27,
        28,
        29,
        30,
        31,
        32,
        33,
        34,
        35,
        36,
        37,
        38,
        39,
        40,
        41,
        42,
        43,
        44,
        45,
        46,
        47,
        48,
        49,
        50,
        51,
        52,
        53,
        54,
        55,
        56,
        57,
        58,
        59,
        60,
        61,
        62,
        63,
        64,
        65,
        66,
        67,
        68,
        69,
        70,
        71
      ],
      "skeleton": 3
    }
  ]
}
